<?xml version="1.0" encoding="UTF-8"?><svg id="_レイヤー_2" xmlns="http://www.w3.org/2000/svg" xmlns:xlink="http://www.w3.org/1999/xlink" viewBox="0 0 260.63 74"><defs><style>.cls-1{filter:url(#outer-glow-1);}.cls-2{fill:#9dc938;}.cls-2,.cls-3{stroke-width:0px;}.cls-3{fill:#fff;}</style><filter id="outer-glow-1" filterUnits="userSpaceOnUse"><feOffset dx="0" dy="0"/><feGaussianBlur result="blur" stdDeviation="3.22"/><feFlood flood-color="#000" flood-opacity=".61"/><feComposite in2="blur" operator="in"/><feComposite in="SourceGraphic"/></filter></defs><g id="_レイヤー_2-2"><g class="cls-1"><path class="cls-3" d="M163.61,9.39h-15.53c-.09,0-.17.07-.18.15l-8.26,45.6c-.01.05,0,.11.04.15.04.04.09.07.14.07h9.1c.09,0,.17-.07.18-.16l1.44-8.31c.04-.23.24-.4.48-.4h9.65c.24,0,.44.17.48.4l1.44,8.31c.02.09.09.16.19.16h9.1c.05,0,.11-.03.14-.07.04-.04.05-.1.04-.15l-8.26-45.6c-.01-.09-.09-.15-.18-.15M159.54,37.92c.02.14-.02.28-.11.39-.09.11-.23.17-.37.17h-6.45c-.14,0-.27-.06-.37-.17-.09-.11-.13-.25-.11-.39l3.24-21.1c.03-.24.24-.41.48-.41s.44.17.48.41l3.21,21.1Z"/><path class="cls-3" d="M193.22,29.11c-6.15-3.18-6.94-4.59-6.94-5.45v-4.48c0-1.1.61-1.73,1.66-1.73h4.68c1.08,0,1.69.63,1.69,1.73v4.63c0,.1.08.19.19.19h8.47c.1,0,.19-.08.19-.19v-6.92c0-2.58-.6-4.5-1.79-5.71-1.29-1.26-3.12-1.76-6.53-1.78h-9.4c-3.41.02-5.25.52-6.54,1.79-1.18,1.2-1.78,3.12-1.78,5.7v7.75c0,2.8.6,4.83,1.79,6.04,1.24,1.22,4.04,2.99,8.32,5.26,5.97,3.16,6.77,4.36,6.77,5.12v4.51c0,1.1-.61,1.73-1.66,1.73h-4.68c-1.08,0-1.69-.63-1.69-1.73v-4.63c0-.1-.09-.19-.19-.19h-8.8c-.1,0-.19.08-.19.19v6.92c0,2.58.6,4.5,1.79,5.71,1.28,1.26,3.12,1.76,6.53,1.78h10.05c3.41-.02,5.25-.52,6.54-1.79,1.18-1.2,1.78-3.12,1.78-5.7v-7.46c0-2.8-.6-4.83-1.79-6.04-1.24-1.22-4.09-2.99-8.48-5.25"/><path class="cls-3" d="M135.14,9.39h-22.16c-.1,0-.19.08-.19.19v45.6c0,.1.08.19.19.19h22.16c.1,0,.19-.08.19-.19v-7.69c0-.1-.08-.18-.19-.18h-12.35c-.27,0-.48-.22-.48-.48v-9.95c0-.27.22-.48.48-.48h10.52c.1,0,.19-.08.19-.19v-7.69c0-.1-.08-.18-.19-.18h-10.52c-.27,0-.48-.22-.48-.49v-9.91c0-.27.22-.48.48-.48h12.35c.1,0,.19-.08.19-.19v-7.69c0-.1-.08-.19-.19-.19"/><path class="cls-2" d="M64.36,9.39h-9.13c-.1,0-.19.08-.19.19v45.6c0,.1.08.19.19.19h9.13c.1,0,.19-.08.19-.19V9.58c0-.1-.08-.19-.19-.19"/><path class="cls-3" d="M48.6,9.39h-22.15c-.1,0-.19.08-.19.19v45.6c0,.1.08.19.19.19h9.13c.1,0,.19-.08.19-.19v-18.3c0-.27.22-.48.48-.48h11.17c.1,0,.19-.08.19-.19v-7.69c0-.1-.08-.18-.19-.18h-11.17c-.27,0-.48-.22-.48-.49v-9.91c0-.27.22-.48.48-.48h12.35c.1,0,.19-.08.19-.19v-7.69c0-.1-.08-.19-.19-.19"/><path class="cls-2" d="M96.74,9.39h-26.33c-.1,0-.19.08-.19.19v7.69c0,.1.08.19.19.19h7.93c.27,0,.48.22.48.48v37.25c0,.1.08.19.19.19h9.13c.1,0,.19-.08.19-.19V17.94c0-.27.22-.48.48-.48h7.93c.1,0,.18-.08.18-.19v-7.69c0-.1-.08-.19-.18-.19"/><path class="cls-3" d="M238.83,9.47c-.03-.05-.09-.08-.15-.08h-9.02c-.08,0-.15.05-.18.13l-6.23,19.43c-.06.2-.25.33-.46.33s-.4-.14-.46-.34l-6.19-19.42c-.03-.08-.1-.13-.18-.13h-9.02c-.06,0-.12.03-.15.08-.03.05-.04.11-.02.17l11.25,30.8c.02.05.03.11.03.17v14.57c0,.1.08.19.19.19h9.13c.1,0,.18-.08.18-.19v-14.51c0-.06.01-.11.03-.17l11.28-30.86c.02-.06.02-.12-.02-.17"/><path class="cls-2" d="M106.01,29.28h-9.94c-.1,0-.19.09-.19.19v7.71c0,.1.08.19.19.19h9.94c.1,0,.19-.08.19-.19v-7.71c0-.1-.08-.19-.19-.19"/><path class="cls-3" d="M254.46,62.98h-9.27v-5.97h9.27c.1,0,.19-.09.19-.19V6.16c0-.1-.09-.19-.19-.19h-9.27V0h9.27c3.4,0,6.16,2.77,6.16,6.16v50.65c0,3.4-2.77,6.16-6.16,6.16"/><path class="cls-3" d="M6.16,62.98h9.27v-5.97H6.16c-.1,0-.19-.09-.19-.19V6.16c0-.1.09-.19.19-.19h9.27V0H6.16C2.77,0,0,2.77,0,6.16v50.65c0,3.4,2.77,6.16,6.16,6.16"/><path class="cls-3" d="M35.99,73.76c-.06-.05-.09-.11-.09-.18,0-.05.02-.12.06-.2l4.49-8.44c.07-.13.16-.2.26-.2.12,0,.2.07.26.2l4.49,8.44c.04.08.06.15.06.2,0,.07-.03.13-.09.18-.06.05-.14.07-.24.07h-1.35c-.19,0-.34-.09-.44-.27l-.58-1.12h-4.24l-.56,1.12c-.08.18-.23.27-.44.27h-1.37c-.1,0-.18-.02-.24-.07M41.88,70.75l-1.17-2.37-1.16,2.37h2.32Z"/><path class="cls-3" d="M56.05,64.82c.07,0,.12.03.16.09.04.06.06.14.06.24v8.3c0,.12-.03.21-.1.27-.07.07-.16.1-.27.1h-1.23c-.12,0-.21-.03-.27-.1-.07-.07-.1-.16-.1-.27v-3.96l-2.52,2.92c-.07.1-.16.15-.26.15-.08,0-.17-.05-.26-.15l-2.52-2.92v3.96c0,.12-.03.21-.1.27-.07.07-.16.1-.27.1h-1.23c-.12,0-.21-.03-.27-.1-.07-.07-.1-.16-.1-.27v-8.3c0-.1.02-.18.06-.24.04-.06.09-.09.16-.09.08,0,.17.05.25.15l4.3,4.85,4.3-4.85c.09-.1.17-.15.25-.15"/><path class="cls-3" d="M60.29,73.51c-.61-.32-1.09-.76-1.43-1.34-.34-.59-.51-1.26-.51-2.03v-5.02c0-.12.03-.21.1-.27.07-.07.16-.1.27-.1h1.22c.12,0,.21.03.27.1.07.07.1.16.1.27v5.02c0,.5.11.91.32,1.24.21.33.5.57.85.71.3.13.61.2.94.2s.65-.07.97-.21c.32-.14.58-.36.78-.67.22-.31.34-.74.34-1.27v-5.02c0-.12.03-.21.1-.27.07-.07.16-.1.27-.1h1.22c.12,0,.21.03.27.1.07.07.1.16.1.27v5.02c0,.77-.17,1.45-.5,2.03-.33.58-.8,1.03-1.42,1.34-.61.32-1.33.47-2.14.47s-1.52-.16-2.14-.47"/><path class="cls-3" d="M68.26,72.52c0-.07.03-.15.09-.24l.62-.89c.07-.12.16-.17.27-.17.07,0,.15.03.24.09.39.27.84.49,1.35.66.51.18.97.27,1.39.27.51,0,.91-.1,1.22-.29.31-.19.46-.43.46-.72,0-.41-.31-.7-.94-.87l-1.08-.22c-.71-.12-1.3-.26-1.76-.42-.46-.17-.87-.43-1.24-.78-.41-.38-.61-.91-.61-1.58,0-.92.34-1.61,1.01-2.06.68-.46,1.54-.68,2.59-.68.65,0,1.24.08,1.75.24.51.16,1.02.41,1.53.75.12.08.17.18.17.28,0,.09-.03.17-.09.24l-.66.89c-.07.12-.17.17-.27.17-.08,0-.17-.03-.25-.09-.37-.23-.74-.41-1.13-.53-.39-.12-.76-.19-1.14-.19-.43,0-.8.07-1.11.22-.31.15-.46.37-.46.67,0,.18.08.34.24.46.16.12.35.22.58.27.17.05.49.13.98.24l.45.09c.77.15,1.37.31,1.79.47.42.17.79.43,1.09.78.33.38.5.91.5,1.59,0,.9-.32,1.6-.96,2.09-.64.49-1.53.73-2.65.73-1.5,0-2.77-.4-3.82-1.19-.11-.08-.16-.18-.16-.29"/><path class="cls-3" d="M79.28,68.47h3.98c.12,0,.21.03.27.1.07.07.1.16.1.27v.97c0,.12-.03.21-.1.27-.07.07-.16.1-.27.1h-3.98v1.94h4.55c.12,0,.21.03.27.1.07.07.1.16.1.27v.96c0,.12-.03.21-.1.27-.07.07-.16.1-.27.1h-6.14c-.12,0-.21-.03-.27-.1-.07-.07-.1-.16-.1-.27v-8.34c0-.12.03-.21.1-.27.07-.07.16-.1.27-.1h6.14c.12,0,.21.03.27.1.07.07.1.16.1.27v.96c0,.12-.03.21-.1.27-.07.07-.16.1-.27.1h-4.55v2.03Z"/><path class="cls-3" d="M95.34,64.82c.07,0,.12.03.16.09.04.06.06.14.06.24v8.3c0,.12-.03.21-.1.27-.07.07-.16.1-.27.1h-1.23c-.12,0-.21-.03-.27-.1-.07-.07-.1-.16-.1-.27v-3.96l-2.52,2.92c-.07.1-.16.15-.26.15-.08,0-.17-.05-.26-.15l-2.52-2.92v3.96c0,.12-.03.21-.1.27-.07.07-.16.1-.27.1h-1.23c-.12,0-.21-.03-.27-.1-.07-.07-.1-.16-.1-.27v-8.3c0-.1.02-.18.06-.24.04-.06.09-.09.16-.09.08,0,.17.05.25.15l4.3,4.85,4.3-4.85c.09-.1.17-.15.25-.15"/><path class="cls-3" d="M99.59,68.47h3.98c.12,0,.21.03.27.1.07.07.1.16.1.27v.97c0,.12-.03.21-.1.27-.07.07-.16.1-.27.1h-3.98v1.94h4.55c.12,0,.21.03.27.1.07.07.1.16.1.27v.96c0,.12-.03.21-.1.27-.07.07-.16.1-.27.1h-6.14c-.12,0-.21-.03-.27-.1-.07-.07-.1-.16-.1-.27v-8.34c0-.12.03-.21.1-.27.07-.07.16-.1.27-.1h6.14c.12,0,.21.03.27.1.07.07.1.16.1.27v.96c0,.12-.03.21-.1.27-.07.07-.16.1-.27.1h-4.55v2.03Z"/><path class="cls-3" d="M108.3,73.45c0,.12-.03.21-.1.27-.07.07-.16.1-.27.1h-1.21c-.12,0-.21-.03-.27-.1-.07-.07-.1-.16-.1-.27v-8.5c0-.07.02-.12.05-.15.03-.04.08-.06.14-.06.09,0,.18.04.27.12l5.8,5.13v-4.87c0-.12.03-.21.1-.27.07-.07.16-.1.27-.1h1.22c.12,0,.21.03.27.1.07.07.1.16.1.27v8.38c0,.1-.02.18-.06.24-.04.06-.1.09-.16.09-.07,0-.14-.03-.2-.09l-5.85-5.1v4.8Z"/><path class="cls-3" d="M123.37,66.34c-.07.07-.16.1-.27.1h-2.26v7.01c0,.12-.03.21-.1.27-.07.07-.16.1-.27.1h-1.23c-.12,0-.21-.03-.27-.1-.07-.07-.1-.16-.1-.27v-7.01h-2.27c-.12,0-.21-.03-.27-.1s-.1-.16-.1-.27v-.96c0-.12.03-.21.1-.27.07-.07.16-.1.27-.1h6.51c.12,0,.21.03.27.1.07.07.1.16.1.27v.96c0,.12-.03.21-.1.27"/><path class="cls-3" d="M130.37,68.44h3.96c.12,0,.21.03.27.1.07.07.1.16.1.27v.96c0,.12-.03.21-.1.27-.07.07-.16.1-.27.1h-3.96v3.31c0,.12-.03.21-.1.27-.07.07-.16.1-.27.1h-1.23c-.12,0-.21-.03-.27-.1-.07-.07-.1-.16-.1-.27v-8.34c0-.12.03-.21.1-.27.07-.07.16-.1.27-.1h6.14c.12,0,.21.03.27.1.07.07.1.16.1.27v.96c0,.12-.03.21-.1.27-.07.07-.16.1-.27.1h-4.54v2Z"/><path class="cls-3" d="M138.8,73.72c-.07.07-.16.1-.27.1h-1.22c-.12,0-.21-.03-.27-.1-.07-.07-.1-.16-.1-.27v-8.34c0-.12.03-.21.1-.27.07-.07.16-.1.27-.1h1.22c.12,0,.21.03.27.1.07.07.1.16.1.27v8.34c0,.12-.03.21-.1.27"/><path class="cls-3" d="M147.85,66.34c-.07.07-.16.1-.27.1h-2.26v7.01c0,.12-.03.21-.1.27-.07.07-.16.1-.27.1h-1.23c-.12,0-.21-.03-.27-.1-.07-.07-.1-.16-.1-.27v-7.01h-2.27c-.12,0-.21-.03-.27-.1s-.1-.16-.1-.27v-.96c0-.12.03-.21.1-.27.07-.07.16-.1.27-.1h6.51c.12,0,.21.03.27.1.07.07.1.16.1.27v.96c0,.12-.03.21-.1.27"/><path class="cls-3" d="M151.1,73.45c0,.12-.03.21-.1.27-.07.07-.16.1-.27.1h-1.21c-.12,0-.21-.03-.27-.1-.07-.07-.1-.16-.1-.27v-8.5c0-.07.02-.12.05-.15.03-.04.08-.06.14-.06.09,0,.18.04.27.12l5.8,5.13v-4.87c0-.12.03-.21.1-.27.07-.07.16-.1.27-.1h1.22c.12,0,.21.03.27.1.07.07.1.16.1.27v8.38c0,.1-.02.18-.06.24-.04.06-.1.09-.16.09-.07,0-.14-.03-.2-.09l-5.85-5.1v4.8Z"/><path class="cls-3" d="M161.39,68.47h3.98c.12,0,.21.03.27.1.07.07.1.16.1.27v.97c0,.12-.03.21-.1.27-.07.07-.16.1-.27.1h-3.98v1.94h4.55c.12,0,.21.03.27.1.07.07.1.16.1.27v.96c0,.12-.03.21-.1.27-.07.07-.16.1-.27.1h-6.14c-.12,0-.21-.03-.27-.1-.07-.07-.1-.16-.1-.27v-8.34c0-.12.03-.21.1-.27.07-.07.16-.1.27-.1h6.14c.12,0,.21.03.27.1.07.07.1.16.1.27v.96c0,.12-.03.21-.1.27-.07.07-.16.1-.27.1h-4.55v2.03Z"/><path class="cls-3" d="M167.86,72.52c0-.07.03-.15.09-.24l.62-.89c.07-.12.16-.17.27-.17.07,0,.15.03.24.09.39.27.84.49,1.35.66.51.18.97.27,1.39.27.51,0,.91-.1,1.22-.29.31-.19.46-.43.46-.72,0-.41-.31-.7-.94-.87l-1.08-.22c-.71-.12-1.3-.26-1.76-.42-.46-.17-.87-.43-1.24-.78-.41-.38-.61-.91-.61-1.58,0-.92.34-1.61,1.01-2.06.68-.46,1.54-.68,2.59-.68.65,0,1.24.08,1.75.24.51.16,1.02.41,1.53.75.11.08.17.18.17.28,0,.09-.03.17-.09.24l-.66.89c-.07.12-.17.17-.27.17-.08,0-.17-.03-.25-.09-.36-.23-.74-.41-1.12-.53-.39-.12-.77-.19-1.14-.19-.43,0-.8.07-1.11.22-.31.15-.46.37-.46.67,0,.18.08.34.24.46.16.12.35.22.58.27.17.05.49.13.98.24l.45.09c.77.15,1.37.31,1.79.47.42.17.79.43,1.09.78.33.38.5.91.5,1.59,0,.9-.32,1.6-.96,2.09-.64.49-1.53.73-2.65.73-1.5,0-2.77-.4-3.81-1.19-.11-.08-.16-.18-.16-.29"/><path class="cls-3" d="M176.64,72.52c0-.07.03-.15.09-.24l.62-.89c.07-.12.16-.17.27-.17.08,0,.15.03.24.09.39.27.84.49,1.35.66.51.18.97.27,1.39.27.51,0,.91-.1,1.22-.29.31-.19.46-.43.46-.72,0-.41-.32-.7-.95-.87l-1.08-.22c-.71-.12-1.3-.26-1.76-.42-.46-.17-.87-.43-1.24-.78-.41-.38-.61-.91-.61-1.58,0-.92.34-1.61,1.01-2.06.68-.46,1.54-.68,2.59-.68.65,0,1.24.08,1.75.24.51.16,1.02.41,1.53.75.12.08.17.18.17.28,0,.09-.03.17-.09.24l-.66.89c-.08.12-.17.17-.27.17-.08,0-.17-.03-.25-.09-.37-.23-.74-.41-1.13-.53-.38-.12-.76-.19-1.14-.19-.43,0-.8.07-1.11.22-.31.15-.46.37-.46.67,0,.18.08.34.24.46.16.12.35.22.58.27.17.05.49.13.98.24l.45.09c.77.15,1.37.31,1.79.47.42.17.79.43,1.09.78.33.38.5.91.5,1.59,0,.9-.32,1.6-.96,2.09-.64.49-1.53.73-2.65.73-1.5,0-2.77-.4-3.82-1.19-.11-.08-.16-.18-.16-.29"/><path class="cls-3" d="M196.46,70.86c.06,0,.12.01.17.04l1.13.43c.17.07.25.16.25.29,0,.07-.02.14-.07.21-.45.69-1.04,1.22-1.76,1.6-.72.38-1.5.57-2.34.57-.88,0-1.69-.21-2.44-.63-.75-.42-1.35-.99-1.8-1.72-.44-.73-.66-1.52-.66-2.36s.22-1.62.66-2.34c.44-.72,1.04-1.3,1.79-1.72.75-.42,1.56-.63,2.45-.63.81,0,1.58.19,2.31.57.72.38,1.32.9,1.78,1.57.05.07.08.14.08.21,0,.12-.08.22-.24.29l-1.13.43c-.06.02-.12.04-.19.04-.13,0-.23-.06-.32-.17-.3-.36-.65-.64-1.05-.85-.4-.21-.82-.31-1.24-.31-.52,0-1.01.13-1.45.4-.45.27-.8.63-1.07,1.08-.26.46-.4.94-.4,1.44s.13,1,.39,1.45c.26.45.62.81,1.06,1.08.45.27.94.41,1.47.41.44,0,.86-.1,1.27-.31s.75-.49,1.03-.85c.1-.13.21-.2.32-.2"/><path class="cls-3" d="M206.13,72.22c.07.07.1.16.1.27v.96c0,.12-.03.21-.1.27-.07.07-.16.1-.27.1h-5.99c-.12,0-.21-.03-.27-.1-.07-.07-.1-.16-.1-.27v-8.34c0-.12.03-.21.1-.27.07-.07.16-.1.27-.1h1.23c.11,0,.21.03.27.1.07.07.1.16.1.27v7.01h4.39c.12,0,.21.03.27.1"/><path class="cls-3" d="M209.37,73.51c-.61-.32-1.09-.76-1.43-1.34-.34-.59-.51-1.26-.51-2.03v-5.02c0-.12.03-.21.1-.27.07-.07.16-.1.27-.1h1.22c.12,0,.21.03.27.1.07.07.1.16.1.27v5.02c0,.5.11.91.32,1.24.22.33.5.57.85.71.3.13.61.2.94.2s.66-.07.97-.21c.31-.14.58-.36.78-.67.22-.31.34-.74.34-1.27v-5.02c0-.12.03-.21.1-.27.07-.07.16-.1.27-.1h1.22c.12,0,.21.03.27.1.07.07.1.16.1.27v5.02c0,.77-.17,1.45-.5,2.03-.33.58-.8,1.03-1.42,1.34-.61.32-1.33.47-2.14.47s-1.52-.16-2.14-.47"/><path class="cls-3" d="M224.03,68.37c-.21.33-.49.57-.83.71.42.15.78.42,1.07.82s.44.83.44,1.29c0,.9-.29,1.56-.86,1.99-.57.43-1.35.65-2.32.65h-3.56c-.11,0-.21-.03-.27-.1-.07-.07-.1-.16-.1-.27v-8.34c0-.12.03-.21.1-.27.07-.07.16-.1.27-.1h3.41c1.97,0,2.96.84,2.96,2.52,0,.41-.11.77-.32,1.11M221.43,68.34c.31,0,.54-.1.7-.29.16-.19.24-.43.24-.72,0-.24-.09-.45-.27-.63-.18-.18-.4-.27-.66-.27h-1.85v1.9h1.84ZM221.54,72.12c.37,0,.67-.1.89-.29.22-.19.33-.44.33-.74s-.11-.54-.34-.74c-.22-.19-.53-.29-.92-.29h-1.91v2.06h1.95Z"/></g></g></svg>