<?xml version="1.0" encoding="UTF-8"?><svg id="_レイヤー_2" xmlns="http://www.w3.org/2000/svg" viewBox="0 0 135.99 135.99"><defs><style>.cls-1{fill:none;}.cls-1,.cls-2{stroke-width:0px;}.cls-2{fill:#fff;}</style></defs><g id="_レイヤー_2-2"><rect class="cls-1" x="0" width="135.99" height="135.99" rx="10" ry="10"/><path class="cls-2" d="M51.54,117.24h2.62c1.23,0,2.46-.04,3.71-.07.2-.02.29.07.29.29.02.48.02.99,0,1.47,0,.24-.06.33-.28.33-.88-.04-2.51-.07-3.71-.07h-7.37c-.75,0-1.94.06-3.38.07-.29.02-.33-.06-.39-.37-.07-.4-.13-1.06-.13-1.72,1.32.07,2.71.09,3.89.09h2.49v-6.27h-1.43c-1.32,0-2.09.04-2.84.07-.22.02-.26-.11-.31-.39-.07-.37-.15-1.08-.15-1.71.92.09,1.65.07,3.17.07h5.19c1.12,0,2.13,0,3.21-.06.18-.02.24.09.24.29.02.46.02.97,0,1.43-.02.24-.06.35-.26.35-1.23-.06-2.13-.07-3.15-.07h-1.43v6.25Z"/><path class="cls-2" d="M70.21,108.19c.66,0,.99-.02,1.27-.17.07-.06.13-.07.2-.07.11,0,.2.07.31.15.42.33.84.81,1.19,1.28.05.09.09.17.09.24,0,.11-.07.24-.24.37-.24.2-.48.48-.68.81-.75,1.28-1.47,2.31-2.35,3.43,1.76,1.3,3.39,2.73,5.08,4.44.09.09.15.18.15.26s-.04.17-.13.27c-.35.42-.77.86-1.23,1.25-.07.07-.15.11-.22.11-.09,0-.17-.05-.26-.15-1.54-1.8-3.12-3.25-4.77-4.55-2.07,2.16-4.16,3.72-6.16,4.84-.17.07-.29.15-.42.15-.11,0-.22-.06-.31-.17-.4-.5-.94-.86-1.54-1.19,2.86-1.45,4.57-2.75,6.46-4.68,1.32-1.38,2.33-2.68,3.45-4.6l-4.73.02c-.95,0-1.91.04-2.9.11-.15.02-.2-.11-.24-.31-.09-.39-.17-1.27-.17-1.91.99.07,1.91.07,3.1.07h5.04Z"/><path class="cls-2" d="M86.75,113.44c-.11,2.05-.37,3.28-1.08,4.68-.73,1.43-2.05,2.77-3.23,3.47-.2.13-.39.22-.55.22-.13,0-.26-.05-.39-.18-.37-.37-.99-.73-1.63-.97,1.8-.97,2.88-1.87,3.65-3.26.68-1.21.86-2.2.94-3.94h-3.48c-.92,0-1.82.06-2.75.11-.17.02-.22-.11-.24-.35-.09-.51-.15-1.21-.15-1.76,1.03.09,2.05.09,3.12.09h8.24c1.43,0,2.49-.04,3.58-.11.18,0,.2.11.2.37.02.24.02,1.17,0,1.41,0,.24-.11.31-.28.31-.95-.04-2.22-.07-3.48-.07h-2.46ZM83.12,109.18c-.84,0-1.58.04-2.6.07-.24,0-.29-.09-.31-.31-.06-.44-.07-1.1-.13-1.76,1.28.07,2.22.09,3.04.09h4.11c1.03,0,2.18-.02,3.1-.07.18,0,.22.11.22.35.04.44.04.9,0,1.34,0,.26-.04.35-.24.35-.99-.04-2.07-.05-3.08-.05h-4.11Z"/><path class="cls-2" d="M92.88,66.69s-11.79-13.74-12.61-14.39c-.82-.66-2.94-2.2-5.72-2.2s-6.66-.36-6.66-4.9c-1.34.44-2.77.69-4.25.69-1.34,0-2.63-.21-3.85-.57l.44.96c.6,1.45.6,2.89.03,4.33l-2.96,7.49c1.56.2,3.94.82,6.33,1.46,2.9-.77,5.8-1.53,7.22-1.53,1.59,0,3.02.35,4.22.87l9.51,10.85-13.24,10.34c-1.67,1.55-1.76,4.16-.21,5.83.95,1.02,2.29,1.45,3.58,1.28.81-.11,1.6-.46,2.25-1.07l16.1-13.24c.87-.81,1.35-1.96,1.31-3.14-.03-1.19-.58-2.3-1.5-3.06Z"/><path class="cls-2" d="M74.81,88.79c-.26.03-.51.05-.77.05-1.59,0-3.12-.67-4.2-1.83-1.04-1.12-1.59-2.58-1.53-4.11.06-1.53.7-2.95,1.82-3.99l.11-.09,3.87-3.02c.27-2.2,1.02-5.05,1.6-7.28h-22.53l-1.81,4.59c.33,1.53.58,3,.58,4.11,0,7.96-4.15,7.6-4.15,18.49h30.35c0-3.57-.45-5.93-1.05-7.77-.69.44-1.47.74-2.29.85Z"/><path class="cls-2" d="M75.99,26.76c.73-1.05,1.16-2.32,1.16-3.69,0-3.57-2.89-6.46-6.46-6.46-1.98,0-3.75.89-4.93,2.29,4.58.73,8.4,3.75,10.23,7.86Z"/><path class="cls-2" d="M58.9,46.95l-4.39-9.62c-.74-1.61-2.64-2.32-4.25-1.59-1.61.74-2.32,2.64-1.59,4.25l2.89,6.32-9.66,24.28c-.84,2.12.2,4.52,2.32,5.35.5.2,1.01.29,1.51.29,1.65,0,3.2-.99,3.84-2.61l9.33-23.61c.22-.56.58-1.69,0-3.08Z"/><path class="cls-2" d="M55.84,36.66l3.03,6.63c1.46.63,3.08.99,4.77.99,6.65,0,12.04-5.39,12.04-12.03s-5.39-12.04-12.04-12.04-12.04,5.39-12.04,12.04c0,.55.05,1.09.12,1.62,1.77.1,3.37,1.17,4.11,2.79Z"/></g></svg>