<?xml version="1.0" encoding="UTF-8"?><svg id="_レイヤー_2" xmlns="http://www.w3.org/2000/svg" viewBox="0 0 135.99 135.99"><defs><style>.cls-1{stroke:#fff;stroke-miterlimit:10;stroke-width:1.3px;}.cls-1,.cls-2{fill:none;}.cls-2,.cls-3{stroke-width:0px;}.cls-3{fill:#fff;}</style></defs><g id="_レイヤー_2-2"><rect class="cls-2" x="0" width="135.99" height="135.99" rx="10" ry="10"/><path class="cls-3" d="M11.95,110.16c0-1.45-.03-2.2-.17-3.23.66.07,1.29.2,1.7.37.17.05.25.17.25.33,0,.07-.03.18-.08.29-.15.39-.17.77-.17,1.63v1.89l3.45-1.12c.58-.18.7-.28.94-.53.07-.07.13-.11.18-.11.07,0,.12.04.19.11.28.24.7.75.98,1.19.08.11.12.22.12.33,0,.13-.07.26-.17.37-.18.18-.29.46-.41.72-.67,1.58-1.33,2.92-2.1,3.96-.12.17-.22.27-.34.27-.08,0-.16-.04-.25-.13-.38-.31-.71-.55-1.1-.7.91-1.1,1.56-2.33,2.15-3.67l-3.63,1.28v4.16c0,.97.24,1.28,1.66,1.28,1.07,0,2.3-.18,3.2-.4.19-.04.2.09.22.37.07.5.12,1.05.12,1.54,0,.18-.08.26-.28.28-.79.13-1.7.22-3.16.22-2.52,0-3.3-.75-3.3-3.23v-3.71l-.85.31c-.71.26-1.45.53-1.86.79-.07.04-.12.07-.16.07-.09,0-.15-.09-.21-.29-.19-.48-.38-1.27-.53-1.87.83-.15,1.58-.33,2.48-.64l1.12-.39v-1.76Z"/><path class="cls-3" d="M24.97,109.31c.22.09.25.31.17.57-.15.4-.16.81-.16,1.25-.03,2.29-.28,4.04-.71,5.39-.34,1.12-.92,2.31-1.88,3.45-.13.15-.24.24-.34.24-.08,0-.16-.06-.25-.15-.33-.31-.65-.53-1.12-.77,1.03-1.08,1.73-2.2,2.19-3.65.37-1.25.54-2.26.55-5.19,0-.7-.03-.99-.13-1.54.75.13,1.36.26,1.68.4ZM27.9,117.07c.65-.48,1.25-1.05,1.88-1.71.79-.84,1.57-1.82,2.31-3.12.05.64.19,1.25.41,1.85.04.13.08.22.08.31,0,.13-.05.26-.2.46-.66.94-1.27,1.69-1.95,2.4-.69.73-1.43,1.45-2.35,2.2-.24.22-.26.26-.38.38-.08.09-.17.15-.26.15-.08,0-.17-.05-.28-.15-.29-.28-.59-.75-.79-1.12-.08-.17-.12-.27-.12-.38,0-.09.01-.17.05-.28.09-.24.08-.46.08-1.39v-5.74c0-1.6,0-2.35-.13-3.19.53.09,1.25.22,1.65.39.17.05.24.17.24.31,0,.11-.04.28-.11.46-.12.35-.12.71-.12,2.04v6.13Z"/><path class="cls-3" d="M36.06,110.27c-.86,0-1.61.05-2.18.09-.17.02-.22-.11-.25-.37-.04-.37-.09-1.32-.12-1.85.59.09,1.29.13,2.54.13h4.71c.4,0,.54-.04.73-.18.07-.06.13-.07.2-.07.08,0,.16.04.25.09.36.31.71.77.96,1.21.07.11.09.2.09.31,0,.17-.07.31-.19.46-.12.17-.19.35-.3.72-.65,2.16-1.45,4.18-2.56,5.96-1.14,1.8-2.42,3.32-3.75,4.37-.12.11-.24.17-.36.17-.11,0-.22-.05-.33-.2-.3-.4-.74-.73-1.23-1.01,1.93-1.36,3.1-2.62,4.32-4.59,1.03-1.63,1.7-3.19,2.23-5.23h-4.77Z"/><path class="cls-3" d="M47.95,114.43c.12.11.2.22.2.35,0,.09-.04.18-.15.29-.13.15-.22.33-.33.62-.34.97-.92,2.26-1.47,3.06-.09.15-.17.22-.26.22-.05,0-.12-.04-.2-.11-.38-.35-.75-.64-1.12-.77.77-1.1,1.24-2.05,1.6-3.03.2-.5.29-.9.36-1.49.54.24,1.04.55,1.37.84ZM49.7,109.39c0-1.16-.03-2-.15-2.82.62.07,1.31.18,1.64.27.16.04.24.13.24.28,0,.09-.03.2-.08.33-.12.31-.13.73-.13,1.83v.97h1.62c1.15,0,2.05-.07,2.69-.11.12-.02.17.09.17.29.01.48.01.95-.01,1.43-.01.24-.05.37-.18.35-.82-.04-1.82-.09-2.72-.09h-1.56v3.71c.01.97.04,1.76.04,3.19,0,.9-.24,1.5-.78,1.89-.42.33-1.14.59-1.69.6-.16,0-.24-.11-.32-.39-.2-.64-.48-1.17-.88-1.65.9,0,1.48-.07,1.8-.22.21-.13.3-.33.3-.81v-6.33h-2.07c-.75,0-1.66.05-2.29.13-.12,0-.17-.15-.17-.37-.01-.33-.05-1.16-.05-1.76,1,.11,1.81.13,2.48.13h2.1v-.86ZM53.59,113.77c.07-.07.12-.09.17-.09.08,0,.13.06.2.17.65.77,1.28,1.96,1.89,3.36.05.11.07.2.07.27,0,.11-.04.2-.13.29-.21.27-.58.64-.88.92-.07.05-.12.11-.16.11-.05,0-.09-.06-.15-.18-.48-1.23-1.2-2.71-2.01-3.85.36-.37.7-.68,1-.99Z"/><path class="cls-3" d="M59.67,111.92c0,.64,0,1.54.01,2.2,0,.29-.03.31-.24.33-.37.02-.79.02-1.16,0-.17,0-.25-.02-.25-.2.04-.73.07-1.56.07-2.33v-1.72c0-1.06-.01-1.71-.05-2.38,0-.11.07-.18.17-.18.58.04,1.41.07,2.21.07h4.45c.48,0,.67-.07.81-.2.07-.07.12-.11.17-.11.08,0,.15.05.25.17.34.33.81.92.98,1.21.07.11.09.22.09.33s-.04.24-.12.35c-.17.27-.26.75-.33,1.08-.4,2.02-.91,3.92-1.61,5.67-.75,1.87-1.72,3.56-2.96,5.03-.11.15-.21.2-.32.2-.09,0-.17-.04-.26-.13-.4-.33-.74-.53-1.27-.7,1.58-1.69,2.52-3.21,3.34-5.3.7-1.76,1.15-3.36,1.52-5.67h-5.49v2.29Z"/><path class="cls-3" d="M75.3,117.51c0,1.27.01,2.35.04,3.82.01.24-.05.31-.2.31-.42.04-.9.04-1.32,0-.15,0-.2-.07-.19-.29.01-1.32.05-2.51.05-3.76v-4.27c-1.16,1.36-2.58,2.75-3.63,3.52-.07.05-.13.07-.2.07-.11,0-.19-.05-.28-.18-.3-.42-.74-.79-1.14-1.08,1.82-1.3,2.95-2.37,4.16-3.76,1.04-1.19,1.99-2.48,2.81-3.83.45-.73.62-1.1.83-1.89.59.46,1.18.95,1.47,1.28.08.07.11.18.11.28,0,.15-.08.31-.19.4-.22.2-.44.48-.79,1.01-.51.86-1,1.58-1.54,2.31v6.07Z"/><path class="cls-3" d="M83.57,111.51c1.61.7,2.89,1.41,4.2,2.49.15.11.21.24.15.48-.17.6-.38,1.17-.57,1.6-.05.13-.11.2-.17.2-.04,0-.09-.02-.15-.09-1.21-1.08-2.4-1.89-3.47-2.35v4.05c0,1.19.03,2.27.05,3.6.01.22-.05.27-.24.27-.38.04-.79.04-1.18,0-.19,0-.25-.06-.25-.27.04-1.36.05-2.44.05-3.61v-9.02c0-1.38-.04-1.98-.13-2.71.61.06,1.27.15,1.65.29.19.06.25.17.25.31,0,.11-.04.26-.11.42-.09.24-.09.7-.09,1.72v2.62Z"/><path class="cls-3" d="M92.71,119.11c-.86,0-1.73.02-2.38.09-.13,0-.17-.11-.2-.35-.05-.42-.08-1.05-.12-2.02.95.09,1.9.11,2.73.11h4.81c1.47,0,2.36-.06,2.97-.09.17,0,.21.09.21.33.03.51.03,1.08,0,1.6,0,.28-.03.38-.2.38-.63-.04-1.99-.05-2.89-.05h-4.94ZM93.92,111.31c-.83,0-1.41.04-2.02.07-.13,0-.17-.11-.19-.39-.07-.57-.08-1.19-.08-1.94.83.09,1.45.11,2.25.11h2.62c1.02,0,1.81-.06,2.38-.09.11,0,.15.09.15.31.03.53.03,1.1,0,1.63-.01.26-.04.35-.17.35-.62-.04-1.47-.06-2.31-.06h-2.62Z"/><path class="cls-3" d="M103.63,108.08c.05-.09.12-.15.18-.15.05,0,.11.04.17.09.67.5,1.77,1.61,2.52,2.6.08.11.12.18.12.26s-.03.15-.08.24c-.2.37-.63,1.1-.82,1.38-.07.09-.11.15-.16.15s-.11-.06-.17-.15c-.79-1.14-1.74-2.18-2.69-2.99.29-.5.67-1.06.92-1.43ZM104.78,117.75c1.61-1.16,2.47-1.93,3.8-3.41,1.61-1.82,2.5-2.99,3.62-4.99.08.92.2,1.54.37,2.15.04.13.07.24.07.35,0,.17-.07.31-.21.55-.7,1.14-1.84,2.6-3.04,3.89-1.1,1.19-2.21,2.22-3.99,3.6-.59.5-.77.68-.88.84-.08.11-.16.18-.24.18-.07,0-.15-.07-.22-.2-.33-.51-.74-1.27-1.06-2.04.67-.26,1.08-.42,1.78-.92Z"/><path class="cls-3" d="M121.46,109.31c.34-.02.52-.09.66-.22.05-.06.11-.07.17-.07s.13.04.21.11c.33.29.63.64.9.99.12.15.17.29.17.42,0,.15-.07.27-.16.39-.18.2-.32.46-.44.79-.89,2.49-1.73,4.27-2.62,5.67-1.14,1.78-2.71,3.56-4.01,4.57-.08.07-.15.09-.21.09-.11,0-.2-.07-.3-.2-.33-.37-.74-.64-1.25-.84,2.06-1.58,3.1-2.73,4.4-4.68,1.04-1.61,1.65-2.86,2.44-5.21l-3.2.13c-1.08,1.85-1.74,2.9-2.5,3.76-.09.13-.19.2-.28.2-.07,0-.13-.04-.2-.11-.33-.33-.82-.66-1.27-.79,1.72-1.94,2.73-3.65,3.55-5.45.44-1.03.63-1.6.78-2.48.75.37,1.25.68,1.54.97.09.09.13.2.13.31s-.04.22-.15.31c-.13.11-.22.31-.33.5-.15.31-.28.59-.44.92l2.38-.07ZM123.1,106.84c.07-.07.12-.05.2.04.41.44.88,1.17,1.25,1.96.05.11.05.2-.04.29l-.55.57c-.09.09-.16.07-.22-.06-.4-.84-.82-1.54-1.33-2.13l.7-.68ZM124.28,105.64c.08-.07.12-.06.2.04.49.51.96,1.25,1.25,1.89.05.11.07.22-.04.33l-.53.57c-.11.11-.17.05-.22-.06-.36-.79-.78-1.49-1.32-2.11l.66-.66Z"/><path class="cls-3" d="M93.72,46.62c-1-5.38-4.74-9.91-10-12.12-1.81-.76-5.83-1.41-9.76-.08-3.93,1.34-5.61,1.65-7.18,1.65s-3.25-.31-7.18-1.65c-3.93-1.34-7.95-.68-9.76.08-5.26,2.21-9,6.74-10,12.12-.65,3.51-.76,7.83-.31,12.82.38,4.27,1.18,9,2.3,13.69,1.78,7.45,4.81,16.46,7.96,19.44,1.6,1.51,3.24,2.27,4.87,2.27,2.04,0,4.43-1.26,4.98-4.81.25-1.58,2.55-10.66,7.14-10.66s6.89,9.08,7.14,10.66c.56,3.55,2.94,4.81,4.98,4.81,1.63,0,3.27-.76,4.87-2.27,3.16-2.97,6.18-11.99,7.96-19.44,1.12-4.69,1.92-9.42,2.3-13.69.45-4.99.35-9.31-.31-12.82Z"/><line class="cls-1" x1="96.87" y1="71.69" x2="107.6" y2="73.89"/><line class="cls-1" x1="109.94" y1="53.17" x2="98.93" y2="56.32"/><line class="cls-1" x1="25.95" y1="73.89" x2="36.68" y2="71.69"/><line class="cls-1" x1="34.61" y1="56.32" x2="23.61" y2="53.17"/><line class="cls-1" x1="105.17" y1="33.39" x2="96.61" y2="40.55"/><line class="cls-1" x1="92.86" y1="21.58" x2="87.27" y2="31"/><line class="cls-1" x1="36.93" y1="40.55" x2="28.37" y2="33.39"/><line class="cls-1" x1="74.3" y1="18.33" x2="72.44" y2="29.98"/><line class="cls-1" x1="46.27" y1="31" x2="40.68" y2="21.58"/><line class="cls-1" x1="61.1" y1="29.98" x2="59.24" y2="18.33"/></g></svg>