<?xml version="1.0" encoding="UTF-8"?><svg id="_レイヤー_2" xmlns="http://www.w3.org/2000/svg" viewBox="0 0 135.99 135.99"><defs><style>.cls-1{fill:none;}.cls-1,.cls-2{stroke-width:0px;}.cls-2{fill:#fff;}</style></defs><g id="_レイヤー_2-2"><rect class="cls-1" x="0" width="135.99" height="135.99" rx="10" ry="10"/><path class="cls-2" d="M18.24,113.64c.9-.92,1.8-1.85,2.66-2.77.73-.77,1.08-.97,1.65-.97s.92.15,1.6.75c2.33,2.07,5.14,4.07,8.22,5.96.24.11.28.29.17.5-.33.66-.64,1.17-.95,1.6-.09.13-.18.2-.28.2-.07,0-.13-.02-.2-.07-2.92-2.02-5.48-4.05-8.13-6.4-.11-.09-.2-.13-.29-.13-.13,0-.2.05-.29.15-.9.94-1.72,1.93-2.99,3.32-.5.55-.64.79-.73.94-.09.15-.2.24-.33.24-.07,0-.17-.04-.26-.13-.5-.4-1.05-.94-1.71-1.61.73-.46,1.17-.83,1.87-1.56ZM27.35,108.62c.09-.07.17-.06.27.04.57.44,1.23,1.17,1.74,1.96.07.11.07.2-.06.29l-.77.57c-.13.09-.22.07-.31-.06-.55-.84-1.14-1.54-1.85-2.13l.97-.68ZM28.99,107.43c.11-.07.17-.06.28.04.68.51,1.34,1.25,1.74,1.89.07.11.09.22-.05.33l-.73.57c-.15.11-.24.06-.31-.05-.5-.79-1.08-1.49-1.83-2.11l.92-.66Z"/><path class="cls-2" d="M37.99,115.28c-1.82,0-2.51.22-2.7.22-.22,0-.37-.11-.42-.38-.09-.42-.2-1.28-.28-2.22,1.19.18,2.11.22,3.96.22h5.91c1.39,0,2.81-.04,4.22-.06.28-.02.33.04.33.26.04.55.04,1.17,0,1.72,0,.22-.07.29-.33.28-1.38-.02-2.73-.04-4.09-.04h-6.6Z"/><path class="cls-2" d="M61.49,108.2c.66,0,.99-.02,1.27-.17.07-.06.13-.07.2-.07.11,0,.2.07.31.15.42.33.84.81,1.19,1.28.06.09.09.17.09.24,0,.11-.07.24-.24.37-.24.2-.48.48-.68.81-.75,1.28-1.47,2.31-2.35,3.43,1.76,1.3,3.39,2.73,5.08,4.44.09.09.15.18.15.26s-.04.17-.13.27c-.35.42-.77.86-1.23,1.25-.07.07-.15.11-.22.11-.09,0-.17-.05-.26-.15-1.54-1.8-3.12-3.25-4.77-4.55-2.07,2.16-4.16,3.72-6.16,4.84-.17.07-.29.15-.42.15-.11,0-.22-.06-.31-.17-.4-.5-.94-.86-1.54-1.19,2.86-1.45,4.57-2.75,6.46-4.68,1.32-1.38,2.33-2.68,3.45-4.6l-4.73.02c-.95,0-1.91.04-2.9.11-.15.02-.2-.11-.24-.31-.09-.39-.17-1.27-.17-1.91.99.07,1.91.07,3.1.07h5.04Z"/><path class="cls-2" d="M73.23,114.51c.17.11.27.22.27.35,0,.09-.05.18-.2.29-.18.15-.31.33-.46.62-.48.97-1.28,2.26-2.04,3.06-.13.15-.24.22-.37.22-.07,0-.17-.04-.28-.11-.53-.35-1.05-.64-1.56-.77,1.06-1.1,1.72-2.05,2.22-3.03.27-.5.4-.9.5-1.49.75.24,1.45.55,1.91.84ZM75.67,109.46c0-1.16-.04-2-.2-2.82.86.07,1.82.18,2.27.28.22.04.33.13.33.27,0,.09-.04.2-.11.33-.17.31-.18.73-.18,1.83v.97h2.26c1.6,0,2.84-.07,3.74-.11.17-.02.24.09.24.29.02.48.02.95-.02,1.43-.02.24-.07.37-.26.35-1.14-.04-2.53-.09-3.78-.09h-2.16l.02,3.71c0,.97.04,1.76.04,3.19,0,.9-.33,1.5-1.08,1.89-.59.33-1.58.59-2.35.61-.22,0-.33-.11-.44-.39-.28-.64-.66-1.17-1.23-1.65,1.25,0,2.05-.07,2.49-.22.29-.13.42-.33.42-.81v-6.33h-2.88c-1.05,0-2.31.06-3.17.13-.17,0-.24-.15-.24-.37-.02-.33-.07-1.16-.07-1.76,1.39.11,2.51.13,3.45.13h2.92v-.86ZM81.06,113.85c.09-.07.17-.09.24-.09.11,0,.18.05.28.17.9.77,1.78,1.96,2.62,3.36.07.11.09.2.09.28,0,.11-.05.2-.18.29-.29.27-.81.64-1.23.92-.09.06-.17.11-.22.11-.07,0-.13-.05-.2-.18-.66-1.23-1.67-2.71-2.79-3.85.5-.37.97-.68,1.39-.99ZM81.28,106.62c.09-.07.17-.06.27.04.57.44,1.23,1.17,1.74,1.96.07.11.07.2-.06.29l-.77.57c-.13.09-.22.07-.31-.06-.55-.84-1.14-1.54-1.85-2.13l.97-.68ZM82.91,105.43c.11-.07.17-.06.28.04.68.51,1.34,1.25,1.74,1.89.07.11.09.22-.05.33l-.73.57c-.15.11-.24.06-.31-.06-.5-.79-1.08-1.49-1.83-2.11l.92-.66Z"/><path class="cls-2" d="M90.27,115.28c-1.82,0-2.51.22-2.7.22-.22,0-.37-.11-.42-.38-.09-.42-.2-1.28-.28-2.22,1.19.18,2.11.22,3.96.22h5.91c1.39,0,2.81-.04,4.22-.06.28-.02.33.04.33.26.04.55.04,1.17,0,1.72,0,.22-.07.29-.33.28-1.38-.02-2.73-.04-4.09-.04h-6.6Z"/><path class="cls-2" d="M109.34,109.32c.31.09.35.31.24.57-.2.4-.22.81-.22,1.25-.04,2.29-.39,4.04-.99,5.39-.48,1.12-1.28,2.31-2.6,3.45-.18.15-.33.24-.48.24-.11,0-.22-.06-.35-.15-.46-.31-.9-.53-1.56-.77,1.43-1.08,2.4-2.2,3.04-3.65.51-1.25.75-2.26.77-5.19,0-.7-.04-.99-.18-1.54,1.05.13,1.89.26,2.33.4ZM113.42,117.07c.9-.48,1.74-1.05,2.6-1.71,1.1-.84,2.18-1.82,3.21-3.12.07.64.26,1.25.57,1.85.06.13.11.22.11.31,0,.13-.07.26-.27.46-.92.94-1.76,1.69-2.71,2.4-.95.73-1.98,1.45-3.26,2.2-.33.22-.37.26-.53.39-.11.09-.24.15-.37.15-.11,0-.24-.06-.39-.15-.4-.27-.83-.75-1.1-1.12-.11-.17-.17-.28-.17-.39,0-.09.02-.17.07-.27.13-.24.11-.46.11-1.39v-5.74c0-1.6,0-2.35-.18-3.19.73.09,1.74.22,2.29.38.24.06.33.17.33.31,0,.11-.06.28-.15.46-.17.35-.17.72-.17,2.04v6.13Z"/><path class="cls-2" d="M89.21,59.58l-1.61-8.63c1.38-1.89,1.42-3.95,1.38-4.69,0,0-.02,0-.03,0-4.03-.08-7.42-2.67-8.74-6.23l-15.93,7.39c-.44.22-.84.48-1.21.77l-14.85,11.13-12.03-12.28c-1.51-1.65-2.67-1.18-4.32.34-1.65,1.51-2.34,2.76-.83,4.41l13.67,15.68c.56.61,1.27,1.01,2.03,1.2,1.12.27,2.35.06,3.34-.67l15.04-8.39,4.64,13.48.92,19.73c.05,2.17,1.35,2.67,3.49,2.71.06,0,.13,0,.19,0,2.23-.06,3.47-.72,3.42-2.95l.05-20.22c0-.34-.06-.68-.16-1.01l-2.73-14.55,5.18-2.45,2.17,7.73c.13.69.44,1.32.89,1.84l12.35,13.2c1.29,1.32,2.96,2.14,4.78.52,1.82-1.62,1.06-3.66-.12-4.99l-10.99-13.05Z"/><path class="cls-2" d="M97.24,36.9c-.09,4.47-3.78,8.02-8.25,7.93-4.47-.09-8.02-3.78-7.93-8.25.09-4.47,3.78-8.02,8.25-7.93,4.47.09,8.02,3.78,7.93,8.25Z"/><path class="cls-2" d="M60.02,24.7c-.92-1.93-2.46-3.57-4.52-4.59-2.06-1.02-4.31-1.25-6.4-.81.76,2.05,2.27,3.84,4.38,4.88,2.11,1.05,4.44,1.17,6.54.52Z"/><path class="cls-2" d="M52.61,25.95c-2.61-1.29-4.47-3.51-5.39-6.05-2.07.89-3.85,2.5-4.93,4.68-1.05,2.12-1.26,4.43-.78,6.56,2.62-.88,5.58-.76,8.25.56,2.67,1.32,4.56,3.6,5.45,6.22,1.99-.91,3.7-2.48,4.75-4.6,1.08-2.18,1.28-4.57.73-6.76-2.58.82-5.47.68-8.08-.61Z"/><path class="cls-2" d="M42.14,33c.91,2.01,2.48,3.72,4.61,4.77,2.13,1.05,4.45,1.27,6.59.77-.73-2.14-2.27-4.01-4.46-5.09-2.18-1.08-4.6-1.18-6.75-.46Z"/></g></svg>