<?xml version="1.0" encoding="UTF-8"?><svg id="_レイヤー_2" xmlns="http://www.w3.org/2000/svg" viewBox="0 0 135.99 135.99"><defs><style>.cls-1{fill:none;}.cls-1,.cls-2{stroke-width:0px;}.cls-2{fill:#fff;}</style></defs><g id="_レイヤー_2-2"><rect class="cls-1" width="135.99" height="135.99" rx="10" ry="10"/><path class="cls-2" d="M28.95,112.89c-.92,0-1.83.02-2.75.07-.17,0-.24-.11-.27-.35-.11-.46-.15-1.14-.2-1.85,1.05.11,2.16.15,3.38.15h6.29c.31,0,.68-.04.97-.2.09-.07.17-.11.24-.11.09,0,.18.06.28.13.44.35.94.81,1.23,1.14.13.13.18.26.18.39,0,.11-.05.24-.2.35-.29.24-.42.44-.62.86-1.83,3.91-3.94,6.2-7.48,8.11-.15.07-.26.13-.37.13-.13,0-.26-.07-.4-.22-.5-.44-1.08-.72-1.71-.95,3.39-1.58,6.38-4.11,7.7-7.65l-6.25.02ZM30.18,108.94c-.83,0-1.74.02-2.51.07-.18,0-.24-.11-.26-.4-.05-.39-.09-1.19-.09-1.76,1.12.11,1.67.13,3.01.13h3.3c1.19,0,2.17-.05,2.88-.09.17,0,.22.09.22.29.04.46.04.97,0,1.43,0,.31-.06.39-.33.37-.61,0-1.47-.04-2.59-.04h-3.63Z"/><path class="cls-2" d="M44.87,108.08c.07-.09.17-.15.26-.15.07,0,.15.04.24.09.93.5,2.46,1.61,3.5,2.6.11.11.17.18.17.26s-.04.15-.11.24c-.27.37-.88,1.1-1.14,1.38-.09.09-.15.15-.22.15s-.15-.05-.24-.15c-1.1-1.14-2.42-2.18-3.74-2.99.4-.5.94-1.06,1.28-1.43ZM46.47,117.75c2.24-1.16,3.43-1.93,5.28-3.41,2.24-1.82,3.47-2.99,5.03-4.99.11.92.28,1.54.51,2.15.06.13.09.24.09.35,0,.17-.09.31-.29.55-.97,1.14-2.55,2.6-4.22,3.89-1.52,1.19-3.06,2.22-5.54,3.6-.83.5-1.06.68-1.23.84-.11.11-.22.18-.33.18-.09,0-.2-.07-.31-.2-.46-.51-1.03-1.27-1.47-2.04.94-.26,1.5-.42,2.48-.92Z"/><path class="cls-2" d="M67.63,111.51c2.24.7,4.02,1.41,5.83,2.49.2.11.29.24.2.48-.24.6-.53,1.17-.79,1.6-.07.13-.15.2-.24.2-.06,0-.13-.02-.2-.09-1.69-1.08-3.34-1.89-4.82-2.35v4.05c0,1.19.04,2.27.07,3.6.02.22-.07.27-.33.27-.53.04-1.1.04-1.63,0-.26,0-.35-.05-.35-.27.05-1.36.07-2.44.07-3.61v-9.02c0-1.38-.05-1.98-.18-2.71.84.06,1.76.15,2.29.29.26.05.35.17.35.31,0,.11-.06.26-.15.42-.13.24-.13.7-.13,1.72v2.62ZM71.91,107c.09-.07.17-.05.28.04.57.44,1.23,1.17,1.74,1.96.07.11.07.2-.06.29l-.77.57c-.13.09-.22.07-.31-.05-.55-.84-1.14-1.54-1.85-2.13l.97-.68ZM73.54,105.81c.11-.07.17-.05.28.04.68.51,1.34,1.25,1.74,1.89.07.11.09.22-.05.33l-.73.57c-.15.11-.24.05-.31-.06-.5-.79-1.08-1.49-1.83-2.11l.92-.66Z"/><path class="cls-2" d="M82.66,109.46c0-1.27-.05-1.96-.2-2.68.77.09,1.74.2,2.27.38.22.06.31.17.31.29,0,.09-.04.18-.07.27-.17.35-.2.81-.2,1.74v3.71c0,.95.04,1.67.06,2.31,0,.27-.11.37-.4.37h-1.47c-.26,0-.37-.09-.35-.31,0-.64.05-1.71.05-2.49v-3.6ZM91.3,112.89c0,2.71-.4,4.53-1.49,5.98-.9,1.19-2.5,2.31-4.04,2.88-.15.06-.27.09-.38.09-.15,0-.28-.05-.44-.22-.44-.44-.92-.79-1.56-1.12,1.96-.6,3.5-1.47,4.48-2.68.84-1.05,1.23-2.57,1.23-4.9v-3.47c0-1.58-.04-2.16-.2-2.99.88.07,1.76.2,2.38.4.18.06.26.17.26.31,0,.09-.02.2-.07.29-.17.39-.17.86-.17,2v3.41Z"/><path class="cls-2" d="M101.48,115.27c-1.82,0-2.51.22-2.7.22-.22,0-.37-.11-.42-.39-.09-.42-.2-1.28-.28-2.22,1.19.18,2.11.22,3.96.22h5.91c1.39,0,2.81-.04,4.22-.06.28-.02.33.04.33.26.04.55.04,1.17,0,1.72,0,.22-.07.29-.33.28-1.38-.02-2.73-.04-4.09-.04h-6.6Z"/><path class="cls-2" d="M34.74,33.54v53.62c0,4.63,3.79,8.42,8.42,8.42h52.4c4.63,0,8.42-3.79,8.42-8.42v-53.62H34.74ZM100.18,71.89c0,.98-.79,1.77-1.77,1.77h-6.75c-3.67,8.67-12.26,14.75-22.27,14.75-13.36,0-24.18-10.83-24.18-24.18s10.83-24.18,24.18-24.18c10.01,0,18.6,6.08,22.27,14.75h6.75c.98,0,1.77.79,1.77,1.77v15.32Z"/><path class="cls-2" d="M95.56,21.72h-52.4c-4.63,0-8.42,3.79-8.42,8.42v1.63h69.23v-1.63c0-4.63-3.79-8.42-8.42-8.42M80.06,28.91c-1.09,0-1.98-.89-1.98-1.98s.89-1.98,1.98-1.98,1.98.89,1.98,1.98-.89,1.98-1.98,1.98M87.54,28.91c-1.09,0-1.98-.89-1.98-1.98s.89-1.98,1.98-1.98,1.98.89,1.98,1.98-.89,1.98-1.98,1.98M95.02,28.91c-1.09,0-1.98-.89-1.98-1.98s.89-1.98,1.98-1.98,1.98.89,1.98,1.98-.89,1.98-1.98,1.98"/><path class="cls-2" d="M51.16,64.6l.14.15c2.4,2.5,5.13,5.33,10.43,5.37h.13c5.21,0,7.95-2.76,10.38-5.2,2.48-2.49,4.62-4.64,9.14-4.64h0c3.43.03,5.52,1.36,7.26,2.97-.52-10.2-8.93-18.31-19.25-18.31-9.78,0-17.86,7.28-19.13,16.71-.08.62-.13,1.25-.15,1.89.35.34.7.7,1.05,1.07ZM69.43,61c.95,0,1.72.77,1.72,1.72s-.77,1.72-1.72,1.72-1.72-.77-1.72-1.72.77-1.72,1.72-1.72ZM59.72,60.38c1.31,0,2.37,1.06,2.37,2.37s-1.06,2.36-2.37,2.36-2.36-1.06-2.36-2.36,1.06-2.37,2.36-2.37Z"/><path class="cls-2" d="M81.37,62.57h0c-3.56,0-5.13,1.58-7.5,3.96-2.47,2.48-5.85,5.88-12.01,5.88h-.14c-5.72-.05-9.01-2.96-11.4-5.4,1.35,9.34,9.37,16.52,19.08,16.52s18.08-7.5,19.16-17.14c-2.27-2.35-3.83-3.79-7.18-3.82ZM76.88,72.19c-.95,0-1.72-.77-1.72-1.72s.77-1.72,1.72-1.72,1.72.77,1.72,1.72-.77,1.72-1.72,1.72Z"/></g></svg>