<?xml version="1.0" encoding="UTF-8"?><svg id="_レイヤー_2" xmlns="http://www.w3.org/2000/svg" viewBox="0 0 135.99 135.99"><defs><style>.cls-1{fill:none;}.cls-1,.cls-2{stroke-width:0px;}.cls-2{fill:#fff;}</style></defs><g id="_レイヤー_2-2"><rect class="cls-1" x="0" width="135.99" height="135.99" rx="10" ry="10"/><path class="cls-2" d="M45.11,117.02c1.41-.55,2.79-1.19,4.68-2.31,2.11-1.25,3.38-2.27,4.86-3.74.02.84.13,1.58.29,2.13.11.35.06.53-.18.73-1.5,1.27-3.03,2.27-4.59,3.15-1.39.83-2.82,1.54-4.49,2.27-.46.2-.79.39-1.03.59-.11.09-.22.15-.33.15s-.2-.06-.31-.15c-.42-.35-.79-.75-1.12-1.25-.07-.09-.11-.18-.11-.29,0-.09.04-.2.09-.31.07-.18.07-.53.07-1.05l.04-6.9c0-1.5-.06-2.4-.2-3.19,1.03.13,1.96.28,2.38.4.18.06.29.17.29.35,0,.09-.04.22-.09.39-.13.37-.2.97-.2,2.27l-.05,6.75Z"/><path class="cls-2" d="M62.55,114.56c-1.82,0-2.51.22-2.7.22-.22,0-.37-.11-.42-.39-.09-.42-.2-1.28-.28-2.22,1.19.18,2.11.22,3.96.22h5.91c1.39,0,2.81-.04,4.22-.06.27-.02.33.04.33.26.04.55.04,1.17,0,1.72,0,.22-.07.29-.33.27-1.38-.02-2.73-.04-4.09-.04h-6.6Z"/><path class="cls-2" d="M86.96,107.48c.66,0,.99-.02,1.27-.17.07-.06.13-.07.2-.07.11,0,.2.07.31.15.42.33.84.81,1.19,1.28.06.09.09.17.09.24,0,.11-.07.24-.24.37-.24.2-.48.48-.68.81-.75,1.28-1.47,2.31-2.35,3.43,1.76,1.3,3.39,2.73,5.08,4.44.09.09.15.18.15.26s-.04.17-.13.27c-.35.42-.77.86-1.23,1.25-.07.07-.15.11-.22.11-.09,0-.17-.06-.26-.15-1.54-1.8-3.12-3.25-4.77-4.55-2.07,2.16-4.16,3.72-6.16,4.84-.17.07-.29.15-.42.15-.11,0-.22-.06-.31-.17-.4-.5-.94-.86-1.54-1.19,2.86-1.45,4.57-2.75,6.46-4.68,1.32-1.38,2.33-2.68,3.45-4.6l-4.73.02c-.95,0-1.91.04-2.9.11-.15.02-.2-.11-.24-.31-.09-.38-.17-1.27-.17-1.91.99.07,1.91.07,3.1.07h5.04Z"/><path class="cls-2" d="M92.44,39.8c-2.17-.8-4.47-.53-6.33.54l-13.14,4.9-16.78-4.05c-.05-.02-.1-.02-.15-.04l-1.12-6.56c-.18-1.03-1.15-1.72-2.17-1.54-1.03.18-1.71,1.15-1.54,2.17l1.1,6.42c-.31.35-.56.82-.76,1.44-.75,2.35-.76,4.22,1.59,4.97l.29.09.85,4.97c.16.92.95,1.57,1.85,1.57.1,0,.21,0,.32-.03,1.03-.18,1.71-1.15,1.54-2.17l-.51-2.99,14.11,4.7c.49.16,1.01.23,1.52.21.38-.01.77-.08,1.14-.19l5.69-2.09-4.54,12.27-16.14-5.9c-2.49-.91-5.29-.06-6.86,2.08l-14.6,21.83c-1.95,2.66-1.14,4.2,1.41,6.28,2.51,2.04,5.27.65,6.44-.94l13.73-16.5,17.41,6.36c.5.18,1.01.29,1.52.33.01,0,.02,0,.03.01.86.32,1.73.47,2.59.47,3.03,0,5.88-1.86,6.99-4.87l8.95-24.16c1.99-4.97-.54-8.15-4.4-9.58Z"/><path class="cls-2" d="M92.11,18.02c-4.6,0-7.61,2.13-9.51,5.06h6.93c2.66,0,4.82,2.16,4.82,4.82s-2.14,4.8-4.78,4.82l-9.77,1.16c0,2.45.23,4.23.64,5.51l20.62-2.39c1.65-2,2.65-4.58,2.65-7.38,0-6.41-5.19-11.6-11.6-11.6Z"/></g></svg>