<?xml version="1.0" encoding="UTF-8"?><svg id="_レイヤー_2" xmlns="http://www.w3.org/2000/svg" viewBox="0 0 135.99 135.99"><defs><style>.cls-1{fill:none;}.cls-1,.cls-2{stroke-width:0px;}.cls-2{fill:#fff;}</style></defs><g id="_レイヤー_2-2"><rect class="cls-1" x="0" width="135.99" height="135.99" rx="10" ry="10"/><path class="cls-2" d="M19.3,109.33c.96,0,1.16-.06,1.37-.17.08-.06.17-.09.23-.09.1,0,.2.05.28.15.45.44.83.9,1.19,1.47.08.15.13.28.13.4,0,.15-.07.27-.21.39-.35.27-.58.44-.79.7-1.42,1.74-2.96,3.45-4.44,4.92.53.59.97,1.16,1.45,1.83.08.11.12.18.12.28s-.05.18-.15.29c-.33.37-.69.75-1.07,1.08-.08.06-.15.09-.21.09s-.13-.06-.2-.17c-1.6-2.29-3.27-4.09-5.3-5.7.33-.35.89-.94,1.19-1.23.07-.06.13-.09.18-.09.07,0,.13.06.23.13.86.7,1.65,1.34,2.34,2.05,1.39-1.34,2.59-2.75,3.81-4.33l-6.95.04c-.96,0-2.18.04-3.07.13-.21,0-.26-.11-.3-.33-.1-.64-.17-1.28-.2-1.96,1.12.13,2.46.13,3.6.13h6.77Z"/><path class="cls-2" d="M24.76,111.41c.08-.13.17-.22.31-.18,1.24.46,2.23,1.05,3.17,1.8.12.09.18.17.18.28,0,.05-.03.13-.07.2-.18.5-.46.97-.73,1.39-.08.11-.15.18-.21.18s-.12-.04-.2-.11c-1.06-.86-2.13-1.47-3.33-2,.41-.73.68-1.27.88-1.56ZM27.44,118.21c1.57-.92,2.92-1.78,4.52-3.17,1.32-1.12,3.09-2.88,4.75-5.12.1.81.23,1.27.48,2.05.05.13.08.24.08.35,0,.15-.05.27-.18.42-1.54,1.83-2.58,2.84-4.19,4.24-1.44,1.21-2.97,2.26-4.94,3.45-.4.24-.79.44-.96.62-.1.11-.18.15-.26.15-.12,0-.23-.07-.33-.22-.35-.39-.79-1.1-1.22-1.87.69-.15,1.27-.35,2.25-.9ZM26.76,107.19c.12-.22.21-.26.41-.15,1.06.48,2.2,1.16,3.1,2.04.1.07.13.17.13.24s-.02.15-.07.24c-.23.46-.56,1.05-.84,1.38-.05.09-.12.11-.17.11-.08,0-.17-.06-.25-.13-.86-.79-2.15-1.72-3.2-2.26.28-.48.59-.99.88-1.47Z"/><path class="cls-2" d="M40.48,108.09c.07-.09.15-.15.23-.15.07,0,.13.04.21.09.84.5,2.21,1.61,3.15,2.6.1.11.15.18.15.26s-.03.15-.1.24c-.25.37-.79,1.1-1.02,1.38-.08.09-.13.15-.2.15s-.13-.06-.21-.15c-.99-1.14-2.18-2.18-3.37-2.99.36-.5.84-1.06,1.16-1.43ZM41.92,117.75c2.01-1.16,3.09-1.93,4.75-3.41,2.01-1.82,3.12-2.99,4.52-4.99.1.92.25,1.54.46,2.15.05.13.08.24.08.35,0,.17-.08.31-.26.55-.88,1.14-2.29,2.6-3.8,3.89-1.37,1.19-2.76,2.22-4.99,3.6-.74.5-.96.68-1.11.84-.1.11-.2.18-.3.18-.08,0-.18-.07-.28-.2-.41-.51-.92-1.27-1.32-2.04.84-.26,1.35-.42,2.23-.92Z"/><path class="cls-2" d="M57.22,112.69c1.45-.53,2.71-1.06,4.03-1.78.89-.48,1.3-.77,1.77-1.32.58.53,1.12,1.28,1.37,1.65.2.26.18.57-.15.66-.46.13-.92.39-1.37.6-1.63.83-3.48,1.56-5.66,2.27v2.44c0,.86.12,1.16.54,1.3.43.13,1.07.2,2.08.2,1.55,0,2.94-.13,4.66-.42.25-.04.28.04.3.26.05.51.1,1.21.1,1.6,0,.24-.1.31-.35.33-1.87.26-2.82.33-4.9.33-1.47,0-2.44-.17-3.14-.5-.83-.39-1.17-1.25-1.17-2.75v-6.77c0-1.74-.03-2.44-.17-3.36.78.09,1.55.2,2.08.37.36.09.3.4.15.68-.13.29-.17.79-.17,1.65v2.55ZM67.74,108.6c0,1.1-.79,1.96-1.78,1.96s-1.78-.86-1.78-1.96.79-1.96,1.78-1.96,1.78.86,1.78,1.96ZM64.98,108.6c0,.62.41,1.08.97,1.08s.97-.46.97-1.08-.41-1.08-.97-1.08-.97.46-.97,1.08Z"/><path class="cls-2" d="M72.37,112.89c-.83,0-1.65.02-2.48.07-.15,0-.21-.11-.25-.35-.1-.46-.13-1.14-.18-1.85.94.11,1.95.15,3.04.15h5.66c.28,0,.61-.04.88-.2.08-.07.15-.11.21-.11.08,0,.17.05.25.13.4.35.84.81,1.11,1.14.12.13.17.26.17.38,0,.11-.05.24-.18.35-.26.24-.38.44-.56.86-1.65,3.91-3.55,6.2-6.74,8.11-.13.07-.23.13-.33.13-.12,0-.23-.07-.36-.22-.45-.44-.97-.72-1.54-.95,3.05-1.58,5.74-4.11,6.93-7.65l-5.63.02ZM73.48,108.95c-.74,0-1.57.02-2.26.07-.17,0-.21-.11-.23-.4-.05-.38-.08-1.19-.08-1.76,1.01.11,1.5.13,2.71.13h2.97c1.07,0,1.95-.06,2.59-.09.15,0,.2.09.2.29.03.46.03.97,0,1.43,0,.31-.05.39-.3.37-.54,0-1.32-.04-2.33-.04h-3.27Z"/><path class="cls-2" d="M91.14,113.44c-.1,2.05-.33,3.28-.97,4.68-.66,1.43-1.85,2.77-2.91,3.47-.18.13-.35.22-.5.22-.12,0-.23-.05-.35-.18-.33-.37-.89-.73-1.47-.97,1.62-.97,2.59-1.87,3.29-3.27.61-1.21.78-2.2.84-3.94h-3.14c-.83,0-1.63.06-2.48.11-.15.02-.2-.11-.21-.35-.08-.51-.13-1.21-.13-1.76.92.09,1.85.09,2.81.09h7.41c1.29,0,2.25-.04,3.22-.11.17,0,.18.11.18.37.02.24.02,1.17,0,1.41,0,.24-.1.31-.25.31-.86-.04-2-.07-3.14-.07h-2.21ZM87.88,109.19c-.76,0-1.42.04-2.34.07-.21,0-.26-.09-.28-.31-.05-.44-.07-1.1-.12-1.76,1.16.07,2,.09,2.74.09h3.7c.92,0,1.96-.02,2.79-.07.17,0,.2.11.2.35.03.44.03.9,0,1.34,0,.26-.03.35-.21.35-.89-.04-1.87-.06-2.77-.06h-3.7Z"/><path class="cls-2" d="M106.27,118.54c0,.88.03,2.05.05,2.99.02.22-.08.31-.28.33-.43.04-.91.04-1.34,0-.18-.02-.28-.11-.26-.33.02-1.05.05-1.96.05-2.93v-3.14c-1.12,1.05-2.58,2.16-3.42,2.64-.07.05-.15.07-.21.07-.12,0-.25-.07-.33-.18-.3-.38-.74-.75-1.19-.92,2.59-1.5,4.84-3.43,6.85-5.96.38-.5.66-.95.88-1.58.56.37,1.25.84,1.52,1.1.12.11.18.24.18.33,0,.13-.08.26-.25.35-.21.13-.59.57-.74.75-.43.55-.92,1.16-1.5,1.78v4.7Z"/><path class="cls-2" d="M121.65,108.2c.59,0,.89-.02,1.14-.17.07-.05.12-.07.18-.07.1,0,.18.07.28.15.38.33.76.81,1.07,1.28.05.09.08.17.08.24,0,.11-.07.24-.21.37-.21.2-.43.48-.61.81-.68,1.28-1.32,2.31-2.11,3.43,1.58,1.3,3.05,2.73,4.57,4.44.08.09.13.18.13.26s-.03.17-.12.28c-.31.42-.69.86-1.11,1.25-.07.07-.13.11-.2.11-.08,0-.15-.06-.23-.15-1.39-1.8-2.81-3.25-4.29-4.55-1.87,2.16-3.75,3.72-5.55,4.84-.15.07-.26.15-.38.15-.1,0-.2-.06-.28-.17-.36-.5-.84-.86-1.39-1.19,2.58-1.45,4.11-2.75,5.81-4.68,1.19-1.38,2.1-2.68,3.1-4.6l-4.26.02c-.86,0-1.72.04-2.61.11-.13.02-.18-.11-.21-.31-.08-.39-.15-1.27-.15-1.91.89.07,1.72.07,2.79.07h4.54Z"/><polygon class="cls-2" points="104.13 79.26 108.75 68.22 104.41 66.41 99.03 79.26 30.14 79.26 30.14 92.77 38.9 92.77 38.9 86.02 101.19 86.02 101.19 92.77 109.69 92.77 109.69 79.26 104.13 79.26"/><path class="cls-2" d="M43.26,38.82c.06-4.15-3.25-7.57-7.41-7.64-4.15-.06-7.57,3.25-7.64,7.41-.06,4.15,3.25,7.57,7.41,7.63,4.15.06,7.57-3.25,7.63-7.41Z"/><path class="cls-2" d="M100.76,66.3l-32.85-15.34-13.16-7.59,17.61-16.7c1.17-1.05.63-2.13-.33-3.2-.96-1.06-1.98-1.71-3.14-.66l-24.08,19.34c-.22.2-.42.48-.58.81-.23.27-.44.56-.63.87-.02.04-.04.08-.06.12-.29.36-.5.72-.6,1.07l-7.9,29.6c-.44,1.51.58,2.15,1.96,2.55,1.37.4,2.58.42,3.02-1.09l8.09-22.65,11.84,6.83,2.55,15.05c.12,1.01.69,1.91,1.55,2.45.59.37,1.28.55,1.96.52.31-.01.62-.07.92-.17l19.22-7.2c1.4-.47,1.96-1.62,1.37-3.39-.06-.19-.13-.35-.2-.51l12.44,4.39c1.47.55,2.06-.64,2.59-1.88.72-1.68-.33-2.76-1.56-3.22ZM69.19,69.14l-.38-8.45c.06-.05.11-.1.16-.15l15.19,5.36-14.97,3.24Z"/></g></svg>