<?xml version="1.0" encoding="UTF-8"?><svg id="_レイヤー_2" xmlns="http://www.w3.org/2000/svg" viewBox="0 0 135.99 135.99"><defs><style>.cls-1{fill:none;}.cls-1,.cls-2{stroke-width:0px;}.cls-2{fill:#fff;}</style></defs><g id="_レイヤー_2-2"><rect class="cls-1" x="0" width="135.99" height="135.99" rx="10" ry="10"/><path class="cls-2" d="M29.55,110.27c-1.19,0-2.24.06-3.03.09-.24.02-.31-.11-.35-.37-.06-.37-.13-1.32-.17-1.85.83.09,1.8.13,3.52.13h6.55c.55,0,.75-.04,1.01-.18.09-.05.18-.07.28-.07.11,0,.22.04.35.09.5.31.99.77,1.34,1.21.09.11.13.2.13.31,0,.17-.09.31-.26.46-.17.17-.26.35-.42.72-.9,2.16-2.02,4.18-3.56,5.96-1.58,1.8-3.36,3.32-5.21,4.37-.17.11-.33.17-.5.17-.15,0-.31-.06-.46-.2-.42-.4-1.03-.73-1.71-1.01,2.68-1.36,4.31-2.62,6-4.59,1.43-1.63,2.37-3.19,3.1-5.23h-6.62Z"/><path class="cls-2" d="M46.48,111.57c.2-.09.33-.07.48.13.64.81,1.23,1.74,1.58,2.71.04.13.07.2.07.28,0,.11-.07.17-.22.26-.44.26-.75.4-1.17.57-.26.09-.37,0-.46-.26-.42-1.06-.99-2.07-1.72-2.95.62-.35,1.06-.55,1.45-.73ZM56.55,111.81c.15.11.24.2.24.31s-.06.2-.2.33c-.28.24-.4.61-.55.94-.79,1.87-1.74,3.54-2.77,4.88-1.21,1.54-2.22,2.51-3.78,3.54-.15.11-.29.2-.44.2-.09,0-.2-.04-.29-.13-.46-.37-.88-.57-1.56-.77,2.2-1.45,3.3-2.38,4.4-3.82.92-1.19,1.94-2.99,2.48-4.42.24-.68.35-1.08.42-1.94.77.24,1.6.57,2.05.88ZM50.19,110.69c.2-.09.33-.07.48.15.5.64,1.12,1.8,1.41,2.68.09.27.05.37-.18.5-.35.2-.75.38-1.27.57-.2.07-.28-.02-.37-.27-.42-1.08-.84-1.96-1.54-2.94.73-.35,1.16-.55,1.47-.68Z"/><path class="cls-2" d="M68.59,111.52c2.24.7,4.02,1.41,5.83,2.49.2.11.29.24.2.48-.24.61-.53,1.17-.79,1.6-.07.13-.15.2-.24.2-.05,0-.13-.02-.2-.09-1.69-1.08-3.34-1.89-4.82-2.35v4.05c0,1.19.04,2.27.07,3.59.02.22-.07.28-.33.28-.53.04-1.1.04-1.63,0-.26,0-.35-.05-.35-.28.05-1.36.07-2.44.07-3.61v-9.02c0-1.38-.06-1.98-.18-2.71.84.06,1.76.15,2.29.29.26.06.35.17.35.31,0,.11-.06.26-.15.42-.13.24-.13.7-.13,1.72v2.62Z"/><path class="cls-2" d="M92.32,110.58c.9,0,1.93-.02,2.77-.06.22-.02.24.09.26.29.04.46.04.99,0,1.45-.02.24-.06.31-.31.29-.62,0-1.74-.02-2.64-.02h-.75c-.11,2.62-.51,4.16-1.41,5.65-.92,1.52-2.4,2.62-4.33,3.41-.26.11-.4.17-.51.17s-.2-.05-.35-.2c-.55-.57-.9-.83-1.52-1.1,2.6-.81,4.02-1.74,4.95-3.25.72-1.17,1.01-2.44,1.08-4.68h-3.91v.66c0,1.08,0,2.07.05,3.04.02.2-.11.24-.31.26-.48.04-1.08.04-1.58,0-.24-.02-.35-.05-.33-.26.05-.95.09-1.85.09-3.01v-.7h-.55c-.99,0-2.46.06-3.03.09-.15,0-.2-.11-.22-.35-.07-.38-.09-1.03-.13-1.78.77.06,1.96.09,3.38.09h.55v-1.34c0-1.17-.04-1.63-.22-2.7.95.09,1.85.18,2.24.29.2.04.27.13.27.26,0,.11-.05.24-.11.39-.13.33-.13.51-.13,1.76v1.34h3.94l.02-1.8c.02-1.03-.04-1.87-.17-2.51.7.07,1.71.18,2.15.31.26.05.33.15.33.29,0,.07-.02.18-.07.33-.13.35-.15.83-.15,1.61v1.74h.64Z"/><path class="cls-2" d="M103.68,109.32c.31.09.35.31.24.57-.2.4-.22.81-.22,1.25-.04,2.29-.38,4.04-.99,5.39-.48,1.12-1.28,2.31-2.6,3.45-.18.15-.33.24-.48.24-.11,0-.22-.06-.35-.15-.46-.31-.9-.53-1.56-.77,1.43-1.08,2.4-2.2,3.04-3.65.51-1.25.75-2.26.77-5.19,0-.7-.04-.99-.18-1.54,1.05.13,1.89.26,2.33.4ZM107.75,117.08c.9-.48,1.74-1.05,2.6-1.71,1.1-.84,2.18-1.82,3.21-3.12.07.64.26,1.25.57,1.85.06.13.11.22.11.31,0,.13-.07.26-.28.46-.92.94-1.76,1.69-2.71,2.4-.95.73-1.98,1.45-3.26,2.2-.33.22-.37.26-.53.39-.11.09-.24.15-.37.15-.11,0-.24-.06-.39-.15-.4-.27-.83-.75-1.1-1.12-.11-.17-.17-.28-.17-.39,0-.09.02-.17.07-.27.13-.24.11-.46.11-1.39v-5.74c0-1.6,0-2.35-.18-3.19.73.09,1.74.22,2.29.39.24.06.33.17.33.31,0,.11-.06.27-.15.46-.17.35-.17.72-.17,2.04v6.13Z"/><path class="cls-2" d="M81.65,23.52c0,3.83-3.11,6.94-6.94,6.94s-6.94-3.11-6.94-6.94,3.11-6.94,6.94-6.94,6.94,3.11,6.94,6.94Z"/><path class="cls-2" d="M97.14,54.71l-17.98-20.62c-.46-.5-1.05-.85-1.71-1l-9.89-2.27c-.49-.11-1-.11-1.5,0l-24.15,5.93c-1.79.42-1.61,1.59-1.19,3.38.42,1.79.76,2.69,2.54,2.28l20.16-4.21-5.05,16.84-8.61,17.43c-2.08,3.86,3.63,6.74,5.54,4.47l-8.29,13.31c-1.66,2.97,3.86,6.63,6.08,4.57l17.3-27.71c.19-.3.33-.62.43-.96l6.91-23.97,16.11,16.5c1.35,1.03,2.09.13,2.93-.63,1.36-1.24,1.64-1.97.4-3.33Z"/><path class="cls-2" d="M91.22,84.71c0,4.33-3.51,7.83-7.83,7.83s-7.83-3.51-7.83-7.83,3.51-7.83,7.83-7.83,7.83,3.51,7.83,7.83Z"/></g></svg>