<?xml version="1.0" encoding="UTF-8"?><svg id="_レイヤー_2" xmlns="http://www.w3.org/2000/svg" viewBox="0 0 135.99 135.99"><defs><style>.cls-1{stroke-linejoin:round;stroke-width:1.67px;}.cls-1,.cls-2,.cls-3{fill:none;}.cls-1,.cls-3{stroke:#fff;}.cls-2,.cls-4{stroke-width:0px;}.cls-3{stroke-linecap:square;stroke-miterlimit:10;stroke-width:.89px;}.cls-4{fill:#fff;}</style></defs><g id="_レイヤー_2-2"><rect class="cls-2" x="0" width="135.99" height="135.99" rx="10" ry="10"/><path class="cls-4" d="M63.65,35.75c0-2.52,2.05-4.57,4.58-4.57s4.57,2.05,4.57,4.57-2.04,4.57-4.57,4.57-4.58-2.05-4.58-4.57Z"/><path class="cls-4" d="M80.23,63.89s-1.25-11.13-1.91-15.9c-.67-4.77-3.3-6.29-10.1-6.29s-9.42,1.52-10.09,6.29c-.67,4.77-1.92,15.9-1.92,15.9l2.59.63,3.39-16.27.54,11.19h10.98l.53-11.18,3.4,16.26,2.58-.63Z"/><polygon class="cls-4" points="62.64 64.96 61.92 88.65 65.76 88.65 67.91 66.39 62.64 64.96"/><polygon class="cls-4" points="69.06 66.39 71.21 88.65 75.05 88.65 74.34 64.96 69.06 66.39"/><line class="cls-3" x1="51.32" y1="82.34" x2="52.85" y2="82.34"/><line class="cls-3" x1="51.32" y1="73.45" x2="52.85" y2="73.45"/><line class="cls-3" x1="51.32" y1="64.57" x2="52.85" y2="64.57"/><line class="cls-3" x1="51.32" y1="55.69" x2="52.85" y2="55.69"/><line class="cls-3" x1="51.32" y1="46.8" x2="52.85" y2="46.8"/><line class="cls-3" x1="51.32" y1="37.92" x2="52.85" y2="37.92"/><line class="cls-3" x1="52.81" y1="28.9" x2="54.16" y2="29.62"/><line class="cls-3" x1="59.83" y1="22.9" x2="60.33" y2="24.34"/><line class="cls-3" x1="68.89" y1="22.19" x2="68.89" y2="23.71"/><line class="cls-3" x1="77.95" y1="22.9" x2="77.45" y2="24.34"/><line class="cls-3" x1="84.97" y1="28.9" x2="83.62" y2="29.62"/><line class="cls-3" x1="86.46" y1="37.92" x2="84.94" y2="37.92"/><line class="cls-3" x1="86.46" y1="46.8" x2="84.94" y2="46.8"/><line class="cls-3" x1="86.46" y1="55.69" x2="84.94" y2="55.69"/><line class="cls-3" x1="86.46" y1="64.57" x2="84.94" y2="64.57"/><line class="cls-3" x1="86.46" y1="73.45" x2="84.94" y2="73.45"/><line class="cls-3" x1="86.46" y1="82.34" x2="84.94" y2="82.34"/><path class="cls-1" d="M76.85,17.76h-17.71c-7.83,0-14.17,6.34-14.17,14.17v56.73h46.05V31.93c0-7.83-6.35-14.17-14.17-14.17Z"/><path class="cls-4" d="M33.42,108.74c.56-.02.81-.13,1.06-.27.13-.09.23-.13.33-.13s.21.06.35.15c.42.24.96.73,1.31,1.12.12.11.15.22.15.33s-.06.22-.21.35c-.19.17-.38.35-.58.7-.83,1.56-1.73,3.06-2.82,4.44.79.6,1.52,1.25,2.07,1.85.08.07.12.17.12.26,0,.07-.04.17-.12.24-.27.31-.86.9-1.19,1.16-.08.05-.15.09-.23.09-.06,0-.13-.04-.21-.11-.46-.51-1.23-1.25-1.86-1.78-1.96,2.02-3.94,3.45-6.12,4.59-.17.09-.33.17-.48.17-.12,0-.23-.06-.36-.17-.61-.48-1.15-.72-1.82-.94,2.98-1.45,4.89-2.77,7.06-4.97-.73-.57-1.59-1.14-2.76-1.72.42-.44.83-.92,1.27-1.3.08-.07.15-.13.25-.13.06,0,.12.04.19.07.69.31,1.54.84,2.48,1.47.92-1.14,1.63-2.33,2.25-3.63l-4.76.09c-1.57,1.93-2.82,3.19-4.11,4.13-.13.09-.25.17-.38.17-.1,0-.21-.04-.31-.13-.48-.33-.98-.59-1.61-.84,2.69-2.04,4.13-3.72,5.43-5.76.61-.99.86-1.49,1.04-2.26.65.22,1.65.53,2.25.9.15.07.21.18.21.29,0,.13-.1.28-.23.37-.17.11-.31.26-.4.39-.15.26-.27.44-.59.92l3.38-.07Z"/><path class="cls-4" d="M43.33,108.08c.08-.09.17-.15.27-.15.08,0,.15.04.25.09.98.5,2.57,1.61,3.67,2.6.12.11.17.18.17.26s-.04.15-.11.24c-.29.37-.92,1.1-1.19,1.38-.1.09-.15.15-.23.15s-.15-.05-.25-.15c-1.15-1.14-2.53-2.18-3.92-2.99.42-.5.98-1.06,1.34-1.43ZM45,117.75c2.34-1.16,3.59-1.93,5.53-3.41,2.34-1.82,3.63-2.99,5.26-4.99.12.92.29,1.54.54,2.15.06.13.1.24.1.35,0,.17-.1.31-.31.55-1.02,1.14-2.67,2.6-4.41,3.89-1.59,1.19-3.21,2.22-5.8,3.6-.86.5-1.11.68-1.29.84-.12.11-.23.18-.35.18-.1,0-.21-.07-.33-.2-.48-.51-1.08-1.27-1.54-2.04.98-.26,1.57-.42,2.59-.92Z"/><path class="cls-4" d="M64.29,119.11c-1.25,0-2.51.02-3.46.09-.19,0-.25-.11-.29-.35-.08-.42-.12-1.05-.17-2.02,1.38.09,2.76.11,3.97.11h6.99c2.13,0,3.44-.05,4.32-.09.25,0,.31.09.31.33.04.51.04,1.08,0,1.6,0,.27-.04.38-.29.38-.92-.04-2.9-.05-4.2-.05h-7.18ZM66.05,111.31c-1.21,0-2.05.04-2.94.07-.19,0-.25-.11-.27-.38-.1-.57-.12-1.19-.12-1.94,1.21.09,2.11.11,3.26.11h3.8c1.48,0,2.63-.06,3.46-.09.15,0,.21.09.21.31.04.53.04,1.1,0,1.63-.02.26-.06.35-.25.35-.9-.04-2.13-.06-3.36-.06h-3.8Z"/><path class="cls-4" d="M81.72,108.08c.08-.09.17-.15.27-.15.08,0,.15.04.25.09.98.5,2.57,1.61,3.67,2.6.12.11.17.18.17.26s-.04.15-.11.24c-.29.37-.92,1.1-1.19,1.38-.1.09-.15.15-.23.15s-.15-.05-.25-.15c-1.15-1.14-2.53-2.18-3.92-2.99.42-.5.98-1.06,1.34-1.43ZM83.39,117.75c2.34-1.16,3.59-1.93,5.53-3.41,2.34-1.82,3.63-2.99,5.26-4.99.12.92.29,1.54.54,2.15.06.13.1.24.1.35,0,.17-.1.31-.31.55-1.02,1.14-2.67,2.6-4.41,3.89-1.59,1.19-3.21,2.22-5.8,3.6-.86.5-1.11.68-1.29.84-.12.11-.23.18-.35.18-.1,0-.21-.07-.33-.2-.48-.51-1.08-1.27-1.54-2.04.98-.26,1.57-.42,2.59-.92Z"/><path class="cls-4" d="M109.68,109.31c.5-.02.75-.09.96-.22.08-.05.15-.07.25-.07s.19.04.31.11c.48.29.92.64,1.31.99.17.15.25.29.25.42,0,.15-.1.28-.23.39-.27.2-.46.46-.63.79-1.29,2.5-2.51,4.27-3.8,5.67-1.65,1.78-3.94,3.56-5.84,4.57-.11.07-.21.09-.31.09-.15,0-.29-.07-.44-.2-.48-.37-1.07-.64-1.82-.84,2.99-1.58,4.51-2.73,6.39-4.68,1.52-1.61,2.4-2.86,3.55-5.21l-4.65.13c-1.57,1.85-2.53,2.9-3.63,3.76-.13.13-.27.2-.4.2-.1,0-.19-.04-.29-.11-.48-.33-1.19-.66-1.84-.79,2.5-1.94,3.97-3.65,5.16-5.45.63-1.03.92-1.6,1.13-2.48,1.09.37,1.82.68,2.25.97.13.09.19.2.19.31s-.06.22-.21.31c-.19.11-.33.31-.48.5-.21.31-.4.59-.63.92l3.46-.07ZM112.06,106.84c.1-.07.17-.05.29.04.59.44,1.29,1.17,1.82,1.96.08.11.08.2-.06.29l-.81.57c-.13.09-.23.07-.33-.05-.58-.84-1.19-1.54-1.94-2.13l1.02-.68ZM113.77,105.64c.12-.07.17-.05.29.04.71.51,1.4,1.25,1.82,1.89.08.11.1.22-.06.33l-.77.57c-.15.11-.25.05-.33-.06-.52-.79-1.13-1.49-1.92-2.11l.96-.66Z"/></g></svg>