<?xml version="1.0" encoding="UTF-8"?><svg id="_レイヤー_2" xmlns="http://www.w3.org/2000/svg" viewBox="0 0 135.99 135.99"><defs><style>.cls-1{fill:none;}.cls-1,.cls-2{stroke-width:0px;}.cls-2{fill:#fff;}</style></defs><g id="_レイヤー_2-2"><rect class="cls-1" width="135.99" height="135.99" rx="10" ry="10"/><path class="cls-2" d="M14.79,108.74c-1.32,0-1.78.04-1.86.04-.15,0-.16-.02-.16-.2v-1.28c0-.18.01-.2.16-.2.09,0,.54.04,1.86.04h3.57v-.06c0-.6-.01-1.08-.1-1.52.54,0,1.06.04,1.56.09.15.02.23.09.23.18,0,.13-.06.22-.1.37-.03.15-.06.38-.06.88v.06h3.76c1.32,0,1.78-.04,1.86-.04.15,0,.16.02.16.2v1.28c0,.18-.01.2-.16.2-.09,0-.54-.04-1.86-.04h-8.85ZM25.12,118.15c0,.99.03,1.76.03,2.33,0,.5-.06.99-.35,1.32-.26.29-.6.39-1.66.39-.45,0-.47-.04-.54-.57-.06-.44-.18-.9-.31-1.21.44.06.63.07.94.07.23,0,.37-.13.37-.51v-4.02h-8.77v4.11c0,1.36.03,1.98.03,2.07,0,.18-.01.2-.16.2h-1.26c-.15,0-.16-.02-.16-.2,0-.11.03-.66.03-2.07v-3.56c0-1.28-.03-1.83-.03-1.94,0-.18.01-.2.16-.2.1,0,.59.04,1.98.04h7.6c1.39,0,1.88-.04,1.98-.04.15,0,.16.02.16.2,0,.11-.03.75-.03,2.09v1.5ZM20.98,109.64c1.33,0,1.8-.04,1.89-.04.15,0,.16.02.16.2,0,.13-.03.4-.03,1.19v1.12c0,.75.03,1.04.03,1.16,0,.18-.01.2-.16.2-.09,0-.56-.04-1.89-.04h-3.54c-1.34,0-1.8.04-1.89.04-.15,0-.16-.02-.16-.2,0-.11.03-.4.03-1.16v-1.12c0-.79-.03-1.06-.03-1.19,0-.18.01-.2.16-.2.09,0,.56.04,1.89.04h3.54ZM16.45,121.11c-.15,0-.16-.02-.16-.2,0-.13.03-.42.03-2.11v-.68c0-.7-.03-1.05-.03-1.16,0-.18.01-.2.16-.2.09,0,.47.04,1.58.04h2.29c1.1,0,1.48-.04,1.58-.04.15,0,.16.02.16.2,0,.11-.03.44-.03.97v.81c0,1.65.03,1.94.03,2.05,0,.18-.01.2-.16.2h-1.09c-.16,0-.18-.02-.18-.2v-.39h-2.98v.5c0,.18-.01.2-.16.2h-1.06ZM21.57,110.95h-4.73v1.21h4.73v-1.21ZM17.67,119.2h2.98v-1.17h-2.98v1.17Z"/><path class="cls-2" d="M27.06,110.52c.09-.15.16-.17.29-.06.69.5,1.29,1.06,1.91,1.8.06.07.09.11.09.17s-.03.11-.09.22l-.62,1.1c-.12.2-.16.24-.28.09-.59-.77-1.25-1.43-1.89-1.96-.07-.06-.1-.09-.1-.15s.03-.13.09-.22l.6-.99ZM28.98,116.23q.4.37.28.9c-.32,1.43-.72,2.75-1.14,3.96-.12.29-.21.53-.22.7-.01.17-.07.28-.16.28-.06,0-.13-.02-.25-.11-.32-.24-.72-.57-1.1-.97.25-.4.47-.9.66-1.41.5-1.39.78-2.4,1.17-4.18.18.24.47.59.76.84ZM27.57,106.03c.12-.18.16-.2.28-.09.65.53,1.28,1.17,1.85,1.87.06.07.09.11.09.17s-.03.11-.09.22l-.67,1.06c-.12.18-.15.2-.26.05-.54-.75-1.2-1.45-1.83-1.98-.06-.06-.1-.09-.1-.15,0-.04.04-.11.1-.2l.65-.95ZM39.76,117.68c0,.18-.01.2-.16.2-.07,0-.43-.02-1.32-.04.31.22.65.5.9.7.07.07.12.15.12.22,0,.13-.06.18-.18.24-.12.06-.19.11-.41.33-.26.28-.48.48-.76.72.59.33,1.29.57,2.05.77-.19.24-.35.64-.48,1.06-.1.33-.15.46-.28.46-.07,0-.18-.06-.34-.11-1.42-.53-2.48-1.3-3.26-2.29-.03.2-.03.42-.03.72,0,.44-.04.48-.43.6-1.17.37-2.16.64-3.04.84-.28.07-.46.11-.53.17-.09.06-.15.09-.22.09s-.13-.09-.19-.27c-.1-.35-.22-.83-.31-1.34.43-.02.91-.09,1.29-.17.06,0,.12-.02.18-.02v-2.71h-1.01c-.04.44-.1.84-.18,1.14-.23,1.1-.6,2.02-1.12,2.92-.13.22-.19.33-.26.33s-.15-.11-.31-.31c-.26-.35-.63-.68-.88-.84.59-.73,1.03-1.61,1.28-2.75.19-.86.31-2.09.31-3.65,0-1.1-.03-1.6-.03-1.71,0-.18.01-.2.16-.2.09,0,.62.04,2.05.04h5.11c1.44,0,1.94-.04,2.02-.04.15,0,.16.02.16.2v.95c0,.18-.02.2-.16.2-.09,0-.59-.04-2.02-.04h-5.96v.7c0,.64-.03,1.27-.06,1.83h6.15c1.41,0,1.89-.04,1.98-.04.15,0,.16.02.16.18v.92ZM32.96,106.84c0-.51-.01-.9-.09-1.27.46.02.84.06,1.25.11.13.02.21.07.21.15,0,.09-.03.17-.06.28-.04.13-.07.33-.07.73h1.16c0-.51-.03-.9-.09-1.27.44.02.84.06,1.26.11.13.02.19.07.19.15,0,.09-.01.17-.06.28-.04.13-.07.33-.07.73h.23c1.41,0,1.91-.04,2.01-.04.15,0,.16.02.16.2,0,.11-.03.51-.03,1.49v1.85c0,.95.03,1.36.03,1.49,0,.18-.01.2-.16.2-.1,0-.59-.04-2-.04h-4.17c-1.39,0-1.88.04-1.97.04-.15,0-.16-.02-.16-.2,0-.13.03-.53.03-1.49v-1.85c0-.97-.03-1.36-.03-1.49,0-.18.01-.2.16-.2.09,0,.57.04,1.97.04h.29ZM32.96,108.91v-.94h-1.15v.94h1.15ZM32.96,110.85v-.95h-1.15v.95h1.15ZM34.12,115.9c-1.25,0-1.67.04-1.75.04-.15,0-.16-.02-.16-.2v-.79c0-.2.01-.22.16-.22.07,0,.5.04,1.75.04h2.73c1.26,0,1.67-.04,1.78-.04.15,0,.16.02.16.22v.79c0,.18-.01.2-.16.2-.1,0-.51-.04-1.78-.04h-2.73ZM33.7,120.28c.6-.15,1.22-.31,1.81-.51-.43-.57-.75-1.21-.98-1.93h-.82v2.44ZM35.35,108.91v-.94h-1.16v.94h1.16ZM35.35,109.9h-1.16v.95h1.16v-.95ZM35.91,117.84c.23.59.59,1.08,1.06,1.5.32-.29.59-.57.9-.92.15-.17.26-.35.38-.59h-2.33ZM36.58,107.97v.94h1.13v-.94h-1.13ZM37.71,109.9h-1.13v.95h1.13v-.95Z"/><path class="cls-2" d="M43.08,111.46c0,2.64-.07,4.13-.25,5.76-.18,1.61-.6,3.25-1.19,4.66-.1.24-.16.35-.23.35s-.15-.11-.29-.29c-.32-.44-.7-.86-.95-1.06.59-1.19,1.01-2.7,1.19-4.38.15-1.41.22-2.79.22-5.36s-.03-3.65-.03-3.76c0-.18.01-.2.16-.2.09,0,.57.04,1.97.04h3.07v-.18c0-.57-.01-1.05-.1-1.49.59.02,1.06.05,1.56.11.16.02.25.09.25.18,0,.13-.04.22-.1.35-.06.13-.09.39-.09.79v.24h3.13c1.39,0,1.88-.04,1.97-.04.15,0,.15.02.15.2v1.25c0,.2,0,.22-.15.22-.09,0-.57-.04-1.97-.04h-8.29v2.66ZM50.37,115.73c.18,0,.26-.04.34-.07.07-.04.12-.06.18-.06.12,0,.22.07.59.48.37.38.51.62.51.75,0,.17-.06.22-.21.35-.18.13-.32.31-.57.66-.51.77-1.07,1.41-1.67,1.96,1.16.46,2.54.71,4.2.83-.19.29-.35.7-.46,1.17-.09.42-.13.53-.35.53-.07,0-.15,0-.25-.02-1.75-.2-3.24-.66-4.55-1.45-1.39.84-2.94,1.3-4.61,1.52-.12.02-.18.02-.26.02-.19,0-.23-.09-.34-.5-.12-.42-.28-.81-.47-1.05,1.53-.13,2.99-.48,4.27-1.08-.76-.7-1.44-1.56-2.04-2.62-.59,0-.85.02-.91.02-.15,0-.16-.02-.16-.2v-1.08c0-.18.01-.2.16-.2.09,0,.56.04,1.97.04h4.64ZM51.08,110.58c1.44,0,1.95-.04,2.04-.04.15,0,.16.02.16.2v1.14c0,.18-.01.2-.16.2-.09,0-.6-.04-2.04-.04h-.38v.68c0,1.14.03,1.72.03,1.83,0,.18-.01.2-.16.2-.09,0-.44-.04-1.51-.04h-1.88c-1.07,0-1.42.04-1.51.04-.16,0-.18-.02-.18-.2,0-.13.03-.7.03-1.83v-.68h-.19c-1.04,0-1.61.04-1.7.04-.15,0-.16-.02-.16-.2v-1.14c0-.18.01-.2.16-.2.09,0,.66.04,1.7.04h.19c0-.59-.01-1.06-.07-1.43.47.02.97.05,1.39.11.13.02.19.07.19.17,0,.11-.03.18-.07.31-.04.15-.06.4-.06.84h2.42c0-.57-.03-1.05-.07-1.43.46.02.97.05,1.38.11.13.02.21.07.21.17,0,.11-.04.18-.07.31-.04.13-.06.4-.06.84h.38ZM46.28,117.15c.51.75,1.1,1.36,1.79,1.85.69-.51,1.29-1.12,1.78-1.85h-3.57ZM49.32,112.05h-2.42v1.3h2.42v-1.3Z"/><path class="cls-2" d="M58.69,107.79v1.74c.85,0,1.17-.04,1.28-.04.15,0,.16.02.16.2,0,.11-.03.94-.03,3.34v.07c.84-.42,1.38-1.06,1.72-2.05.12-.35.16-.6.16-.84.44.13.81.24,1.14.39.18.07.22.15.22.22,0,.09-.02.15-.09.24-.09.13-.16.31-.26.62-.37,1.12-1,2-1.79,2.66-.13.11-.22.17-.29.17-.12,0-.21-.15-.35-.48-.12-.24-.29-.53-.46-.73v4.26c1.13-.95,1.86-1.98,2.45-3.43.18-.44.26-.79.32-1.14.43.09.78.22,1.13.35.16.07.25.15.25.26,0,.13-.06.2-.16.35-.09.11-.22.33-.35.68l-.06.15h1.72c.16,0,.25-.04.32-.07.04-.02.12-.05.19-.05.12,0,.26.11.57.53.25.35.38.55.38.7,0,.11-.06.22-.16.31-.1.11-.19.29-.32.62-.34.86-.75,1.65-1.25,2.33.84.62,1.82,1.03,2.96,1.32-.18.33-.37.81-.48,1.32-.13.51-.15.51-.6.37-1.1-.4-2.07-.99-2.89-1.8-.82.81-1.8,1.45-2.95,1.91-.16.07-.26.11-.34.11-.13,0-.18-.11-.29-.44-.12-.31-.25-.59-.43-.86,0,.39.01.55.01.59,0,.18-.01.2-.16.2h-.87c-.13,0-.15-.02-.15-.2v-.77h-2.98v1.19c0,.17-.01.18-.16.18h-.87c-.15,0-.16-.02-.16-.18,0-.13.03-.95.03-5.34v-3.08c0-2.95-.03-3.82-.03-3.94,0-.18.01-.2.16-.2.09,0,.43.04,1.35.04v-1.74h-.06c-1.19,0-1.57.04-1.66.04-.15,0-.16-.02-.16-.22v-1.27c0-.2.01-.22.16-.22.09,0,.47.04,1.66.04h2.58c1.19,0,1.58-.04,1.67-.04.13,0,.15.02.15.22v1.27c0,.2-.01.22-.15.22-.09,0-.48-.04-1.67-.04h-.13ZM57.29,111.02c-.01.84-.04,1.5-.06,2-.04,1.01-.21,1.87-.54,2.64-.06.15-.12.22-.18.22-.04,0-.09-.05-.15-.17-.12-.22-.25-.44-.38-.61v1.43h2.98v-1.41h-.28c-.26,0-.53-.02-.68-.17-.19-.18-.29-.44-.29-1.03v-2.92h-.43ZM55.98,114.8c.26-.55.4-1.28.46-2.33.01-.39.03-.88.03-1.45h-.48v3.78ZM58.96,119.31v-1.25h-2.98v1.25h2.98ZM57.71,109.53v-1.74h-.43v1.74h.43ZM58.52,111.02v1.87c0,.27-.01.51.06.64.06.09.18.13.31.13h.07v-2.64h-.44ZM63.14,119.18c-.37-.51-.69-1.06-.97-1.69-.26.33-.57.66-.91,1.01-.18.17-.26.26-.34.26-.09,0-.15-.11-.28-.38-.16-.31-.29-.53-.54-.77,0,1.61,0,2.66.01,3.23,1.25-.35,2.23-.94,3.02-1.65ZM65.55,106.41c.15-.11.18-.09.28.04.69.83,1.36,1.87,1.86,2.95.09.18.09.26-.1.38l-.75.55c-.19.13-.22.13-.31-.07-.12-.28-.23-.55-.37-.83-1.48.26-2.96.44-4.55.59-.31.04-.45.07-.54.15-.07.05-.15.09-.25.09-.09,0-.18-.06-.21-.26-.09-.53-.16-1.03-.22-1.6.44.04.79.04,1.17.04.23-.55.43-1.06.63-1.74.13-.42.23-.84.28-1.23.56.15.94.29,1.28.44.16.07.23.15.23.29,0,.11-.04.2-.13.29-.09.11-.25.4-.37.68-.18.42-.34.77-.51,1.17.81-.05,1.63-.15,2.47-.26-.19-.31-.4-.6-.6-.88-.1-.15-.09-.22.06-.33l.65-.48ZM63.02,116.17l-.06.11c.31.72.69,1.32,1.12,1.83.44-.61.79-1.27,1.07-1.94h-2.13ZM65.33,111.66c0,.17.01.28.1.39.07.09.22.11.51.11s.43-.04.56-.17c.15-.15.19-.51.22-1.27.25.24.47.4.78.51.34.13.37.15.31.62-.09.84-.19,1.16-.53,1.41-.35.28-.7.37-1.41.37-1.09,0-1.23-.09-1.44-.26-.23-.18-.35-.55-.35-1.1v-.84c0-.5,0-.97-.06-1.45.47.04.79.07,1.22.13.18.02.22.09.22.17,0,.09-.01.17-.06.26-.04.09-.07.26-.07.62v.5Z"/><path class="cls-2" d="M78.89,115.07c.16-.11.19-.11.31.04.82.9,1.6,2,2.17,2.99.09.17.07.22-.09.35l-.84.61c-.19.15-.22.15-.29-.02-.19-.39-.4-.75-.6-1.12-1.19.15-2.55.28-3.95.39v2.13c0,1.16.03,1.69.03,1.78,0,.18-.01.2-.16.2h-1.25c-.15,0-.16-.02-.16-.2,0-.11.03-.62.03-1.78v-2c-1.47.09-2.93.18-4.27.24-.32.02-.47.06-.56.11-.09.05-.15.09-.23.09-.1,0-.19-.09-.22-.26-.12-.48-.21-1.1-.28-1.63.62.06,1.09.07,1.54.07.85-.02,1.73-.04,2.61-.07-.69-.66-1.5-1.3-2.3-1.82-.07-.04-.1-.09-.1-.13,0-.05.04-.11.12-.18l.73-.72c.13-.13.18-.13.29-.04l.91.66c.29-.29.59-.62.84-.97.13-.18.22-.35.29-.51h-2.96c-1.31,0-1.76.04-1.85.04-.15,0-.16-.02-.16-.2v-1.12c0-.2.01-.22.16-.22.09,0,.54.04,1.85.04h3.58v-.9h-1.76c-1.41,0-1.91.04-2,.04-.16,0-.18-.02-.18-.2v-1.03c0-.18.01-.2.18-.2.09,0,.59.04,2,.04h1.76v-.88h-2.58c-1.41,0-1.88.04-1.97.04-.15,0-.16-.02-.16-.2v-1.14c0-.18.01-.2.16-.2.09,0,.56.04,1.97.04h2.58c0-.73-.01-1.19-.1-1.71.53.02,1.04.06,1.56.13.15.02.22.11.22.18,0,.15-.03.24-.07.39-.07.18-.09.44-.09,1.01h2.85c1.41,0,1.89-.04,1.98-.04.15,0,.16.02.16.2v1.14c0,.18-.01.2-.16.2-.09,0-.57-.04-1.98-.04h-2.85v.88h2.08c1.41,0,1.91-.04,2-.04.16,0,.18.02.18.2v1.03c0,.18-.01.2-.18.2-.09,0-.59-.04-2-.04h-2.08v.9h3.87c1.31,0,1.76-.04,1.85-.04.15,0,.16.02.16.22v1.12c0,.18-.01.2-.16.2-.09,0-.54-.04-1.85-.04h-5.25c.25.15.48.28.67.4.15.09.18.17.18.26,0,.11-.07.18-.18.24-.13.06-.25.17-.46.4-.29.33-.65.71-1.03,1.08.28.26.56.51.84.79.72-.7,1.31-1.38,1.82-2.04.26-.33.43-.62.54-.92.43.24.87.55,1.23.84.1.07.16.17.16.26,0,.13-.1.2-.21.26-.12.04-.26.13-.47.37-.51.59-1.01,1.1-1.57,1.6,1.03-.05,2.02-.15,2.91-.24l-.54-.66c-.13-.17-.09-.22.09-.35l.69-.5ZM72.97,119.48c.12.11.15.17.15.27s-.1.18-.21.22c-.12.05-.29.2-.48.4-.6.64-1.48,1.32-2.33,1.76-.18.09-.28.15-.35.15-.12,0-.18-.11-.34-.4-.21-.37-.45-.71-.69-.94,1.03-.44,1.86-.94,2.54-1.56.21-.2.38-.42.59-.75.4.26.79.55,1.13.84ZM77.57,118.7c.18-.15.19-.17.31-.04.82.9,1.85,1.58,3.23,2.13-.25.26-.51.62-.73,1.05-.16.31-.22.42-.35.42-.07,0-.18-.06-.34-.13-1.14-.66-2.05-1.41-2.95-2.49-.12-.13-.09-.17.06-.29l.78-.64Z"/><path class="cls-2" d="M87.13,109.31c.25.09.28.31.19.57-.16.4-.18.81-.18,1.25-.03,2.29-.31,4.04-.79,5.39-.38,1.12-1.03,2.31-2.08,3.45-.15.15-.26.24-.38.24-.09,0-.18-.06-.28-.15-.37-.31-.72-.53-1.25-.77,1.14-1.08,1.92-2.2,2.44-3.65.41-1.25.6-2.26.62-5.19,0-.7-.03-.99-.15-1.54.84.13,1.51.26,1.86.4ZM90.39,117.07c.72-.48,1.39-1.05,2.08-1.71.88-.84,1.75-1.82,2.57-3.12.06.64.21,1.25.46,1.85.04.13.09.22.09.31,0,.13-.06.26-.22.46-.73.94-1.41,1.69-2.17,2.4-.76.73-1.58,1.45-2.61,2.2-.26.22-.29.26-.43.38-.09.09-.19.15-.29.15-.09,0-.19-.05-.31-.15-.32-.28-.66-.75-.88-1.12-.09-.17-.13-.27-.13-.38,0-.09.01-.17.06-.28.1-.24.09-.46.09-1.39v-5.74c0-1.6,0-2.35-.15-3.19.59.09,1.39.22,1.83.39.19.05.26.17.26.31,0,.11-.04.28-.12.46-.13.35-.13.71-.13,2.04v6.13Z"/><path class="cls-2" d="M99.75,115.27c-1.45,0-2.01.22-2.16.22-.18,0-.29-.11-.34-.39-.07-.42-.16-1.28-.22-2.22.95.18,1.69.22,3.17.22h4.73c1.12,0,2.25-.04,3.38-.05.22-.02.26.04.26.26.03.55.03,1.17,0,1.72,0,.22-.06.29-.26.28-1.1-.02-2.19-.04-3.27-.04h-5.28Z"/><path class="cls-2" d="M117.59,107.48c.1.09.18.18.18.29,0,.09-.04.22-.15.37-.26.42-.44.99-.6,1.52-.82,2.81-1.6,5.5-2.52,8.25,2.26-.24,3.49-.38,5.14-.7-.45-1.01-1-2.02-1.63-2.93.44-.29.87-.61,1.28-.88.16-.11.25-.04.35.11,1.14,1.67,2.25,3.96,2.96,6,.04.09.06.17.06.24,0,.11-.06.22-.19.31-.35.29-.72.53-1.12.75-.06.04-.12.05-.18.05-.09,0-.16-.09-.21-.26-.18-.51-.34-.99-.51-1.47-2.35.44-4.58.75-6.97,1.06-.97.13-1.36.22-1.72.44-.19.11-.35.07-.43-.18-.12-.31-.31-1.23-.51-2.37.59.05,1.2.04,1.79.02,1.04-3.28,1.81-6,2.57-9.08.23-.95.38-1.6.43-2.51.9.33,1.53.59,1.98.95Z"/><path class="cls-2" d="M103.95,35.88c-.02-10.28-8.37-18.6-18.65-18.58l-34.78.06c-10.28.02-18.6,8.37-18.58,18.64l.1,59.04,72.01-.12-.1-59.04ZM77.68,88.95l-19.3.03c-3.48,0-6.3-2.81-6.31-6.29l-.08-43.75c0-3.48,2.81-6.31,6.28-6.32l19.3-.03c3.48,0,6.3,2.81,6.31,6.29l.08,43.75c0,3.48-2.81,6.31-6.29,6.31Z"/><path class="cls-2" d="M70.24,68.98c-1.54,1.71-3.64,2.56-6.3,2.57-2.66,0-4.77-.84-6.31-2.55-1.54-1.71-2.32-4.09-2.33-7.13,0-3.04.77-5.43,2.3-7.14,1.53-1.71,3.64-2.57,6.3-2.57,2.66,0,4.76.84,6.31,2.55,1.55,1.71,2.32,4.09,2.32,7.13,0,3.05-.76,5.43-2.3,7.14ZM68.83,61.85c0-4.48-1.65-6.72-4.92-6.72-3.28,0-4.91,2.25-4.9,6.73,0,4.48,1.65,6.72,4.93,6.71,3.27,0,4.91-2.25,4.9-6.73Z"/><path class="cls-2" d="M80.65,64.45c0,.8-.26,1.59-.77,2.34-.5.76-1.5,1.74-2.98,2.98-.02.01-.02.03-.02.03,0,.01,0,.02,0,.02h3.34c.12,0,.23.03.32.12.09.09.13.19.13.32v.56c0,.12-.04.23-.13.32-.09.09-.19.14-.31.14h-5.3c-.12,0-.23-.04-.32-.12-.09-.08-.13-.19-.13-.33v-.56c0-.31.13-.56.37-.75,1.57-1.24,2.63-2.21,3.16-2.89.53-.68.79-1.34.79-1.98,0-.96-.52-1.44-1.55-1.43-.61,0-1.34.18-2.18.56-.1.04-.18.03-.28-.02-.09-.07-.13-.15-.13-.25v-.77c0-.32.14-.52.44-.62.81-.27,1.61-.4,2.42-.4,1.01,0,1.78.24,2.32.72.54.48.82,1.16.82,2.03Z"/></g></svg>