<?xml version="1.0" encoding="UTF-8"?><svg id="_レイヤー_2" xmlns="http://www.w3.org/2000/svg" viewBox="0 0 135.99 135.99"><defs><style>.cls-1{fill:none;}.cls-1,.cls-2{stroke-width:0px;}.cls-2{fill:#fff;}</style></defs><g id="_レイヤー_2-2"><rect class="cls-1" x="0" width="135.99" height="135.99" rx="10" ry="10"/><path class="cls-2" d="M44.07,108.2c.66,0,.99-.02,1.27-.17.07-.05.13-.07.2-.07.11,0,.2.07.31.15.42.33.84.81,1.19,1.28.05.09.09.17.09.24,0,.11-.07.24-.24.37-.24.2-.48.48-.68.81-.75,1.28-1.47,2.31-2.35,3.43,1.76,1.3,3.39,2.73,5.08,4.44.09.09.15.18.15.26s-.04.17-.13.28c-.35.42-.77.86-1.23,1.25-.07.07-.15.11-.22.11-.09,0-.17-.06-.26-.15-1.54-1.8-3.12-3.25-4.77-4.55-2.07,2.16-4.16,3.72-6.16,4.84-.17.07-.29.15-.42.15-.11,0-.22-.05-.31-.17-.4-.5-.94-.86-1.54-1.19,2.86-1.45,4.57-2.75,6.46-4.68,1.32-1.38,2.33-2.68,3.45-4.6l-4.73.02c-.95,0-1.91.04-2.9.11-.15.02-.2-.11-.24-.31-.09-.39-.17-1.27-.17-1.91.99.07,1.91.07,3.1.07h5.04Z"/><path class="cls-2" d="M62.72,108.75c.53-.02.77-.13,1.01-.27.13-.09.22-.13.31-.13s.2.06.33.15c.4.24.92.73,1.25,1.12.11.11.15.22.15.33s-.06.22-.2.35c-.18.17-.37.35-.55.7-.79,1.56-1.65,3.06-2.7,4.44.75.61,1.45,1.25,1.98,1.85.07.07.11.17.11.26,0,.07-.04.17-.11.24-.26.31-.83.9-1.14,1.16-.07.06-.15.09-.22.09-.06,0-.13-.04-.2-.11-.44-.51-1.17-1.25-1.78-1.78-1.87,2.02-3.76,3.45-5.85,4.59-.17.09-.31.17-.46.17-.11,0-.22-.05-.35-.17-.59-.48-1.1-.72-1.74-.94,2.84-1.45,4.68-2.77,6.75-4.97-.7-.57-1.52-1.14-2.64-1.72.4-.44.79-.92,1.21-1.3.07-.07.15-.13.24-.13.06,0,.11.04.18.07.66.31,1.47.84,2.37,1.47.88-1.14,1.56-2.33,2.15-3.63l-4.55.09c-1.5,1.93-2.7,3.19-3.93,4.13-.13.09-.24.17-.37.17-.09,0-.2-.04-.29-.13-.46-.33-.94-.59-1.54-.84,2.57-2.04,3.94-3.72,5.19-5.76.59-.99.83-1.49.99-2.26.62.22,1.58.53,2.15.9.15.07.2.18.2.29,0,.13-.09.27-.22.37-.17.11-.29.26-.39.39-.15.26-.26.44-.57.92l3.23-.07Z"/><path class="cls-2" d="M70.31,111.59c.09-.13.18-.22.35-.18,1.38.46,2.48,1.05,3.52,1.8.13.09.2.17.2.27,0,.06-.04.13-.07.2-.2.5-.51.97-.81,1.39-.09.11-.17.18-.24.18s-.13-.04-.22-.11c-1.17-.86-2.37-1.47-3.71-2,.46-.73.75-1.27.97-1.56ZM73.29,118.4c1.74-.92,3.25-1.78,5.03-3.17,1.47-1.12,3.43-2.88,5.28-5.12.11.81.26,1.27.53,2.05.05.13.09.24.09.35,0,.15-.06.28-.2.42-1.71,1.83-2.86,2.84-4.66,4.24-1.6,1.21-3.3,2.26-5.48,3.45-.44.24-.88.44-1.06.62-.11.11-.2.15-.29.15-.13,0-.26-.07-.37-.22-.38-.39-.88-1.1-1.36-1.87.77-.15,1.41-.35,2.49-.9ZM72.53,107.37c.13-.22.24-.26.46-.15,1.17.48,2.44,1.16,3.45,2.04.11.07.15.17.15.24s-.02.15-.07.24c-.26.46-.62,1.05-.94,1.38-.05.09-.13.11-.18.11-.09,0-.18-.05-.28-.13-.95-.79-2.38-1.72-3.56-2.26.31-.48.66-.99.97-1.47ZM80.93,106.8c.09-.07.17-.06.28.04.57.44,1.23,1.17,1.74,1.96.07.11.07.2-.06.29l-.77.57c-.13.09-.22.07-.31-.06-.55-.84-1.14-1.54-1.85-2.13l.97-.68ZM82.57,105.61c.11-.07.17-.06.27.04.68.51,1.34,1.25,1.74,1.89.07.11.09.22-.06.33l-.73.57c-.15.11-.24.06-.31-.05-.5-.79-1.08-1.49-1.83-2.11l.92-.66Z"/><path class="cls-2" d="M94.55,113.53c-.72,1.03-1.47,1.83-2.59,2.82-.94.86-2.35,1.94-3.47,2.57-.17.11-.29.17-.42.17-.11,0-.22-.05-.31-.18-.37-.44-.99-.88-1.5-1.08,1.87-1.03,3.03-1.8,4.27-2.9,1.08-.95,1.96-1.83,2.7-2.84l-3.21.02c-.95,0-1.98.04-2.93.09-.17.02-.24-.11-.26-.31-.07-.35-.11-1.1-.15-1.78,1.1.07,2.18.09,3.28.09h4.37l-.07-1.63c-.04-.92-.13-1.58-.29-2.16.99.04,1.74.09,2.31.2.18.04.24.11.24.22,0,.07-.04.17-.07.27-.06.22-.13.51-.07,1.69l.05,1.39h1.6c1.28,0,2.2-.04,3.56-.09.18,0,.28.09.28.22.02.51.02,1.08,0,1.6,0,.15-.07.26-.26.26-1.34-.05-2.38-.09-3.52-.09h-1.49l.33,6.9c.05.97-.28,1.58-.88,1.94-.62.37-1.69.64-2.53.64-.35,0-.48-.07-.57-.31-.29-.68-.61-1.1-1.28-1.63,1.38-.02,1.96-.06,2.59-.18.42-.09.57-.27.53-1.08l-.22-4.81Z"/><path class="cls-2" d="M94.17,36.55c-.36-.43-.91-.71-1.54-.79-1-.13-26.65-4.45-32.75-4.22-1.06.04-1.7.18-2.24.49-1.65.95-2.54,3.34-3.03,5.18-1.17,4.53.06,13.07,6.19,23.43l-3.44,33.6c-.03.65.21,1.27.67,1.74.47.46,1.1.71,1.73.68l3.54-.14c1.03-.05,1.91-.74,2.17-1.74.23-.95,6.17-25.25,6.96-34.23.53-6.09-1.72-13.84-3.5-17.54l22.83-.58c1.12,0,2.11-.69,2.29-1.64l.55-2.81c.1-.51-.05-1.02-.42-1.44Z"/><path class="cls-2" d="M66.23,21.49c.15,4.16-3.09,7.66-7.27,7.82-4.16.17-7.66-3.11-7.82-7.26-.16-4.17,3.1-7.67,7.27-7.82,4.17-.15,7.66,3.1,7.82,7.26Z"/><path class="cls-2" d="M52.8,36.76c.65-2.56,1.63-4.4,2.87-5.58l-19.83-8.41c-.88-.33-1.88.01-2.38.82l-1.25,2.03c-.56.92-.29,2.13.62,2.7l19.27,13.74c.08-2.49.46-4.35.69-5.3Z"/><path class="cls-2" d="M102.64,69.61l-28.52-14.62c.27,1.86.35,3.8.18,5.74-.15,1.65-.46,3.74-.88,6.07l2.02.68s.09.04.13.06c.07,0,.1.03.17.05l23.91,9.35c.28.09.56.13.85.13.88-.04,1.73-.59,2.08-1.47l1.19-3.03c.47-1.14-.03-2.43-1.13-2.96Z"/></g></svg>