<?xml version="1.0" encoding="UTF-8"?><svg id="_レイヤー_2" xmlns="http://www.w3.org/2000/svg" viewBox="0 0 135.99 135.99"><defs><style>.cls-1{fill:none;}.cls-1,.cls-2{stroke-width:0px;}.cls-2{fill:#fff;}</style></defs><g id="_レイヤー_2-2"><rect class="cls-1" width="135.99" height="135.99" rx="10" ry="10"/><path class="cls-2" d="M32.15,114.36c0,4.68.04,5.61.04,5.72,0,.18-.02.2-.2.2h-1.32c-.17,0-.18-.02-.18-.2v-.79h-1.74v1.43c0,.18-.02.2-.2.2h-1.32c-.18,0-.2-.02-.2-.2,0-.13.04-1.1.04-6.05v-3.43c0-3.43-.04-4.44-.04-4.57,0-.18.02-.2.2-.2.13,0,.48.04,1.6.04h1.58c1.12,0,1.47-.04,1.6-.04.18,0,.2.02.2.2,0,.11-.04,1.06-.04,3.93v3.76ZM28.73,108.18v3.78h1.74v-3.78h-1.74ZM30.48,117.63v-4.04h-1.74v4.04h1.74ZM35.3,113.42c-1.76,0-2.37.04-2.48.04-.18,0-.2-.02-.2-.22v-1.28c0-.18.02-.2.2-.2.11,0,.72.04,2.48.04h3.38c.22-.61.4-1.25.5-1.58.07-.27.13-.57.17-.95.59.09,1.19.2,1.67.31.2.06.27.09.27.2,0,.13-.05.18-.15.27s-.18.27-.26.48c-.15.38-.29.75-.51,1.27h.11c1.74,0,2.35-.04,2.46-.04.2,0,.22.02.22.2v1.28c0,.2-.02.22-.22.22-.11,0-.72-.04-2.46-.04h-5.17ZM35.65,109.1c-1.67,0-2.26.04-2.38.04-.18,0-.2-.02-.2-.22v-1.27c0-.17.02-.18.2-.18.13,0,.72.04,2.38.04h1.06v-.33c0-.68-.04-1.16-.13-1.6.7.02,1.28.06,1.93.11.18.02.29.09.29.18,0,.13-.06.22-.11.35-.06.13-.09.4-.09.97v.31h1.49c1.67,0,2.26-.04,2.37-.04.2,0,.22.02.22.18v1.27c0,.2-.02.22-.22.22-.11,0-.7-.04-2.37-.04h-4.44ZM33.96,122.36c-.18,0-.2-.02-.2-.2,0-.11.04-.62.04-3.39v-1.74c0-1.71-.04-2.22-.04-2.35,0-.18.02-.2.2-.2.11,0,.62.04,2.16.04h3.19c1.52,0,2.05-.04,2.15-.04.2,0,.22.02.22.2,0,.11-.04.64-.04,2.07v1.98c0,2.77.04,3.28.04,3.39,0,.17-.02.18-.22.18h-1.34c-.2,0-.22-.02-.22-.18v-.62h-4.38v.66c0,.18-.02.2-.2.2h-1.36ZM35.65,109.28c.2-.06.26-.02.35.15.26.5.5,1.1.62,1.6.05.18.04.2-.2.26l-1.1.31c-.22.06-.28.02-.33-.2-.13-.51-.33-1.08-.57-1.54-.11-.2-.06-.24.18-.29l1.05-.27ZM35.52,117.24h4.38v-1.28h-4.38v1.28ZM39.9,120.05v-1.41h-4.38v1.41h4.38Z"/><path class="cls-2" d="M50.27,106.03c1.19,0,1.74-.02,1.85-.02.18,0,.2.02.2.18,0,.11-.04.59-.04,1.61v1.67c0,1.01.04,1.49.04,1.6,0,.18-.02.2-.2.2-.11,0-.66-.04-1.85-.04h-3.06v6.97c0,2.6.04,3.87.04,4,0,.17-.02.18-.2.18h-1.54c-.18,0-.2-.02-.2-.18,0-.13.04-1.39.04-4v-7.98c0-2.6-.04-3.91-.04-4.04,0-.17.02-.18.2-.18.13,0,.83.02,2.18.02h2.59ZM47.2,107.3v.79h3.3v-.79h-3.3ZM50.51,109.22h-3.3v.79h3.3v-.79ZM50.34,115.99c-1.67,0-2.24.04-2.35.04-.2,0-.22-.02-.22-.2v-.83c0-.18.02-.2.22-.2.11,0,.68.04,2.35.04-.13-.39-.29-.75-.46-1.12-.77.02-1.1.04-1.17.04-.18,0-.2-.02-.2-.22v-.77c0-.2.02-.22.2-.22.11,0,.66.04,2.26.04h1.1c0-.46-.04-.81-.11-1.16.59.02,1.03.04,1.61.07.18.02.27.07.27.15,0,.11-.04.2-.11.31-.07.13-.07.31-.07.59v.04h1.23c1.61,0,2.16-.04,2.27-.04.18,0,.2.02.2.22v.77c0,.2-.02.22-.2.22-.09,0-.42-.02-1.19-.04-.18.4-.37.77-.57,1.12h.28c1.67,0,2.24-.04,2.35-.04.2,0,.22.02.22.2v.83c0,.18-.02.2-.22.2-.11,0-.68-.04-2.35-.04h-5.34ZM49.53,121.84c-.2,0-.22-.02-.22-.2,0-.11.04-.48.04-2.46v-.97c0-.86-.04-1.25-.04-1.36,0-.18.02-.2.22-.2.11,0,.59.04,2.02.04h2.77c1.43,0,1.89-.04,2.02-.04.18,0,.2.02.2.2,0,.09-.04.5-.04,1.23v1.03c0,1.94.04,2.33.04,2.44,0,.18-.02.2-.2.2h-1.19c-.18,0-.2-.02-.2-.2v-.35h-4.04v.44c0,.18-.02.2-.2.2h-1.17ZM50.91,118.47h4.04v-.72h-4.04v.72ZM54.95,120.14v-.72h-4.04v.72h4.04ZM51.48,113.72c.17.35.33.73.48,1.12h1.89c.18-.39.35-.75.5-1.12h-2.86ZM60.76,116.36c0,1.28.07,2.75.07,3.65s-.13,1.28-.53,1.69c-.33.33-.88.5-2.27.5-.57,0-.59,0-.68-.57-.09-.53-.24-.95-.42-1.32.46.07.81.09,1.21.09.59,0,.75-.15.75-.72v-8.44h-3.08c-1.43,0-1.91.04-2.02.04-.2,0-.22-.02-.22-.2,0-.13.04-.5.04-1.47v-1.93c0-.99-.04-1.36-.04-1.49,0-.17.02-.18.22-.18.11,0,.59.02,2.02.02h2.73c1.45,0,1.94-.02,2.05-.02.18,0,.2.02.2.18,0,.11-.04.88-.04,2.48v7.69ZM55.39,107.3v.79h3.5v-.79h-3.5ZM58.89,110.01v-.79h-3.5v.79h3.5Z"/><path class="cls-2" d="M66.98,112.54c.5-1.12.77-2.05.83-2.71.94.33,1.76.66,2.27.94.17.07.22.18.22.29,0,.13-.07.26-.18.37-.2.2-.35.46-.64,1.12-1.08,2.44-2.16,4.31-3.93,6.16-.17.18-.33.28-.51.28-.15,0-.28-.06-.42-.18-.37-.29-.95-.59-1.61-.79,1.93-1.71,3.25-3.8,3.98-5.47ZM73.84,110.05c.09-.07.18-.11.26-.11.09,0,.17.04.28.15,2,2,3.54,4.38,4.6,6.73.06.09.07.17.07.26,0,.11-.06.2-.18.29-.35.27-.94.66-1.52.97-.24.11-.37.07-.44-.17-1.36-3.06-2.71-5.21-4.53-7.13.66-.44,1.16-.79,1.47-.99ZM75.98,107.85c.09-.07.17-.06.28.04.57.44,1.23,1.17,1.74,1.96.07.11.07.2-.05.29l-.77.57c-.13.09-.22.07-.31-.06-.55-.84-1.14-1.54-1.85-2.13l.97-.68ZM77.62,106.66c.11-.07.17-.06.27.04.68.51,1.34,1.25,1.74,1.89.07.11.09.22-.06.33l-.73.57c-.15.11-.24.06-.31-.05-.5-.79-1.08-1.49-1.83-2.11l.92-.66Z"/><path class="cls-2" d="M91.8,117.52c0,1.27.02,2.35.06,3.82.02.24-.07.31-.28.31-.59.04-1.25.04-1.83,0-.2,0-.28-.07-.26-.29.02-1.32.07-2.51.07-3.76v-4.27c-1.61,1.36-3.58,2.75-5.04,3.52-.09.06-.18.07-.28.07-.15,0-.26-.05-.39-.18-.42-.42-1.03-.79-1.58-1.08,2.53-1.3,4.09-2.37,5.78-3.76,1.45-1.19,2.77-2.48,3.91-3.83.62-.73.86-1.1,1.16-1.89.83.46,1.63.95,2.04,1.28.11.07.15.18.15.27,0,.15-.11.31-.26.4-.31.2-.6.48-1.1,1.01-.72.86-1.39,1.58-2.15,2.31v6.07Z"/><path class="cls-2" d="M111.39,109.15c.48-.02.72-.09.92-.22.07-.06.15-.07.24-.07s.18.04.29.11c.46.29.88.64,1.25.99.17.15.24.29.24.42,0,.15-.09.27-.22.38-.26.2-.44.46-.6.79-1.23,2.49-2.4,4.27-3.63,5.67-1.58,1.78-3.76,3.56-5.58,4.57-.11.07-.2.09-.29.09-.15,0-.28-.07-.42-.2-.46-.37-1.03-.64-1.74-.84,2.86-1.58,4.31-2.73,6.11-4.68,1.45-1.61,2.29-2.86,3.39-5.21l-4.44.13c-1.5,1.85-2.42,2.9-3.47,3.76-.13.13-.26.2-.39.2-.09,0-.18-.04-.27-.11-.46-.33-1.14-.66-1.76-.79,2.38-1.94,3.8-3.65,4.93-5.45.6-1.03.88-1.6,1.08-2.48,1.05.37,1.74.68,2.15.97.13.09.18.2.18.31s-.06.22-.2.31c-.18.11-.31.31-.46.5-.2.31-.39.59-.61.92l3.3-.07Z"/><path class="cls-2" d="M82.42,34.16c3.48,0,6.31-2.82,6.31-6.31s-2.83-6.32-6.31-6.32-6.32,2.82-6.32,6.32,2.83,6.31,6.32,6.31Z"/><path class="cls-2" d="M99.8,47.38c-.87-1.33-2.67-1.71-4-.82l-5.7,3.79h-4.42c-1.19,0-2.24.72-2.7,1.81l-7.02,17.53-1.9-.98,3.76-7.69c.78-1.23.42-2.86-.8-3.67l-10.51-7.75c3.19-5.27,7.28-7.28,7.56-7.34.06,0,.08-.01.13-.02,0,0,5.25,5.9,5.27,5.95.49.79,1.35,1.26,2.27,1.26h8.68c1.47,0,1.65-.7,1.65-2.16s-.05-2.33-1.53-2.33l-7.31-.84c-1.42-2.29-4.39-7.08-6.36-10.13,0-.04,0-.05-.03-.06-.62-.93-1.12-1.71-1.44-2.17-.68-.84-1.07-1.72-1.08-3.84,0-.81.15-1.59.38-2.34,0,0-3.91,1.92-8.45,5.49-.57.43-1.14.89-1.69,1.38-4.29,3.78-11.52,10.15-11.07,17.51.01.48.32,1.21.71,1.84-.77.09-1.57.28-1.92.64-.48.5-.7,1.23-.66,2.2.07,1.6,1.34,2.85,2.89,2.85h1.64l.81,2.99.86,3.75-1.17,1.13-.37-.21c-.76-.55-1.59-1.01-2.44-1.37,0,0-.06-.02-.08-.02-1.41-.57-2.89-.86-4.4-.86-4.82,0-9.09,2.88-10.92,7.36-1.17,2.89-1.14,6.1.09,8.99,1.22,2.89,3.5,5.14,6.42,6.32,0,0,.06.02.06.03.06.02.11.04.18.06-5.27,2.11-8.53,4.83-9.81,6.02-.26.24-.34.61-.21.95.13.33.43.53.79.53h6.81c.15,0,.31-.04.45-.12,2.28-1.35,4.84-2.43,7.58-3.17,2.11-.57,4.36-.95,6.72-1.12l13.03,3.25c.22.06.46.09.71.09,1.06,0,2-.57,2.51-1.48,2.35.67,4.75,1.51,7.16,2.5.1.04.22.05.33.05h9.51c.39,0,.74-.27.84-.65.09-.36-.1-.78-.44-.96-5.16-2.74-10.28-4.86-15.22-6.32l11.66-29.07h3.34c.56,0,1.11-.17,1.58-.48l6.43-4.27c.66-.43,1.09-1.07,1.25-1.83.16-.74,0-1.51-.42-2.16ZM52.96,71.65l-2.54-1.02c-2.21-.88-4.73.18-5.61,2.4-.43,1.06-.42,2.23.04,3.28.45,1.07,1.3,1.89,2.35,2.32.26.1,1.04.48,2.02.98l-1.07,2.27c-.88-.31-1.35-.48-1.6-.58-3.67-1.48-5.44-5.67-3.96-9.34,1.13-2.79,3.82-4.49,6.66-4.49.9,0,1.81.17,2.68.52.43.17,1.22.55,2.24,1.05l-1.23,2.61ZM62.11,57.1l.2-.03,6.86,4.03-1.28,4.38-4.36-2.27-1.42-6.11Z"/><path class="cls-2" d="M89.46,24.1l8.05-6.48c.36-.28.42-.78.13-1.13l-1.68-2.18c-.24-.31-.68-.4-1.03-.2l-10.59,6c2.23.55,4.07,2.02,5.13,4Z"/></g></svg>