<?xml version="1.0" encoding="UTF-8"?><svg id="_レイヤー_2" xmlns="http://www.w3.org/2000/svg" viewBox="0 0 135.99 135.99"><defs><style>.cls-1{fill:none;}.cls-1,.cls-2{stroke-width:0px;}.cls-2{fill:#fff;}</style></defs><g id="_レイヤー_2-2"><rect class="cls-1" x="0" width="135.99" height="135.99" rx="10" ry="10"/><path class="cls-2" d="M38.84,112.89c-.92,0-1.83.02-2.75.07-.17,0-.24-.11-.27-.35-.11-.46-.15-1.14-.2-1.85,1.05.11,2.16.15,3.38.15h6.29c.31,0,.68-.04.97-.2.09-.07.17-.11.24-.11.09,0,.18.05.27.13.44.35.94.81,1.23,1.14.13.13.18.26.18.38,0,.11-.06.24-.2.35-.29.24-.42.44-.62.86-1.83,3.91-3.94,6.2-7.48,8.11-.15.07-.26.13-.37.13-.13,0-.26-.07-.4-.22-.5-.44-1.08-.72-1.71-.95,3.39-1.58,6.38-4.11,7.7-7.65l-6.25.02ZM40.07,108.95c-.83,0-1.74.02-2.51.07-.18,0-.24-.11-.26-.4-.05-.38-.09-1.19-.09-1.76,1.12.11,1.67.13,3.01.13h3.3c1.19,0,2.16-.06,2.88-.09.17,0,.22.09.22.29.04.46.04.97,0,1.43,0,.31-.06.39-.33.37-.61,0-1.47-.04-2.59-.04h-3.63Z"/><path class="cls-2" d="M62.74,109.24c.86,0,1.14-.06,1.38-.2.07-.05.17-.09.26-.09.15,0,.29.07.4.18.37.28.9.75,1.23,1.14.09.09.13.18.13.27,0,.15-.07.27-.18.4-.24.24-.31.59-.4.9-.57,1.89-1.23,3.74-2.31,5.39-1.06,1.65-2.88,3.39-4.73,4.49-.11.07-.2.11-.29.11-.13,0-.24-.07-.39-.18-.57-.39-1.1-.61-1.83-.83,2.59-1.43,4.02-2.7,5.25-4.57,1.03-1.56,1.67-3.16,2.13-5.12h-7.98v1.54c0,.73.04,1.49.06,2.22,0,.29-.06.35-.29.35-.55.04-1.14.04-1.69,0-.24,0-.29-.06-.29-.27.02-.94.04-1.54.04-2.27v-1.49c0-.59,0-1.25-.04-1.78-.02-.17.09-.24.26-.24.86.04,1.87.06,2.79.06h1.87v-.72c0-.97,0-1.72-.18-2.44.9.07,1.76.17,2.27.28.37.07.48.27.33.57-.09.26-.22.64-.22,1.41v.88h2.46Z"/><path class="cls-2" d="M71.27,108.08c.07-.09.17-.15.26-.15.07,0,.15.04.24.09.94.5,2.46,1.61,3.5,2.6.11.11.17.18.17.26s-.04.15-.11.24c-.27.37-.88,1.1-1.14,1.38-.09.09-.15.15-.22.15s-.15-.06-.24-.15c-1.1-1.14-2.42-2.18-3.74-2.99.4-.5.94-1.06,1.28-1.43ZM72.86,117.75c2.24-1.16,3.43-1.93,5.28-3.41,2.24-1.82,3.47-2.99,5.03-4.99.11.92.28,1.54.51,2.15.06.13.09.24.09.35,0,.17-.09.31-.29.55-.97,1.14-2.55,2.6-4.22,3.89-1.52,1.19-3.06,2.22-5.54,3.6-.83.5-1.06.68-1.23.84-.11.11-.22.18-.33.18-.09,0-.2-.07-.31-.2-.46-.51-1.03-1.27-1.47-2.04.94-.26,1.5-.42,2.48-.92Z"/><path class="cls-2" d="M87.74,111.59c.09-.13.18-.22.35-.18,1.38.46,2.48,1.05,3.52,1.8.13.09.2.17.2.28,0,.05-.04.13-.07.2-.2.5-.51.97-.81,1.39-.09.11-.17.18-.24.18s-.13-.04-.22-.11c-1.17-.86-2.37-1.47-3.71-2,.46-.73.75-1.27.97-1.56ZM90.71,118.39c1.74-.92,3.25-1.78,5.03-3.17,1.47-1.12,3.43-2.88,5.28-5.12.11.81.26,1.27.53,2.05.05.13.09.24.09.35,0,.15-.05.28-.2.42-1.71,1.83-2.86,2.84-4.66,4.24-1.6,1.21-3.3,2.26-5.48,3.45-.44.24-.88.44-1.06.62-.11.11-.2.15-.29.15-.13,0-.26-.07-.37-.22-.38-.39-.88-1.1-1.36-1.87.77-.15,1.41-.35,2.49-.9ZM89.96,107.37c.13-.22.24-.26.46-.15,1.17.48,2.44,1.16,3.45,2.04.11.07.15.17.15.24s-.02.15-.07.24c-.26.46-.62,1.05-.94,1.38-.05.09-.13.11-.18.11-.09,0-.18-.06-.28-.13-.95-.79-2.38-1.72-3.56-2.26.31-.48.66-.99.97-1.47ZM98.36,106.8c.09-.07.17-.06.28.04.57.44,1.23,1.17,1.74,1.96.07.11.07.2-.05.29l-.77.57c-.13.09-.22.07-.31-.06-.55-.84-1.14-1.54-1.85-2.13l.97-.68ZM99.99,105.61c.11-.07.17-.06.27.04.68.51,1.34,1.25,1.74,1.89.07.11.09.22-.06.33l-.73.57c-.15.11-.24.06-.31-.06-.5-.79-1.08-1.49-1.83-2.11l.92-.66Z"/><path class="cls-2" d="M98.12,27.55c0-4.87-3.97-8.82-8.84-8.81-4.87,0-8.82,3.97-8.81,8.84,0,4.87,3.97,8.82,8.84,8.81,4.87,0,8.82-3.97,8.81-8.84Z"/><path class="cls-2" d="M53.45,70.84c-1.12,2.1-7.8,16.07-7.8,16.07,0,0-1.95,2.81,1.94,4.93,4.02,2.19,5.33-.72,5.33-.72l9.5-17.24s10.5-.02,19.07-.03c8.57-.01,9.32-8.33,9.32-8.33,0,0,2.57-13.55,3.43-18.55,1.3-7.55-6.01-12.16-14.67-6.43-3.62,2.39-10.71,7.24-10.71,7.24,0,0-8.4-1.4-10.97-1.82-1.96-.32-3.74-.82-4.46,2.07-.76,3.06,1.07,3.65,2.58,4.13,1.08.35,9.25,2.25,9.25,2.25,0,0,2.31.6,4.57.25,2.26-.35,3.91-1.29,3.91-1.29l4.31-2.32-2.48,12.98s-9.31.02-11.83.02c-6.9.01-8.2,2.88-10.3,6.8Z"/><rect class="cls-2" x="27.19" y="58.33" width="35.12" height="4.15" transform="translate(-.1 .08) rotate(-.1)"/><path class="cls-2" d="M40.55,53.98l-4.01-15.55c-.26-.99-1.27-1.58-2.26-1.33-.99.26-1.58,1.26-1.33,2.25l4.37,16.94c.21.82.95,1.39,1.8,1.39l17-.03c1.02,0,1.85-.83,1.85-1.85,0-1.02-.83-1.85-1.85-1.85l-15.57.03Z"/><path class="cls-2" d="M105.07,35.15c-2.52-.47-4.94,1.14-5.43,3.65l-7.24,37.86-22.76.04c-2.55,0-4.62,2.08-4.61,4.64,0,5.27,1.9,12.97,7.67,12.96,4.58,0,24.64-.04,28.41-.05,4.92,0,7.71.04,7.7-6.41,0,0-.07-46.27-.08-48.56,0-2.3-1.15-3.63-3.65-4.12Z"/></g></svg>