<?xml version="1.0" encoding="UTF-8"?><svg id="_レイヤー_2" xmlns="http://www.w3.org/2000/svg" viewBox="0 0 135.99 135.99"><defs><style>.cls-1{fill:none;}.cls-1,.cls-2{stroke-width:0px;}.cls-2{fill:#fff;}</style></defs><g id="_レイヤー_2-2"><rect class="cls-1" width="135.99" height="135.99" rx="10" ry="10"/><path class="cls-2" d="M53.81,111.33h-6.4c-1.25,0-2.11.04-2.75.11-.2,0-.28-.09-.28-.31-.06-.5-.09-1.36-.09-1.96,1.1.11,1.74.13,3.06.13h5.45c.95,0,1.93-.04,2.9-.07.29,0,.39.07.37.31,0,.97-.04,1.93-.04,2.9v4.38c0,1.34.06,2.81.07,3.32,0,.18-.07.24-.33.26-.51.04-1.1.04-1.61,0-.29-.02-.35-.04-.35-.31v-.73h-6.31c-1.16,0-2.13.05-3.01.07-.17,0-.24-.07-.26-.28-.06-.48-.09-1.14-.09-1.91.86.05,1.93.09,3.38.09h6.29v-6ZM55.88,106.6c.09-.07.17-.06.27.04.57.44,1.23,1.17,1.74,1.96.07.11.07.2-.06.29l-.77.57c-.13.09-.22.07-.31-.06-.55-.84-1.14-1.54-1.85-2.13l.97-.68ZM57.51,105.41c.11-.07.17-.06.28.04.68.51,1.34,1.25,1.74,1.89.07.11.09.22-.05.33l-.73.57c-.15.11-.24.06-.31-.06-.5-.79-1.08-1.49-1.83-2.11l.92-.66Z"/><path class="cls-2" d="M65.79,109.32c.31.09.35.31.24.57-.2.4-.22.81-.22,1.25-.04,2.29-.38,4.04-.99,5.39-.48,1.12-1.28,2.31-2.6,3.45-.18.15-.33.24-.48.24-.11,0-.22-.06-.35-.15-.46-.31-.9-.53-1.56-.77,1.43-1.08,2.4-2.2,3.04-3.65.51-1.25.75-2.26.77-5.19,0-.7-.04-.99-.18-1.54,1.05.13,1.89.26,2.33.4ZM69.86,117.07c.9-.48,1.74-1.05,2.6-1.71,1.1-.84,2.18-1.82,3.21-3.12.07.64.26,1.25.57,1.85.06.13.11.22.11.31,0,.13-.07.26-.28.46-.92.94-1.76,1.69-2.71,2.4-.95.73-1.98,1.45-3.26,2.2-.33.22-.37.26-.53.39-.11.09-.24.15-.37.15-.11,0-.24-.05-.39-.15-.4-.28-.83-.75-1.1-1.12-.11-.17-.17-.27-.17-.39,0-.09.02-.17.07-.27.13-.24.11-.46.11-1.39v-5.74c0-1.6,0-2.35-.18-3.19.73.09,1.74.22,2.29.39.24.06.33.17.33.31,0,.11-.06.28-.15.46-.17.35-.17.72-.17,2.04v6.13Z"/><path class="cls-2" d="M82.46,110.27c-1.19,0-2.24.06-3.03.09-.24.02-.31-.11-.35-.37-.06-.37-.13-1.32-.17-1.85.83.09,1.8.13,3.52.13h6.55c.55,0,.75-.04,1.01-.18.09-.05.18-.07.28-.07.11,0,.22.04.35.09.5.31.99.77,1.34,1.21.09.11.13.2.13.31,0,.17-.09.31-.26.46-.17.17-.26.35-.42.72-.9,2.16-2.02,4.18-3.56,5.96-1.58,1.8-3.36,3.32-5.21,4.37-.17.11-.33.17-.5.17-.15,0-.31-.06-.46-.2-.42-.4-1.03-.73-1.71-1.01,2.68-1.36,4.31-2.62,6-4.59,1.43-1.63,2.37-3.19,3.1-5.23h-6.62Z"/><path class="cls-2" d="M68.57,74.01l-2.83-13.34,8.11-15.94c2.07-2.89,1.4-6.89-2.37-9.26l-11.19-7.96,7.39-9.86,1.12.81c.45-.36.93-.68,1.44-.95l-1.59-1.15.05-.06c1.21-1.61.31-3.08-1.3-4.31-1.61-1.23-2.74-1.69-4.52-.15l-12.86,14.11s-1.1,1.71-1.06,2.84c.08,2,.9,2.85.9,2.85l8.4,9.4-7.82,14.92c-.29.64-.47,1.61-.47,2.18l.52,36.1c0,1.18.68,2.76,3.75,2.76s4.2-1.49,4.2-2.76l.52-20.76,1.34,4.13c.2.61.52,1.13.92,1.58,0,0,0,0,0,.01l13.99,16.17c.48.53,2.71,1.47,5.13-.67,2.43-2.14,2.07-3.55,1.31-4.39l-13.07-16.3Z"/><path class="cls-2" d="M107.33,44.35l-23.98-17.36c-.1.58-.25,1.14-.46,1.67l22.8,16.5c-2.11.9-4.75,5.23-5.07,7.26-.26,1.67,2.67,3.22,4.78,2.72,1.25-.29,1.95-2.17,2.43-5.17.51-3.21.36-5-.49-5.62Z"/><path class="cls-2" d="M66.74,25.47c0-4.28,3.45-7.72,7.72-7.72s7.72,3.43,7.72,7.72-3.45,7.72-7.72,7.72-7.72-3.44-7.72-7.72Z"/></g></svg>