<?xml version="1.0" encoding="UTF-8"?><svg id="_レイヤー_2" xmlns="http://www.w3.org/2000/svg" viewBox="0 0 135.99 135.99"><defs><style>.cls-1{fill:none;}.cls-1,.cls-2{stroke-width:0px;}.cls-2{fill:#fff;}</style></defs><g id="_レイヤー_2-2"><rect class="cls-1" width="135.99" height="135.99" rx="10" ry="10"/><path class="cls-2" d="M19.87,114.51c.17.11.27.22.27.35,0,.09-.05.18-.2.29-.18.15-.31.33-.46.62-.48.97-1.28,2.26-2.04,3.06-.13.15-.24.22-.37.22-.07,0-.17-.04-.28-.11-.53-.35-1.05-.64-1.56-.77,1.06-1.1,1.72-2.05,2.22-3.03.28-.5.4-.9.5-1.49.75.24,1.45.55,1.91.84ZM22.31,109.46c0-1.16-.04-2-.2-2.82.86.07,1.82.18,2.27.27.22.04.33.13.33.27,0,.09-.04.2-.11.33-.17.31-.18.73-.18,1.83v.97h2.26c1.6,0,2.84-.07,3.74-.11.17-.02.24.09.24.29.02.48.02.95-.02,1.43-.02.24-.07.37-.26.35-1.14-.04-2.53-.09-3.78-.09h-2.16l.02,3.71c0,.97.04,1.76.04,3.19,0,.9-.33,1.5-1.08,1.89-.59.33-1.58.59-2.35.6-.22,0-.33-.11-.44-.39-.28-.64-.66-1.17-1.23-1.65,1.25,0,2.05-.07,2.5-.22.29-.13.42-.33.42-.81v-6.33h-2.88c-1.05,0-2.31.05-3.17.13-.17,0-.24-.15-.24-.37-.02-.33-.07-1.16-.07-1.76,1.39.11,2.51.13,3.45.13h2.92v-.86ZM27.7,113.85c.09-.07.17-.09.24-.09.11,0,.18.06.28.17.9.77,1.78,1.96,2.62,3.36.07.11.09.2.09.27,0,.11-.06.2-.18.29-.29.28-.81.64-1.23.92-.09.06-.17.11-.22.11-.07,0-.13-.06-.2-.18-.66-1.23-1.67-2.71-2.79-3.85.5-.37.97-.68,1.39-.99ZM27.92,106.62c.09-.07.17-.06.28.04.57.44,1.23,1.17,1.74,1.96.07.11.07.2-.05.29l-.77.57c-.13.09-.22.07-.31-.06-.55-.84-1.14-1.54-1.85-2.13l.97-.68ZM29.56,105.43c.11-.07.17-.06.28.04.68.51,1.34,1.25,1.74,1.89.07.11.09.22-.05.33l-.73.57c-.15.11-.24.06-.31-.06-.5-.79-1.08-1.49-1.83-2.11l.92-.66Z"/><path class="cls-2" d="M39.48,109.32c.31.09.35.31.24.57-.2.4-.22.81-.22,1.25-.04,2.29-.38,4.04-.99,5.39-.48,1.12-1.28,2.31-2.6,3.45-.18.15-.33.24-.48.24-.11,0-.22-.06-.35-.15-.46-.31-.9-.53-1.56-.77,1.43-1.08,2.4-2.2,3.04-3.65.51-1.25.75-2.26.77-5.19,0-.7-.04-.99-.18-1.54,1.05.13,1.89.26,2.33.4ZM43.55,117.07c.9-.48,1.74-1.05,2.61-1.71,1.1-.84,2.18-1.82,3.21-3.12.07.64.26,1.25.57,1.85.05.13.11.22.11.31,0,.13-.07.26-.28.46-.92.94-1.76,1.69-2.71,2.4-.95.73-1.98,1.45-3.26,2.2-.33.22-.37.26-.53.39-.11.09-.24.15-.37.15-.11,0-.24-.06-.38-.15-.4-.27-.83-.75-1.1-1.12-.11-.17-.17-.28-.17-.39,0-.09.02-.17.07-.28.13-.24.11-.46.11-1.39v-5.74c0-1.6,0-2.35-.18-3.19.73.09,1.74.22,2.29.39.24.05.33.17.33.31,0,.11-.06.28-.15.46-.17.35-.17.71-.17,2.04v6.13Z"/><path class="cls-2" d="M62.9,108.95c.53-.02.77-.13,1.01-.28.13-.09.22-.13.31-.13s.2.06.33.15c.4.24.92.73,1.25,1.12.11.11.15.22.15.33s-.05.22-.2.35c-.18.17-.37.35-.55.7-.79,1.56-1.65,3.06-2.7,4.44.75.61,1.45,1.25,1.98,1.85.07.07.11.17.11.26,0,.07-.04.17-.11.24-.26.31-.83.9-1.14,1.16-.07.05-.15.09-.22.09-.05,0-.13-.04-.2-.11-.44-.51-1.17-1.25-1.78-1.78-1.87,2.02-3.76,3.45-5.85,4.59-.17.09-.31.17-.46.17-.11,0-.22-.06-.35-.17-.59-.48-1.1-.72-1.74-.94,2.84-1.45,4.68-2.77,6.75-4.97-.7-.57-1.52-1.14-2.64-1.72.4-.44.79-.92,1.21-1.3.07-.07.15-.13.24-.13.05,0,.11.04.18.07.66.31,1.47.84,2.37,1.47.88-1.14,1.56-2.33,2.15-3.63l-4.55.09c-1.5,1.93-2.7,3.19-3.92,4.13-.13.09-.24.17-.37.17-.09,0-.2-.04-.29-.13-.46-.33-.94-.59-1.54-.84,2.57-2.04,3.94-3.72,5.19-5.76.59-.99.83-1.49.99-2.26.62.22,1.58.53,2.15.9.15.07.2.18.2.29,0,.13-.09.28-.22.37-.17.11-.29.26-.38.39-.15.26-.26.44-.57.92l3.23-.07ZM65.29,106.42c.09-.07.17-.05.28.04.57.44,1.23,1.17,1.74,1.96.07.11.07.2-.05.29l-.77.57c-.13.09-.22.07-.31-.06-.55-.84-1.14-1.54-1.85-2.13l.97-.68ZM66.92,105.23c.11-.07.17-.06.28.04.68.51,1.34,1.25,1.74,1.89.07.11.09.22-.05.33l-.73.57c-.15.11-.24.06-.31-.06-.5-.79-1.08-1.49-1.83-2.11l.92-.66Z"/><path class="cls-2" d="M74.04,109.46c0-1.27-.05-1.96-.2-2.68.77.09,1.74.2,2.27.39.22.06.31.17.31.29,0,.09-.04.18-.07.27-.17.35-.2.81-.2,1.74v3.71c0,.95.04,1.67.05,2.31,0,.27-.11.37-.4.37h-1.47c-.26,0-.37-.09-.35-.31,0-.64.05-1.71.05-2.49v-3.6ZM82.68,112.89c0,2.71-.4,4.53-1.49,5.98-.9,1.19-2.49,2.31-4.04,2.88-.15.05-.28.09-.38.09-.15,0-.28-.06-.44-.22-.44-.44-.92-.79-1.56-1.12,1.96-.61,3.5-1.47,4.48-2.68.84-1.05,1.23-2.57,1.23-4.9v-3.47c0-1.58-.04-2.16-.2-2.99.88.07,1.76.2,2.38.4.18.05.26.17.26.31,0,.09-.02.2-.07.29-.17.38-.17.86-.17,2v3.41Z"/><path class="cls-2" d="M91.28,108.09c.07-.09.17-.15.26-.15.07,0,.15.04.24.09.94.5,2.46,1.61,3.5,2.6.11.11.17.18.17.26s-.04.15-.11.24c-.28.37-.88,1.1-1.14,1.38-.09.09-.15.15-.22.15s-.15-.06-.24-.15c-1.1-1.14-2.42-2.18-3.74-2.99.4-.5.94-1.06,1.28-1.43ZM92.88,117.75c2.24-1.16,3.43-1.93,5.28-3.41,2.24-1.82,3.47-2.99,5.03-4.99.11.92.28,1.54.51,2.15.05.13.09.24.09.35,0,.17-.09.31-.29.55-.97,1.14-2.55,2.6-4.22,3.89-1.52,1.19-3.06,2.22-5.54,3.6-.83.5-1.06.68-1.23.84-.11.11-.22.18-.33.18-.09,0-.2-.07-.31-.2-.46-.51-1.03-1.27-1.47-2.04.94-.26,1.5-.42,2.48-.92Z"/><path class="cls-2" d="M118.01,109.32c.48-.02.71-.09.92-.22.07-.06.15-.07.24-.07s.18.04.29.11c.46.29.88.64,1.25.99.17.15.24.29.24.42,0,.15-.09.27-.22.39-.26.2-.44.46-.61.79-1.23,2.49-2.4,4.27-3.63,5.67-1.58,1.78-3.76,3.56-5.58,4.57-.11.07-.2.09-.29.09-.15,0-.28-.07-.42-.2-.46-.37-1.03-.64-1.74-.84,2.86-1.58,4.31-2.73,6.11-4.68,1.45-1.61,2.29-2.86,3.39-5.21l-4.44.13c-1.5,1.85-2.42,2.9-3.47,3.76-.13.13-.26.2-.39.2-.09,0-.18-.04-.27-.11-.46-.33-1.14-.66-1.76-.79,2.38-1.94,3.8-3.65,4.93-5.45.61-1.03.88-1.6,1.08-2.48,1.05.37,1.74.68,2.15.97.13.09.18.2.18.31s-.06.22-.2.31c-.18.11-.31.31-.46.5-.2.31-.39.59-.61.92l3.3-.07ZM120.28,106.84c.09-.07.17-.05.27.04.57.44,1.23,1.17,1.74,1.96.07.11.07.2-.06.29l-.77.57c-.13.09-.22.07-.31-.06-.55-.84-1.14-1.54-1.85-2.13l.97-.68ZM121.91,105.65c.11-.07.17-.06.28.04.68.51,1.34,1.25,1.74,1.89.07.11.09.22-.05.33l-.73.57c-.15.11-.24.06-.31-.06-.5-.79-1.08-1.49-1.83-2.11l.92-.66Z"/><path class="cls-2" d="M37.01,15.47c0,2.73-9.88,2.73-9.88,0s2.21-4.94,4.94-4.94,4.94,2.21,4.94,4.94Z"/><path class="cls-2" d="M105.4,30.42c-2.73,0-4.94-2.21-4.94-4.94s2.21-4.94,4.94-4.94,2.73,9.89,0,9.89Z"/><path class="cls-2" d="M51.84,74.18c0,2.73-2.22,4.94-4.94,4.94s-4.94-2.21-4.94-4.94,9.88-2.73,9.88,0Z"/><path class="cls-2" d="M104.43,56.29l-11.43-14.54c-.88-1-2.33-1.63-3.8-1.63-.79,0-2.23.19-3.21,1.42l-5.89,5.97-6.29-11.71,1.65-26.85c.04-.74-.49-1.39-1.24-1.47l-3.49-.38c-.73-.07-1.43.45-1.53,1.19l-3.21,22.34-6.51,3.34c-.53.27-.96.6-1.32,1.01l-9.58,11.04-13.08-5.47c-.66-.28-1.43,0-1.77.64l-1.74,3.28c-.17.32-.2.71-.09,1.07.11.36.35.65.69.82l15.22,7.73c1.75,1.01,4.08.61,5.31-.84l6.41-7.22,7.35,11.95,1.88,35.09c.05.73.64,1.31,1.38,1.32l4.16.06h.02c.74,0,1.35-.57,1.39-1.3l1.94-28.94c.84-.19,1.72-.52,2.59-.97.88-.44,1.68-1.05,2.41-1.85l7.66-9.85,9.06,9.19c.52.52,1.35.55,1.91.07l2.99-2.59c.56-.48.64-1.33.18-1.92Z"/><path class="cls-2" d="M60.97,32.11c3.24-1.64,4.53-5.59,2.89-8.82-1.65-3.23-5.62-4.52-8.85-2.88-3.23,1.65-4.52,5.62-2.88,8.85,1.65,3.23,5.6,4.5,8.84,2.86Z"/></g></svg>