<?xml version="1.0" encoding="UTF-8"?><svg id="_レイヤー_2" xmlns="http://www.w3.org/2000/svg" viewBox="0 0 135.99 135.99"><defs><style>.cls-1{fill-rule:evenodd;}.cls-1,.cls-2,.cls-3{stroke-width:0px;}.cls-1,.cls-3{fill:#fff;}.cls-2{fill:none;}</style></defs><g id="_レイヤー_2-2"><rect class="cls-2" x="0" width="135.99" height="135.99" rx="10" ry="10"/><path class="cls-3" d="M55.35,110.58c.9,0,1.93-.02,2.77-.05.22-.02.24.09.26.29.04.46.04.99,0,1.45-.02.24-.06.31-.31.29-.62,0-1.74-.02-2.64-.02h-.75c-.11,2.62-.51,4.16-1.41,5.65-.92,1.52-2.4,2.62-4.33,3.41-.26.11-.4.17-.51.17s-.2-.06-.35-.2c-.55-.57-.9-.83-1.52-1.1,2.6-.81,4.02-1.74,4.95-3.25.72-1.17,1.01-2.44,1.08-4.68h-3.91v.66c0,1.08,0,2.07.06,3.04.02.2-.11.24-.31.26-.48.04-1.08.04-1.58,0-.24-.02-.35-.05-.33-.26.05-.95.09-1.85.09-3.01v-.7h-.55c-.99,0-2.46.05-3.03.09-.15,0-.2-.11-.22-.35-.07-.39-.09-1.03-.13-1.78.77.06,1.96.09,3.38.09h.55v-1.34c0-1.17-.04-1.63-.22-2.7.95.09,1.85.18,2.24.29.2.04.27.13.27.26,0,.11-.05.24-.11.39-.13.33-.13.51-.13,1.76v1.34h3.94l.02-1.8c.02-1.03-.04-1.87-.17-2.51.7.07,1.71.18,2.15.31.26.06.33.15.33.29,0,.07-.02.18-.07.33-.13.35-.15.83-.15,1.61v1.74h.64Z"/><path class="cls-3" d="M71.46,109.24c.86,0,1.14-.05,1.38-.2.07-.06.17-.09.26-.09.15,0,.29.07.4.18.37.27.9.75,1.23,1.14.09.09.13.18.13.28,0,.15-.07.27-.18.4-.24.24-.31.59-.4.9-.57,1.89-1.23,3.74-2.31,5.39-1.06,1.65-2.88,3.39-4.73,4.49-.11.07-.2.11-.29.11-.13,0-.24-.07-.39-.18-.57-.39-1.1-.61-1.83-.83,2.59-1.43,4.02-2.7,5.25-4.57,1.03-1.56,1.67-3.16,2.13-5.12h-7.98v1.54c0,.73.04,1.49.06,2.22,0,.29-.06.35-.29.35-.55.04-1.14.04-1.69,0-.24,0-.29-.06-.29-.28.02-.94.04-1.54.04-2.27v-1.49c0-.59,0-1.25-.04-1.78-.02-.17.09-.24.26-.24.86.04,1.87.06,2.79.06h1.87v-.72c0-.97,0-1.72-.18-2.44.9.07,1.76.17,2.27.28.37.07.48.28.33.57-.09.26-.22.64-.22,1.41v.88h2.46Z"/><path class="cls-3" d="M89.34,110.98c1.03,0,2.24-.02,3.19-.04.26-.02.33.02.35.33.04.46.04.97,0,1.43,0,.29-.07.35-.35.35-.66,0-2.05-.07-3.08-.07h-2.6c-.18,2.66-.46,3.71-1.25,5.01-.86,1.45-2.33,2.79-3.91,3.61-.15.09-.28.13-.42.13s-.28-.05-.4-.18c-.46-.42-.9-.73-1.54-1.01,2.07-.99,3.28-1.96,4.16-3.32.72-1.1,1.03-2.29,1.12-4.24h-3.54c-.9,0-1.94.07-2.64.09-.24.02-.29-.07-.33-.35-.06-.37-.09-1.14-.13-1.82,1.19.09,2.22.09,3.12.09h3.61c0-.92,0-1.91-.02-2.71-.02-.59-.04-1.12-.22-1.85.92.04,1.85.11,2.44.26.2.06.27.13.27.26,0,.11-.06.24-.13.4s-.15.6-.15,1.12c0,.86,0,1.47-.02,2.51h2.46Z"/><path class="cls-3" d="M77.83,34.19c-9.59,0-9.59,8.19-9.59,10.88,0,2.19,0,5.25,0,8.37,0,2.2,0,4.43,0,6.39h-2.33c-3.36,0-7.72,0-11.96,0-3.02,0-5.32.86-6.84,2.57-1.4,1.58-2.01,3.82-1.71,6.33,1.23,10.39,3.29,25.54,3.31,25.69.17,1.26,1.25,2.21,2.52,2.21h3.9s0,.01,0,.01c.69,0,1.35-.28,1.83-.77.48-.5.74-1.17.73-1.86-.01-.4,0-.81,0-1.25,0-.25,0-.51,0-.78,0-1.86,0-4.25.01-6.79,0-4.4.02-9.89,0-13.36,4.13,0,9.28,0,13.33,0h4.85c7.18,0,10.97-3.58,10.97-10.34v-16.41c0-6.71-3.46-10.88-9.03-10.88Z"/><path class="cls-1" d="M91.76,96.56c-.06-2.45-.12-16.28,0-18.73.08-1.84-.61-2.47-2.43-2.44-4.55.09-21.1.07-25.79,0-1.59-.02-2.33.51-2.28,2.17.07,2.59.05,16.39,0,18.98h30.52Z"/><path class="cls-1" d="M80.84,24.76c.04,4.59-3.77,8.41-8.35,8.39-4.55-.02-8.26-3.67-8.32-8.18-.06-4.69,3.53-8.38,8.22-8.46,4.64-.08,8.42,3.61,8.46,8.25Z"/><path class="cls-3" d="M55.55,47.96c-.31,0-.63-.09-.91-.28-.73-.5-.91-1.5-.41-2.22.03-.05,3.25-4.83,1.48-8.46-1.22-2.51-1.74-5.03-1.52-7.49.08-.88.85-1.53,1.73-1.45.88.08,1.53.85,1.45,1.73-.16,1.87.24,3.83,1.21,5.8,2.6,5.32-1.54,11.43-1.72,11.68-.31.45-.81.69-1.32.69Z"/><path class="cls-3" d="M45.82,43.25c-.31,0-.63-.09-.91-.28-.73-.5-.91-1.5-.41-2.22.03-.04,3.25-4.83,1.48-8.46-1.22-2.51-1.74-5.03-1.52-7.49.08-.88.85-1.53,1.73-1.45.88.08,1.53.85,1.45,1.73-.16,1.87.24,3.83,1.21,5.8,2.6,5.32-1.54,11.43-1.72,11.68-.31.45-.81.69-1.32.69Z"/></g></svg>