<?xml version="1.0" encoding="UTF-8"?><svg id="_レイヤー_2" xmlns="http://www.w3.org/2000/svg" viewBox="0 0 135.99 135.99"><defs><style>.cls-1{fill:none;}.cls-1,.cls-2{stroke-width:0px;}.cls-2{fill:#fff;}</style></defs><g id="_モーダル"><rect class="cls-1" width="135.99" height="135.99" rx="10" ry="10"/><path class="cls-2" d="M26.75,111.59c.09-.13.18-.22.35-.18,1.38.46,2.48,1.05,3.52,1.8.13.09.2.17.2.27,0,.06-.04.13-.07.2-.2.5-.51.97-.81,1.39-.09.11-.17.18-.24.18s-.13-.04-.22-.11c-1.17-.86-2.37-1.47-3.71-2,.46-.73.75-1.27.97-1.56ZM29.73,118.39c1.74-.92,3.25-1.78,5.03-3.17,1.47-1.12,3.43-2.88,5.28-5.12.11.81.26,1.27.53,2.05.05.13.09.24.09.35,0,.15-.06.27-.2.42-1.71,1.83-2.86,2.84-4.66,4.24-1.6,1.21-3.3,2.26-5.48,3.45-.44.24-.88.44-1.06.62-.11.11-.2.15-.29.15-.13,0-.26-.07-.37-.22-.38-.39-.88-1.1-1.36-1.87.77-.15,1.41-.35,2.49-.9ZM28.97,107.37c.13-.22.24-.26.46-.15,1.17.48,2.44,1.16,3.45,2.04.11.07.15.17.15.24s-.02.15-.07.24c-.26.46-.62,1.05-.94,1.38-.05.09-.13.11-.18.11-.09,0-.18-.05-.28-.13-.95-.79-2.38-1.72-3.56-2.26.31-.48.66-.99.97-1.47ZM37.37,106.8c.09-.07.17-.06.28.04.57.44,1.23,1.17,1.74,1.96.07.11.07.2-.06.29l-.77.57c-.13.09-.22.07-.31-.06-.55-.84-1.14-1.54-1.85-2.13l.97-.68ZM39.01,105.61c.11-.07.17-.06.27.04.68.51,1.34,1.25,1.74,1.89.07.11.09.22-.06.33l-.73.57c-.15.11-.24.06-.31-.05-.5-.79-1.08-1.49-1.83-2.11l.92-.66Z"/><path class="cls-2" d="M51.59,107.48c.13.09.22.18.22.29,0,.09-.06.22-.18.37-.33.42-.55.99-.75,1.52-1.03,2.81-2,5.5-3.15,8.25,2.82-.24,4.37-.39,6.42-.7-.57-1.01-1.25-2.02-2.04-2.93.55-.29,1.08-.61,1.6-.88.2-.11.31-.04.44.11,1.43,1.67,2.81,3.96,3.71,6,.06.09.07.17.07.24,0,.11-.07.22-.24.31-.44.29-.9.53-1.39.75-.07.04-.15.06-.22.06-.11,0-.2-.09-.26-.26-.22-.51-.42-.99-.64-1.47-2.94.44-5.72.75-8.71,1.06-1.21.13-1.71.22-2.15.44-.24.11-.44.07-.53-.18-.15-.31-.39-1.23-.64-2.37.73.06,1.5.04,2.24.02,1.3-3.28,2.26-6,3.21-9.08.29-.95.48-1.6.53-2.51,1.12.33,1.91.59,2.48.95Z"/><path class="cls-2" d="M72.04,109.33c1.06,0,1.28-.06,1.52-.17.09-.06.18-.09.26-.09.11,0,.22.06.31.15.5.44.92.9,1.32,1.47.09.15.15.27.15.4,0,.15-.07.28-.24.39-.39.28-.64.44-.88.7-1.58,1.74-3.28,3.45-4.93,4.92.59.59,1.08,1.16,1.61,1.83.09.11.13.18.13.27s-.06.18-.17.29c-.37.37-.77.75-1.19,1.08-.09.06-.17.09-.24.09s-.15-.05-.22-.17c-1.78-2.29-3.63-4.09-5.89-5.7.37-.35.99-.94,1.32-1.23.07-.06.15-.09.2-.09.07,0,.15.06.26.13.95.7,1.83,1.34,2.6,2.05,1.54-1.34,2.88-2.75,4.24-4.33l-7.72.04c-1.06,0-2.42.04-3.41.13-.24,0-.29-.11-.33-.33-.11-.64-.18-1.28-.22-1.96,1.25.13,2.73.13,4,.13h7.52Z"/><path class="cls-2" d="M79.03,111.41c.09-.13.18-.22.35-.18,1.38.46,2.48,1.05,3.52,1.8.13.09.2.17.2.27,0,.06-.04.13-.07.2-.2.5-.51.97-.81,1.39-.09.11-.17.18-.24.18s-.13-.04-.22-.11c-1.17-.86-2.37-1.47-3.71-2,.46-.73.75-1.27.97-1.56ZM82,118.21c1.74-.92,3.25-1.78,5.03-3.17,1.47-1.12,3.43-2.88,5.28-5.12.11.81.26,1.27.53,2.05.05.13.09.24.09.35,0,.15-.06.28-.2.42-1.71,1.83-2.86,2.84-4.66,4.24-1.6,1.21-3.3,2.26-5.48,3.45-.44.24-.88.44-1.06.62-.11.11-.2.15-.29.15-.13,0-.26-.07-.37-.22-.38-.39-.88-1.1-1.36-1.87.77-.15,1.41-.35,2.49-.9ZM81.25,107.19c.13-.22.24-.26.46-.15,1.17.48,2.44,1.16,3.45,2.04.11.07.15.17.15.24s-.02.15-.07.24c-.26.46-.62,1.05-.94,1.38-.05.09-.13.11-.18.11-.09,0-.18-.06-.28-.13-.95-.79-2.38-1.72-3.56-2.26.31-.48.66-.99.97-1.47Z"/><path class="cls-2" d="M97.41,108.09c.07-.09.17-.15.26-.15.07,0,.15.04.24.09.94.5,2.46,1.61,3.5,2.6.11.11.17.18.17.26s-.04.15-.11.24c-.27.37-.88,1.1-1.14,1.38-.09.09-.15.15-.22.15s-.15-.05-.24-.15c-1.1-1.14-2.42-2.18-3.74-2.99.4-.5.94-1.06,1.28-1.43ZM99,117.75c2.24-1.16,3.43-1.93,5.28-3.41,2.24-1.82,3.47-2.99,5.03-4.99.11.92.28,1.54.51,2.15.06.13.09.24.09.35,0,.17-.09.31-.29.55-.97,1.14-2.55,2.6-4.22,3.89-1.52,1.19-3.06,2.22-5.54,3.6-.83.5-1.06.68-1.23.84-.11.11-.22.18-.33.18-.09,0-.2-.07-.31-.2-.46-.51-1.03-1.27-1.47-2.04.94-.26,1.5-.42,2.48-.92Z"/><path class="cls-2" d="M78.99,42.05c0,6.07-4.92,11-10.99,11s-10.99-4.92-10.99-11,4.92-11,10.99-11,10.99,4.93,10.99,11Z"/><rect class="cls-2" x="43.31" y="20.96" width="5.4" height="13.69"/><rect class="cls-2" x="87.29" y="20.96" width="5.38" height="13.69"/><path class="cls-2" d="M105.27,39.88c-.68-.89-1.74-1.41-2.87-1.41h-18.17v7.17h6.05l-2.46,7.55-8.89,4.23h-21.88l-8.88-4.23-2.49-7.55h6.07v-7.17h-18.17c-1.12,0-2.18.53-2.86,1.41l-12.11,15.93,5.71,4.35,11.04-14.52h.89l3.86,11.74c.29.91.87,1.7,1.65,2.25l11.32,8.12v22.55h29.84v-22.55l11.33-8.12c.76-.55,1.35-1.34,1.64-2.25l3.87-11.74h.89l11.02,14.52,5.73-4.35-12.11-15.93h0Z"/></g></svg>