<?xml version="1.0" encoding="UTF-8"?><svg id="_レイヤー_2" xmlns="http://www.w3.org/2000/svg" viewBox="0 0 135.99 135.99"><defs><style>.cls-1{fill-rule:evenodd;}.cls-1,.cls-2,.cls-3{stroke-width:0px;}.cls-1,.cls-3{fill:#fff;}.cls-2{fill:none;}</style></defs><g id="_レイヤー_2-2"><rect class="cls-2" x="0" width="135.99" height="135.99" rx="10" ry="10"/><path class="cls-3" d="M52.18,113.44c-.11,2.05-.37,3.28-1.08,4.68-.73,1.43-2.05,2.77-3.23,3.47-.2.13-.39.22-.55.22-.13,0-.26-.05-.39-.18-.37-.37-.99-.73-1.63-.97,1.8-.97,2.88-1.87,3.65-3.26.68-1.21.86-2.2.94-3.94h-3.48c-.92,0-1.82.06-2.75.11-.17.02-.22-.11-.24-.35-.09-.51-.15-1.21-.15-1.76,1.03.09,2.05.09,3.12.09h8.24c1.43,0,2.49-.04,3.58-.11.18,0,.2.11.2.37.02.24.02,1.17,0,1.41,0,.24-.11.31-.28.31-.95-.04-2.22-.07-3.48-.07h-2.46ZM48.55,109.19c-.84,0-1.58.04-2.6.07-.24,0-.29-.09-.31-.31-.06-.44-.07-1.1-.13-1.76,1.28.07,2.22.09,3.04.09h4.11c1.03,0,2.18-.02,3.1-.07.18,0,.22.11.22.35.04.44.04.9,0,1.34,0,.26-.04.35-.24.35-.99-.04-2.07-.05-3.08-.05h-4.11Z"/><path class="cls-3" d="M65.45,119.11c-1.19,0-2.4.02-3.3.09-.18,0-.24-.11-.28-.35-.07-.42-.11-1.04-.17-2.02,1.32.09,2.64.11,3.8.11h6.68c2.04,0,3.28-.06,4.13-.09.24,0,.29.09.29.33.04.51.04,1.08,0,1.6,0,.28-.04.39-.27.39-.88-.04-2.77-.06-4.02-.06h-6.86ZM67.13,111.32c-1.16,0-1.96.04-2.81.07-.18,0-.24-.11-.26-.39-.09-.57-.11-1.19-.11-1.94,1.16.09,2.02.11,3.12.11h3.63c1.41,0,2.51-.06,3.3-.09.15,0,.2.09.2.31.04.53.04,1.1,0,1.63-.02.26-.06.35-.24.35-.86-.04-2.04-.06-3.21-.06h-3.63Z"/><path class="cls-3" d="M89.75,108.2c.66,0,.99-.02,1.27-.17.07-.06.13-.07.2-.07.11,0,.2.07.31.15.42.33.84.81,1.19,1.28.06.09.09.17.09.24,0,.11-.07.24-.24.37-.24.2-.48.48-.68.81-.75,1.28-1.47,2.31-2.35,3.43,1.76,1.3,3.39,2.73,5.08,4.44.09.09.15.18.15.26s-.04.17-.13.27c-.35.42-.77.86-1.23,1.25-.07.07-.15.11-.22.11-.09,0-.17-.05-.26-.15-1.54-1.8-3.12-3.25-4.77-4.55-2.07,2.16-4.16,3.72-6.16,4.84-.17.07-.29.15-.42.15-.11,0-.22-.06-.31-.17-.4-.5-.94-.86-1.54-1.19,2.86-1.45,4.57-2.75,6.46-4.68,1.32-1.38,2.33-2.68,3.45-4.6l-4.73.02c-.95,0-1.91.04-2.9.11-.15.02-.2-.11-.24-.31-.09-.39-.17-1.27-.17-1.91.99.07,1.91.07,3.1.07h5.04Z"/><path class="cls-3" d="M79.33,23.91c.53,4.21-2.45,8.06-6.66,8.59-4.21.53-8.06-2.45-8.59-6.66-.53-4.21,2.45-8.06,6.66-8.59,4.21-.53,8.06,2.45,8.59,6.66Z"/><path class="cls-3" d="M97.59,43.19c-.5-1.96-.93-2.9-2.9-2.43l-12.91,2.83-13.32-8.95c-7.49-3.75-10.11,2.96-10.11,2.96-.22.43-2.23,4.37-3.44,9.58-1.52,6.51-1.16,12.36,1,17.16.08.19.65,1.31.85,1.67l6.33,11.93-9.75,13.03c-1.21,1.62-.29,3.4,1.49,4.73.87.65,3.14,1.19,4.19-.08l12.05-14.91c.94-1.25,1.06-2.93.33-4.31l-1.99-8.84c-2.03-8.82-.65-16.44.66-20.17l8.53,3.22c1.05.43,2.08.68,2.96.57.15-.02.29-.05.44-.08l14.38-4.07c1.96-.47,1.7-1.87,1.21-3.83Z"/><path class="cls-1" d="M92.98,17.49c-1.71-1.83-3.76-2.87-6.32-2.14-2.61.75-3.81,2.75-4.27,5.26-.7,3.89,1.12,7.68,4.56,9.71,2.23,1.32,3.95,3.03,4.49,5.72.27,1.35.74,2.65,1.12,3.98.74-.21,1.37-.39,2.16-.62-.38-1.32-.65-2.61-1.12-3.82-1.02-2.63-.49-5.07.75-7.45,1.83-3.5,1.3-7.76-1.38-10.64ZM87.1,28.64c-3.29-1.86-4.51-6.88-2.45-10.06,1.25-1.93,3.38-2.52,5.46-1.51,1.67.81,3.05,2.55,3.77,5.07.34,1.29.3,3.04-.57,4.69-1.25,2.38-3.88,3.13-6.22,1.81Z"/><path class="cls-1" d="M42.03,56.17c.23,1.85-1.08,3.53-2.92,3.76-1.85.23-3.53-1.07-3.76-2.92-.23-1.84,1.07-3.53,2.92-3.76,1.84-.23,3.53,1.07,3.76,2.92Z"/><path class="cls-3" d="M70.82,67.23c-.67-2.93-.96-5.78-.99-8.42l16.15,7.89c.96.43,1.72,1.21,2.1,2.19l6.02,16.28c.76,2.07-.58,3.19-2.67,3.94-1.91.68-3.25.68-3.89-1.07l-6.33-14.65-9.83-3.66-.56-2.51Z"/></g></svg>