<?xml version="1.0" encoding="UTF-8"?><svg id="_レイヤー_2" xmlns="http://www.w3.org/2000/svg" viewBox="0 0 135.99 135.99"><defs><style>.cls-1{fill:none;}.cls-1,.cls-2{stroke-width:0px;}.cls-2{fill:#fff;}</style></defs><g id="_レイヤー_2-2"><rect class="cls-1" width="135.99" height="135.99" rx="10" ry="10"/><path class="cls-2" d="M45.2,113.73c-1.63,0-2.18.04-2.29.04-.18,0-.2-.02-.2-.22v-1.38c0-.18.02-.2.2-.2.11,0,.66.04,2.29.04h11.45c1.63,0,2.18-.04,2.28-.04.18,0,.2.02.2.2v1.38c0,.2-.02.22-.2.22-.09,0-.64-.04-2.28-.04h-6.9c-.31.68-.7,1.3-1.12,1.89h5.74c1.65,0,2.5-.04,2.61-.04.17,0,.18.02.18.2,0,.11-.04.61-.04,2.07v1.47c0,2.24.04,2.68.04,2.81,0,.17-.02.18-.18.18h-1.58c-.17,0-.18-.02-.18-.18v-.64h-6.97v.68c0,.18-.02.2-.2.2h-1.52c-.18,0-.2-.02-.2-.2,0-.09.04-.61.04-2.79v-1.27c-.79.66-1.63,1.23-2.55,1.72-.22.11-.33.18-.42.18-.13,0-.18-.13-.33-.46-.22-.5-.51-.94-.75-1.17,2.35-1.01,4.31-2.7,5.32-4.66h-2.42ZM55.42,107.92c0-.61-.02-.94-.11-1.52.7.02,1.38.07,1.94.15.17.02.26.09.26.22,0,.11-.05.18-.11.31-.04.15-.07.38-.07.92v.94c0,.88.04,1.3.04,1.41,0,.18-.02.2-.22.2-.09,0-.73-.04-2.51-.04h-7.63c-1.78,0-2.42.04-2.53.04-.18,0-.2-.02-.2-.2,0-.13.04-.53.04-1.41v-.94c0-.66-.02-.99-.11-1.6.66.02,1.34.07,1.94.13.15.02.24.09.24.22,0,.15-.07.22-.11.37-.05.13-.09.37-.09.77v1.01h3.58v-1.36c0-.92-.02-1.38-.11-1.94.64.02,1.39.06,1.98.13.15.02.24.09.24.18,0,.15-.07.24-.11.37-.05.17-.09.39-.09,1.25v1.38h3.76v-.97ZM48.25,117.29v2.57h6.97v-2.57h-6.97Z"/><path class="cls-2" d="M68.35,111.9c0,.86.04,1.87.04,2.49s-.07,1.03-.4,1.3c-.31.24-.7.35-1.56.38-.57.02-.62.02-.7-.46-.05-.35-.2-.73-.35-1.01.5.06.81.06,1.12.06.28,0,.33-.11.33-.51v-2.37l-.9.11v1.1c0,.75.04,1.06.04,1.17,0,.18-.02.2-.22.2h-.95c-.17,0-.18-.02-.18-.2,0-.13.04-.42.04-1.17v-.92c-.26.04-.53.07-.79.09-.11,1.47-.38,2.59-1.1,3.69-.15.24-.22.33-.33.33-.09,0-.2-.07-.4-.22-.31-.22-.71-.4-1.06-.51.77-.92,1.14-1.8,1.32-3.1h-.09c-.29.04-.53.09-.66.15-.11.04-.18.07-.29.07s-.17-.09-.2-.26c-.07-.42-.15-.86-.2-1.38.53,0,.92,0,1.56-.04.02-.4.02-.83.02-1.28v-1.05c0-1.01-.04-1.47-.04-1.6,0-.18.02-.2.2-.2.13,0,.51.04,1.72.04.09-.24.18-.48.26-.72.07-.22.11-.44.13-.73.6.07,1.17.15,1.63.22.17.04.2.09.2.22,0,.09-.06.18-.13.27-.09.11-.17.24-.22.37-.05.15-.11.26-.17.37h.42c1.25,0,1.65-.04,1.78-.04.17,0,.18.02.18.2,0,.11-.04.59-.04,1.6v1.65c.26-.04.51-.07.77-.13-.07.28-.13.55-.17.97q-.04.37-.61.46v.37ZM63.4,121.99c-1.61,0-2.17.04-2.27.04-.17,0-.18-.02-.18-.18v-1.3c0-.18.02-.2.18-.2.09,0,.57.04,1.78.04v-2.11c0-.97-.04-1.41-.04-1.54,0-.18.02-.2.22-.2.11,0,.75.04,2.55.04h7.04c1.78,0,2.42-.04,2.55-.04.18,0,.2.02.2.2,0,.11-.04.57-.04,1.54v2.11c1.28,0,1.78-.04,1.89-.04.17,0,.18.02.18.2v1.3c0,.17-.02.18-.18.18-.11,0-.66-.04-2.27-.04h-11.61ZM66.83,108.1h-2.9v1.76c0,.31,0,.62-.02.9.97-.09,1.96-.2,2.92-.31v-2.35ZM65.09,108.39c.18-.11.22-.11.35.02.37.33.64.7.9,1.08.11.17.09.22-.09.33l-.64.4c-.2.13-.24.13-.35-.05-.24-.42-.51-.79-.81-1.12-.13-.15-.11-.18.09-.31l.55-.35ZM66.48,120.37v-2.29h-1.72v2.29h1.72ZM69.98,120.37v-2.29h-1.74v2.29h1.74ZM74.95,110.52c.17,0,.26-.04.33-.06.07-.04.15-.04.24-.04s.24.05.64.4c.37.31.46.5.46.59s-.07.2-.2.29c-.13.09-.31.29-.53.6-.48.68-1.03,1.28-1.67,1.82.95.46,2.09.73,3.36.86-.18.24-.35.64-.46,1.01q-.17.55-.73.44c-1.38-.26-2.57-.72-3.58-1.38-.88.48-1.91.86-3.06,1.12-.57.13-.59.11-.84-.46-.15-.33-.31-.59-.5-.79,1.25-.2,2.29-.51,3.16-.92-.61-.61-1.1-1.32-1.47-2.13-.37,0-.55.02-.6.02-.18,0-.2-.02-.2-.2v-1.03c0-.18.02-.2.2-.2.11,0,.6.04,2.04.04h3.43ZM71.96,107.39c-.02,1.28-.51,2.16-1.49,2.77-.22.15-.33.22-.44.22s-.2-.11-.4-.37c-.26-.28-.57-.51-.86-.64,1.19-.5,1.67-1.21,1.67-2.7,0-.22-.04-.35-.04-.44,0-.2.02-.22.2-.22.13,0,.39.04,1.39.04h1.47c1.01,0,1.3-.04,1.41-.04.2,0,.22.02.22.22,0,.11-.04.37-.04,1.01v1.01c0,.2.02.27.11.35.07.05.17.09.4.09.29,0,.42-.06.51-.18.11-.15.13-.4.15-1.12.24.17.57.29,1.01.42.35.11.35.13.31.59-.07.83-.22,1.12-.57,1.36-.31.2-.77.24-1.54.24-.64,0-1.17-.04-1.49-.17-.31-.13-.46-.38-.46-.86v-1.58h-1.54ZM71.63,111.88c.33.55.75,1.01,1.23,1.41.61-.44,1.08-.92,1.45-1.41h-2.68ZM71.74,118.08v2.29h1.8v-2.29h-1.8Z"/><path class="cls-2" d="M80.07,110.63c.17-.2.22-.22.38-.13.84.48,1.83,1.16,2.66,1.91.07.07.13.13.13.18s-.04.11-.11.2l-.84,1.12c-.15.2-.2.24-.35.09-.73-.77-1.67-1.47-2.64-2.05-.09-.06-.13-.11-.13-.15,0-.06.04-.09.09-.17l.81-1.01ZM80.2,119.71c.51-1.05,1.12-2.64,1.63-4.38.26.28.7.66,1.06.94q.46.33.31.88c-.37,1.39-1.01,2.9-1.56,4.11-.13.29-.24.55-.26.73,0,.15-.09.26-.22.26-.09,0-.18-.04-.35-.13-.42-.26-.95-.6-1.47-1.01.35-.48.55-.81.84-1.39ZM80.77,105.99c.15-.18.22-.17.39-.09.92.57,1.78,1.27,2.55,2,.07.07.11.11.11.15,0,.06-.04.11-.11.22l-.83,1.12c-.17.22-.2.22-.35.09-.77-.83-1.72-1.65-2.59-2.16-.17-.11-.17-.13,0-.33l.83-.99ZM84.47,116.41c-.2.13-.33.22-.4.22-.13,0-.18-.15-.33-.44-.22-.48-.5-.81-.81-1.08,1.98-1.12,3.85-2.86,5.06-4.81.31-.5.53-.94.64-1.36.59.09,1.28.26,1.78.39.15.05.22.13.22.22s-.02.17-.15.22l-.07.05c1.34,1.94,3.38,3.78,5.85,4.9-.29.39-.55.86-.72,1.41-.09.29-.15.42-.29.42-.09,0-.22-.07-.42-.2-.37-.24-.72-.46-1.05-.7v3.12c0,2.68.04,3.17.04,3.28,0,.18-.02.18-.22.18h-1.5c-.18,0-.2,0-.2-.18v-.7h-4.73v.79c0,.17-.02.18-.2.18h-1.52c-.18,0-.2-.02-.2-.18,0-.13.04-.62.04-3.3v-1.61c0-.59,0-1.03-.02-1.36l-.79.53ZM88.4,106.8c.15.09.18.17.18.26,0,.15-.07.22-.22.28-.17.07-.35.29-.5.51-.84,1.19-1.82,2.18-2.88,2.99-.2.17-.33.24-.42.24-.13,0-.2-.11-.37-.38-.24-.4-.57-.77-.88-1.01,1.25-.81,2.26-1.83,2.93-2.75.22-.31.4-.68.55-1.03.51.26,1.17.59,1.6.9ZM92.67,114.81c-1.3-1.05-2.35-2.15-3.19-3.45-.84,1.34-1.82,2.48-2.9,3.45h6.09ZM87.17,119.66h4.73v-3.12h-4.73v3.12ZM91.66,106.05c.09-.06.15-.09.18-.09.05,0,.09.04.17.11.99,1.36,2.29,2.46,3.71,3.21-.24.31-.51.75-.73,1.28-.13.31-.18.44-.31.44-.11,0-.24-.07-.46-.2-1.41-.94-2.7-2.17-3.72-3.72-.09-.17-.05-.18.13-.31l1.04-.72Z"/><path class="cls-2" d="M100.57,74.29c-10.76,0-18.83-1.23-23.99-3.62l-10.13,9.48c-1.28,1.25-2.94,1.91-4.77,1.91h-.37c-.71-.04-1.46-.19-2.24-.5l-20.83-8.29c-1.53-.66-2.79-1.92-3.54-3.41h-7.24v24.1h82.23v-19.95c-3.09.17-6.14.28-9.13.28Z"/><path class="cls-2" d="M60.2,66.99l8.21-7.71c-.24-4.64-3.59-8.62-8.36-9.28-5.38-.8-10.38,2.96-11.15,8.36-.24,1.51,0,2.93.39,4.31l10.91,4.33Z"/><path class="cls-2" d="M83.92,54.7c-2.91-1.39-6.19-.73-8.42,1.33-.11.1-.25.12-.33.18l-14.46,13.58-18.09-7.21c-2.33-.95-4.94.19-5.91,2.5-.97,2.3.14,4.98,2.48,5.92l20.79,8.3c.43.21.95.31,1.49.33,1.21.07,2.42-.35,3.34-1.21l11.41-10.76c.37.29.79.55,1.21.75,8.61,4.1,25.06,3.6,32.67,3.16v-15.24c-8.67.6-21.69.52-26.19-1.63Z"/><path class="cls-2" d="M68.99,48.18c-.33,0-.7-.09-1.02-.31-.83-.59-1.04-1.7-.44-2.53.02-.04,3.66-5.44,1.67-9.58-1.42-2.82-1.96-5.7-1.77-8.47.15-1.01,1.02-1.74,1.98-1.65,1.01.09,1.74.97,1.67,1.97-.17,2.13.26,4.32,1.37,6.56,2.93,6.04-1.74,12.94-1.96,13.25-.36.5-.92.75-1.49.75Z"/><path class="cls-2" d="M92.27,42.72c-.33,0-.68-.09-1.01-.31-.85-.59-1.03-1.7-.43-2.53,0-.04,3.67-5.44,1.63-9.58-1.38-2.82-1.9-5.7-1.69-8.47.11-1.01.98-1.74,1.93-1.65.99.09,1.75.97,1.68,1.97-.19,2.13.24,4.32,1.35,6.56,2.93,6.04-1.75,12.94-1.94,13.25-.36.5-.92.75-1.52.75Z"/><path class="cls-2" d="M43.51,42.89c-.34,0-.69-.15-.97-.36-.9-.54-1.07-1.68-.5-2.51.02-.05,3.69-5.46,1.67-9.58-1.39-2.84-1.96-5.7-1.73-8.49.07-.99.97-1.7,1.97-1.63.99.1,1.72.99,1.63,1.99-.15,2.08.26,4.31,1.35,6.55,2.98,6.01-1.73,12.91-1.95,13.25-.35.5-.87.78-1.48.78Z"/></g></svg>