<?xml version="1.0" encoding="UTF-8"?><svg xmlns="http://www.w3.org/2000/svg" viewBox="0 0 117.56 171.18"><defs><style>.cls-1{isolation:isolate;}.cls-2{mix-blend-mode:multiply;opacity:.1;}.cls-3{fill:#50504b;stroke-width:0px;}</style></defs><g class="cls-1"><g id="_レイヤー_2"><g id="_レイヤー_2-2"><g class="cls-2"><path class="cls-3" d="M38.99,125.5l-5.63-26.51,16.11-31.67c4.12-5.75,2.79-13.69-4.72-18.4l-22.24-15.81,14.68-19.6,2.22,1.6c.89-.72,1.85-1.36,2.87-1.9l-3.15-2.28.09-.13c2.4-3.2.61-6.12-2.58-8.56-3.19-2.45-5.44-3.35-8.99-.3L2.11,29.97S-.09,33.37,0,35.62c.16,3.98,1.78,5.66,1.78,5.66l16.7,18.68-15.53,29.66c-.57,1.28-.93,3.2-.93,4.33l1.04,71.75c0,2.35,1.35,5.48,7.45,5.48s8.34-2.95,8.34-5.48l1.04-41.25,2.66,8.2c.39,1.21,1.03,2.25,1.83,3.14,0,0,0,.01,0,.03l27.8,32.14c.95,1.06,5.38,2.93,10.2-1.33,4.82-4.26,4.11-7.05,2.6-8.73l-25.97-32.39Z"/><path class="cls-3" d="M116.01,66.57l-47.66-34.5c-.2,1.15-.5,2.26-.91,3.32l45.31,32.8c-4.19,1.78-9.45,10.39-10.09,14.42-.52,3.31,5.31,6.39,9.5,5.41,2.48-.58,3.88-4.31,4.82-10.28,1-6.37.72-9.94-.97-11.17Z"/><path class="cls-3" d="M35.34,29.04c0-8.51,6.87-15.34,15.35-15.34s15.34,6.82,15.34,15.34-6.86,15.34-15.34,15.34-15.35-6.83-15.35-15.34Z"/><path class="cls-3" d="M38.99,125.5l-5.63-26.51,16.11-31.67c4.12-5.75,2.79-13.69-4.72-18.4l-22.24-15.81,14.68-19.6,2.22,1.6c.89-.72,1.85-1.36,2.87-1.9l-3.15-2.28.09-.13c2.4-3.2.61-6.12-2.58-8.56-3.19-2.45-5.44-3.35-8.99-.3L2.11,29.97S-.09,33.37,0,35.62c.16,3.98,1.78,5.66,1.78,5.66l16.7,18.68-15.53,29.66c-.57,1.28-.93,3.2-.93,4.33l1.04,71.75c0,2.35,1.35,5.48,7.45,5.48s8.34-2.95,8.34-5.48l1.04-41.25,2.66,8.2c.39,1.21,1.03,2.25,1.83,3.14,0,0,0,.01,0,.03l27.8,32.14c.95,1.06,5.38,2.93,10.2-1.33,4.82-4.26,4.11-7.05,2.6-8.73l-25.97-32.39Z"/><path class="cls-3" d="M116.01,66.57l-47.66-34.5c-.2,1.15-.5,2.26-.91,3.32l45.31,32.8c-4.19,1.78-9.45,10.39-10.09,14.42-.52,3.31,5.31,6.39,9.5,5.41,2.48-.58,3.88-4.31,4.82-10.28,1-6.37.72-9.94-.97-11.17Z"/><path class="cls-3" d="M35.34,29.04c0-8.51,6.87-15.34,15.35-15.34s15.34,6.82,15.34,15.34-6.86,15.34-15.34,15.34-15.35-6.83-15.35-15.34Z"/></g></g></g></g></svg>