<?xml version="1.0" encoding="UTF-8"?><svg id="_レイヤー_2" xmlns="http://www.w3.org/2000/svg" viewBox="0 0 956.5 124"><defs><style>.cls-1{fill:#fff;stroke:#0e97a9;stroke-miterlimit:10;stroke-width:5px;}.cls-2{fill:#4d4d4d;stroke-width:0px;}</style></defs><g id="_レイヤー_2-2"><polygon class="cls-1" points="954 2.5 2.5 2.5 2.5 97 465.55 97 478.25 119 490.95 97 954 97 954 2.5"/><path class="cls-2" d="M42.09,39.5v-4.2h33.12v4.2h-33.12ZM44.05,62.78c1.55-.48,2.9-1.05,4.06-1.7,1.16-.65,2.14-1.43,2.94-2.32s1.43-1.97,1.88-3.22c.45-1.25.79-2.72,1.02-4.4.23-1.68.34-3.61.34-5.8v-3.48h4.72v3.48c0,3.15-.25,5.91-.74,8.3-.49,2.39-1.25,4.43-2.28,6.14-1.03,1.71-2.35,3.12-3.98,4.24-1.63,1.12-3.59,2-5.88,2.64l-2.08-3.88ZM60.69,50.46c2.8-1.25,4.97-2.84,6.52-4.76,1.55-1.92,2.55-4.24,3-6.96l5,.76c-.45,2.29-1.22,4.4-2.3,6.32-1.08,1.92-2.43,3.61-4.06,5.06-1.63,1.45-3.48,2.62-5.56,3.5l-2.6-3.92Z"/><path class="cls-2" d="M95.21,46.1c-2.05-1.49-4.13-2.88-6.24-4.16-2.11-1.28-4.25-2.47-6.44-3.56l2.64-4.04c2.24,1.07,4.41,2.25,6.52,3.54,2.11,1.29,4.21,2.71,6.32,4.26l-2.8,3.96ZM83.89,61.3c3.97-.37,7.49-1.1,10.56-2.18,3.07-1.08,5.71-2.53,7.94-4.36,2.23-1.83,4.05-4.05,5.48-6.66,1.43-2.61,2.5-5.67,3.22-9.16l4.48,1c-.93,5.31-2.69,9.79-5.28,13.46-2.59,3.67-6.01,6.54-10.28,8.62-4.27,2.08-9.4,3.39-15.4,3.92l-.72-4.64Z"/><path class="cls-2" d="M119.65,49.78c2.03-2.48,3.61-5.08,4.74-7.8,1.13-2.72,1.9-5.79,2.3-9.2l4.68.24c-.43,3.97-1.28,7.49-2.56,10.56-1.28,3.07-3.09,5.96-5.44,8.68l-3.72-2.48ZM126.05,62.02c3.52-.24,6.35-.91,8.48-2.02,2.13-1.11,3.69-2.75,4.68-4.92.99-2.17,1.48-4.98,1.48-8.42v-6.16h4.88v6.16c0,6.24-1.49,10.95-4.46,14.14-2.97,3.19-7.63,5.05-13.98,5.58l-1.08-4.36ZM127.21,42.78v-4.28h29.2v4.28h-29.2Z"/><path class="cls-2" d="M161.81,52.5v-4.76h32.88v4.76h-32.88Z"/><path class="cls-2" d="M207.21,67.38v-34.48h5v34.48h-5ZM233.41,56.22c-4.16-1.47-8.29-2.77-12.4-3.92-4.11-1.15-7.99-2.13-11.64-2.96l1.28-4.52c3.81.83,7.83,1.84,12.04,3.04,4.21,1.2,8.28,2.48,12.2,3.84l-1.48,4.52Z"/><path class="cls-2" d="M244.65,47.9c-.48-.77-1.03-1.61-1.64-2.52-.61-.91-1.23-1.83-1.86-2.76-.63-.93-1.19-1.79-1.7-2.56l2.12-3.96c.85,1.25,1.75,2.59,2.7,4.02.95,1.43,1.75,2.71,2.42,3.86l-2.04,3.92ZM242.81,66.26l-3.32-.56c.32-1.84.61-3.69.86-5.56.25-1.87.43-3.73.54-5.6l3.32.28c-.11,1.92-.28,3.84-.52,5.76-.24,1.92-.53,3.81-.88,5.68ZM240.01,52.94l-.16-3.88,13.4-.8v3.76l-13.24.92ZM245.13,42.3l-3-2.16c.72-1.39,1.39-2.79,2-4.2.61-1.41,1.2-2.84,1.76-4.28l3.68,1.44c-.69,1.57-1.41,3.13-2.14,4.66-.73,1.53-1.5,3.05-2.3,4.54ZM245.37,51.98l-3.08-2.04c1.52-2.29,2.97-4.59,4.36-6.88,1.39-2.29,2.69-4.65,3.92-7.08l3.36,1.64c-1.28,2.56-2.62,5.01-4.02,7.34-1.4,2.33-2.91,4.67-4.54,7.02ZM245.01,68.18v-16.8h4.44v16.8h-4.44ZM252.37,53.58c-.19-.99-.41-2.05-.68-3.2-.27-1.15-.55-2.28-.84-3.4-.29-1.12-.57-2.15-.84-3.08l3.24-.84c.29.99.58,2.04.86,3.16.28,1.12.56,2.26.84,3.42.28,1.16.51,2.25.7,3.26l-3.28.68ZM251.09,64.78c-.05-.96-.13-2.03-.22-3.22-.09-1.19-.2-2.39-.32-3.6-.12-1.21-.25-2.31-.38-3.3l3.28-.48c.13.99.26,2.1.38,3.34.12,1.24.24,2.47.36,3.7.12,1.23.19,2.31.22,3.24l-3.32.32ZM255.05,48.22v-3.8h7.84v-4.88h-8.76v-3.96h8.76v-3.88h4.8v3.88h9.28v3.96h-9.28v4.88h8.32v3.8h-20.96ZM255.25,67.9v-16.48h20.24v16.48h-4.84v-1.96h-10.76v-3.76h10.76v-6.8h-10.76v12.52h-4.64Z"/><path class="cls-2" d="M281.73,67.62l-2.28-3.92c3.63-1.81,6.79-3.65,9.48-5.52,2.69-1.87,4.93-3.87,6.72-6l2.96,1.8c-1.87,2.53-4.21,4.95-7.04,7.24-2.83,2.29-6.11,4.43-9.84,6.4ZM295.77,68.14v-12.64h-15.04v-3.88h15.04v-8.92h-7.84v-3.2h7.84v-2.96h4.96v2.96h7.84v-2.96h-20.64v12.76h-4.68v-16.48h30v16.48h-25.32v-3.56h20.64v-3.04h-7.84v8.92h15.04v3.88h-15.04v12.64h-4.96ZM314.69,67.66c-3.76-1.97-7.04-4.11-9.84-6.4-2.8-2.29-5.16-4.71-7.08-7.24l3.08-1.84c1.79,2.13,4.02,4.15,6.7,6.06,2.68,1.91,5.85,3.77,9.5,5.58l-2.36,3.84Z"/><path class="cls-2" d="M339.61,65.7c-.69,0-1.58-.09-2.66-.28-1.08-.19-2.2-.43-3.36-.74-1.16-.31-2.26-.63-3.3-.98l1.12-4.08c.85.27,1.71.53,2.58.78.87.25,1.67.45,2.42.6.75.15,1.32.22,1.72.22.88,0,1.6-.42,2.16-1.26s.97-2.16,1.24-3.96c.27-1.8.4-4.15.4-7.06,0-1.39-.05-2.5-.16-3.34-.11-.84-.31-1.46-.6-1.86-.29-.4-.75-.67-1.36-.82-.61-.15-1.44-.22-2.48-.22-1.09,0-2.48.05-4.16.14-1.68.09-3.61.23-5.78.42-2.17.19-4.55.4-7.14.64l-.36-4.12c4.27-.43,7.85-.73,10.74-.92,2.89-.19,5.43-.28,7.62-.28,1.52,0,2.78.07,3.78.2,1,.13,1.81.41,2.44.82.63.41,1.1,1.02,1.42,1.82.32.8.53,1.86.64,3.18.11,1.32.16,2.95.16,4.9,0,3.79-.24,6.87-.72,9.26-.48,2.39-1.23,4.14-2.26,5.26-1.03,1.12-2.39,1.68-4.1,1.68ZM320.33,64.7c1.01-2.16,1.91-4.23,2.7-6.22.79-1.99,1.5-3.97,2.14-5.96.64-1.99,1.22-4.03,1.74-6.12.52-2.09,1.01-4.35,1.46-6.76.45-2.41.89-5.03,1.32-7.86l4.56.52c-.45,3.44-.97,6.64-1.56,9.6-.59,2.96-1.25,5.79-1.98,8.5-.73,2.71-1.59,5.37-2.58,8-.99,2.63-2.11,5.3-3.36,8.02l-4.44-1.72ZM352.93,57.78c-.21-1.57-.53-3.27-.94-5.08-.41-1.81-.87-3.65-1.38-5.5-.51-1.85-1.04-3.63-1.6-5.32-.56-1.69-1.15-3.27-1.76-4.74l4.52-1.28c.59,1.49,1.17,3.11,1.76,4.86.59,1.75,1.13,3.54,1.62,5.38.49,1.84.95,3.67,1.36,5.48.41,1.81.74,3.56.98,5.24l-4.56.96Z"/><path class="cls-2" d="M378.01,66.06c-1.44,0-2.99-.06-4.66-.18-1.67-.12-3.29-.29-4.86-.5-1.57-.21-2.97-.45-4.2-.72l.44-4.16c1.55.29,3.11.55,4.7.76,1.59.21,3.11.37,4.58.48,1.47.11,2.8.16,4,.16,3.79,0,6.65-.56,8.6-1.68,1.95-1.12,2.92-2.77,2.92-4.96,0-1.81-.68-3.2-2.04-4.16s-3.32-1.44-5.88-1.44c-1.73,0-3.48.21-5.24.64-1.76.43-3.43,1.01-5,1.76-1.57.75-2.97,1.61-4.2,2.6l-4.28-.88c.35-1.68.65-3.24.92-4.68.27-1.44.49-2.81.68-4.12.19-1.31.35-2.59.48-3.84l4.64.4c-.16,1.47-.35,2.98-.56,4.54-.21,1.56-.49,3.11-.84,4.66l-.64-1.08c1.41-.93,2.89-1.7,4.42-2.3,1.53-.6,3.13-1.05,4.8-1.36,1.67-.31,3.37-.46,5.1-.46,4.08,0,7.17.81,9.26,2.44,2.09,1.63,3.14,4.03,3.14,7.2,0,3.6-1.37,6.31-4.1,8.14-2.73,1.83-6.79,2.74-12.18,2.74ZM389.37,40.54c-2.53-.19-4.93-.4-7.2-.64-2.27-.24-4.51-.56-6.74-.96-2.23-.4-4.57-.88-7.02-1.44l.88-4.12c2.24.48,4.47.91,6.7,1.3,2.23.39,4.49.72,6.78,1,2.29.28,4.61.5,6.96.66l-.36,4.2Z"/><path class="cls-2" d="M401.77,68.14l-1.32-4.08c2.61-.51,4.73-1.17,6.36-2,1.63-.83,2.82-1.82,3.58-2.98.76-1.16,1.14-2.49,1.14-3.98l4.84.28c-.13,3.2-1.4,5.89-3.8,8.08-2.4,2.19-6,3.75-10.8,4.68ZM426.89,67.54h-1c-.32,0-.65-.01-1-.04-1.15-.05-2.07-.12-2.76-.2-.69-.08-1.21-.22-1.54-.42-.33-.2-.56-.49-.68-.88-.12-.39-.18-.89-.18-1.5v-7.96h-10.84v-3.88h18.72v-2.96h-18.72v-3.4h18.72v-2.96h-18.72v-3.4h18.72v-2.96h-18.72v19.56h-4.84v-23.52h28.4v23.52h-7.88v5.76c0,.59.06.95.18,1.08.12.13.53.21,1.22.24h2.84c.51-.03.91-.08,1.22-.16.31-.08.53-.3.68-.66.15-.36.25-.93.32-1.7.07-.77.14-1.85.22-3.24l4.56.48c-.11,1.73-.22,3.16-.34,4.28-.12,1.12-.3,2.01-.54,2.66-.24.65-.61,1.13-1.1,1.44-.49.31-1.13.51-1.92.6-.79.09-1.79.15-3.02.18-.32,0-.65,0-1,.02-.35.01-.68.02-1,.02Z"/><path class="cls-2" d="M457.89,66.66c-3.95,0-7.01-.64-9.18-1.92-2.17-1.28-3.26-3.08-3.26-5.4,0-1.97.82-3.51,2.46-4.62,1.64-1.11,3.9-1.66,6.78-1.66,2.72,0,4.76.51,6.12,1.52,1.36,1.01,2.04,2.49,2.04,4.44,0,.75-.1,1.53-.3,2.36-.2.83-.5,1.68-.9,2.56l-4.36-.48c.37-.91.65-1.68.82-2.32.17-.64.26-1.2.26-1.68,0-1.81-1.32-2.72-3.96-2.72-1.41,0-2.49.22-3.22.66-.73.44-1.1,1.07-1.1,1.9,0,1.12.64,2.01,1.92,2.66,1.28.65,3.05.98,5.32.98,4.03,0,7.06-.65,9.1-1.94,2.04-1.29,3.06-3.22,3.06-5.78,0-2.24-.82-3.88-2.46-4.92-1.64-1.04-4.19-1.56-7.66-1.56-1.39,0-2.67.09-3.86.28-1.19.19-2.31.47-3.38.84-1.07.37-2.15.88-3.24,1.52l-4.72,2.76-1.96-3.6,22.68-13v.64c-2.27.24-4.5.44-6.7.6-2.2.16-4.41.28-6.64.36-2.23.08-4.51.12-6.86.12v-4.04c3.28,0,6.39-.04,9.32-.12,2.93-.08,5.81-.21,8.64-.4,2.83-.19,5.71-.41,8.64-.68l.6,4.04-19.96,11.56-2.32-2.24c.88-.29,1.85-.59,2.92-.88,1.07-.29,2.17-.53,3.3-.72,1.13-.19,2.27-.34,3.4-.46,1.13-.12,2.19-.18,3.18-.18,3.87,0,6.83.85,8.88,2.54,2.05,1.69,3.08,4.11,3.08,7.26,0,3.76-1.42,6.65-4.26,8.68-2.84,2.03-6.91,3.04-12.22,3.04Z"/><path class="cls-2" d="M485.93,61.38c7.81-.32,13.66-2.44,17.54-6.36,3.88-3.92,5.82-9.68,5.82-17.28l2.36,2.48h-28.72v-4.52h31.24v2.04c0,5.95-1.05,10.97-3.14,15.08-2.09,4.11-5.17,7.25-9.24,9.42-4.07,2.17-9.09,3.35-15.06,3.54l-.8-4.4Z"/><path class="cls-2" d="M524.69,52.1c2.16-.32,4.39-.87,6.7-1.66,2.31-.79,4.57-1.76,6.8-2.92,2.23-1.16,4.29-2.45,6.2-3.88,1.91-1.43,3.54-2.89,4.9-4.38l2.84,3.32c-1.49,1.6-3.29,3.15-5.4,4.66-2.11,1.51-4.36,2.89-6.76,4.14-2.4,1.25-4.85,2.31-7.34,3.18-2.49.87-4.9,1.47-7.22,1.82l-.72-4.28ZM537.41,67.18v-18.4h4.8v18.4h-4.8Z"/><path class="cls-2" d="M567.57,53.94c-.4-1.97-.85-3.89-1.34-5.74-.49-1.85-1.02-3.61-1.58-5.26l4.28-1.08c.51,1.49,1.01,3.17,1.52,5.02.51,1.85.99,3.9,1.44,6.14l-4.32.92ZM569.25,61.46c3.41-.35,6.28-.96,8.6-1.84,2.32-.88,4.17-2.09,5.54-3.64,1.37-1.55,2.37-3.53,2.98-5.96.61-2.43.93-5.39.96-8.88l4.56.24c-.03,4.03-.45,7.49-1.26,10.4-.81,2.91-2.08,5.33-3.8,7.26-1.72,1.93-3.97,3.44-6.74,4.52-2.77,1.08-6.12,1.81-10.04,2.18l-.8-4.28ZM576.57,53.26c-.4-2.03-.85-4.01-1.34-5.94-.49-1.93-1.02-3.75-1.58-5.46l4.28-1.08c.59,1.79,1.14,3.66,1.66,5.62.52,1.96.97,3.93,1.34,5.9l-4.36.96Z"/><path class="cls-2" d="M607.21,67.38v-34.48h5v34.48h-5ZM633.41,56.22c-4.16-1.47-8.29-2.77-12.4-3.92-4.11-1.15-7.99-2.13-11.64-2.96l1.28-4.52c3.81.83,7.83,1.84,12.04,3.04,4.21,1.2,8.28,2.48,12.2,3.84l-1.48,4.52Z"/><path class="cls-2" d="M641.33,48.62c2.67-.4,5.45-1.1,8.34-2.1,2.89-1,5.73-2.22,8.52-3.66,2.79-1.44,5.37-3.05,7.76-4.82,2.39-1.77,4.43-3.61,6.14-5.5l3.12,3.2c-1.44,1.63-3.14,3.21-5.1,4.76-1.96,1.55-4.09,3-6.38,4.36-2.29,1.36-4.67,2.59-7.12,3.7-2.45,1.11-4.91,2.05-7.38,2.82-2.47.77-4.86,1.33-7.18,1.68l-.72-4.44ZM657.69,67.38v-22.88h5.08v22.88h-5.08Z"/><path class="cls-2" d="M681.81,52.5v-4.76h32.88v4.76h-32.88Z"/><path class="cls-2" d="M734.65,51.46c-1.68-.56-3.25-1.05-4.7-1.48-1.45-.43-2.89-.82-4.3-1.18-1.41-.36-2.91-.7-4.48-1.02l1.36-4.08c1.52.35,2.99.69,4.42,1.04,1.43.35,2.87.73,4.34,1.16,1.47.43,3.05.92,4.76,1.48l-1.4,4.08ZM723.05,61.62c5.52-.11,10.15-.9,13.88-2.38,3.73-1.48,6.69-3.69,8.86-6.64,2.17-2.95,3.67-6.71,4.5-11.3l4.6.76c-.93,5.33-2.66,9.75-5.18,13.24-2.52,3.49-5.93,6.13-10.22,7.92-4.29,1.79-9.55,2.77-15.76,2.96l-.68-4.56ZM737.81,41.9c-1.71-.56-3.31-1.05-4.82-1.48-1.51-.43-3-.83-4.48-1.2-1.48-.37-3.03-.73-4.66-1.08l1.32-4.08c1.63.32,3.19.67,4.68,1.04,1.49.37,3,.78,4.52,1.22,1.52.44,3.12.94,4.8,1.5l-1.36,4.08ZM748.61,40.14c-.72-1.47-1.42-2.76-2.1-3.88-.68-1.12-1.43-2.21-2.26-3.28l3.16-2.04c.91,1.15,1.72,2.32,2.44,3.52.72,1.2,1.43,2.51,2.12,3.92l-3.36,1.76ZM754.69,39.5c-.64-1.49-1.28-2.82-1.92-3.98-.64-1.16-1.35-2.27-2.12-3.34l3.2-1.84c.88,1.17,1.65,2.38,2.3,3.62.65,1.24,1.29,2.58,1.9,4.02l-3.36,1.52Z"/><path class="cls-2" d="M761.81,52.5v-4.76h32.88v4.76h-32.88Z"/><path class="cls-2" d="M821.49,61.62c1.44-.19,2.76-.6,3.96-1.24,1.2-.64,2.25-1.47,3.14-2.5.89-1.03,1.58-2.21,2.06-3.56.48-1.35.72-2.77.72-4.26,0-2.21-.49-4.13-1.46-5.74-.97-1.61-2.34-2.87-4.1-3.78-1.76-.91-3.83-1.36-6.2-1.36-2.03,0-3.93.34-5.72,1.02-1.79.68-3.35,1.61-4.68,2.78-1.33,1.17-2.37,2.55-3.12,4.12-.75,1.57-1.12,3.27-1.12,5.08,0,1.01.11,1.99.34,2.94.23.95.53,1.79.92,2.52.39.73.83,1.31,1.34,1.74.51.43,1.03.64,1.56.64.8,0,1.57-.49,2.32-1.48.75-.99,1.46-2.49,2.14-4.5.68-2.01,1.32-4.5,1.92-7.46s1.14-6.43,1.62-10.4l4.6.52c-.53,4.03-1.12,7.58-1.76,10.66-.64,3.08-1.31,5.72-2.02,7.92-.71,2.2-1.48,4.01-2.32,5.42-.84,1.41-1.77,2.45-2.8,3.12-1.03.67-2.14,1-3.34,1s-2.43-.31-3.54-.94c-1.11-.63-2.07-1.51-2.88-2.66-.81-1.15-1.44-2.48-1.88-4s-.66-3.2-.66-5.04c0-2.51.47-4.81,1.42-6.9.95-2.09,2.29-3.93,4.02-5.5,1.73-1.57,3.77-2.78,6.1-3.62,2.33-.84,4.87-1.26,7.62-1.26,3.31,0,6.19.61,8.64,1.84,2.45,1.23,4.34,2.98,5.66,5.26,1.32,2.28,1.98,4.97,1.98,8.06,0,2.05-.31,3.97-.94,5.76-.63,1.79-1.51,3.39-2.66,4.8-1.15,1.41-2.51,2.56-4.1,3.44-1.59.88-3.34,1.44-5.26,1.68l-1.52-4.12Z"/><path class="cls-2" d="M840.49,57.42v-3.8h35.52v3.8h-35.52ZM842.09,67.86l-1.6-4.16c2.67-.43,4.98-.96,6.94-1.6s3.56-1.39,4.8-2.26c1.24-.87,2.15-1.78,2.74-2.74h6.52c.59.96,1.51,1.87,2.76,2.72,1.25.85,2.85,1.61,4.8,2.28,1.95.67,4.27,1.2,6.96,1.6l-1.6,4.16c-2.45-.43-4.7-1.05-6.74-1.88-2.04-.83-3.83-1.78-5.38-2.86-1.55-1.08-2.81-2.22-3.8-3.42-.99,1.2-2.28,2.34-3.88,3.42-1.6,1.08-3.45,2.03-5.56,2.86-2.11.83-4.43,1.45-6.96,1.88ZM841.09,42.18v-7.64h14.68v-3.04h4.96v3.04h14.68v7.64h-4.44v-3.84h-25.44v3.84h-4.44ZM855.77,54.62c.03-.13.03-.25.02-.34-.01-.09-.02-.19-.02-.3v-3.12h-11.44v-3.52h11.44v-2.6h-11.84v-3.64h11.84v-3.4h4.96v3.4h11.84v3.64h-11.84v2.6h11.44v3.52h-11.44v3.12c0,.11,0,.21-.02.3-.01.09,0,.21.02.34h-4.96Z"/><path class="cls-2" d="M884.85,67.74l-3.32-3.6c1.68-1.28,3.13-2.61,4.36-3.98,1.23-1.37,2.27-2.91,3.12-4.62.85-1.71,1.55-3.67,2.08-5.88.53-2.21.92-4.8,1.16-7.76.24-2.96.36-6.39.36-10.28h4.88c0,4.13-.13,7.8-.4,11-.27,3.2-.7,6.04-1.3,8.52-.6,2.48-1.39,4.7-2.38,6.66-.99,1.96-2.19,3.75-3.62,5.36-1.43,1.61-3.07,3.14-4.94,4.58ZM906.29,67.02c-.77,0-1.86-.04-3.26-.12-1.4-.08-3.07-.21-5.02-.4l-.12-4.44c1.68.16,3.13.29,4.36.38,1.23.09,2.19.14,2.88.14.48,0,.93-.13,1.34-.38.41-.25.77-.77,1.08-1.56.31-.79.56-1.93.76-3.42.2-1.49.35-3.47.46-5.92.11-2.45.17-5.53.2-9.24h-27.16v-4.16h32.08c0,4.48-.05,8.32-.16,11.52-.11,3.2-.27,5.87-.48,8-.21,2.13-.52,3.85-.92,5.14-.4,1.29-.88,2.26-1.44,2.9-.56.64-1.21,1.06-1.96,1.26-.75.2-1.63.3-2.64.3Z"/></g></svg>