<?xml version="1.0" encoding="UTF-8"?><svg id="_レイヤー_2" xmlns="http://www.w3.org/2000/svg" viewBox="0 0 447.02 447.02"><defs><style>.cls-1{fill:#666;}.cls-1,.cls-2{stroke-width:0px;}.cls-2{fill:#1a9aa5;}</style></defs><g id="_レイヤー_2-2"><path class="cls-2" d="M147.66,207.07c-1.45-5.73-2.5-11.38-3.17-16.95-.67-5.56-1-11.46-1-17.7s.33-12.05,1-17.61c.67-5.56,1.7-11.19,3.09-16.86l9.85,1.25c-1.34,5.4-2.32,10.81-2.96,16.24-.64,5.43-.96,11.09-.96,16.99s.32,11.58.96,17.03c.64,5.45,1.63,10.82,2.96,16.11l-9.77,1.5ZM181.88,205.07c-5.96,0-10.63-1.35-14.02-4.05-3.4-2.7-5.09-6.47-5.09-11.31s1.68-8.77,5.05-11.44c3.37-2.67,8.06-4.01,14.07-4.01,2.73,0,5.3.32,7.72.96,2.42.64,4.93,1.75,7.51,3.34,2.59,1.59,5.52,3.8,8.81,6.64,3.28,2.84,7.1,6.4,11.44,10.69l-6.01,6.59c-4.01-3.95-7.44-7.22-10.31-9.81-2.87-2.59-5.4-4.6-7.6-6.05-2.2-1.45-4.23-2.46-6.09-3.05-1.87-.58-3.83-.88-5.89-.88-6.51,0-9.77,2.34-9.77,7.01s3.26,7.01,9.77,7.01c3.51,0,6-.75,7.47-2.25,1.47-1.5,2.21-3.95,2.21-7.35v-51.09h9.77v51.51c0,5.79-1.6,10.16-4.8,13.11-3.2,2.95-7.94,4.42-14.23,4.42ZM184.3,158.15c-3.23,0-6.65-.08-10.27-.25-3.62-.17-6.73-.36-9.35-.58l.33-8.43c2.62.22,5.69.42,9.22.58,3.53.17,6.91.25,10.14.25,4.79,0,9.68-.19,14.69-.58,5.01-.39,10.63-1.03,16.86-1.92l.17,8.43c-6.23.89-11.85,1.53-16.86,1.92-5.01.39-9.99.58-14.94.58Z"/><path class="cls-2" d="M249.41,204.9c-3.23,0-6.19-.93-8.89-2.8-2.7-1.86-5.04-4.48-7.01-7.85-1.98-3.37-3.51-7.33-4.59-11.9-1.09-4.56-1.63-9.54-1.63-14.94,0-2.23.08-4.73.25-7.51.17-2.78.4-5.56.71-8.35.31-2.78.68-5.31,1.13-7.6l10.1.75c-.33,1.89-.65,4.1-.96,6.64-.31,2.53-.56,5.13-.75,7.81-.2,2.67-.29,5.12-.29,7.35,0,3.79.33,7.38,1,10.77.67,3.4,1.57,6.39,2.71,8.97,1.14,2.59,2.42,4.62,3.84,6.09,1.42,1.48,2.96,2.21,4.63,2.21s3.37-.85,4.93-2.55c1.56-1.7,3.01-4.23,4.34-7.6,1.34-3.37,2.56-7.53,3.67-12.48l9.35,3.76c-2.39,9.68-5.47,16.97-9.22,21.87-3.76,4.9-8.2,7.35-13.31,7.35ZM290.07,194.8c-.5-5.95-1.43-11.83-2.8-17.61-1.36-5.79-3.09-11.31-5.18-16.57-2.09-5.26-4.49-10.03-7.22-14.32l9.02-3.42c2.95,4.34,5.51,9.18,7.68,14.53,2.17,5.34,3.98,11.01,5.43,16.99,1.45,5.98,2.48,12.2,3.09,18.66l-10.02,1.75Z"/><path class="cls-2" d="M150.47,244.8c0-3.31.84-6.34,2.53-9.07,1.69-2.73,4.24-4.91,7.64-6.54,3.41-1.63,7.56-2.44,12.48-2.44s9.07.81,12.48,2.44c3.41,1.63,5.95,3.81,7.64,6.54,1.69,2.73,2.53,5.75,2.53,9.07s-.83,6.34-2.49,8.88c-1.66,2.55-3.87,4.53-6.63,5.94,3.38,1.47,6.01,3.62,7.92,6.44,1.9,2.82,2.85,6.17,2.85,10.04,0,4.17-1.06,7.81-3.18,10.91-2.12,3.1-5.02,5.48-8.7,7.14-3.68,1.66-7.83,2.49-12.43,2.49s-8.73-.83-12.38-2.49c-3.65-1.66-6.54-4.04-8.65-7.14-2.12-3.1-3.18-6.74-3.18-10.91,0-3.87.95-7.23,2.85-10.08,1.9-2.85,4.54-4.99,7.92-6.4-6.14-3.19-9.21-8.13-9.21-14.82ZM164.61,267.91c-2.18,1.78-3.27,4.33-3.27,7.64,0,3.07,1.06,5.57,3.18,7.5,2.12,1.93,4.99,2.9,8.61,2.9s6.48-.98,8.56-2.95c2.09-1.96,3.13-4.45,3.13-7.46,0-3.25-1.07-5.78-3.22-7.6-2.15-1.81-4.97-2.72-8.47-2.72s-6.34.89-8.52,2.67ZM180.53,239.64c-1.81-1.66-4.28-2.49-7.41-2.49s-5.51.83-7.32,2.49c-1.81,1.66-2.72,4.02-2.72,7.09,0,2.76.94,4.97,2.81,6.63,1.87,1.66,4.28,2.49,7.23,2.49s5.37-.84,7.27-2.53c1.9-1.69,2.85-3.91,2.85-6.67,0-3.01-.91-5.34-2.72-7Z"/><path class="cls-2" d="M214.32,231.49c4.02-3.34,9.31-5.02,15.88-5.02,4.48,0,8.32.78,11.51,2.35,3.19,1.56,5.6,3.68,7.23,6.35,1.63,2.67,2.44,5.69,2.44,9.07,0,3.87-1,7.14-2.99,9.81-2,2.67-4.37,4.47-7.14,5.39v.37c3.56,1.1,6.34,3.07,8.33,5.89,1.99,2.82,2.99,6.44,2.99,10.86,0,3.68-.84,6.97-2.53,9.85-1.69,2.89-4.17,5.14-7.46,6.77-3.28,1.63-7.23,2.44-11.83,2.44-6.94,0-12.58-1.75-16.94-5.25-4.36-3.5-6.66-8.65-6.91-15.47h12.52c.12,3.01,1.15,5.42,3.08,7.23,1.93,1.81,4.59,2.72,7.96,2.72,3.13,0,5.54-.87,7.23-2.62,1.69-1.75,2.53-4,2.53-6.77,0-3.68-1.17-6.32-3.5-7.92-2.33-1.6-5.95-2.39-10.86-2.39h-2.67v-10.59h2.67c8.72,0,13.07-2.91,13.07-8.75,0-2.64-.78-4.7-2.35-6.17-1.57-1.47-3.82-2.21-6.77-2.21s-5.11.78-6.68,2.35c-1.57,1.57-2.47,3.54-2.72,5.94h-12.61c.31-6.14,2.47-10.88,6.49-14.22Z"/><path class="cls-2" d="M262.73,255.69c1.75-1.69,4-2.54,6.76-2.54s5,.85,6.76,2.54c1.75,1.69,2.63,4.03,2.63,7.02s-.88,5.39-2.63,7.08c-1.75,1.69-4,2.54-6.76,2.54s-5.01-.85-6.76-2.54c-1.75-1.69-2.63-4.05-2.63-7.08s.87-5.33,2.63-7.02ZM266.18,262.71c0,3.11,1.08,4.66,3.24,4.66,1.06,0,1.89-.38,2.48-1.15.59-.77.89-1.94.89-3.51,0-3.07-1.12-4.6-3.36-4.6s-3.24,1.53-3.24,4.6ZM297.98,253.86l-23.19,41.3h-8.02l23.13-41.3h8.08ZM288.63,279.2c1.75-1.67,4-2.51,6.76-2.51s4.99.84,6.7,2.51c1.71,1.67,2.57,4.02,2.57,7.05s-.86,5.39-2.57,7.08c-1.71,1.69-3.94,2.54-6.7,2.54s-5.05-.85-6.79-2.54c-1.73-1.69-2.6-4.05-2.6-7.08s.87-5.38,2.63-7.05ZM291.96,286.25c0,3.11,1.12,4.66,3.36,4.66s3.3-1.55,3.3-4.66-1.1-4.6-3.3-4.6-3.36,1.53-3.36,4.6Z"/><path class="cls-1" d="M222.84,62.62c.22,0,.45,0,.67,0V0C138.09,0,63.14,45.93,24.36,122.04l55.23,28.14c26.67-51.99,80.8-87.56,143.24-87.56Z"/><path class="cls-2" d="M223.51,0v62.63c88.55.36,160.22,72.25,160.22,160.88s-72.03,160.89-160.89,160.89S61.95,312.36,61.95,223.51c0-26.41,6.37-51.34,17.65-73.33l-55.23-28.14C7.1,155.91,0,185.49,0,223.51c0,123.44,100.07,223.51,223.51,223.51s223.51-100.07,223.51-223.51S346.95,0,223.51,0Z"/></g></svg>