<?xml version="1.0" encoding="UTF-8"?><svg id="_レイヤー_2" xmlns="http://www.w3.org/2000/svg" viewBox="0 0 304.93 161.74"><defs><style>.cls-1{fill:#0e97a9;stroke-width:0px;}</style></defs><g id="_レイヤー_2-2"><circle class="cls-1" cx="152.47" cy="152.47" r="9.28" transform="translate(-63.15 152.47) rotate(-45)"/><circle class="cls-1" cx="152.47" cy="115.35" r="7.52" transform="translate(-36.91 141.59) rotate(-45)"/><circle class="cls-1" cx="152.47" cy="78.23" r="6.09"/><circle class="cls-1" cx="152.47" cy="41.11" r="4.93" transform="translate(15.59 119.85) rotate(-45)"/><circle class="cls-1" cx="152.47" cy="3.99" r="3.99"/><circle class="cls-1" cx="171.02" cy="133.91" r="8.35"/><circle class="cls-1" cx="171.02" cy="96.79" r="6.76"/><circle class="cls-1" cx="171.02" cy="59.67" r="5.48" transform="translate(7.9 138.41) rotate(-45)"/><path class="cls-1" d="M171.02,18.11c2.45,0,4.44,1.99,4.44,4.44s-1.99,4.44-4.44,4.44-4.44-1.99-4.44-4.44,1.99-4.44,4.44-4.44Z"/><circle class="cls-1" cx="189.58" cy="115.35" r="7.52" transform="translate(-26.04 167.84) rotate(-45)"/><circle class="cls-1" cx="189.58" cy="78.23" r="6.09" transform="translate(81.91 252.78) rotate(-80.75)"/><circle class="cls-1" cx="189.58" cy="41.11" r="4.93" transform="translate(26.46 146.1) rotate(-45)"/><circle class="cls-1" cx="189.58" cy="3.99" r="3.99"/><circle class="cls-1" cx="208.14" cy="96.79" r="6.76"/><circle class="cls-1" cx="208.14" cy="59.67" r="5.48" transform="translate(18.77 164.66) rotate(-45)"/><path class="cls-1" d="M208.14,18.11c2.45,0,4.44,1.99,4.44,4.44s-1.99,4.44-4.44,4.44-4.44-1.99-4.44-4.44,1.99-4.44,4.44-4.44Z"/><circle class="cls-1" cx="226.7" cy="78.23" r="6.09" transform="translate(113.06 289.42) rotate(-80.75)"/><circle class="cls-1" cx="226.7" cy="41.11" r="4.93" transform="translate(37.33 172.34) rotate(-45)"/><circle class="cls-1" cx="226.7" cy="3.99" r="3.99"/><circle class="cls-1" cx="245.26" cy="59.67" r="5.48"/><circle class="cls-1" cx="245.26" cy="22.55" r="4.44"/><circle class="cls-1" cx="263.82" cy="41.11" r="4.93" transform="translate(48.2 198.59) rotate(-45)"/><circle class="cls-1" cx="263.82" cy="3.99" r="3.99"/><circle class="cls-1" cx="282.38" cy="22.55" r="4.44"/><circle class="cls-1" cx="300.94" cy="3.99" r="3.99"/><circle class="cls-1" cx="133.91" cy="133.91" r="8.35" transform="translate(-41.3 62.04) rotate(-22.7)"/><circle class="cls-1" cx="133.91" cy="96.79" r="6.76"/><circle class="cls-1" cx="133.91" cy="59.67" r="5.48" transform="translate(-2.97 112.16) rotate(-45)"/><path class="cls-1" d="M133.91,18.11c2.45,0,4.44,1.99,4.44,4.44s-1.99,4.44-4.44,4.44-4.44-1.99-4.44-4.44,1.99-4.44,4.44-4.44Z"/><circle class="cls-1" cx="115.35" cy="115.35" r="7.52" transform="translate(-47.78 115.35) rotate(-45)"/><circle class="cls-1" cx="115.35" cy="78.23" r="6.09"/><circle class="cls-1" cx="115.35" cy="41.11" r="4.93" transform="translate(4.71 93.6) rotate(-45)"/><circle class="cls-1" cx="115.35" cy="3.99" r="3.99"/><circle class="cls-1" cx="96.79" cy="96.79" r="6.76" transform="translate(-14.74 176.15) rotate(-80.43)"/><circle class="cls-1" cx="96.79" cy="59.67" r="5.48" transform="translate(-13.85 85.92) rotate(-45)"/><path class="cls-1" d="M96.79,18.11c2.45,0,4.44,1.99,4.44,4.44s-1.99,4.44-4.44,4.44-4.44-1.99-4.44-4.44,1.99-4.44,4.44-4.44Z"/><circle class="cls-1" cx="78.23" cy="78.23" r="6.09"/><circle class="cls-1" cx="78.23" cy="41.11" r="4.93" transform="translate(-6.16 67.36) rotate(-45)"/><circle class="cls-1" cx="78.23" cy="3.99" r="3.99"/><circle class="cls-1" cx="59.67" cy="59.67" r="5.48" transform="translate(-24.72 59.67) rotate(-45)"/><path class="cls-1" d="M59.67,18.11c2.45,0,4.44,1.99,4.44,4.44s-1.99,4.44-4.44,4.44-4.44-1.99-4.44-4.44,1.99-4.44,4.44-4.44Z"/><circle class="cls-1" cx="41.11" cy="41.11" r="4.93"/><circle class="cls-1" cx="41.11" cy="3.99" r="3.99"/><path class="cls-1" d="M22.55,18.11c2.45,0,4.44,1.99,4.44,4.44s-1.99,4.44-4.44,4.44-4.44-1.99-4.44-4.44,1.99-4.44,4.44-4.44Z"/><circle class="cls-1" cx="3.99" cy="3.99" r="3.99"/></g></svg>