<?xml version="1.0" encoding="UTF-8"?><svg xmlns="http://www.w3.org/2000/svg" viewBox="0 0 1563 159"><defs><style>.cls-1,.cls-2,.cls-3,.cls-4{stroke-width:0px;}.cls-1,.cls-4{fill:#333;}.cls-2{fill:#ff0;}.cls-5{isolation:isolate;}.cls-3{fill:#fff;}.cls-4,.cls-6{mix-blend-mode:multiply;}</style></defs><g class="cls-5"><g id="_レイヤー_2"><g id="_レイヤー_1-2"><rect class="cls-4" width="358" height="159" rx="30" ry="30"/><rect class="cls-4" x="445" width="358" height="159" rx="30" ry="30"/><path class="cls-3" d="M501.99,91.43l-1.76-7.48c4.38-2.43,8.05-5.27,11-8.51,2.96-3.24,5.27-6.95,6.93-11.13l6.93,1.88c-1.38,3.32-3.02,6.44-4.92,9.33-1.91,2.9-4.09,5.54-6.57,7.93v-1.03c-.97,1.09-2.1,2.19-3.37,3.28s-2.6,2.13-3.98,3.1c-1.38.97-2.8,1.84-4.26,2.61ZM501.99,66.2v-6.45h7.96v-9h7.11v9h8.03v6.45h-23.1ZM509.78,105.6v-26.75h7.17v26.75h-7.17ZM525.1,90.22c-1.46-1.66-3.21-3.56-5.26-5.68-2.05-2.13-4-4.12-5.87-5.99l4.38-4.56c1.26,1.22,2.6,2.52,4.04,3.92,1.44,1.4,2.81,2.78,4.1,4.13,1.3,1.36,2.43,2.61,3.4,3.74l-4.8,4.44ZM524.06,103.77v-6.51h14.96v-28.03h-12.77v-6.26h12.77v-11.79h7.3v11.79h10.46v6.26h-10.46v28.03h11.37v6.51h-33.62Z"/><path class="cls-3" d="M566.57,73.86l-2.92-6.02c3.16-1.74,6.12-3.5,8.88-5.26,2.76-1.76,5.4-3.63,7.93-5.59,2.53-1.97,5.06-4.08,7.57-6.35h9c2.51,2.27,5.04,4.39,7.57,6.35,2.53,1.97,5.18,3.83,7.93,5.59,2.76,1.76,5.72,3.52,8.88,5.26l-2.92,6.02c-4.9-2.55-9.51-5.36-13.8-8.42-4.3-3.06-8.35-6.43-12.16-10.12-3.81,3.69-7.86,7.06-12.16,10.12-4.3,3.06-8.9,5.87-13.8,8.42ZM566.51,84.99v-6.08h52.04v6.08h-52.04ZM568.46,104.2l-.3-6.08c6.89-.24,14-.67,21.34-1.28,7.34-.61,14.69-1.4,22.07-2.37l.67,5.9c-7.58,1.01-15.05,1.83-22.4,2.46-7.36.63-14.48,1.08-21.37,1.37ZM575.27,73.37v-5.84h34.53v5.84h-34.53ZM582.14,102.19l-6.51-2.49c1.62-2.92,3.19-6.02,4.71-9.3s2.97-6.69,4.35-10.21l6.87,1.95c-1.34,3.61-2.81,7.1-4.41,10.49-1.6,3.38-3.27,6.58-5.02,9.58ZM612.72,106.21c-.85-1.78-1.81-3.69-2.89-5.71-1.07-2.03-2.15-4.07-3.22-6.14-1.07-2.07-2.12-3.97-3.13-5.72l6.2-2.55c1.01,1.74,2.08,3.65,3.19,5.72,1.11,2.07,2.21,4.12,3.28,6.17,1.07,2.05,2.04,3.94,2.89,5.68l-6.32,2.55Z"/><path class="cls-3" d="M627.64,66.14v-5.53h24.2v-3.22h-19.94v-5.53h47.79v5.53h-19.94v3.22h24.2v5.53h-56.3ZM630.61,105.84l-2.49-5.53c4.01-.97,7.77-2.09,11.28-3.34,3.51-1.26,6.41-2.49,8.72-3.71l2.68,4.99c-1.46.89-3.24,1.81-5.35,2.77-2.11.95-4.43,1.83-6.96,2.64-2.53.81-5.16,1.54-7.87,2.19ZM633.05,95.32v-26.87h45.48v26.87h-38.06v-4.92h30.64v-2.68h-30.64v-4.38h30.64v-2.68h-30.64v-4.38h30.64v-2.61h-30.64v21.64h-7.42ZM680.35,106.33c-2.55-1.3-5.51-2.59-8.88-3.89-3.36-1.3-6.93-2.53-10.7-3.71l2.31-5.05c3.93,1.09,7.66,2.26,11.19,3.5s6.63,2.48,9.3,3.74l-3.22,5.41Z"/><path class="cls-3" d="M691.9,105.6v-40.61h11v-4.38h-11.79v-5.71h11.79v-4.13h7.11v4.13h11.92v5.71h-11.92v4.38h10.94v30.95c0,2.19-.05,3.91-.15,5.17-.1,1.26-.29,2.18-.58,2.77-.28.59-.74.96-1.37,1.12-.63.16-1.45.24-2.46.24-.49,0-1.21-.02-2.16-.06-.95-.04-2.02-.1-3.19-.18l-.3-5.9c.65.08,1.21.14,1.67.18.47.04.84.06,1.12.06.36,0,.62-.05.76-.15.14-.1.23-.35.27-.76.04-.4.06-1.09.06-2.07v-25.47h-16.35v34.72h-6.38ZM703.39,103.9v-9.61h-5.53v-5.35h5.53v-4.26h-5.53v-5.41h17.27v5.41h-5.53v4.26h5.53v5.23h-5.72v9.73h-6.02ZM701.68,81.64c-.36-1.5-.78-3.06-1.25-4.68-.47-1.62-.96-3.16-1.49-4.62l4.56-1.16c.53,1.54,1.02,3.08,1.49,4.62.47,1.54.88,3.12,1.25,4.74l-4.56,1.09ZM710.38,83.41l-4.26-1.7c.61-1.54,1.21-3.21,1.79-5.02.59-1.8,1.08-3.64,1.49-5.5l4.5,1.22c-.45,1.99-.96,3.9-1.55,5.75-.59,1.84-1.25,3.6-1.98,5.26ZM723.88,105.48l-4.38-5.65c2.23-2.63,4.14-5.74,5.75-9.3,1.6-3.57,2.82-7.54,3.65-11.92.83-4.38,1.25-9.14,1.25-14.29v-12.95h7.17v12.95c0,5.31.42,10.17,1.25,14.59.83,4.42,2.04,8.36,3.62,11.83,1.58,3.47,3.51,6.5,5.78,9.09l-4.38,5.65c-2.07-2.15-3.95-5.04-5.65-8.66-1.7-3.63-3.1-7.71-4.2-12.25-1.14,4.42-2.55,8.45-4.26,12.1-1.7,3.65-3.57,6.59-5.59,8.82ZM721.75,70.15v-6.45h25.54v6.45h-25.54ZM742.42,62.37c-1.18-1.74-2.36-3.39-3.56-4.96-1.2-1.56-2.44-3.15-3.74-4.77l4.8-3.22c1.42,1.62,2.7,3.19,3.83,4.71,1.13,1.52,2.31,3.15,3.53,4.89l-4.86,3.34Z"/><path class="cls-3" d="M64.06,76.05v-6.02h53.99v6.02h-53.99ZM65.34,67.78v-12.04h21.95v-5.9h7.54v5.9h21.95v12.04h-6.87v-6.26h-37.7v6.26h-6.87ZM67.04,104.93l-1.7-6.02c5.72-.89,10.67-2.03,14.87-3.4,4.2-1.38,7.75-3.09,10.67-5.14,2.92-2.05,5.33-4.51,7.24-7.39,1.9-2.88,3.42-6.24,4.56-10.09l6.81,1.58c-1.34,4.5-3.1,8.42-5.29,11.76-2.19,3.34-4.95,6.23-8.27,8.66-3.32,2.43-7.36,4.45-12.1,6.05-4.74,1.6-10.34,2.93-16.78,3.98ZM73.43,91.25l-5.59-3.4c2.47-2.55,4.66-5.12,6.57-7.69,1.9-2.57,3.62-5.3,5.14-8.18,1.52-2.88,2.95-6.02,4.29-9.42l7.3.73c-1.78,5.31-4.13,10.27-7.05,14.87-2.92,4.6-6.47,8.97-10.64,13.1ZM113.01,105.54c-3.65-2.23-7.1-4.2-10.37-5.9-3.26-1.7-6.44-3.23-9.52-4.59-3.08-1.36-6.21-2.59-9.39-3.71-3.18-1.11-6.5-2.12-9.94-3.01l1.16-5.84c4.82,1.18,9.5,2.59,14.04,4.26,4.54,1.66,9.12,3.58,13.74,5.75,4.62,2.17,9.42,4.71,14.41,7.63l-4.13,5.41Z"/><path class="cls-3" d="M130.71,105.6l-6.26-2.49c2.07-3.81,3.89-7.89,5.47-12.25,1.58-4.36,2.8-8.76,3.65-13.22l6.69,1.34c-.89,4.54-2.15,9.11-3.77,13.71-1.62,4.6-3.55,8.91-5.78,12.92ZM126.88,70.21v-14.47h21.95v-5.9h7.54v5.9h21.95v14.47h-6.87v-8.51h-37.7v8.51h-6.87ZM175.52,104.62c-5.23,0-9.83-.17-13.8-.52-3.97-.34-7.45-.92-10.43-1.73-2.98-.81-5.59-1.91-7.84-3.28-2.25-1.38-4.23-3.07-5.93-5.08-1.7-2.01-3.3-4.39-4.8-7.14l5.29-2.43c1.18,2.15,2.44,4.01,3.8,5.59,1.36,1.58,2.98,2.91,4.86,3.98,1.89,1.07,4.14,1.94,6.78,2.58,2.63.65,5.79,1.12,9.45,1.4,3.67.28,7.95.43,12.86.43h4.26l-.43,6.2h-4.07ZM149.8,100v-27.54h-14.84v-5.9h35.26v5.9h-13.01v8.15h17.45v5.9h-17.45v13.5h-7.42Z"/><path class="cls-3" d="M186.73,97.63l-.79-6.2c3.49-.69,7.13-1.55,10.94-2.58,3.81-1.03,7.6-2.16,11.37-3.37l.91,6.02c-3.81,1.34-7.61,2.52-11.4,3.56-3.79,1.03-7.47,1.89-11.04,2.58ZM189.59,93.62v-38.43h6.63v38.43h-6.63ZM202.91,105.6v-54.84h6.99v54.84h-6.99ZM212.69,105.48l-3.89-6.02c4.94-2.55,9.29-5.79,13.04-9.7,3.75-3.91,6.84-8.42,9.27-13.53,2.43-5.11,4.09-10.76,4.99-16.96l6.93.79c-1.05,7.09-2.93,13.52-5.62,19.27-2.7,5.76-6.11,10.81-10.24,15.17-4.13,4.36-8.96,8.02-14.47,10.97ZM211.96,60.06v-6.26h31.07v6.26h-31.07ZM241.45,105.42c-5.03-2.88-9.39-6.31-13.1-10.31-3.71-3.99-6.78-8.62-9.21-13.89-2.43-5.27-4.26-11.31-5.47-18.12l6.75-1.52c1.13,6.24,2.78,11.75,4.92,16.51,2.15,4.76,4.84,8.89,8.09,12.37,3.24,3.49,7.05,6.45,11.43,8.88l-3.4,6.08Z"/><path class="cls-3" d="M252.92,88.7l-2.49-6.99c2.76-1.5,5.24-3.18,7.45-5.05,2.21-1.86,4.18-3.92,5.93-6.17,1.74-2.25,3.2-4.63,4.38-7.14l6.99.97c-1.58,3.4-3.52,6.64-5.81,9.7-2.29,3.06-4.81,5.84-7.57,8.33-2.76,2.49-5.72,4.61-8.88,6.35ZM251.52,65.04v-5.9h54.84v5.9h-54.84ZM251.52,103.9v-6.32h41.16v-14.29h-5.29v14.29h-5.78v-14.29h-5.35v14.29h-5.78v-14.29h-5.29v14.29h-6.87v-19.88h41.22v19.88h6.81v6.32h-54.84ZM267.02,62c-.81-1.7-1.69-3.37-2.64-5.02-.95-1.64-1.92-3.23-2.89-4.77l6.75-2.19c.97,1.5,1.94,3.08,2.89,4.74.95,1.66,1.83,3.37,2.64,5.11l-6.75,2.13ZM304.96,88.7c-3.12-1.74-6.06-3.86-8.82-6.35-2.76-2.49-5.27-5.27-7.54-8.33-2.27-3.06-4.24-6.29-5.9-9.7l6.99-.97c1.22,2.51,2.68,4.89,4.41,7.14,1.72,2.25,3.7,4.31,5.93,6.17,2.23,1.87,4.7,3.55,7.42,5.05l-2.49,6.99ZM291.04,61.34l-6.93-1.58c1.05-1.58,2.06-3.2,3.01-4.86.95-1.66,1.79-3.28,2.52-4.86l6.93,1.4c-.77,1.58-1.63,3.22-2.58,4.92-.95,1.7-1.94,3.37-2.95,4.99Z"/><g class="cls-6"><rect class="cls-2" x="883" y="4" width="676" height="151" rx="26" ry="26"/><path class="cls-1" d="M1533,8c12.13,0,22,9.87,22,22v99c0,12.13-9.87,22-22,22h-624c-12.13,0-22-9.87-22-22V30c0-12.13,9.87-22,22-22h624M1533,0h-624c-16.57,0-30,13.43-30,30v99c0,16.57,13.43,30,30,30h624c16.57,0,30-13.43,30-30V30c0-16.57-13.43-30-30-30h0Z"/></g><path class="cls-1" d="M951.1,98c2.68-.53,4.94-1.36,6.81-2.49,1.86-1.13,3.29-2.55,4.29-4.26.99-1.7,1.49-3.61,1.49-5.71,0-2.27-.58-4.21-1.73-5.84-1.16-1.62-2.84-2.85-5.05-3.68-2.21-.83-4.85-1.25-7.93-1.25s-5.99.39-8.6,1.16c-2.61.77-4.88,1.88-6.81,3.34-1.93,1.46-3.43,3.16-4.5,5.11-1.07,1.95-1.61,4.05-1.61,6.32,0,1.58.27,2.76.82,3.53.55.77,1.43,1.16,2.64,1.16,1.54,0,3.28-.54,5.23-1.61,1.95-1.07,4.05-2.6,6.32-4.59,2.27-1.99,4.61-4.36,7.02-7.11,2.41-2.76,4.81-5.84,7.2-9.24l5.17,3.71c-2.59,3.77-5.31,7.21-8.15,10.34-2.84,3.12-5.68,5.81-8.51,8.06-2.84,2.25-5.56,3.97-8.18,5.17-2.61,1.2-5.02,1.79-7.2,1.79-1.86-.04-3.51-.52-4.92-1.43-1.42-.91-2.5-2.2-3.25-3.86-.75-1.66-1.12-3.63-1.12-5.9,0-3.04.72-5.9,2.16-8.57,1.44-2.68,3.44-5.01,6.02-6.99,2.57-1.99,5.58-3.54,9.03-4.65,3.44-1.11,7.19-1.67,11.25-1.67,4.42,0,8.27.68,11.55,2.04,3.28,1.36,5.81,3.28,7.57,5.78,1.76,2.49,2.64,5.46,2.64,8.91,0,3.08-.71,5.89-2.13,8.42-1.42,2.53-3.4,4.64-5.93,6.32-2.53,1.68-5.52,2.81-8.97,3.37l-2.61-5.65ZM939.67,64.19c-1.99,0-4.06-.03-6.23-.09-2.17-.06-4.27-.13-6.29-.21-2.03-.08-3.87-.18-5.53-.3l.3-5.78c1.54.12,3.32.23,5.35.33,2.03.1,4.11.17,6.26.21,2.15.04,4.22.06,6.2.06,4.5,0,9.05-.14,13.65-.43,4.6-.28,9.8-.75,15.6-1.4l.12,5.78c-5.76.65-10.96,1.12-15.63,1.4-4.66.28-9.26.42-13.8.42ZM937.24,95.44c-.45-3.44-.8-6.81-1.06-10.09-.26-3.28-.48-6.83-.64-10.64-.16-3.28-.27-6.88-.33-10.79-.06-3.91-.09-8.28-.09-13.1h6.87c0,4.46.03,8.52.09,12.19.06,3.67.15,7.04.27,10.12.2,3.97.44,7.64.7,11,.26,3.37.62,6.75,1.06,10.15l-6.87,1.16Z"/><path class="cls-1" d="M978.19,60c8.84,0,18.97-.61,30.4-1.82l.18,6.44c-11.51,1.22-21.71,1.82-30.58,1.82v-6.44ZM978.62,93.86c3.04-7.17,5.59-14.29,7.66-21.34,2.07-7.05,3.77-14.39,5.11-22.01l6.87.67c-1.18,7.05-2.83,14.27-4.96,21.64-2.13,7.38-4.81,15.04-8.06,22.98l-6.63-1.95ZM1006.22,103.47c-3,0-5.56-.47-7.69-1.4-2.13-.93-3.77-2.28-4.92-4.04-1.16-1.76-1.71-3.88-1.67-6.35.04-3.73,1.34-6.61,3.89-8.63,2.55-2.03,6.2-3.04,10.94-3.04,1.95,0,3.91.28,5.9.85,1.99.57,4.03,1.49,6.14,2.77,2.11,1.28,4.35,2.92,6.72,4.92s4.98,4.41,7.81,7.21l-4.32,4.86c-3.32-3.16-6.08-5.72-8.27-7.69-2.19-1.97-4.07-3.48-5.65-4.53-1.58-1.05-3-1.75-4.26-2.1-1.26-.34-2.61-.52-4.07-.52-2.72,0-4.72.47-6.02,1.4-1.3.93-1.95,2.37-1.95,4.32s.63,3.42,1.88,4.44c1.26,1.01,3.1,1.52,5.53,1.52,2.72,0,4.76-.59,6.14-1.76,1.38-1.17,2.07-2.86,2.07-5.05v-31.37c7.01,0,13.32.3,18.91.91l-.61,6.32c-5.31-.61-11.17-.91-17.57-.91l6.32-4.56v28.94c0,4.42-1.29,7.77-3.86,10.06-2.57,2.29-6.37,3.43-11.4,3.43Z"/><path class="cls-1" d="M1041.68,60.36c3.69-.08,7.24-.19,10.64-.33,3.4-.14,6.8-.32,10.18-.55,3.38-.22,6.86-.52,10.43-.88,3.57-.37,7.32-.79,11.25-1.28l.49,6.32c-4.13.49-8.02.9-11.64,1.25-3.63.34-7.14.64-10.55.88s-6.8.44-10.18.58c-3.38.14-6.92.25-10.61.33v-6.32ZM1042.65,102.62c1.66-5.47,3.18-11.04,4.56-16.69,1.38-5.65,2.61-11.41,3.71-17.27,1.09-5.86,2.03-11.78,2.8-17.78l7.24.36c-.69,5.84-1.57,11.72-2.64,17.66-1.07,5.94-2.32,11.85-3.74,17.72-1.42,5.88-3,11.65-4.74,17.33l-7.17-1.34ZM1080.35,102.68c-3.73,0-6.95-.43-9.67-1.28-2.72-.85-4.81-2.08-6.29-3.68-1.48-1.6-2.22-3.47-2.22-5.62,0-1.66.53-3.27,1.58-4.83,1.05-1.56,2.74-3.19,5.05-4.89l5.47,3.89c-1.54.97-2.69,1.88-3.44,2.71-.75.83-1.12,1.63-1.12,2.4,0,.97.44,1.81,1.31,2.52.87.71,2.11,1.27,3.71,1.67,1.6.41,3.48.61,5.62.61,1.9,0,3.84-.1,5.81-.3,1.97-.2,4.02-.51,6.17-.91l.85,6.51c-2.27.45-4.44.76-6.51.94s-4.18.27-6.32.27ZM1064.48,72.28c4.66-.65,9.17-1.18,13.53-1.58,4.36-.4,8.68-.69,12.98-.85l.18,6.32c-4.09.16-8.36.45-12.8.85-4.44.41-8.85.91-13.22,1.52l-.67-6.26Z"/><path class="cls-1" d="M1132.46,95.63c2.19-.28,4.2-.91,6.02-1.88s3.41-2.24,4.77-3.8c1.36-1.56,2.4-3.36,3.13-5.41.73-2.05,1.09-4.21,1.09-6.48,0-3.36-.74-6.27-2.22-8.72-1.48-2.45-3.56-4.37-6.23-5.75-2.68-1.38-5.82-2.07-9.42-2.07-3.08,0-5.98.52-8.69,1.55-2.72,1.03-5.09,2.44-7.11,4.23-2.03,1.78-3.61,3.87-4.74,6.26-1.14,2.39-1.7,4.97-1.7,7.72,0,1.54.17,3.03.52,4.47.34,1.44.81,2.72,1.4,3.83.59,1.12,1.27,2,2.04,2.65.77.65,1.56.97,2.37.97,1.22,0,2.39-.75,3.53-2.25,1.13-1.5,2.22-3.78,3.25-6.84,1.03-3.06,2.01-6.84,2.92-11.34.91-4.5,1.73-9.77,2.46-15.81l6.99.79c-.81,6.12-1.7,11.52-2.68,16.2-.97,4.68-2,8.69-3.07,12.04-1.07,3.34-2.25,6.09-3.53,8.24-1.28,2.15-2.7,3.73-4.26,4.74-1.56,1.01-3.25,1.52-5.08,1.52s-3.7-.48-5.38-1.43c-1.68-.95-3.14-2.3-4.38-4.04-1.24-1.74-2.19-3.77-2.86-6.08-.67-2.31-1-4.86-1-7.66,0-3.81.72-7.31,2.16-10.49,1.44-3.18,3.48-5.97,6.11-8.36,2.63-2.39,5.72-4.23,9.27-5.5,3.55-1.28,7.41-1.92,11.58-1.92,5.03,0,9.4.93,13.13,2.8,3.73,1.87,6.6,4.53,8.6,8,2.01,3.47,3.01,7.55,3.01,12.25,0,3.12-.48,6.04-1.43,8.76-.95,2.72-2.3,5.15-4.04,7.3-1.74,2.15-3.82,3.89-6.23,5.23-2.41,1.34-5.08,2.19-8,2.55l-2.31-6.26Z"/><path class="cls-1" d="M1164.68,102.19l-3.89-5.35c2.55-2.15,4.7-4.34,6.45-6.57,1.74-2.23,3.18-4.56,4.32-6.99l4.13,2.67c-1.26,3.04-2.82,5.94-4.68,8.69-1.87,2.76-3.97,5.27-6.32,7.54ZM1172.21,105.72v-20.12h-9.97v-5.84h9.97v-3.59h-9.97v-5.59h28.27v5.59h-11.25v3.59h10.58v5.84h-10.58v20.12h-7.05ZM1162.49,61.64v-5.84h9.73v-5.96h7.05v5.96h11.49v5.84h-28.27ZM1168.69,72.64c-.41-1.95-.88-3.9-1.43-5.87-.55-1.96-1.15-3.88-1.79-5.75l5.9-1.64c.65,1.87,1.25,3.82,1.79,5.87.55,2.05,1.04,4.04,1.49,5.99l-5.96,1.4ZM1184.19,97.88c-1.34-1.62-2.76-3.17-4.26-4.65-1.5-1.48-3.1-2.99-4.8-4.53l3.22-4.01c1.66,1.3,3.29,2.67,4.89,4.13,1.6,1.46,3.19,2.96,4.77,4.5l-3.83,4.56ZM1182.19,75.38l-5.71-1.58c1.09-2.03,2.1-4.27,3.01-6.72s1.65-5,2.22-7.63l6.2.85c-.65,2.76-1.46,5.42-2.43,8-.97,2.57-2.07,4.93-3.28,7.08ZM1189.6,105.17l-5.11-4.8c1.34-1.86,2.49-3.74,3.47-5.62s1.8-3.99,2.49-6.32c.69-2.33,1.25-5.03,1.67-8.09.43-3.06.73-6.67.91-10.82.18-4.15.27-9.01.27-14.56h6.69c0,5.92-.12,11.15-.36,15.69-.24,4.54-.63,8.53-1.16,11.98-.53,3.45-1.2,6.5-2.01,9.18-.81,2.67-1.78,5.09-2.92,7.24-1.14,2.15-2.45,4.19-3.95,6.14ZM1193.31,61.34v-6.38c4.3-.32,8.32-.85,12.07-1.58,3.75-.73,7.08-1.62,10-2.67l1.76,6.38c-6.4,2.15-14.35,3.57-23.83,4.26ZM1205.72,105.17v-29.73h-10.34v-6.44h22.56v6.44h-5.35v29.73h-6.87Z"/><path class="cls-1" d="M1245.51,103.17c-4.18,0-7.55-.73-10.12-2.19-2.57-1.46-4.45-3.78-5.62-6.96-1.18-3.18-1.76-7.37-1.76-12.55v-28.21h7.36v28.21c0,3.69.34,6.62,1.03,8.79.69,2.17,1.82,3.72,3.4,4.65,1.58.93,3.69,1.4,6.32,1.4,4.94,0,9.35-1.51,13.22-4.53,3.87-3.02,7.2-7.55,10-13.59l6.08,3.16c-3.36,7.38-7.51,12.86-12.43,16.45-4.92,3.59-10.75,5.38-17.48,5.38Z"/><path class="cls-1" d="M1300.39,101.83c-2.35,0-4.51-.68-6.48-2.04-1.97-1.36-3.67-3.26-5.11-5.71-1.44-2.45-2.55-5.34-3.34-8.66-.79-3.32-1.19-6.95-1.19-10.88,0-1.62.06-3.44.18-5.47.12-2.03.29-4.05.52-6.08.22-2.03.5-3.87.82-5.53l7.36.55c-.24,1.38-.48,2.99-.7,4.83-.22,1.84-.41,3.74-.55,5.68-.14,1.95-.21,3.73-.21,5.35,0,2.76.24,5.37.73,7.84.49,2.47,1.14,4.65,1.98,6.54.83,1.88,1.76,3.36,2.8,4.44,1.03,1.07,2.16,1.61,3.37,1.61s2.45-.62,3.59-1.85c1.13-1.24,2.19-3.08,3.16-5.53.97-2.45,1.86-5.48,2.68-9.09l6.81,2.74c-1.74,7.05-3.98,12.36-6.72,15.93-2.74,3.57-5.97,5.35-9.7,5.35ZM1330,94.47c-.36-4.34-1.04-8.61-2.04-12.83-.99-4.22-2.25-8.24-3.77-12.07-1.52-3.83-3.27-7.31-5.26-10.43l6.57-2.49c2.15,3.16,4.01,6.69,5.59,10.58,1.58,3.89,2.9,8.02,3.95,12.37,1.05,4.36,1.8,8.89,2.25,13.59l-7.3,1.28Z"/><path class="cls-1" d="M1346.11,102.8l-3.47-6.08c5.63-3.41,10.49-6.9,14.56-10.49,4.07-3.59,7.43-7.37,10.06-11.34l4.56,3.04c-2.88,4.66-6.44,9.05-10.7,13.16-4.26,4.11-9.26,8.02-15.02,11.7ZM1367.63,105.6v-27.12h-22.56v-6.02h22.56v-8.88h-20.25v-6.08h20.25v-7.36h7.3v7.36h20.25v6.08h-20.25v8.88h22.56v6.02h-22.56v27.12h-7.3ZM1396.45,102.8c-5.76-3.69-10.78-7.59-15.08-11.7-4.3-4.11-7.86-8.5-10.7-13.16l4.62-3.04c2.63,3.97,5.99,7.75,10.06,11.34s8.93,7.08,14.56,10.49l-3.47,6.08Z"/><path class="cls-1" d="M1409.72,104.08l-3.47-6.14c5.63-3.41,10.48-6.9,14.53-10.49,4.05-3.59,7.44-7.35,10.15-11.28l4.5,2.98c-2.88,4.62-6.45,9.01-10.7,13.16-4.26,4.16-9.26,8.08-15.02,11.76ZM1431.25,105.6v-23.83h-23.59v-6.02h23.59v-13.74h-21.46v-5.96h21.46v-5.9h7.3v5.9h21.46v5.96h-21.46v13.74h23.59v6.02h-23.59v23.83h-7.3ZM1420.67,76.48c-1.09-2.15-2.2-4.28-3.31-6.38-1.12-2.11-2.26-4.11-3.44-6.02l6.32-2.86c1.13,1.95,2.27,3.97,3.4,6.08,1.13,2.11,2.23,4.26,3.28,6.44l-6.26,2.74ZM1460.06,104.08c-5.76-3.69-10.78-7.61-15.08-11.76-4.3-4.15-7.86-8.54-10.7-13.16l4.56-2.98c2.72,3.93,6.1,7.69,10.15,11.28,4.05,3.59,8.9,7.08,14.53,10.49l-3.47,6.14ZM1449.24,76.54l-6.2-2.86c1.3-2.11,2.51-4.29,3.65-6.54,1.13-2.25,2.09-4.43,2.86-6.54l6.44,2.55c-.81,2.19-1.81,4.43-3.01,6.72-1.2,2.29-2.44,4.51-3.74,6.66Z"/><path class="cls-1" d="M1519.9,98c-2.96-3.04-5.7-5.88-8.21-8.51-2.51-2.63-4.85-5.17-7.02-7.6-2.17-2.43-4.33-4.86-6.48-7.3-1.46-1.7-2.63-3-3.53-3.89-.89-.89-1.63-1.52-2.22-1.88-.59-.37-1.17-.55-1.73-.55-.49,0-.99.19-1.52.58-.53.39-1.19,1.11-1.98,2.16-.79,1.05-1.88,2.58-3.25,4.56-1.38,2.15-2.92,4.44-4.62,6.87-1.7,2.43-3.75,5.25-6.14,8.45l-5.59-4.68c2.51-3.24,4.69-6.13,6.54-8.66,1.84-2.53,3.48-4.87,4.89-7.02,1.78-2.59,3.26-4.59,4.44-5.99,1.17-1.4,2.33-2.35,3.47-2.86,1.13-.51,2.39-.76,3.77-.76,1.09,0,2.07.11,2.92.33.85.22,1.71.62,2.58,1.19.87.57,1.84,1.38,2.92,2.43,1.07,1.05,2.36,2.47,3.86,4.26,3.73,4.18,7.39,8.14,10.97,11.89,3.59,3.75,7.29,7.53,11.1,11.34l-5.17,5.65Z"/><path class="cls-1" d="M386.98,82.07c-.93,0-1.74-.34-2.43-1.03-.69-.69-1.03-1.5-1.03-2.43v-.85c0-.93.34-1.74,1.03-2.43.69-.69,1.5-1.03,2.43-1.03h12.34c.36,0,.55-.18.55-.55v-12.16c0-.93.33-1.74,1-2.43.67-.69,1.47-1.03,2.4-1.03h1.46c.93,0,1.73.34,2.4,1.03.67.69,1,1.5,1,2.43v12.16c0,.37.18.55.55.55h12.34c.93,0,1.74.34,2.43,1.03.69.69,1.03,1.5,1.03,2.43v.85c0,.93-.34,1.74-1.03,2.43-.69.69-1.5,1.03-2.43,1.03h-12.34c-.36,0-.55.18-.55.55v12.16c0,.93-.33,1.74-1,2.43-.67.69-1.47,1.03-2.4,1.03h-1.46c-.93,0-1.73-.34-2.4-1.03-.67-.69-1-1.5-1-2.43v-12.16c0-.37-.18-.55-.55-.55h-12.34Z"/><path class="cls-1" d="M819.88,74.29v-6.63h40.25v6.63h-40.25ZM819.88,88.7v-6.63h40.25v6.63h-40.25Z"/></g></g></g></svg>