<?xml version="1.0" encoding="UTF-8"?><svg id="_レイヤー_2" xmlns="http://www.w3.org/2000/svg" xmlns:xlink="http://www.w3.org/1999/xlink" viewBox="0 0 285.63 285.63"><defs><style>.cls-1{filter:url(#drop-shadow-1);}.cls-2{fill:#fff;}.cls-2,.cls-3{stroke-width:0px;}.cls-3{fill:#0e97a9;}</style><filter id="drop-shadow-1" filterUnits="userSpaceOnUse"><feOffset dx="0" dy="0"/><feGaussianBlur result="blur" stdDeviation="3.28"/><feFlood flood-color="#000" flood-opacity=".3"/><feComposite in2="blur" operator="in"/><feComposite in="SourceGraphic"/></filter></defs><g id="_レイヤー_2-2"><rect class="cls-3" x="0" y="0" width="285.63" height="285.63" rx="30" ry="30"/><g class="cls-1"><path class="cls-2" d="M48.82,171.73h4.6c5.14,0,8.65-2.7,8.65-7.93,0-4.15-3.15-7.21-7.75-7.21s-7.21,2.79-7.75,6.67h-11.17c.45-10.18,8.83-17.12,19.55-17.12,11.35,0,19.64,7.84,19.64,17.12,0,7.03-4.32,11.35-8.47,13.61,5.32,2.61,9.37,7.48,9.37,14.87,0,10.09-7.03,18.2-19.82,18.2s-20.63-7.39-21.08-17.48h11.08c.63,3.96,3.6,6.85,9.19,6.85,5.05,0,8.11-3.6,8.11-8.2,0-5.5-3.15-8.74-9.55-8.74h-4.6v-10.63Z"/><path class="cls-2" d="M98.04,181.74h-11.35v-34.78h35.41v11.44h-23.07v10.63c1.71-1.62,4.51-3.24,9.19-3.24,9.55,0,16.22,7.3,16.22,22.17s-6.67,21.99-19.46,21.99c-10.45,0-19.19-5.86-20.18-16.85h12.43c.99,3.96,3.33,6.22,7.39,6.22,4.51,0,7.21-3.42,7.21-10.72s-2.16-11.44-7.21-11.44c-3.24,0-5.23,1.8-6.58,4.6Z"/><path class="cls-2" d="M148.01,209.13h-14.06v-14.06h14.06v14.06Z"/><path class="cls-2" d="M197.59,209.13h-38.38v-8.11l20.81-24.51c3.87-4.51,5.77-8.29,5.77-12.34,0-5.05-3.69-7.57-7.75-7.57s-7.39,2.61-7.75,7.57h-11.17c0-10.72,8.83-18.02,19.55-18.02s19.64,7.75,19.64,18.02c0,8.2-5.41,14.6-9.37,19.28l-12.79,15.05h21.44v10.63Z"/><path class="cls-2" d="M204.99,179.26c0-6.84,4.18-11.19,10.09-11.19s10.03,4.29,10.03,11.19-4.12,11.19-10.03,11.19-10.09-4.35-10.09-11.19ZM219.32,179.26c0-4.35-1.68-6.44-4.23-6.44s-4.23,2.15-4.23,6.44,1.74,6.44,4.23,6.44,4.23-2.09,4.23-6.44ZM239.27,168.53h6.9l-27.72,40.6h-6.9l27.72-40.6ZM232.6,198.4c0-6.84,4.18-11.19,10.03-11.19s10.09,4.35,10.09,11.19-4.18,11.19-10.09,11.19-10.03-4.35-10.03-11.19ZM246.87,198.4c0-4.29-1.68-6.44-4.23-6.44s-4.23,2.09-4.23,6.44,1.74,6.44,4.23,6.44,4.23-2.15,4.23-6.44Z"/></g><path class="cls-2" d="M91.8,72.2l-2.45-4c1.7-2.04,3.11-4.18,4.21-6.43,1.1-2.24,1.86-4.53,2.27-6.86l2.34,1.87c-.6,3.43-1.43,6.4-2.5,8.89-1.07,2.5-2.36,4.67-3.87,6.52ZM96.27,76.42v-18.68h-6.16v-3.96h6.16v-7.06h4.43v7.06h6.52v3.96h-6.52v18.68h-4.43ZM90.79,49.38l-.36-3.71c1.63-.07,3.33-.21,5.09-.41,1.76-.2,3.52-.44,5.26-.7,1.74-.26,3.41-.56,5.02-.9l1.22,3.56c-1.42.36-3,.68-4.75.97-1.75.29-3.61.53-5.56.72-1.96.19-3.93.35-5.92.47ZM104.33,69.04c-.89-1.78-1.79-3.55-2.72-5.33-.92-1.78-1.87-3.54-2.83-5.29l1.98-2.66c1.22,1.87,2.41,3.71,3.56,5.53,1.15,1.81,2.24,3.55,3.28,5.2l-3.28,2.56ZM108.9,68.5v-22.82h4.43v22.82h-4.43ZM117.11,76.13c-.38,0-1.01-.01-1.89-.04-.88-.02-2.03-.07-3.47-.14l-.25-4.18c1.3.07,2.31.11,3.04.13.73.01,1.25.02,1.57.02.43,0,.74-.02.94-.05.19-.04.32-.18.38-.43.06-.25.09-.64.09-1.17v-26.03h4.61v26.06c0,1.32-.05,2.38-.14,3.17-.1.79-.31,1.38-.65,1.76-.34.38-.84.63-1.51.74-.67.11-1.57.16-2.7.16Z"/><path class="cls-2" d="M128.44,76.24v-31.68h30.96v31.68h-4.68v-1.84h-21.6v-3.89h21.6v-22.03h-21.6v27.76h-4.68ZM136.4,67.02v-15.19h15.05v15.19h-10.76v-3.71h6.48v-7.7h-6.48v11.41h-4.28Z"/><path class="cls-2" d="M169.54,70.51c4.44,0,8.02-.39,10.75-1.17,2.72-.78,4.72-2.04,5.99-3.78,1.27-1.74,1.91-3.97,1.91-6.68s-.57-4.75-1.71-6.12c-1.14-1.37-2.83-2.05-5.06-2.05-1.61,0-3.06.34-4.36,1.01-1.3.67-2.36,1.62-3.2,2.84-.84,1.22-1.42,2.66-1.73,4.3-.31,1.64-.3,3.4.04,5.27l-4.68.25c-.48-2.93-.72-6.08-.72-9.47s.24-6.6.72-9.58l4.68.32c-.48,2.86-.72,5.94-.72,9.25,0,.89.02,1.79.05,2.72.04.92.09,1.81.16,2.65l-2.12-5.51c.82-1.92,1.82-3.52,3.01-4.79,1.19-1.27,2.56-2.23,4.1-2.88,1.55-.65,3.26-.97,5.13-.97,3.67,0,6.47,1.09,8.41,3.28,1.93,2.18,2.9,5.34,2.9,9.47,0,3.7-.82,6.74-2.47,9.13-1.64,2.39-4.19,4.14-7.63,5.26-3.44,1.12-7.87,1.67-13.27,1.67l-.18-4.43Z"/><rect class="cls-2" x="47" y="88.82" width="192" height="6"/></g></svg>