<?xml version="1.0" encoding="UTF-8"?><svg id="_レイヤー_2" xmlns="http://www.w3.org/2000/svg" viewBox="0 0 99.75 107.96"><defs><style>.cls-1{fill:#fff;stroke-width:0px;}</style></defs><g id="_レイヤー_2-2"><path class="cls-1" d="M0,37.13C0,13.44,13.13,0,30.77,0s30.77,13.44,30.77,37.13-13.03,37.13-30.77,37.13S0,60.82,0,37.13ZM44.82,37.13c0-16.31-5.74-23.08-14.05-23.08s-13.95,6.77-13.95,23.08,5.74,23.08,13.95,23.08,14.05-6.77,14.05-23.08Z"/><path class="cls-1" d="M97.33,1.23v71.8h-16.62V14.56h-14.36V1.23h30.98Z"/><path class="cls-1" d="M21.3,94.69c0,4.52-3.39,7.33-8.81,7.33h-4.09v5.59H3.71v-20.28h8.78c5.42,0,8.81,2.81,8.81,7.36ZM16.55,94.69c0-2.23-1.45-3.54-4.32-3.54h-3.82v7.04h3.82c2.87,0,4.32-1.3,4.32-3.51Z"/><path class="cls-1" d="M24.1,97.47c0-6.03,4.69-10.49,11.1-10.49s11.1,4.43,11.1,10.49-4.72,10.49-11.1,10.49-11.1-4.46-11.1-10.49ZM41.54,97.47c0-3.85-2.72-6.49-6.35-6.49s-6.35,2.64-6.35,6.49,2.72,6.49,6.35,6.49,6.35-2.64,6.35-6.49Z"/><path class="cls-1" d="M50.48,87.33h4.69v20.28h-4.69v-20.28Z"/><path class="cls-1" d="M79.12,87.33v20.28h-3.85l-10.11-12.31v12.31h-4.64v-20.28h3.88l10.08,12.31v-12.31h4.64Z"/><path class="cls-1" d="M88.57,91.16h-6.49v-3.83h17.68v3.83h-6.49v16.46h-4.69v-16.46Z"/></g></svg>