<?xml version="1.0" encoding="UTF-8"?><svg id="_レイヤー_2" xmlns="http://www.w3.org/2000/svg" viewBox="0 0 1139 319.57"><defs><style>.cls-1{fill:#fff;stroke:#0e97a9;stroke-miterlimit:10;stroke-width:5px;}.cls-2{fill:#0e97a9;stroke-width:0px;}</style></defs><g id="_レイヤー_2-2"><polygon class="cls-1" points="1136.5 2.5 2.5 2.5 2.5 273.5 544.3 273.5 577 315.5 609.7 273.5 1136.5 273.5 1136.5 2.5"/><path class="cls-2" d="M198,100.33c13.35-.55,23.33-4.17,29.96-10.87,6.63-6.7,9.94-16.53,9.94-29.52l4.03,4.24h-49.06v-7.72h53.36v3.49c0,10.16-1.79,18.75-5.36,25.76-3.58,7.02-8.84,12.38-15.78,16.09-6.95,3.71-15.52,5.73-25.73,6.05l-1.37-7.51Z"/><path class="cls-2" d="M258.26,84.48c3.69-.55,7.5-1.49,11.44-2.84,3.94-1.34,7.81-3.01,11.62-4.99,3.8-1.98,7.33-4.19,10.59-6.63,3.26-2.44,6.05-4.93,8.37-7.48l4.85,5.67c-2.55,2.73-5.63,5.39-9.22,7.96-3.6,2.57-7.45,4.93-11.55,7.07-4.1,2.14-8.28,3.95-12.54,5.43-4.26,1.48-8.37,2.52-12.33,3.11l-1.23-7.31ZM279.99,110.24v-31.43h8.2v31.43h-8.2Z"/><path class="cls-2" d="M325.98,87.62c-.68-3.37-1.45-6.64-2.29-9.81-.84-3.16-1.74-6.16-2.7-8.98l7.31-1.84c.86,2.55,1.73,5.41,2.6,8.57.87,3.17,1.68,6.66,2.46,10.49l-7.38,1.57ZM328.85,100.47c5.83-.59,10.73-1.64,14.69-3.14,3.96-1.5,7.12-3.57,9.46-6.22,2.35-2.64,4.04-6.04,5.09-10.18,1.05-4.14,1.59-9.2,1.64-15.17l7.79.41c-.05,6.88-.76,12.8-2.15,17.77-1.39,4.96-3.55,9.1-6.49,12.4-2.94,3.3-6.78,5.88-11.51,7.72-4.74,1.84-10.45,3.09-17.15,3.72l-1.37-7.31ZM341.36,86.46c-.68-3.46-1.45-6.84-2.29-10.15-.84-3.3-1.74-6.41-2.7-9.33l7.31-1.85c1,3.05,1.95,6.25,2.84,9.6.89,3.35,1.65,6.71,2.29,10.08l-7.45,1.64Z"/><path class="cls-2" d="M385.63,110.58v-58.9h8.54v58.9h-8.54ZM430.38,91.51c-7.11-2.51-14.17-4.74-21.18-6.7-7.02-1.96-13.64-3.64-19.88-5.06l2.19-7.72c6.51,1.41,13.37,3.14,20.57,5.19,7.2,2.05,14.14,4.24,20.84,6.56l-2.53,7.72Z"/><path class="cls-2" d="M443.51,78.53c4.55-.68,9.3-1.88,14.25-3.59,4.94-1.71,9.79-3.79,14.55-6.25,4.76-2.46,9.18-5.2,13.26-8.23,4.08-3.03,7.57-6.16,10.49-9.39l5.33,5.47c-2.46,2.78-5.36,5.49-8.71,8.13-3.35,2.64-6.98,5.12-10.9,7.45-3.92,2.32-7.97,4.43-12.16,6.32-4.19,1.89-8.39,3.5-12.61,4.82-4.21,1.32-8.3,2.28-12.26,2.87l-1.23-7.58ZM471.46,110.58v-39.08h8.68v39.08h-8.68Z"/><path class="cls-2" d="M503.02,85.16v-8.13h56.17v8.13h-56.17Z"/><path class="cls-2" d="M593.17,83.38c-2.87-.96-5.55-1.8-8.03-2.53-2.48-.73-4.93-1.4-7.35-2.01-2.42-.62-4.97-1.2-7.65-1.74l2.32-6.97c2.6.59,5.11,1.19,7.55,1.78,2.44.59,4.91,1.25,7.41,1.98,2.5.73,5.22,1.57,8.13,2.53l-2.39,6.97ZM573.36,100.74c9.43-.18,17.33-1.54,23.71-4.07,6.38-2.53,11.42-6.31,15.13-11.34,3.71-5.03,6.27-11.47,7.69-19.3l7.86,1.3c-1.6,9.11-4.54,16.65-8.85,22.62-4.3,5.97-10.12,10.48-17.46,13.53-7.33,3.05-16.31,4.74-26.92,5.06l-1.16-7.79ZM598.57,67.05c-2.92-.96-5.66-1.8-8.23-2.53-2.57-.73-5.12-1.41-7.65-2.05-2.53-.64-5.18-1.25-7.96-1.84l2.25-6.97c2.78.55,5.44,1.14,7.99,1.78,2.55.64,5.12,1.33,7.72,2.08,2.6.75,5.33,1.61,8.2,2.56l-2.32,6.97ZM617.02,64.05c-1.23-2.5-2.43-4.71-3.59-6.63-1.16-1.91-2.45-3.78-3.86-5.6l5.4-3.49c1.55,1.96,2.94,3.96,4.17,6.01,1.23,2.05,2.44,4.28,3.62,6.7l-5.74,3.01ZM627.41,62.95c-1.09-2.55-2.19-4.82-3.28-6.8-1.09-1.98-2.3-3.88-3.62-5.71l5.47-3.14c1.5,2,2.81,4.06,3.93,6.18,1.12,2.12,2.2,4.41,3.25,6.87l-5.74,2.6Z"/><path class="cls-2" d="M638.3,85.16v-8.13h56.17v8.13h-56.17Z"/><path class="cls-2" d="M740.3,95.89c0-5.24-.31-9.41-.92-12.5-.61-3.1-1.64-5.3-3.07-6.59-1.44-1.3-3.41-1.95-5.91-1.95-2.19,0-4.28.51-6.29,1.54-2,1.02-4.03,2.69-6.08,4.99-2.05,2.3-4.28,5.36-6.7,9.19l-6.7-3.9c2.23-3.46,4.24-6.67,6.01-9.63,1.78-2.96,3.38-5.87,4.82-8.71,1.43-2.85,2.76-5.76,3.96-8.75,1.21-2.98,2.4-6.25,3.59-9.8l7.99,1.43c-1.41,4.14-2.92,8.02-4.51,11.62-1.6,3.6-3.33,7.15-5.19,10.66l-1.91-1.16c2.05-1.27,4.21-2.23,6.49-2.87,2.28-.64,4.6-.96,6.97-.96,3.78,0,6.81.9,9.09,2.7,2.28,1.8,3.94,4.73,4.99,8.78,1.05,4.06,1.57,9.36,1.57,15.92h-8.2ZM704.84,58.31c15.76,0,33.87-.68,54.32-2.05l.27,6.56c-20.59,1.37-38.79,2.05-54.59,2.05v-6.56ZM739.68,109.76c-7.06,0-12.57-1.06-16.54-3.18s-5.95-5.09-5.95-8.92c0-2.64,1-5.24,3.01-7.79,2-2.55,4.91-4.98,8.71-7.28,3.8-2.3,8.39-4.41,13.77-6.32,5.37-1.91,11.43-3.55,18.18-4.92l1.16,6.7c-5.56,1.19-10.58,2.53-15.07,4.03-4.49,1.5-8.35,3.09-11.58,4.75-3.24,1.66-5.72,3.35-7.45,5.06-1.73,1.71-2.6,3.41-2.6,5.09,0,1.91,1.24,3.39,3.72,4.44,2.48,1.05,6.05,1.57,10.69,1.57,2.73,0,5.84-.18,9.33-.55,3.48-.36,7.23-.93,11.24-1.71l1.09,6.9c-2.32.41-4.78.77-7.38,1.09-2.6.32-5.14.57-7.62.75-2.48.18-4.73.27-6.73.27Z"/><path class="cls-2" d="M774.55,110.71l-2.53-6.83c6.56-1.23,12.38-2.72,17.46-4.48,5.08-1.75,9.5-3.77,13.26-6.05,3.76-2.28,6.95-4.83,9.57-7.65,2.62-2.82,4.77-5.97,6.46-9.43l7.99,1.91c-2.19,4.33-4.83,8.22-7.93,11.69-3.1,3.46-6.75,6.54-10.97,9.22-4.21,2.69-9.08,4.99-14.59,6.9-5.51,1.91-11.75,3.49-18.72,4.72ZM778.38,78.19v-6.56h20.43v-7.99h-25.83v-6.9h25.83v-7.1h8.47v7.1h25.83v6.9h-25.83v7.99h19.47v6.56h-48.38ZM831.54,110.71c-8.43-1.55-15.76-3.6-22-6.15-6.24-2.55-11.54-5.67-15.89-9.36-4.35-3.69-7.96-7.99-10.83-12.91l7.79-2.67c1.82,2.92,4.01,5.63,6.56,8.13,2.55,2.51,5.58,4.76,9.09,6.76,3.51,2,7.56,3.79,12.16,5.36,4.6,1.57,9.82,2.9,15.65,4l-2.53,6.83Z"/><path class="cls-2" d="M849.1,109.42l-4.85-6.01,38.95-30.54.14,2.6c-6.33.59-12.45,1.02-18.35,1.3-5.9.27-11.9.41-18,.41v-7.24c5.15,0,10.17-.04,15.07-.14,4.9-.09,9.77-.27,14.62-.55,4.85-.27,9.81-.57,14.86-.89l.41,6.76-17.9,14.42-3.89-.34c.18-1.5.73-2.63,1.64-3.38.91-.75,2.19-1.13,3.83-1.13,2.14,0,3.76.44,4.85,1.33,1.09.89,1.86,1.98,2.29,3.28.43,1.3.76,2.61.99,3.93.27,1.41.6,2.72.99,3.93.39,1.21,1.05,2.16,1.98,2.87.93.71,2.31,1.06,4.13,1.06.73,0,1.73-.06,3.01-.17,1.27-.11,2.62-.27,4.03-.48,1.41-.2,2.62-.44,3.62-.72l.82,7.24c-1.32.27-2.72.53-4.2.78-1.48.25-2.92.43-4.3.55-1.39.11-2.63.17-3.72.17-2.73,0-4.94-.37-6.63-1.09-1.69-.73-2.97-1.66-3.86-2.8-.89-1.14-1.54-2.36-1.95-3.66-.41-1.3-.75-2.52-1.03-3.66-.23-1.14-.47-2.11-.72-2.9-.25-.8-.63-1.43-1.13-1.91-.5-.48-1.21-.72-2.12-.72-.41,0-.82.07-1.23.21s-.92.41-1.54.82c-.62.41-1.47,1.07-2.56,1.98l-18.24,14.69ZM889.68,63.91c-3.74-.27-7.7-.65-11.89-1.13-4.19-.48-8.45-1.08-12.78-1.81-4.33-.73-8.54-1.53-12.64-2.39l1.71-7.24c3.92.87,7.97,1.65,12.16,2.36,4.19.71,8.35,1.32,12.47,1.84,4.12.52,8.03.97,11.72,1.33l-.75,7.04Z"/><path class="cls-2" d="M936.49,109.35c-6.74,0-11.97-1.09-15.68-3.28-3.71-2.19-5.57-5.26-5.57-9.22,0-3.37,1.4-6,4.2-7.89,2.8-1.89,6.66-2.84,11.58-2.84,4.65,0,8.13.87,10.45,2.6,2.32,1.73,3.48,4.26,3.48,7.58,0,1.28-.17,2.62-.51,4.03s-.85,2.87-1.54,4.37l-7.45-.82c.64-1.55,1.1-2.87,1.4-3.96.3-1.09.44-2.05.44-2.87,0-3.1-2.25-4.65-6.76-4.65-2.42,0-4.25.37-5.5,1.13-1.25.75-1.88,1.83-1.88,3.25,0,1.91,1.09,3.43,3.28,4.54,2.19,1.12,5.22,1.67,9.09,1.67,6.88,0,12.06-1.1,15.54-3.31,3.48-2.21,5.23-5.5,5.23-9.87,0-3.83-1.4-6.63-4.2-8.4-2.8-1.78-7.16-2.66-13.08-2.66-2.37,0-4.57.16-6.59.48-2.03.32-3.95.8-5.77,1.43-1.82.64-3.67,1.5-5.53,2.6l-8.06,4.71-3.35-6.15,38.74-22.21v1.09c-3.87.41-7.69.75-11.45,1.02s-7.54.48-11.34.61c-3.8.14-7.71.2-11.72.2v-6.9c5.6,0,10.91-.07,15.92-.2,5.01-.14,9.93-.36,14.76-.68,4.83-.32,9.75-.71,14.76-1.16l1.03,6.9-34.1,19.75-3.96-3.83c1.5-.5,3.17-1,4.99-1.5,1.82-.5,3.7-.91,5.64-1.23,1.94-.32,3.87-.58,5.81-.78,1.94-.2,3.75-.31,5.43-.31,6.6,0,11.66,1.45,15.17,4.34,3.51,2.89,5.26,7.03,5.26,12.4,0,6.42-2.43,11.37-7.28,14.83-4.85,3.46-11.81,5.19-20.87,5.19Z"/><path class="cls-2" d="M115.29,181.12l-2.94-6.63c3.64-2.14,7.13-4.72,10.45-7.76,3.32-3.03,6.29-6.32,8.88-9.87l5.53,3.89c-2.87,4.1-6.2,7.9-9.98,11.41-3.78,3.51-7.77,6.49-11.96,8.95ZM115.15,201.42l-2.8-6.56c2.37-1.37,4.65-3.01,6.83-4.92,2.19-1.91,4.1-3.96,5.74-6.15l4.1,4.85c-1.73,2.6-3.8,5-6.22,7.21-2.41,2.21-4.97,4.07-7.65,5.57ZM123.15,218.77c-.87,0-2-.1-3.42-.31-1.41-.21-2.8-.51-4.17-.92l-.27-6.7c1.37.37,2.62.64,3.76.82,1.14.18,2,.27,2.6.27.5,0,.98-.39,1.43-1.16.45-.77.82-2.19,1.09-4.24.27-2.05.41-4.94.41-8.68,0-7.06-.73-13.56-2.19-19.51-1.46-5.95-3.69-11.54-6.7-16.78l6.83-3.55c3.19,5.56,5.56,11.62,7.11,18.18,1.55,6.56,2.32,13.78,2.32,21.66,0,4.24-.18,7.72-.55,10.46-.37,2.73-.91,4.86-1.64,6.39-.73,1.53-1.64,2.58-2.73,3.18-1.09.59-2.39.89-3.89.89ZM133.12,217.75l-.41-7.11c6.42-.23,13.05-.67,19.88-1.33,6.83-.66,13.73-1.56,20.7-2.7l.82,6.42c-7.2,1.27-14.22,2.3-21.08,3.08-6.86.77-13.49,1.32-19.92,1.64ZM150.41,213.03v-18.65h-8.68v-6.63h8.68v-14.48h8.27v14.48h8.95v-14.48h-25.9v25.08h-7.58v-31.84h16.26v-9.16h8.27v9.16h16.47v27.88h-16.47v18.65h-8.27ZM171.25,220c-.55-2.1-1.19-4.34-1.91-6.73-.73-2.39-1.49-4.79-2.29-7.21-.8-2.41-1.61-4.62-2.43-6.63l6.83-2.05c.82,2.09,1.65,4.34,2.49,6.73.84,2.39,1.64,4.78,2.39,7.17.75,2.39,1.4,4.61,1.95,6.66l-7.04,2.05Z"/><path class="cls-2" d="M188.54,218.63v-54.05h53.16v54.05h-8.2v-3.28h-36.76v-6.56h36.76v-8.4h-36.76v-6.29h36.76v-8.27h-36.76v-6.35h36.76v-8.13h-36.76v47.28h-8.2ZM214.78,169.44l-8.27-1.09c.87-1.96,1.65-4,2.36-6.12.71-2.12,1.33-4.38,1.88-6.8l8.4,1.09c-.55,2.37-1.18,4.62-1.91,6.76-.73,2.14-1.55,4.19-2.46,6.15Z"/><path class="cls-2" d="M289.13,208.11c2.46-.32,4.71-1.03,6.76-2.12,2.05-1.09,3.84-2.52,5.36-4.27,1.53-1.75,2.7-3.78,3.52-6.08.82-2.3,1.23-4.73,1.23-7.28,0-3.78-.83-7.05-2.49-9.8-1.66-2.76-4-4.91-7-6.46-3.01-1.55-6.54-2.32-10.59-2.32-3.46,0-6.72.58-9.77,1.74-3.05,1.16-5.72,2.74-7.99,4.75-2.28,2-4.05,4.35-5.33,7.04-1.28,2.69-1.91,5.58-1.91,8.68,0,1.73.19,3.41.58,5.02.39,1.62.91,3.05,1.57,4.3.66,1.25,1.42,2.24,2.29,2.97.86.73,1.75,1.09,2.66,1.09,1.37,0,2.69-.84,3.96-2.53,1.27-1.68,2.49-4.25,3.66-7.69s2.25-7.69,3.28-12.74c1.02-5.06,1.95-10.98,2.77-17.77l7.86.89c-.91,6.88-1.91,12.95-3.01,18.21-1.09,5.26-2.24,9.77-3.45,13.53-1.21,3.76-2.53,6.84-3.96,9.26-1.44,2.41-3.03,4.19-4.78,5.33-1.75,1.14-3.66,1.71-5.71,1.71s-4.16-.53-6.05-1.6c-1.89-1.07-3.53-2.58-4.92-4.54-1.39-1.96-2.46-4.24-3.21-6.83-.75-2.6-1.13-5.47-1.13-8.61,0-4.28.81-8.21,2.43-11.79,1.62-3.58,3.91-6.71,6.87-9.4,2.96-2.69,6.43-4.75,10.42-6.18,3.99-1.43,8.32-2.15,13.02-2.15,5.65,0,10.57,1.05,14.76,3.14,4.19,2.1,7.41,5.09,9.67,8.98,2.25,3.9,3.38,8.49,3.38,13.77,0,3.51-.54,6.79-1.61,9.84-1.07,3.05-2.59,5.78-4.54,8.2-1.96,2.41-4.29,4.37-7,5.88-2.71,1.5-5.71,2.46-8.99,2.87l-2.6-7.04Z"/><path class="cls-2" d="M327.94,207.7c13.35-.55,23.33-4.17,29.96-10.87,6.63-6.7,9.94-16.53,9.94-29.52l4.03,4.24h-49.06v-7.72h53.36v3.49c0,10.16-1.79,18.75-5.36,25.76-3.58,7.02-8.84,12.38-15.78,16.09-6.95,3.71-15.52,5.73-25.73,6.05l-1.37-7.51Z"/><path class="cls-2" d="M395.95,208.93c8.93-.41,16.26-1.58,22-3.52,5.74-1.94,10.01-4.7,12.81-8.3,2.8-3.6,4.2-8.09,4.2-13.46l3.83,3.83h-51.25v-7.24h55.62v3.42c0,10.11-3.86,17.91-11.58,23.4s-19.21,8.55-34.47,9.19l-1.16-7.31ZM392.67,169.85v-7.38h46.19v7.38h-46.19Z"/><path class="cls-2" d="M474.96,181.6c-3.51-2.55-7.06-4.92-10.66-7.1-3.6-2.19-7.27-4.21-11-6.08l4.51-6.9c3.83,1.82,7.54,3.84,11.14,6.05,3.6,2.21,7.2,4.64,10.8,7.28l-4.78,6.76ZM455.62,207.57c6.79-.64,12.8-1.88,18.04-3.72,5.24-1.85,9.76-4.33,13.56-7.45,3.8-3.12,6.92-6.91,9.36-11.38,2.44-4.46,4.27-9.68,5.5-15.65l7.65,1.71c-1.6,9.07-4.6,16.73-9.02,22.99-4.42,6.26-10.27,11.17-17.56,14.72-7.29,3.55-16.06,5.78-26.31,6.69l-1.23-7.92Z"/><path class="cls-2" d="M517.81,191.51v-7.31h60.27v7.31h-60.27ZM524.3,165.13c3.05,0,6.26-.09,9.63-.27,3.37-.18,6.79-.44,10.25-.79,3.46-.34,6.81-.76,10.04-1.26,3.23-.5,6.3-1.03,9.19-1.6,2.89-.57,5.43-1.17,7.62-1.81l2.12,7.11c-2.87.87-6.2,1.66-9.98,2.39-3.78.73-7.82,1.36-12.13,1.88s-8.74.92-13.29,1.19c-4.56.27-9.04.41-13.46.41v-7.24ZM525.19,210.02c4.37-.32,7.97-.92,10.8-1.81,2.82-.89,5.04-2.23,6.66-4.03,1.62-1.8,2.74-4.19,3.38-7.17.64-2.98.96-6.73.96-11.24v-19.27h8.34v19.27c0,5.47-.49,10.12-1.47,13.97-.98,3.85-2.56,7-4.75,9.46-2.19,2.46-5.08,4.34-8.68,5.64-3.6,1.3-8.04,2.13-13.32,2.49l-1.91-7.31Z"/><path class="cls-2" d="M591.19,192.6l-1.5-7.38,49.47-9.57,1.44,7.45-49.4,9.5ZM610.94,217.75l-8.27-45.98,8.06-1.37,8.27,45.92-8.06,1.43ZM621.53,199.23c1.68-.82,3.22-1.86,4.61-3.11,1.39-1.25,2.58-2.65,3.59-4.2,1-1.55,1.78-3.13,2.32-4.75.55-1.62.82-3.25.82-4.89l7.72.82c-.05,2.19-.42,4.38-1.13,6.59-.71,2.21-1.7,4.28-2.97,6.22-1.28,1.94-2.76,3.69-4.44,5.26-1.69,1.57-3.55,2.86-5.6,3.86l-4.92-5.81Z"/><path class="cls-2" d="M653,185.9c4.55-.68,9.3-1.88,14.25-3.59,4.94-1.71,9.79-3.79,14.55-6.25,4.76-2.46,9.18-5.2,13.26-8.23,4.08-3.03,7.57-6.16,10.49-9.39l5.33,5.47c-2.46,2.78-5.36,5.49-8.71,8.13-3.35,2.64-6.98,5.12-10.9,7.45-3.92,2.32-7.97,4.43-12.16,6.32-4.19,1.89-8.39,3.5-12.61,4.82-4.21,1.32-8.3,2.28-12.26,2.87l-1.23-7.58ZM680.95,217.95v-39.08h8.68v39.08h-8.68Z"/><path class="cls-2" d="M718.8,208.93c6.7-3.33,12.81-7.04,18.35-11.14,5.53-4.1,10.35-8.55,14.45-13.36,4.1-4.81,7.42-9.85,9.98-15.14l2.39,1.91h-41v-7.52h45.17l1.5,6.08v1.43c-2.69,5.92-6.33,11.66-10.93,17.22-4.6,5.56-9.96,10.66-16.09,15.31-6.13,4.65-12.84,8.68-20.12,12.1l-3.69-6.9ZM769.57,216.31c-2.6-2.96-5.15-5.65-7.65-8.06-2.51-2.41-5.1-4.68-7.79-6.8-2.69-2.12-5.58-4.11-8.68-5.98l5.33-5.94c4.55,2.92,8.84,6.09,12.85,9.53,4.01,3.44,7.93,7.32,11.75,11.65l-5.81,5.6ZM763.15,171.01c-.37-2.55-.84-4.94-1.44-7.17-.59-2.23-1.32-4.51-2.19-6.83l6.42-1.64c.82,2.32,1.54,4.62,2.15,6.9.61,2.28,1.1,4.78,1.47,7.52l-6.42,1.23ZM772.99,170.26c-.37-2.69-.81-5.12-1.33-7.31-.52-2.19-1.22-4.44-2.08-6.76l6.29-1.5c.86,2.28,1.57,4.57,2.12,6.87s1,4.82,1.37,7.55l-6.35,1.16Z"/><path class="cls-2" d="M787.32,207.7c6.42-1,12.17-2.8,17.25-5.4,5.08-2.6,9.46-5.91,13.15-9.94,3.69-4.03,6.6-8.65,8.75-13.87,2.14-5.22,3.37-10.94,3.69-17.19l8.88.82c-.37,7.2-1.74,13.83-4.13,19.88-2.39,6.06-5.71,11.4-9.94,16.02-4.24,4.62-9.28,8.44-15.13,11.45-5.85,3.01-12.45,5.08-19.78,6.22l-2.73-7.99Z"/><path class="cls-2" d="M861.65,208.38c6.6-.09,12.28-.6,17.01-1.54,4.74-.93,8.6-2.37,11.58-4.31,2.98-1.94,5.18-4.43,6.59-7.48,1.41-3.05,2.12-6.7,2.12-10.93v-8.34h-38.2v16.13h-8.06v-23.3h22.69v-11.14h8.2v11.14h23.64v15.51c0,7.06-1.6,12.94-4.78,17.63-3.19,4.69-8.05,8.19-14.59,10.49-6.54,2.3-14.84,3.52-24.91,3.65l-1.3-7.51Z"/><path class="cls-2" d="M913.24,210.37c2.91-4.87,5.44-9.86,7.58-14.96,2.14-5.1,3.93-10.33,5.36-15.68,1.44-5.35,2.49-10.76,3.18-16.23l8.47.48c-.64,5.97-1.7,11.82-3.18,17.56-1.48,5.74-3.35,11.32-5.6,16.74-2.25,5.42-4.91,10.68-7.96,15.78l-7.86-3.69ZM968.31,214.47c-1.78-6.74-3.61-12.91-5.5-18.52-1.89-5.6-3.92-10.9-6.08-15.89-2.16-4.99-4.59-9.9-7.28-14.72l7.93-2.87c2,3.69,3.88,7.39,5.64,11.1,1.75,3.71,3.4,7.56,4.95,11.55,1.55,3.99,3.04,8.2,4.48,12.64,1.44,4.44,2.88,9.28,4.34,14.52l-8.47,2.19Z"/><path class="cls-2" d="M992.63,208.38c6.6-.09,12.28-.6,17.01-1.54,4.74-.93,8.6-2.37,11.58-4.31,2.98-1.94,5.18-4.43,6.59-7.48,1.41-3.05,2.12-6.7,2.12-10.93v-8.34h-38.2v16.13h-8.06v-23.3h22.69v-11.14h8.2v11.14h23.64v15.51c0,7.06-1.6,12.94-4.78,17.63-3.19,4.69-8.05,8.19-14.59,10.49-6.54,2.3-14.84,3.52-24.91,3.65l-1.3-7.51Z"/></g></svg>