<?xml version="1.0" encoding="UTF-8"?><svg id="_レイヤー_2" xmlns="http://www.w3.org/2000/svg" xmlns:xlink="http://www.w3.org/1999/xlink" viewBox="0 0 285.63 285.63"><defs><style>.cls-1{filter:url(#drop-shadow-1);}.cls-2{fill:#fff;}.cls-2,.cls-3{stroke-width:0px;}.cls-3{fill:#0e97a9;}</style><filter id="drop-shadow-1" filterUnits="userSpaceOnUse"><feOffset dx="0" dy="0"/><feGaussianBlur result="blur" stdDeviation="3.28"/><feFlood flood-color="#000" flood-opacity=".3"/><feComposite in2="blur" operator="in"/><feComposite in="SourceGraphic"/></filter></defs><g id="_レイヤー_2-2"><rect class="cls-3" x="0" y="0" width="285.63" height="285.63" rx="30" ry="30"/><g class="cls-1"><path class="cls-2" d="M64.68,168.54c-1.98.9-3.87,1.17-6.04,1.17-9.55,0-17.12-7.84-17.12-18.56,0-13.79,9.37-20,20.9-20s20.99,6.13,20.99,19.91c0,4.87-2.25,10.63-5.77,17.75l-12.52,25.32h-13.52l13.06-25.59ZM62.42,141.78c-5.41,0-8.29,3.6-8.29,8.83s2.88,8.74,8.29,8.74,8.38-3.6,8.38-8.74-2.88-8.83-8.38-8.83Z"/><path class="cls-2" d="M98.64,198.27l-12.25,10.45v-28.65h12.25v18.2Z"/><path class="cls-2" d="M121.68,166.74h-11.35v-34.78h35.41v11.44h-23.07v10.63c1.71-1.62,4.51-3.24,9.19-3.24,9.55,0,16.22,7.3,16.22,22.17s-6.67,21.99-19.46,21.99c-10.45,0-19.19-5.86-20.18-16.85h12.43c.99,3.96,3.33,6.22,7.39,6.22,4.51,0,7.21-3.42,7.21-10.72s-2.16-11.44-7.21-11.44c-3.24,0-5.23,1.8-6.58,4.6Z"/><path class="cls-2" d="M165.91,161.87c-4.96-2.52-8.38-7.84-8.38-13.7,0-10.99,9.73-17.03,20.27-17.03s20.27,6.04,20.27,17.03c0,5.86-3.42,11.17-8.38,13.7,5.05,2.25,9.28,7.93,9.28,14.96,0,11.62-9.64,18.11-21.17,18.11s-21.17-6.49-21.17-18.11c0-7.03,4.42-12.7,9.28-14.96ZM177.8,184.4c4.78,0,8.65-3.96,8.65-8.74,0-5.41-4.51-8.65-8.65-8.65s-8.56,3.24-8.56,8.65c0,4.78,3.6,8.74,8.56,8.74ZM177.8,157.28c4.23,0,7.75-3.51,7.75-7.84s-3.51-7.66-7.75-7.66-7.75,3.42-7.75,7.66,3.42,7.84,7.75,7.84Z"/><path class="cls-2" d="M231.67,194.13h-12.61v-49.02l-8.92,5.86v-12.16l10.18-6.85h11.35v62.17Z"/></g><path class="cls-2" d="M68.44,76.42v-6.88h-16.02v-4.07h6.08v-9.83h24.37v3.96h-19.73v5.87h5.29v-14.76h-8.82v-3.96h24.34v3.96h-10.58v14.76h12.17v4.07h-12.17v6.88h-4.93ZM56.63,59.96l-4.07-2.48c1.42-2.23,2.69-4.55,3.82-6.97,1.13-2.41,2.09-4.88,2.88-7.4l4.61.94c-.84,2.76-1.88,5.49-3.11,8.19-1.24,2.7-2.61,5.27-4.12,7.72Z"/><path class="cls-2" d="M90.34,76.2v-31.82h14.76v14.08h-10.15v-3.1h6.16v-2.3h-6.16v-2.88h6.16v-2.27h-6.16v28.3h-4.61ZM98.33,75.16v-14.83h15.7v13.1h-11.59v-3.02h7.49v-2.02h-7.49v-2.99h7.49v-1.91h-7.49v11.66h-4.1ZM116.37,76.09c-.41,0-1-.02-1.76-.05-.77-.04-1.78-.08-3.02-.13l-.25-3.96c1.13.05,2.04.1,2.74.14.7.05,1.2.07,1.51.07.6,0,1.02-.04,1.26-.11.24-.07.4-.23.47-.47.07-.24.11-.62.11-1.15v-22.54h-6.52v2.27h6.52v2.88h-6.52v2.3h6.52v3.1h-10.51v-14.08h15.12v25.81c0,1.34-.06,2.42-.18,3.22-.12.8-.36,1.39-.72,1.76-.36.37-.92.62-1.67.74-.76.12-1.78.18-3.08.18Z"/><path class="cls-2" d="M129.19,76.27l-2.05-3.89c1.75-.53,3.22-1.09,4.39-1.67,1.18-.59,2.14-1.28,2.9-2.07.76-.79,1.35-1.7,1.78-2.74.43-1.03.72-2.23.86-3.6l4.61.4c-.24,3.53-1.36,6.38-3.37,8.57-2,2.18-5.05,3.85-9.13,5ZM129.69,55.57v-3.46h11.23v-2.12h-13.75v-3.67h13.75v-2.66h4.9v2.66h13.75v3.67h-13.75v2.12h11.23v3.46h-27.36ZM128.11,65.47v-8.1h30.53v7.74h-4.54v-4.25h-21.46v4.61h-4.54ZM151.9,75.77c-1.61,0-2.89-.04-3.83-.13-.95-.08-1.65-.27-2.11-.56-.46-.29-.76-.73-.9-1.31-.14-.59-.22-1.36-.22-2.32v-8.96h4.82v8.14c0,.29.02.52.05.68.04.17.14.29.31.36.17.07.44.12.81.14.37.02.88.04,1.53.04.6,0,1.06-.03,1.39-.09.32-.06.56-.24.72-.54.16-.3.27-.79.34-1.46.07-.67.13-1.62.18-2.84l4.57.36c-.1,1.66-.2,3.01-.31,4.05s-.3,1.87-.58,2.48c-.28.61-.68,1.06-1.22,1.35s-1.25.46-2.14.52c-.89.06-2.03.09-3.42.09Z"/><path class="cls-2" d="M164.16,75.19v-4.21h12.46v-26.6h4.93v9.29h13.07v4.07h-13.07v13.25h15.01v4.21h-32.4Z"/><path class="cls-2" d="M200.82,49.74v-3.85h13.75v-2.88h4.9v2.88h13.75v3.85h-32.4ZM201.69,76.06v-15.55h30.67v9.61c0,1.32-.05,2.38-.14,3.17-.1.79-.31,1.38-.65,1.76-.34.38-.85.63-1.55.74-.7.11-1.63.16-2.81.16-.41,0-.98-.01-1.73-.04-.74-.02-1.66-.07-2.74-.14l-.22-4c1.1.07,1.93.12,2.47.14.54.02.94.04,1.21.04.53,0,.9-.02,1.12-.07.22-.05.35-.19.4-.41.05-.23.07-.59.07-1.1v-6.3h-21.53v11.99h-4.57ZM205.72,59.1v-7.99h22.61v7.99h-17.82v-2.84h13.03v-2.16h-13.03v5h-4.79ZM208.81,74.83v-9.32h16.42v7.99h-12.35v-2.92h8.28v-2.02h-8.28v6.26h-4.07Z"/><path class="cls-2" d="M113.96,216.91c-3.2,0-4.32.07-4.54.07-.4,0-.43-.04-.43-.4v-2.95c0-.36.04-.4.43-.4.22,0,1.33.07,4.54.07h21.67c3.24,0,4.36-.07,4.57-.07.32,0,.36.04.36.4v2.95c0,.36-.04.4-.36.4-.22,0-1.33-.07-4.57-.07h-12.49c-.04,2.12-.14,4.03-.32,5.8h9.36c3.06,0,4.1-.07,4.32-.07.36,0,.4.07.4.4,0,1.04-.04,2.59-.07,3.53-.22,5.15-.5,8.14-1.22,11.52-.76,3.56-2.48,4.97-6.05,4.97-1.37,0-2.34-.04-3.38-.14-1.12-.11-1.12-.14-1.37-1.33-.22-1.08-.54-2.09-.94-2.84,2.02.32,3.46.47,5.22.47,1.33,0,2.3-.5,2.7-2.41.58-2.77.9-5.65,1.04-10.48h-10.51c-.43,2.3-1.01,4.28-1.76,6.12-1.69,4.28-4.61,7.88-8.35,10.44-.4.29-.61.43-.79.43-.22,0-.4-.25-.79-.76-.79-.9-1.58-1.51-2.34-1.91,4-2.38,6.8-5.29,8.6-9.76,1.4-3.35,2.12-7.78,2.27-13.97h-5.18Z"/><path class="cls-2" d="M175.31,233c0,3.13.07,5,.07,6.23,0,1.44-.32,2.34-1.15,2.99-.86.68-2.05.94-5.87.94-1.15,0-1.19-.04-1.4-1.15-.22-1.08-.54-2.02-.94-2.77,1.51.14,3.2.18,4.07.18,1.08,0,1.4-.32,1.4-1.22v-9h-21.02v7.67c0,3.92.07,5.94.07,6.16,0,.36-.04.4-.43.4h-3.13c-.36,0-.4-.04-.4-.4,0-.25.07-2.45.07-7.06v-15.41c0-4.61-.07-6.88-.07-7.09,0-.4.04-.43.4-.43.25,0,1.48.07,4.9.07h18.25c3.42,0,4.64-.07,4.86-.07.36,0,.4.04.4.43,0,.22-.07,2.63-.07,7.24v12.31ZM158.93,225.7v-9.07h-8.46v9.07h8.46ZM162.68,216.62v9.07h8.82v-9.07h-8.82Z"/><rect class="cls-2" x="47" y="88.82" width="192" height="6"/></g></svg>