<?xml version="1.0" encoding="UTF-8"?><svg id="_レイヤー_2" xmlns="http://www.w3.org/2000/svg" xmlns:xlink="http://www.w3.org/1999/xlink" viewBox="0 0 285.63 285.63"><defs><style>.cls-1{filter:url(#drop-shadow-1);}.cls-2{fill:#fff;}.cls-2,.cls-3{stroke-width:0px;}.cls-3{fill:#0e97a9;}</style><filter id="drop-shadow-1" filterUnits="userSpaceOnUse"><feOffset dx="0" dy="0"/><feGaussianBlur result="blur" stdDeviation="3.28"/><feFlood flood-color="#000" flood-opacity=".3"/><feComposite in2="blur" operator="in"/><feComposite in="SourceGraphic"/></filter></defs><g id="_レイヤー_2-2"><rect class="cls-3" x="0" y="0" width="285.63" height="285.63" rx="30" ry="30"/><g class="cls-1"><path class="cls-2" d="M71.24,131.96l-19.37,42.62h11.89v-15.86h12.61v15.86h5.68v10.72h-5.68v8.83h-12.61v-8.83h-27.57v-8.74l21.26-44.6h13.79Z"/><path class="cls-2" d="M103.88,198.27l-12.25,10.45v-28.65h12.25v18.2Z"/><path class="cls-2" d="M110.77,152.32v-20.36h38.02v8.83l-17.93,53.34h-13.06l18.02-51.45h-14.33v9.64h-10.72Z"/><path class="cls-2" d="M185.16,131.96l-19.37,42.62h11.89v-15.86h12.61v15.86h5.68v10.72h-5.68v8.83h-12.61v-8.83h-27.57v-8.74l21.26-44.6h13.79Z"/><path class="cls-2" d="M237.45,131.96l-19.37,42.62h11.89v-15.86h12.61v15.86h5.68v10.72h-5.68v8.83h-12.61v-8.83h-27.57v-8.74l21.26-44.6h13.79Z"/></g><path class="cls-2" d="M71.33,57.19v-9.86h31.9v9.86h-4.72v-6.3h-22.46v6.3h-4.72ZM73.96,76.24v-12.02h26.64v12.02h-4.82v-1.73h-16.99v-3.28h16.99v-3.46h-16.99v8.46h-4.82ZM77.99,50.57c-.48-1.08-1-2.14-1.55-3.19-.55-1.04-1.12-2.03-1.69-2.97l4.18-1.51c.6.94,1.17,1.93,1.71,2.99.54,1.06,1.05,2.12,1.53,3.2l-4.18,1.48ZM76.12,62.12v-9.72h22.32v9.72h-17.53v-3.17h12.74v-2.95h-12.74v6.12h-4.79ZM87.35,66.95l-4.86-.58c.46-1.03.85-2.11,1.19-3.24.34-1.13.65-2.33.94-3.6l4.93.58c-.29,1.27-.61,2.47-.97,3.6-.36,1.13-.77,2.21-1.22,3.24ZM86.45,50.32c-.5-1.1-1.03-2.18-1.57-3.24-.54-1.06-1.09-2.06-1.64-3.02l4.14-1.51c.58.94,1.13,1.94,1.67,3.02s1.06,2.17,1.57,3.28l-4.18,1.48ZM96.49,50.14l-4.25-1.04c.65-1.06,1.27-2.11,1.85-3.17.59-1.06,1.12-2.1,1.6-3.13l4.28,1.01c-.48,1.01-1.01,2.05-1.6,3.13-.59,1.08-1.22,2.15-1.89,3.2Z"/><path class="cls-2" d="M109.05,76.06l-2.09-3.67c3.31-.79,6.16-1.62,8.55-2.48,2.39-.86,4.37-1.75,5.96-2.66l2.74,1.94c-1.73,1.3-3.86,2.52-6.39,3.67-2.53,1.15-5.45,2.22-8.77,3.2ZM108.22,51.97v-3.71h10.26v-4.75h4.25v4.75h2.66v-4.75h4.25v4.75h10.26v3.71h-31.68ZM121.61,76.42v-7.74h-13.03v-3.49h13.03v-1.69h-11.45v-3.06h11.45v-1.69h-12.67v-3.24h30.24v3.24h-12.67v1.69h11.45v3.06h-11.45v1.69h13.03v3.49h-13.03v7.74h-4.9ZM113.37,51.07c-.48-1.01-.98-2-1.51-2.97-.53-.97-1.07-1.89-1.62-2.75l3.89-1.4c.55.89,1.1,1.82,1.64,2.81.54.98,1.04,1.98,1.49,2.99l-3.89,1.33ZM116.57,57.7c-.38-1.22-.83-2.45-1.33-3.69-.5-1.24-1.01-2.44-1.51-3.62l4.61-.43c.55,1.15,1.07,2.35,1.57,3.58.49,1.24.94,2.48,1.35,3.73l-4.68.43ZM139.07,76.06c-3.31-.98-6.23-2.05-8.77-3.2-2.53-1.15-4.66-2.38-6.39-3.67l2.74-1.94c1.58.91,3.57,1.81,5.96,2.68,2.39.88,5.24,1.7,8.55,2.47l-2.09,3.67ZM131.19,57.84l-4.64-.58c.48-.82.91-1.6,1.3-2.34.38-.74.73-1.51,1.03-2.3.3-.79.59-1.68.88-2.66l4.68.43c-.38,1.32-.85,2.62-1.4,3.89-.55,1.27-1.16,2.46-1.84,3.56ZM134.79,50.82l-3.92-1.08c.6-.94,1.16-1.9,1.69-2.9.53-1,1.01-1.95,1.44-2.86l3.92,1.12c-.43.91-.91,1.86-1.44,2.84-.53.98-1.09,1.94-1.69,2.88Z"/><path class="cls-2" d="M146.58,72.2l-2.45-4c1.7-2.04,3.11-4.18,4.21-6.43,1.1-2.24,1.86-4.53,2.27-6.86l2.34,1.87c-.6,3.43-1.43,6.4-2.5,8.89-1.07,2.5-2.36,4.67-3.87,6.52ZM151.05,76.42v-18.68h-6.16v-3.96h6.16v-7.06h4.43v7.06h6.52v3.96h-6.52v18.68h-4.43ZM145.58,49.38l-.36-3.71c1.63-.07,3.33-.21,5.09-.41,1.76-.2,3.52-.44,5.26-.7,1.74-.26,3.41-.56,5.02-.9l1.22,3.56c-1.42.36-3,.68-4.75.97-1.75.29-3.61.53-5.56.72-1.96.19-3.93.35-5.92.47ZM159.11,69.04c-.89-1.78-1.79-3.55-2.72-5.33-.92-1.78-1.87-3.54-2.83-5.29l1.98-2.66c1.22,1.87,2.41,3.71,3.56,5.53,1.15,1.81,2.24,3.55,3.28,5.2l-3.28,2.56ZM163.68,68.5v-22.82h4.43v22.82h-4.43ZM171.89,76.13c-.38,0-1.01-.01-1.89-.04-.88-.02-2.03-.07-3.47-.14l-.25-4.18c1.3.07,2.31.11,3.04.13.73.01,1.25.02,1.57.02.43,0,.74-.02.94-.05.19-.04.32-.18.38-.43.06-.25.09-.64.09-1.17v-26.03h4.61v26.06c0,1.32-.05,2.38-.14,3.17-.1.79-.31,1.38-.65,1.76-.34.38-.84.63-1.51.74-.67.11-1.57.16-2.7.16Z"/><path class="cls-2" d="M183.35,66.41l-1.58-4.64c1.58-.86,3.02-1.83,4.3-2.9,1.28-1.07,2.42-2.23,3.42-3.47,1-1.25,1.83-2.59,2.5-4.03l4.61.61c-.94,2.02-2.08,3.92-3.42,5.72-1.34,1.8-2.84,3.44-4.48,4.91-1.64,1.48-3.43,2.74-5.35,3.8ZM182.38,52.44v-3.82h32.69v3.82h-32.69ZM182.38,75.41v-4.07h24.23v-8.21h-2.81v8.21h-3.64v-8.21h-2.88v8.21h-3.64v-8.21h-2.81v8.21h-4.5v-11.81h24.77v11.81h3.96v4.07h-32.69ZM191.41,50.57c-.48-1.03-.99-2.05-1.53-3.04-.54-1-1.1-1.95-1.67-2.86l4.36-1.3c.58.89,1.14,1.83,1.69,2.83.55,1,1.08,2.01,1.58,3.04l-4.43,1.33ZM214.09,66.41c-1.87-1.06-3.63-2.32-5.27-3.78-1.64-1.46-3.13-3.1-4.46-4.91-1.33-1.81-2.49-3.73-3.47-5.74l4.57-.61c.7,1.44,1.54,2.78,2.52,4.03.98,1.25,2.12,2.41,3.42,3.47,1.3,1.07,2.72,2.03,4.28,2.9l-1.58,4.64ZM206.1,50.06l-4.46-.86c.62-.96,1.21-1.94,1.76-2.93.55-1,1.04-1.97,1.48-2.93l4.5.83c-.46.96-.96,1.94-1.51,2.93-.55,1-1.14,1.99-1.76,2.97Z"/><path class="cls-2" d="M113.96,216.91c-3.2,0-4.32.07-4.54.07-.4,0-.43-.04-.43-.4v-2.95c0-.36.04-.4.43-.4.22,0,1.33.07,4.54.07h21.67c3.24,0,4.36-.07,4.57-.07.32,0,.36.04.36.4v2.95c0,.36-.04.4-.36.4-.22,0-1.33-.07-4.57-.07h-12.49c-.04,2.12-.14,4.03-.32,5.8h9.36c3.06,0,4.1-.07,4.32-.07.36,0,.4.07.4.4,0,1.04-.04,2.59-.07,3.53-.22,5.15-.5,8.14-1.22,11.52-.76,3.56-2.48,4.97-6.05,4.97-1.37,0-2.34-.04-3.38-.14-1.12-.11-1.12-.14-1.37-1.33-.22-1.08-.54-2.09-.94-2.84,2.02.32,3.46.47,5.22.47,1.33,0,2.3-.5,2.7-2.41.58-2.77.9-5.65,1.04-10.48h-10.51c-.43,2.3-1.01,4.28-1.76,6.12-1.69,4.28-4.61,7.88-8.35,10.44-.4.29-.61.43-.79.43-.22,0-.4-.25-.79-.76-.79-.9-1.58-1.51-2.34-1.91,4-2.38,6.8-5.29,8.6-9.76,1.4-3.35,2.12-7.78,2.27-13.97h-5.18Z"/><path class="cls-2" d="M175.31,233c0,3.13.07,5,.07,6.23,0,1.44-.32,2.34-1.15,2.99-.86.68-2.05.94-5.87.94-1.15,0-1.19-.04-1.4-1.15-.22-1.08-.54-2.02-.94-2.77,1.51.14,3.2.18,4.07.18,1.08,0,1.4-.32,1.4-1.22v-9h-21.02v7.67c0,3.92.07,5.94.07,6.16,0,.36-.04.4-.43.4h-3.13c-.36,0-.4-.04-.4-.4,0-.25.07-2.45.07-7.06v-15.41c0-4.61-.07-6.88-.07-7.09,0-.4.04-.43.4-.43.25,0,1.48.07,4.9.07h18.25c3.42,0,4.64-.07,4.86-.07.36,0,.4.04.4.43,0,.22-.07,2.63-.07,7.24v12.31ZM158.93,225.7v-9.07h-8.46v9.07h8.46ZM162.68,216.62v9.07h8.82v-9.07h-8.82Z"/><rect class="cls-2" x="47" y="88.82" width="192" height="6"/></g></svg>