<?xml version="1.0" encoding="UTF-8"?><svg xmlns="http://www.w3.org/2000/svg" viewBox="0 0 803 472.66"><defs><style>.cls-1,.cls-2,.cls-3,.cls-4{stroke-width:0px;}.cls-1,.cls-4{fill:#333;}.cls-2{fill:#ff0;}.cls-5{isolation:isolate;}.cls-3{fill:#fff;}.cls-4,.cls-6{mix-blend-mode:multiply;}</style></defs><g class="cls-5"><g id="_レイヤー_2"><g id="_レイヤー_1-2"><rect class="cls-4" width="358" height="159" rx="30" ry="30"/><rect class="cls-4" x="445" width="358" height="159" rx="30" ry="30"/><path class="cls-3" d="M501.99,91.43l-1.76-7.48c4.38-2.43,8.05-5.27,11-8.51,2.96-3.24,5.27-6.95,6.93-11.13l6.93,1.88c-1.38,3.32-3.02,6.44-4.92,9.33-1.91,2.9-4.09,5.54-6.57,7.93v-1.03c-.97,1.09-2.1,2.19-3.37,3.28s-2.6,2.13-3.98,3.1c-1.38.97-2.8,1.84-4.26,2.61ZM501.99,66.2v-6.45h7.96v-9h7.11v9h8.03v6.45h-23.1ZM509.78,105.6v-26.75h7.17v26.75h-7.17ZM525.1,90.22c-1.46-1.66-3.21-3.56-5.26-5.68-2.05-2.13-4-4.12-5.87-5.99l4.38-4.56c1.26,1.22,2.6,2.52,4.04,3.92,1.44,1.4,2.81,2.78,4.1,4.13,1.3,1.36,2.43,2.61,3.4,3.74l-4.8,4.44ZM524.06,103.77v-6.51h14.96v-28.03h-12.77v-6.26h12.77v-11.79h7.3v11.79h10.46v6.26h-10.46v28.03h11.37v6.51h-33.62Z"/><path class="cls-3" d="M566.57,73.86l-2.92-6.02c3.16-1.74,6.12-3.5,8.88-5.26,2.76-1.76,5.4-3.63,7.93-5.59,2.53-1.97,5.06-4.08,7.57-6.35h9c2.51,2.27,5.04,4.39,7.57,6.35,2.53,1.97,5.18,3.83,7.93,5.59,2.76,1.76,5.72,3.52,8.88,5.26l-2.92,6.02c-4.9-2.55-9.51-5.36-13.8-8.42-4.3-3.06-8.35-6.43-12.16-10.12-3.81,3.69-7.86,7.06-12.16,10.12-4.3,3.06-8.9,5.87-13.8,8.42ZM566.51,84.99v-6.08h52.04v6.08h-52.04ZM568.46,104.2l-.3-6.08c6.89-.24,14-.67,21.34-1.28,7.34-.61,14.69-1.4,22.07-2.37l.67,5.9c-7.58,1.01-15.05,1.83-22.4,2.46-7.36.63-14.48,1.08-21.37,1.37ZM575.27,73.37v-5.84h34.53v5.84h-34.53ZM582.14,102.19l-6.51-2.49c1.62-2.92,3.19-6.02,4.71-9.3s2.97-6.69,4.35-10.21l6.87,1.95c-1.34,3.61-2.81,7.1-4.41,10.49-1.6,3.38-3.27,6.58-5.02,9.58ZM612.72,106.21c-.85-1.78-1.81-3.69-2.89-5.71-1.07-2.03-2.15-4.07-3.22-6.14-1.07-2.07-2.12-3.97-3.13-5.72l6.2-2.55c1.01,1.74,2.08,3.65,3.19,5.72,1.11,2.07,2.21,4.12,3.28,6.17,1.07,2.05,2.04,3.94,2.89,5.68l-6.32,2.55Z"/><path class="cls-3" d="M627.64,66.14v-5.53h24.2v-3.22h-19.94v-5.53h47.79v5.53h-19.94v3.22h24.2v5.53h-56.3ZM630.61,105.84l-2.49-5.53c4.01-.97,7.77-2.09,11.28-3.34,3.51-1.26,6.41-2.49,8.72-3.71l2.68,4.99c-1.46.89-3.24,1.81-5.35,2.77-2.11.95-4.43,1.83-6.96,2.64-2.53.81-5.16,1.54-7.87,2.19ZM633.05,95.32v-26.87h45.48v26.87h-38.06v-4.92h30.64v-2.68h-30.64v-4.38h30.64v-2.68h-30.64v-4.38h30.64v-2.61h-30.64v21.64h-7.42ZM680.35,106.33c-2.55-1.3-5.51-2.59-8.88-3.89-3.36-1.3-6.93-2.53-10.7-3.71l2.31-5.05c3.93,1.09,7.66,2.26,11.19,3.5s6.63,2.48,9.3,3.74l-3.22,5.41Z"/><path class="cls-3" d="M691.9,105.6v-40.61h11v-4.38h-11.79v-5.71h11.79v-4.13h7.11v4.13h11.92v5.71h-11.92v4.38h10.94v30.95c0,2.19-.05,3.91-.15,5.17-.1,1.26-.29,2.18-.58,2.77-.28.59-.74.96-1.37,1.12-.63.16-1.45.24-2.46.24-.49,0-1.21-.02-2.16-.06-.95-.04-2.02-.1-3.19-.18l-.3-5.9c.65.08,1.21.14,1.67.18.47.04.84.06,1.12.06.36,0,.62-.05.76-.15.14-.1.23-.35.27-.76.04-.4.06-1.09.06-2.07v-25.47h-16.35v34.72h-6.38ZM703.39,103.9v-9.61h-5.53v-5.35h5.53v-4.26h-5.53v-5.41h17.27v5.41h-5.53v4.26h5.53v5.23h-5.72v9.73h-6.02ZM701.68,81.64c-.36-1.5-.78-3.06-1.25-4.68-.47-1.62-.96-3.16-1.49-4.62l4.56-1.16c.53,1.54,1.02,3.08,1.49,4.62.47,1.54.88,3.12,1.25,4.74l-4.56,1.09ZM710.38,83.41l-4.26-1.7c.61-1.54,1.21-3.21,1.79-5.02.59-1.8,1.08-3.64,1.49-5.5l4.5,1.22c-.45,1.99-.96,3.9-1.55,5.75-.59,1.84-1.25,3.6-1.98,5.26ZM723.88,105.48l-4.38-5.65c2.23-2.63,4.14-5.74,5.75-9.3,1.6-3.57,2.82-7.54,3.65-11.92.83-4.38,1.25-9.14,1.25-14.29v-12.95h7.17v12.95c0,5.31.42,10.17,1.25,14.59.83,4.42,2.04,8.36,3.62,11.83,1.58,3.47,3.51,6.5,5.78,9.09l-4.38,5.65c-2.07-2.15-3.95-5.04-5.65-8.66-1.7-3.63-3.1-7.71-4.2-12.25-1.14,4.42-2.55,8.45-4.26,12.1-1.7,3.65-3.57,6.59-5.59,8.82ZM721.75,70.15v-6.45h25.54v6.45h-25.54ZM742.42,62.37c-1.18-1.74-2.36-3.39-3.56-4.96-1.2-1.56-2.44-3.15-3.74-4.77l4.8-3.22c1.42,1.62,2.7,3.19,3.83,4.71,1.13,1.52,2.31,3.15,3.53,4.89l-4.86,3.34Z"/><path class="cls-3" d="M64.06,76.05v-6.02h53.99v6.02h-53.99ZM65.34,67.78v-12.04h21.95v-5.9h7.54v5.9h21.95v12.04h-6.87v-6.26h-37.7v6.26h-6.87ZM67.04,104.93l-1.7-6.02c5.72-.89,10.67-2.03,14.87-3.4,4.2-1.38,7.75-3.09,10.67-5.14,2.92-2.05,5.33-4.51,7.24-7.39,1.9-2.88,3.42-6.24,4.56-10.09l6.81,1.58c-1.34,4.5-3.1,8.42-5.29,11.76-2.19,3.34-4.95,6.23-8.27,8.66-3.32,2.43-7.36,4.45-12.1,6.05-4.74,1.6-10.34,2.93-16.78,3.98ZM73.43,91.25l-5.59-3.4c2.47-2.55,4.66-5.12,6.57-7.69,1.9-2.57,3.62-5.3,5.14-8.18,1.52-2.88,2.95-6.02,4.29-9.42l7.3.73c-1.78,5.31-4.13,10.27-7.05,14.87-2.92,4.6-6.47,8.97-10.64,13.1ZM113.01,105.54c-3.65-2.23-7.1-4.2-10.37-5.9-3.26-1.7-6.44-3.23-9.52-4.59-3.08-1.36-6.21-2.59-9.39-3.71-3.18-1.11-6.5-2.12-9.94-3.01l1.16-5.84c4.82,1.18,9.5,2.59,14.04,4.26,4.54,1.66,9.12,3.58,13.74,5.75,4.62,2.17,9.42,4.71,14.41,7.63l-4.13,5.41Z"/><path class="cls-3" d="M130.71,105.6l-6.26-2.49c2.07-3.81,3.89-7.89,5.47-12.25,1.58-4.36,2.8-8.76,3.65-13.22l6.69,1.34c-.89,4.54-2.15,9.11-3.77,13.71-1.62,4.6-3.55,8.91-5.78,12.92ZM126.88,70.21v-14.47h21.95v-5.9h7.54v5.9h21.95v14.47h-6.87v-8.51h-37.7v8.51h-6.87ZM175.52,104.62c-5.23,0-9.83-.17-13.8-.52-3.97-.34-7.45-.92-10.43-1.73-2.98-.81-5.59-1.91-7.84-3.28-2.25-1.38-4.23-3.07-5.93-5.08-1.7-2.01-3.3-4.39-4.8-7.14l5.29-2.43c1.18,2.15,2.44,4.01,3.8,5.59,1.36,1.58,2.98,2.91,4.86,3.98,1.89,1.07,4.14,1.94,6.78,2.58,2.63.65,5.79,1.12,9.45,1.4,3.67.28,7.95.43,12.86.43h4.26l-.43,6.2h-4.07ZM149.8,100v-27.54h-14.84v-5.9h35.26v5.9h-13.01v8.15h17.45v5.9h-17.45v13.5h-7.42Z"/><path class="cls-3" d="M186.73,97.63l-.79-6.2c3.49-.69,7.13-1.55,10.94-2.58,3.81-1.03,7.6-2.16,11.37-3.37l.91,6.02c-3.81,1.34-7.61,2.52-11.4,3.56-3.79,1.03-7.47,1.89-11.04,2.58ZM189.59,93.62v-38.43h6.63v38.43h-6.63ZM202.91,105.6v-54.84h6.99v54.84h-6.99ZM212.69,105.48l-3.89-6.02c4.94-2.55,9.29-5.79,13.04-9.7,3.75-3.91,6.84-8.42,9.27-13.53,2.43-5.11,4.09-10.76,4.99-16.96l6.93.79c-1.05,7.09-2.93,13.52-5.62,19.27-2.7,5.76-6.11,10.81-10.24,15.17-4.13,4.36-8.96,8.02-14.47,10.97ZM211.96,60.06v-6.26h31.07v6.26h-31.07ZM241.45,105.42c-5.03-2.88-9.39-6.31-13.1-10.31-3.71-3.99-6.78-8.62-9.21-13.89-2.43-5.27-4.26-11.31-5.47-18.12l6.75-1.52c1.13,6.24,2.78,11.75,4.92,16.51,2.15,4.76,4.84,8.89,8.09,12.37,3.24,3.49,7.05,6.45,11.43,8.88l-3.4,6.08Z"/><path class="cls-3" d="M252.92,88.7l-2.49-6.99c2.76-1.5,5.24-3.18,7.45-5.05,2.21-1.86,4.18-3.92,5.93-6.17,1.74-2.25,3.2-4.63,4.38-7.14l6.99.97c-1.58,3.4-3.52,6.64-5.81,9.7-2.29,3.06-4.81,5.84-7.57,8.33-2.76,2.49-5.72,4.61-8.88,6.35ZM251.52,65.04v-5.9h54.84v5.9h-54.84ZM251.52,103.9v-6.32h41.16v-14.29h-5.29v14.29h-5.78v-14.29h-5.35v14.29h-5.78v-14.29h-5.29v14.29h-6.87v-19.88h41.22v19.88h6.81v6.32h-54.84ZM267.02,62c-.81-1.7-1.69-3.37-2.64-5.02-.95-1.64-1.92-3.23-2.89-4.77l6.75-2.19c.97,1.5,1.94,3.08,2.89,4.74.95,1.66,1.83,3.37,2.64,5.11l-6.75,2.13ZM304.96,88.7c-3.12-1.74-6.06-3.86-8.82-6.35-2.76-2.49-5.27-5.27-7.54-8.33-2.27-3.06-4.24-6.29-5.9-9.7l6.99-.97c1.22,2.51,2.68,4.89,4.41,7.14,1.72,2.25,3.7,4.31,5.93,6.17,2.23,1.87,4.7,3.55,7.42,5.05l-2.49,6.99ZM291.04,61.34l-6.93-1.58c1.05-1.58,2.06-3.2,3.01-4.86.95-1.66,1.79-3.28,2.52-4.86l6.93,1.4c-.77,1.58-1.63,3.22-2.58,4.92-.95,1.7-1.94,3.37-2.95,4.99Z"/><g class="cls-6"><rect class="cls-2" x="4" y="290" width="795" height="178.66" rx="31.22" ry="31.22"/><path class="cls-1" d="M767.78,294c15.01,0,27.22,12.21,27.22,27.22v116.22c0,15.01-12.21,27.22-27.22,27.22H35.22c-15.01,0-27.22-12.21-27.22-27.22v-116.22c0-15.01,12.21-27.22,27.22-27.22h732.56M767.78,286H35.22c-19.45,0-35.22,15.77-35.22,35.22v116.22c0,19.45,15.77,35.22,35.22,35.22h732.56c19.45,0,35.22-15.77,35.22-35.22v-116.22c0-19.45-15.77-35.22-35.22-35.22h0Z"/></g><path class="cls-1" d="M84.64,401.05c3.14-.62,5.8-1.59,7.99-2.93,2.19-1.33,3.87-3,5.03-5,1.17-2,1.75-4.23,1.75-6.71,0-2.66-.68-4.95-2.03-6.85-1.36-1.9-3.33-3.34-5.92-4.32-2.59-.98-5.7-1.46-9.31-1.46s-7.03.45-10.1,1.36c-3.07.9-5.73,2.21-7.99,3.93-2.26,1.71-4.02,3.71-5.28,5.99-1.26,2.28-1.89,4.76-1.89,7.42,0,1.86.32,3.24.96,4.14.64.9,1.68,1.36,3.1,1.36,1.81,0,3.85-.63,6.14-1.89,2.28-1.26,4.76-3.06,7.42-5.39,2.66-2.33,5.41-5.12,8.24-8.35,2.83-3.24,5.65-6.85,8.46-10.85l6.07,4.35c-3.05,4.43-6.23,8.47-9.56,12.13-3.33,3.66-6.66,6.82-9.99,9.46-3.33,2.64-6.53,4.66-9.6,6.07-3.07,1.4-5.89,2.11-8.46,2.11-2.19-.05-4.12-.61-5.78-1.68-1.67-1.07-2.94-2.58-3.82-4.53-.88-1.95-1.32-4.26-1.32-6.92,0-3.57.84-6.92,2.53-10.06,1.69-3.14,4.04-5.88,7.07-8.21,3.02-2.33,6.55-4.15,10.6-5.46,4.04-1.31,8.45-1.96,13.2-1.96,5.19,0,9.71.8,13.56,2.39,3.85,1.59,6.82,3.85,8.89,6.78,2.07,2.93,3.1,6.41,3.1,10.46,0,3.62-.83,6.91-2.5,9.89-1.67,2.97-3.99,5.45-6.96,7.42-2.97,1.97-6.48,3.29-10.53,3.96l-3.07-6.64ZM71.22,361.36c-2.33,0-4.77-.04-7.32-.11-2.55-.07-5.01-.15-7.39-.25-2.38-.1-4.54-.21-6.5-.36l.36-6.78c1.81.14,3.9.28,6.28.39,2.38.12,4.83.2,7.35.25,2.52.05,4.95.07,7.28.07,5.28,0,10.62-.17,16.02-.5,5.4-.33,11.5-.88,18.31-1.64l.14,6.78c-6.76.76-12.87,1.31-18.34,1.64-5.47.33-10.87.5-16.2.5ZM68.37,398.05c-.52-4.04-.94-7.99-1.25-11.85-.31-3.85-.56-8.02-.75-12.49-.19-3.85-.32-8.08-.39-12.67-.07-4.59-.11-9.72-.11-15.38h8.07c0,5.24.04,10.01.11,14.31.07,4.31.18,8.27.32,11.88.24,4.66.51,8.97.82,12.92.31,3.95.73,7.92,1.25,11.92l-8.07,1.36Z"/><path class="cls-1" d="M116.45,356.44c10.37,0,22.27-.71,35.69-2.14l.21,7.57c-13.51,1.43-25.48,2.14-35.9,2.14v-7.57ZM116.95,396.19c3.57-8.42,6.57-16.77,8.99-25.05,2.43-8.28,4.43-16.89,6-25.84l8.07.79c-1.38,8.28-3.32,16.75-5.82,25.41-2.5,8.66-5.65,17.65-9.46,26.98l-7.78-2.28ZM149.35,407.47c-3.52,0-6.53-.55-9.03-1.64-2.5-1.1-4.43-2.68-5.78-4.75-1.36-2.07-2.01-4.56-1.96-7.46.05-4.38,1.57-7.75,4.57-10.13,3-2.38,7.28-3.57,12.85-3.57,2.28,0,4.59.33,6.92,1,2.33.67,4.73,1.75,7.21,3.25,2.47,1.5,5.1,3.43,7.89,5.78s5.84,5.18,9.17,8.46l-5.07,5.71c-3.9-3.71-7.14-6.72-9.71-9.03-2.57-2.31-4.78-4.08-6.64-5.32-1.86-1.24-3.52-2.06-5-2.46-1.48-.4-3.07-.61-4.78-.61-3.19,0-5.54.55-7.07,1.64-1.52,1.09-2.28,2.78-2.28,5.07s.74,4.02,2.21,5.21c1.47,1.19,3.64,1.79,6.5,1.79,3.19,0,5.59-.69,7.21-2.07,1.62-1.38,2.43-3.35,2.43-5.92v-36.83c8.23,0,15.63.36,22.2,1.07l-.71,7.42c-6.23-.71-13.11-1.07-20.63-1.07l7.42-5.35v33.98c0,5.19-1.51,9.12-4.53,11.81-3.02,2.69-7.48,4.03-13.38,4.03Z"/><path class="cls-1" d="M190.98,356.87c4.33-.1,8.49-.22,12.49-.39,4-.17,7.98-.38,11.96-.64,3.97-.26,8.05-.61,12.24-1.03,4.19-.43,8.59-.93,13.2-1.5l.57,7.42c-4.85.57-9.41,1.06-13.67,1.46-4.26.4-8.39.75-12.38,1.04s-7.98.51-11.96.68c-3.97.17-8.13.3-12.46.39v-7.42ZM192.12,406.47c1.95-6.42,3.74-12.96,5.35-19.59,1.62-6.64,3.07-13.39,4.35-20.27,1.28-6.88,2.38-13.83,3.28-20.88l8.49.43c-.81,6.85-1.84,13.76-3.1,20.73-1.26,6.97-2.72,13.91-4.39,20.81-1.67,6.9-3.52,13.68-5.57,20.34l-8.42-1.57ZM236.38,406.54c-4.38,0-8.16-.5-11.35-1.5-3.19-1-5.65-2.44-7.39-4.32-1.74-1.88-2.61-4.08-2.61-6.6,0-1.95.62-3.84,1.86-5.67,1.24-1.83,3.21-3.75,5.92-5.75l6.42,4.57c-1.81,1.14-3.15,2.2-4.03,3.18-.88.98-1.32,1.92-1.32,2.82,0,1.14.51,2.13,1.53,2.96,1.02.83,2.47,1.49,4.35,1.96,1.88.48,4.08.71,6.6.71,2.24,0,4.51-.12,6.82-.36,2.31-.24,4.72-.59,7.24-1.07l1,7.64c-2.67.52-5.21.89-7.64,1.11s-4.9.32-7.42.32ZM217.75,370.86c5.47-.76,10.77-1.38,15.88-1.86,5.11-.47,10.19-.81,15.24-1l.21,7.42c-4.81.19-9.81.53-15.02,1-5.21.48-10.39,1.07-15.52,1.78l-.79-7.35Z"/><path class="cls-1" d="M297.55,398.26c2.57-.33,4.93-1.07,7.07-2.21s4.01-2.63,5.6-4.46c1.59-1.83,2.82-3.95,3.68-6.35.86-2.4,1.28-4.94,1.28-7.6,0-3.95-.87-7.36-2.61-10.24-1.74-2.88-4.18-5.13-7.32-6.74-3.14-1.62-6.83-2.43-11.06-2.43-3.62,0-7.02.61-10.21,1.82-3.19,1.21-5.97,2.87-8.35,4.96-2.38,2.09-4.24,4.54-5.57,7.35-1.33,2.81-2,5.83-2,9.07,0,1.81.2,3.56.61,5.25.4,1.69.95,3.19,1.64,4.5.69,1.31,1.49,2.34,2.39,3.11.9.76,1.83,1.14,2.78,1.14,1.43,0,2.81-.88,4.14-2.64,1.33-1.76,2.61-4.44,3.82-8.03,1.21-3.59,2.36-8.03,3.43-13.31,1.07-5.28,2.03-11.47,2.89-18.56l8.21.93c-.95,7.19-2,13.53-3.14,19.02-1.14,5.5-2.34,10.21-3.6,14.13-1.26,3.93-2.64,7.15-4.14,9.67-1.5,2.52-3.17,4.38-5,5.57-1.83,1.19-3.82,1.79-5.96,1.79s-4.34-.56-6.32-1.68c-1.98-1.12-3.69-2.7-5.14-4.75-1.45-2.05-2.57-4.43-3.35-7.14-.79-2.71-1.18-5.71-1.18-8.99,0-4.47.84-8.58,2.53-12.31,1.69-3.73,4.08-7.01,7.17-9.81,3.09-2.81,6.72-4.96,10.89-6.46,4.16-1.5,8.7-2.25,13.6-2.25,5.9,0,11.04,1.1,15.42,3.28,4.38,2.19,7.74,5.32,10.1,9.39,2.36,4.07,3.53,8.86,3.53,14.38,0,3.67-.56,7.09-1.68,10.28-1.12,3.19-2.7,6.04-4.75,8.57-2.05,2.52-4.49,4.57-7.32,6.14-2.83,1.57-5.96,2.57-9.39,3l-2.71-7.35Z"/><path class="cls-1" d="M335.38,405.97l-4.57-6.28c3-2.52,5.52-5.09,7.57-7.71,2.05-2.62,3.73-5.35,5.07-8.21l4.85,3.14c-1.48,3.57-3.31,6.97-5.5,10.21-2.19,3.24-4.66,6.19-7.42,8.85ZM344.23,410.11v-23.63h-11.71v-6.85h11.71v-4.21h-11.71v-6.57h33.19v6.57h-13.2v4.21h12.42v6.85h-12.42v23.63h-8.28ZM332.81,358.36v-6.85h11.42v-7h8.28v7h13.49v6.85h-33.19ZM340.09,371.28c-.48-2.28-1.04-4.58-1.68-6.89-.64-2.31-1.35-4.55-2.11-6.74l6.92-1.93c.76,2.19,1.46,4.49,2.11,6.89.64,2.4,1.22,4.75,1.75,7.03l-6.99,1.64ZM358.29,400.91c-1.57-1.9-3.24-3.72-5-5.46-1.76-1.74-3.64-3.51-5.64-5.32l3.78-4.71c1.95,1.52,3.87,3.14,5.75,4.85,1.88,1.71,3.75,3.47,5.6,5.28l-4.5,5.35ZM355.93,374.5l-6.71-1.86c1.29-2.38,2.46-5.01,3.53-7.89s1.94-5.86,2.6-8.96l7.28,1c-.76,3.24-1.71,6.37-2.86,9.39-1.14,3.02-2.43,5.79-3.85,8.32ZM364.64,409.47l-6-5.64c1.57-2.19,2.93-4.39,4.07-6.6s2.12-4.69,2.93-7.42c.81-2.74,1.46-5.9,1.96-9.49.5-3.59.86-7.83,1.07-12.71.21-4.88.32-10.57.32-17.09h7.85c0,6.95-.14,13.09-.43,18.42-.29,5.33-.74,10.02-1.36,14.06-.62,4.04-1.4,7.64-2.36,10.78-.95,3.14-2.09,5.97-3.43,8.49-1.33,2.52-2.88,4.92-4.64,7.21ZM369,358.01v-7.49c5.04-.38,9.77-1,14.17-1.86,4.4-.86,8.32-1.9,11.74-3.14l2.07,7.49c-7.52,2.52-16.84,4.19-27.98,5ZM383.56,409.47v-34.9h-12.13v-7.57h26.48v7.57h-6.28v34.9h-8.07Z"/><path class="cls-1" d="M430.28,407.11c-4.9,0-8.86-.86-11.88-2.57-3.02-1.71-5.22-4.44-6.6-8.17-1.38-3.74-2.07-8.65-2.07-14.74v-33.12h8.64v33.12c0,4.33.4,7.77,1.21,10.31.81,2.55,2.14,4.37,4,5.46,1.86,1.09,4.33,1.64,7.42,1.64,5.81,0,10.98-1.77,15.52-5.32,4.54-3.54,8.46-8.86,11.74-15.95l7.14,3.71c-3.95,8.66-8.82,15.1-14.6,19.31-5.78,4.21-12.62,6.32-20.52,6.32Z"/><path class="cls-1" d="M494.7,405.54c-2.76,0-5.29-.8-7.6-2.39-2.31-1.59-4.31-3.83-6-6.71-1.69-2.88-3-6.27-3.93-10.17-.93-3.9-1.39-8.16-1.39-12.78,0-1.9.07-4.04.21-6.42.14-2.38.34-4.76.61-7.14.26-2.38.58-4.54.96-6.49l8.64.64c-.29,1.62-.56,3.51-.82,5.67-.26,2.17-.48,4.39-.64,6.67-.17,2.28-.25,4.38-.25,6.28,0,3.24.29,6.31.86,9.21.57,2.9,1.34,5.46,2.32,7.67.97,2.21,2.07,3.95,3.28,5.21,1.21,1.26,2.53,1.89,3.96,1.89s2.88-.72,4.21-2.18c1.33-1.45,2.57-3.62,3.71-6.5,1.14-2.88,2.19-6.44,3.14-10.67l7.99,3.21c-2.05,8.28-4.68,14.51-7.89,18.7-3.21,4.19-7.01,6.28-11.38,6.28ZM529.46,396.91c-.43-5.09-1.23-10.11-2.39-15.06-1.17-4.95-2.64-9.67-4.43-14.17-1.79-4.5-3.84-8.58-6.17-12.24l7.71-2.93c2.52,3.71,4.71,7.85,6.57,12.42,1.86,4.57,3.4,9.41,4.64,14.53,1.24,5.12,2.12,10.43,2.64,15.95l-8.57,1.5Z"/><path class="cls-1" d="M548.37,406.69l-4.07-7.14c6.61-4,12.31-8.1,17.09-12.31,4.78-4.21,8.72-8.65,11.81-13.31l5.35,3.57c-3.38,5.47-7.57,10.62-12.56,15.45-5,4.83-10.87,9.41-17.63,13.74ZM573.64,409.97v-31.83h-26.48v-7.07h26.48v-10.42h-23.77v-7.14h23.77v-8.64h8.57v8.64h23.77v7.14h-23.77v10.42h26.48v7.07h-26.48v31.83h-8.57ZM607.47,406.69c-6.76-4.33-12.66-8.91-17.7-13.74-5.04-4.83-9.23-9.98-12.56-15.45l5.42-3.57c3.09,4.66,7.03,9.1,11.81,13.31,4.78,4.21,10.48,8.32,17.09,12.31l-4.07,7.14Z"/><path class="cls-1" d="M623.05,408.19l-4.07-7.21c6.61-4,12.3-8.1,17.06-12.31,4.76-4.21,8.73-8.62,11.92-13.24l5.28,3.5c-3.38,5.43-7.57,10.58-12.56,15.45-5,4.88-10.87,9.48-17.63,13.81ZM648.32,409.97v-27.98h-27.69v-7.07h27.69v-16.13h-25.2v-6.99h25.2v-6.92h8.57v6.92h25.2v6.99h-25.2v16.13h27.69v7.07h-27.69v27.98h-8.57ZM635.9,375.78c-1.29-2.52-2.58-5.02-3.89-7.5-1.31-2.47-2.65-4.83-4.03-7.07l7.42-3.35c1.33,2.28,2.66,4.66,4,7.14,1.33,2.47,2.62,5,3.85,7.57l-7.35,3.21ZM682.16,408.19c-6.76-4.33-12.66-8.93-17.7-13.81-5.04-4.88-9.23-10.03-12.56-15.45l5.35-3.5c3.19,4.62,7.16,9.03,11.92,13.24,4.76,4.21,10.44,8.32,17.06,12.31l-4.07,7.21ZM669.45,375.85l-7.28-3.35c1.52-2.47,2.95-5.03,4.28-7.67,1.33-2.64,2.45-5.2,3.36-7.67l7.57,3c-.95,2.57-2.13,5.2-3.53,7.89-1.4,2.69-2.87,5.29-4.39,7.82Z"/><path class="cls-1" d="M752.41,401.05c-3.47-3.57-6.69-6.9-9.64-9.99-2.95-3.09-5.7-6.07-8.24-8.92-2.55-2.86-5.08-5.71-7.6-8.57-1.71-2-3.09-3.52-4.14-4.57-1.05-1.05-1.92-1.78-2.6-2.21-.69-.43-1.37-.64-2.03-.64-.57,0-1.17.23-1.78.68-.62.45-1.39,1.3-2.32,2.53-.93,1.24-2.2,3.02-3.82,5.35-1.62,2.52-3.43,5.21-5.43,8.07-2,2.85-4.4,6.16-7.21,9.92l-6.57-5.5c2.95-3.81,5.51-7.2,7.67-10.17,2.16-2.97,4.08-5.72,5.75-8.24,2.09-3.04,3.83-5.39,5.21-7.03,1.38-1.64,2.74-2.76,4.07-3.35,1.33-.6,2.81-.89,4.43-.89,1.28,0,2.43.13,3.43.39,1,.26,2.01.73,3.03,1.39,1.02.67,2.16,1.62,3.43,2.85,1.26,1.24,2.77,2.9,4.53,5,4.38,4.9,8.67,9.55,12.88,13.95,4.21,4.4,8.55,8.84,13.03,13.31l-6.07,6.64Z"/><path class="cls-1" d="M384.48,82.07c-.93,0-1.74-.34-2.43-1.03-.69-.69-1.03-1.5-1.03-2.43v-.85c0-.93.34-1.74,1.03-2.43.69-.69,1.5-1.03,2.43-1.03h12.34c.36,0,.55-.18.55-.55v-12.16c0-.93.33-1.74,1-2.43.67-.69,1.47-1.03,2.4-1.03h1.46c.93,0,1.73.34,2.4,1.03.67.69,1,1.5,1,2.43v12.16c0,.37.18.55.55.55h12.34c.93,0,1.74.34,2.43,1.03.69.69,1.03,1.5,1.03,2.43v.85c0,.93-.34,1.74-1.03,2.43-.69.69-1.5,1.03-2.43,1.03h-12.34c-.36,0-.55.18-.55.55v12.16c0,.93-.33,1.74-1,2.43-.67.69-1.47,1.03-2.4,1.03h-1.46c-.93,0-1.73-.34-2.4-1.03-.67-.69-1-1.5-1-2.43v-12.16c0-.37-.18-.55-.55-.55h-12.34Z"/><path class="cls-1" d="M408.62,180.36h12.13v73.64h-12.13v-73.64ZM382.25,180.36h12.13v73.64h-12.13v-73.64Z"/></g></g></g></svg>