<?xml version="1.0" encoding="UTF-8"?><svg id="_レイヤー_2" xmlns="http://www.w3.org/2000/svg" viewBox="0 0 1139 200.5"><defs><style>.cls-1{fill:#fff;stroke:#0e97a9;stroke-miterlimit:10;stroke-width:5px;}.cls-2{fill:#0e97a9;stroke-width:0px;}</style></defs><g id="_レイヤー_2-2"><polygon class="cls-1" points="1136.5 2.5 2.5 2.5 2.5 173.5 564.3 173.5 577 195.5 589.7 173.5 1136.5 173.5 1136.5 2.5"/><path class="cls-2" d="M343.38,64.9c8.2-.34,14.34-2.56,18.42-6.68,4.07-4.12,6.11-10.16,6.11-18.14l2.48,2.6h-30.16v-4.75h32.8v2.14c0,6.24-1.1,11.52-3.3,15.83-2.2,4.31-5.43,7.61-9.7,9.89-4.27,2.28-9.54,3.52-15.81,3.72l-.84-4.62Z"/><path class="cls-2" d="M380.41,55.15c2.27-.34,4.61-.92,7.03-1.74,2.42-.83,4.8-1.85,7.14-3.07,2.34-1.22,4.51-2.58,6.51-4.07,2-1.5,3.72-3.03,5.15-4.6l2.98,3.49c-1.57,1.68-3.46,3.31-5.67,4.89-2.21,1.58-4.58,3.03-7.1,4.35-2.52,1.32-5.09,2.43-7.71,3.34-2.62.91-5.15,1.55-7.58,1.91l-.76-4.49ZM393.77,70.99v-19.32h5.04v19.32h-5.04Z"/><path class="cls-2" d="M422.04,57.09c-.42-2.07-.89-4.08-1.41-6.03-.52-1.95-1.07-3.79-1.66-5.52l4.49-1.13c.53,1.57,1.06,3.33,1.6,5.27.53,1.95,1.04,4.09,1.51,6.45l-4.54.97ZM423.81,64.98c3.58-.36,6.59-1.01,9.03-1.93,2.44-.92,4.37-2.2,5.82-3.82,1.44-1.62,2.48-3.71,3.13-6.26.64-2.55.98-5.66,1.01-9.32l4.79.25c-.03,4.23-.47,7.87-1.32,10.92-.85,3.05-2.18,5.59-3.99,7.62-1.81,2.03-4.17,3.61-7.08,4.75-2.91,1.13-6.43,1.9-10.54,2.29l-.84-4.49ZM431.49,56.37c-.42-2.13-.89-4.21-1.41-6.24-.52-2.03-1.07-3.94-1.66-5.73l4.49-1.13c.62,1.88,1.2,3.84,1.74,5.9.55,2.06,1.01,4.12,1.41,6.2l-4.58,1.01Z"/><path class="cls-2" d="M458.7,71.2v-36.2h5.25v36.2h-5.25ZM486.21,59.48c-4.37-1.54-8.71-2.91-13.02-4.12-4.31-1.2-8.39-2.24-12.22-3.11l1.34-4.75c4,.87,8.22,1.93,12.64,3.19,4.42,1.26,8.69,2.6,12.81,4.03l-1.55,4.75Z"/><path class="cls-2" d="M494.29,51.5c2.8-.42,5.72-1.16,8.76-2.21,3.04-1.05,6.02-2.33,8.95-3.84,2.93-1.51,5.64-3.2,8.15-5.06,2.51-1.86,4.65-3.79,6.45-5.77l3.28,3.36c-1.51,1.71-3.3,3.37-5.35,5-2.06,1.62-4.29,3.15-6.7,4.58-2.41,1.43-4.9,2.72-7.48,3.89-2.58,1.16-5.16,2.15-7.75,2.96-2.59.81-5.1,1.4-7.54,1.76l-.76-4.66ZM511.46,71.2v-24.02h5.33v24.02h-5.33Z"/><path class="cls-2" d="M530.86,55.57v-5h34.52v5h-34.52Z"/><path class="cls-2" d="M586.28,54.48c-1.76-.59-3.41-1.11-4.94-1.55-1.53-.45-3.03-.86-4.51-1.24-1.48-.38-3.05-.74-4.7-1.07l1.43-4.28c1.6.36,3.14.73,4.64,1.09,1.5.36,3.02.77,4.56,1.22,1.54.45,3.21.97,5,1.55l-1.47,4.28ZM574.1,65.15c5.8-.11,10.65-.95,14.57-2.5,3.92-1.55,7.02-3.88,9.3-6.97,2.28-3.09,3.86-7.05,4.72-11.86l4.83.8c-.98,5.6-2.79,10.23-5.44,13.9-2.65,3.67-6.22,6.44-10.73,8.32-4.51,1.88-10.02,2.91-16.55,3.11l-.71-4.79ZM589.6,44.44c-1.79-.59-3.48-1.11-5.06-1.55-1.58-.45-3.15-.87-4.7-1.26-1.55-.39-3.19-.77-4.89-1.13l1.39-4.28c1.71.34,3.35.7,4.91,1.09,1.57.39,3.15.82,4.75,1.28,1.6.46,3.28.99,5.04,1.58l-1.43,4.28ZM600.94,42.6c-.76-1.54-1.49-2.9-2.21-4.07-.71-1.18-1.51-2.32-2.37-3.44l3.32-2.14c.95,1.21,1.81,2.44,2.56,3.7.76,1.26,1.5,2.63,2.23,4.12l-3.53,1.85ZM607.32,41.92c-.67-1.57-1.34-2.96-2.02-4.18-.67-1.22-1.41-2.39-2.23-3.51l3.36-1.93c.92,1.23,1.73,2.5,2.42,3.8.69,1.3,1.35,2.71,1.99,4.22l-3.53,1.6Z"/><path class="cls-2" d="M614.02,55.57v-5h34.52v5h-34.52Z"/><path class="cls-2" d="M676.71,62.17c0-3.22-.19-5.78-.57-7.69-.38-1.9-1.01-3.26-1.89-4.05-.88-.8-2.09-1.2-3.63-1.2-1.34,0-2.63.31-3.86.94-1.23.63-2.48,1.65-3.74,3.07-1.26,1.41-2.63,3.3-4.12,5.65l-4.12-2.39c1.37-2.13,2.6-4.1,3.7-5.92,1.09-1.82,2.08-3.61,2.96-5.36.88-1.75,1.69-3.54,2.44-5.38.74-1.83,1.48-3.84,2.21-6.03l4.91.88c-.87,2.55-1.79,4.93-2.77,7.14-.98,2.21-2.04,4.4-3.19,6.55l-1.18-.71c1.26-.78,2.59-1.37,3.99-1.76,1.4-.39,2.83-.59,4.28-.59,2.32,0,4.19.55,5.59,1.66,1.4,1.11,2.42,2.91,3.07,5.4.64,2.49.97,5.75.97,9.79h-5.04ZM654.91,39.07c9.69,0,20.82-.42,33.39-1.26l.17,4.03c-12.66.84-23.84,1.26-33.56,1.26v-4.03ZM676.33,70.69c-4.34,0-7.73-.65-10.16-1.95s-3.65-3.13-3.65-5.48c0-1.62.62-3.22,1.85-4.79,1.23-1.57,3.02-3.06,5.35-4.47,2.34-1.41,5.16-2.71,8.46-3.88,3.3-1.18,7.03-2.18,11.17-3.02l.71,4.12c-3.42.73-6.5,1.55-9.26,2.48-2.76.92-5.13,1.9-7.12,2.92-1.99,1.02-3.51,2.06-4.58,3.11-1.06,1.05-1.6,2.09-1.6,3.13,0,1.18.76,2.09,2.29,2.73,1.53.64,3.72.97,6.57.97,1.68,0,3.59-.11,5.73-.34,2.14-.22,4.44-.57,6.91-1.05l.67,4.24c-1.43.25-2.94.48-4.54.67-1.6.2-3.16.35-4.68.46-1.53.11-2.91.17-4.14.17Z"/><path class="cls-2" d="M697.77,71.28l-1.55-4.2c4.03-.76,7.61-1.67,10.73-2.75,3.12-1.08,5.84-2.32,8.15-3.72,2.31-1.4,4.27-2.97,5.88-4.7,1.61-1.74,2.93-3.67,3.97-5.8l4.91,1.18c-1.34,2.66-2.97,5.05-4.87,7.18-1.9,2.13-4.15,4.02-6.74,5.67-2.59,1.65-5.58,3.07-8.97,4.24-3.39,1.18-7.22,2.14-11.51,2.9ZM700.12,51.29v-4.03h12.56v-4.91h-15.88v-4.24h15.88v-4.37h5.21v4.37h15.88v4.24h-15.88v4.91h11.97v4.03h-29.74ZM732.79,71.28c-5.18-.95-9.69-2.21-13.52-3.78-3.84-1.57-7.09-3.49-9.77-5.75-2.67-2.27-4.89-4.91-6.66-7.94l4.79-1.64c1.12,1.79,2.46,3.46,4.03,5,1.57,1.54,3.43,2.93,5.59,4.16,2.16,1.23,4.65,2.33,7.48,3.3,2.83.97,6.03,1.79,9.62,2.46l-1.55,4.2Z"/><path class="cls-2" d="M743.59,70.48l-2.98-3.7,23.94-18.77.08,1.6c-3.89.36-7.65.63-11.28.8-3.63.17-7.32.25-11.07.25v-4.45c3.16,0,6.25-.03,9.26-.08,3.01-.06,6.01-.17,8.99-.34,2.98-.17,6.03-.35,9.14-.55l.25,4.16-11,8.86-2.39-.21c.11-.92.45-1.62,1.01-2.08.56-.46,1.34-.69,2.35-.69,1.32,0,2.31.27,2.98.82.67.54,1.14,1.22,1.41,2.02.27.8.47,1.6.61,2.42.17.87.37,1.67.61,2.42.24.74.64,1.33,1.22,1.76.57.43,1.42.65,2.54.65.45,0,1.06-.04,1.85-.11.78-.07,1.61-.17,2.48-.29.87-.13,1.61-.27,2.23-.44l.5,4.45c-.81.17-1.67.33-2.58.48-.91.15-1.79.27-2.65.34-.85.07-1.62.11-2.29.11-1.68,0-3.04-.22-4.07-.67-1.04-.45-1.83-1.02-2.37-1.72-.55-.7-.94-1.45-1.2-2.25-.25-.8-.46-1.55-.63-2.25-.14-.7-.29-1.29-.44-1.79-.15-.49-.39-.88-.69-1.18-.31-.29-.74-.44-1.3-.44-.25,0-.5.04-.76.13s-.57.25-.94.5c-.38.25-.9.66-1.58,1.22l-11.21,9.03ZM768.54,42.51c-2.3-.17-4.73-.4-7.31-.69-2.58-.29-5.19-.67-7.85-1.11-2.66-.45-5.25-.94-7.77-1.47l1.05-4.45c2.41.53,4.9,1.01,7.48,1.45,2.58.43,5.13.81,7.67,1.13,2.53.32,4.94.6,7.2.82l-.46,4.33Z"/><path class="cls-2" d="M797.31,70.44c-4.14,0-7.36-.67-9.64-2.02-2.28-1.34-3.42-3.23-3.42-5.67,0-2.07.86-3.69,2.58-4.85,1.72-1.16,4.1-1.74,7.12-1.74,2.86,0,5,.53,6.43,1.6,1.43,1.06,2.14,2.62,2.14,4.66,0,.78-.1,1.61-.31,2.48s-.52,1.76-.95,2.69l-4.58-.5c.39-.95.68-1.76.86-2.44.18-.67.27-1.26.27-1.76,0-1.9-1.39-2.86-4.16-2.86-1.48,0-2.61.23-3.38.69-.77.46-1.16,1.13-1.16,2,0,1.18.67,2.11,2.02,2.79,1.34.69,3.21,1.03,5.59,1.03,4.23,0,7.41-.68,9.55-2.04,2.14-1.36,3.21-3.38,3.21-6.07,0-2.35-.86-4.07-2.58-5.17-1.72-1.09-4.4-1.64-8.04-1.64-1.46,0-2.81.1-4.05.29-1.25.2-2.43.49-3.55.88-1.12.39-2.25.92-3.4,1.6l-4.96,2.9-2.06-3.78,23.81-13.65v.67c-2.38.25-4.73.46-7.04.63s-4.63.29-6.97.38c-2.34.08-4.74.13-7.2.13v-4.24c3.44,0,6.71-.04,9.79-.13,3.08-.08,6.1-.22,9.07-.42,2.97-.2,5.99-.43,9.07-.71l.63,4.24-20.96,12.14-2.44-2.35c.92-.31,1.95-.62,3.07-.92,1.12-.31,2.27-.56,3.46-.76,1.19-.2,2.38-.36,3.57-.48,1.19-.13,2.3-.19,3.34-.19,4.06,0,7.17.89,9.32,2.67,2.16,1.78,3.23,4.32,3.23,7.62,0,3.95-1.49,6.99-4.47,9.11-2.98,2.13-7.26,3.19-12.83,3.19Z"/><path class="cls-2" d="M292.53,114.56l-1.81-4.07c2.24-1.32,4.38-2.9,6.43-4.77,2.04-1.86,3.86-3.88,5.46-6.07l3.4,2.39c-1.76,2.52-3.81,4.86-6.13,7.01-2.32,2.16-4.77,3.99-7.35,5.5ZM292.45,127.03l-1.72-4.03c1.46-.84,2.86-1.85,4.2-3.02,1.34-1.18,2.52-2.44,3.53-3.78l2.52,2.98c-1.06,1.6-2.34,3.07-3.82,4.43-1.48,1.36-3.05,2.5-4.7,3.42ZM297.36,137.7c-.53,0-1.23-.06-2.1-.19-.87-.13-1.72-.32-2.56-.57l-.17-4.12c.84.22,1.61.39,2.31.5.7.11,1.23.17,1.6.17.31,0,.6-.24.88-.71.28-.48.5-1.34.67-2.6.17-1.26.25-3.04.25-5.33,0-4.34-.45-8.34-1.34-11.99-.9-3.65-2.27-7.09-4.12-10.31l4.2-2.18c1.96,3.42,3.42,7.14,4.37,11.17.95,4.03,1.43,8.47,1.43,13.31,0,2.6-.11,4.75-.34,6.43-.22,1.68-.56,2.99-1.01,3.93-.45.94-1.01,1.59-1.68,1.95-.67.36-1.47.55-2.39.55ZM303.49,137.07l-.25-4.37c3.95-.14,8.02-.41,12.22-.82,4.2-.41,8.44-.96,12.73-1.66l.5,3.95c-4.42.78-8.74,1.41-12.96,1.89-4.21.48-8.29.81-12.24,1.01ZM314.12,134.17v-11.47h-5.33v-4.07h5.33v-8.9h5.08v8.9h5.5v-8.9h-15.92v15.41h-4.66v-19.57h10v-5.63h5.08v5.63h10.12v17.14h-10.12v11.47h-5.08ZM326.93,138.46c-.34-1.29-.73-2.67-1.18-4.14-.45-1.47-.92-2.95-1.41-4.43-.49-1.48-.99-2.84-1.49-4.07l4.2-1.26c.5,1.29,1.01,2.67,1.53,4.14.52,1.47,1.01,2.94,1.47,4.41.46,1.47.86,2.83,1.2,4.09l-4.33,1.26Z"/><path class="cls-2" d="M337.56,137.62v-33.22h32.68v33.22h-5.04v-2.02h-22.6v-4.03h22.6v-5.17h-22.6v-3.86h22.6v-5.08h-22.6v-3.91h22.6v-5h-22.6v29.06h-5.04ZM353.69,107.38l-5.08-.67c.53-1.2,1.01-2.46,1.45-3.76.43-1.3.82-2.7,1.15-4.18l5.17.67c-.34,1.46-.73,2.84-1.18,4.16-.45,1.32-.95,2.58-1.51,3.78Z"/><path class="cls-2" d="M399.39,131.15c1.51-.2,2.9-.63,4.16-1.3,1.26-.67,2.36-1.55,3.3-2.62.94-1.08,1.66-2.32,2.16-3.74.5-1.41.76-2.91.76-4.47,0-2.32-.51-4.33-1.53-6.03-1.02-1.69-2.46-3.02-4.3-3.97-1.85-.95-4.02-1.43-6.51-1.43-2.13,0-4.13.36-6.01,1.07-1.88.71-3.51,1.69-4.91,2.92-1.4,1.23-2.49,2.67-3.28,4.33-.78,1.65-1.18,3.43-1.18,5.33,0,1.06.12,2.09.36,3.09.24.99.56,1.88.97,2.65.41.77.87,1.38,1.41,1.83.53.45,1.08.67,1.64.67.84,0,1.65-.52,2.44-1.55.78-1.04,1.53-2.61,2.25-4.72s1.39-4.73,2.02-7.83c.63-3.11,1.2-6.75,1.7-10.92l4.83.55c-.56,4.23-1.18,7.96-1.85,11.19-.67,3.23-1.38,6.01-2.12,8.32-.74,2.31-1.55,4.21-2.44,5.69-.88,1.48-1.86,2.58-2.94,3.28-1.08.7-2.25,1.05-3.51,1.05s-2.56-.33-3.72-.99c-1.16-.66-2.17-1.59-3.02-2.79-.85-1.2-1.51-2.6-1.97-4.2-.46-1.6-.69-3.36-.69-5.29,0-2.63.5-5.05,1.49-7.25.99-2.2,2.4-4.12,4.22-5.78,1.82-1.65,3.95-2.92,6.41-3.8,2.45-.88,5.12-1.32,8-1.32,3.47,0,6.5.64,9.07,1.93,2.58,1.29,4.56,3.13,5.94,5.52,1.39,2.39,2.08,5.22,2.08,8.46,0,2.16-.33,4.17-.99,6.05-.66,1.88-1.59,3.56-2.79,5.04-1.2,1.48-2.64,2.69-4.3,3.61-1.67.92-3.51,1.51-5.52,1.76l-1.6-4.33Z"/><path class="cls-2" d="M423.24,130.9c8.2-.34,14.34-2.56,18.42-6.68,4.07-4.12,6.11-10.16,6.11-18.14l2.48,2.6h-30.16v-4.75h32.8v2.14c0,6.24-1.1,11.52-3.3,15.83-2.2,4.31-5.43,7.61-9.7,9.89-4.27,2.28-9.54,3.52-15.81,3.72l-.84-4.62Z"/><path class="cls-2" d="M465.05,131.65c5.49-.25,10-.97,13.52-2.16,3.53-1.19,6.15-2.89,7.88-5.1,1.72-2.21,2.58-4.97,2.58-8.27l2.35,2.35h-31.5v-4.45h34.19v2.1c0,6.22-2.37,11.01-7.12,14.38s-11.81,5.26-21.19,5.65l-.71-4.49ZM463.04,107.63v-4.54h28.39v4.54h-28.39Z"/><path class="cls-2" d="M513.62,114.85c-2.16-1.57-4.34-3.02-6.55-4.37-2.21-1.34-4.47-2.59-6.76-3.74l2.77-4.24c2.35,1.12,4.63,2.36,6.85,3.72,2.21,1.36,4.42,2.85,6.64,4.47l-2.94,4.16ZM501.73,130.81c4.17-.39,7.87-1.16,11.09-2.29,3.22-1.13,6-2.66,8.34-4.58,2.34-1.92,4.26-4.25,5.75-6.99,1.5-2.74,2.62-5.95,3.38-9.62l4.7,1.05c-.98,5.57-2.83,10.28-5.54,14.13-2.72,3.85-6.31,6.87-10.79,9.05-4.48,2.18-9.87,3.56-16.17,4.12l-.76-4.87Z"/><path class="cls-2" d="M539.95,120.94v-4.49h37.04v4.49h-37.04ZM543.94,104.73c1.88,0,3.85-.06,5.92-.17,2.07-.11,4.17-.27,6.3-.48,2.13-.21,4.19-.47,6.17-.78,1.99-.31,3.87-.64,5.65-.99,1.78-.35,3.34-.72,4.68-1.11l1.3,4.37c-1.76.53-3.81,1.02-6.13,1.47-2.32.45-4.81.83-7.46,1.16s-5.37.57-8.17.73c-2.8.17-5.56.25-8.27.25v-4.45ZM544.49,132.33c2.69-.2,4.9-.57,6.64-1.11,1.74-.55,3.1-1.37,4.09-2.48.99-1.11,1.69-2.58,2.08-4.41.39-1.83.59-4.14.59-6.91v-11.84h5.12v11.84c0,3.36-.3,6.22-.9,8.59-.6,2.37-1.58,4.31-2.92,5.82-1.34,1.51-3.12,2.67-5.33,3.46-2.21.8-4.94,1.31-8.19,1.53l-1.18-4.49Z"/><path class="cls-2" d="M585.06,121.62l-.92-4.54,30.41-5.88.88,4.58-30.37,5.84ZM597.2,137.07l-5.08-28.27,4.96-.84,5.08,28.22-4.96.88ZM603.71,125.69c1.04-.5,1.98-1.14,2.83-1.91.85-.77,1.59-1.63,2.21-2.58.62-.95,1.09-1.92,1.43-2.92.34-.99.5-2,.5-3l4.75.5c-.03,1.34-.26,2.7-.69,4.05-.43,1.36-1.04,2.63-1.83,3.82-.78,1.19-1.69,2.27-2.73,3.23-1.04.97-2.18,1.76-3.44,2.37l-3.02-3.57Z"/><path class="cls-2" d="M623.06,117.5c2.8-.42,5.72-1.16,8.76-2.21,3.04-1.05,6.02-2.33,8.95-3.84,2.93-1.51,5.64-3.2,8.15-5.06,2.51-1.86,4.65-3.79,6.45-5.77l3.28,3.36c-1.51,1.71-3.3,3.37-5.35,5-2.06,1.62-4.29,3.15-6.7,4.58-2.41,1.43-4.9,2.72-7.48,3.89-2.58,1.16-5.16,2.15-7.75,2.96-2.59.81-5.1,1.4-7.54,1.76l-.76-4.66ZM640.23,137.2v-24.02h5.33v24.02h-5.33Z"/><path class="cls-2" d="M663.5,131.65c4.12-2.04,7.88-4.33,11.28-6.85,3.4-2.52,6.36-5.26,8.88-8.21s4.56-6.05,6.13-9.3l1.47,1.18h-25.2v-4.62h27.76l.92,3.74v.88c-1.65,3.64-3.89,7.17-6.72,10.58-2.83,3.42-6.13,6.55-9.89,9.41-3.77,2.86-7.89,5.33-12.37,7.43l-2.27-4.24ZM694.71,136.19c-1.6-1.82-3.16-3.47-4.7-4.96-1.54-1.48-3.14-2.88-4.79-4.18-1.65-1.3-3.43-2.53-5.33-3.67l3.28-3.65c2.8,1.79,5.43,3.74,7.9,5.86,2.46,2.11,4.87,4.5,7.22,7.16l-3.57,3.44ZM690.76,108.34c-.22-1.57-.52-3.04-.88-4.41-.36-1.37-.81-2.77-1.34-4.2l3.95-1.01c.5,1.43.95,2.84,1.32,4.24.38,1.4.68,2.94.9,4.62l-3.95.76ZM696.81,107.88c-.22-1.65-.5-3.15-.82-4.49-.32-1.34-.75-2.73-1.28-4.16l3.86-.92c.53,1.4.97,2.81,1.3,4.22s.62,2.96.84,4.64l-3.91.71Z"/><path class="cls-2" d="M705.61,130.9c3.95-.62,7.48-1.72,10.6-3.32,3.12-1.6,5.82-3.63,8.08-6.11,2.27-2.48,4.06-5.32,5.38-8.53,1.32-3.21,2.07-6.73,2.27-10.56l5.46.5c-.22,4.42-1.07,8.5-2.54,12.22-1.47,3.72-3.51,7.01-6.11,9.85s-5.71,5.19-9.3,7.04c-3.6,1.85-7.65,3.12-12.16,3.82l-1.68-4.91Z"/><path class="cls-2" d="M751.31,131.32c4.06-.06,7.55-.37,10.46-.95,2.91-.57,5.28-1.46,7.12-2.65,1.83-1.19,3.18-2.72,4.05-4.6.87-1.88,1.3-4.12,1.3-6.72v-5.12h-23.48v9.91h-4.96v-14.32h13.94v-6.85h5.04v6.85h14.53v9.53c0,4.34-.98,7.95-2.94,10.84-1.96,2.88-4.95,5.03-8.97,6.45-4.02,1.41-9.12,2.16-15.31,2.25l-.8-4.62Z"/><path class="cls-2" d="M783.02,132.54c1.79-3,3.35-6.06,4.66-9.2,1.32-3.14,2.42-6.35,3.3-9.64.88-3.29,1.53-6.62,1.95-9.97l5.21.29c-.39,3.67-1.04,7.27-1.95,10.79-.91,3.53-2.06,6.96-3.44,10.29-1.39,3.33-3.02,6.57-4.89,9.7l-4.83-2.27ZM816.87,135.06c-1.09-4.14-2.22-7.94-3.38-11.38-1.16-3.44-2.41-6.7-3.74-9.76-1.33-3.07-2.82-6.08-4.47-9.05l4.87-1.76c1.23,2.27,2.39,4.54,3.46,6.83,1.08,2.28,2.09,4.65,3.04,7.1.95,2.45,1.87,5.04,2.75,7.77.88,2.73,1.77,5.71,2.67,8.92l-5.21,1.34Z"/><path class="cls-2" d="M831.82,131.32c4.06-.06,7.55-.37,10.46-.95,2.91-.57,5.28-1.46,7.12-2.65,1.83-1.19,3.18-2.72,4.05-4.6.87-1.88,1.3-4.12,1.3-6.72v-5.12h-23.48v9.91h-4.96v-14.32h13.94v-6.85h5.04v6.85h14.53v9.53c0,4.34-.98,7.95-2.94,10.84-1.96,2.88-4.95,5.03-8.97,6.45-4.02,1.41-9.12,2.16-15.31,2.25l-.8-4.62Z"/></g></svg>