<?xml version="1.0" encoding="UTF-8"?><svg id="_レイヤー_2" xmlns="http://www.w3.org/2000/svg" viewBox="0 0 130.86 107.96"><defs><style>.cls-1{fill:#fff;stroke-width:0px;}</style></defs><g id="_レイヤー_2-2"><path class="cls-1" d="M0,37.13C0,13.44,13.13,0,30.77,0s30.77,13.44,30.77,37.13-13.03,37.13-30.77,37.13S0,60.82,0,37.13ZM44.82,37.13c0-16.31-5.74-23.08-14.05-23.08s-13.95,6.77-13.95,23.08,5.74,23.08,13.95,23.08,14.05-6.77,14.05-23.08Z"/><path class="cls-1" d="M130.86,50.36c0,14.67-12,23.9-27.18,23.9-19.8,0-32.1-12.41-32.1-35.59C71.57,13.85,86.54,0,108.19,0c7.59,0,14.98,1.74,20,4.92l-6.15,12.21c-4-2.67-8.62-3.59-13.44-3.59-12,0-19.69,7.08-20.21,20.82,4.21-4.21,10.26-6.36,17.74-6.36,13.85,0,24.72,8.82,24.72,22.36ZM114.75,51.18c0-6.56-4.82-10.77-12.21-10.77s-12.41,4.51-12.41,10.77,4.62,10.67,12.62,10.67c7.08,0,12-4.1,12-10.67Z"/><path class="cls-1" d="M34.83,94.69c0,4.52-3.39,7.33-8.81,7.33h-4.09v5.59h-4.69v-20.28h8.78c5.42,0,8.81,2.81,8.81,7.36ZM30.08,94.69c0-2.23-1.45-3.54-4.32-3.54h-3.83v7.04h3.83c2.87,0,4.32-1.3,4.32-3.51Z"/><path class="cls-1" d="M37.63,97.47c0-6.03,4.69-10.49,11.1-10.49s11.1,4.43,11.1,10.49-4.72,10.49-11.1,10.49-11.1-4.46-11.1-10.49ZM55.08,97.47c0-3.85-2.72-6.49-6.35-6.49s-6.35,2.64-6.35,6.49,2.72,6.49,6.35,6.49,6.35-2.64,6.35-6.49Z"/><path class="cls-1" d="M64.01,87.33h4.69v20.28h-4.69v-20.28Z"/><path class="cls-1" d="M92.65,87.33v20.28h-3.85l-10.11-12.31v12.31h-4.64v-20.28h3.88l10.08,12.31v-12.31h4.64Z"/><path class="cls-1" d="M102.1,91.16h-6.49v-3.83h17.68v3.83h-6.49v16.46h-4.69v-16.46Z"/></g></svg>