<?xml version="1.0" encoding="UTF-8"?><svg id="_レイヤー_2" xmlns="http://www.w3.org/2000/svg" xmlns:xlink="http://www.w3.org/1999/xlink" viewBox="0 0 285.63 285.63"><defs><style>.cls-1{filter:url(#drop-shadow-1);}.cls-2{fill:#fff;}.cls-2,.cls-3{stroke-width:0px;}.cls-3{fill:#0e97a9;}</style><filter id="drop-shadow-1" filterUnits="userSpaceOnUse"><feOffset dx="0" dy="0"/><feGaussianBlur result="blur" stdDeviation="3.79"/><feFlood flood-color="#000" flood-opacity=".3"/><feComposite in2="blur" operator="in"/><feComposite in="SourceGraphic"/></filter></defs><g id="_レイヤー_2-2"><rect class="cls-3" x="0" y="0" width="285.63" height="285.63" rx="30" ry="30"/><g class="cls-1"><path class="cls-2" d="M133.6,159.96h6.19c6.91,0,11.64-3.64,11.64-10.67,0-5.58-4.24-9.7-10.43-9.7s-9.7,3.76-10.43,8.97h-15.04c.61-13.7,11.89-23.04,26.32-23.04,15.28,0,26.44,10.55,26.44,23.04,0,9.46-5.82,15.28-11.4,18.31,7.16,3.52,12.61,10.07,12.61,20.01,0,13.58-9.46,24.5-26.68,24.5s-27.77-9.94-28.38-23.53h14.92c.85,5.34,4.85,9.22,12.37,9.22,6.79,0,10.92-4.85,10.92-11.04,0-7.4-4.25-11.76-12.86-11.76h-6.19v-14.31Z"/></g><path class="cls-2" d="M33.8,66.95l-.32-4.18c1.25-.24,2.54-.51,3.87-.81,1.33-.3,2.63-.64,3.89-1.01,1.26-.37,2.42-.75,3.47-1.13l.61,4.03c-1.08.38-2.29.77-3.62,1.15-1.33.38-2.69.75-4.07,1.1-1.38.35-2.66.63-3.83.85ZM37.36,76.13c-.29,0-.72-.01-1.3-.04-.58-.02-1.28-.07-2.12-.14l-.22-3.78c.72.02,1.34.05,1.87.09.53.04.9.05,1.12.05.19,0,.32-.02.4-.07.07-.05.11-.19.13-.41.01-.23.02-.63.02-1.21v-17.1h-3.71v-3.92h3.71v-5.87h4.61v5.87h3.1v3.92h-3.1v16.78c0,1.34-.04,2.41-.13,3.19-.08.78-.28,1.37-.58,1.76-.3.4-.75.64-1.35.74-.6.1-1.42.14-2.45.14ZM44.13,76.13l-1.73-3.92c4.92-1.06,8.9-2.59,11.93-4.61,3.04-2.02,5.23-4.4,6.57-7.16l3.78,1.94c-1.15,2.23-2.62,4.2-4.41,5.9-1.79,1.7-4,3.2-6.62,4.5-2.63,1.3-5.8,2.41-9.52,3.35ZM46.9,58.56l-2.92-3.35c.98-.72,1.75-1.43,2.29-2.14.54-.71.92-1.58,1.13-2.61.22-1.03.32-2.38.32-4.03v-1.84h13.36v8.35c0,.26.05.43.16.49.11.06.39.09.85.09.29,0,.51-.02.67-.07.16-.05.28-.2.36-.45s.15-.67.2-1.24c.05-.58.11-1.4.18-2.48l3.64.47c-.1,1.49-.2,2.71-.31,3.65-.11.95-.28,1.68-.5,2.2-.23.52-.58.9-1.06,1.15s-1.12.4-1.91.45c-.79.05-1.82.07-3.1.07-1.08,0-1.89-.06-2.43-.18-.54-.12-.89-.33-1.06-.63-.17-.3-.25-.75-.25-1.35v-6.55h-4.39v.07c-.02,1.56-.24,2.95-.65,4.18-.41,1.22-1,2.3-1.76,3.24-.77.94-1.7,1.78-2.81,2.52ZM44.53,62.38v-3.92h20.16v3.92h-20.16ZM65.33,76.16c-2.76-.67-5.35-1.55-7.78-2.65-2.42-1.09-4.6-2.38-6.53-3.85-1.93-1.48-3.57-3.08-4.91-4.81l3.46-2.48c1.66,2.14,3.97,4.07,6.93,5.8,2.96,1.73,6.44,3.1,10.42,4.1l-1.58,3.89Z"/><path class="cls-2" d="M72.38,56.94l-1.4-3.56c1.94-.62,3.69-1.25,5.24-1.87,1.55-.62,2.92-1.24,4.12-1.84l1.8,3.31c-1.25.67-2.68,1.34-4.3,2.02-1.62.67-3.44,1.32-5.45,1.94ZM72.78,76.63l-1.66-3.42c2.4-.58,4.66-1.24,6.77-1.98,2.11-.74,3.83-1.48,5.15-2.2l1.76,3.02c-.86.55-1.93,1.1-3.19,1.66-1.26.55-2.65,1.08-4.16,1.58-1.51.5-3.07.95-4.68,1.33ZM78.57,49.74c-.98-.43-2.06-.86-3.22-1.3-1.16-.43-2.39-.86-3.69-1.3l1.87-3.28c1.3.38,2.53.79,3.69,1.21,1.16.42,2.24.83,3.22,1.24l-1.87,3.42ZM74.58,70.66v-14.47h26.21v14.47h-21.28v-2.99h16.34v-1.26h-16.34v-2.41h16.34v-1.26h-16.34v-2.48h16.34v-1.26h-16.34v11.66h-4.93ZM80.19,57.12l-1.58-3.31c2.74-.43,4.89-.93,6.46-1.49,1.57-.56,2.71-1.21,3.4-1.94.7-.73,1.04-1.52,1.04-2.36v-.97h4.57v.97c0,1.32-.5,2.59-1.51,3.8-1.01,1.21-2.54,2.27-4.59,3.19-2.05.91-4.65,1.62-7.79,2.12ZM83.4,51.14l-3.31-2.52c1.25-.84,2.36-1.73,3.33-2.68.97-.95,1.77-1.9,2.39-2.86l4.54.54c-.41.89-.95,1.79-1.64,2.7-.68.91-1.48,1.78-2.38,2.61-.9.83-1.88,1.57-2.93,2.21ZM86.31,48.44v-3.42h17.03v3.42h-17.03ZM102.87,58.13c-2.9-.48-5.34-1.22-7.31-2.21-1.97-1-3.44-2.16-4.41-3.49-.97-1.33-1.46-2.8-1.46-4.41h4.39c0,.79.17,1.52.52,2.2.35.67.91,1.27,1.69,1.8.78.53,1.84,1,3.17,1.42,1.33.42,2.97.8,4.91,1.13l-1.51,3.56ZM102.19,76.85c-1.49-.77-3.24-1.54-5.26-2.3-2.02-.77-4.13-1.5-6.34-2.2l1.44-3.02c2.35.62,4.58,1.3,6.7,2.03,2.11.73,3.96,1.47,5.54,2.21l-2.09,3.28ZM99.35,52.73l-3.31-2.41c.77-.55,1.46-1.16,2.07-1.84.61-.67,1.11-1.32,1.49-1.94l3.74,1.91c-.46.72-1.03,1.46-1.71,2.21-.68.76-1.45,1.45-2.29,2.07Z"/><path class="cls-2" d="M109.21,76.24v-31.68h30.96v31.68h-4.68v-1.84h-21.6v-3.89h21.6v-22.03h-21.6v27.76h-4.68ZM117.16,67.02v-15.19h15.05v15.19h-10.76v-3.71h6.48v-7.7h-6.48v11.41h-4.28Z"/><path class="cls-2" d="M145.24,71.81l-.5-4.03c2.09-.43,4.28-.94,6.57-1.53,2.29-.59,4.59-1.24,6.89-1.96l.5,3.92c-2.28.77-4.56,1.46-6.84,2.07-2.28.61-4.49,1.12-6.62,1.53ZM146.86,69.29v-22.9h4.28v22.9h-4.28ZM154.64,76.42v-32.69h4.54v32.69h-4.54ZM160.94,76.34l-2.45-4.03c2.83-1.51,5.33-3.4,7.49-5.67,2.16-2.27,3.94-4.88,5.33-7.85,1.39-2.96,2.33-6.21,2.81-9.74l4.57.5c-.58,4.2-1.65,7.99-3.22,11.38-1.57,3.38-3.57,6.35-5.99,8.91-2.42,2.56-5.27,4.72-8.53,6.5ZM160.4,49.56v-4.07h18.29v4.07h-18.29ZM177.54,76.31c-3-1.7-5.59-3.72-7.78-6.05-2.18-2.33-4-5.04-5.44-8.14-1.44-3.1-2.53-6.65-3.28-10.66l4.43-1.08c.67,3.67,1.63,6.89,2.88,9.65,1.25,2.76,2.83,5.14,4.73,7.13,1.91,1.99,4.13,3.7,6.68,5.11l-2.23,4.03Z"/><path class="cls-2" d="M196.26,75.95c-.65,0-1.45-.02-2.41-.05-.96-.04-2.14-.08-3.53-.13l-.22-4.07c1.27.07,2.35.12,3.22.14.88.02,1.55.04,2.03.04.53,0,.91-.02,1.13-.07.23-.05.37-.19.41-.43.05-.24.07-.62.07-1.15v-9.07h-14.62v-4.14h33.12v4.14h-13.57v8.96c0,1.32-.06,2.38-.18,3.17s-.36,1.38-.72,1.76c-.36.38-.91.63-1.66.74-.74.11-1.78.16-3.1.16ZM187.04,48.66v-3.92h24.34v3.92h-24.34ZM202.81,60.76c-2.09-1.39-4.18-2.75-6.26-4.07-2.09-1.32-4.22-2.6-6.41-3.85l2.59-3.35c2.33,1.32,4.52,2.65,6.57,3.98,2.05,1.33,4.04,2.68,5.96,4.05l-2.45,3.24ZM199.82,57.48l-2.41-3.1c2.14-1.32,4.12-2.68,5.96-4.09,1.84-1.4,3.62-2.92,5.35-4.55l2.66,2.92c-1.78,1.68-3.6,3.23-5.47,4.66-1.87,1.43-3.9,2.81-6.08,4.16ZM207.77,69.18l-3.1-3.31c1.39-1.08,2.72-2.23,3.98-3.46,1.26-1.22,2.44-2.52,3.55-3.89l3.28,2.63c-1.06,1.39-2.23,2.76-3.53,4.1-1.3,1.34-2.69,2.65-4.18,3.92Z"/><path class="cls-2" d="M225.09,60.68c-.91-.91-1.88-1.82-2.92-2.74-1.03-.91-2.12-1.84-3.28-2.77l2.63-3.06c1.15.89,2.26,1.79,3.31,2.7,1.06.91,2.04,1.82,2.95,2.74l-2.7,3.13ZM223.44,76.13l-3.82-2.27c.84-1.54,1.64-3.25,2.39-5.13.76-1.88,1.41-3.79,1.96-5.71l4,1.51c-.36,1.34-.78,2.71-1.26,4.1-.48,1.39-1,2.73-1.57,4.01-.56,1.28-1.13,2.44-1.71,3.47ZM225.56,51.79c-.79-.79-1.66-1.6-2.61-2.43-.95-.83-1.93-1.65-2.93-2.47l2.66-2.95c1.01.82,1.99,1.63,2.95,2.45.96.82,1.84,1.61,2.63,2.38l-2.7,3.02ZM229.67,76.6l-3.31-2.3c.96-1.15,1.84-2.34,2.63-3.56.79-1.22,1.42-2.38,1.87-3.46l3.46,1.73c-.67,1.51-1.41,2.93-2.21,4.27-.8,1.33-1.61,2.44-2.43,3.33ZM228.19,67.09v-22.54h12.06v22.54h-7.88v-3.74h4.03v-2.81h-4.03v-3.28h4.03v-2.84h-4.03v-3.31h4.03v-2.81h-4.03v18.79h-4.18ZM238.88,76.38c-.6-1.18-1.29-2.37-2.07-3.58-.78-1.21-1.58-2.36-2.39-3.44l3.28-1.91c.89,1.1,1.73,2.28,2.52,3.53.79,1.25,1.46,2.44,2.02,3.56l-3.35,1.84ZM241.87,68.5v-22.82h3.89v22.82h-3.89ZM247.85,76.13c-.34,0-.95-.02-1.84-.05-.89-.04-1.87-.08-2.95-.13l-.22-4.14c.91.05,1.67.09,2.27.13.6.04,1.06.05,1.37.05.36,0,.61-.02.76-.07.14-.05.24-.19.29-.41.05-.23.07-.62.07-1.17v-26.1h4.5v26.06c0,1.32-.04,2.37-.13,3.15-.08.78-.26,1.36-.54,1.75-.28.38-.7.64-1.28.76-.58.12-1.34.18-2.3.18Z"/><path class="cls-2" d="M79.5,190.42c.43-.14.5-.11.68.22,1.15,2.12,2.05,4.39,2.66,6.52.11.4.04.58-.43.72l-1.91.61c-.4.11-.54.07-.61-.25l-.43-1.62c-.83.11-1.66.18-2.48.25v9.9c0,3.31.07,4.54.07,4.72,0,.36-.04.4-.4.4h-2.74c-.36,0-.4-.04-.4-.4,0-.22.07-1.4.07-4.72v-9.61l-3.38.22c-.61.04-1.12.18-1.33.29-.18.11-.32.18-.54.18-.25,0-.36-.25-.43-.61-.18-.86-.32-1.69-.5-3.02,1.08.07,2.05.11,2.99.07l2.02-2.74c-1.48-1.84-3.1-3.6-4.86-5.26-.14-.14-.22-.22-.22-.32s.11-.25.25-.47l1.33-1.76c.14-.22.25-.32.36-.32s.18.07.32.22l.9.94c.72-1.19,1.33-2.3,1.94-3.64.47-.97.65-1.55.83-2.23.97.36,2.23.86,3.13,1.33.32.18.47.36.47.58,0,.18-.14.32-.32.47-.29.22-.43.4-.68.86-1.15,1.98-2.05,3.42-3.17,4.97.54.61,1.08,1.19,1.58,1.8.83-1.3,1.62-2.63,2.41-4,.43-.79.83-1.69,1.12-2.48,1.08.5,2.2,1.04,3.02,1.55.32.18.43.32.43.54,0,.25-.11.4-.4.54-.36.22-.65.61-1.19,1.48-1.84,2.92-3.82,5.69-5.47,7.81,1.4-.07,2.88-.14,4.28-.25-.32-.79-.65-1.55-1.01-2.27-.18-.36-.11-.43.36-.61l1.66-.58ZM69.02,201.26c.07-.68.11-1.22.07-2.02,1.08.14,2.05.25,2.77.4.43.07.61.25.61.43s-.11.32-.22.54c-.11.14-.14.58-.22,1.15-.22,2.09-.76,4.86-1.37,6.91-.14.54-.29.79-.5.79-.18,0-.43-.14-.83-.43-.5-.36-1.4-.72-1.91-.86.86-2.38,1.37-4.61,1.58-6.91ZM80.43,199.13c.43-.14.5-.07.65.32.65,1.94,1.44,4.64,1.84,6.8.07.4.04.5-.43.65l-1.91.65c-.54.18-.58.07-.65-.29-.36-2.2-1.08-5.26-1.62-6.91-.14-.4-.11-.47.32-.61l1.8-.61ZM86.7,188.08c-.76,1.37-1.66,2.74-2.81,4.03-.4.43-.58.65-.79.65-.18,0-.4-.22-.76-.65-.65-.79-1.3-1.33-1.94-1.69,2.81-3.02,4.21-5.76,5.15-8.71.29-.94.54-1.94.68-3.06,1.37.25,2.77.58,3.49.76.47.14.76.32.76.58,0,.29-.04.4-.36.72-.29.25-.65.83-1.01,1.84-.25.72-.5,1.48-.83,2.2h6.8c2.59,0,3.42-.07,3.64-.07.36,0,.43.07.43.43-.07,1.01-.07,1.98-.07,2.99-.04,8.28-.29,13.28-1.04,18.04-.58,3.67-2.09,5.4-5.47,5.47-.76,0-1.76.04-2.7-.04q-1.08-.07-1.33-1.22c-.22-.97-.61-2.05-1.01-2.74,1.94.25,3.17.36,4.57.32,1.33,0,1.94-1.19,2.3-3.1.68-3.89.9-9.25.9-16.74h-8.6ZM86.66,192.94c.4-.22.5-.14.72.11,1.58,2.02,3.02,4.5,4.1,6.88.18.36.11.47-.32.68l-2.27,1.37c-.4.25-.54.18-.68-.22-1.04-2.56-2.34-4.82-3.78-6.95-.25-.36-.25-.47.22-.72l2.02-1.15Z"/><path class="cls-2" d="M186.55,203.85c-3.17,0-4.28.07-4.5.07-.36,0-.4-.04-.4-.4v-2.84c0-.32.04-.36.4-.36.22,0,1.33.07,4.5.07h.86v-5.04c0-2.05-.07-3.02-.07-3.24,0-.36.04-.4.43-.4.22,0,1.44.07,4.93.07h4.61v-4.79h-7.38c-1.19,1.8-2.59,3.53-4.21,5.15-.36.4-.58.58-.76.58s-.36-.22-.72-.68c-.68-.94-1.33-1.51-2.02-1.94,2.99-2.59,5.18-5.58,6.66-8.71.43-.9.76-1.76.94-2.63,1.3.25,2.48.5,3.46.79.43.14.65.32.65.61s-.18.43-.43.68c-.29.25-.54.54-.9,1.3l-.72,1.55h14.87c3.49,0,4.72-.07,4.93-.07.36,0,.4.04.4.4v2.66c0,.36-.04.4-.4.4-.22,0-1.44-.07-4.93-.07h-5.54v4.79h3.85c3.53,0,4.72-.07,4.93-.07.32,0,.36.04.36.4v2.7c0,.36-.04.4-.36.4-.22,0-1.4-.07-4.93-.07h-3.85v5.26h7.63c3.17,0,4.28-.07,4.5-.07.36,0,.4.04.4.36v2.84c0,.36-.04.4-.4.4-.22,0-1.33-.07-4.5-.07h-7.63v1.76c0,3.78.07,5.69.07,5.87,0,.36-.04.4-.4.4h-3.2c-.4,0-.43-.04-.43-.4,0-.22.07-2.09.07-5.87v-1.76h-10.76ZM197.31,200.39v-5.26h-6.08v5.26h6.08Z"/><rect class="cls-2" x="47" y="88.82" width="192" height="6"/></g></svg>