<?xml version="1.0" encoding="UTF-8"?><svg id="_レイヤー_2" xmlns="http://www.w3.org/2000/svg" viewBox="0 0 416.5 124"><defs><style>.cls-1{fill:#fff;stroke:#0e97a9;stroke-miterlimit:10;stroke-width:5px;}.cls-2{fill:#4d4d4d;stroke-width:0px;}</style></defs><g id="_レイヤー_2-2"><polygon class="cls-1" points="414 2.5 2.5 2.5 2.5 97 195.55 97 208.25 119 220.95 97 414 97 414 2.5"/><path class="cls-2" d="M38.71,68.33l-3.86-4.58c.87-1.2,1.64-2.46,2.31-3.76.67-1.3,1.24-2.79,1.7-4.47s.84-3.68,1.13-5.99c.29-2.31.51-5.05.65-8.21.14-3.16.21-6.89.21-11.17h5.42c0,4.56-.09,8.58-.27,12.03-.18,3.46-.46,6.5-.82,9.14-.36,2.63-.84,4.96-1.43,6.97-.59,2.02-1.3,3.83-2.14,5.44-.84,1.61-1.81,3.14-2.9,4.6ZM49.97,67.53c-.56,0-1.44-.05-2.62-.15-1.19-.1-2.51-.2-3.97-.31l-.25-5.08c.95.11,1.87.21,2.75.29.88.08,1.55.13,2,.13.28,0,.54-.11.78-.34.24-.22.43-.67.59-1.34.15-.67.29-1.65.42-2.94.13-1.29.22-2.99.27-5.1.06-2.11.08-4.74.08-7.88v-3.28h-14.15v-4.91h19.49v4.62c0,4.9-.06,8.96-.17,12.18-.11,3.22-.3,5.78-.57,7.67-.27,1.89-.6,3.3-.99,4.22-.39.92-.9,1.53-1.51,1.81-.62.28-1.33.42-2.14.42ZM57.32,67.49v-34.1h16.04v34.1h-5.5v-2.35h-5.38v-4.62h5.38v-22.39h-5.38v29.36h-5.17Z"/><path class="cls-2" d="M79.46,67.91v-4.45h29.15v-5.92h-3.91v5.92h-4.2v-5.92h-3.95v5.92h-4.2v-5.92h-3.91v5.92h-5.21v-10h30.58v10h3.78v4.45h-38.14ZM80.68,52.16v-20.24h15.08v18.19h-9.91v-3.91h5.04v-3.32h-5.04v-3.49h5.04v-3.32h-5.04v16.09h-5.17ZM95.96,54.43l-3.91-3.57c1.2-.67,2.21-1.36,3.02-2.08.81-.71,1.46-1.49,1.95-2.33.49-.84.85-1.81,1.09-2.9.24-1.09.36-2.35.36-3.78v-8.27h17.89v15.58c0,1.48-.05,2.65-.15,3.51-.1.85-.29,1.49-.59,1.91-.29.42-.74.69-1.32.8-.59.11-1.36.17-2.31.17-.64,0-1.49-.03-2.54-.08-1.05-.06-2.29-.11-3.72-.17l-.25-4.24c.98.06,1.82.1,2.52.15.7.04,1.2.06,1.51.06.45,0,.77-.02.97-.06.2-.04.31-.16.36-.36.04-.2.06-.49.06-.88v-.97h-9.49v-3.32h9.49v-2.44h-7.35v-3.32h7.35v-2.18h-7.35v6.3c0,2.77-.6,5.17-1.81,7.18-1.2,2.02-3.14,3.78-5.8,5.29Z"/><path class="cls-2" d="M126.3,68.5l-3.91-4.62c.59-1.06,1.09-2.22,1.51-3.46.42-1.25.76-2.65,1.03-4.22.27-1.57.47-3.38.61-5.44.14-2.06.21-4.42.21-7.08v-9.83h14.66v-4.16h5.71v4.16h14.62v4.58h-29.57v9.11c0,3.22-.18,6.1-.55,8.63-.36,2.53-.9,4.8-1.62,6.8-.71,2-1.62,3.84-2.71,5.52ZM131.51,68.66v-17.68h10.16v-13.69h5.59v5.04h13.06v4.41h-13.06v4.24h12.14v17.68h-5.59v-2.02h-16.76v-4.33h16.76v-6.85h-16.76v13.19h-5.54Z"/><path class="cls-2" d="M168.32,68.33l-1.93-4.83c2.74-.39,5.12-.9,7.12-1.51,2-.62,3.65-1.33,4.94-2.14,1.29-.81,2.24-1.68,2.86-2.6h7.77c.62.92,1.58,1.79,2.9,2.58,1.32.8,2.97,1.52,4.96,2.16,1.99.64,4.35,1.15,7.1,1.51l-1.93,4.83c-2.49-.42-4.81-1.04-6.95-1.87-2.14-.83-4.03-1.78-5.65-2.88-1.62-1.09-2.97-2.24-4.03-3.44-1.04,1.2-2.39,2.35-4.07,3.44-1.68,1.09-3.63,2.05-5.84,2.88-2.21.83-4.62,1.45-7.22,1.87ZM166.47,57.58v-4.37h37.46v4.37h-37.46ZM166.97,41.24v-8.15h15.37v-3.07h5.71v3.07h15.37v8.15h-5.21v-3.82h-26.04v3.82h-5.21ZM182.34,54.22v-3.65h-11.84v-3.99h11.84v-2.44h-12.26v-4.16h12.26v-3.23h5.71v3.23h12.26v4.16h-12.26v2.44h11.84v3.99h-11.84v3.65h-5.71Z"/><path class="cls-2" d="M214.35,47.41c-.53-.78-1.13-1.65-1.78-2.6-.66-.95-1.32-1.9-2-2.86-.67-.95-1.3-1.83-1.89-2.65l2.31-4.58c.92,1.29,1.89,2.66,2.9,4.12,1.01,1.46,1.89,2.79,2.65,3.99l-2.18,4.58ZM212.29,66.61l-3.53-.63c.34-1.9.62-3.83.86-5.77.24-1.95.43-3.9.57-5.86l3.53.29c-.11,2.02-.29,4.03-.52,6.05-.24,2.02-.54,3.99-.9,5.92ZM209.35,52.75l-.17-4.45,14.03-.84.04,4.33-13.9.97ZM214.81,41.36l-3.36-2.39c.76-1.46,1.44-2.92,2.06-4.39.62-1.47,1.22-2.97,1.81-4.51l4.16,1.55c-.7,1.62-1.44,3.25-2.23,4.87-.78,1.62-1.6,3.25-2.44,4.87ZM215.1,51.4l-3.44-2.23c1.6-2.38,3.1-4.77,4.51-7.18,1.41-2.41,2.76-4.89,4.05-7.43l3.91,1.81c-1.37,2.63-2.79,5.19-4.26,7.67-1.47,2.48-3.06,4.94-4.77,7.37ZM214.52,68.66v-17.64h4.96v17.64h-4.96ZM222.33,53.33c-.22-1.04-.48-2.16-.76-3.36-.28-1.2-.57-2.4-.86-3.59-.29-1.19-.6-2.26-.9-3.21l3.4-.97c.31,1.04.62,2.16.92,3.36.31,1.2.6,2.42.88,3.63.28,1.22.52,2.35.71,3.38l-3.4.76ZM220.94,64.3c-.06-.95-.13-2-.21-3.15-.08-1.15-.18-2.31-.29-3.49-.11-1.18-.22-2.24-.34-3.19l3.36-.46c.14.95.27,2.02.38,3.19.11,1.18.22,2.36.34,3.55.11,1.19.18,2.26.21,3.21l-3.44.34ZM223.63,69l-1.64-3.82c2.1-.59,4.07-1.27,5.92-2.04,1.85-.77,3.4-1.55,4.66-2.33l1.89,3.57c-1.23.84-2.81,1.68-4.73,2.52-1.92.84-3.96,1.54-6.11,2.1ZM223.46,45.1v-3.49h9.7v-1.18h-8.15v-2.98h8.15v-1.18h-8.99v-3.78h8.99v-2.39h5.75v2.39h9.37v3.78h-9.37v1.18h8.4v2.98h-8.4v1.18h10.08v3.49h-25.54ZM224.97,61.94v-15.62h22.51v15.62h-16.97v-3.4h11.3v-1.18h-11.3v-2.73h11.3v-1.18h-11.3v-2.73h11.3v-1.22h-11.3v12.43h-5.54ZM247.4,69.17c-1.34-.76-2.93-1.51-4.77-2.25-1.83-.74-3.75-1.45-5.73-2.12l1.55-3.78c2.1.64,4.07,1.34,5.92,2.1,1.85.76,3.49,1.51,4.91,2.27l-1.89,3.78Z"/><path class="cls-2" d="M275.47,61.31c1.48-.2,2.84-.63,4.07-1.3,1.23-.67,2.3-1.53,3.19-2.58.9-1.05,1.59-2.25,2.08-3.59.49-1.34.74-2.79.74-4.33,0-2.24-.5-4.18-1.49-5.82-.99-1.64-2.38-2.92-4.16-3.84-1.78-.92-3.89-1.39-6.32-1.39-2.07,0-4.01.34-5.82,1.03-1.81.69-3.39,1.63-4.75,2.83-1.36,1.2-2.42,2.62-3.19,4.24-.77,1.62-1.16,3.35-1.16,5.17,0,1.04.11,2.02.34,2.94.22.92.53,1.76.92,2.5.39.74.84,1.33,1.34,1.76.5.43,1.01.65,1.51.65.81,0,1.59-.51,2.33-1.53.74-1.02,1.44-2.55,2.1-4.6.66-2.04,1.29-4.61,1.91-7.69.62-3.08,1.19-6.68,1.72-10.79l5.42.59c-.59,4.31-1.23,8.11-1.91,11.4-.69,3.29-1.41,6.09-2.16,8.4-.76,2.31-1.58,4.19-2.46,5.65-.88,1.46-1.86,2.52-2.94,3.19-1.08.67-2.26,1.01-3.55,1.01-1.4,0-2.7-.34-3.88-1.01-1.19-.67-2.23-1.62-3.11-2.84-.88-1.22-1.56-2.65-2.04-4.28-.48-1.64-.71-3.42-.71-5.35,0-2.66.49-5.1,1.47-7.33.98-2.23,2.38-4.16,4.2-5.82,1.82-1.65,3.96-2.93,6.43-3.82,2.46-.9,5.18-1.34,8.15-1.34,3.5,0,6.54.66,9.14,1.97,2.59,1.32,4.58,3.18,5.98,5.59,1.4,2.41,2.1,5.25,2.1,8.53,0,2.18-.33,4.23-.99,6.13-.66,1.9-1.59,3.59-2.79,5.06-1.2,1.47-2.65,2.67-4.33,3.61-1.68.94-3.56,1.55-5.63,1.83l-1.76-4.83Z"/><path class="cls-2" d="M297.39,51.44v-5.63h38.14v5.63h-38.14Z"/><path class="cls-2" d="M342.38,54.51l-1.6-6.3c1.01-1.71,1.88-3.46,2.62-5.25.74-1.79,1.38-3.72,1.91-5.8.53-2.07.98-4.33,1.34-6.76l4.83.55c-.34,3.28-.85,6.31-1.53,9.11-.69,2.8-1.49,5.29-2.42,7.48l-.25-3.44c-.22.81-.53,1.7-.9,2.67-.38.97-.79,1.93-1.24,2.88-.45.95-.91,1.85-1.39,2.71-.48.85-.94,1.57-1.39,2.16ZM344.15,68.66v-27.22h5.17v27.22h-5.17ZM352.84,56.19l-3.57-3.78c.98-1.62,1.85-3.42,2.62-5.38.77-1.96,1.39-4.02,1.87-6.17.48-2.16.77-4.3.88-6.43l5.25.25c-.17,2.74-.6,5.45-1.28,8.13-.69,2.67-1.52,5.17-2.5,7.48-.98,2.31-2.07,4.28-3.28,5.9ZM351.24,36.49v-4.58h16.42v4.58h-16.42ZM354.73,68.45l-3.32-3.91c1.65-1.18,3.13-2.48,4.43-3.91,1.3-1.43,2.41-3,3.34-4.7.92-1.71,1.66-3.56,2.21-5.56.55-2,.87-4.15.99-6.45l4.62.92c-.17,3.47-.78,6.73-1.85,9.79-1.06,3.05-2.49,5.76-4.28,8.13-1.79,2.37-3.84,4.26-6.13,5.69ZM359.31,56.11c-.81-.62-1.65-1.24-2.52-1.87-.87-.63-1.72-1.22-2.56-1.78l2.31-4.03c.9.59,1.78,1.19,2.65,1.81.87.62,1.69,1.23,2.48,1.85l-2.35,4.03ZM356.49,44.85v-4.24h10.5v4.24h-10.5ZM367.75,59.84v-26.63h4.75v26.63h-4.75ZM375.06,68.33c-.39,0-1.11-.02-2.14-.06-1.04-.04-2.18-.09-3.44-.15l-.25-4.83c1.06.06,1.95.1,2.65.15.7.04,1.23.06,1.6.06.42,0,.71-.03.88-.08.17-.06.28-.22.34-.48.06-.27.08-.72.08-1.36v-30.45h5.25v30.41c0,1.54-.05,2.77-.15,3.67-.1.91-.31,1.59-.63,2.04-.32.45-.82.74-1.49.88-.67.14-1.57.21-2.69.21Z"/></g></svg>