<?xml version="1.0" encoding="UTF-8"?><svg id="_レイヤー_2" xmlns="http://www.w3.org/2000/svg" viewBox="0 0 856.66 590.77"><defs><style>.cls-1{fill:#000;}.cls-1,.cls-2{stroke-width:0px;}.cls-3{fill:none;stroke:#000;stroke-miterlimit:10;stroke-width:.5px;}.cls-2{fill:#9dc938;}</style></defs><g id="_モーダル"><circle class="cls-3" cx="78.46" cy="78.46" r="78.21"/><path class="cls-1" d="M34.04,88.04l-.44-1.36c.68-.27,1.31-.56,1.88-.87.57-.31,1.08-.64,1.52-.97l.52,1.26c-.45.35-.97.68-1.56,1.01-.59.33-1.23.64-1.92.93ZM35.92,82.5c-.29-.57-.63-1.18-1-1.81-.37-.63-.77-1.27-1.2-1.91l1.24-.76c.43.65.82,1.3,1.19,1.93.37.63.7,1.24,1.01,1.83l-1.24.72ZM35.44,92.74l-1.12-1.08c.37-.41.69-.83.96-1.24.27-.41.49-.87.66-1.36.17-.49.31-1.05.42-1.68.11-.63.18-1.35.23-2.18s.07-1.79.07-2.88v-6.08h7.22v-1.62h1.56v1.62h6.98v1.28h-14.3v5.74c0,1.24-.05,2.33-.15,3.28-.1.95-.26,1.79-.47,2.52-.21.73-.49,1.4-.83,1.99-.34.59-.75,1.16-1.23,1.69ZM38.6,92.84l-.44-1.28c1.27-.19,2.43-.4,3.49-.64,1.06-.24,2.03-.52,2.9-.83.87-.31,1.66-.66,2.37-1.04.71-.38,1.34-.79,1.91-1.23.57-.44,1.06-.91,1.49-1.42l1.28.72c-.77.91-1.77,1.73-3,2.48-1.23.75-2.67,1.39-4.33,1.94s-3.55.98-5.67,1.3ZM38.82,87.12v-1.2h6v-6.18h-4v5.08h-1.4v-6.2h5.4v-1.5h1.56v1.5h5.46v6.2h-11.02v-1.14h9.56v-1.48h-9.56v-.98h9.56v-1.48h-4v6.18h5.22v1.2h-12.78ZM52.2,92.84c-1.85-.29-3.55-.69-5.09-1.18s-2.9-1.06-4.08-1.71-2.16-1.36-2.93-2.15l1.38-.72c.52.55,1.12,1.04,1.81,1.49.69.45,1.48.85,2.38,1.22.9.37,1.92.7,3.07.99,1.15.29,2.45.55,3.9.78l-.44,1.28Z"/><path class="cls-1" d="M57.8,79.58c3.07-.04,6.11-.14,9.14-.31,3.03-.17,6.17-.4,9.44-.69l.12,1.34c-3.27.29-6.43.52-9.48.69-3.05.17-6.13.27-9.22.31v-1.34ZM68.18,91.88c-1.36,0-2.48-.07-3.35-.2-.87-.13-1.55-.37-2.03-.72-.48-.35-.81-.83-1-1.46-.19-.63-.28-1.43-.28-2.42v-11.26h1.54v11.26c0,.73.06,1.33.18,1.78.12.45.36.8.72,1.04.36.24.88.4,1.56.48.68.08,1.57.12,2.66.12s2.16-.03,3.24-.09,2.09-.15,3.04-.27l.14,1.36c-.97.13-2.02.23-3.13.29s-2.21.09-3.29.09ZM70.8,86.9c-.36,0-.78-.04-1.26-.11-.48-.07-.98-.18-1.51-.33-.53-.15-1.08-.32-1.65-.52l.42-1.34c.67.2,1.22.36,1.67.48.45.12.83.21,1.14.26.31.05.6.08.87.08.29,0,.49-.07.58-.2.09-.13.14-.45.14-.96v-8.84h1.56v9.28c0,.53-.06.96-.19,1.29-.13.33-.33.56-.61.7s-.67.21-1.16.21Z"/><path class="cls-1" d="M82.52,78.42c1.15-.03,2.27-.06,3.36-.11,1.09-.05,2.19-.11,3.28-.19,1.09-.08,2.22-.18,3.39-.29s2.4-.25,3.69-.41l.1,1.36c-1.32.16-2.57.3-3.75.41s-2.32.21-3.42.29-2.2.14-3.29.19c-1.09.05-2.21.08-3.36.11v-1.36ZM82.82,92.12c.59-1.8,1.12-3.64,1.6-5.52s.9-3.78,1.27-5.71c.37-1.93.68-3.84.93-5.75l1.54.08c-.24,1.88-.54,3.79-.91,5.74-.37,1.95-.79,3.88-1.28,5.8s-1.03,3.8-1.63,5.64l-1.52-.28ZM94.92,91.94c-1.16,0-2.17-.13-3.02-.4-.85-.27-1.52-.64-2-1.12-.48-.48-.72-1.05-.72-1.7,0-.53.19-1.06.57-1.57.38-.51.97-1.05,1.77-1.61l1.08.98c-.63.39-1.09.75-1.38,1.08-.29.33-.44.66-.44.98,0,.39.17.73.52,1.02.35.29.83.52,1.46.69.63.17,1.35.25,2.16.25.63,0,1.28-.03,1.96-.1.68-.07,1.37-.17,2.08-.3l.18,1.4c-.72.13-1.43.23-2.13.3-.7.07-1.4.1-2.09.1ZM89.82,82.26c1.51-.24,2.96-.43,4.37-.56,1.41-.13,2.82-.23,4.23-.28l.04,1.36c-1.35.05-2.74.15-4.18.29-1.44.14-2.87.32-4.3.55l-.16-1.36Z"/><path class="cls-1" d="M110.64,91.62c-.72,0-1.39-.23-2-.7-.61-.47-1.15-1.11-1.62-1.94-.47-.83-.83-1.78-1.09-2.86s-.39-2.24-.39-3.48c0-.49.02-1.06.06-1.7.04-.64.09-1.28.16-1.91.07-.63.14-1.18.22-1.63l1.56.14c-.07.4-.13.9-.2,1.49-.07.59-.12,1.2-.16,1.82s-.06,1.17-.06,1.65c0,1,.1,1.95.29,2.85s.46,1.7.79,2.4c.33.7.71,1.25,1.13,1.66.42.41.86.61,1.33.61s.91-.23,1.34-.68c.43-.45.83-1.12,1.2-2.01s.71-1.96,1-3.23l1.48.56c-.56,2.27-1.27,3.99-2.12,5.18-.85,1.19-1.83,1.78-2.92,1.78ZM120.92,89.22c-.12-1.44-.35-2.85-.69-4.23-.34-1.38-.77-2.68-1.28-3.91-.51-1.23-1.1-2.33-1.77-3.3l1.38-.56c.71.99,1.33,2.11,1.86,3.36.53,1.25.97,2.59,1.32,4,.35,1.41.59,2.87.72,4.38l-1.54.26Z"/><circle class="cls-3" cx="311.71" cy="78.46" r="78.21"/><path class="cls-1" d="M268.29,85.58l-.54-1.3c1.05-.53,1.96-1.08,2.73-1.65.77-.57,1.4-1.16,1.89-1.79l.64.98c-.51.68-1.15,1.33-1.93,1.95-.78.62-1.71,1.22-2.79,1.81ZM272.07,85.22v-8h-4.12v-1.2h4.12v-1.08h1.56v1.08h4.18v1.2h-4.18v8h-1.56ZM268.32,92.44v-1.26h3.26v-3.26h1.56v3.26h3.24v-4.24h-7.46v-1.22h16.4v1.22h-7.34v1.4h6.34v1.24h-6.34v1.6h7.94v1.26h-17.6ZM268.71,81.64v-3.56h8.3v3.56h-6.92v-1h5.62v-1.52h-5.62v2.52h-1.38ZM276.98,84.5c-1-.41-1.89-.86-2.66-1.34-.77-.48-1.41-.98-1.9-1.5l.6-.94c.48.45,1.09.89,1.83,1.32.74.43,1.6.83,2.59,1.22l-.46,1.24ZM277.29,85.4l-.6-1.18c1.24-.4,2.29-.82,3.14-1.26s1.56-.93,2.11-1.47c.55-.54.99-1.16,1.32-1.85.33-.69.57-1.49.73-2.4l1.4.08c-.17,1.07-.45,2.01-.82,2.83-.37.82-.87,1.54-1.49,2.17-.62.63-1.41,1.19-2.36,1.69-.95.5-2.1.96-3.43,1.39ZM277.63,80.98l-.88-1.12c.63-.65,1.19-1.41,1.7-2.26.51-.85.93-1.77,1.28-2.76l1.4.2c-.21.69-.5,1.39-.85,2.1-.35.71-.75,1.39-1.2,2.04-.45.65-.93,1.25-1.45,1.8ZM285.87,85.46c-1.39-.56-2.54-1.16-3.45-1.81-.91-.65-1.66-1.42-2.23-2.33-.57-.91-1.04-2.01-1.4-3.32l1.28-.52c.23.87.5,1.64.82,2.31.32.67.72,1.27,1.21,1.8.49.53,1.09,1.01,1.8,1.44.71.43,1.57.85,2.57,1.25l-.6,1.18ZM279.4,77.78v-1.3h6.98v1.3h-6.98Z"/><path class="cls-1" d="M297.74,91.62c-.72,0-1.39-.23-2-.7-.61-.47-1.15-1.11-1.62-1.94-.47-.83-.83-1.78-1.09-2.86s-.39-2.24-.39-3.48c0-.49.02-1.06.06-1.7.04-.64.09-1.28.16-1.91.07-.63.14-1.18.22-1.63l1.56.14c-.07.4-.13.9-.2,1.49-.07.59-.12,1.2-.16,1.82s-.06,1.17-.06,1.65c0,1,.1,1.95.29,2.85s.46,1.7.79,2.4c.33.7.71,1.25,1.13,1.66.42.41.86.61,1.33.61s.91-.23,1.34-.68c.43-.45.83-1.12,1.2-2.01s.71-1.96,1-3.23l1.48.56c-.56,2.27-1.27,3.99-2.12,5.18-.85,1.19-1.83,1.78-2.92,1.78ZM308.02,89.22c-.12-1.44-.35-2.85-.69-4.23-.34-1.38-.77-2.68-1.28-3.91-.51-1.23-1.1-2.33-1.77-3.3l1.38-.56c.71.99,1.33,2.11,1.86,3.36.53,1.25.97,2.59,1.32,4,.35,1.41.59,2.87.72,4.38l-1.54.26Z"/><path class="cls-1" d="M315.22,78.42c1.15-.03,2.27-.06,3.36-.11,1.09-.05,2.19-.11,3.28-.19,1.09-.08,2.22-.18,3.39-.29s2.4-.25,3.69-.41l.1,1.36c-1.32.16-2.57.3-3.75.41s-2.32.21-3.42.29-2.2.14-3.29.19c-1.09.05-2.21.08-3.36.11v-1.36ZM315.52,92.12c.59-1.8,1.12-3.64,1.6-5.52s.9-3.78,1.27-5.71c.37-1.93.68-3.84.93-5.75l1.54.08c-.24,1.88-.54,3.79-.91,5.74-.37,1.95-.79,3.88-1.28,5.8s-1.03,3.8-1.63,5.64l-1.52-.28ZM327.62,91.94c-1.16,0-2.17-.13-3.02-.4-.85-.27-1.52-.64-2-1.12-.48-.48-.72-1.05-.72-1.7,0-.53.19-1.06.57-1.57.38-.51.97-1.05,1.77-1.61l1.08.98c-.63.39-1.09.75-1.38,1.08-.29.33-.44.66-.44.98,0,.39.17.73.52,1.02.35.29.83.52,1.46.69.63.17,1.35.25,2.16.25.63,0,1.28-.03,1.96-.1.68-.07,1.37-.17,2.08-.3l.18,1.4c-.72.13-1.43.23-2.13.3-.7.07-1.4.1-2.09.1ZM322.52,82.26c1.51-.24,2.96-.43,4.37-.56,1.41-.13,2.82-.23,4.23-.28l.04,1.36c-1.35.05-2.74.15-4.18.29-1.44.14-2.87.32-4.3.55l-.16-1.36Z"/><path class="cls-1" d="M343.34,91.62c-.72,0-1.39-.23-2-.7-.61-.47-1.15-1.11-1.62-1.94-.47-.83-.83-1.78-1.09-2.86s-.39-2.24-.39-3.48c0-.49.02-1.06.06-1.7.04-.64.09-1.28.16-1.91.07-.63.14-1.18.22-1.63l1.56.14c-.07.4-.13.9-.2,1.49-.07.59-.12,1.2-.16,1.82s-.06,1.17-.06,1.65c0,1,.1,1.95.29,2.85s.46,1.7.79,2.4c.33.7.71,1.25,1.13,1.66.42.41.86.61,1.33.61s.91-.23,1.34-.68c.43-.45.83-1.12,1.2-2.01s.71-1.96,1-3.23l1.48.56c-.56,2.27-1.27,3.99-2.12,5.18-.85,1.19-1.83,1.78-2.92,1.78ZM353.62,89.22c-.12-1.44-.35-2.85-.69-4.23-.34-1.38-.77-2.68-1.28-3.91-.51-1.23-1.1-2.33-1.77-3.3l1.38-.56c.71.99,1.33,2.11,1.86,3.36.53,1.25.97,2.59,1.32,4,.35,1.41.59,2.87.72,4.38l-1.54.26Z"/><circle class="cls-3" cx="544.96" cy="78.46" r="78.21"/><path class="cls-1" d="M494.2,65.61v-9.14h1.62v9.14h-1.62ZM494.76,71.17c1.96-.05,3.62-.25,4.97-.58,1.35-.33,2.44-.84,3.27-1.51.83-.67,1.43-1.54,1.8-2.61.37-1.07.56-2.37.56-3.9v-6.1h1.64v6.08c0,1.76-.22,3.27-.67,4.52-.45,1.25-1.15,2.28-2.11,3.08s-2.2,1.4-3.73,1.79c-1.53.39-3.38.62-5.57.67l-.16-1.44Z"/><path class="cls-1" d="M517.2,71.11c2.67-.13,4.87-.52,6.62-1.17,1.75-.65,3.06-1.55,3.93-2.72.87-1.17,1.31-2.59,1.31-4.27l.72.72h-15.2v-1.4h16.04v.68c0,2.92-1.12,5.19-3.35,6.81s-5.51,2.54-9.83,2.75l-.24-1.4ZM516.08,58.57v-1.4h13.2v1.4h-13.2Z"/><path class="cls-1" d="M539.55,66.45c-.21-.99-.45-1.93-.7-2.84-.25-.91-.51-1.75-.78-2.54l1.4-.38c.27.75.53,1.57.78,2.48.25.91.5,1.9.74,2.98l-1.44.3ZM540.51,70.87c1.72-.19,3.17-.52,4.35-.99s2.13-1.13,2.85-1.96c.72-.83,1.25-1.88,1.58-3.13.33-1.25.51-2.76.52-4.52l1.5.04c-.01,1.96-.22,3.65-.62,5.06-.4,1.41-1.02,2.6-1.85,3.55-.83.95-1.92,1.7-3.25,2.24-1.33.54-2.95.92-4.84,1.13l-.24-1.42ZM544.17,66.13c-.2-1-.42-1.98-.67-2.94-.25-.96-.52-1.87-.83-2.72l1.42-.36c.31.88.59,1.81.85,2.78.26.97.48,1.95.67,2.94l-1.44.3Z"/><path class="cls-1" d="M558.22,64.03c1.08-.75,2.09-1.58,3.03-2.5.94-.92,1.77-1.88,2.48-2.89.71-1.01,1.28-2.01,1.69-3.01l1.54.3c-.44,1.15-1.03,2.26-1.77,3.35-.74,1.09-1.61,2.12-2.62,3.1s-2.13,1.89-3.37,2.73l-.98-1.08ZM560.74,71.09c1.85-.19,3.55-.62,5.1-1.3,1.55-.68,2.89-1.57,4.03-2.67,1.14-1.1,2.02-2.35,2.65-3.76s.94-2.92.94-4.55l.66.74h-9.68v-1.4h10.58v.66c0,1.45-.22,2.83-.65,4.14-.43,1.31-1.06,2.51-1.88,3.6-.82,1.09-1.8,2.06-2.94,2.9s-2.42,1.52-3.83,2.04-2.93.85-4.56,1l-.42-1.4Z"/><path class="cls-1" d="M581.45,70.79c2.11-1.08,4.01-2.28,5.71-3.59,1.7-1.31,3.17-2.72,4.4-4.21,1.23-1.49,2.19-3.03,2.87-4.62l.44.36h-12.28v-1.42h13.34v1.42c-.69,1.72-1.7,3.4-3.02,5.03-1.32,1.63-2.89,3.16-4.7,4.57-1.81,1.41-3.83,2.67-6.04,3.78l-.72-1.32ZM596.53,72.35c-.76-.85-1.51-1.63-2.25-2.34-.74-.71-1.51-1.37-2.3-2-.79-.63-1.64-1.24-2.55-1.84l1-1.12c1.36.91,2.62,1.86,3.77,2.86s2.29,2.12,3.41,3.36l-1.08,1.08Z"/><path class="cls-1" d="M521.35,102.75c-1.29,0-2.34-.24-3.14-.71-.8-.47-1.38-1.22-1.74-2.25-.36-1.03-.54-2.37-.54-4.04v-9.34h1.56v9.34c0,1.35.13,2.43.39,3.24.26.81.68,1.4,1.26,1.75.58.35,1.35.53,2.31.53,1.77,0,3.35-.53,4.74-1.58s2.56-2.61,3.52-4.68l1.3.66c-1.07,2.33-2.41,4.1-4.03,5.29-1.62,1.19-3.5,1.79-5.63,1.79Z"/><path class="cls-1" d="M536.34,88.95c1.15-.03,2.27-.06,3.36-.11,1.09-.05,2.19-.11,3.28-.19,1.09-.08,2.22-.18,3.39-.29s2.4-.25,3.69-.41l.1,1.36c-1.32.16-2.57.3-3.75.41-1.18.11-2.32.21-3.42.29s-2.2.14-3.29.19c-1.09.05-2.21.08-3.36.11v-1.36ZM536.64,102.65c.59-1.8,1.12-3.64,1.6-5.52.48-1.88.9-3.78,1.27-5.71.37-1.93.68-3.84.93-5.75l1.54.08c-.24,1.88-.54,3.79-.91,5.74-.37,1.95-.79,3.88-1.28,5.8-.49,1.92-1.03,3.8-1.63,5.64l-1.52-.28ZM548.74,102.47c-1.16,0-2.17-.13-3.02-.4-.85-.27-1.52-.64-2-1.12-.48-.48-.72-1.05-.72-1.7,0-.53.19-1.06.57-1.57.38-.51.97-1.05,1.77-1.61l1.08.98c-.63.39-1.09.75-1.38,1.08s-.44.66-.44.98c0,.39.17.73.52,1.02s.83.52,1.46.69c.63.17,1.35.25,2.16.25.63,0,1.28-.03,1.96-.1.68-.07,1.37-.17,2.08-.3l.18,1.4c-.72.13-1.43.23-2.13.3-.7.07-1.4.1-2.09.1ZM543.64,92.79c1.51-.24,2.96-.43,4.37-.56,1.41-.13,2.82-.23,4.23-.28l.04,1.36c-1.35.05-2.74.15-4.18.29-1.44.14-2.87.32-4.3.55l-.16-1.36Z"/><path class="cls-1" d="M564.46,102.15c-.72,0-1.39-.23-2-.7-.61-.47-1.15-1.11-1.62-1.94s-.83-1.78-1.09-2.86-.39-2.24-.39-3.48c0-.49.02-1.06.06-1.7s.09-1.28.16-1.91c.07-.63.14-1.18.22-1.63l1.56.14c-.07.4-.13.9-.2,1.49-.07.59-.12,1.2-.16,1.82-.04.62-.06,1.17-.06,1.65,0,1,.1,1.95.29,2.85s.46,1.7.79,2.4c.33.7.71,1.25,1.13,1.66.42.41.86.61,1.33.61s.91-.23,1.34-.68c.43-.45.83-1.12,1.2-2.01s.71-1.96,1-3.23l1.48.56c-.56,2.27-1.27,3.99-2.12,5.18-.85,1.19-1.83,1.78-2.92,1.78ZM574.74,99.75c-.12-1.44-.35-2.85-.69-4.23-.34-1.38-.77-2.68-1.28-3.91-.51-1.23-1.1-2.33-1.77-3.3l1.38-.56c.71.99,1.33,2.11,1.86,3.36.53,1.25.97,2.59,1.32,4s.59,2.87.72,4.38l-1.54.26Z"/><circle class="cls-3" cx="778.2" cy="78.46" r="78.21"/><path class="cls-1" d="M746.44,62.23l-1.3-.5c.65-.93,1.23-1.96,1.73-3.08s.9-2.28,1.21-3.48l1.46.18c-.19.81-.43,1.63-.74,2.44-.31.81-.66,1.59-1.06,2.34-.4.75-.83,1.45-1.3,2.1ZM746.08,73.49l-.78-1.32c.67-.41,1.22-.92,1.66-1.52.44-.6.77-1.3,1-2.09.23-.79.34-1.67.34-2.63l1.46.04c0,1.19-.15,2.26-.45,3.21-.3.95-.72,1.79-1.26,2.51-.54.72-1.2,1.32-1.97,1.8ZM756.64,73.21h-.55c-.23,0-.48,0-.75-.01s-.52,0-.75,0h-.55c-.64-.03-1.16-.07-1.55-.12-.39-.05-.7-.14-.92-.25-.22-.11-.37-.26-.45-.44-.08-.18-.12-.41-.12-.69v-5.38h-3.16v-1.26h2v-3.7h1.4v3.7h2.06v-3.7h-5.46v4.96h-1.5v-6.28h8.44v6.28h-2.24v4.7c0,.24.02.41.07.52.05.11.18.18.41.22.23.04.6.07,1.12.1.13,0,.31,0,.54,0,.23,0,.47,0,.72,0s.5,0,.73.01c.23,0,.42,0,.55,0,.47,0,.92,0,1.36,0,.44,0,.87-.02,1.3-.03.71-.01,1.25-.04,1.63-.09.38-.05.66-.16.84-.34s.3-.48.37-.9c.07-.42.12-1,.16-1.75l1.5.12c-.07.8-.14,1.47-.21,2-.07.53-.19.95-.35,1.25-.16.3-.39.52-.7.67-.31.15-.72.24-1.23.29-.51.05-1.17.08-1.97.09-.45.01-.91.02-1.36.02h-1.38ZM748.1,57.87v-1.26h5.04v1.26h-5.04ZM751.32,61.11l-1.26-.64c.19-.29.39-.62.6-.98.21-.36.42-.73.62-1.1.2-.37.37-.71.52-1.02l1.34.5c-.23.49-.5,1.03-.82,1.62-.32.59-.65,1.13-1,1.62ZM754.6,71.11l-1.18-.86c.52-.52.99-1.07,1.4-1.65.41-.58.77-1.24,1.07-1.99.3-.75.55-1.62.74-2.62s.34-2.18.43-3.55c.09-1.37.14-2.96.14-4.79h1.5c0,2.21-.07,4.12-.21,5.71-.14,1.59-.37,2.98-.68,4.15s-.73,2.2-1.26,3.09c-.53.89-1.18,1.72-1.95,2.51ZM760.72,70.53c-.2,0-.47,0-.8-.02-.33-.01-.69-.04-1.07-.07s-.76-.07-1.15-.11l-.04-1.36c.55.07,1.04.12,1.48.15.44.03.79.05,1.04.05.19,0,.35-.04.49-.12.14-.08.26-.27.37-.58.11-.31.19-.78.26-1.41.07-.63.12-1.49.15-2.57s.05-2.45.05-4.12h-6.8v-1.34h8.34c0,1.8-.01,3.34-.04,4.62-.03,1.28-.07,2.34-.14,3.18-.07.84-.16,1.51-.28,2.01-.12.5-.26.87-.43,1.11-.17.24-.37.4-.61.47-.24.07-.51.11-.82.11Z"/><path class="cls-1" d="M770.98,68.19l-1.48-.1c.13-1.09.25-2.24.35-3.43.1-1.19.18-2.44.25-3.75h3.7v-3.24h-4.08v-1.32h5.56v5.86h-3.74c-.07,1.08-.15,2.12-.24,3.12-.09,1-.2,1.95-.32,2.86ZM773.36,73.21c-.17,0-.44,0-.81-.02-.37-.01-.78-.03-1.23-.06-.45-.03-.9-.05-1.34-.08l-.02-1.36c.36.03.72.05,1.09.07.37.02.7.04,1,.06.3.02.52.03.65.03.12,0,.22-.02.31-.05.09-.03.16-.13.22-.29.06-.16.11-.42.16-.78.05-.36.1-.86.15-1.51.05-.65.11-1.48.16-2.51h-3.26v-1.3h4.9l-.04.88c-.07,1.31-.14,2.38-.22,3.23s-.17,1.52-.26,2.02c-.09.5-.2.87-.33,1.11-.13.24-.28.39-.47.46-.19.07-.41.1-.66.1ZM775.72,73.01l-.06-1.34c1.53-.07,3.13-.19,4.8-.36,1.67-.17,3.34-.39,5.02-.66l.14,1.28c-1.69.29-3.38.53-5.07.71-1.69.18-3.3.3-4.83.37ZM776.04,60.43l-.08-1.28c1.51-.05,3.07-.14,4.69-.26,1.62-.12,3.24-.27,4.85-.44l.14,1.26c-1.63.2-3.26.36-4.89.48-1.63.12-3.2.2-4.71.24ZM776.34,68.55v-6.9h10.58v5.9h-9.1v-1.2h7.6v-3.5h-7.6v5.7h-1.48ZM778.14,60.29l-1.46-.36c.45-.75.9-1.51,1.33-2.28.43-.77.84-1.54,1.23-2.3l1.52.32c-.4.77-.82,1.55-1.26,2.33-.44.78-.89,1.54-1.36,2.29ZM780.82,72.11v-12.2h1.54v12.2h-1.54ZM786.24,61.29c-.28-.51-.6-1.05-.95-1.63s-.72-1.16-1.09-1.74c-.37-.58-.73-1.12-1.08-1.63l1.32-.62c.35.51.71,1.05,1.09,1.63s.75,1.16,1.11,1.74c.36.58.68,1.12.96,1.63l-1.36.62ZM786.24,73.61c-.29-.76-.63-1.58-1.02-2.46-.39-.88-.76-1.7-1.12-2.46l1.32-.48c.37.77.76,1.6,1.17,2.49.41.89.76,1.7,1.05,2.45l-1.4.46Z"/><path class="cls-1" d="M795.11,72.81c-.35-1.36-.6-2.69-.76-4s-.24-2.71-.24-4.2.08-2.85.24-4.16c.16-1.31.41-2.65.76-4.02l1.52.22c-.33,1.32-.58,2.62-.73,3.91-.15,1.29-.23,2.64-.23,4.05s.08,2.78.23,4.07c.15,1.29.4,2.58.73,3.87l-1.52.26ZM804.93,71.71c-1.23,0-2.31-.16-3.24-.47-.93-.31-1.66-.75-2.19-1.31-.53-.56-.79-1.2-.79-1.92,0-1.32.92-2.66,2.76-4.02l1.06.88c-.79.57-1.37,1.11-1.74,1.6-.37.49-.56.97-.56,1.44s.19.9.58,1.26.93.64,1.64.84c.71.2,1.53.3,2.48.3.71,0,1.47-.05,2.3-.16.83-.11,1.64-.25,2.44-.42l.24,1.38c-.83.19-1.67.33-2.52.44-.85.11-1.67.16-2.46.16ZM803.49,59.85c-.61,0-1.26-.02-1.94-.06-.68-.04-1.27-.09-1.78-.14l.06-1.4c.49.05,1.07.1,1.74.14.67.04,1.31.06,1.92.06.92,0,1.86-.05,2.82-.14s2.04-.25,3.24-.46l.08,1.4c-1.2.21-2.29.37-3.26.46-.97.09-1.93.14-2.88.14Z"/><path class="cls-1" d="M724.3,92.21l-.88-1.44c.73-.84,1.37-1.71,1.9-2.6s.97-1.81,1.3-2.74l1.44.26c-.15.47-.32.93-.53,1.39s-.44.92-.71,1.39l-.16.04c-.37.73-.76,1.41-1.16,2.02-.4.61-.8,1.17-1.2,1.68ZM724.1,102.97l-.44-1.38c1.97-.57,3.67-1.16,5.1-1.77,1.43-.61,2.61-1.24,3.54-1.91l.54.9c-.97.76-2.18,1.49-3.62,2.18-1.44.69-3.15,1.35-5.12,1.98ZM731.98,103.55v-4.94h-8.04v-1.26h8.04v-1.2h-6.34v-8.24h1.54v2.04h12.7v1.08h-12.7v1.44h12.7v1.12h-12.7v1.42h5.18v-6.5h-5.92v-1.28h14.04v1.28h-6.52v6.5h6.52v1.14h-6.9v1.2h7.84v1.26h-7.84v4.94h-1.6ZM733.72,88.15l-1.48-.24c.23-.41.42-.81.59-1.2s.34-.81.53-1.28l1.52.2c-.19.48-.37.92-.55,1.31-.18.39-.38.8-.61,1.21ZM741.46,102.97c-1.96-.63-3.66-1.29-5.11-1.98-1.45-.69-2.66-1.42-3.63-2.18l.54-.9c.95.67,2.13,1.3,3.55,1.91,1.42.61,3.12,1.2,5.09,1.77l-.44,1.38Z"/><path class="cls-1" d="M747.88,98.33v-9.46h16.4v9.46h-1.5v-1.26h-13.4v-1.34h13.4v-5.48h-13.4v8.08h-1.5ZM755.29,103.75v-18.28h1.6v18.28h-1.6Z"/><path class="cls-1" d="M777.55,102.75c-1.29,0-2.34-.24-3.14-.71-.8-.47-1.38-1.22-1.74-2.25-.36-1.03-.54-2.37-.54-4.04v-9.34h1.56v9.34c0,1.35.13,2.43.39,3.24.26.81.68,1.4,1.26,1.75.58.35,1.35.53,2.31.53,1.77,0,3.35-.53,4.74-1.58s2.56-2.61,3.52-4.68l1.3.66c-1.07,2.33-2.41,4.1-4.03,5.29-1.62,1.19-3.5,1.79-5.63,1.79Z"/><path class="cls-1" d="M792.55,88.95c1.15-.03,2.27-.06,3.36-.11,1.09-.05,2.19-.11,3.28-.19,1.09-.08,2.22-.18,3.39-.29s2.4-.25,3.69-.41l.1,1.36c-1.32.16-2.57.3-3.75.41-1.18.11-2.32.21-3.42.29s-2.2.14-3.29.19c-1.09.05-2.21.08-3.36.11v-1.36ZM792.85,102.65c.59-1.8,1.12-3.64,1.6-5.52.48-1.88.9-3.78,1.27-5.71.37-1.93.68-3.84.93-5.75l1.54.08c-.24,1.88-.54,3.79-.91,5.74-.37,1.95-.79,3.88-1.28,5.8-.49,1.92-1.03,3.8-1.63,5.64l-1.52-.28ZM804.95,102.47c-1.16,0-2.17-.13-3.02-.4-.85-.27-1.52-.64-2-1.12-.48-.48-.72-1.05-.72-1.7,0-.53.19-1.06.57-1.57.38-.51.97-1.05,1.77-1.61l1.08.98c-.63.39-1.09.75-1.38,1.08s-.44.66-.44.98c0,.39.17.73.52,1.02s.83.52,1.46.69c.63.17,1.35.25,2.16.25.63,0,1.28-.03,1.96-.1.68-.07,1.37-.17,2.08-.3l.18,1.4c-.72.13-1.43.23-2.13.3-.7.07-1.4.1-2.09.1ZM799.85,92.79c1.51-.24,2.96-.43,4.37-.56,1.41-.13,2.82-.23,4.23-.28l.04,1.36c-1.35.05-2.74.15-4.18.29-1.44.14-2.87.32-4.3.55l-.16-1.36Z"/><path class="cls-1" d="M820.67,102.15c-.72,0-1.39-.23-2-.7-.61-.47-1.15-1.11-1.62-1.94s-.83-1.78-1.09-2.86-.39-2.24-.39-3.48c0-.49.02-1.06.06-1.7s.09-1.28.16-1.91c.07-.63.14-1.18.22-1.63l1.56.14c-.07.4-.13.9-.2,1.49-.07.59-.12,1.2-.16,1.82-.04.62-.06,1.17-.06,1.65,0,1,.1,1.95.29,2.85s.46,1.7.79,2.4c.33.7.71,1.25,1.13,1.66.42.41.86.61,1.33.61s.91-.23,1.34-.68c.43-.45.83-1.12,1.2-2.01s.71-1.96,1-3.23l1.48.56c-.56,2.27-1.27,3.99-2.12,5.18-.85,1.19-1.83,1.78-2.92,1.78ZM830.95,99.75c-.12-1.44-.35-2.85-.69-4.23-.34-1.38-.77-2.68-1.28-3.91-.51-1.23-1.1-2.33-1.77-3.3l1.38-.56c.71.99,1.33,2.11,1.86,3.36.53,1.25.97,2.59,1.32,4s.59,2.87.72,4.38l-1.54.26Z"/><circle class="cls-3" cx="78.46" cy="296.46" r="78.21"/><path class="cls-1" d="M48.17,281.23c-.23-.4-.48-.84-.77-1.32-.29-.48-.58-.96-.87-1.45-.29-.49-.57-.94-.82-1.35l.84-1.22c.4.64.82,1.34,1.27,2.09.45.75.84,1.44,1.17,2.05l-.82,1.2ZM46.95,290.47l-1.22-.24c.23-.91.41-1.83.56-2.78.15-.95.25-1.89.32-2.82l1.22.12c-.05.96-.16,1.92-.31,2.89-.15.97-.34,1.91-.57,2.83ZM45.85,283.67l-.06-1.28,6.64-.4v1.24l-6.58.44ZM48.01,278.55l-1.06-.76c.39-.69.75-1.39,1.09-2.1.34-.71.67-1.43.99-2.18l1.26.56c-.35.76-.71,1.51-1.09,2.26-.38.75-.78,1.49-1.19,2.22ZM48.01,283.41l-1.06-.74c.81-1.15,1.58-2.31,2.29-3.48.71-1.17,1.39-2.39,2.03-3.64l1.18.62c-.67,1.28-1.36,2.52-2.09,3.71s-1.51,2.37-2.35,3.53ZM48.65,291.55v-8.5h1.5v8.5h-1.5ZM52.13,284.23c-.09-.49-.21-1.02-.34-1.59-.13-.57-.28-1.13-.43-1.68s-.3-1.06-.45-1.53l1.18-.32c.16.49.32,1.02.47,1.58.15.56.3,1.12.43,1.69.13.57.25,1.1.34,1.61l-1.2.24ZM51.47,290.09c-.03-.51-.07-1.08-.13-1.73-.06-.65-.13-1.29-.2-1.94s-.15-1.23-.23-1.75l1.18-.18c.09.52.18,1.11.25,1.77.07.66.14,1.32.21,1.97.07.65.11,1.23.14,1.74l-1.22.12ZM60.79,291.27c-.27,0-.59,0-.98-.02-.39-.01-.91-.04-1.56-.08l-.04-1.28c.6.03,1.08.05,1.43.06s.64.02.87.02c.25,0,.44-.02.55-.05.11-.03.19-.13.22-.3.03-.17.05-.44.05-.81v-6.14h-8.9v-1.32h11.84v1.32h-1.44v6.08c0,.56-.02,1.01-.07,1.35-.05.34-.14.59-.28.76-.14.17-.34.28-.61.33-.27.05-.63.08-1.08.08ZM53.31,281.25l-.5-1.28c1.05-.28,1.92-.7,2.61-1.26.69-.56,1.2-1.29,1.54-2.18.34-.89.51-1.97.51-3.22h1.52c0,1.39-.23,2.62-.68,3.71s-1.1,1.99-1.95,2.71c-.85.72-1.86,1.23-3.05,1.52ZM52.87,276.45v-1.34h10.9v1.34h-10.9ZM53.67,290.25v-6.4h1.42v3.86h3.38v-2.66h-3.38v-1.2h4.74v5.06h-4.74v1.34h-1.42ZM63.35,281.53c-.57-.44-1.2-.88-1.89-1.33-.69-.45-1.39-.87-2.1-1.28-.71-.41-1.4-.76-2.05-1.07l.46-1.16c.68.29,1.39.64,2.12,1.04.73.4,1.46.82,2.17,1.25.71.43,1.37.86,1.97,1.29l-.68,1.26Z"/><path class="cls-1" d="M70.31,291.55l-1.14-1.24c.24-.36.45-.76.64-1.19.19-.43.35-.91.48-1.42.13-.51.23-1.06.3-1.64.07-.58.1-1.2.1-1.85v-4.06h7.2v-1.26h1.6v1.26h7.7v1.12h-5.34v1.08h4.74v3.42h-15.2v-1.02h13.8v-1.38h-3.34v1.38h-1.5v-1.38h-3.34v1.38h-1.48v-1.38h-4.14v-1.02h4.14v-1.08h1.48v1.08h3.34v-1.08h-8.16v3.74c0,.89-.07,1.74-.22,2.54-.15.8-.36,1.54-.64,2.21-.28.67-.62,1.27-1.02,1.79ZM70.19,275.37v-1.22h8v1.22h-8ZM70.55,279.35v-3.18h7.34v3.18h-1.4v-2.14h-4.5v2.14h-1.44ZM71.79,291.41l-.14-1.2c1.36-.12,2.72-.26,4.08-.43s2.77-.38,4.22-.63l.02,1.2c-1.44.25-2.82.46-4.14.63-1.32.17-2.67.31-4.04.43ZM74.23,279.41c-.2-.36-.41-.72-.64-1.07-.23-.35-.45-.68-.66-.99l1.16-.4c.23.31.45.64.68,1,.23.36.44.73.64,1.1l-1.18.36ZM74.05,290.65v-4.88h1.5v1.2h4.34v1.08h-4.34v2.6h-1.5ZM79.19,275.37v-1.22h8v1.22h-8ZM79.49,279.35v-3.18h7.34v3.18h-1.44v-2.14h-4.5v2.14h-1.4ZM83.99,291.21c-.73,0-1.31-.01-1.74-.03s-.74-.06-.95-.13c-.21-.07-.34-.17-.39-.31-.05-.14-.08-.33-.08-.57v-4.4h1.5v3.84c0,.13.02.23.07.29s.19.09.44.1c.25,0,.65.01,1.21.01s.95-.01,1.24-.03c.29-.02.51-.08.65-.17.14-.09.24-.25.29-.48.05-.23.11-.55.16-.96l1.38.16c-.08.64-.17,1.14-.26,1.51-.09.37-.26.63-.49.8-.23.17-.59.27-1.06.31-.47.04-1.13.06-1.97.06ZM81.63,288.57l-.28-1c1.04-.17,2.03-.37,2.96-.6.93-.23,1.92-.51,2.96-.86l.42,1.04c-1.05.33-2.06.62-3.03.85-.97.23-1.98.42-3.03.57ZM83.15,279.41c-.2-.36-.41-.72-.64-1.07-.23-.35-.45-.68-.66-.99l1.16-.4c.21.31.43.64.66,1,.23.36.44.73.64,1.1l-1.16.36Z"/><path class="cls-1" d="M95.33,290.81c-.35-1.36-.6-2.69-.76-4s-.24-2.71-.24-4.2.08-2.85.24-4.16c.16-1.31.41-2.65.76-4.02l1.52.22c-.33,1.32-.58,2.62-.73,3.91-.15,1.29-.23,2.64-.23,4.05s.08,2.78.23,4.07c.15,1.29.4,2.58.73,3.87l-1.52.26ZM105.15,289.71c-1.23,0-2.31-.16-3.24-.47-.93-.31-1.66-.75-2.19-1.31-.53-.56-.79-1.2-.79-1.92,0-1.32.92-2.66,2.76-4.02l1.06.88c-.79.57-1.37,1.11-1.74,1.6-.37.49-.56.97-.56,1.44s.19.9.58,1.26.93.64,1.64.84c.71.2,1.53.3,2.48.3.71,0,1.47-.05,2.3-.16.83-.11,1.64-.25,2.44-.42l.24,1.38c-.83.19-1.67.33-2.52.44-.85.11-1.67.16-2.46.16ZM103.71,277.85c-.61,0-1.26-.02-1.94-.06-.68-.04-1.27-.09-1.78-.14l.06-1.4c.49.05,1.07.1,1.74.14.67.04,1.31.06,1.92.06.92,0,1.86-.05,2.82-.14s2.04-.25,3.24-.46l.08,1.4c-1.2.21-2.29.37-3.26.46-.97.09-1.93.14-2.88.14Z"/><path class="cls-1" d="M35.48,306.91c2.76,0,6.03-.2,9.82-.6l.08,1.38c-3.81.4-7.11.6-9.9.6v-1.38ZM35.66,317.61c1.12-2.39,2.05-4.72,2.78-6.99.73-2.27,1.32-4.62,1.76-7.05l1.46.16c-.4,2.32-.98,4.65-1.73,7-.75,2.35-1.7,4.79-2.85,7.34l-1.42-.46ZM44.28,320.75c-.95,0-1.75-.14-2.42-.42-.67-.28-1.18-.68-1.53-1.21-.35-.53-.53-1.16-.53-1.91,0-1.15.41-2.02,1.23-2.63.82-.61,2-.91,3.53-.91.67,0,1.31.08,1.94.25s1.28.44,1.95.83c.67.39,1.41.9,2.21,1.53.8.63,1.7,1.42,2.7,2.35l-.92,1.06c-1.08-1-2-1.81-2.75-2.44-.75-.63-1.41-1.11-1.98-1.44-.57-.33-1.09-.56-1.58-.69-.49-.13-1.01-.19-1.57-.19-1.12,0-1.95.18-2.49.55s-.81.93-.81,1.69.26,1.31.77,1.7c.51.39,1.26.58,2.25.58,1.11,0,1.94-.24,2.5-.71.56-.47.84-1.15.84-2.03v-10.1c2.2,0,4.16.1,5.88.3l-.12,1.36c-1.65-.2-3.52-.3-5.6-.3l1.34-.94v9.54c0,1.36-.41,2.4-1.24,3.11-.83.71-2.03,1.07-3.6,1.07Z"/><path class="cls-1" d="M61.73,319.21c2.61,0,4.74-.25,6.37-.74,1.63-.49,2.83-1.28,3.58-2.35.75-1.07,1.13-2.46,1.13-4.15,0-1.79-.38-3.14-1.15-4.07s-1.88-1.39-3.33-1.39c-1.01,0-1.92.21-2.73.64s-1.48,1.03-2.01,1.81c-.53.78-.9,1.69-1.1,2.73s-.19,2.15.02,3.32l-1.54.12c-.27-1.63-.4-3.37-.4-5.24s.13-3.65.4-5.28l1.54.12c-.27,1.59-.4,3.31-.4,5.16,0,.47,0,.94.03,1.43.02.49.04.96.07,1.41l-1-1.5c.28-1.29.75-2.4,1.42-3.32.67-.92,1.49-1.63,2.47-2.13.98-.5,2.09-.75,3.33-.75,1.93,0,3.41.6,4.42,1.79,1.01,1.19,1.52,2.91,1.52,5.15,0,2.03-.44,3.68-1.32,4.95-.88,1.27-2.25,2.21-4.1,2.82s-4.23.91-7.14.91l-.08-1.44Z"/><path class="cls-1" d="M81.21,306.95c1.15-.03,2.27-.06,3.36-.11,1.09-.05,2.19-.11,3.28-.19,1.09-.08,2.22-.18,3.39-.29s2.4-.25,3.69-.41l.1,1.36c-1.32.16-2.57.3-3.75.41-1.18.11-2.32.21-3.42.29s-2.2.14-3.29.19c-1.09.05-2.21.08-3.36.11v-1.36ZM81.51,320.65c.59-1.8,1.12-3.64,1.6-5.52.48-1.88.9-3.78,1.27-5.71.37-1.93.68-3.84.93-5.75l1.54.08c-.24,1.88-.54,3.79-.91,5.74-.37,1.95-.79,3.88-1.28,5.8-.49,1.92-1.03,3.8-1.63,5.64l-1.52-.28ZM93.61,320.47c-1.16,0-2.17-.13-3.02-.4-.85-.27-1.52-.64-2-1.12-.48-.48-.72-1.05-.72-1.7,0-.53.19-1.06.57-1.57.38-.51.97-1.05,1.77-1.61l1.08.98c-.63.39-1.09.75-1.38,1.08s-.44.66-.44.98c0,.39.17.73.52,1.02s.83.52,1.46.69c.63.17,1.35.25,2.16.25.63,0,1.28-.03,1.96-.1.68-.07,1.37-.17,2.08-.3l.18,1.4c-.72.13-1.43.23-2.13.3-.7.07-1.4.1-2.09.1ZM88.51,310.79c1.51-.24,2.96-.43,4.37-.56,1.41-.13,2.82-.23,4.23-.28l.04,1.36c-1.35.05-2.74.15-4.18.29-1.44.14-2.87.32-4.3.55l-.16-1.36Z"/><path class="cls-1" d="M109.33,320.15c-.72,0-1.39-.23-2-.7-.61-.47-1.15-1.11-1.62-1.94s-.83-1.78-1.09-2.86-.39-2.24-.39-3.48c0-.49.02-1.06.06-1.7s.09-1.28.16-1.91c.07-.63.14-1.18.22-1.63l1.56.14c-.07.4-.13.9-.2,1.49-.07.59-.12,1.2-.16,1.82-.04.62-.06,1.17-.06,1.65,0,1,.1,1.95.29,2.85s.46,1.7.79,2.4c.33.7.71,1.25,1.13,1.66.42.41.86.61,1.33.61s.91-.23,1.34-.68c.43-.45.83-1.12,1.2-2.01s.71-1.96,1-3.23l1.48.56c-.56,2.27-1.27,3.99-2.12,5.18-.85,1.19-1.83,1.78-2.92,1.78ZM119.61,317.75c-.12-1.44-.35-2.85-.69-4.23-.34-1.38-.77-2.68-1.28-3.91-.51-1.23-1.1-2.33-1.77-3.3l1.38-.56c.71.99,1.33,2.11,1.86,3.36.53,1.25.97,2.59,1.32,4s.59,2.87.72,4.38l-1.54.26Z"/><circle class="cls-3" cx="778.2" cy="296.31" r="78.21"/><path class="cls-1" d="M738.37,290.14v-15.76h1.62v15.36l-.98-1.08c1.63,0,3.12-.17,4.47-.51s2.57-.85,3.66-1.52c1.09-.67,2.04-1.51,2.85-2.52.81-1.01,1.48-2.18,2-3.53l1.32.56c-.73,1.96-1.77,3.61-3.1,4.95-1.33,1.34-2.94,2.35-4.82,3.03-1.88.68-4.01,1.02-6.38,1.02h-.64Z"/><path class="cls-1" d="M759.8,283.22v-1.54h16.28v1.54h-16.28Z"/><path class="cls-1" d="M780.47,288.64c2.11-1.08,4.01-2.28,5.71-3.59,1.7-1.31,3.17-2.72,4.4-4.21,1.23-1.49,2.19-3.03,2.87-4.62l.44.36h-12.28v-1.42h13.34v1.42c-.69,1.72-1.7,3.4-3.02,5.03-1.32,1.63-2.89,3.16-4.7,4.57-1.81,1.41-3.83,2.67-6.04,3.78l-.72-1.32ZM795.55,290.2c-.76-.85-1.51-1.63-2.25-2.34-.74-.71-1.51-1.37-2.3-2-.79-.63-1.64-1.24-2.55-1.84l1-1.12c1.36.91,2.62,1.86,3.77,2.86s2.29,2.12,3.41,3.36l-1.08,1.08Z"/><path class="cls-1" d="M812.22,290.2c-.33,0-.76-.05-1.29-.16-.53-.11-1.08-.25-1.67-.42-.59-.17-1.14-.35-1.66-.54l.38-1.36c.45.17.93.34,1.43.49s.96.28,1.39.37.75.14.98.14c.52,0,.96-.27,1.31-.81.35-.54.62-1.34.81-2.4.19-1.06.28-2.38.28-3.97,0-.71-.03-1.27-.1-1.7-.07-.43-.19-.74-.38-.95-.19-.21-.47-.35-.85-.42-.38-.07-.89-.11-1.53-.11-.6,0-1.32.02-2.16.07-.84.05-1.79.11-2.85.2-1.06.09-2.24.2-3.53.33l-.12-1.36c2.03-.21,3.75-.37,5.17-.46,1.42-.09,2.68-.14,3.77-.14.72,0,1.32.03,1.81.1.49.07.88.19,1.19.37.31.18.54.44.7.79.16.35.27.8.32,1.36.05.56.08,1.25.08,2.08,0,1.88-.13,3.45-.38,4.71-.25,1.26-.64,2.21-1.15,2.84-.51.63-1.16.95-1.95.95ZM802.98,289.94c.53-1.04,1.01-2.05,1.43-3.03.42-.98.8-1.97,1.14-2.96s.65-2.02.93-3.08c.28-1.06.53-2.19.76-3.4.23-1.21.45-2.52.66-3.93l1.48.16c-.24,1.75-.51,3.36-.81,4.84s-.65,2.88-1.04,4.2c-.39,1.32-.85,2.62-1.36,3.89-.51,1.27-1.1,2.58-1.77,3.91l-1.42-.6ZM817.08,278.12c-.35-.73-.69-1.39-1.02-1.96s-.7-1.13-1.1-1.66l1.14-.68c.43.56.81,1.14,1.15,1.75.34.61.68,1.26,1.01,1.97l-1.18.58ZM819.42,287.48c-.13-.81-.32-1.68-.55-2.61s-.5-1.86-.79-2.8c-.29-.94-.61-1.84-.94-2.71l1.42-.48c.33.89.65,1.82.96,2.78s.58,1.91.81,2.86c.23.95.42,1.85.57,2.7l-1.48.26ZM819.78,277.04c-.33-.75-.66-1.41-.99-1.98-.33-.57-.68-1.13-1.07-1.66l1.12-.64c.43.57.81,1.16,1.15,1.77.34.61.67,1.26.99,1.97l-1.2.54Z"/><path class="cls-1" d="M754.6,320.6c-1.29,0-2.34-.24-3.14-.71-.8-.47-1.38-1.22-1.74-2.25-.36-1.03-.54-2.37-.54-4.04v-9.34h1.56v9.34c0,1.35.13,2.43.39,3.24.26.81.68,1.4,1.26,1.75.58.35,1.35.53,2.31.53,1.77,0,3.35-.53,4.74-1.58s2.56-2.61,3.52-4.68l1.3.66c-1.07,2.33-2.41,4.1-4.03,5.29-1.62,1.19-3.5,1.79-5.63,1.79Z"/><path class="cls-1" d="M769.59,306.8c1.15-.03,2.27-.06,3.36-.11,1.09-.05,2.19-.11,3.28-.19,1.09-.08,2.22-.18,3.39-.29s2.4-.25,3.69-.41l.1,1.36c-1.32.16-2.57.3-3.75.41-1.18.11-2.32.21-3.42.29s-2.2.14-3.29.19c-1.09.05-2.21.08-3.36.11v-1.36ZM769.89,320.5c.59-1.8,1.12-3.64,1.6-5.52.48-1.88.9-3.78,1.27-5.71.37-1.93.68-3.84.93-5.75l1.54.08c-.24,1.88-.54,3.79-.91,5.74-.37,1.95-.79,3.88-1.28,5.8-.49,1.92-1.03,3.8-1.63,5.64l-1.52-.28ZM781.99,320.32c-1.16,0-2.17-.13-3.02-.4-.85-.27-1.52-.64-2-1.12-.48-.48-.72-1.05-.72-1.7,0-.53.19-1.06.57-1.57.38-.51.97-1.05,1.77-1.61l1.08.98c-.63.39-1.09.75-1.38,1.08s-.44.66-.44.98c0,.39.17.73.52,1.02s.83.52,1.46.69c.63.17,1.35.25,2.16.25.63,0,1.28-.03,1.96-.1.68-.07,1.37-.17,2.08-.3l.18,1.4c-.72.13-1.43.23-2.13.3-.7.07-1.4.1-2.09.1ZM776.89,310.64c1.51-.24,2.96-.43,4.37-.56,1.41-.13,2.82-.23,4.23-.28l.04,1.36c-1.35.05-2.74.15-4.18.29-1.44.14-2.87.32-4.3.55l-.16-1.36Z"/><path class="cls-1" d="M797.71,320c-.72,0-1.39-.23-2-.7-.61-.47-1.15-1.11-1.62-1.94s-.83-1.78-1.09-2.86-.39-2.24-.39-3.48c0-.49.02-1.06.06-1.7s.09-1.28.16-1.91c.07-.63.14-1.18.22-1.63l1.56.14c-.07.4-.13.9-.2,1.49-.07.59-.12,1.2-.16,1.82-.04.62-.06,1.17-.06,1.65,0,1,.1,1.95.29,2.85s.46,1.7.79,2.4c.33.7.71,1.25,1.13,1.66.42.41.86.61,1.33.61s.91-.23,1.34-.68c.43-.45.83-1.12,1.2-2.01s.71-1.96,1-3.23l1.48.56c-.56,2.27-1.27,3.99-2.12,5.18-.85,1.19-1.83,1.78-2.92,1.78ZM807.99,317.6c-.12-1.44-.35-2.85-.69-4.23-.34-1.38-.77-2.68-1.28-3.91-.51-1.23-1.1-2.33-1.77-3.3l1.38-.56c.71.99,1.33,2.11,1.86,3.36.53,1.25.97,2.59,1.32,4s.59,2.87.72,4.38l-1.54.26Z"/><circle class="cls-3" cx="78.46" cy="512.31" r="78.21"/><path class="cls-1" d="M22.57,505.66l-3.52-14.6h1.64l2.9,12.4h.04l3-11.2h2.04l3,11.2h.04l2.9-12.4h1.64l-3.52,14.6h-2.02l-3.04-11.2h-.04l-3.04,11.2h-2.02Z"/><path class="cls-1" d="M46.24,505.86c-1.67,0-2.95-.47-3.86-1.4-.91-.93-1.36-2.27-1.36-4s.44-3,1.31-3.96,2.08-1.44,3.63-1.44,2.61.45,3.4,1.35c.79.9,1.18,2.19,1.18,3.87v.42c0,.15,0,.27-.02.38h-8.64v-1.28h7.48l-.3.42c0-1.29-.26-2.26-.78-2.9-.52-.64-1.29-.96-2.32-.96-1.09,0-1.93.34-2.52,1.03-.59.69-.88,1.66-.88,2.93v.4c0,1.25.31,2.2.94,2.84s1.55.96,2.76.96c.64,0,1.26-.08,1.86-.25s1.14-.41,1.62-.73l.34,1.26c-.51.33-1.09.59-1.75.78s-1.36.28-2.09.28Z"/><path class="cls-1" d="M62.08,505.86c-.76,0-1.46-.14-2.11-.43-.65-.29-1.16-.68-1.53-1.17h-.04v1.4h-1.52v-14.6h1.6v5.6h.04c.36-.51.85-.9,1.48-1.18s1.32-.42,2.08-.42c1.39,0,2.47.48,3.24,1.43.77.95,1.16,2.28,1.16,3.97s-.39,3.02-1.16,3.97c-.77.95-1.85,1.43-3.24,1.43ZM61.72,504.54c1.03,0,1.82-.36,2.38-1.07.56-.71.84-1.72.84-3.01s-.28-2.3-.84-3.01c-.56-.71-1.35-1.07-2.38-1.07-.61,0-1.17.13-1.67.4-.5.27-.89.63-1.16,1.08-.27.45-.41.97-.41,1.56v2.08c0,.59.14,1.11.41,1.56.27.45.66.81,1.16,1.08.5.27,1.06.4,1.67.4Z"/><path class="cls-1" d="M72.33,496.54l-.68-1.3c1.07-.59,2.07-1.18,3.02-1.78.95-.6,1.86-1.23,2.73-1.9.87-.67,1.74-1.37,2.59-2.12h1.92c.85.75,1.72,1.45,2.59,2.12s1.78,1.3,2.73,1.9c.95.6,1.95,1.19,3.02,1.78l-.68,1.3c-1.61-.87-3.13-1.8-4.55-2.81-1.42-1.01-2.78-2.1-4.07-3.27-1.29,1.17-2.65,2.26-4.07,3.27-1.42,1.01-2.94,1.94-4.55,2.81ZM72.55,500.2v-1.34h16.8v1.34h-16.8ZM73.09,506.86l-.08-1.34c2.27-.08,4.63-.23,7.08-.46s4.9-.53,7.34-.9l.14,1.3c-2.47.37-4.93.68-7.39.92-2.46.24-4.82.4-7.09.48ZM75.29,496.46v-1.3h11.32v1.3h-11.32ZM77.03,506.36l-1.4-.56c.52-1,1.03-2.06,1.52-3.18.49-1.12.95-2.28,1.38-3.48l1.48.44c-.44,1.21-.91,2.39-1.42,3.53s-1.03,2.22-1.56,3.25ZM88.17,507.46c-.32-.59-.68-1.22-1.07-1.9-.39-.68-.79-1.36-1.19-2.04s-.79-1.32-1.18-1.92l1.32-.62c.39.6.78,1.24,1.19,1.93.41.69.81,1.37,1.21,2.05.4.68.76,1.31,1.08,1.9l-1.36.6Z"/><path class="cls-1" d="M95.68,494.28v-1.32h6.08v1.32h-6.08ZM96.12,491.46v-1.3h5.22v1.3h-5.22ZM96.12,507.5v-5.98h5.26v5.1h-3.86v-1.26h2.52v-2.56h-2.52v4.7h-1.4ZM96.26,497.12v-1.26h5.02v1.26h-5.02ZM96.26,499.96v-1.28h5.02v1.28h-5.02ZM101.9,497.02v-1.26h5.28v-1.32h-4.24v-1.18h4.24v-1.26h-4.84v-1.32h11.2v1.32h-4.76v1.26h4.16v1.18h-4.16v1.32h5.12v1.26h-12ZM104.26,507.22c-.15,0-.4,0-.75-.03-.35-.02-.7-.04-1.05-.07l-.04-1.22c.25.03.53.05.82.06.29.01.49.02.6.02.19,0,.29-.02.32-.07.03-.05.04-.21.04-.49v-3.8h-2.3v-1.28h2.3v-1.92h1.48v1.92h8.22v1.28h-8.22v4.2c0,.4-.04.7-.11.9-.07.2-.21.33-.4.4-.19.07-.5.1-.91.1ZM102.06,504.68l-.14-1.26c1.17-.11,2.27-.24,3.28-.4,1.01-.16,1.92-.35,2.72-.58l.22,1.18c-.53.16-1.13.31-1.78.44s-1.34.25-2.06.35c-.72.1-1.47.19-2.24.27ZM102.36,499.48l-.16-1.18c1.01-.11,1.97-.24,2.86-.41.89-.17,1.73-.36,2.5-.59l.32,1.18c-.73.23-1.56.42-2.49.59-.93.17-1.94.3-3.03.41ZM105.38,491.48c-.16-.37-.32-.74-.49-1.1-.17-.36-.33-.7-.49-1.02l1.38-.26c.17.32.35.66.52,1.02.17.36.34.73.5,1.12l-1.42.24ZM106.66,507.06l-.48-1.26c1.43-.4,2.65-.97,3.67-1.7,1.02-.73,1.8-1.59,2.35-2.56l1.1.68c-.65,1.13-1.54,2.11-2.65,2.93s-2.44,1.46-3.99,1.91ZM112.34,507.22c-.25,0-.54-.1-.87-.3-.33-.2-.66-.52-1-.97-.34-.45-.66-1.04-.96-1.79-.3-.75-.55-1.66-.74-2.75s-.3-2.37-.33-3.85h1.46c.03,1.64.14,2.99.35,4.05s.45,1.89.74,2.5c.29.61.56,1.03.81,1.28.25.25.43.37.52.37.05,0,.11-.04.18-.11s.14-.24.22-.51c.08-.27.16-.69.24-1.26l1.14.32c-.15,1.12-.37,1.9-.66,2.35-.29.45-.66.67-1.1.67ZM110.54,491.46l-1.38-.24c.17-.35.34-.7.51-1.07s.32-.72.45-1.05l1.4.22c-.12.33-.27.69-.44,1.06-.17.37-.35.73-.54,1.08ZM112.6,500.32c-.32-.37-.65-.73-.99-1.08-.34-.35-.7-.69-1.07-1.02l.92-.84c.37.35.73.69,1.07,1.03.34.34.67.7.99,1.07l-.92.84Z"/><path class="cls-1" d="M129.13,506.2c-.33,0-.76-.05-1.29-.16-.53-.11-1.08-.25-1.67-.42-.59-.17-1.14-.35-1.66-.54l.38-1.36c.45.17.93.34,1.43.49s.96.28,1.39.37.75.14.98.14c.52,0,.96-.27,1.31-.81.35-.54.62-1.34.81-2.4.19-1.06.28-2.38.28-3.97,0-.71-.03-1.27-.1-1.7-.07-.43-.19-.74-.38-.95-.19-.21-.47-.35-.85-.42-.38-.07-.89-.11-1.53-.11-.6,0-1.32.02-2.16.07-.84.05-1.79.11-2.85.2-1.06.09-2.24.2-3.53.33l-.12-1.36c2.03-.21,3.75-.37,5.17-.46,1.42-.09,2.68-.14,3.77-.14.72,0,1.32.03,1.81.1.49.07.88.19,1.19.37.31.18.54.44.7.79.16.35.27.8.32,1.36.05.56.08,1.25.08,2.08,0,1.88-.13,3.45-.38,4.71-.25,1.26-.64,2.21-1.15,2.84-.51.63-1.16.95-1.95.95ZM119.89,505.94c.53-1.04,1.01-2.05,1.43-3.03.42-.98.8-1.97,1.14-2.96s.65-2.02.93-3.08c.28-1.06.53-2.19.76-3.4.23-1.21.45-2.52.66-3.93l1.48.16c-.24,1.75-.51,3.36-.81,4.84s-.65,2.88-1.04,4.2c-.39,1.32-.85,2.62-1.36,3.89-.51,1.27-1.1,2.58-1.77,3.91l-1.42-.6ZM133.99,494.12c-.35-.73-.69-1.39-1.02-1.96s-.7-1.13-1.1-1.66l1.14-.68c.43.56.81,1.14,1.15,1.75.34.61.68,1.26,1.01,1.97l-1.18.58ZM136.33,503.48c-.13-.81-.32-1.68-.55-2.61s-.5-1.86-.79-2.8c-.29-.94-.61-1.84-.94-2.71l1.42-.48c.33.89.65,1.82.96,2.78s.58,1.91.81,2.86c.23.95.42,1.85.57,2.7l-1.48.26ZM136.69,493.04c-.33-.75-.66-1.41-.99-1.98-.33-.57-.68-1.13-1.07-1.66l1.12-.64c.43.57.81,1.16,1.15,1.77.34.61.67,1.26.99,1.97l-1.2.54Z"/><path class="cls-1" d="M54.85,536.6c-1.29,0-2.34-.24-3.14-.71-.8-.47-1.38-1.22-1.74-2.25-.36-1.03-.54-2.37-.54-4.04v-9.34h1.56v9.34c0,1.35.13,2.43.39,3.24.26.81.68,1.4,1.26,1.75.58.35,1.35.53,2.31.53,1.77,0,3.35-.53,4.74-1.58s2.56-2.61,3.52-4.68l1.3.66c-1.07,2.33-2.41,4.1-4.03,5.29-1.62,1.19-3.5,1.79-5.63,1.79Z"/><path class="cls-1" d="M69.84,522.8c1.15-.03,2.27-.06,3.36-.11,1.09-.05,2.19-.11,3.28-.19,1.09-.08,2.22-.18,3.39-.29s2.4-.25,3.69-.41l.1,1.36c-1.32.16-2.57.3-3.75.41-1.18.11-2.32.21-3.42.29s-2.2.14-3.29.19c-1.09.05-2.21.08-3.36.11v-1.36ZM70.15,536.5c.59-1.8,1.12-3.64,1.6-5.52.48-1.88.9-3.78,1.27-5.71.37-1.93.68-3.84.93-5.75l1.54.08c-.24,1.88-.54,3.79-.91,5.74-.37,1.95-.79,3.88-1.28,5.8-.49,1.92-1.03,3.8-1.63,5.64l-1.52-.28ZM82.25,536.32c-1.16,0-2.17-.13-3.02-.4-.85-.27-1.52-.64-2-1.12-.48-.48-.72-1.05-.72-1.7,0-.53.19-1.06.57-1.57.38-.51.97-1.05,1.77-1.61l1.08.98c-.63.39-1.09.75-1.38,1.08s-.44.66-.44.98c0,.39.17.73.52,1.02s.83.52,1.46.69c.63.17,1.35.25,2.16.25.63,0,1.28-.03,1.96-.1.68-.07,1.37-.17,2.08-.3l.18,1.4c-.72.13-1.43.23-2.13.3-.7.07-1.4.1-2.09.1ZM77.15,526.64c1.51-.24,2.96-.43,4.37-.56,1.41-.13,2.82-.23,4.23-.28l.04,1.36c-1.35.05-2.74.15-4.18.29-1.44.14-2.87.32-4.3.55l-.16-1.36Z"/><path class="cls-1" d="M97.96,536c-.72,0-1.39-.23-2-.7-.61-.47-1.15-1.11-1.62-1.94s-.83-1.78-1.09-2.86-.39-2.24-.39-3.48c0-.49.02-1.06.06-1.7s.09-1.28.16-1.91c.07-.63.14-1.18.22-1.63l1.56.14c-.07.4-.13.9-.2,1.49-.07.59-.12,1.2-.16,1.82-.04.62-.06,1.17-.06,1.65,0,1,.1,1.95.29,2.85s.46,1.7.79,2.4c.33.7.71,1.25,1.13,1.66.42.41.86.61,1.33.61s.91-.23,1.34-.68c.43-.45.83-1.12,1.2-2.01s.71-1.96,1-3.23l1.48.56c-.56,2.27-1.27,3.99-2.12,5.18-.85,1.19-1.83,1.78-2.92,1.78ZM108.25,533.6c-.12-1.44-.35-2.85-.69-4.23-.34-1.38-.77-2.68-1.28-3.91-.51-1.23-1.1-2.33-1.77-3.3l1.38-.56c.71.99,1.33,2.11,1.86,3.36.53,1.25.97,2.59,1.32,4s.59,2.87.72,4.38l-1.54.26Z"/><circle class="cls-3" cx="311.71" cy="512.31" r="78.21"/><path class="cls-1" d="M258.69,503.8v-13.34h6.64v12.08h-5.14v-1.34h3.7v-4.18h-3.7v-1.32h3.7v-3.88h-3.7v11.98h-1.5ZM265.07,507.3l-1.16-.98c.6-.56,1.11-1.14,1.52-1.73.41-.59.74-1.24.99-1.94.25-.7.43-1.49.54-2.37.11-.88.17-1.89.17-3.04v-7.1h7.96v14.46c0,.56-.01,1.01-.04,1.35-.03.34-.1.59-.21.76-.11.17-.29.28-.53.33-.24.05-.58.08-1.02.08-.27,0-.64-.01-1.12-.03-.48-.02-1.05-.04-1.7-.07l-.04-1.36c.53.03.99.05,1.38.07s.68.03.88.03c.28,0,.48-.02.6-.05.12-.03.19-.13.22-.3.03-.17.04-.44.04-.81v-3.5h-5.56v-1.3h5.56v-3.68h-4.96v-1.3h4.96v-3.36h-4.96v6.44c0,1.48-.12,2.78-.36,3.91s-.62,2.13-1.14,3.01c-.52.88-1.19,1.71-2.02,2.48Z"/><path class="cls-1" d="M282.89,507.2v-17h14v17h-1.58v-1.28h-10.84v-1.32h10.84v-6.08h-10.84v-1.32h10.84v-5.64h-10.84v15.64h-1.58Z"/><path class="cls-1" d="M317.49,506.52v-1.4h-13.34v-1.4h13.34v-10.6h-13.34v-1.4h14.34l.6.82v13.98h-1.6ZM317.89,493.16c-.35-.75-.69-1.4-1.02-1.97-.33-.57-.7-1.11-1.1-1.63l1.1-.74c.45.57.85,1.16,1.2,1.76.35.6.69,1.25,1.02,1.96l-1.2.62ZM320.89,492.88c-.33-.76-.66-1.43-.97-2-.31-.57-.66-1.13-1.03-1.66l1.12-.66c.41.57.78,1.17,1.11,1.78.33.61.64,1.28.95,2l-1.18.54Z"/><path class="cls-1" d="M326.08,505.08c.73-.48,1.34-.98,1.81-1.51.47-.53.84-1.15,1.11-1.88.27-.73.46-1.61.57-2.66.11-1.05.17-2.31.17-3.79v-4.92h1.54v5.02c0,1.61-.07,3-.22,4.17-.15,1.17-.39,2.17-.73,3.02-.34.85-.79,1.58-1.35,2.21-.56.63-1.26,1.2-2.1,1.72l-.8-1.38ZM335.54,506.26v-15.94h1.56v15.24l-.9-.8c1.23,0,2.31-.3,3.26-.89.95-.59,1.73-1.45,2.35-2.57s1.04-2.47,1.27-4.06l1.46.22c-.24,1.81-.74,3.38-1.5,4.7-.76,1.32-1.72,2.33-2.88,3.04-1.16.71-2.48,1.06-3.96,1.06h-.66Z"/><path class="cls-1" d="M350.59,504.66c4.01-.13,7.05-1.26,9.1-3.38,2.05-2.12,3.08-5.19,3.08-9.2l.76.8h-14.46v-1.46h15.26v.66c0,2.97-.52,5.49-1.55,7.54s-2.55,3.63-4.56,4.72c-2.01,1.09-4.48,1.68-7.41,1.76l-.22-1.44Z"/><path class="cls-1" d="M283.61,536.32v-1.4h-13.26v-1.4h13.26v-10.72h-13.26v-1.4h14.86v14.92h-1.6Z"/><path class="cls-1" d="M298.77,526.04c-.99-.79-1.98-1.51-2.99-2.17-1.01-.66-2.04-1.27-3.09-1.83l.82-1.3c1.08.56,2.13,1.17,3.14,1.84,1.01.67,2.03,1.4,3.04,2.2l-.92,1.26ZM293.27,534.68c2.01-.19,3.81-.57,5.38-1.14,1.57-.57,2.94-1.34,4.09-2.31s2.1-2.13,2.85-3.5,1.29-2.95,1.62-4.75l1.46.32c-.45,2.6-1.32,4.81-2.61,6.63-1.29,1.82-2.98,3.25-5.07,4.3s-4.59,1.7-7.48,1.95l-.24-1.5Z"/><path class="cls-1" d="M330.15,535.2c-.93-.97-1.81-1.89-2.64-2.75-.83-.86-1.62-1.7-2.39-2.53-.77-.83-1.53-1.67-2.29-2.54-.55-.61-.98-1.08-1.29-1.39-.31-.31-.57-.53-.77-.64-.2-.11-.39-.17-.58-.17s-.37.06-.56.19-.42.37-.7.74-.68.91-1.2,1.63c-.48.71-1.02,1.48-1.63,2.31-.61.83-1.32,1.8-2.15,2.91l-1.18-.98c.84-1.11,1.58-2.09,2.21-2.95.63-.86,1.2-1.64,1.69-2.33.45-.64.84-1.16,1.15-1.56.31-.4.6-.71.85-.93.25-.22.5-.37.73-.46s.5-.13.79-.13.54.03.77.1c.23.07.48.19.73.38.25.19.55.45.9.79.35.34.76.78,1.24,1.33,1.27,1.37,2.5,2.69,3.69,3.95s2.44,2.54,3.73,3.85l-1.1,1.18ZM327.75,525.7c-.51,0-.97-.13-1.4-.38-.43-.25-.77-.59-1.02-1.02-.25-.43-.38-.89-.38-1.4s.13-.98.38-1.41c.25-.43.59-.77,1.02-1.02.43-.25.89-.37,1.4-.37s.98.12,1.41.37c.43.25.77.59,1.02,1.02.25.43.37.9.37,1.41s-.12.97-.37,1.4-.59.77-1.02,1.02c-.43.25-.9.38-1.41.38ZM327.75,524.38c.4,0,.75-.15,1.04-.44.29-.29.44-.64.44-1.04s-.15-.75-.44-1.04c-.29-.29-.64-.44-1.04-.44s-.75.15-1.04.44c-.29.29-.44.64-.44,1.04s.15.75.44,1.04c.29.29.64.44,1.04.44Z"/><path class="cls-1" d="M336.87,523c1.37-.03,2.71-.07,4.01-.14,1.3-.07,2.62-.16,3.97-.27s2.77-.25,4.26-.41l.12,1.34c-1.52.17-2.96.32-4.32.43-1.36.11-2.7.2-4.01.27-1.31.07-2.66.11-4.03.14v-1.36ZM337.17,536.7c.59-1.8,1.12-3.64,1.6-5.52.48-1.88.9-3.78,1.27-5.71.37-1.93.68-3.84.93-5.75l1.54.08c-.24,1.88-.54,3.79-.91,5.74-.37,1.95-.79,3.88-1.28,5.8-.49,1.92-1.03,3.8-1.63,5.64l-1.52-.28ZM349.27,536.52c-1.16,0-2.17-.13-3.02-.4-.85-.27-1.52-.64-2-1.12-.48-.48-.72-1.05-.72-1.7,0-.53.19-1.06.57-1.57s.97-1.05,1.77-1.61l1.08.98c-.63.39-1.09.75-1.38,1.08-.29.33-.44.66-.44.98,0,.39.17.73.52,1.02.35.29.83.52,1.46.69.63.17,1.35.25,2.16.25.63,0,1.28-.03,1.96-.1.68-.07,1.37-.17,2.08-.3l.18,1.4c-.72.13-1.43.23-2.13.3-.7.07-1.4.1-2.09.1ZM344.17,526.84c1.51-.24,2.96-.43,4.37-.56,1.41-.13,2.82-.23,4.23-.28l.04,1.36c-1.35.05-2.74.15-4.18.29-1.44.14-2.87.32-4.3.55l-.16-1.36ZM351.19,523.92c-.33-.75-.66-1.41-.99-1.99-.33-.58-.68-1.14-1.07-1.67l1.14-.68c.43.57.8,1.16,1.13,1.77.33.61.66,1.27.99,1.99l-1.2.58ZM353.91,522.88c-.32-.76-.64-1.43-.96-2.01-.32-.58-.67-1.14-1.04-1.67l1.12-.64c.43.59.8,1.18,1.13,1.79.33.61.64,1.27.95,1.99l-1.2.54Z"/><circle class="cls-3" cx="544.96" cy="512.31" r="78.21"/><path class="cls-1" d="M490.53,494.82v-1.4h18.52v1.4h-18.52ZM493.93,499.88v-10.06h1.56v10.06h-1.56ZM494.35,504.96c1.85-.04,3.41-.2,4.66-.48s2.26-.72,3.01-1.32c.75-.6,1.3-1.39,1.63-2.38.33-.99.5-2.19.5-3.62v-7.34h1.58v7.34c0,1.63-.2,3.02-.61,4.17-.41,1.15-1.05,2.09-1.93,2.82-.88.73-2.03,1.27-3.44,1.62s-3.13.55-5.16.59l-.24-1.4Z"/><path class="cls-1" d="M517.49,500.3c-.21-.99-.45-1.93-.7-2.84-.25-.91-.51-1.75-.78-2.54l1.4-.38c.27.75.53,1.57.78,2.48.25.91.5,1.9.74,2.98l-1.44.3ZM518.45,504.72c1.72-.19,3.17-.52,4.35-.99s2.13-1.13,2.85-1.96c.72-.83,1.25-1.88,1.58-3.13.33-1.25.51-2.76.52-4.52l1.5.04c-.01,1.96-.22,3.65-.62,5.06-.4,1.41-1.02,2.6-1.85,3.55-.83.95-1.92,1.7-3.25,2.24-1.33.54-2.95.92-4.84,1.13l-.24-1.42ZM522.11,499.98c-.2-1-.42-1.98-.67-2.94-.25-.96-.52-1.87-.83-2.72l1.42-.36c.31.88.59,1.81.85,2.78.26.97.48,1.95.67,2.94l-1.44.3Z"/><path class="cls-1" d="M549.49,506c-.4,0-.88-.02-1.44-.05-.56-.03-1.14-.08-1.73-.14-.59-.06-1.14-.12-1.65-.19l.14-1.44c.4.07.87.12,1.4.17.53.05,1.06.09,1.59.12.53.03.96.05,1.29.05.39,0,.7-.06.95-.18s.45-.38.61-.77c.16-.39.28-.99.36-1.8.08-.81.14-1.89.18-3.26.04-1.37.06-3.1.06-5.19l.8.8h-15.42v-1.4h16.16v.74c0,2.21-.02,4.07-.06,5.56s-.12,2.7-.25,3.63c-.13.93-.31,1.63-.56,2.12s-.57.81-.96.98-.88.25-1.47.25ZM536.71,505.26c.93-.6,1.73-1.24,2.4-1.91.67-.67,1.22-1.42,1.67-2.25.45-.83.8-1.79,1.06-2.88.26-1.09.44-2.37.55-3.82.11-1.45.16-3.15.16-5.08h1.5c0,2.01-.06,3.79-.19,5.34-.13,1.55-.33,2.91-.62,4.09-.29,1.18-.68,2.22-1.17,3.13-.49.91-1.1,1.72-1.81,2.45-.71.73-1.57,1.41-2.57,2.05l-.98-1.12Z"/><path class="cls-1" d="M559.79,499.22v-1.54h16.28v1.54h-16.28Z"/><path class="cls-1" d="M590.74,506.2c-.33,0-.76-.05-1.29-.16-.53-.11-1.08-.25-1.67-.42-.59-.17-1.14-.35-1.66-.54l.38-1.36c.45.17.93.34,1.43.49s.96.28,1.39.37.75.14.98.14c.52,0,.96-.27,1.31-.81.35-.54.62-1.34.81-2.4.19-1.06.28-2.38.28-3.97,0-.71-.03-1.27-.1-1.7-.07-.43-.19-.74-.38-.95-.19-.21-.47-.35-.85-.42-.38-.07-.89-.11-1.53-.11-.6,0-1.32.02-2.16.07-.84.05-1.79.11-2.85.2-1.06.09-2.24.2-3.53.33l-.12-1.36c2.03-.21,3.75-.37,5.17-.46,1.42-.09,2.68-.14,3.77-.14.72,0,1.32.03,1.81.1.49.07.88.19,1.19.37.31.18.54.44.7.79.16.35.27.8.32,1.36.05.56.08,1.25.08,2.08,0,1.88-.13,3.45-.38,4.71-.25,1.26-.64,2.21-1.15,2.84-.51.63-1.16.95-1.95.95ZM581.5,505.94c.53-1.04,1.01-2.05,1.43-3.03.42-.98.8-1.97,1.14-2.96s.65-2.02.93-3.08c.28-1.06.53-2.19.76-3.4.23-1.21.45-2.52.66-3.93l1.48.16c-.24,1.75-.51,3.36-.81,4.84s-.65,2.88-1.04,4.2c-.39,1.32-.85,2.62-1.36,3.89-.51,1.27-1.1,2.58-1.77,3.91l-1.42-.6ZM595.61,494.12c-.35-.73-.69-1.39-1.02-1.96s-.7-1.13-1.1-1.66l1.14-.68c.43.56.81,1.14,1.15,1.75.34.61.68,1.26,1.01,1.97l-1.18.58ZM597.94,503.48c-.13-.81-.32-1.68-.55-2.61s-.5-1.86-.79-2.8c-.29-.94-.61-1.84-.94-2.71l1.42-.48c.33.89.65,1.82.96,2.78s.58,1.91.81,2.86c.23.95.42,1.85.57,2.7l-1.48.26ZM598.3,493.04c-.33-.75-.66-1.41-.99-1.98-.33-.57-.68-1.13-1.07-1.66l1.12-.64c.43.57.81,1.16,1.15,1.77.34.61.67,1.26.99,1.97l-1.2.54Z"/><path class="cls-1" d="M521.35,536.6c-1.29,0-2.34-.24-3.14-.71-.8-.47-1.38-1.22-1.74-2.25-.36-1.03-.54-2.37-.54-4.04v-9.34h1.56v9.34c0,1.35.13,2.43.39,3.24.26.81.68,1.4,1.26,1.75.58.35,1.35.53,2.31.53,1.77,0,3.35-.53,4.74-1.58s2.56-2.61,3.52-4.68l1.3.66c-1.07,2.33-2.41,4.1-4.03,5.29-1.62,1.19-3.5,1.79-5.63,1.79Z"/><path class="cls-1" d="M536.34,522.8c1.15-.03,2.27-.06,3.36-.11,1.09-.05,2.19-.11,3.28-.19,1.09-.08,2.22-.18,3.39-.29s2.4-.25,3.69-.41l.1,1.36c-1.32.16-2.57.3-3.75.41-1.18.11-2.32.21-3.42.29s-2.2.14-3.29.19c-1.09.05-2.21.08-3.36.11v-1.36ZM536.64,536.5c.59-1.8,1.12-3.64,1.6-5.52.48-1.88.9-3.78,1.27-5.71.37-1.93.68-3.84.93-5.75l1.54.08c-.24,1.88-.54,3.79-.91,5.74-.37,1.95-.79,3.88-1.28,5.8-.49,1.92-1.03,3.8-1.63,5.64l-1.52-.28ZM548.74,536.32c-1.16,0-2.17-.13-3.02-.4-.85-.27-1.52-.64-2-1.12-.48-.48-.72-1.05-.72-1.7,0-.53.19-1.06.57-1.57.38-.51.97-1.05,1.77-1.61l1.08.98c-.63.39-1.09.75-1.38,1.08s-.44.66-.44.98c0,.39.17.73.52,1.02s.83.52,1.46.69c.63.17,1.35.25,2.16.25.63,0,1.28-.03,1.96-.1.68-.07,1.37-.17,2.08-.3l.18,1.4c-.72.13-1.43.23-2.13.3-.7.07-1.4.1-2.09.1ZM543.64,526.64c1.51-.24,2.96-.43,4.37-.56,1.41-.13,2.82-.23,4.23-.28l.04,1.36c-1.35.05-2.74.15-4.18.29-1.44.14-2.87.32-4.3.55l-.16-1.36Z"/><path class="cls-1" d="M564.46,536c-.72,0-1.39-.23-2-.7-.61-.47-1.15-1.11-1.62-1.94s-.83-1.78-1.09-2.86-.39-2.24-.39-3.48c0-.49.02-1.06.06-1.7s.09-1.28.16-1.91c.07-.63.14-1.18.22-1.63l1.56.14c-.07.4-.13.9-.2,1.49-.07.59-.12,1.2-.16,1.82-.04.62-.06,1.17-.06,1.65,0,1,.1,1.95.29,2.85s.46,1.7.79,2.4c.33.7.71,1.25,1.13,1.66.42.41.86.61,1.33.61s.91-.23,1.34-.68c.43-.45.83-1.12,1.2-2.01s.71-1.96,1-3.23l1.48.56c-.56,2.27-1.27,3.99-2.12,5.18-.85,1.19-1.83,1.78-2.92,1.78ZM574.74,533.6c-.12-1.44-.35-2.85-.69-4.23-.34-1.38-.77-2.68-1.28-3.91-.51-1.23-1.1-2.33-1.77-3.3l1.38-.56c.71.99,1.33,2.11,1.86,3.36.53,1.25.97,2.59,1.32,4s.59,2.87.72,4.38l-1.54.26Z"/><circle class="cls-3" cx="778.2" cy="512.31" r="78.21"/><path class="cls-1" d="M746.59,507.02l-.8-1.26c1.03-.44,1.88-.93,2.56-1.46.68-.53,1.22-1.16,1.63-1.88.41-.72.7-1.58.88-2.57.18-.99.27-2.17.27-3.53l1.5.2c0,1.47-.1,2.75-.31,3.84-.21,1.09-.55,2.05-1.02,2.86-.47.81-1.1,1.53-1.87,2.14-.77.61-1.72,1.17-2.84,1.66ZM759.63,506.72c-.79,0-1.41-.02-1.88-.06s-.82-.13-1.06-.26c-.24-.13-.4-.33-.47-.6s-.11-.63-.11-1.08v-7.82h-9.9v-1.38h16.92v1.38h-5.46v7.56c0,.23.01.4.04.53.03.13.1.22.23.27.13.05.33.09.62.11.29.02.7.03,1.23.03.43,0,.77-.02,1.04-.05.27-.03.48-.12.63-.26.15-.14.27-.38.35-.72.08-.34.14-.81.17-1.4.03-.59.06-1.36.09-2.31l1.54.1c-.04,1.17-.09,2.13-.14,2.87s-.15,1.32-.28,1.75c-.13.43-.34.73-.61.92s-.65.3-1.12.35c-.47.05-1.08.07-1.83.07ZM747.81,491.6v-1.38h13.72v1.38h-13.72Z"/><path class="cls-1" d="M770.45,496.66l-1.2-.82c.84-.97,1.59-2.06,2.24-3.26.65-1.2,1.19-2.43,1.6-3.7l1.46.32c-.41,1.37-.97,2.7-1.68,3.98-.71,1.28-1.51,2.44-2.42,3.48ZM770.33,507.26l-.64-1.2c1.95-.79,3.79-1.81,5.54-3.07,1.75-1.26,3.27-2.66,4.58-4.21l1.12.86c-.91,1.08-1.92,2.1-3.05,3.06-1.13.96-2.33,1.82-3.6,2.59s-2.59,1.42-3.95,1.97ZM785.61,507.26c-.39,0-.78-.2-1.17-.6-.39-.4-.76-.98-1.09-1.75s-.61-1.71-.83-2.82-.34-2.39-.37-3.83h-10.78v-1.26h12.34v.46c0,1.24.07,2.36.21,3.35.14.99.32,1.84.53,2.55.21.71.43,1.24.64,1.61.21.37.39.55.52.55.07,0,.13-.07.19-.2.06-.13.11-.33.16-.6.05-.27.1-.6.15-1.01.05-.41.1-.87.15-1.4s.09-1.12.13-1.79l1.36.22c-.08,1.44-.18,2.6-.3,3.47-.12.87-.26,1.53-.43,1.97-.17.44-.37.73-.6.87-.23.14-.5.21-.81.21ZM780.63,506.92c-1.17-1.08-2.27-2.03-3.28-2.84-1.01-.81-1.99-1.54-2.92-2.17-.93-.63-1.88-1.21-2.84-1.73l.76-1.1c1,.53,1.97,1.12,2.92,1.76.95.64,1.93,1.37,2.96,2.2s2.14,1.79,3.34,2.9l-.94.98ZM772.95,492v-1.32h13.14v1.32h-13.14ZM773.15,495.06v-1.26h11.74v1.26h-11.74Z"/><path class="cls-1" d="M795.07,506.66c-.35-1.36-.6-2.69-.76-4s-.24-2.71-.24-4.2.08-2.85.24-4.16c.16-1.31.41-2.65.76-4.02l1.52.22c-.33,1.32-.58,2.62-.73,3.91-.15,1.29-.23,2.64-.23,4.05s.08,2.78.23,4.07c.15,1.29.4,2.58.73,3.87l-1.52.26ZM804.89,505.56c-1.23,0-2.31-.16-3.24-.47-.93-.31-1.66-.75-2.19-1.31-.53-.56-.79-1.2-.79-1.92,0-1.32.92-2.66,2.76-4.02l1.06.88c-.79.57-1.37,1.11-1.74,1.6-.37.49-.56.97-.56,1.44s.19.9.58,1.26.93.64,1.64.84c.71.2,1.53.3,2.48.3.71,0,1.47-.05,2.3-.16.83-.11,1.64-.25,2.44-.42l.24,1.38c-.83.19-1.67.33-2.52.44-.85.11-1.67.16-2.46.16ZM803.45,493.7c-.61,0-1.26-.02-1.94-.06-.68-.04-1.27-.09-1.78-.14l.06-1.4c.49.05,1.07.1,1.74.14.67.04,1.31.06,1.92.06.92,0,1.86-.05,2.82-.14s2.04-.25,3.24-.46l.08,1.4c-1.2.21-2.29.37-3.26.46-.97.09-1.93.14-2.88.14Z"/><path class="cls-1" d="M735.23,522.76c2.76,0,6.03-.2,9.82-.6l.08,1.38c-3.81.4-7.11.6-9.9.6v-1.38ZM735.41,533.46c1.12-2.39,2.05-4.72,2.78-6.99.73-2.27,1.32-4.62,1.76-7.05l1.46.16c-.4,2.32-.98,4.65-1.73,7-.75,2.35-1.7,4.79-2.85,7.34l-1.42-.46ZM744.03,536.6c-.95,0-1.75-.14-2.42-.42-.67-.28-1.18-.68-1.53-1.21-.35-.53-.53-1.16-.53-1.91,0-1.15.41-2.02,1.23-2.63.82-.61,2-.91,3.53-.91.67,0,1.31.08,1.94.25s1.28.44,1.95.83c.67.39,1.41.9,2.21,1.53.8.63,1.7,1.42,2.7,2.35l-.92,1.06c-1.08-1-2-1.81-2.75-2.44-.75-.63-1.41-1.11-1.98-1.44-.57-.33-1.09-.56-1.58-.69-.49-.13-1.01-.19-1.57-.19-1.12,0-1.95.18-2.49.55s-.81.93-.81,1.69.26,1.31.77,1.7c.51.39,1.26.58,2.25.58,1.11,0,1.94-.24,2.5-.71.56-.47.84-1.15.84-2.03v-10.1c2.2,0,4.16.1,5.88.3l-.12,1.36c-1.65-.2-3.52-.3-5.6-.3l1.34-.94v9.54c0,1.36-.41,2.4-1.24,3.11-.83.71-2.03,1.07-3.6,1.07Z"/><path class="cls-1" d="M761.48,535.06c2.61,0,4.74-.25,6.37-.74,1.63-.49,2.83-1.28,3.58-2.35.75-1.07,1.13-2.46,1.13-4.15,0-1.79-.38-3.14-1.15-4.07s-1.88-1.39-3.33-1.39c-1.01,0-1.92.21-2.73.64s-1.48,1.03-2.01,1.81c-.53.78-.9,1.69-1.1,2.73s-.19,2.15.02,3.32l-1.54.12c-.27-1.63-.4-3.37-.4-5.24s.13-3.65.4-5.28l1.54.12c-.27,1.59-.4,3.31-.4,5.16,0,.47,0,.94.03,1.43.02.49.04.96.07,1.41l-1-1.5c.28-1.29.75-2.4,1.42-3.32.67-.92,1.49-1.63,2.47-2.13.98-.5,2.09-.75,3.33-.75,1.93,0,3.41.6,4.42,1.79,1.01,1.19,1.52,2.91,1.52,5.15,0,2.03-.44,3.68-1.32,4.95-.88,1.27-2.25,2.21-4.1,2.82s-4.23.91-7.14.91l-.08-1.44Z"/><path class="cls-1" d="M780.96,522.8c1.15-.03,2.27-.06,3.36-.11,1.09-.05,2.19-.11,3.28-.19,1.09-.08,2.22-.18,3.39-.29s2.4-.25,3.69-.41l.1,1.36c-1.32.16-2.57.3-3.75.41-1.18.11-2.32.21-3.42.29s-2.2.14-3.29.19c-1.09.05-2.21.08-3.36.11v-1.36ZM781.26,536.5c.59-1.8,1.12-3.64,1.6-5.52.48-1.88.9-3.78,1.27-5.71.37-1.93.68-3.84.93-5.75l1.54.08c-.24,1.88-.54,3.79-.91,5.74-.37,1.95-.79,3.88-1.28,5.8-.49,1.92-1.03,3.8-1.63,5.64l-1.52-.28ZM793.36,536.32c-1.16,0-2.17-.13-3.02-.4-.85-.27-1.52-.64-2-1.12-.48-.48-.72-1.05-.72-1.7,0-.53.19-1.06.57-1.57.38-.51.97-1.05,1.77-1.61l1.08.98c-.63.39-1.09.75-1.38,1.08s-.44.66-.44.98c0,.39.17.73.52,1.02s.83.52,1.46.69c.63.17,1.35.25,2.16.25.63,0,1.28-.03,1.96-.1.68-.07,1.37-.17,2.08-.3l.18,1.4c-.72.13-1.43.23-2.13.3-.7.07-1.4.1-2.09.1ZM788.26,526.64c1.51-.24,2.96-.43,4.37-.56,1.41-.13,2.82-.23,4.23-.28l.04,1.36c-1.35.05-2.74.15-4.18.29-1.44.14-2.87.32-4.3.55l-.16-1.36Z"/><path class="cls-1" d="M809.08,536c-.72,0-1.39-.23-2-.7-.61-.47-1.15-1.11-1.62-1.94s-.83-1.78-1.09-2.86-.39-2.24-.39-3.48c0-.49.02-1.06.06-1.7s.09-1.28.16-1.91c.07-.63.14-1.18.22-1.63l1.56.14c-.07.4-.13.9-.2,1.49-.07.59-.12,1.2-.16,1.82-.04.62-.06,1.17-.06,1.65,0,1,.1,1.95.29,2.85s.46,1.7.79,2.4c.33.7.71,1.25,1.13,1.66.42.41.86.61,1.33.61s.91-.23,1.34-.68c.43-.45.83-1.12,1.2-2.01s.71-1.96,1-3.23l1.48.56c-.56,2.27-1.27,3.99-2.12,5.18-.85,1.19-1.83,1.78-2.92,1.78ZM819.36,533.6c-.12-1.44-.35-2.85-.69-4.23-.34-1.38-.77-2.68-1.28-3.91-.51-1.23-1.1-2.33-1.77-3.3l1.38-.56c.71.99,1.33,2.11,1.86,3.36.53,1.25.97,2.59,1.32,4s.59,2.87.72,4.38l-1.54.26Z"/><path class="cls-1" d="M476.5,261.58h-23.12c-.13,0-.25.1-.27.23l-12.3,67.9c-.02.08,0,.16.06.22.05.06.13.1.21.1h13.55c.13,0,.25-.1.27-.23l2.15-12.37c.06-.34.36-.59.71-.59h14.37c.35,0,.65.25.71.6l2.14,12.37c.02.13.14.23.28.23h13.55c.08,0,.16-.04.21-.1.05-.06.07-.15.06-.22l-12.3-67.9c-.02-.13-.13-.23-.27-.23M470.44,304.05c.03.21-.03.42-.16.58-.14.16-.34.25-.54.25h-9.6c-.21,0-.41-.09-.55-.25-.14-.16-.2-.37-.17-.58l4.83-31.42c.05-.35.35-.61.71-.61s.66.26.71.61l4.77,31.42Z"/><path class="cls-1" d="M520.59,290.95c-9.15-4.73-10.33-6.83-10.33-8.12v-6.67c0-1.64.9-2.57,2.47-2.57h6.97c1.6,0,2.52.94,2.52,2.57v6.89c0,.15.12.28.28.28h12.61c.16,0,.28-.12.28-.28v-10.3c0-3.84-.89-6.7-2.67-8.51-1.92-1.88-4.64-2.62-9.73-2.65h-14c-5.08.03-7.81.78-9.74,2.67-1.76,1.79-2.65,4.65-2.65,8.49v11.55c0,4.16.89,7.19,2.67,9,1.85,1.82,6.02,4.46,12.38,7.83,8.88,4.71,10.08,6.5,10.08,7.63v6.72c0,1.64-.9,2.57-2.48,2.57h-6.97c-1.6,0-2.52-.93-2.52-2.57v-6.89c0-.15-.13-.28-.28-.28h-13.1c-.15,0-.28.13-.28.28v10.3c0,3.84.9,6.7,2.67,8.51,1.91,1.88,4.64,2.63,9.73,2.66h14.97c5.08-.03,7.81-.78,9.74-2.67,1.76-1.79,2.65-4.65,2.65-8.49v-11.11c0-4.16-.9-7.19-2.67-9-1.85-1.82-6.1-4.45-12.62-7.82"/><path class="cls-1" d="M434.11,261.58h-33c-.15,0-.28.13-.28.28v67.9c0,.15.13.28.28.28h33c.15,0,.28-.13.28-.28v-11.45c0-.15-.13-.27-.28-.27h-18.39c-.4,0-.72-.32-.72-.72v-14.81c0-.39.32-.72.72-.72h15.66c.16,0,.28-.12.28-.28v-11.45c0-.15-.12-.28-.28-.28h-15.66c-.4,0-.72-.32-.72-.72v-14.76c0-.39.32-.72.72-.72h18.39c.15,0,.28-.12.28-.28v-11.44c0-.15-.13-.28-.28-.28"/><path class="cls-2" d="M328.73,261.58h-13.59c-.15,0-.28.13-.28.28v67.9c0,.15.12.28.28.28h13.59c.15,0,.28-.13.28-.28v-67.9c0-.15-.13-.28-.28-.28"/><path class="cls-1" d="M305.26,261.58h-32.98c-.15,0-.28.13-.28.28v67.9c0,.15.13.28.28.28h13.59c.15,0,.28-.13.28-.28v-27.25c0-.39.32-.72.72-.72h16.63c.15,0,.28-.12.28-.28v-11.45c0-.15-.13-.28-.28-.28h-16.63c-.4,0-.72-.32-.72-.72v-14.76c0-.39.32-.72.72-.72h18.39c.15,0,.28-.12.28-.28v-11.44c0-.15-.12-.28-.28-.28"/><path class="cls-2" d="M376.93,261.58h-39.21c-.15,0-.28.13-.28.28v11.44c0,.16.13.28.28.28h11.81c.4,0,.72.32.72.72v55.46c0,.15.12.28.28.28h13.59c.15,0,.28-.13.28-.28v-55.46c0-.39.32-.72.72-.72h11.81c.15,0,.28-.12.28-.28v-11.44c0-.15-.12-.28-.28-.28"/><path class="cls-1" d="M588.5,261.7c-.05-.08-.13-.12-.22-.12h-13.43c-.12,0-.23.08-.26.19l-9.28,28.92c-.1.3-.37.5-.69.5s-.59-.2-.69-.5l-9.22-28.92c-.04-.12-.15-.19-.27-.19h-13.43c-.09,0-.17.04-.23.12-.05.07-.06.17-.03.25l16.75,45.86c.03.08.04.16.04.25v21.7c0,.15.12.28.28.28h13.59c.15,0,.28-.13.28-.28v-21.6c0-.09.02-.17.04-.25l16.8-45.95c.03-.08.02-.18-.03-.25"/><path class="cls-2" d="M390.73,291.2h-14.81c-.15,0-.28.13-.28.28v11.48c0,.15.12.28.28.28h14.81c.15,0,.28-.12.28-.28v-11.48c0-.15-.13-.28-.28-.28"/><path class="cls-1" d="M611.78,341.37h-13.81v-8.9h13.81c.14,0,.28-.14.28-.28v-75.42c0-.15-.14-.28-.28-.28h-13.81v-8.9h13.81c5.06,0,9.18,4.12,9.18,9.18v75.42c0,5.06-4.12,9.18-9.18,9.18"/><path class="cls-1" d="M242.07,341.37h13.81v-8.9h-13.81c-.14,0-.28-.14-.28-.28v-75.42c0-.15.14-.28.28-.28h13.81v-8.9h-13.81c-5.06,0-9.18,4.12-9.18,9.18v75.42c0,5.06,4.12,9.18,9.18,9.18"/><path class="cls-1" d="M286.49,357.41c-.09-.07-.13-.16-.13-.27,0-.07.03-.17.09-.3l6.68-12.57c.11-.2.24-.3.39-.3.17,0,.3.1.39.3l6.68,12.57c.06.12.09.22.09.3,0,.11-.04.2-.13.27-.09.07-.2.1-.35.1h-2.02c-.28,0-.5-.14-.65-.41l-.87-1.67h-6.31l-.83,1.67c-.12.27-.34.41-.65.41h-2.04c-.15,0-.27-.03-.35-.1M295.26,352.94l-1.74-3.53-1.72,3.53h3.46Z"/><path class="cls-1" d="M316.36,344.12c.1,0,.18.04.23.13.05.09.08.2.08.35v12.36c0,.17-.05.31-.15.41-.1.1-.23.15-.41.15h-1.83c-.17,0-.31-.05-.41-.15-.1-.1-.15-.23-.15-.41v-5.9l-3.76,4.35c-.11.15-.24.22-.39.22-.12,0-.25-.07-.39-.22l-3.76-4.35v5.9c0,.17-.05.31-.15.41-.1.1-.23.15-.41.15h-1.83c-.17,0-.31-.05-.41-.15-.1-.1-.15-.23-.15-.41v-12.36c0-.15.03-.26.08-.35.05-.09.13-.13.23-.13.12,0,.25.07.37.22l6.4,7.22,6.4-7.22c.14-.15.26-.22.37-.22"/><path class="cls-1" d="M322.67,357.05c-.91-.47-1.62-1.14-2.13-2-.51-.88-.76-1.88-.76-3.02v-7.48c0-.17.05-.31.15-.41.1-.1.23-.15.41-.15h1.81c.17,0,.31.05.41.15.1.1.15.24.15.41v7.48c0,.74.16,1.36.48,1.85.32.49.74.84,1.26,1.05.44.2.91.3,1.41.3s.97-.11,1.44-.32c.47-.21.86-.54,1.17-1,.33-.47.5-1.1.5-1.89v-7.48c0-.17.05-.31.15-.41.1-.1.23-.15.41-.15h1.81c.17,0,.31.05.41.15.1.1.15.24.15.41v7.48c0,1.15-.25,2.15-.74,3.02-.49.86-1.2,1.53-2.11,2-.91.47-1.97.7-3.18.7s-2.27-.23-3.18-.7"/><path class="cls-1" d="M334.53,355.57c0-.11.04-.23.13-.35l.92-1.33c.1-.17.23-.26.41-.26.11,0,.23.04.35.13.58.39,1.25.72,2.01.99.76.27,1.45.4,2.06.4.75,0,1.36-.14,1.81-.44.46-.29.68-.65.68-1.06,0-.6-.47-1.04-1.41-1.29l-1.61-.33c-1.06-.17-1.93-.38-2.62-.63-.68-.25-1.3-.64-1.84-1.17-.6-.57-.91-1.35-.91-2.35,0-1.37.5-2.39,1.51-3.07,1.01-.68,2.29-1.02,3.86-1.02.97,0,1.84.12,2.61.36.76.24,1.52.61,2.28,1.12.17.12.26.26.26.42,0,.14-.04.25-.13.35l-.98,1.33c-.11.17-.25.26-.41.26-.12,0-.25-.04-.37-.13-.54-.34-1.1-.61-1.68-.8-.57-.18-1.14-.28-1.69-.28-.64,0-1.19.11-1.65.33-.46.22-.68.55-.68,1,0,.27.12.5.35.68.23.19.52.32.87.41.25.07.73.19,1.46.35l.67.13c1.15.22,2.04.46,2.66.7.63.25,1.17.64,1.63,1.17.49.57.74,1.36.74,2.37,0,1.35-.48,2.38-1.43,3.11-.96.73-2.27,1.09-3.95,1.09-2.23,0-4.13-.59-5.68-1.78-.16-.12-.24-.27-.24-.43"/><path class="cls-1" d="M350.95,349.54h5.92c.17,0,.31.05.41.15.1.1.15.23.15.41v1.44c0,.17-.05.31-.15.41-.1.1-.23.15-.41.15h-5.92v2.89h6.77c.17,0,.31.05.41.15.1.1.15.23.15.41v1.42c0,.17-.05.31-.15.41-.1.1-.23.15-.41.15h-9.14c-.17,0-.31-.05-.41-.15-.1-.1-.15-.23-.15-.41v-12.42c0-.17.05-.31.15-.41.1-.1.23-.15.41-.15h9.14c.17,0,.31.05.41.15.1.1.15.23.15.41v1.43c0,.17-.05.31-.15.41-.1.1-.23.15-.41.15h-6.77v3.02Z"/><path class="cls-1" d="M374.86,344.12c.1,0,.18.04.23.13.06.09.08.2.08.35v12.36c0,.17-.05.31-.15.41-.1.1-.23.15-.41.15h-1.83c-.17,0-.31-.05-.41-.15-.1-.1-.15-.23-.15-.41v-5.9l-3.76,4.35c-.11.15-.24.22-.39.22-.12,0-.25-.07-.39-.22l-3.76-4.35v5.9c0,.17-.05.31-.15.41-.1.1-.23.15-.41.15h-1.83c-.17,0-.31-.05-.41-.15-.1-.1-.15-.23-.15-.41v-12.36c0-.15.03-.26.08-.35.06-.09.13-.13.23-.13.12,0,.25.07.37.22l6.4,7.22,6.4-7.22c.14-.15.26-.22.37-.22"/><path class="cls-1" d="M381.19,349.54h5.92c.17,0,.31.05.41.15.1.1.15.23.15.41v1.44c0,.17-.05.31-.15.41-.1.1-.23.15-.41.15h-5.92v2.89h6.77c.17,0,.31.05.41.15.1.1.15.23.15.41v1.42c0,.17-.05.31-.15.41-.1.1-.23.15-.41.15h-9.14c-.17,0-.31-.05-.41-.15-.1-.1-.15-.23-.15-.41v-12.42c0-.17.05-.31.15-.41.1-.1.23-.15.41-.15h9.14c.17,0,.31.05.41.15.1.1.15.23.15.41v1.43c0,.17-.05.31-.15.41-.1.1-.23.15-.41.15h-6.77v3.02Z"/><path class="cls-1" d="M394.14,356.96c0,.17-.05.31-.15.41-.1.1-.23.15-.41.15h-1.79c-.17,0-.31-.05-.41-.15-.1-.1-.15-.23-.15-.41v-12.66c0-.1.02-.17.07-.23.05-.06.12-.08.2-.08.14,0,.27.06.41.19l8.64,7.64v-7.25c0-.17.05-.31.15-.41.1-.1.23-.15.41-.15h1.81c.17,0,.31.05.41.15.1.1.15.24.15.41v12.47c0,.15-.03.27-.09.36-.06.09-.14.14-.24.14-.11,0-.21-.04-.3-.13l-8.72-7.59v7.14Z"/><path class="cls-1" d="M416.59,346.38c-.1.1-.23.15-.41.15h-3.37v10.44c0,.17-.05.31-.15.41-.1.1-.23.15-.41.15h-1.83c-.17,0-.31-.05-.41-.15-.1-.1-.15-.23-.15-.41v-10.44h-3.39c-.17,0-.31-.05-.41-.15s-.15-.23-.15-.41v-1.43c0-.17.05-.31.15-.41.1-.1.23-.15.41-.15h9.7c.17,0,.31.05.41.15.1.1.15.23.15.41v1.43c0,.17-.05.31-.15.41"/><path class="cls-1" d="M427.01,349.5h5.9c.17,0,.31.05.41.15.1.1.15.23.15.41v1.42c0,.17-.05.31-.15.41-.1.1-.23.15-.41.15h-5.9v4.92c0,.17-.05.31-.15.41-.1.1-.23.15-.41.15h-1.83c-.17,0-.31-.05-.41-.15-.1-.1-.15-.23-.15-.41v-12.42c0-.17.05-.31.15-.41.1-.1.23-.15.41-.15h9.14c.17,0,.31.05.41.15.1.1.15.23.15.41v1.43c0,.17-.05.31-.15.41-.1.1-.23.15-.41.15h-6.75v2.98Z"/><path class="cls-1" d="M439.56,357.37c-.1.1-.23.15-.41.15h-1.81c-.17,0-.31-.05-.41-.15-.1-.1-.15-.23-.15-.41v-12.42c0-.17.05-.31.15-.41.1-.1.23-.15.41-.15h1.81c.17,0,.31.05.41.15.1.1.15.23.15.41v12.42c0,.17-.05.31-.15.41"/><path class="cls-1" d="M453.03,346.38c-.1.1-.24.15-.41.15h-3.37v10.44c0,.17-.05.31-.15.41-.1.1-.24.15-.41.15h-1.83c-.17,0-.31-.05-.41-.15-.1-.1-.15-.23-.15-.41v-10.44h-3.39c-.17,0-.31-.05-.41-.15s-.15-.23-.15-.41v-1.43c0-.17.05-.31.15-.41.1-.1.23-.15.41-.15h9.7c.17,0,.31.05.41.15.1.1.15.23.15.41v1.43c0,.17-.05.31-.15.41"/><path class="cls-1" d="M457.88,356.96c0,.17-.05.31-.15.41-.1.1-.23.15-.41.15h-1.8c-.17,0-.31-.05-.41-.15-.1-.1-.15-.23-.15-.41v-12.66c0-.1.03-.17.07-.23.05-.06.12-.08.2-.08.14,0,.27.06.41.19l8.64,7.64v-7.25c0-.17.05-.31.15-.41.1-.1.23-.15.41-.15h1.81c.17,0,.31.05.41.15.1.1.15.24.15.41v12.47c0,.15-.03.27-.09.36-.06.09-.14.14-.24.14-.11,0-.21-.04-.3-.13l-8.72-7.59v7.14Z"/><path class="cls-1" d="M473.2,349.54h5.92c.17,0,.31.05.41.15.1.1.15.23.15.41v1.44c0,.17-.05.31-.15.41-.1.1-.23.15-.41.15h-5.92v2.89h6.77c.17,0,.31.05.41.15.1.1.15.23.15.41v1.42c0,.17-.05.31-.15.41-.1.1-.23.15-.41.15h-9.14c-.17,0-.31-.05-.41-.15-.1-.1-.15-.23-.15-.41v-12.42c0-.17.05-.31.15-.41.1-.1.23-.15.41-.15h9.14c.17,0,.31.05.41.15.1.1.15.23.15.41v1.43c0,.17-.05.31-.15.41-.1.1-.23.15-.41.15h-6.77v3.02Z"/><path class="cls-1" d="M482.83,355.57c0-.11.04-.23.13-.35l.92-1.33c.1-.17.23-.26.41-.26.11,0,.23.04.35.13.58.39,1.25.72,2.01.99.76.27,1.45.4,2.06.4.75,0,1.36-.14,1.81-.44.46-.29.68-.65.68-1.06,0-.6-.47-1.04-1.4-1.29l-1.61-.33c-1.06-.17-1.93-.38-2.62-.63-.69-.25-1.3-.64-1.84-1.17-.61-.57-.91-1.35-.91-2.35,0-1.37.5-2.39,1.51-3.07,1.01-.68,2.29-1.02,3.86-1.02.97,0,1.84.12,2.61.36.76.24,1.52.61,2.28,1.12.17.12.26.26.26.42,0,.14-.04.25-.13.35l-.98,1.33c-.11.17-.25.26-.41.26-.12,0-.25-.04-.37-.13-.54-.34-1.1-.61-1.67-.8-.57-.18-1.14-.28-1.69-.28-.64,0-1.19.11-1.65.33-.46.22-.68.55-.68,1,0,.27.12.5.35.68.23.19.52.32.87.41.25.07.73.19,1.46.35l.67.13c1.15.22,2.04.46,2.67.7.63.25,1.17.64,1.63,1.17.49.57.74,1.36.74,2.37,0,1.35-.48,2.38-1.43,3.11-.96.73-2.27,1.09-3.95,1.09-2.23,0-4.13-.59-5.68-1.78-.16-.12-.24-.27-.24-.43"/><path class="cls-1" d="M495.91,355.57c0-.11.04-.23.13-.35l.92-1.33c.1-.17.23-.26.41-.26.11,0,.23.04.35.13.58.39,1.25.72,2.01.99.76.27,1.45.4,2.06.4.75,0,1.36-.14,1.81-.44.46-.29.69-.65.69-1.06,0-.6-.47-1.04-1.41-1.29l-1.61-.33c-1.06-.17-1.93-.38-2.62-.63-.68-.25-1.3-.64-1.84-1.17-.61-.57-.91-1.35-.91-2.35,0-1.37.5-2.39,1.51-3.07,1.01-.68,2.29-1.02,3.86-1.02.98,0,1.85.12,2.61.36.77.24,1.52.61,2.28,1.12.17.12.26.26.26.42,0,.14-.04.25-.13.35l-.98,1.33c-.11.17-.25.26-.41.26-.12,0-.25-.04-.37-.13-.54-.34-1.1-.61-1.68-.8-.57-.18-1.14-.28-1.69-.28-.64,0-1.19.11-1.65.33-.46.22-.68.55-.68,1,0,.27.12.5.35.68.23.19.52.32.87.41.25.07.73.19,1.46.35l.67.13c1.15.22,2.04.46,2.66.7.63.25,1.17.64,1.63,1.17.49.57.74,1.36.74,2.37,0,1.35-.48,2.38-1.43,3.11-.96.73-2.27,1.09-3.95,1.09-2.23,0-4.13-.59-5.68-1.78-.16-.12-.24-.27-.24-.43"/><path class="cls-1" d="M525.41,353.11c.09,0,.17.02.26.06l1.69.65c.25.1.37.24.37.43,0,.1-.04.2-.11.32-.68,1.02-1.55,1.82-2.63,2.38-1.07.56-2.23.84-3.48.84-1.31,0-2.52-.31-3.64-.93-1.12-.62-2.01-1.48-2.68-2.56-.65-1.08-.98-2.26-.98-3.52s.33-2.41.98-3.49c.65-1.08,1.54-1.93,2.66-2.56,1.11-.63,2.33-.94,3.65-.94,1.21,0,2.35.29,3.43.85,1.08.57,1.96,1.35,2.66,2.33.08.11.11.22.11.31,0,.19-.12.33-.35.43l-1.69.65c-.08.04-.18.06-.28.06-.19,0-.35-.09-.48-.26-.44-.53-.97-.95-1.56-1.26-.6-.31-1.21-.46-1.84-.46-.78,0-1.5.2-2.17.59-.67.39-1.2.93-1.59,1.61-.39.68-.59,1.39-.59,2.15s.19,1.48.58,2.16c.39.67.92,1.2,1.58,1.6.67.41,1.39.61,2.18.61.65,0,1.29-.15,1.9-.45.61-.3,1.12-.72,1.53-1.27.15-.2.31-.3.48-.3"/><path class="cls-1" d="M539.81,355.13c.1.1.15.23.15.41v1.42c0,.17-.05.31-.15.41-.1.1-.23.15-.41.15h-8.92c-.17,0-.31-.05-.41-.15-.1-.1-.15-.23-.15-.41v-12.42c0-.17.05-.31.15-.41.1-.1.23-.15.41-.15h1.83c.17,0,.31.05.4.15.1.1.15.23.15.41v10.44h6.53c.17,0,.31.05.41.15"/><path class="cls-1" d="M544.64,357.05c-.91-.47-1.62-1.14-2.13-2-.51-.88-.76-1.88-.76-3.02v-7.48c0-.17.05-.31.15-.41.1-.1.23-.15.41-.15h1.81c.17,0,.31.05.41.15.1.1.15.24.15.41v7.48c0,.74.16,1.36.48,1.85.32.49.74.84,1.26,1.05.44.2.91.3,1.4.3s.98-.11,1.44-.32c.47-.21.86-.54,1.17-1,.33-.47.5-1.1.5-1.89v-7.48c0-.17.05-.31.15-.41.1-.1.23-.15.41-.15h1.81c.17,0,.31.05.41.15.1.1.15.24.15.41v7.48c0,1.15-.25,2.15-.74,3.02-.49.86-1.2,1.53-2.11,2-.91.47-1.97.7-3.19.7s-2.27-.23-3.18-.7"/><path class="cls-1" d="M566.47,349.39c-.32.49-.73.85-1.23,1.06.63.22,1.16.63,1.6,1.22.44.59.66,1.23.66,1.92,0,1.33-.43,2.32-1.28,2.96-.85.64-2.01.96-3.46.96h-5.29c-.17,0-.31-.05-.4-.15-.1-.1-.15-.23-.15-.41v-12.42c0-.17.05-.31.15-.41.1-.1.23-.15.4-.15h5.07c2.94,0,4.4,1.25,4.4,3.76,0,.61-.16,1.15-.47,1.65M562.59,349.36c.46,0,.81-.14,1.05-.43.24-.28.36-.64.36-1.07,0-.36-.14-.67-.41-.93-.27-.27-.6-.4-.98-.4h-2.76v2.83h2.74ZM562.76,354.98c.55,0,1-.15,1.32-.44.33-.29.49-.66.49-1.1s-.17-.81-.5-1.1c-.33-.29-.79-.43-1.37-.43h-2.85v3.07h2.91Z"/></g></svg>