<?xml version="1.0" encoding="UTF-8"?><svg id="_レイヤー_2" xmlns="http://www.w3.org/2000/svg" xmlns:xlink="http://www.w3.org/1999/xlink" viewBox="0 0 386 387"><defs><style>.cls-1{fill:#4d4d4d;}.cls-1,.cls-2,.cls-3,.cls-4{stroke-width:0px;}.cls-5{filter:url(#drop-shadow-2);}.cls-2{fill:#9dc938;}.cls-3,.cls-4{fill:#fff;}.cls-6{fill:none;stroke:#fff;stroke-miterlimit:10;stroke-width:1.68px;}.cls-4{filter:url(#outer-glow-1);}</style><filter id="outer-glow-1" filterUnits="userSpaceOnUse"><feOffset dx="0" dy="0"/><feGaussianBlur result="blur" stdDeviation="5"/><feFlood flood-color="#000" flood-opacity=".25"/><feComposite in2="blur" operator="in"/><feComposite in="SourceGraphic"/></filter><filter id="drop-shadow-2" filterUnits="userSpaceOnUse"><feOffset dx="0" dy="0"/><feGaussianBlur result="blur-2" stdDeviation="5.43"/><feFlood flood-color="#000" flood-opacity=".3"/><feComposite in2="blur-2" operator="in"/><feComposite in="SourceGraphic"/></filter></defs><g id="_モーダル"><polyline class="cls-6" points="287.01 135.01 297.79 145.76 287.04 156.53"/><circle class="cls-4" cx="193.1" cy="193.31" r="177.9"/><circle class="cls-2" cx="193.1" cy="193.31" r="161.25"/><path class="cls-1" d="M96.41,150.94l.12-32.31,22.75.08-.02,5.36-16.55-.06-.03,8.63,15.67.06-.02,5.22-15.67-.06-.05,13.1-6.2-.02Z"/><path class="cls-1" d="M141.15,151.55c-3.54-.01-6.59-.68-9.13-2-2.55-1.32-4.48-3.23-5.8-5.71-1.32-2.48-1.97-5.47-1.96-8.95.01-3.51.69-6.5,2.03-8.96,1.34-2.46,3.28-4.34,5.84-5.64,2.56-1.3,5.61-1.95,9.15-1.94,4.07.01,7.65.9,10.75,2.65l-1.44,5.4c-3.03-1.72-6.06-2.59-9.07-2.6-2.24,0-4.17.43-5.78,1.33-1.61.89-2.86,2.17-3.73,3.82-.88,1.65-1.32,3.64-1.33,5.97,0,2.3.42,4.29,1.28,5.96.86,1.67,2.1,2.96,3.7,3.86,1.6.91,3.53,1.36,5.77,1.37,2.95.01,5.98-.83,9.08-2.53l1.4,5.41c-3.1,1.73-6.69,2.59-10.77,2.57Z"/><path class="cls-1" d="M160.76,154.99l-4.05-4.84c.92-1.27,1.74-2.58,2.45-3.95.71-1.37,1.32-2.94,1.81-4.71.49-1.77.9-3.87,1.22-6.3.32-2.43.56-5.32.72-8.65.16-3.33.25-7.26.26-11.77l5.71.02c-.02,4.81-.13,9.04-.33,12.68-.21,3.64-.51,6.85-.9,9.62-.39,2.77-.9,5.22-1.53,7.34-.63,2.12-1.39,4.03-2.28,5.72-.89,1.69-1.92,3.31-3.07,4.84ZM172.62,154.19c-.59,0-1.51-.06-2.77-.17-1.25-.11-2.65-.22-4.18-.35l-.25-5.36c1,.12,1.97.23,2.9.32.93.09,1.63.14,2.1.14.29,0,.57-.12.82-.35.25-.23.46-.71.62-1.41.16-.71.32-1.74.45-3.1.14-1.36.24-3.15.31-5.38.07-2.23.11-4.99.12-8.3v-3.45s-14.9-.05-14.9-.05l.02-5.18,20.54.08-.02,4.87c-.02,5.16-.09,9.44-.22,12.84-.13,3.39-.34,6.09-.63,8.08s-.64,3.47-1.06,4.44c-.42.97-.95,1.6-1.6,1.9-.65.29-1.4.44-2.26.43ZM180.37,154.17l.13-35.94,16.91.06-.13,35.94-5.8-.02v-2.48s-5.66-.02-5.66-.02l.02-4.87,5.67.02.09-23.59-5.67-.02-.11,30.94-5.44-.02Z"/><path class="cls-1" d="M203.67,154.7l.02-4.69,30.72.11.02-6.24-4.12-.02-.02,6.24-4.43-.02.02-6.24-4.16-.02-.02,6.24-4.43-.02.02-6.24-4.12-.02-.02,6.24-5.49-.02.04-10.54,32.22.12-.04,10.54h3.98s-.02,4.71-.02,4.71l-40.19-.15ZM205.01,138.11l.08-21.34,15.89.06-.07,19.17-10.45-.04.02-4.12,5.31.02v-3.5s-5.3-.02-5.3-.02v-3.67s5.33.02,5.33.02v-3.5s-5.3-.02-5.3-.02l-.06,16.95-5.44-.02ZM221.11,140.56l-4.1-3.78c1.27-.7,2.34-1.43,3.19-2.18.86-.75,1.55-1.57,2.07-2.45.52-.88.91-1.9,1.16-3.05.25-1.15.39-2.48.39-3.98l.03-8.72,18.86.07-.06,16.42c0,1.56-.06,2.8-.17,3.7-.11.9-.32,1.57-.63,2.01s-.78.72-1.4.84c-.62.12-1.43.17-2.44.17-.68,0-1.57-.03-2.68-.1-1.11-.06-2.41-.13-3.92-.19l-.25-4.47c1.03.06,1.92.12,2.66.16.74.05,1.27.07,1.59.07.47,0,.81-.02,1.02-.06.21-.04.33-.17.38-.37.04-.21.07-.52.07-.93v-1.02s-10-.04-10-.04v-3.5s10.02.04,10.02.04v-2.57s-7.74-.03-7.74-.03v-3.5s7.76.03,7.76.03v-2.3s-7.74-.03-7.74-.03l-.02,6.64c-.01,2.92-.65,5.44-1.93,7.56-1.28,2.12-3.32,3.97-6.13,5.55Z"/><path class="cls-1" d="M253,155.5l-4.1-4.88c.62-1.12,1.16-2.33,1.61-3.65.45-1.31.81-2.79,1.1-4.44.29-1.65.51-3.56.66-5.73.16-2.17.24-4.65.25-7.46l.04-10.36,15.45.06.02-4.38,6.02.02-.02,4.38,15.4.06-.02,4.82-31.16-.11-.04,9.61c-.01,3.39-.22,6.43-.61,9.09-.39,2.67-.97,5.06-1.73,7.16-.76,2.11-1.72,4.04-2.88,5.81ZM258.49,155.7l.07-18.64,10.71.04.05-14.43,5.89.02-.02,5.31,13.77.05-.02,4.65-13.77-.05-.02,4.47,12.79.05-.07,18.64-5.89-.02v-2.12s-17.65-.06-17.65-.06l.02-4.56,17.66.06.03-7.22-17.66-.06-.05,13.9-5.84-.02Z"/><path class="cls-1" d="M127.83,202.81l-1.98-4.48c2.72-.88,5.07-1.82,7.05-2.83,1.98-1.01,3.7-2.14,5.15-3.39,1.45-1.25,2.72-2.62,3.82-4.12l5.31,1.26c-1.54,2.09-3.22,3.95-5.04,5.58-1.82,1.63-3.89,3.08-6.21,4.36-2.32,1.28-5.02,2.48-8.09,3.62ZM127.1,194.66v-3.94s39.85.15,39.85.15v3.94s-39.85-.15-39.85-.15ZM130.8,189.58l.05-12.26,5.53.02.03-8.23,5.75.02-.03,8.23,9.92.04v-1.33s-24.87-.09-24.87-.09l.02-4.29,24.88.09v-2.61s5.76.02,5.76.02v2.61s9.2.03,9.2.03l-.02,4.29-9.21-.03v1.33s5.53.02,5.53.02l-.04,12.26-26.56-.1v-3.19s20.64.08,20.64.08v-1.64s-20.62-.08-20.62-.08v-2.74s20.64.08,20.64.08v-1.55s-20.62-.08-20.62-.08l-.03,9.12-5.93-.02ZM130.59,210.34l-2.33-4.44c2.98-.43,5.48-.97,7.49-1.61,2.01-.64,3.62-1.39,4.83-2.24,1.21-.85,2.11-1.81,2.69-2.89.58-1.07.9-2.28.97-3.6l5.67.02c-.16,2.36-.95,4.51-2.37,6.45-1.42,1.94-3.53,3.61-6.33,5-2.79,1.39-6.33,2.49-10.61,3.3ZM155.86,209.73c-.89,0-1.99-.03-3.32-.08-1.33-.05-2.71-.12-4.16-.21l-.29-4.78c1.24.09,2.43.17,3.58.23,1.15.06,2.06.1,2.74.1.32,0,.59-.03.8-.09.21-.06.37-.19.49-.4.12-.21.22-.54.29-1,.08-.46.14-1.1.21-1.92l-22.09-.08.02-4.07,28.37.1c-.07,2.66-.21,4.8-.42,6.42-.21,1.62-.55,2.85-1.01,3.69-.46.84-1.11,1.4-1.95,1.68-.84.28-1.93.41-3.25.41ZM166.16,202.95c-3.54-1.31-6.56-2.74-9.08-4.28-2.52-1.54-4.69-3.26-6.51-5.16l5.54-1.31c1.35,1.22,2.99,2.34,4.92,3.36,1.93,1.03,4.31,2,7.14,2.93l-2.01,4.46Z"/><path class="cls-1" d="M176.16,186.08l-4.15-3.78c1.39-2,2.62-4.08,3.67-6.23,1.06-2.15,1.94-4.32,2.66-6.5l5.44.82c-.3,1.12-.66,2.25-1.07,3.4-.42,1.15-.91,2.3-1.47,3.45l-.4.26c-.77,1.68-1.55,3.23-2.34,4.66-.79,1.43-1.57,2.73-2.34,3.91ZM174.09,209.13l-1.66-5.01c4.34-.93,8.06-1.9,11.17-2.92,3.1-1.02,5.67-2.09,7.71-3.2l2.33,3.06c-2.19,1.47-4.9,2.88-8.12,4.24-3.22,1.36-7.03,2.64-11.43,3.83ZM190.11,210.25l.04-10.45-16.86-.06.02-4.25,16.86.06v-1.77s-13.67-.05-13.67-.05l.07-18.24,5.75.02v3.76s27.3.1,27.3.1v3.36s-27.32-.1-27.32-.1v1.99s27.3.1,27.3.1v3.45s-27.32-.1-27.32-.1v1.95s9.02.03,9.02.03l.05-12.75-11.55-.04.02-4.29,31.16.11-.02,4.29-13.54-.05-.05,12.75,13.54.05v3.72s-14.71-.05-14.71-.05v1.77s16.42.06,16.42.06l-.02,4.25-16.42-.06-.04,10.45-6.02-.02ZM196.6,176.41l-5.71-.64c.48-.97.9-1.95,1.27-2.94.37-.99.74-2.06,1.1-3.21l5.75.55c-.36,1.18-.73,2.27-1.12,3.27-.39,1-.82,1.99-1.29,2.96ZM212.15,209.27c-4.36-1.23-8.16-2.53-11.38-3.92-3.23-1.38-5.93-2.82-8.11-4.3l2.36-3.05c2.03,1.13,4.6,2.22,7.69,3.26,3.09,1.04,6.81,2.05,11.14,3.01l-1.7,5Z"/><path class="cls-1" d="M219.02,199.82l.08-22.93,37.62.14-.08,22.93-5.62-.02v-2.48s-26.37-.1-26.37-.1l.02-4.91,26.38.1.04-10.49-26.38-.1-.07,17.88-5.62-.02ZM234.78,210.86l.15-41.08,6.02.02-.15,41.08-6.02-.02Z"/><path class="cls-3" d="M115.85,274.89c1.64,0,2.91-.31,3.83-.93.92-.62,1.38-1.46,1.38-2.54,0-.74-.22-1.37-.65-1.87-.43-.51-1.07-.89-1.91-1.15-.84-.26-1.86-.39-3.04-.39-1.16,0-2.28.12-3.35.36-1.07.24-2.02.57-2.84.99-.83.42-1.48.9-1.96,1.43-.48.53-.72,1.09-.72,1.68,0,.4.11.77.34,1.1.23.33.54.59.92.78.39.19.83.29,1.32.29.49,0,.84-.11,1.05-.34.21-.23.32-.62.31-1.18l-.02-16.74h3.19s.02,17.2.02,17.2c0,2.7-1.34,4.05-4.04,4.05-1.16,0-2.22-.23-3.18-.7-.95-.47-1.72-1.1-2.29-1.88s-.86-1.66-.86-2.64c0-1.01.31-1.96.94-2.85.63-.89,1.5-1.66,2.61-2.32s2.4-1.18,3.86-1.55c1.46-.37,3.03-.56,4.72-.56,1.92,0,3.55.24,4.88.73,1.33.49,2.35,1.21,3.04,2.16.69.95,1.04,2.11,1.04,3.48,0,1.33-.32,2.47-.97,3.42-.65.95-1.58,1.68-2.79,2.19-1.21.52-2.69.78-4.43.78l-.41-2.98ZM110.2,262.38c-1.01,0-2.07-.02-3.16-.07-1.1-.05-2.04-.11-2.83-.17l.07-2.78c.81.07,1.75.12,2.83.17,1.08.05,2.11.07,3.09.07,1.48,0,2.99-.06,4.53-.18,1.53-.12,3.25-.32,5.13-.59l.08,2.78c-1.91.27-3.63.47-5.17.59-1.54.12-3.06.18-4.57.18ZM124.06,264.33c-.42-1.01-.93-2-1.51-2.97-.58-.97-1.23-1.9-1.94-2.79l2.7-1.55c.73.93,1.37,1.87,1.93,2.83s1.09,2.01,1.6,3.13l-2.78,1.34Z"/><path class="cls-3" d="M130,279.09l-.03-22.36h10.37s.01,9.88.01,9.88h-7.13s0-2.17,0-2.17h4.32s0-1.62,0-1.62h-4.33s0-2.02,0-2.02h4.32s0-1.6,0-1.6h-4.33s.03,19.89.03,19.89h-3.24ZM135.62,277.49v-9.26s11.02-.02,11.02-.02v8.07s-7.98.01-7.98.01v-2.33s4.95,0,4.95,0v-3.36s-4.96,0-4.96,0v6.88s-3.03,0-3.03,0ZM148.29,278.99c-.29,0-.7-.01-1.24-.04-.54-.02-1.25-.05-2.12-.09l-.18-2.78c.79.03,1.43.07,1.92.1.49.03.84.05,1.06.05.42,0,.72-.03.89-.08.17-.05.28-.16.33-.33.05-.17.08-.44.07-.81l-.02-15.83h-4.58s0,1.6,0,1.6h4.58s0,2.02,0,2.02h-4.58s0,1.62,0,1.62h4.58s0,2.17,0,2.17h-7.39s-.01-9.88-.01-9.88h10.62s.02,18.12.02,18.12c0,.94-.04,1.7-.12,2.26-.08.56-.25.98-.5,1.24-.25.26-.64.44-1.18.52-.53.08-1.25.13-2.16.13Z"/><path class="cls-3" d="M163.42,277.66c-1.01,0-1.93-.27-2.76-.82-.83-.55-1.55-1.33-2.17-2.35-.62-1.02-1.09-2.22-1.42-3.59-.33-1.37-.5-2.9-.5-4.57,0-.69.03-1.47.09-2.33.06-.86.14-1.72.24-2.58.1-.86.22-1.65.35-2.38l3.44.25c-.12.59-.22,1.28-.31,2.06-.09.78-.17,1.59-.22,2.4-.06.82-.09,1.56-.09,2.21,0,1.15.09,2.21.27,3.19.18.98.43,1.84.75,2.59.32.75.68,1.34,1.09,1.76.41.42.84.63,1.32.63.49,0,.96-.25,1.4-.75.45-.5.87-1.24,1.26-2.24.39-1,.74-2.2,1.04-3.62l3.19,1.29c-.72,2.94-1.66,5.14-2.82,6.62-1.16,1.48-2.54,2.22-4.15,2.22ZM175.48,274.58c-.15-1.8-.44-3.59-.85-5.35-.42-1.76-.94-3.44-1.56-5.04-.63-1.6-1.34-3.08-2.16-4.42l3.06-1.12c.9,1.35,1.68,2.84,2.35,4.47s1.21,3.36,1.64,5.17c.42,1.81.73,3.7.92,5.68l-3.39.61Z"/><path class="cls-3" d="M182.09,266.07l-1.32-2.76c1.3-.71,2.49-1.42,3.58-2.13,1.09-.71,2.12-1.47,3.11-2.28.99-.81,1.97-1.71,2.94-2.69h4.25c1,.97,1.98,1.86,2.96,2.67.98.81,2.01,1.57,3.1,2.27s2.28,1.41,3.58,2.12l-1.31,2.76c-2.02-1.04-3.89-2.19-5.59-3.45-1.71-1.25-3.33-2.66-4.86-4.23-1.53,1.57-3.15,2.98-4.85,4.24-1.7,1.26-3.56,2.41-5.58,3.46ZM183.45,279.1l-.02-10.98,18.21-.03.02,10.98h-3.39s0-1.21,0-1.21l-11.43.02v-2.63s11.43-.02,11.43-.02v-4.43s-11.44.02-11.44.02v8.27s-3.38,0-3.38,0ZM185.45,265.84v-2.71s14.16-.02,14.16-.02v2.71s-14.16.02-14.16.02Z"/><path class="cls-3" d="M213.76,263.42c-.49,0-1.01-.01-1.56-.04-.55-.02-1.12-.06-1.71-.11-.59-.05-1.16-.1-1.72-.16-.56-.06-1.08-.12-1.57-.19l.4-2.86c.47.07.98.13,1.53.19.55.06,1.12.11,1.71.15.59.04,1.16.08,1.71.11.55.03,1.05.05,1.51.05l-.3,2.86ZM223.52,277.12c-.91,0-1.85-.08-2.82-.24-.97-.16-1.96-.41-2.97-.74l.63-2.96c.49.15,1.06.29,1.71.41s1.28.22,1.9.29c.62.07,1.13.1,1.56.1,1.37,0,2.34-.43,2.92-1.29.58-.86.87-2.3.87-4.33,0-2.12-.28-3.66-.84-4.6-.56-.94-1.46-1.41-2.71-1.41-.61,0-1.22.12-1.85.36-.62.24-1.32.62-2.1,1.14-.77.52-1.67,1.24-2.68,2.15-1.01.91-2.18,2.05-3.51,3.42h-.33c-.66.69-1.33,1.45-2.01,2.28-.68.83-1.36,1.67-2.03,2.53l-1.9-2.81c1.83-1.96,3.45-3.63,4.85-5.03,1.4-1.39,2.64-2.55,3.73-3.48,1.09-.93,2.07-1.66,2.96-2.19.88-.53,1.73-.91,2.54-1.13.81-.22,1.64-.33,2.5-.33,1.57,0,2.85.31,3.85.93s1.73,1.6,2.21,2.94c.47,1.34.71,3.08.72,5.22,0,2.07-.24,3.75-.73,5.03-.49,1.28-1.26,2.22-2.31,2.82-1.05.6-2.43.9-4.13.9ZM212.47,278.5l-.03-21.7h3.29s.03,21.7.03,21.7h-3.29Z"/><path class="cls-3" d="M233.57,261.42c3.88-.06,7.77-.19,11.69-.41,3.91-.22,7.93-.51,12.06-.89l.23,2.88c-4.15.38-8.2.67-12.15.89-3.95.22-7.9.35-11.82.41v-2.88ZM246.67,277.97c-1.75,0-3.2-.09-4.35-.27-1.15-.18-2.04-.51-2.68-.97-.64-.46-1.09-1.1-1.34-1.92s-.38-1.87-.38-3.15l-.02-14.57h3.39s.02,14.56.02,14.56c0,.73.06,1.31.18,1.76.12.45.37.79.75,1.02.38.24.93.39,1.64.47s1.65.11,2.79.11c1.27,0,2.62-.04,4.06-.12,1.44-.08,2.87-.19,4.29-.35l.23,2.93c-1.43.17-2.9.29-4.41.37-1.51.08-2.9.12-4.16.12ZM250.28,271.72c-.54,0-1.15-.04-1.83-.14-.68-.09-1.37-.22-2.07-.39-.7-.17-1.37-.36-2.01-.58l.7-2.96c.79.22,1.45.39,1.97.5.52.12.96.2,1.3.25.35.05.66.07.95.07.25,0,.41-.06.48-.18.07-.12.1-.45.1-.99v-10.75s3.35,0,3.35,0l.02,11.86c0,.81-.09,1.46-.28,1.95-.18.49-.49.84-.91,1.04-.42.2-1.01.3-1.77.31Z"/><path class="cls-3" d="M262.17,278.1c-.44-1.74-.76-3.45-.97-5.15-.21-1.69-.31-3.49-.31-5.37,0-1.87.1-3.66.3-5.35.2-1.7.52-3.41.95-5.15l3.31.4c-.39,1.64-.67,3.29-.87,4.95-.19,1.66-.29,3.38-.28,5.15,0,1.77.1,3.49.3,5.16.2,1.67.49,3.3.88,4.91l-3.31.46ZM272.75,277.53c-1.85,0-3.31-.42-4.35-1.27-1.05-.85-1.57-2.03-1.57-3.53,0-1.53.51-2.72,1.55-3.56,1.04-.84,2.49-1.26,4.36-1.26.79,0,1.56.09,2.29.29.73.19,1.5.53,2.29,1.02.79.49,1.69,1.17,2.68,2.03,1,.87,2.16,1.97,3.49,3.3l-2.07,2.23c-1.2-1.21-2.23-2.21-3.09-2.99-.86-.78-1.62-1.39-2.27-1.83s-1.25-.75-1.81-.93c-.56-.18-1.13-.28-1.72-.28-1.79,0-2.68.66-2.68,1.98,0,1.28.9,1.92,2.68,1.92.98,0,1.68-.2,2.1-.61s.63-1.08.63-2.02l-.02-15.48h3.29s.02,15.68.02,15.68c0,1.74-.49,3.06-1.49,3.96-.99.9-2.44,1.36-4.32,1.36ZM273.41,263.42c-.98,0-2.02-.02-3.11-.07-1.1-.05-2.04-.11-2.83-.17l.1-2.86c.78.07,1.7.12,2.77.17,1.07.05,2.09.07,3.07.07,1.47,0,2.96-.06,4.48-.18s3.22-.32,5.11-.59l.11,2.86c-1.91.27-3.62.47-5.16.59-1.53.12-3.04.18-4.53.18Z"/><path class="cls-3" d="M143.88,311.71c-1.99,0-3.73-.22-5.21-.66-1.48-.45-2.63-1.08-3.44-1.91-.81-.82-1.22-1.79-1.22-2.91,0-.91.29-1.89.87-2.95.58-1.05,1.48-2.23,2.71-3.53l2.99,1.39c-.98,1-1.72,1.9-2.22,2.7-.5.8-.76,1.49-.76,2.06,0,.56.25,1.05.76,1.47.51.42,1.23.74,2.18.97.94.23,2.06.34,3.34.34.83,0,1.75-.05,2.76-.16,1.01-.1,2.01-.24,3-.42.99-.18,1.87-.39,2.64-.62l.66,3.01c-.78.24-1.69.45-2.73.64-1.05.19-2.12.33-3.22.43-1.1.1-2.14.15-3.1.16ZM151.95,295.24c-1.97-.01-3.89-.04-5.74-.07-1.86-.03-3.68-.08-5.46-.16-1.79-.07-3.56-.16-5.31-.26l.25-3.04c1.72.1,3.46.18,5.21.26,1.75.07,3.55.13,5.39.16,1.84.03,3.73.05,5.67.07v3.04Z"/><path class="cls-3" d="M165.32,296.28c-.91,0-1.85-.01-2.83-.03s-1.93-.05-2.85-.08c-.92-.03-1.74-.07-2.47-.12l.1-2.68c.69.05,1.5.09,2.42.14.92.04,1.87.07,2.85.08.98.02,1.91.02,2.78.02,2.02,0,4.08-.06,6.16-.19,2.08-.12,4.41-.32,6.99-.59l.13,2.68c-2.61.27-4.98.47-7.09.59-2.12.12-4.18.18-6.18.19ZM167.39,311.71c-.78,0-1.62-.03-2.52-.1-.9-.07-1.8-.15-2.69-.26-.89-.11-1.72-.24-2.48-.39l.35-3.06c1.25.23,2.52.42,3.82.55,1.3.13,2.47.2,3.52.2,2.16,0,3.79-.32,4.91-.96,1.11-.63,1.67-1.54,1.67-2.72,0-1.01-.39-1.78-1.17-2.3-.78-.52-1.91-.78-3.39-.78-1.25,0-2.45.21-3.62.64-1.16.42-2.44,1.12-3.84,2.1l-2.91-1.16c.4-.84.82-1.84,1.25-3,.43-1.16.83-2.36,1.2-3.62.37-1.26.69-2.47.96-3.63.27-1.16.44-2.18.53-3.06l3.39.2c-.07.73-.2,1.56-.39,2.5-.19.94-.42,1.92-.68,2.94-.26,1.01-.53,1.97-.81,2.88-.28.91-.55,1.71-.82,2.4l-.56-.48c1.13-.54,2.26-.96,3.4-1.24,1.14-.29,2.27-.43,3.4-.43,1.58,0,2.94.24,4.07.74,1.13.5,2,1.21,2.61,2.13.61.93.91,2.04.92,3.34,0,2.11-.86,3.73-2.6,4.86-1.74,1.13-4.24,1.7-7.51,1.71Z"/><path class="cls-3" d="M192.24,311.55c-.94,0-1.96-.03-3.04-.1s-2.12-.17-3.12-.3c-1-.13-1.89-.29-2.67-.48l.3-2.93c1,.18,2,.34,3.01.48,1.01.13,1.99.23,2.93.3.94.07,1.8.1,2.58.1,2.29,0,4.03-.34,5.2-1.01,1.17-.67,1.76-1.64,1.75-2.92,0-1.08-.41-1.9-1.22-2.46-.81-.56-2-.84-3.57-.84-1.05,0-2.11.13-3.2.37-1.09.25-2.12.6-3.08,1.05-.97.46-1.84,1-2.62,1.62l-3.04-.6c.23-1.11.43-2.12.59-3.04.16-.91.3-1.77.43-2.58s.23-1.6.31-2.38l3.29.27c-.1.89-.22,1.81-.35,2.74-.13.94-.3,1.88-.5,2.82l-.43-.71c.89-.57,1.81-1.04,2.76-1.41.94-.36,1.92-.64,2.92-.83,1-.19,2.04-.28,3.12-.28,2.65,0,4.64.51,5.97,1.55,1.33,1.04,2,2.56,2,4.59,0,2.31-.86,4.05-2.59,5.21-1.73,1.17-4.31,1.75-7.75,1.76ZM199.46,295.53c-1.62-.1-3.16-.23-4.62-.39-1.46-.16-2.91-.36-4.36-.61-1.45-.25-2.96-.55-4.53-.9l.65-2.94c1.4.32,2.83.6,4.29.84,1.46.24,2.93.45,4.4.63,1.48.18,2.96.32,4.44.44l-.27,2.93Z"/><path class="cls-3" d="M218.01,311.33c-.49,0-1.07-.06-1.73-.17-.67-.12-1.37-.27-2.1-.45-.73-.18-1.42-.38-2.06-.58l.73-2.88c.52.17,1.05.33,1.58.48s1.01.27,1.44.35.77.13,1.02.12c.52,0,.95-.25,1.28-.74.33-.49.57-1.27.72-2.34.15-1.07.22-2.5.22-4.29,0-.88-.04-1.58-.1-2.1-.07-.52-.19-.91-.36-1.16-.17-.25-.44-.42-.8-.5-.36-.08-.85-.13-1.46-.12-.64,0-1.49.03-2.55.09-1.06.06-2.29.15-3.68.26-1.39.11-2.9.25-4.54.42l-.26-2.96c2.71-.27,5-.47,6.87-.59,1.86-.12,3.48-.18,4.84-.18.96,0,1.76.05,2.4.15.64.1,1.16.29,1.57.55s.71.67.91,1.2c.2.53.33,1.23.4,2.1.06.87.09,1.96.09,3.28,0,2.39-.14,4.33-.44,5.81-.29,1.48-.76,2.56-1.41,3.24-.65.68-1.51,1.03-2.59,1.03ZM205.65,310.57c.62-1.37,1.17-2.68,1.65-3.94.48-1.26.92-2.51,1.31-3.76.39-1.25.76-2.54,1.08-3.87.33-1.33.62-2.76.89-4.29.27-1.53.54-3.19.8-5l3.26.35c-.28,2.18-.6,4.21-.95,6.1-.35,1.89-.76,3.69-1.23,5.4-.47,1.71-1.01,3.41-1.61,5.09-.61,1.68-1.3,3.4-2.09,5.15l-3.11-1.24ZM226.1,306.21c-.14-.99-.32-2.06-.56-3.21-.24-1.15-.51-2.3-.81-3.45s-.63-2.27-.97-3.35c-.34-1.08-.68-2.06-1.02-2.96l3.19-.86c.35.94.7,1.96,1.04,3.05.34,1.09.66,2.21.97,3.36.3,1.15.58,2.31.81,3.45.24,1.15.43,2.23.59,3.26l-3.24.71Z"/><path class="cls-3" d="M242.72,311.48c-.94,0-1.96-.03-3.04-.1s-2.12-.17-3.12-.3c-1-.13-1.89-.29-2.67-.48l.3-2.93c1,.18,2,.34,3.01.48,1.01.13,1.99.23,2.93.3.94.07,1.8.1,2.58.1,2.29,0,4.03-.34,5.2-1.01,1.17-.67,1.76-1.64,1.75-2.92,0-1.08-.41-1.9-1.22-2.46-.81-.56-2-.84-3.57-.84-1.05,0-2.11.13-3.2.37-1.09.25-2.12.6-3.08,1.05s-1.84,1-2.62,1.62l-3.04-.6c.23-1.11.43-2.12.59-3.04s.3-1.77.43-2.58c.12-.81.23-1.6.31-2.38l3.29.27c-.1.89-.22,1.81-.35,2.74-.13.94-.3,1.88-.5,2.82l-.43-.71c.89-.57,1.81-1.04,2.76-1.41.94-.36,1.92-.64,2.92-.83,1-.19,2.04-.28,3.12-.28,2.65,0,4.64.51,5.97,1.55,1.33,1.04,2,2.56,2,4.59,0,2.31-.86,4.05-2.58,5.21-1.73,1.17-4.31,1.75-7.75,1.76ZM249.93,295.46c-1.62-.1-3.16-.23-4.62-.39-1.46-.16-2.91-.36-4.36-.61-1.45-.25-2.96-.55-4.53-.9l.65-2.93c1.4.32,2.83.6,4.29.84,1.46.24,2.93.45,4.4.63,1.48.18,2.96.32,4.44.44l-.27,2.93Z"/><g class="cls-5"><path class="cls-3" d="M144.89,88.91c0-4.22,3.23-7.25,7.6-7.26,2.42,0,4.45.87,5.77,2.47l-2.08,1.92c-.94-1.08-2.12-1.64-3.53-1.64-2.62,0-4.48,1.85-4.48,4.49,0,2.64,1.87,4.48,4.49,4.48,1.4,0,2.58-.56,3.52-1.67l2.08,1.92c-1.32,1.62-3.34,2.51-5.78,2.51-4.34,0-7.59-3.01-7.6-7.24Z"/><path class="cls-3" d="M159.67,88.89c0-4.16,3.23-7.25,7.66-7.26,4.4,0,7.67,3.05,7.68,7.24,0,4.18-3.25,7.25-7.66,7.26-4.42,0-7.67-3.07-7.68-7.24ZM171.72,88.87c0-2.66-1.89-4.48-4.39-4.48s-4.38,1.83-4.38,4.49c0,2.66,1.89,4.48,4.39,4.48s4.38-1.83,4.38-4.49Z"/><path class="cls-3" d="M190.76,81.84l.02,14.01h-2.66s-7-8.5-7-8.5v8.51s-3.19,0-3.19,0l-.02-14.01h2.68s6.98,8.49,6.98,8.49v-8.51s3.19,0,3.19,0Z"/><path class="cls-3" d="M197.36,84.47h-4.48s0-2.64,0-2.64l12.21-.02v2.64s-4.48,0-4.48,0l.02,11.37h-3.24s-.02-11.37-.02-11.37Z"/><path class="cls-3" d="M215.07,92.82h-6.51s-1.24,3.01-1.24,3.01h-3.32s6.23-14.02,6.23-14.02h3.2s6.29,14,6.29,14h-3.4s-1.25-3-1.25-3ZM214.04,90.36l-2.23-5.36-2.21,5.37h4.44Z"/><path class="cls-3" d="M220.11,88.81c0-4.22,3.23-7.25,7.6-7.26,2.42,0,4.44.87,5.77,2.47l-2.08,1.92c-.94-1.08-2.12-1.64-3.53-1.64-2.62,0-4.48,1.85-4.48,4.49,0,2.64,1.87,4.48,4.49,4.48,1.4,0,2.58-.56,3.52-1.67l2.08,1.92c-1.32,1.62-3.34,2.51-5.78,2.51-4.34,0-7.59-3.01-7.6-7.24Z"/><path class="cls-3" d="M239.51,84.42h-4.48s0-2.64,0-2.64l12.21-.02v2.64s-4.48,0-4.48,0l.02,11.37h-3.24s-.02-11.37-.02-11.37Z"/></g><rect class="cls-3" x="158.38" y="230.2" width="69.56" height="6.32" transform="translate(-.32 .27) rotate(-.08)"/></g></svg>