<?xml version="1.0" encoding="UTF-8"?>
<svg id="_レイヤー_1" data-name=" レイヤー 1" xmlns="http://www.w3.org/2000/svg" version="1.1" xmlns:xlink="http://www.w3.org/1999/xlink" viewBox="0 0 433 1146.7">
  <defs>
    <style>
      .cls-1 {
        opacity: .8;
      }

      .cls-2 {
        fill: #fff;
        opacity: .7;
      }

      .cls-2, .cls-3, .cls-4, .cls-5 {
        stroke-width: 0px;
      }

      .cls-2, .cls-4, .cls-6 {
        isolation: isolate;
      }

      .cls-3 {
        fill: #50504b;
      }

      .cls-4 {
        mix-blend-mode: multiply;
      }

      .cls-4, .cls-5 {
        fill: #9dc938;
      }

      .cls-7 {
        fill: none;
        stroke: #fff;
        stroke-linejoin: round;
        stroke-width: 16px;
      }

      .cls-8 {
        filter: url(#luminosity-noclip);
      }

      .cls-9 {
        mask: url(#mask-1);
      }

      .cls-10 {
        mask: url(#mask);
      }

      .cls-11 {
        filter: url(#luminosity-noclip-2);
      }
    </style>
    <filter id="luminosity-noclip" x="132" y="355.7" width="59" height="294" color-interpolation-filters="sRGB" filterUnits="userSpaceOnUse">
      <feFlood flood-color="#fff" result="bg"/>
      <feBlend in="SourceGraphic" in2="bg"/>
    </filter>
    <mask id="mask" x="132" y="355.7" width="59" height="294" maskUnits="userSpaceOnUse">
      <g class="cls-8">
        <image width="59" height="294" transform="translate(132 355.7)" xlink:href="top_txt_sp-1.png"/>
      </g>
    </mask>
    <filter id="luminosity-noclip-2" x="62" y="359.7" width="58" height="726" color-interpolation-filters="sRGB" filterUnits="userSpaceOnUse">
      <feFlood flood-color="#fff" result="bg"/>
      <feBlend in="SourceGraphic" in2="bg"/>
    </filter>
    <mask id="mask-1" x="62" y="359.7" width="58" height="726" maskUnits="userSpaceOnUse">
      <g class="cls-11">
        <image width="58" height="726" transform="translate(62 359.7)" xlink:href="top_txt_sp-2.png"/>
      </g>
    </mask>
  </defs>
  <g class="cls-6">
    <g id="_レイヤー_2" data-name=" レイヤー 2">
      <g id="_モーダル" data-name=" モーダル">
        <polygon class="cls-2" points="149.1 0 427 1146.7 0 1146.7 0 .2 149.1 0"/>
        <polygon class="cls-5" points="416.8 1146.7 138.9 0 155.1 0 433 1146.7 416.8 1146.7"/>
        <rect class="cls-4" x="130" y="356.8" width="28.9" height="307.7"/>
        <rect class="cls-4" x="63.4" y="356.8" width="28.9" height="735.7"/>
        <g>
          <g class="cls-1">
            <g class="cls-10">
              <g>
                <path class="cls-7" d="M158.5,395.1c-.6,2.5-1.4,4.8-2.3,7l-4.1-1.6v1.6h-5v-14.2c-1,1.3-2,2.3-3,3l-1.3-5.3c2-1.5,3.6-3,5-4.5s2.8-3.3,4-5.4l2.6,1.3v-3.5h5.4c-.9-2-1.6-3.8-2.4-5.3l4.6-1.5c1,1.9,2,4.1,2.9,6.8h3.8c1.5-2.3,2.8-4.5,3.6-6.9l4.8,1.3c-.9,2-1.8,3.9-2.8,5.7h5.1v4.3h-9.9v6.5h8.3v4.3h-8.3v8.3c2,.4,4.8.5,8.4.5h2l-.3,4.4h-2.1c-5.3,0-9.3-.5-12.2-1.4-2.9-1-5.1-2.6-6.9-5v-.3h0ZM145.3,377.8l-2-4.3c3.4-2,6.2-4.5,8.4-7.5l3.8,2.5c-1.5,2-3,3.8-4.6,5.1s-3.4,2.8-5.7,4.1h.1ZM159.7,389.7c1.1,2.4,2.6,4.1,4.5,5.3v-17.5h-8.2c-1.1,2.3-2.5,4.3-4,6v15.7c2-5.8,3.4-11.9,4.1-18.3l4.6.6c-.3,2.6-.6,5.3-1.1,8h0v.2Z"/>
                <path class="cls-7" d="M178.5,429.6v3.9h-10.7c3.3,1.4,7.4,2.8,12.4,3.9l-2.3,4c-5.4-1.6-9.9-3.5-13.6-5.7v5.9h-5.3v-5.9c-3.6,2.1-8.2,4-13.6,5.7l-2.3-4c5-1.3,9.2-2.5,12.4-3.9h-10.7v-3.9h14.1v-1.6h-12.4v-3.5h12.4v-1.6h-13.7v-3.6h7.4c-.5-1.5-1-2.8-1.5-3.8h-6.8v-4.1h4c-.6-1.1-1.3-2.3-1.9-3.1l4.3-1.5c1,1.5,1.8,3,2.6,4.6h2.1v-5.1h4.6v5.1h2.9v-5.1h4.6v5.1h2.3c.8-1.4,1.6-2.9,2.4-4.6l4.3,1.3c-.5,1-1,2.1-1.8,3.4h3.9v4.1h-6.5c-.6,1.8-1.1,2.9-1.5,3.8h7.3v3.6h-13.7v1.6h12.4v3.5h-12.4v1.6h14.1-.1.3ZM165.4,419.2c.8-1.4,1.3-2.6,1.6-3.8h-10.5c.5,1.3,1,2.5,1.4,3.8h7.5Z"/>
                <path class="cls-7" d="M151.6,475.1h-5.3v-18.1h30.6v18.1h-6.2c3.4,1.1,6.4,2.3,8.9,3.4l-2.3,3.8c-3.5-1.6-7.7-3.3-12.6-4.9l1.1-2.3h-8.3l1,1.9c-3.1,2-7.5,3.6-13.1,5l-1.9-3.9c3.5-.9,6.7-1.9,9.4-2.9h-1.6.3ZM153.1,455.6h-5.1v-8.8h27.5v8.8h-22.4ZM151.6,462.3h20.1v-1.8h-20.1v1.8ZM151.6,465.2v1.8h20.1v-1.8h-20.1ZM151.6,469.9v1.8h20.1v-1.8h-20.1ZM153.1,452.6h17.2v-1.9h-17.2v1.9Z"/>
                <path class="cls-7" d="M164.3,514.4c2.9-.6,5-1.9,6.7-3.8,1.5-1.9,2.4-4.1,2.4-6.9s-.8-4.5-2.3-6.3c-1.5-1.6-3.5-2.6-6-3-1,7.7-2.6,13.3-4.8,17-2.2,3.7-4.6,5.4-7.5,5.4s-3.9-1-5.5-3.3c-1.6-2.1-2.5-4.8-2.5-7.8,0-4.8,1.6-8.7,5-11.7,3.3-3,7.8-4.5,13.2-4.5s8.3,1.3,11.3,3.9,4.4,6,4.4,10.2-1.1,7.4-3.4,10-5.4,4.4-9.4,5.3l-1.5-4.5h0ZM159.7,494.6c-3,.5-5.4,1.8-7.2,3.8s-2.6,4.4-2.6,7.3.4,3.1,1,4.4,1.4,1.8,2,1.8,1.4-.5,2.1-1.5c.8-1,1.5-2.9,2.4-5.5s1.6-6,2.3-10h0v-.3Z"/>
                <path class="cls-7" d="M178.2,527.7v5.5h1.9v4h-1.9v5.5h-7v1.9h7.5v3.6h-7.5v2h8v3.9h-8v2.3h8.5l-.3,4.3h-8.9c-3.6,0-6.5-.3-8.8-.9-2.3-.5-4.1-1.5-5.8-3-.9,1.6-2,3.1-3.4,4.4l-2.3-3.1v3h-4.6v-16c-.6,1.1-1.1,2-1.8,2.8l-1.5-5.9c2.6-4.5,4.5-10,5.4-16.5h4.6c0,.5,0,1-.3,1.6h6.9v4.3c0,0-.1.5-.4.9-.1.4-.3.6-.3.9h7.3v-1.8h-5.5v-3.8h5.5v-2h5.1v2h7.6ZM150.2,537.3v9.3l2.8-2.4c.6,1.5,1.3,2.9,1.9,4.3.4-1.6.8-3.4.9-5.4h-4.5v-4.1c1.5-2.4,2.8-4.8,3.9-7.4h-3.5c-.5,2.4-.9,4.3-1.4,5.8h0ZM150.2,548.1v8.8c1-1.1,1.9-2.3,2.6-3.6-.9-1.4-1.8-3-2.6-5.1h0ZM157.7,552.8c.4.4.8.8,1.1,1.1v-3.6h7.2v-2h-5.8v-3.6h5.8v-1.9h-5.3v-3.6h5.3v-2h-7.7v-3.4c-.6,1.6-1.5,3.3-2.5,5h3.8v4.1c-.4,3.6-1,6.9-2,9.8h.1,0ZM159.1,554.2c1.6,1.1,3.9,1.9,6.8,2.1v-2.1h-6.8ZM171,531.5v1.8h2.8v-1.8h-2.8ZM171,539.1h2.8v-2h-2.8v2Z"/>
                <path class="cls-7" d="M174.2,593.4c1.6,1.3,3.5,2.3,5.4,3.3l-2.4,3.9c-3.8-1.9-7.2-4.5-9.9-7.9v5.5c0,.8-.4,1.4-.8,1.9s-1,.8-1.6.9-1.6,0-3,0-2.4,0-4.4-.3l-.3-3.9c-2,1.4-3.9,2.5-5.8,3.5l-2.5-3.6c2.1-1,4-2.1,5.9-3.4-1.4-1.4-2.5-2.6-3.6-3.6l2.4-2.3h-1.8v-3.4h10.4v-1.6h-11.8v.5c0,4.3-.3,7.8-.9,10.7s-1.5,5.4-2.9,7.8l-3.6-4.4c.9-2,1.6-4.3,1.9-6.8.4-2.4.5-6.2.5-11.1v-11.2h14.4v-3.1h5.3v3.1h13.9v4.1h-11.8v1.4h10v5h2.1v3.8h-2.1v5l1.5,1.3c-1.5,1.8-3,3.3-4.6,4.8h.1ZM162.1,576.9h-10.4v-3.4h10.4v-1.4h-11.8v6.4h11.8v-1.6ZM158,591c.3,0,1-.9,2.3-1.9l1.8,2.3v-3.9h-7.7c1.5,1.5,2.6,2.6,3.5,3.6h.1,0ZM162.1,592.9c-1.5,1.4-3.1,2.6-4.5,3.6,1.3,0,2.3,0,3.1,0s1,0,1.1-.3c.1,0,.3-.8.3-1.6v-2h0v.2ZM167.3,576.9v1.6h5.3v-1.6h-5.3ZM167.3,584h5.3v-1.6h-5.3v1.6ZM171,590.6c1.3-1.1,2.5-2.3,3.5-3.4h-6.5c.8,1.1,1.8,2.3,2.9,3.4h.1Z"/>
                <path class="cls-7" d="M155.8,605.1l5.1,1c-.6,1.9-1.1,3.1-1.4,4,3.5,0,8.3-.4,14.1-.9v4.4c-5.1.4-10.5.8-16,.9-.4.9-1,2-1.8,3.5h0c1.5-.8,3-1.3,4.5-1.3s3,.3,4,.9,1.9,1.6,2.5,3.1c2.9-.9,5.9-1.5,8.9-1.9l.5,4.4c-3,.5-5.8,1.1-8.4,1.9.3,1.8.4,3.8.4,6h-5.1v-4.1c-1.8.9-3.1,1.8-4.1,2.6-1,.9-1.5,1.8-1.5,2.4s.5,1.6,1.6,2c1,.5,2.9.6,5.4.6s5.8-.3,9.7-.9l.4,4.5c-3.3.5-6.7.8-10,.8-8.4,0-12.6-2.3-12.6-6.8s.9-3.5,2.6-5.3c1.8-1.8,4.3-3.4,7.7-4.8-.6-1.3-1.6-1.8-3-1.8s-2.8.6-4.5,1.9c-1.8,1.3-3.5,3.1-5.3,5.7l-4-2.4c3-4.1,5.3-7.9,6.9-11.2h-6.8v-4.4h8.7c.4-1,1-2.8,1.6-5.1h-.1v.3Z"/>
              </g>
            </g>
          </g>
          <g>
            <path class="cls-3" d="M158.5,395.1c-.6,2.5-1.4,4.8-2.3,7l-4.1-1.6v1.6h-5v-14.2c-1,1.3-2,2.3-3,3l-1.3-5.3c2-1.5,3.6-3,5-4.5s2.8-3.3,4-5.4l2.6,1.3v-3.5h5.4c-.9-2-1.6-3.8-2.4-5.3l4.6-1.5c1,1.9,2,4.1,2.9,6.8h3.8c1.5-2.3,2.8-4.5,3.6-6.9l4.8,1.3c-.9,2-1.8,3.9-2.8,5.7h5.1v4.3h-9.9v6.5h8.3v4.3h-8.3v8.3c2,.4,4.8.5,8.4.5h2l-.3,4.4h-2.1c-5.3,0-9.3-.5-12.2-1.4-2.9-1-5.1-2.6-6.9-5v-.3h0ZM145.3,377.8l-2-4.3c3.4-2,6.2-4.5,8.4-7.5l3.8,2.5c-1.5,2-3,3.8-4.6,5.1s-3.4,2.8-5.7,4.1h.1ZM159.7,389.7c1.1,2.4,2.6,4.1,4.5,5.3v-17.5h-8.2c-1.1,2.3-2.5,4.3-4,6v15.7c2-5.8,3.4-11.9,4.1-18.3l4.6.6c-.3,2.6-.6,5.3-1.1,8h0v.2Z"/>
            <path class="cls-3" d="M178.5,429.6v3.9h-10.7c3.3,1.4,7.4,2.8,12.4,3.9l-2.3,4c-5.4-1.6-9.9-3.5-13.6-5.7v5.9h-5.3v-5.9c-3.6,2.1-8.2,4-13.6,5.7l-2.3-4c5-1.3,9.2-2.5,12.4-3.9h-10.7v-3.9h14.1v-1.6h-12.4v-3.5h12.4v-1.6h-13.7v-3.6h7.4c-.5-1.5-1-2.8-1.5-3.8h-6.8v-4.1h4c-.6-1.1-1.3-2.3-1.9-3.1l4.3-1.5c1,1.5,1.8,3,2.6,4.6h2.1v-5.1h4.6v5.1h2.9v-5.1h4.6v5.1h2.3c.8-1.4,1.6-2.9,2.4-4.6l4.3,1.3c-.5,1-1,2.1-1.8,3.4h3.9v4.1h-6.5c-.6,1.8-1.1,2.9-1.5,3.8h7.3v3.6h-13.7v1.6h12.4v3.5h-12.4v1.6h14.1-.1.3ZM165.4,419.2c.8-1.4,1.3-2.6,1.6-3.8h-10.5c.5,1.3,1,2.5,1.4,3.8h7.5Z"/>
            <path class="cls-3" d="M151.6,475.1h-5.3v-18.1h30.6v18.1h-6.2c3.4,1.1,6.4,2.3,8.9,3.4l-2.3,3.8c-3.5-1.6-7.7-3.3-12.6-4.9l1.1-2.3h-8.3l1,1.9c-3.1,2-7.5,3.6-13.1,5l-1.9-3.9c3.5-.9,6.7-1.9,9.4-2.9h-1.6.3ZM153.1,455.6h-5.1v-8.8h27.5v8.8h-22.4ZM151.6,462.3h20.1v-1.8h-20.1v1.8ZM151.6,465.2v1.8h20.1v-1.8h-20.1ZM151.6,469.9v1.8h20.1v-1.8h-20.1ZM153.1,452.6h17.2v-1.9h-17.2v1.9Z"/>
            <path class="cls-3" d="M164.3,514.4c2.9-.6,5-1.9,6.7-3.8,1.5-1.9,2.4-4.1,2.4-6.9s-.8-4.5-2.3-6.3c-1.5-1.6-3.5-2.6-6-3-1,7.7-2.6,13.3-4.8,17-2.2,3.7-4.6,5.4-7.5,5.4s-3.9-1-5.5-3.3c-1.6-2.1-2.5-4.8-2.5-7.8,0-4.8,1.6-8.7,5-11.7,3.3-3,7.8-4.5,13.2-4.5s8.3,1.3,11.3,3.9,4.4,6,4.4,10.2-1.1,7.4-3.4,10-5.4,4.4-9.4,5.3l-1.5-4.5h0ZM159.7,494.6c-3,.5-5.4,1.8-7.2,3.8s-2.6,4.4-2.6,7.3.4,3.1,1,4.4,1.4,1.8,2,1.8,1.4-.5,2.1-1.5c.8-1,1.5-2.9,2.4-5.5s1.6-6,2.3-10h0v-.3Z"/>
            <path class="cls-3" d="M178.2,527.7v5.5h1.9v4h-1.9v5.5h-7v1.9h7.5v3.6h-7.5v2h8v3.9h-8v2.3h8.5l-.3,4.3h-8.9c-3.6,0-6.5-.3-8.8-.9-2.3-.5-4.1-1.5-5.8-3-.9,1.6-2,3.1-3.4,4.4l-2.3-3.1v3h-4.6v-16c-.6,1.1-1.1,2-1.8,2.8l-1.5-5.9c2.6-4.5,4.5-10,5.4-16.5h4.6c0,.5,0,1-.3,1.6h6.9v4.3c0,0-.1.5-.4.9-.1.4-.3.6-.3.9h7.3v-1.8h-5.5v-3.8h5.5v-2h5.1v2h7.6ZM150.2,537.3v9.3l2.8-2.4c.6,1.5,1.3,2.9,1.9,4.3.4-1.6.8-3.4.9-5.4h-4.5v-4.1c1.5-2.4,2.8-4.8,3.9-7.4h-3.5c-.5,2.4-.9,4.3-1.4,5.8h0ZM150.2,548.1v8.8c1-1.1,1.9-2.3,2.6-3.6-.9-1.4-1.8-3-2.6-5.1h0ZM157.7,552.8c.4.4.8.8,1.1,1.1v-3.6h7.2v-2h-5.8v-3.6h5.8v-1.9h-5.3v-3.6h5.3v-2h-7.7v-3.4c-.6,1.6-1.5,3.3-2.5,5h3.8v4.1c-.4,3.6-1,6.9-2,9.8h.1,0ZM159.1,554.2c1.6,1.1,3.9,1.9,6.8,2.1v-2.1h-6.8ZM171,531.5v1.8h2.8v-1.8h-2.8ZM171,539.1h2.8v-2h-2.8v2Z"/>
            <path class="cls-3" d="M174.2,593.4c1.6,1.3,3.5,2.3,5.4,3.3l-2.4,3.9c-3.8-1.9-7.2-4.5-9.9-7.9v5.5c0,.8-.4,1.4-.8,1.9s-1,.8-1.6.9-1.6,0-3,0-2.4,0-4.4-.3l-.3-3.9c-2,1.4-3.9,2.5-5.8,3.5l-2.5-3.6c2.1-1,4-2.1,5.9-3.4-1.4-1.4-2.5-2.6-3.6-3.6l2.4-2.3h-1.8v-3.4h10.4v-1.6h-11.8v.5c0,4.3-.3,7.8-.9,10.7s-1.5,5.4-2.9,7.8l-3.6-4.4c.9-2,1.6-4.3,1.9-6.8.4-2.4.5-6.2.5-11.1v-11.2h14.4v-3.1h5.3v3.1h13.9v4.1h-11.8v1.4h10v5h2.1v3.8h-2.1v5l1.5,1.3c-1.5,1.8-3,3.3-4.6,4.8h.1ZM162.1,576.9h-10.4v-3.4h10.4v-1.4h-11.8v6.4h11.8v-1.6ZM158,591c.3,0,1-.9,2.3-1.9l1.8,2.3v-3.9h-7.7c1.5,1.5,2.6,2.6,3.5,3.6h.1,0ZM162.1,592.9c-1.5,1.4-3.1,2.6-4.5,3.6,1.3,0,2.3,0,3.1,0s1,0,1.1-.3c.1,0,.3-.8.3-1.6v-2h0v.2ZM167.3,576.9v1.6h5.3v-1.6h-5.3ZM167.3,584h5.3v-1.6h-5.3v1.6ZM171,590.6c1.3-1.1,2.5-2.3,3.5-3.4h-6.5c.8,1.1,1.8,2.3,2.9,3.4h.1Z"/>
            <path class="cls-3" d="M155.8,605.1l5.1,1c-.6,1.9-1.1,3.1-1.4,4,3.5,0,8.3-.4,14.1-.9v4.4c-5.1.4-10.5.8-16,.9-.4.9-1,2-1.8,3.5h0c1.5-.8,3-1.3,4.5-1.3s3,.3,4,.9,1.9,1.6,2.5,3.1c2.9-.9,5.9-1.5,8.9-1.9l.5,4.4c-3,.5-5.8,1.1-8.4,1.9.3,1.8.4,3.8.4,6h-5.1v-4.1c-1.8.9-3.1,1.8-4.1,2.6-1,.9-1.5,1.8-1.5,2.4s.5,1.6,1.6,2c1,.5,2.9.6,5.4.6s5.8-.3,9.7-.9l.4,4.5c-3.3.5-6.7.8-10,.8-8.4,0-12.6-2.3-12.6-6.8s.9-3.5,2.6-5.3c1.8-1.8,4.3-3.4,7.7-4.8-.6-1.3-1.6-1.8-3-1.8s-2.8.6-4.5,1.9c-1.8,1.3-3.5,3.1-5.3,5.7l-4-2.4c3-4.1,5.3-7.9,6.9-11.2h-6.8v-4.4h8.7c.4-1,1-2.8,1.6-5.1h-.1v.3Z"/>
          </g>
        </g>
        <g>
          <g class="cls-1">
            <g class="cls-9">
              <g>
                <path class="cls-7" d="M74.8,374.6v-4.6h31.3v4.6c-.8,2.4-2,4.6-3.8,6.8-1.8,2.3-3.8,4.1-6,5.7l-3.4-4c3.4-2.3,5.9-5.1,7.5-8.4h-25.6ZM76.6,395.6c2.3-1.3,4-2.4,5.1-3.8,1.1-1.3,1.9-3,2.4-5,.5-2.1.8-5,.8-8.7h5.3c0,4.4-.4,7.8-1,10.4s-1.8,4.8-3.3,6.4-3.8,3.3-6.7,4.8l-2.6-4.1h0Z"/>
                <path class="cls-7" d="M75.7,414.6v-4.6h28.9v4.6c-.9,7.2-3.3,12.7-7.3,16.6s-9.9,6.5-17.6,7.7l-1.1-4.6c6.3-1.1,11.2-3.3,14.6-6.4s5.4-7.5,6-13.2h-23.5Z"/>
                <path class="cls-7" d="M80.3,463.4c4.3-.9,8.3-2.4,12.2-4.5s7.3-4.6,10.2-7.5l3.3,3.3c-2.4,2.5-5.4,4.9-8.9,7v14.8h-4.9v-12.3c-3.6,1.6-7.2,2.8-10.8,3.5l-1-4.3h0Z"/>
                <path class="cls-7" d="M80.4,494.3l4.1-1.1c.9,3.1,1.8,6.4,2.6,9.8l-4.1,1c-1.1-4.3-2-7.5-2.6-9.8h0ZM106.3,492.7c-.6,7.4-2.5,12.8-5.5,16.3s-7.9,5.8-14.6,7l-1-4c5.5-1,9.5-3,12.1-5.9s4-7.4,4.5-13.7l4.6.3h0ZM88.5,492.6l4.3-1.1c1,3.5,1.9,6.8,2.8,10l-4.3,1.1c-.9-3.5-1.8-6.9-2.6-10h-.2Z"/>
                <path class="cls-7" d="M81.3,527.5h5.4v10.9c6.2,1.6,12.1,3.8,17.7,6.2l-1.9,4.5c-5.3-2.3-10.5-4.1-15.8-5.7v16.1h-5.4v-32Z"/>
                <path class="cls-7" d="M73.9,582.9c5.4-1.1,10.5-3.1,15.3-5.8,4.9-2.6,9-5.9,12.6-9.5l3.8,3.5c-3.1,3.3-6.8,6.3-11.3,8.9v18.7h-5.4v-15.8c-4.6,2.3-9.3,3.8-13.9,4.6l-1.1-4.8h0v.2Z"/>
                <path class="cls-7" d="M92.8,638.9h-5.3v-31.6h5.3v31.6Z"/>
                <path class="cls-7" d="M73.7,660.2l1.8-4.3c3.9,1.4,7.8,2.9,11.6,4.5l-1.9,4.3c-3.1-1.4-6.9-2.8-11.4-4.5h0ZM75.7,673.9c7.5-.9,13.3-3,17.2-6.2s6.7-8,8.2-14.6l4.8,1.3c-1.6,7.5-4.8,13.2-9.3,17-4.6,3.8-11.3,6.2-20,7l-.8-4.6h0,0ZM77.3,651.7l1.8-4.3c3.9,1.4,7.8,3,11.7,4.5l-1.9,4.3c-4.1-1.8-7.9-3.3-11.6-4.5ZM103.1,650.2l-3.8,1.8c-.9-1.8-1.9-3.6-3-5.8l3.8-1.9c1.1,2,2.1,4,3,5.9h0ZM109.1,649.8l-3.8,1.9c-1.4-2.8-2.5-4.8-3.1-5.9l3.8-1.9c1.3,2.3,2.3,4.3,3.1,6h0Z"/>
                <path class="cls-7" d="M92.8,718.5h-5.3v-31.6h5.3v31.6Z"/>
                <path class="cls-7" d="M82.5,724.6l4.9.4c-.4,2.9-.8,5.4-1.1,7.7h5.4c.8,0,1.5.3,2.3.5.6.3,1.3.6,1.5.9s.6.9.9,1.6.4,1.6.4,2.5v3.6c0,5.3-.8,9.3-2.4,12.1s-3.5,4.3-5.8,4.3-4.1-.9-7-2.8l2-4.3c2.1,1.4,3.5,2.1,4.4,2.1s.9-.3,1.3-.8.8-1.3,1.1-2.1c.4-1,.6-2.3.9-3.9s.4-3.5.4-5.7,0-2.8-.5-3.3c-.4-.4-1.3-.6-2.8-.6h-3c-1.6,6.9-4.1,14.1-7.7,21.2l-4.4-1.9c3.1-6.4,5.4-12.7,7-19.1-.4,0-1.3,0-2.6.3-1.4,0-2.4.3-3.3.3l-.4-4.5c3.1-.4,5.5-.5,7.2-.6.5-2.8,1-5.5,1.3-8.4,0,0,0,.5,0,.5ZM102.7,732.8l-4.1,2c-1-2.1-2.1-4.1-3.4-6.3l4.1-2c1.3,2.3,2.4,4.4,3.4,6.4h0ZM99.2,737.3l4.6-1.8c2.3,5.5,4,10.4,5.3,14.6l-4.8,1.4c-1.3-4.3-3-8.9-5.1-14.3h0ZM109.1,731.6l-4.1,2c-1.3-2.3-2.4-4.4-3.5-6.4l4.1-2.1c1,1.8,2.1,3.9,3.5,6.5Z"/>
                <path class="cls-7" d="M72.8,772.9h6.8v-6.8h5v6.8h10.7v-6.8h5.1v6.8h6.9v4.6h-6.9v.9c0,6.4-1.4,11.1-4.1,14.1s-7.5,4.9-14.1,5.7l-1-4.5c5.5-.6,9.2-2,11.2-4.3,2-2.1,3-5.8,3-10.9v-.9h-10.7v7.9h-5v-7.9h-6.8v-4.6h0Z"/>
                <path class="cls-7" d="M78.3,818.8l4.6,1.6c-1.9,4.6-3.9,9-6.2,13.6l-4.5-2c2-3.9,3.9-8.3,6-13.2h0ZM73.7,811.3h13.8v-6h5.4v6h5.4c-.5-.9-.6-1.8-.6-2.8,0-1.6.6-3,1.8-4.3,1.1-1.1,2.5-1.8,4.3-1.8s3,.6,4.3,1.8c1.1,1.1,1.8,2.5,1.8,4.3s-.4,2.4-1.1,3.4-1.6,1.8-2.8,2.1v1.8h-12.8v15.7c0,1.5,0,2.8,0,3.5,0,.8-.4,1.4-.9,1.9s-1.1.8-1.9.9c-.8,0-1.9,0-3.4,0s-3.1,0-5.4-.5l.4-4.5c1.9.3,3.3.4,4.4.4s1.3,0,1.4-.3c0,0,.3-.8.3-1.6v-15.7h-13.8v-4.5h-.5ZM96.4,820.5l4.5-1.8c2.1,4.6,4.1,9,6,13.6l-4.5,1.8c-1.9-4.5-3.8-9-6-13.6ZM105.4,810.3c.5-.5.8-1.1.8-1.9s-.3-1.4-.8-1.9-1.1-.8-1.9-.8-1.4.3-1.9.8-.8,1.1-.8,1.9.3,1.4.8,1.9,1.1.8,1.9.8,1.4-.3,1.9-.8Z"/>
                <path class="cls-7" d="M92.8,877.6h-5.3v-31.6h5.3v31.6Z"/>
                <path class="cls-7" d="M81.3,885.5h5.4v10.9c6.2,1.6,12.1,3.8,17.7,6.2l-1.9,4.5c-5.3-2.3-10.5-4.1-15.8-5.7v16.1h-5.4v-32Z"/>
                <path class="cls-7" d="M78.6,925.1h5.4c0,1.5,0,4.9-.3,10,0,5.1-.3,8.4-.3,9.8,0,2.8.5,4.8,1.4,6s2.4,1.9,4.3,1.9,4.5-.9,6.4-2.8,3.9-4.8,5.7-8.8l4.6,2c-3.9,9.5-9.5,14.4-16.8,14.4s-6.5-1-8.4-2.9c-1.9-2-2.8-5.3-2.8-9.9s0-5.1.3-9.7c0-5.3.3-8.7.3-10.3h.3v.3Z"/>
                <path class="cls-7" d="M89.9,984.4v-3.9c-4.4.3-8.8.4-13.2.4v-4.3c3.9,0,8.3,0,13.1-.4v-3.5c-5.5.3-10.4.4-14.6.4v-4.3c4.8,0,9.7,0,14.7-.4,0-1.5,0-3,.4-4.8h5.1c0,1-.3,2.5-.4,4.5,3.5-.3,6.9-.5,10.4-.9l.3,4.3c-3.6.4-7.2.6-10.8.9v3.4c3.3-.3,6.2-.5,8.8-.9l.3,4.3c-2.8.4-5.8.6-9,.9v.8c0,1.3,0,3,0,5.5,2.6,1.4,5.9,3.5,9.7,6.4l-2.9,3.6c-2.9-2.1-5.1-3.6-6.9-4.8-.4,2.1-1.3,3.6-2.8,4.5s-3.6,1.4-6.4,1.4-4.9-.6-6.5-1.9c-1.5-1.3-2.4-3-2.4-5.1s.8-3.6,2.4-4.8c1.5-1.3,3.8-1.8,6.5-1.8s2.8,0,4.1.5h0ZM89.9,989c-1.5-.5-2.8-.9-4-.9-2.5,0-3.9.8-3.9,2.3s1.3,2.5,3.9,2.5,2.6-.3,3.1-.8.9-1.6.9-3.1Z"/>
                <path class="cls-7" d="M81.7,1033.1c5.8-.4,9.3-1.8,10.5-4.1,0-.3.3-.6.4-1.3h0c-1.3,1-2.8,1.6-4.8,1.6s-4.3-.8-5.8-2.1-2.3-3.3-2.3-5.5.8-4,2.3-5.4,3.4-2.1,5.7-2.1,2.5.3,3.8.8h0v-2.8c-7.5.4-13.7.5-18.5.5v-4.4c4.6,0,10.8,0,18.3-.5v-4.8h5v4.5c3.4,0,6.9-.4,10.7-.8l.4,4.4c-3.8.4-7.3.6-10.8.8,0,4,.3,6.3.3,7,.9,1.8,1.3,3.8,1.3,6.2,0,3.9-1.3,6.9-3.8,9s-6.4,3.4-11.8,3.6l-.8-4.6h0,0ZM86.1,1019.3c-.8.6-1,1.5-1,2.5s.4,1.9,1,2.5c.6.6,1.5,1,2.5,1s1.9-.4,2.5-1c.8-.6,1-1.5,1-2.5s-.4-1.9-1-2.5c-.8-.6-1.5-1-2.5-1s-1.9.4-2.5,1h0Z"/>
                <path class="cls-7" d="M86.7,1046h6.7l-.8,20.3h-5l-.8-20.3s0,0,0,0ZM87.1,1075v-5.5h5.8v5.5h-5.8Z"/>
              </g>
            </g>
          </g>
          <g>
            <path class="cls-3" d="M74.8,374.6v-4.6h31.3v4.6c-.8,2.4-2,4.6-3.8,6.8-1.8,2.3-3.8,4.1-6,5.7l-3.4-4c3.4-2.3,5.9-5.1,7.5-8.4h-25.6ZM76.6,395.6c2.3-1.3,4-2.4,5.1-3.8,1.1-1.3,1.9-3,2.4-5,.5-2.1.8-5,.8-8.7h5.3c0,4.4-.4,7.8-1,10.4s-1.8,4.8-3.3,6.4-3.8,3.3-6.7,4.8l-2.6-4.1h0Z"/>
            <path class="cls-3" d="M75.7,414.6v-4.6h28.9v4.6c-.9,7.2-3.3,12.7-7.3,16.6s-9.9,6.5-17.6,7.7l-1.1-4.6c6.3-1.1,11.2-3.3,14.6-6.4s5.4-7.5,6-13.2h-23.5Z"/>
            <path class="cls-3" d="M80.3,463.4c4.3-.9,8.3-2.4,12.2-4.5s7.3-4.6,10.2-7.5l3.3,3.3c-2.4,2.5-5.4,4.9-8.9,7v14.8h-4.9v-12.3c-3.6,1.6-7.2,2.8-10.8,3.5l-1-4.3h0Z"/>
            <path class="cls-3" d="M80.4,494.3l4.1-1.1c.9,3.1,1.8,6.4,2.6,9.8l-4.1,1c-1.1-4.3-2-7.5-2.6-9.8h0ZM106.3,492.7c-.6,7.4-2.5,12.8-5.5,16.3s-7.9,5.8-14.6,7l-1-4c5.5-1,9.5-3,12.1-5.9s4-7.4,4.5-13.7l4.6.3h0ZM88.5,492.6l4.3-1.1c1,3.5,1.9,6.8,2.8,10l-4.3,1.1c-.9-3.5-1.8-6.9-2.6-10h-.2Z"/>
            <path class="cls-3" d="M81.3,527.5h5.4v10.9c6.2,1.6,12.1,3.8,17.7,6.2l-1.9,4.5c-5.3-2.3-10.5-4.1-15.8-5.7v16.1h-5.4v-32Z"/>
            <path class="cls-3" d="M73.9,582.9c5.4-1.1,10.5-3.1,15.3-5.8,4.9-2.6,9-5.9,12.6-9.5l3.8,3.5c-3.1,3.3-6.8,6.3-11.3,8.9v18.7h-5.4v-15.8c-4.6,2.3-9.3,3.8-13.9,4.6l-1.1-4.8h0v.2Z"/>
            <path class="cls-3" d="M92.8,638.9h-5.3v-31.6h5.3v31.6Z"/>
            <path class="cls-3" d="M73.7,660.2l1.8-4.3c3.9,1.4,7.8,2.9,11.6,4.5l-1.9,4.3c-3.1-1.4-6.9-2.8-11.4-4.5h0ZM75.7,673.9c7.5-.9,13.3-3,17.2-6.2s6.7-8,8.2-14.6l4.8,1.3c-1.6,7.5-4.8,13.2-9.3,17-4.6,3.8-11.3,6.2-20,7l-.8-4.6h0,0ZM77.3,651.7l1.8-4.3c3.9,1.4,7.8,3,11.7,4.5l-1.9,4.3c-4.1-1.8-7.9-3.3-11.6-4.5ZM103.1,650.2l-3.8,1.8c-.9-1.8-1.9-3.6-3-5.8l3.8-1.9c1.1,2,2.1,4,3,5.9h0ZM109.1,649.8l-3.8,1.9c-1.4-2.8-2.5-4.8-3.1-5.9l3.8-1.9c1.3,2.3,2.3,4.3,3.1,6h0Z"/>
            <path class="cls-3" d="M92.8,718.5h-5.3v-31.6h5.3v31.6Z"/>
            <path class="cls-3" d="M82.5,724.6l4.9.4c-.4,2.9-.8,5.4-1.1,7.7h5.4c.8,0,1.5.3,2.3.5.6.3,1.3.6,1.5.9s.6.9.9,1.6.4,1.6.4,2.5v3.6c0,5.3-.8,9.3-2.4,12.1s-3.5,4.3-5.8,4.3-4.1-.9-7-2.8l2-4.3c2.1,1.4,3.5,2.1,4.4,2.1s.9-.3,1.3-.8.8-1.3,1.1-2.1c.4-1,.6-2.3.9-3.9s.4-3.5.4-5.7,0-2.8-.5-3.3c-.4-.4-1.3-.6-2.8-.6h-3c-1.6,6.9-4.1,14.1-7.7,21.2l-4.4-1.9c3.1-6.4,5.4-12.7,7-19.1-.4,0-1.3,0-2.6.3-1.4,0-2.4.3-3.3.3l-.4-4.5c3.1-.4,5.5-.5,7.2-.6.5-2.8,1-5.5,1.3-8.4,0,0,0,.5,0,.5ZM102.7,732.8l-4.1,2c-1-2.1-2.1-4.1-3.4-6.3l4.1-2c1.3,2.3,2.4,4.4,3.4,6.4h0ZM99.2,737.3l4.6-1.8c2.3,5.5,4,10.4,5.3,14.6l-4.8,1.4c-1.3-4.3-3-8.9-5.1-14.3h0ZM109.1,731.6l-4.1,2c-1.3-2.3-2.4-4.4-3.5-6.4l4.1-2.1c1,1.8,2.1,3.9,3.5,6.5Z"/>
            <path class="cls-3" d="M72.8,772.9h6.8v-6.8h5v6.8h10.7v-6.8h5.1v6.8h6.9v4.6h-6.9v.9c0,6.4-1.4,11.1-4.1,14.1s-7.5,4.9-14.1,5.7l-1-4.5c5.5-.6,9.2-2,11.2-4.3,2-2.1,3-5.8,3-10.9v-.9h-10.7v7.9h-5v-7.9h-6.8v-4.6h0Z"/>
            <path class="cls-3" d="M78.3,818.8l4.6,1.6c-1.9,4.6-3.9,9-6.2,13.6l-4.5-2c2-3.9,3.9-8.3,6-13.2h0ZM73.7,811.3h13.8v-6h5.4v6h5.4c-.5-.9-.6-1.8-.6-2.8,0-1.6.6-3,1.8-4.3,1.1-1.1,2.5-1.8,4.3-1.8s3,.6,4.3,1.8c1.1,1.1,1.8,2.5,1.8,4.3s-.4,2.4-1.1,3.4-1.6,1.8-2.8,2.1v1.8h-12.8v15.7c0,1.5,0,2.8,0,3.5,0,.8-.4,1.4-.9,1.9s-1.1.8-1.9.9c-.8,0-1.9,0-3.4,0s-3.1,0-5.4-.5l.4-4.5c1.9.3,3.3.4,4.4.4s1.3,0,1.4-.3c0,0,.3-.8.3-1.6v-15.7h-13.8v-4.5h-.5ZM96.4,820.5l4.5-1.8c2.1,4.6,4.1,9,6,13.6l-4.5,1.8c-1.9-4.5-3.8-9-6-13.6ZM105.4,810.3c.5-.5.8-1.1.8-1.9s-.3-1.4-.8-1.9-1.1-.8-1.9-.8-1.4.3-1.9.8-.8,1.1-.8,1.9.3,1.4.8,1.9,1.1.8,1.9.8,1.4-.3,1.9-.8Z"/>
            <path class="cls-3" d="M92.8,877.6h-5.3v-31.6h5.3v31.6Z"/>
            <path class="cls-3" d="M81.3,885.5h5.4v10.9c6.2,1.6,12.1,3.8,17.7,6.2l-1.9,4.5c-5.3-2.3-10.5-4.1-15.8-5.7v16.1h-5.4v-32Z"/>
            <path class="cls-3" d="M78.6,925.1h5.4c0,1.5,0,4.9-.3,10,0,5.1-.3,8.4-.3,9.8,0,2.8.5,4.8,1.4,6s2.4,1.9,4.3,1.9,4.5-.9,6.4-2.8,3.9-4.8,5.7-8.8l4.6,2c-3.9,9.5-9.5,14.4-16.8,14.4s-6.5-1-8.4-2.9c-1.9-2-2.8-5.3-2.8-9.9s0-5.1.3-9.7c0-5.3.3-8.7.3-10.3h.3v.3Z"/>
            <path class="cls-3" d="M89.9,984.4v-3.9c-4.4.3-8.8.4-13.2.4v-4.3c3.9,0,8.3,0,13.1-.4v-3.5c-5.5.3-10.4.4-14.6.4v-4.3c4.8,0,9.7,0,14.7-.4,0-1.5,0-3,.4-4.8h5.1c0,1-.3,2.5-.4,4.5,3.5-.3,6.9-.5,10.4-.9l.3,4.3c-3.6.4-7.2.6-10.8.9v3.4c3.3-.3,6.2-.5,8.8-.9l.3,4.3c-2.8.4-5.8.6-9,.9v.8c0,1.3,0,3,0,5.5,2.6,1.4,5.9,3.5,9.7,6.4l-2.9,3.6c-2.9-2.1-5.1-3.6-6.9-4.8-.4,2.1-1.3,3.6-2.8,4.5s-3.6,1.4-6.4,1.4-4.9-.6-6.5-1.9c-1.5-1.3-2.4-3-2.4-5.1s.8-3.6,2.4-4.8c1.5-1.3,3.8-1.8,6.5-1.8s2.8,0,4.1.5h0ZM89.9,989c-1.5-.5-2.8-.9-4-.9-2.5,0-3.9.8-3.9,2.3s1.3,2.5,3.9,2.5,2.6-.3,3.1-.8.9-1.6.9-3.1Z"/>
            <path class="cls-3" d="M81.7,1033.1c5.8-.4,9.3-1.8,10.5-4.1,0-.3.3-.6.4-1.3h0c-1.3,1-2.8,1.6-4.8,1.6s-4.3-.8-5.8-2.1-2.3-3.3-2.3-5.5.8-4,2.3-5.4,3.4-2.1,5.7-2.1,2.5.3,3.8.8h0v-2.8c-7.5.4-13.7.5-18.5.5v-4.4c4.6,0,10.8,0,18.3-.5v-4.8h5v4.5c3.4,0,6.9-.4,10.7-.8l.4,4.4c-3.8.4-7.3.6-10.8.8,0,4,.3,6.3.3,7,.9,1.8,1.3,3.8,1.3,6.2,0,3.9-1.3,6.9-3.8,9s-6.4,3.4-11.8,3.6l-.8-4.6h0,0ZM86.1,1019.3c-.8.6-1,1.5-1,2.5s.4,1.9,1,2.5c.6.6,1.5,1,2.5,1s1.9-.4,2.5-1c.8-.6,1-1.5,1-2.5s-.4-1.9-1-2.5c-.8-.6-1.5-1-2.5-1s-1.9.4-2.5,1h0Z"/>
            <path class="cls-3" d="M86.7,1046h6.7l-.8,20.3h-5l-.8-20.3s0,0,0,0ZM87.1,1075v-5.5h5.8v5.5h-5.8Z"/>
          </g>
        </g>
      </g>
    </g>
  </g>
</svg>