<?xml version="1.0" encoding="UTF-8"?><svg id="_レイヤー_2" xmlns="http://www.w3.org/2000/svg" viewBox="0 0 158.34 158.37"><defs><style>.cls-1{fill:#9dc938;stroke-width:0px;}</style></defs><g id="_レイヤー_1-2"><path class="cls-1" d="M61.08,153.19c-.08-.21-.08-.43.02-.64.09-.21.25-.36.47-.42l.48-.17c.22-.08.44-.07.65.03s.36.26.45.49c.27.7.59,1.44.94,2.24.09.21.1.43.01.65-.08.22-.23.38-.45.47l-.45.18c-.21.09-.43.09-.65.01-.22-.08-.37-.23-.47-.45-.32-.72-.66-1.52-1.01-2.39ZM67.5,152.99c-1.45-.21-2.57-.73-3.38-1.58s-1.14-1.79-.99-2.83c.31-2.18,1.66-3.35,4.05-3.53.23-.02.44.06.63.22.18.16.29.37.31.61l.07.77c.02.22-.05.43-.19.6-.15.18-.33.28-.56.31-.5.07-.88.2-1.11.4-.24.2-.38.49-.43.86-.05.37.1.71.47,1.03.36.32.86.52,1.5.62l.31.04c.09.01.14-.03.15-.11l.32-2.24c.16-1.1.46-1.82.91-2.15.45-.33,1.22-.42,2.31-.27,1.1.16,1.97.61,2.62,1.36.65.75.9,1.62.76,2.61-.12.86-.57,1.59-1.35,2.19-.78.6-1.81.99-3.1,1.16-.08,0-.13.06-.14.15l-.19,1.31c-.01.08.03.12.12.14l2.29.33c.23.03.41.14.56.34.14.19.2.4.17.63l-.08.53c-.03.23-.15.41-.34.56s-.4.2-.63.17l-2.29-.33c-.09-.01-.14.03-.15.11l-.09.65c-.03.23-.15.41-.34.56-.19.14-.4.2-.63.17l-.98-.14c-.23-.03-.41-.15-.56-.34-.14-.19-.2-.4-.17-.63l.09-.65c.01-.09-.03-.14-.11-.15l-1.84-.26c-.23-.03-.41-.15-.56-.34-.14-.19-.2-.4-.17-.63l.08-.53c.03-.23.15-.41.34-.56.19-.14.4-.2.63-.17l1.84.26c.09.01.14-.02.15-.1l.14-.95c.01-.08-.03-.12-.12-.14l-.31-.04ZM71.29,148.76l-.23,1.62s0,.05.03.07c.03.02.06.03.09.02.85-.2,1.31-.58,1.39-1.15.03-.24-.03-.47-.19-.7-.16-.23-.35-.36-.57-.39-.19-.03-.31,0-.38.05s-.12.22-.15.48Z"/><path class="cls-1" d="M45.54,151.95c-.22-.08-.37-.23-.47-.45-.1-.22-.11-.44-.03-.65l3.39-9.19c.18-.48.32-.85.44-1.12.11-.27.25-.5.41-.71.16-.21.31-.34.44-.41.13-.07.32-.1.57-.09.25,0,.5.05.75.12.25.08.59.2,1.04.36.41.15.8.31,1.16.46.22.09.38.25.49.48s.12.45.06.69l-.12.36c-.03.08,0,.13.1.16l2.53.94s.08,0,.1-.04c.05-.13.14-.23.28-.29s.27-.07.4-.02l.89.33c.22.08.37.23.47.45.1.22.11.44.03.65l-1.33,3.6c-.08.22-.23.37-.45.47s-.44.11-.65.03l-4.73-1.75c-.22-.08-.37-.23-.47-.45-.1-.22-.11-.44-.03-.65l1.09-2.94c.03-.08,0-.14-.07-.17l-.1-.04c-.27-.1-.44-.14-.51-.12-.07.02-.15.16-.24.4l-1.51,4.09c-.03.08,0,.14.08.17l2.8,1.03c.22.08.37.23.47.45.1.22.11.44.03.65l-1.62,4.38c-.08.22-.23.37-.45.47-.22.1-.44.11-.65.03l-4.59-1.69ZM48.04,150.3l-.14.38c-.03.08,0,.14.08.17l1.65.61c.08.03.14,0,.17-.08l.14-.38c.03-.08,0-.14-.08-.17l-1.65-.61c-.08-.03-.14,0-.17.08ZM48.79,148.26l-.15.39c-.03.08,0,.13.08.16l1.65.61c.08.03.14,0,.17-.07l.15-.39c.03-.08,0-.14-.08-.17l-1.65-.61c-.08-.03-.14,0-.17.08ZM53.4,148.97c.08-.22.23-.37.45-.47s.44-.11.65-.03l2.67.99c.08.03.13,0,.16-.08l2.18-5.9c.08-.22.23-.37.45-.47s.44-.11.65-.03l.86.32c.22.08.37.23.47.45.1.22.11.44.03.65l-4.14,11.2c-.08.22-.23.37-.45.47s-.44.11-.65.03l-4.45-1.64c-.22-.08-.37-.23-.47-.45-.1-.22-.11-.44-.03-.65l1.62-4.38ZM53.77,143.86l-.46,1.24c-.03.08,0,.13.08.16l1.73.64c.08.03.13,0,.15-.07l.46-1.24c.03-.08,0-.14-.07-.17l-1.73-.64c-.08-.03-.14,0-.17.08ZM54.16,152.56l-.14.38c-.03.08,0,.14.08.17l1.52.56c.08.03.13,0,.16-.09l.14-.38c.03-.08,0-.14-.07-.17l-1.52-.56c-.08-.03-.14,0-.17.08ZM54.91,150.52l-.15.39c-.03.07,0,.13.08.16l1.52.56c.08.03.13,0,.15-.07l.15-.39c.03-.08,0-.14-.07-.17l-1.52-.56c-.08-.03-.14,0-.17.08Z"/><path class="cls-1" d="M34.15,143.47c-.24-.07-.43-.2-.56-.41s-.18-.42-.14-.65c.46-2.66,1.48-5.34,3.07-8.03.11-.2.29-.33.52-.38.23-.05.45-.02.64.1l.96.61c.19.12.32.3.38.53.06.23.03.45-.09.65-1.36,2.32-2.3,4.75-2.84,7.27-.05.23-.17.4-.36.52s-.4.15-.62.08l-.97-.29ZM39.48,139.31c-.14-.18-.2-.39-.17-.63.03-.24.14-.42.33-.56,1.12-.79,2.2-1.28,3.22-1.47,1.02-.19,1.84-.08,2.47.31.78.49,1.19,1.45,1.22,2.88.04,1.43-.4,2.87-1.32,4.33-.82,1.3-1.8,2.49-2.93,3.56-.18.17-.39.26-.64.27-.25,0-.47-.07-.67-.22l-.86-.68c-.18-.13-.27-.31-.27-.54s.07-.41.23-.57c1.11-1.1,2.02-2.21,2.73-3.33.25-.4.46-.8.62-1.2.16-.4.27-.75.31-1.04.04-.3.06-.55.04-.75-.02-.21-.07-.34-.17-.4-.14-.08-.42-.05-.84.1-.43.15-.95.43-1.58.84-.2.12-.41.17-.64.13-.23-.04-.42-.15-.56-.33l-.53-.69Z"/><path class="cls-1" d="M21.46,129.81c-.07-.23-.05-.46.05-.67.1-.21.26-.37.49-.46l.68-.3c.21-.09.42-.09.64,0s.36.25.42.47c.15.48.28.92.38,1.32,0,.02.03.03.05.03.03,0,.05,0,.06-.02.15-.16.33-.24.55-.25.21,0,.4.07.56.22l4.94,4.71c.16.15.24.34.25.55,0,.22-.06.4-.21.56-.01.01-.02.03-.01.06,0,.02.02.04.04.05.15.03.59.14,1.32.33.22.06.38.19.49.4.1.21.12.42.04.64l-.27.7c-.08.23-.22.4-.43.51-.21.11-.43.14-.67.08-1.7-.4-3.38-.6-5.04-.6-.58,0-1.07-.19-1.47-.57l-1.37-1.3c-.4-.38-.61-.86-.64-1.44-.08-1.66-.36-3.33-.84-5.01ZM24.68,132.52s-.03-.02-.05-.01-.03.02-.03.05c.14.96.21,1.95.21,2.98,0,.08.05.13.13.12,1.02-.05,2.02-.02,2.98.07.03,0,.04,0,.05-.03,0-.02,0-.03-.02-.05l-3.28-3.12ZM24.93,128.52c-.17-.16-.25-.36-.26-.6,0-.24.07-.44.23-.61l3.42-3.59c.16-.17.36-.25.6-.26.24,0,.44.07.61.23l1.01.96c.1.1.15.22.16.37,0,.15-.04.27-.14.37-.03.04-.03.07,0,.11l4.13,3.93s.07.03.11,0c.1-.1.22-.15.37-.16.15,0,.27.04.37.14l1.01.96c.17.16.25.36.26.6s-.07.44-.23.61l-3.42,3.59c-.16.17-.36.25-.6.26-.24,0-.44-.07-.61-.23l-7.02-6.68ZM28.97,127.06l-1.06,1.11c-.06.06-.06.13,0,.19l4.04,3.85c.07.06.13.06.19,0l1.06-1.11c.06-.06.06-.13,0-.19l-4.04-3.85c-.06-.06-.13-.06-.19,0Z"/><path class="cls-1" d="M13.1,121.54c-.85-1.24-1.12-2.35-.81-3.36.31-1,1.31-2.09,3-3.25,1.45-1,2.77-1.44,3.97-1.31,1.2.12,2.18.73,2.94,1.84.34.49.6,1.06.77,1.71.06.23.03.46-.1.66s-.32.34-.56.41l-.8.21c-.22.07-.43.04-.63-.07-.2-.12-.34-.29-.41-.52-.14-.4-.28-.7-.43-.91-.29-.42-.69-.62-1.19-.6-.51.02-1.17.31-1.98.87-.72.49-1.21.89-1.49,1.2-.28.31-.42.59-.41.84s.14.56.39.92c.22.31.59.6,1.14.85.54.25,1.37.5,2.48.74.07.03.14.01.21-.04l4.77-3.28c.19-.13.4-.17.64-.13.24.04.42.16.55.35l.48.69c.13.19.17.4.13.64-.04.24-.16.42-.35.55l-2.63,1.81s-.02.03-.02.05c0,.02.02.04.05.04.11.01.27.04.49.07.22.03.4.06.52.07.23.04.42.15.56.33s.2.39.17.62l-.13.84c-.04.23-.15.42-.33.56s-.4.2-.64.17c-1.31-.16-2.55-.35-3.7-.57-.08-.02-.16,0-.24.05l-.57.39c-.07.05-.09.11-.04.18l.98,1.42c.13.19.17.4.13.64-.04.24-.16.42-.35.55l-.44.31c-.19.13-.4.17-.64.13-.24-.04-.42-.16-.55-.35l-.98-1.42c-.05-.07-.1-.07-.18-.02l-.79.54c-.19.13-.4.17-.64.13-.24-.04-.42-.16-.55-.35l-.48-.69c-.13-.19-.17-.4-.13-.64.04-.24.16-.42.35-.55l1.58-1.09s.02-.03.02-.06c0-.03-.02-.04-.04-.06-1.41-.5-2.43-1.21-3.07-2.13Z"/><path class="cls-1" d="M5.19,103.96c-.1-.21-.1-.42-.02-.64.09-.22.23-.38.44-.48l.63-.28c.22-.1.44-.11.65-.03.22.08.38.23.48.45l.43.89c.04.08.09.11.18.07l2.02-.85c.72-.3,1.31-.37,1.78-.19.47.18.84.59,1.11,1.25.21.51.43,1.25.65,2.23.04.23,0,.45-.13.65s-.31.33-.54.38l-.79.17c-.23.05-.44.02-.64-.1-.2-.12-.33-.3-.39-.52-.11-.42-.21-.73-.3-.93-.06-.15-.13-.23-.2-.25s-.22.02-.43.11l-1.04.44c-.08.03-.11.09-.08.16.11.24.27.59.47,1.03.2.44.39.84.55,1.2.16.36.31.71.45,1.04.03.07.09.09.17.06l3.72-1.57c.41-.17.67-.34.79-.51.12-.17.16-.42.1-.74-.06-.32-.23-.83-.51-1.51-.42-.99-.94-2.06-1.59-3.22-.11-.2-.13-.42-.07-.64.06-.22.2-.39.4-.5l.7-.38c.21-.11.43-.13.66-.06s.39.21.5.42c.67,1.24,1.23,2.37,1.67,3.42.54,1.29.85,2.31.91,3.05.06.74-.1,1.35-.48,1.83s-1.07.92-2.04,1.33l-3.69,1.56c-.08.03-.11.09-.08.16.05.12.13.3.24.54.11.24.19.42.24.54.09.21.09.43,0,.65s-.24.37-.46.46l-.64.27c-.21.09-.43.09-.65,0-.22-.09-.38-.24-.47-.45-.05-.12-.13-.3-.23-.54-.11-.24-.18-.42-.23-.54-.03-.07-.08-.1-.16-.06l-1.09.46c-.21.09-.43.09-.65,0-.22-.09-.38-.24-.47-.45l-.38-.91c-.09-.21-.09-.43,0-.65.09-.22.24-.38.45-.47l1.06-.45c.07-.03.09-.08.06-.16-.14-.33-.29-.68-.45-1.04-.16-.36-.34-.76-.55-1.2-.2-.44-.36-.78-.47-1.03-.03-.07-.09-.09-.17-.06l-1.24.52c-.21.09-.43.09-.65,0-.22-.09-.38-.24-.47-.45l-.36-.84c-.09-.21-.09-.43,0-.65s.24-.38.45-.47l1.17-.5c.07-.03.09-.09.06-.17-.04-.1-.11-.24-.19-.42-.09-.18-.16-.32-.21-.42Z"/><path class="cls-1" d="M1.75,88.5c-.04-.23,0-.44.13-.64s.31-.32.54-.37l.68-.13c.23-.04.44,0,.64.13.2.13.32.31.37.54l.24,1.24c.02.09.07.12.16.11l3.25-.64c.07-.01.13-.06.19-.14.27-.44.72-1.11,1.35-2.01.13-.2.32-.32.56-.36.24-.04.45,0,.65.14l.62.41c.19.14.3.32.34.54.04.23,0,.44-.15.62-.06.09-.16.23-.29.39-.05.07-.03.12.06.14,1.08.36,1.76,1.27,2.05,2.72.23,1.16.13,2.11-.29,2.87-.42.75-1.11,1.23-2.08,1.42-.95.19-1.77.02-2.45-.51-.68-.53-1.13-1.38-1.37-2.56-.04-.22-.07-.42-.07-.61,0-.09-.04-.13-.13-.11l-1.72.34c-.09.02-.12.07-.11.14l.56,2.87c.04.23,0,.44-.13.64-.13.2-.31.32-.54.37l-.68.13c-.23.04-.44,0-.64-.13-.2-.13-.32-.31-.37-.54l-.56-2.87c-.02-.08-.07-.11-.16-.09l-1.09.21c-.23.04-.44,0-.64-.13s-.32-.31-.37-.54l-.19-.97c-.04-.23,0-.44.13-.64.13-.2.31-.32.54-.37l1.09-.21c.09-.02.12-.07.11-.16l-.24-1.24ZM1.9,98.29c-.02-.22.05-.41.21-.58.16-.16.35-.24.58-.24,1.62.03,3.34-.13,5.16-.49,1.83-.36,3.48-.86,4.97-1.49.22-.09.43-.09.63,0,.21.09.34.24.4.46l.31.93c.08.23.06.46-.04.68-.1.22-.26.38-.49.48-1.62.69-3.37,1.23-5.27,1.6-1.89.37-3.72.54-5.48.51-.25,0-.46-.09-.63-.26-.18-.17-.27-.37-.29-.62l-.07-.98ZM9.75,91.11l-.24.05c-.1.02-.15.07-.17.16-.06.25-.07.51-.01.8.13.69.45.98.94.89s.67-.49.53-1.17c-.06-.31-.17-.53-.34-.64-.16-.11-.4-.13-.72-.07Z"/><path class="cls-1" d="M0,82.46l.12-7.44c0-.23.09-.43.26-.6.17-.17.37-.25.6-.25h.77c.23.02.43.1.6.28.17.17.25.37.25.6l-.12,7.44c0,.23-.09.43-.26.6-.17.17-.37.25-.6.25h-.76c-.23-.02-.43-.1-.6-.28-.17-.17-.25-.37-.25-.6ZM10.56,73.6c.23-.05.45,0,.65.13.2.13.33.32.37.55.34,1.75.5,3.32.48,4.73-.03,1.84-.37,3.27-1.01,4.29s-1.49,1.52-2.53,1.5c-.53,0-1.06-.16-1.59-.45s-1.15-.78-1.84-1.49c-.17-.17-.26-.38-.27-.63-.01-.25.06-.47.2-.66l.52-.71c.13-.18.31-.27.53-.28.22-.01.41.06.57.21.73.71,1.27,1.07,1.63,1.08s.65-.23.88-.71c.23-.48.35-1.21.37-2.19.02-1.19-.14-2.59-.47-4.21-.05-.23,0-.44.12-.64.13-.19.3-.31.52-.34l.87-.18Z"/><path class="cls-1" d="M3.1,59.02c.04-.23.17-.41.36-.54.2-.13.41-.18.64-.14l.68.13c.23.04.41.17.54.36.13.2.18.41.14.64l-1.15,5.9c-.02.09.02.15.1.19.51.25.92.46,1.24.64h.03s0-.02,0-.02c-.04-.85,0-1.62.14-2.31.27-1.37.8-2.37,1.59-2.98.79-.61,1.77-.8,2.92-.58,1.19.23,2.05.92,2.58,2.08.53,1.15.64,2.58.31,4.29-.19.98-.48,1.97-.87,2.96-.08.22-.24.37-.46.47s-.44.1-.66,0l-.68-.28c-.22-.09-.37-.24-.46-.46s-.1-.42-.02-.63c.38-.96.64-1.8.78-2.52.17-.87.14-1.59-.09-2.15-.23-.56-.61-.89-1.14-.99-.79-.15-1.28.31-1.49,1.39-.19,1-.15,1.96.14,2.89.18.55.12,1.06-.17,1.51l-.51.8c-.12.2-.29.32-.52.36-.23.04-.44,0-.62-.13-1-.7-1.87-1.24-2.59-1.62-.08-.04-.13-.02-.15.06l-.29,1.52c-.04.23-.17.41-.36.54-.2.13-.41.18-.64.14l-.68-.13c-.23-.04-.41-.17-.54-.36-.13-.2-.18-.41-.14-.64l.4-2.06c.02-.08-.01-.13-.09-.17-.29-.1-.51-.17-.66-.22-.22-.07-.39-.22-.51-.44-.12-.22-.15-.44-.09-.66l.25-.96c.07-.23.2-.41.39-.52.2-.11.4-.14.62-.06.06.02.14.05.26.09.12.04.2.07.26.09.07.04.12,0,.14-.08l1.05-5.4Z"/><path class="cls-1" d="M4.45,52c.96-1.83,1.81-3.6,2.53-5.31.09-.21.24-.37.46-.46s.44-.1.65-.01l.64.26c.21.09.37.24.46.46s.1.44.01.65c-.84,2.01-1.72,3.88-2.64,5.6-.1.21-.27.34-.5.41-.23.07-.44.04-.64-.07l-.63-.35c-.2-.11-.33-.29-.4-.52-.06-.23-.04-.45.06-.65ZM9.9,49.86c.59-1.47,1.3-2.41,2.12-2.85s1.84-.41,3.03.07c1.24.5,2.01,1.43,2.31,2.78.3,1.35.05,3.01-.74,4.97-.37.92-.78,1.82-1.24,2.72-.1.21-.27.34-.5.41-.23.07-.44.05-.65-.05l-.64-.34c-.21-.1-.34-.27-.41-.49-.07-.22-.05-.43.06-.64.48-.96.87-1.8,1.16-2.51.39-.97.53-1.81.42-2.5-.11-.69-.44-1.15-.96-1.36-.83-.34-1.47.03-1.9,1.1-.3.75-.37,1.96-.2,3.64.06.56-.06,1.09-.37,1.56l-.51.73c-.12.2-.3.32-.53.38-.23.05-.45.02-.64-.11-.8-.5-1.67-1.02-2.59-1.56-.21-.13-.34-.3-.41-.53-.07-.23-.04-.45.06-.66l.47-.96c.1-.21.27-.34.5-.41.23-.07.44-.05.65.07.15.08.36.2.62.36s.46.27.58.34h.01s.01-.02.01-.02c-.26-1.63-.16-3.01.29-4.14Z"/><path class="cls-1" d="M20.32,32.72c.9-1.15,1.92-1.86,3.06-2.14,1.14-.28,2.12-.09,2.95.55,1.73,1.36,2.08,3.11,1.04,5.27-.1.21-.27.36-.5.44-.23.08-.46.07-.69-.03l-.7-.32c-.2-.1-.35-.25-.43-.47-.08-.21-.08-.43.01-.64.19-.47.26-.86.21-1.16s-.23-.57-.53-.81c-.29-.23-.67-.26-1.12-.11-.46.16-.88.49-1.28.99l-.19.25c-.06.07-.05.13.02.19l1.78,1.4c.87.68,1.34,1.31,1.41,1.86.06.56-.24,1.27-.92,2.14-.68.87-1.51,1.4-2.48,1.59-.97.19-1.85-.03-2.64-.65-.69-.54-1.09-1.29-1.23-2.27-.13-.97.05-2.06.54-3.26.03-.08.01-.14-.06-.2l-1.04-.81c-.06-.05-.12-.04-.18.03l-1.42,1.82c-.14.18-.33.29-.57.32-.24.03-.45-.03-.63-.17l-.43-.33c-.18-.14-.29-.33-.31-.57-.03-.24.03-.45.17-.63l1.42-1.82c.06-.07.05-.13-.02-.19l-.52-.41c-.18-.14-.29-.33-.32-.57-.03-.24.03-.45.17-.63l.61-.78c.14-.18.33-.29.57-.32.24-.03.45.03.63.17l.52.41c.07.06.13.05.19-.02l1.15-1.46c.14-.18.33-.29.57-.32.24-.03.45.03.63.17l.43.33c.18.14.29.33.31.57.03.24-.03.45-.17.63l-1.15,1.46c-.06.07-.05.13.01.18l.76.59c.06.05.12.04.18-.03l.19-.25ZM23.34,27.05c.23.04.41.15.55.33s.19.39.13.62l-.09.5c-.04.23-.16.42-.35.55-.19.13-.41.18-.65.15-.74-.11-1.54-.21-2.41-.31-.23-.03-.42-.13-.57-.31-.15-.18-.21-.39-.18-.62l.07-.48c.03-.23.13-.42.31-.57s.39-.21.62-.19c.79.08,1.64.19,2.57.32ZM22.09,38.11l-1.29-1.01s-.05-.02-.08,0c-.03.01-.05.04-.06.07-.25.84-.15,1.43.3,1.78.19.15.42.21.7.19.28-.02.49-.12.62-.29.12-.15.17-.27.14-.35-.02-.09-.13-.21-.34-.37Z"/><path class="cls-1" d="M30.81,22.5c.15.18.21.38.19.62-.02.24-.12.43-.3.58l-2.18,1.83c-.06.05-.06.11,0,.18l4.04,4.82c.15.18.21.38.19.62-.02.24-.12.43-.3.58l-.7.59c-.18.15-.38.21-.62.19-.24-.02-.43-.12-.58-.3l-7.67-9.15c-.15-.18-.21-.38-.19-.62.02-.24.12-.43.3-.58l3.63-3.05c.18-.15.38-.21.62-.19.24.02.43.12.58.3l3,3.57ZM27.32,21.38l-.26-.31c-.06-.07-.12-.07-.19-.02l-1.24,1.04c-.06.05-.06.11,0,.18l.26.31c.06.07.12.08.18.03l1.24-1.04c.07-.06.07-.12.02-.19ZM28.71,23.04l-.27-.32c-.05-.06-.11-.06-.18,0l-1.24,1.04c-.06.05-.07.11-.01.17l.27.32c.06.07.12.08.18.03l1.24-1.04c.07-.06.07-.12.02-.19ZM32.12,14.2c.18-.15.38-.21.62-.19.24.02.43.12.58.3l6.29,7.51c.33.39.58.7.75.93.17.23.31.47.41.71s.15.44.14.59-.07.33-.2.54c-.13.21-.29.41-.48.59-.19.18-.46.42-.82.72-.34.28-.66.54-.97.78-.19.15-.41.21-.66.19-.25-.02-.45-.12-.62-.29l-.25-.28c-.05-.06-.12-.06-.19,0l-2.07,1.73s-.04.07,0,.11c.09.11.13.23.12.38-.01.15-.07.27-.18.36l-.72.61c-.18.15-.38.21-.62.19-.24-.02-.43-.12-.58-.3l-2.47-2.94c-.15-.18-.21-.38-.19-.62.02-.24.12-.43.3-.58l3.86-3.24c.18-.15.38-.21.62-.19.24.02.43.12.58.3l2.01,2.4c.06.07.12.08.18.03l.08-.07c.22-.19.34-.31.35-.38.01-.07-.06-.2-.23-.4l-2.8-3.34c-.06-.07-.12-.07-.19-.02l-2.29,1.92c-.18.15-.38.21-.62.19-.24-.02-.43-.12-.58-.3l-3-3.57c-.15-.18-.21-.38-.19-.62.02-.24.12-.43.3-.58l3.75-3.14ZM32.32,17.19l-.26-.31c-.06-.07-.12-.07-.19-.02l-1.34,1.13c-.07.06-.07.12-.02.19l.26.31c.06.07.12.07.19.02l1.34-1.13c.07-.06.07-.12.02-.19ZM33.71,18.85l-.27-.32c-.05-.06-.11-.06-.18,0l-1.34,1.13c-.07.06-.08.12-.03.18l.27.32c.06.07.12.07.19.02l1.34-1.13c.07-.06.07-.12.02-.19ZM35.06,25.36l-.85-1.01c-.05-.06-.11-.06-.18,0l-1.41,1.19c-.06.05-.07.11-.01.17l.85,1.01c.06.07.12.08.18.03l1.41-1.19c.07-.06.07-.12.02-.19Z"/><path class="cls-1" d="M46.07,15.21c.23-.03.44.02.63.16.19.14.3.33.32.57.13,1.37.03,2.54-.32,3.52s-.84,1.64-1.49,1.99c-.81.43-1.85.31-3.1-.36-1.26-.68-2.29-1.77-3.1-3.29-.73-1.36-1.27-2.79-1.64-4.31-.06-.24-.03-.47.08-.69.11-.22.29-.38.52-.47l1.02-.41c.2-.09.4-.08.6.03.2.1.33.27.39.48.4,1.51.91,2.85,1.54,4.02.22.41.47.79.73,1.13.27.34.52.6.75.79.24.19.45.32.64.41.19.09.33.1.43.05.14-.08.25-.34.33-.78.08-.44.1-1.04.05-1.79-.01-.23.06-.44.2-.62.15-.18.34-.29.57-.32l.86-.12ZM45.09,8.52c.18-.17.39-.27.63-.29.24-.02.45.05.64.2,2.09,1.72,3.91,3.93,5.46,6.64.12.2.14.41.07.64-.07.23-.21.4-.41.51l-1,.54c-.2.11-.42.13-.65.06-.23-.06-.4-.2-.52-.39-1.35-2.33-2.99-4.35-4.91-6.06-.17-.16-.27-.35-.27-.58,0-.23.07-.42.24-.58l.73-.7Z"/><path class="cls-1" d="M63.28,4.27c.24.05.42.18.56.37.14.19.19.41.15.65l-.08.74c-.03.23-.13.41-.32.55-.19.14-.39.19-.62.14-.49-.1-.93-.21-1.33-.32-.02,0-.04,0-.05.03-.01.03-.02.05-.01.07.06.21.04.41-.06.6-.1.19-.26.31-.47.37l-6.54,1.95c-.21.06-.41.04-.6-.05-.19-.1-.32-.25-.38-.47,0-.02-.02-.03-.04-.04-.02,0-.04,0-.06,0-.1.11-.42.44-.94.99-.16.16-.36.24-.59.22-.23-.01-.42-.11-.57-.28l-.47-.58c-.16-.18-.23-.39-.23-.63,0-.24.1-.44.26-.62,1.2-1.27,2.2-2.63,3.03-4.08.29-.5.7-.83,1.22-.99l1.81-.54c.53-.16,1.05-.1,1.57.16,1.48.76,3.07,1.35,4.77,1.76ZM62.67,7.93c.22-.07.44-.04.65.07.21.11.35.28.42.5l1.42,4.76c.07.22.04.44-.07.65-.11.21-.28.35-.5.42l-1.34.4c-.13.04-.27.02-.4-.05-.13-.07-.22-.17-.26-.31-.01-.05-.05-.06-.09-.05l-5.46,1.63s-.06.05-.05.09c.04.13.02.27-.05.4-.07.13-.17.22-.31.26l-1.34.4c-.22.07-.44.04-.65-.07-.21-.11-.35-.28-.42-.5l-1.42-4.76c-.07-.22-.04-.44.07-.65.11-.21.28-.35.5-.42l9.29-2.77ZM59.32,5.72s.03-.02.04-.03c0-.02,0-.03-.03-.05-.9-.36-1.8-.79-2.69-1.3-.07-.04-.13-.02-.17.05-.47.91-.98,1.76-1.54,2.56-.01.02-.01.04,0,.05.01.01.03.01.05,0l4.34-1.29ZM61.93,12.15l-.44-1.47c-.03-.09-.08-.12-.17-.09l-5.35,1.59c-.09.03-.12.08-.09.17l.44,1.47c.03.09.08.12.17.09l5.35-1.59c.09-.03.12-.08.09-.17Z"/><path class="cls-1" d="M74.62,1.14c1.5-.12,2.6.2,3.31.97.71.77,1.15,2.18,1.32,4.22.14,1.75-.14,3.12-.84,4.1-.7.98-1.72,1.52-3.06,1.63-.6.05-1.22-.01-1.87-.18-.24-.06-.41-.2-.52-.42-.11-.22-.14-.45-.08-.69l.22-.8c.05-.23.18-.4.38-.51.2-.12.42-.15.65-.1.42.08.75.1,1,.08.51-.04.88-.29,1.11-.74.23-.45.31-1.17.23-2.16-.07-.87-.17-1.5-.3-1.9-.13-.4-.3-.65-.52-.77-.22-.12-.55-.16-.99-.12-.38.03-.81.22-1.3.56s-1.11.94-1.88,1.79c-.06.04-.08.11-.07.2l.47,5.77c.02.23-.05.44-.21.62-.16.18-.35.28-.58.3l-.84.07c-.23.02-.44-.05-.62-.21-.18-.16-.28-.35-.3-.58l-.26-3.18s-.01-.03-.03-.04c-.02,0-.04,0-.06.02-.06.09-.17.22-.31.39-.14.18-.25.31-.32.41-.15.18-.34.29-.57.32-.23.03-.44-.02-.62-.17l-.66-.53c-.18-.15-.29-.33-.32-.57-.03-.23.02-.45.17-.64.8-1.06,1.58-2.03,2.34-2.93.05-.06.08-.14.07-.23l-.06-.69c0-.09-.05-.13-.13-.12l-1.72.14c-.23.02-.44-.05-.62-.21-.18-.16-.28-.35-.3-.58l-.04-.54c-.02-.23.05-.44.21-.62.16-.18.35-.28.58-.3l1.72-.14c.08,0,.12-.05.11-.14l-.08-.96c-.02-.23.05-.44.21-.62.16-.18.35-.28.58-.3l.84-.07c.23-.02.44.05.62.21.18.16.28.35.3.58l.16,1.91s.02.03.04.04c.03,0,.05,0,.07,0,1.13-.98,2.26-1.51,3.38-1.6Z"/><path class="cls-1" d="M93.81,3.02c.23.02.42.12.57.3s.21.39.2.62l-.07.69c-.02.24-.12.43-.3.58-.18.15-.39.21-.63.2l-.99-.07c-.09-.01-.14.03-.15.12l-.26,2.17c-.09.77-.33,1.32-.72,1.64s-.93.43-1.64.35c-.55-.07-1.3-.25-2.26-.54-.22-.08-.39-.22-.5-.44-.11-.21-.13-.43-.06-.66l.24-.77c.07-.22.2-.39.41-.5.2-.11.42-.14.64-.08.42.11.74.18.96.21.16.02.26,0,.32-.05.05-.05.09-.2.12-.42l.13-1.12c.01-.09-.02-.14-.1-.15-.27-.02-.65-.06-1.13-.1-.48-.04-.92-.08-1.31-.12-.39-.04-.77-.08-1.13-.12-.08,0-.12.03-.14.12l-.48,4.01c-.05.44-.04.75.05.94.09.19.29.34.59.46.31.11.83.21,1.56.3,1.06.13,2.26.2,3.58.22.23,0,.43.09.59.26s.24.36.23.59l-.02.8c0,.24-.1.44-.27.6s-.38.24-.62.23c-1.41-.03-2.67-.11-3.79-.25-1.39-.17-2.42-.41-3.1-.72-.68-.31-1.13-.76-1.35-1.33s-.27-1.38-.14-2.43l.48-3.98c.01-.09-.02-.14-.1-.15-.13-.02-.33-.04-.59-.06-.26-.03-.46-.05-.59-.06-.23-.03-.41-.14-.56-.32-.14-.19-.2-.4-.17-.62l.08-.69c.03-.23.14-.42.33-.57.19-.15.4-.21.63-.18.13.02.32.04.58.06.26.03.45.05.58.06.08,0,.12-.03.13-.1l.14-1.18c.03-.23.14-.42.32-.56.19-.15.4-.21.63-.18l.98.12c.23.03.42.14.56.33.15.19.21.4.18.63l-.14,1.15c0,.08.02.12.1.13.36.04.73.08,1.13.12.39.04.83.08,1.31.12.48.04.86.08,1.13.1.08,0,.12-.03.14-.12l.16-1.34c.03-.23.14-.42.33-.56.19-.15.4-.21.63-.18l.91.11c.23.03.42.14.56.33.15.19.21.4.18.63l-.15,1.27c0,.08.03.12.12.14.11.01.26.03.46.04.2.01.35.02.46.03Z"/><path class="cls-1" d="M100.37,2.96c.2.09.33.25.4.47.06.22.04.43-.08.62-.83,1.39-1.54,2.96-2.13,4.73-.59,1.76-.98,3.45-1.17,5.05-.03.23-.13.42-.31.55-.18.13-.38.17-.6.12l-.96-.2c-.24-.05-.43-.17-.57-.37-.15-.2-.2-.42-.17-.66.2-1.75.61-3.54,1.22-5.37.62-1.83,1.37-3.5,2.27-5.01.12-.21.3-.35.54-.42s.46-.05.68.05l.89.42ZM108.93,7.69c.22.07.38.22.49.43.11.22.12.43.05.65l-.22.65c-.07.22-.22.38-.43.49s-.43.12-.65.05l-1.19-.4c-.09-.03-.14,0-.17.08l-1.06,3.14c-.02.07-.01.14.03.23.25.45.61,1.18,1.07,2.17.11.22.12.44.04.66-.08.23-.23.39-.45.5l-.67.33c-.21.1-.43.11-.64.03-.22-.08-.37-.22-.47-.44-.05-.1-.12-.25-.2-.45-.04-.08-.09-.08-.15-.02-.85.76-1.97.9-3.37.43-1.12-.38-1.9-.93-2.35-1.67-.45-.74-.51-1.57-.2-2.51.31-.92.86-1.54,1.66-1.87.8-.33,1.76-.3,2.9.08.21.07.4.15.57.24.08.05.13.03.16-.06l.56-1.66c.03-.09,0-.14-.07-.17l-2.77-.93c-.22-.07-.38-.22-.49-.43-.11-.22-.12-.43-.05-.65l.22-.65c.07-.22.22-.38.43-.49s.43-.12.65-.05l2.77.93c.08.03.13,0,.16-.09l.35-1.05c.07-.22.22-.38.43-.49.22-.11.43-.12.65-.05l.94.32c.22.07.38.22.49.43.11.22.12.43.05.65l-.35,1.05c-.03.09,0,.14.08.17l1.19.4ZM102.71,13.35l.08-.23c.03-.09.01-.17-.05-.22-.18-.18-.41-.31-.69-.41-.66-.22-1.07-.1-1.23.38-.16.47.09.82.76,1.05.3.1.54.11.72.02.18-.09.32-.28.42-.59Z"/><path class="cls-1" d="M117.57,22.71c-.07.22-.22.39-.43.5-.22.11-.43.13-.66.06-1.69-.55-3.15-1.18-4.37-1.89-1.59-.92-2.68-1.91-3.25-2.97-.58-1.06-.6-2.04-.08-2.94.27-.46.65-.85,1.16-1.17.51-.32,1.24-.62,2.19-.89.23-.06.46-.04.68.07.22.11.38.27.48.5l.37.8c.09.2.09.4,0,.6s-.25.33-.46.39c-.98.29-1.56.59-1.74.9s-.12.68.19,1.12c.31.43.89.9,1.74,1.39,1.03.6,2.33,1.14,3.91,1.64.22.07.39.21.5.42.11.21.12.41.05.62l-.27.85ZM114.97,9.18l6.44,3.73c.2.12.33.29.39.52.06.23.04.45-.08.65l-.38.66c-.12.2-.29.33-.52.39-.23.06-.45.04-.65-.08l-6.44-3.73c-.2-.12-.33-.29-.39-.52-.06-.23-.04-.45.08-.65l.38-.66c.12-.2.29-.33.52-.39s.45-.04.65.08Z"/><path class="cls-1" d="M133.84,23.54c.17.15.27.35.29.58.02.24-.05.45-.2.62l-.45.52c-.15.17-.35.27-.59.29-.24.02-.45-.05-.62-.2l-4.55-3.93c-.07-.06-.14-.06-.21,0-.47.32-.86.57-1.17.75l-.02.02.02.02c.76.39,1.4.82,1.93,1.27,1.06.92,1.66,1.87,1.79,2.86.14.99-.18,1.93-.95,2.82-.79.92-1.82,1.32-3.09,1.21s-2.56-.73-3.87-1.87c-.76-.65-1.47-1.4-2.14-2.23-.15-.18-.21-.39-.18-.63.03-.24.14-.43.33-.57l.58-.45c.19-.14.4-.2.63-.17.23.03.41.13.55.3.64.8,1.24,1.45,1.8,1.93.67.58,1.31.91,1.91.99.6.08,1.07-.08,1.43-.49.52-.6.37-1.27-.46-1.99-.77-.67-1.63-1.1-2.57-1.31-.57-.12-.98-.42-1.22-.9l-.44-.84c-.11-.2-.13-.42-.06-.63.08-.22.22-.38.42-.48,1.11-.52,2.01-1,2.69-1.44.07-.06.08-.11.02-.16l-1.17-1.01c-.17-.15-.27-.35-.29-.59-.02-.24.05-.45.2-.62l.45-.52c.15-.17.35-.27.59-.29.24-.02.45.05.62.2l1.59,1.37c.06.05.12.05.19,0,.23-.2.4-.35.52-.46.17-.15.38-.23.63-.23.25,0,.45.09.61.25l.71.69c.17.17.25.37.26.6,0,.23-.08.42-.26.57-.05.04-.12.1-.21.18s-.16.14-.2.18c-.07.05-.07.1,0,.16l4.16,3.6Z"/><path class="cls-1" d="M138.4,33.98c.98,1.24,1.45,2.32,1.42,3.26-.03.93-.56,1.8-1.57,2.6-1.05.83-2.24,1.04-3.56.62-1.32-.41-2.64-1.45-3.95-3.1-.61-.78-1.2-1.58-1.75-2.43-.13-.19-.16-.41-.11-.64s.17-.41.37-.54l.61-.39c.19-.13.4-.17.63-.11.23.05.4.17.53.37.59.9,1.13,1.64,1.61,2.25.65.82,1.31,1.36,1.96,1.6.66.24,1.21.19,1.66-.16.71-.56.7-1.29-.01-2.19-.5-.64-1.52-1.3-3.06-1.98-.52-.23-.91-.59-1.17-1.1l-.39-.8c-.11-.21-.13-.42-.06-.65.07-.23.21-.4.41-.51.83-.45,1.71-.94,2.64-1.47.21-.12.43-.15.66-.09s.41.18.54.38l.6.88c.13.19.16.41.11.64-.05.23-.18.41-.38.53-.15.09-.35.21-.62.37-.27.15-.46.27-.58.34h-.01s.02.03.02.03c1.55.59,2.7,1.35,3.45,2.3ZM139.25,28.18c1.11,1.75,2.23,3.35,3.36,4.82.14.18.2.39.17.63-.03.24-.13.43-.31.57l-.54.43c-.18.14-.39.2-.63.17-.24-.03-.43-.13-.57-.31-1.33-1.73-2.51-3.42-3.55-5.07-.13-.19-.16-.4-.11-.63.06-.23.18-.4.38-.52l.62-.38c.2-.12.41-.15.65-.09.23.06.41.19.54.38Z"/><path class="cls-1" d="M148.13,51.51c.55,1.35.67,2.59.34,3.72-.32,1.13-.97,1.89-1.94,2.28-2.04.83-3.73.26-5.09-1.71-.13-.19-.18-.41-.13-.65s.17-.43.37-.58l.63-.45c.18-.13.39-.18.62-.14.23.04.41.15.55.33.31.4.62.65.91.76.29.1.61.08.96-.06.34-.14.56-.45.65-.92.09-.48.02-1.01-.22-1.6l-.12-.29c-.03-.08-.09-.11-.18-.07l-2.1.86c-1.03.42-1.8.52-2.32.3-.52-.22-.98-.84-1.4-1.86-.42-1.03-.47-2.01-.15-2.94.32-.94.94-1.59,1.87-1.97.81-.33,1.66-.31,2.58.06.91.37,1.77,1.06,2.56,2.09.05.07.12.08.2.05l1.22-.5c.07-.03.09-.09.06-.17l-.87-2.14c-.09-.21-.08-.43,0-.65.09-.22.25-.38.46-.46l.5-.2c.21-.09.43-.08.65,0,.22.09.38.25.46.46l.87,2.14c.03.08.09.11.18.07l.61-.25c.21-.09.43-.08.65,0,.22.09.38.25.46.46l.37.92c.09.21.08.43,0,.65-.09.22-.25.38-.46.46l-.61.25c-.08.03-.11.09-.07.18l.7,1.72c.09.21.08.43,0,.65-.09.22-.25.38-.46.46l-.5.2c-.21.09-.43.08-.65,0-.22-.09-.38-.25-.46-.46l-.7-1.72c-.03-.08-.09-.11-.16-.08l-.89.36c-.07.03-.09.09-.06.17l.12.29ZM142.57,50.38l1.51-.62s.04-.03.05-.07c0-.03,0-.06-.03-.09-.6-.63-1.17-.84-1.7-.62-.22.09-.39.26-.51.52-.12.25-.14.48-.05.69.07.18.15.28.24.3.09.02.25-.01.49-.11ZM151.55,56.95c-.14.18-.33.28-.56.31-.23.03-.43-.03-.6-.19l-.39-.33c-.18-.15-.28-.35-.3-.58-.02-.23.04-.45.19-.64.46-.59.95-1.24,1.46-1.94.14-.19.33-.3.56-.34.23-.04.44,0,.63.15l.38.3c.19.14.3.32.34.55.04.23,0,.44-.15.63-.46.64-.98,1.33-1.55,2.08Z"/><path class="cls-1" d="M151.78,65.69c-.23.04-.44,0-.64-.15-.2-.14-.32-.32-.36-.55l-.5-2.81c-.01-.08-.07-.11-.15-.09l-6.19,1.1c-.23.04-.44,0-.64-.15-.2-.14-.32-.32-.36-.55l-.16-.9c-.04-.23,0-.44.15-.64s.32-.32.55-.36l11.75-2.1c.23-.04.44,0,.64.15.2.14.32.32.36.55l.83,4.67c.04.23,0,.44-.15.64-.14.2-.32.32-.55.36l-4.59.82ZM158.33,70.97c.04.23,0,.44-.15.64-.14.2-.32.32-.55.36l-9.64,1.72c-.5.09-.9.15-1.19.19s-.56.04-.82,0c-.26-.04-.45-.09-.58-.17-.13-.08-.25-.23-.37-.44s-.21-.45-.27-.71c-.06-.25-.13-.61-.21-1.07-.08-.43-.14-.84-.19-1.23-.03-.24.02-.46.16-.66.14-.2.33-.34.56-.4l.37-.08c.08-.01.11-.07.09-.17l-.47-2.66s-.04-.07-.09-.06c-.14.02-.27,0-.39-.09-.12-.08-.2-.2-.22-.33l-.17-.93c-.04-.23,0-.44.15-.64s.32-.32.55-.36l3.78-.67c.23-.04.44,0,.64.15s.32.32.36.55l.88,4.96c.04.23,0,.44-.15.64s-.32.32-.55.36l-3.09.55c-.09.02-.13.06-.11.14l.02.1c.05.29.1.45.16.5.05.05.21.05.46,0l4.3-.77c.09-.02.12-.07.11-.16l-.52-2.94c-.04-.23,0-.44.15-.64s.32-.32.55-.36l4.59-.82c.23-.04.44,0,.64.15.2.14.32.32.36.55l.86,4.81ZM147.19,67.96l1.3-.23c.08-.01.11-.07.09-.15l-.32-1.82c-.01-.08-.06-.11-.14-.1l-1.3.23c-.09.02-.13.06-.11.14l.32,1.82c.02.09.07.12.16.11ZM152.36,63.61l.41-.07c.08-.01.11-.07.09-.15l-.28-1.59c-.01-.08-.06-.11-.14-.1l-.41.07c-.09.02-.13.06-.11.14l.28,1.6c.02.09.07.12.16.11ZM153.5,70.04l.41-.07c.08-.01.11-.06.09-.15l-.31-1.73c-.02-.09-.06-.13-.14-.11l-.41.07c-.09.02-.12.07-.11.16l.31,1.73c.02.09.07.12.16.11ZM154.5,63.23l.4-.07c.09-.02.12-.07.11-.16l-.28-1.6c-.01-.08-.07-.11-.15-.09l-.4.07c-.09.02-.13.06-.11.14l.28,1.59c.02.09.07.12.16.11ZM155.64,69.65l.4-.07c.09-.02.12-.07.11-.16l-.31-1.73c-.02-.09-.07-.12-.16-.11l-.4.07c-.09.02-.13.07-.11.16l.31,1.73c.02.09.07.12.16.11Z"/><path class="cls-1" d="M150.5,82.59c-.09.22-.24.37-.46.47s-.44.09-.65,0c-1.25-.57-2.22-1.24-2.9-2.03-.68-.79-1.01-1.55-.98-2.29.03-.92.65-1.76,1.86-2.51,1.21-.76,2.68-1.11,4.4-1.06,1.54.04,3.06.28,4.56.72.24.07.42.21.56.41.13.21.18.44.15.69l-.15,1.09c-.03.22-.13.39-.32.51-.19.12-.39.15-.61.09-1.51-.4-2.93-.62-4.26-.66-.47-.01-.92.01-1.35.07-.43.06-.78.15-1.06.26-.28.11-.5.23-.67.35-.17.12-.25.24-.26.35,0,.16.17.39.51.68s.86.6,1.53.93c.21.11.35.27.44.48.08.22.08.44,0,.65l-.32.8ZM156.8,85.07c.06.24.04.47-.06.69-.11.22-.27.37-.49.45-2.53.96-5.35,1.44-8.48,1.44-.23,0-.43-.08-.59-.26s-.24-.38-.24-.61l.03-1.14c0-.23.09-.43.26-.59s.37-.25.6-.25c2.69-.01,5.26-.43,7.7-1.25.22-.07.43-.06.64.05.2.11.33.27.38.49l.24.98Z"/><path class="cls-1" d="M148.59,100.61c-.05.22-.18.4-.38.53-.2.13-.42.16-.64.11l-4.84-1.13c-.22-.05-.4-.18-.53-.38s-.16-.42-.11-.64l.32-1.36c.03-.14.11-.24.24-.32.13-.08.26-.1.39-.07.05.01.08,0,.09-.06l1.29-5.55s0-.08-.06-.09c-.14-.03-.24-.11-.32-.24-.08-.13-.1-.26-.07-.39l.32-1.36c.05-.22.18-.4.38-.53.2-.13.42-.16.64-.11l4.83,1.13c.22.05.4.18.53.38s.16.42.11.64l-2.2,9.44ZM145.29,97.87l1.49.35c.09.02.14-.01.16-.1l1.27-5.43c.02-.09-.01-.14-.1-.16l-1.49-.35c-.09-.02-.14.01-.16.1l-1.27,5.43c-.02.09.01.14.1.16ZM151.47,102.95c-.16.18-.36.28-.6.3-.24.02-.45-.04-.64-.19l-.61-.43c-.18-.14-.29-.32-.32-.55-.03-.23.03-.43.19-.6.33-.37.65-.71.94-1,.01-.02.01-.04,0-.06-.02-.02-.03-.04-.05-.04-.21-.05-.38-.17-.49-.35-.11-.18-.14-.38-.09-.59l1.55-6.65c.05-.21.17-.38.35-.5.18-.12.38-.15.59-.1.02,0,.04,0,.06-.02s.03-.04.02-.06c-.05-.15-.18-.58-.39-1.31-.06-.22-.03-.43.1-.62.13-.2.3-.31.53-.35l.74-.12c.24-.05.46,0,.66.12.2.12.34.3.41.53.51,1.67,1.19,3.22,2.04,4.65.29.5.38,1.02.25,1.55l-.43,1.84c-.12.54-.43.96-.92,1.28-1.39.91-2.69,2-3.89,3.27ZM152.17,98.8s0,.04.01.05.03.01.05,0c.76-.6,1.58-1.17,2.46-1.69.07-.04.09-.1.04-.18-.56-.86-1.04-1.73-1.46-2.6-.01-.02-.03-.03-.05-.03-.02,0-.03.02-.03.04l-1.03,4.41Z"/><path class="cls-1" d="M148.56,114.34c-.64,1.36-1.47,2.16-2.49,2.4-1.02.24-2.46-.08-4.32-.95-1.59-.75-2.64-1.67-3.14-2.77s-.47-2.25.1-3.46c.25-.54.62-1.05,1.08-1.53.17-.17.38-.26.62-.25.24,0,.46.1.64.28l.59.59c.17.16.25.35.26.58s-.08.44-.24.62c-.27.32-.46.6-.57.83-.22.46-.19.91.09,1.33.27.43.86.85,1.76,1.27.79.37,1.39.6,1.79.68.41.09.72.06.93-.07s.41-.4.6-.8c.16-.34.21-.81.16-1.41s-.26-1.44-.62-2.52c-.01-.07-.06-.13-.14-.16l-5.24-2.46c-.21-.1-.35-.26-.44-.49-.08-.23-.07-.44.02-.65l.36-.76c.1-.21.26-.35.49-.44.23-.08.44-.07.65.02l2.89,1.36s.04,0,.05,0c.02-.01.02-.03.01-.06-.04-.1-.11-.25-.19-.46-.08-.21-.15-.37-.2-.48-.09-.22-.09-.44,0-.65.09-.22.24-.37.45-.46l.79-.31c.22-.09.44-.09.65,0,.22.09.38.24.47.46.52,1.22.98,2.38,1.38,3.48.03.08.08.14.17.18l.62.29c.08.04.14.02.17-.05l.73-1.56c.1-.21.26-.35.49-.44.23-.08.44-.07.65.02l.49.23c.21.1.35.26.43.49.08.23.07.44-.02.65l-.73,1.56c-.03.07-.01.13.07.17l.87.41c.21.1.35.26.44.49.08.23.07.44-.02.65l-.36.76c-.1.21-.26.35-.49.44-.23.08-.44.07-.65-.02l-1.74-.81s-.04,0-.06.02c-.02.02-.03.04-.03.06.28,1.47.19,2.71-.29,3.72Z"/><path class="cls-1" d="M137.38,130.04c-.13.19-.31.3-.55.34-.23.04-.45,0-.64-.14l-.56-.4c-.2-.14-.32-.32-.36-.55s0-.44.14-.64l.56-.82c.05-.07.04-.14-.03-.19l-1.75-1.31c-.62-.47-.98-.95-1.06-1.44-.08-.49.09-1.02.51-1.59.33-.44.86-1,1.6-1.69.18-.15.39-.23.63-.21s.44.1.6.27l.55.6c.16.17.24.37.23.6,0,.23-.09.43-.25.6-.31.31-.52.55-.66.73-.1.13-.13.23-.11.3.02.07.12.18.31.31l.9.67c.07.05.13.05.18-.02.15-.22.37-.53.65-.93.28-.4.53-.76.76-1.08s.45-.63.67-.92c.05-.06.04-.12-.04-.18l-3.23-2.42c-.35-.26-.63-.41-.84-.42s-.44.08-.69.29c-.25.21-.6.61-1.04,1.21-.64.86-1.3,1.86-1.98,3-.12.2-.29.32-.52.38-.22.06-.43.02-.63-.1l-.68-.42c-.2-.13-.33-.31-.39-.53-.05-.23-.02-.44.11-.65.73-1.21,1.43-2.26,2.1-3.17.84-1.12,1.56-1.9,2.17-2.33.61-.43,1.22-.6,1.82-.51.61.09,1.33.45,2.18,1.09l3.21,2.4c.07.05.13.05.18-.02.08-.1.19-.26.35-.48.15-.22.27-.38.35-.48.14-.18.32-.29.56-.32.23-.03.44.02.63.16l.55.41c.18.14.29.33.33.56.03.24-.02.45-.15.63-.08.1-.19.26-.34.47-.15.21-.27.37-.34.47-.05.06-.04.12.02.17l.95.71c.18.14.29.33.33.56.03.24-.02.45-.16.63l-.59.79c-.14.18-.33.29-.56.33-.24.03-.45-.02-.63-.16l-.93-.69c-.06-.05-.12-.04-.17.02-.22.29-.44.59-.67.92-.23.32-.48.68-.76,1.08-.28.4-.49.71-.65.93-.05.06-.04.12.04.18l1.08.81c.18.14.29.33.33.56.03.24-.02.45-.15.63l-.55.73c-.14.18-.33.29-.56.33-.24.03-.45-.02-.63-.15l-1.02-.76c-.06-.05-.12-.04-.18.04-.07.09-.15.21-.27.38-.11.17-.2.3-.25.39Z"/><path class="cls-1" d="M125.82,140.85c-.17.15-.38.22-.62.21-.24-.01-.44-.11-.59-.28l-.46-.52c-.15-.17-.22-.38-.21-.62s.11-.44.28-.59l.94-.84c.07-.06.07-.12.01-.19l-2.2-2.48c-.05-.05-.12-.08-.22-.09-.52,0-1.32-.06-2.41-.14-.24-.01-.44-.11-.59-.3-.16-.18-.23-.39-.21-.63l.04-.74c.02-.23.12-.42.29-.57s.38-.21.61-.19c.11,0,.27.02.49.05.08,0,.12-.04.09-.12-.24-1.11.2-2.16,1.3-3.14.88-.78,1.75-1.19,2.62-1.21.86-.02,1.62.34,2.28,1.08.64.73.91,1.51.8,2.37-.11.85-.61,1.68-1.51,2.48-.16.15-.33.27-.49.38-.08.04-.09.1-.03.17l1.17,1.31c.06.07.12.07.18.02l2.19-1.94c.17-.15.38-.22.62-.21.24.01.44.11.59.28l.46.52c.15.17.22.38.21.62s-.11.44-.28.59l-2.19,1.94c-.06.05-.06.11,0,.18l.74.83c.15.17.22.38.21.62-.01.24-.11.44-.28.59l-.74.66c-.17.15-.38.22-.62.21-.24-.01-.44-.11-.59-.28l-.74-.83c-.06-.07-.12-.07-.19-.01l-.94.84ZM124,132.64l.16.18c.07.07.14.1.22.07.25-.07.48-.2.69-.39.52-.46.62-.88.29-1.26-.33-.37-.76-.33-1.28.14-.24.21-.36.42-.38.62-.01.2.09.42.3.66ZM134.17,135.76c-.18.13-.38.17-.6.11-.22-.06-.39-.18-.5-.38-.79-1.41-1.81-2.81-3.04-4.2-1.24-1.39-2.5-2.56-3.81-3.52-.19-.14-.3-.32-.32-.55-.03-.22.04-.42.19-.58l.65-.74c.16-.18.36-.29.6-.31.24-.03.46.03.66.18,1.42,1.04,2.77,2.28,4.05,3.73,1.28,1.44,2.35,2.93,3.22,4.46.12.21.15.44.1.68-.06.24-.18.42-.38.56l-.81.56Z"/><path class="cls-1" d="M108.49,140.92c-.16-.17-.23-.38-.23-.62,0-.24.1-.44.27-.6,1.32-1.2,2.58-2.15,3.8-2.86,1.59-.93,2.99-1.38,4.19-1.35,1.21.02,2.07.49,2.6,1.38.27.46.41.99.44,1.59.03.6-.08,1.39-.32,2.35-.06.23-.19.42-.4.55-.2.14-.43.19-.67.17l-.88-.08c-.22-.02-.39-.12-.52-.31-.12-.18-.16-.38-.11-.59.23-.99.26-1.64.08-1.95-.18-.31-.54-.44-1.07-.38-.53.05-1.22.33-2.06.82-1.03.6-2.15,1.46-3.36,2.58-.17.16-.38.23-.61.22s-.42-.1-.57-.27l-.61-.65ZM121.53,145.36l-6.43,3.75c-.2.12-.41.14-.65.08-.23-.06-.41-.19-.52-.39l-.39-.66c-.12-.2-.14-.41-.08-.65.06-.23.19-.41.39-.52l6.43-3.75c.2-.12.41-.14.65-.08s.41.19.52.39l.39.66c.12.2.14.41.08.65-.06.23-.19.41-.39.52Z"/><path class="cls-1" d="M99.7,154.63c-.22.08-.43.06-.65-.04-.22-.1-.36-.26-.44-.48l-.23-.65c-.08-.22-.06-.43.04-.65s.26-.36.48-.44l5.67-2c.08-.03.12-.09.11-.18-.04-.57-.07-1.03-.07-1.39v-.03s-.04,0-.04,0c-.72.46-1.4.81-2.07,1.04-1.32.46-2.44.51-3.37.14-.93-.37-1.59-1.12-1.98-2.23-.4-1.14-.24-2.23.48-3.28.72-1.04,1.91-1.86,3.55-2.43.94-.33,1.94-.58,3-.75.23-.04.44.01.64.16s.31.33.33.57l.1.73c.03.23-.02.44-.16.63s-.31.3-.54.33c-1.02.16-1.87.36-2.57.6-.84.3-1.44.68-1.81,1.16-.37.48-.46.97-.28,1.48.27.75.92.95,1.95.58.96-.34,1.77-.87,2.42-1.58.39-.43.85-.64,1.39-.62l.95.03c.23,0,.43.09.58.27.15.17.22.38.2.6-.1,1.22-.13,2.24-.09,3.05.01.09.05.12.13.1l1.46-.51c.22-.08.43-.06.65.04.22.1.36.26.44.48l.23.65c.08.22.06.43-.04.65-.1.22-.26.36-.48.44l-1.98.7c-.08.03-.11.08-.1.16.06.3.11.52.14.68.05.23,0,.45-.12.66-.13.21-.3.35-.52.41l-.95.27c-.23.06-.45.04-.65-.07-.2-.11-.32-.28-.37-.51-.01-.06-.03-.15-.05-.27-.03-.12-.04-.21-.05-.27,0-.08-.05-.11-.14-.08l-5.19,1.83Z"/><path class="cls-1" d="M88.37,153.39c-1.56.23-2.74.1-3.53-.39-.79-.49-1.28-1.38-1.47-2.66-.2-1.33.21-2.46,1.23-3.4,1.02-.94,2.57-1.56,4.66-1.87.98-.15,1.97-.25,2.97-.3.23-.01.43.06.61.22.18.16.27.36.28.59l.03.72c.01.23-.06.43-.21.6s-.35.26-.58.28c-1.07.07-1.99.16-2.75.27-1.04.15-1.83.46-2.37.9-.54.45-.77.96-.68,1.52.13.89.77,1.25,1.9,1.08.8-.12,1.88-.67,3.24-1.66.46-.34.97-.5,1.54-.47l.89.07c.23,0,.43.1.59.27.16.17.24.38.23.61-.02.94-.03,1.95-.04,3.02,0,.24-.09.45-.25.62s-.36.26-.6.28l-1.06.08c-.23.01-.43-.06-.61-.22-.18-.16-.27-.36-.27-.59,0-.17,0-.41,0-.72,0-.31,0-.53,0-.67h0s-.03-.01-.03-.01c-1.28,1.05-2.52,1.66-3.72,1.84ZM92.97,157.01c-2.07.09-4.02.26-5.85.5-.23.03-.44-.02-.63-.16-.19-.14-.31-.33-.34-.56l-.1-.68c-.03-.23.02-.44.16-.63.14-.19.33-.31.56-.34,2.16-.29,4.22-.47,6.17-.55.23-.01.43.06.6.22s.26.36.26.59l.02.73c0,.23-.08.43-.24.6-.17.17-.37.26-.6.28Z"/></g></svg>