<?xml version="1.0" encoding="UTF-8"?><svg id="_レイヤー_2" xmlns="http://www.w3.org/2000/svg" viewBox="0 0 182.57 182.55"><defs><style>.cls-1{fill:#9dc938;font-family:Montserrat-Bold, Montserrat;font-size:16.5px;font-weight:700;}</style></defs><g id="_レイヤー_1-2"><text class="cls-1" transform="translate(168.68 91.12) rotate(93.15)"><tspan x="0" y="0">J</tspan></text><text class="cls-1" transform="translate(168.38 100.01) rotate(101.56)"><tspan x="0" y="0">O</tspan></text><text class="cls-1" transform="translate(165.31 113.62) rotate(108.81)"><tspan x="0" y="0">I</tspan></text><text class="cls-1" transform="translate(163.78 118.86) rotate(115.81)"><tspan x="0" y="0">N</tspan></text><text class="cls-1" transform="translate(158.02 130.78) rotate(125.61)"><tspan x="0" y="0">N</tspan></text><text class="cls-1" transform="translate(150.33 141.57) rotate(135.58)"><tspan x="0" y="0">O</tspan></text><text class="cls-1" transform="translate(140.69 151.44) rotate(147.64)"><tspan x="0" y="0">W</tspan></text><text class="cls-1" transform="translate(124.25 161.2) rotate(156.46)"><tspan x="0" y="0"> </tspan></text><text class="cls-1" transform="translate(119.82 163.12) rotate(160.07)"><tspan x="0" y="0"> </tspan></text><text class="cls-1" transform="translate(115.34 164.84) rotate(165.24)"><tspan x="0" y="0">J</tspan></text><text class="cls-1" transform="translate(106.77 167.29) rotate(173.7)"><tspan x="0" y="0">O</tspan></text><text class="cls-1" transform="translate(92.89 168.56) rotate(-179.07)"><tspan x="0" y="0">I</tspan></text><text class="cls-1" transform="translate(87.41 168.72) rotate(-172.28)"><tspan x="0" y="0">N</tspan></text><text class="cls-1" transform="translate(74.29 166.95) rotate(-162.43)"><tspan x="0" y="0">N</tspan></text><text class="cls-1" transform="translate(61.65 162.98) rotate(-152.36)"><tspan x="0" y="0">O</tspan></text><text class="cls-1" transform="translate(49.31 156.85) rotate(-140.28)"><tspan x="0" y="0">W</tspan></text><text class="cls-1" transform="translate(34.95 144.2) rotate(-131.52)"><tspan x="0" y="0"> </tspan></text><text class="cls-1" transform="translate(31.75 140.58) rotate(-127.95)"><tspan x="0" y="0"> </tspan></text><text class="cls-1" transform="translate(28.73 136.85) rotate(-122.84)"><tspan x="0" y="0">J</tspan></text><text class="cls-1" transform="translate(23.73 129.45) rotate(-114.37)"><tspan x="0" y="0">O</tspan></text><text class="cls-1" transform="translate(18.23 116.65) rotate(-107.14)"><tspan x="0" y="0">I</tspan></text><text class="cls-1" transform="translate(16.39 111.53) rotate(-100.15)"><tspan x="0" y="0">N</tspan></text><text class="cls-1" transform="translate(14.12 98.45) rotate(-90.93)"><tspan x="0" y="0">N</tspan></text><text class="cls-1" transform="translate(13.93 85.22) rotate(-80.46)"><tspan x="0" y="0">O</tspan></text><text class="cls-1" transform="translate(15.91 71.59) rotate(-68.28)"><tspan x="0" y="0">W</tspan></text><text class="cls-1" transform="translate(23.5 54.05) rotate(-59.45)"><tspan x="0" y="0"> </tspan></text><text class="cls-1" transform="translate(25.98 49.86) rotate(-55.85)"><tspan x="0" y="0"> </tspan></text><text class="cls-1" transform="translate(28.59 45.85) rotate(-50.75)"><tspan x="0" y="0">J</tspan></text><text class="cls-1" transform="translate(34.09 38.83) rotate(-42.35)"><tspan x="0" y="0">O</tspan></text><text class="cls-1" transform="translate(44.57 29.63) rotate(-35.2)"><tspan x="0" y="0">I</tspan></text><text class="cls-1" transform="translate(48.88 26.3) rotate(-28.25)"><tspan x="0" y="0">N</tspan></text><text class="cls-1" transform="translate(60.56 20.02) rotate(-18.39)"><tspan x="0" y="0">N</tspan></text><text class="cls-1" transform="translate(73.1 15.81) rotate(-8.33)"><tspan x="0" y="0">O</tspan></text><text class="cls-1" transform="translate(86.73 13.53) rotate(3.67)"><tspan x="0" y="0">W</tspan></text><text class="cls-1" transform="translate(105.75 15.3) rotate(12.46)"><tspan x="0" y="0"> </tspan></text><text class="cls-1" transform="translate(110.48 16.35) rotate(16.08)"><tspan x="0" y="0"> </tspan></text><text class="cls-1" transform="translate(115.12 17.6) rotate(21.26)"><tspan x="0" y="0">J</tspan></text><text class="cls-1" transform="translate(123.49 20.65) rotate(29.73)"><tspan x="0" y="0">O</tspan></text><text class="cls-1" transform="translate(135.46 27.8) rotate(36.9)"><tspan x="0" y="0">I</tspan></text><text class="cls-1" transform="translate(139.97 30.89) rotate(43.83)"><tspan x="0" y="0">N</tspan></text><text class="cls-1" transform="translate(149.53 40.06) rotate(53.57)"><tspan x="0" y="0">N</tspan></text><text class="cls-1" transform="translate(157.42 50.68) rotate(63.58)"><tspan x="0" y="0">O</tspan></text><text class="cls-1" transform="translate(163.83 62.91) rotate(75.77)"><tspan x="0" y="0">W</tspan></text></g></svg>