<?xml version="1.0" encoding="UTF-8"?><svg id="_レイヤー_2" xmlns="http://www.w3.org/2000/svg" width="177.46" height="177.7" viewBox="0 0 177.46 177.7"><g id="_レイヤー_1-2"><path d="M69.71,165.63c-.16-.17-.25-.36-.25-.59,0-.23.07-.42.23-.58l.7-.68c.17-.17.37-.26.61-.27.24,0,.45.08.62.24.78.76,1.44,1.68,2,2.78s.98,2.29,1.26,3.58c0,.02.02.03.05.04.02,0,.04,0,.06-.02.81-1.08,1.74-2.04,2.8-2.88,1.06-.84,2.18-1.51,3.36-2,.23-.09.45-.09.68,0,.23.09.39.25.49.46l.44.87c.1.21.11.41.03.62-.08.21-.22.35-.42.44-1.92.84-3.47,1.88-4.65,3.13s-1.9,2.58-2.16,3.98c-.01.08.03.12.11.14l2.84.46c.22.04.41.15.54.34.14.19.19.4.15.62l-.11.67c-.04.22-.15.41-.34.54-.19.14-.4.19-.62.15l-4.91-.8c-.22-.04-.41-.15-.54-.34-.14-.19-.19-.4-.15-.62l.05-.34c.35-2.12.28-3.99-.19-5.59-.47-1.6-1.36-3.06-2.67-4.37Z" style="fill:#9dc938;"/><path d="M53.8,167.88c-.16-.17-.24-.37-.24-.61s.08-.44.25-.61l.49-.55c.16-.18.35-.26.58-.27.23,0,.43.08.59.25.39.4.74.79,1.03,1.17.02.02.04.02.07,0,.03-.01.05-.03.05-.04.08-.21.22-.37.43-.47.21-.1.42-.11.63-.04l6.25,2.21c.21.08.37.22.47.42.1.21.11.42.04.63,0,.03,0,.05.01.08s.04.03.07.02c.52-.1,1.03-.18,1.53-.24.23-.03.44.02.62.17s.27.34.28.57l.04.74c.02.24-.04.45-.19.63-.15.18-.34.29-.57.32-1.84.29-3.5.77-4.98,1.44-.52.23-1.04.26-1.55.08l-1.76-.62c-.51-.18-.9-.53-1.16-1.04-.73-1.45-1.72-2.87-2.97-4.25ZM55.71,165.24c-.21-.08-.37-.22-.47-.43s-.12-.43-.04-.64l.18-.5c.08-.21.22-.37.43-.47s.43-.12.64-.04l.63.22c.08.03.12,0,.11-.09-.1-1.11-.18-2.29-.25-3.53-.01-.23.06-.42.21-.58s.35-.24.57-.23l.88.03c.24.01.44.1.61.28.17.18.26.38.27.61,0,.03,0,.09,0,.17,0,.08,0,.15.01.19,0,.09.04.14.12.15,2.83.68,5.62,1.46,8.4,2.32.22.07.38.21.49.42.11.21.13.43.08.65l-.15.51c-.06.22-.19.39-.39.5-.2.11-.41.14-.63.07l-1.1-.34c-.07-.03-.15-.01-.22.05-.39.34-.89.79-1.48,1.35-.06.06-.05.11.03.14l2.5.88c.21.08.37.22.47.43s.12.43.04.64l-.18.5c-.08.21-.22.37-.43.47-.21.1-.43.12-.64.04l-10.69-3.78ZM57.83,163.58s0,.03,0,.05l3.8,1.34c.08.03.15.02.2-.04.42-.43.85-.84,1.29-1.24.03-.01.04-.03.03-.06,0-.03-.02-.05-.05-.06-1.53-.44-2.65-.74-3.36-.92-.03-.01-.05,0-.08.02-.02.02-.03.05-.02.09v.07c.02.22-.05.42-.2.58s-.35.24-.58.23l-1.02-.05ZM57.96,169.09s-.04,0-.05,0c-.01.01-.02.03,0,.05.53.83,1.01,1.7,1.42,2.61.04.08.09.1.17.06.89-.45,1.81-.83,2.74-1.14.03-.01.04-.03.03-.04s-.02-.03-.03-.04l-4.27-1.51Z" style="fill:#9dc938;"/><path d="M40.36,161.73c-.2-.11-.33-.28-.39-.51-.06-.23-.04-.44.08-.64l.34-.59c.11-.2.28-.33.51-.39.23-.06.44-.04.64.08l1.08.62c.08.04.14.03.18-.05l1.63-2.83c.03-.06.04-.14.01-.23-.15-.49-.36-1.25-.62-2.3-.06-.23-.03-.45.09-.65.12-.2.3-.34.53-.4l.71-.19c.22-.05.43-.02.63.1.19.12.32.29.37.51.03.11.06.26.11.47.02.08.07.1.14.05.97-.57,2.08-.49,3.35.24,1.01.58,1.66,1.27,1.95,2.07.29.8.19,1.62-.29,2.47-.48.83-1.13,1.33-1.97,1.49-.83.16-1.76-.05-2.79-.64-.19-.11-.36-.22-.5-.34-.07-.06-.12-.05-.17.02l-.86,1.5c-.04.08-.03.14.04.17l2.5,1.44c.2.11.33.28.39.51.06.23.04.44-.08.64l-.34.59c-.11.2-.28.33-.51.39-.23.06-.44.04-.64-.08l-2.5-1.44c-.07-.04-.13-.02-.17.06l-.55.95c-.11.2-.28.33-.51.39-.23.06-.44.04-.64-.08l-.85-.49c-.2-.11-.33-.28-.39-.51-.06-.23-.04-.44.08-.64l.55-.95c.04-.08.03-.14-.05-.18l-1.08-.62ZM47.48,157.46l-.12.21c-.05.09-.05.16,0,.23.14.21.34.38.59.53.6.34,1.02.3,1.27-.12.25-.43.07-.81-.53-1.16-.27-.16-.5-.21-.69-.16-.19.05-.36.21-.52.49ZM47.74,167.96c-.18-.13-.28-.3-.29-.53-.02-.23.05-.42.2-.58,1.07-1.18,2.06-2.57,2.98-4.16s1.62-3.15,2.11-4.66c.07-.22.21-.38.41-.47.2-.09.4-.1.6,0l.89.38c.22.09.38.25.48.47.1.22.12.44.04.67-.53,1.65-1.27,3.31-2.22,4.96s-2.01,3.12-3.17,4.41c-.16.18-.36.28-.6.3-.24.02-.46-.04-.65-.18l-.77-.58Z" style="fill:#9dc938;"/><path d="M34.79,159.24l-5.64-4.7c-.17-.15-.27-.34-.29-.57-.02-.24.04-.44.19-.62l.48-.58c.15-.17.34-.27.57-.29.24-.02.44.04.62.19l5.64,4.7c.17.15.27.34.29.57s-.04.44-.19.62l-.48.58c-.15.17-.34.27-.57.29-.24.02-.44-.04-.62-.19ZM34.53,145.65c.11-.21.28-.35.5-.42.23-.07.45-.06.65.05,1.55.82,2.86,1.68,3.93,2.57,1.4,1.16,2.28,2.31,2.67,3.44s.24,2.09-.41,2.88c-.34.4-.78.72-1.33.95-.55.23-1.31.39-2.28.5-.24.02-.45-.04-.65-.18s-.32-.33-.39-.56l-.22-.84c-.05-.21-.02-.41.11-.58s.3-.28.51-.3c1-.12,1.61-.31,1.84-.59.23-.27.23-.65,0-1.12-.23-.47-.71-1.02-1.46-1.64-.9-.75-2.08-1.5-3.52-2.25-.21-.11-.34-.27-.41-.49-.07-.22-.05-.42.06-.61l.4-.78Z" style="fill:#9dc938;"/><path d="M18.64,142.34c-.15-.17-.21-.38-.2-.61.02-.24.11-.43.28-.58l.52-.44c.17-.15.38-.21.61-.2.24.02.43.11.58.28l3.88,4.5c.06.07.13.08.21.04.51-.24.92-.43,1.25-.57l.02-.02-.02-.02c-.68-.49-1.25-1-1.7-1.52-.9-1.05-1.35-2.06-1.34-3.05s.46-1.86,1.34-2.62c.9-.78,1.97-1.02,3.19-.74s2.39,1.08,3.51,2.39c.64.75,1.23,1.57,1.77,2.48.12.2.15.41.08.64-.06.23-.2.4-.4.51l-.64.35c-.2.11-.42.14-.64.08-.22-.06-.39-.18-.5-.37-.51-.88-1-1.59-1.48-2.15-.57-.67-1.15-1.08-1.72-1.24s-1.06-.07-1.46.27c-.6.52-.54,1.18.17,2.01.66.76,1.43,1.31,2.32,1.65.54.2.89.55,1.07,1.05l.31.88c.08.22.07.43-.04.63-.11.2-.27.34-.48.41-1.16.35-2.1.69-2.84,1.02-.08.04-.09.09-.04.15l1,1.15c.15.17.21.38.2.61-.02.24-.11.43-.28.58l-.52.44c-.17.15-.38.21-.61.2-.24-.02-.43-.11-.58-.28l-1.35-1.57c-.05-.06-.11-.07-.19-.03-.25.16-.44.29-.57.38-.19.13-.41.17-.65.13-.24-.04-.43-.15-.56-.34l-.59-.78c-.14-.19-.19-.4-.16-.62.03-.22.14-.4.33-.52.05-.03.13-.08.23-.15s.17-.12.23-.15c.07-.04.08-.09.02-.16l-3.55-4.11Z" style="fill:#9dc938;"/><path d="M13.97,137.15c-.88-1.84-1.78-3.55-2.71-5.13-.12-.19-.15-.41-.09-.64.06-.23.18-.4.38-.52l.58-.35c.19-.12.41-.15.64-.09s.4.18.52.37c1.09,1.85,2.05,3.65,2.87,5.39.1.2.11.41.03.63-.08.22-.23.37-.44.46l-.65.29c-.21.09-.42.1-.64.01-.22-.09-.38-.23-.48-.44ZM15.5,131.58c-.81-1.33-1.14-2.45-1-3.36.15-.91.76-1.69,1.85-2.36,1.13-.69,2.32-.75,3.56-.18,1.24.57,2.41,1.74,3.49,3.52.51.83.98,1.7,1.42,2.59.1.2.11.42.03.64-.08.22-.22.38-.42.48l-.65.31c-.2.1-.41.11-.63.04-.21-.08-.37-.22-.47-.42-.47-.95-.91-1.75-1.3-2.4-.54-.89-1.12-1.49-1.73-1.81-.62-.32-1.16-.33-1.64-.04-.76.46-.84,1.18-.25,2.15.42.68,1.33,1.45,2.76,2.31.48.28.82.69,1.02,1.22l.28.83c.08.21.08.43-.02.64-.1.21-.25.36-.46.45-.87.34-1.79.72-2.76,1.13-.22.09-.44.09-.66.01-.22-.08-.38-.23-.49-.44l-.48-.94c-.1-.2-.11-.42-.03-.64.08-.22.22-.38.43-.47.15-.07.37-.16.65-.28.28-.12.48-.21.61-.26h.01s-.02-.03-.02-.03c-1.45-.76-2.48-1.65-3.1-2.67Z" style="fill:#9dc938;"/><path d="M5.52,115.65c1.48-1.25,3.07-2.49,4.77-3.73.18-.13.38-.18.61-.14.23.04.41.15.53.35l.57.8c.13.19.17.4.14.63-.04.23-.15.41-.34.55-1.51,1.1-3.09,2.35-4.74,3.74-.18.14-.38.2-.6.17s-.4-.14-.52-.32l-.57-.8c-.14-.19-.19-.4-.17-.64.03-.24.13-.44.32-.59ZM7.93,121.53c-.2-.51-.35-.89-.44-1.13-.09-.24-.17-.53-.24-.87-.06-.34-.1-.57-.1-.69,0-.12.06-.3.2-.53.14-.24.28-.4.42-.48.14-.09.4-.23.79-.44.39-.21.75-.37,1.07-.5.32-.13.82-.32,1.5-.59,1.83-.72,3.22-1.01,4.18-.87.96.14,1.61.63,1.94,1.49.24.62.43,1.42.56,2.4.03.23-.03.44-.18.63-.15.19-.34.29-.57.32l-.75.11c-.22.02-.43-.03-.61-.17-.18-.14-.29-.32-.33-.55-.08-.65-.16-1.06-.24-1.26-.14-.37-1.27-.14-3.39.69-.96.37-1.5.63-1.64.76-.14.13-.13.41.04.82l.37.95c.03.08.09.12.17.11,2.42-.38,4.91-.61,7.49-.7.24,0,.45.07.62.23s.27.35.28.58l.03.73c.02.23-.05.43-.2.6-.15.17-.35.26-.59.27-2.23.11-4.45.33-6.69.67-.09.01-.12.06-.09.13l.35.88c.08.21.08.43-.02.64-.09.22-.25.37-.46.45l-.63.25c-.21.08-.43.08-.64-.02-.22-.09-.37-.25-.45-.46l-.52-1.34c-.03-.07-.08-.1-.16-.09-.35.06-.97.19-1.86.38-.23.05-.46.02-.67-.1-.21-.12-.35-.29-.42-.52l-.22-.72c-.06-.22-.04-.43.06-.63.11-.2.27-.33.48-.38.58-.14,1.15-.27,1.7-.38.08-.01.11-.06.07-.14l-.21-.52Z" style="fill:#9dc938;"/><path d="M1.93,108.67c-.19-2.03-.45-3.95-.78-5.75-.04-.22,0-.43.13-.63s.31-.32.53-.36l.67-.13c.22-.04.43,0,.63.13.2.13.32.31.36.53.39,2.12.67,4.13.84,6.05.03.23-.04.43-.19.6-.15.18-.34.27-.57.29l-.71.05c-.23.02-.43-.06-.61-.21-.18-.16-.28-.35-.3-.57ZM5.28,103.96c-.3-1.53-.23-2.7.22-3.5.45-.8,1.3-1.33,2.55-1.58,1.3-.26,2.43.09,3.41,1.05.98.96,1.67,2.46,2.07,4.5.19.96.34,1.93.44,2.92.03.23-.04.43-.19.61-.15.18-.34.28-.56.31l-.71.07c-.23.03-.43-.04-.6-.18s-.28-.33-.3-.56c-.12-1.05-.25-1.95-.4-2.7-.2-1.02-.54-1.78-1.01-2.29-.47-.51-.98-.71-1.53-.6-.87.17-1.2.82-.97,1.93.16.78.76,1.82,1.8,3.11.36.43.54.93.54,1.49l-.02.88c0,.23-.07.43-.24.6-.16.17-.36.26-.59.26-.93.02-1.93.06-2.98.11-.24,0-.45-.06-.62-.22-.18-.15-.28-.34-.3-.58l-.13-1.04c-.02-.23.04-.43.19-.61.15-.18.34-.28.57-.29.17-.01.4-.03.71-.04.3-.02.53-.03.67-.03h.01s0-.03,0-.03c-1.1-1.21-1.76-2.4-1.99-3.57Z" style="fill:#9dc938;"/><path d="M12.16,68.8c.17-.16.36-.24.59-.24.23,0,.42.08.58.24l.67.7c.17.17.26.38.26.62,0,.24-.08.45-.25.62-.76.77-1.7,1.43-2.8,1.97s-2.3.95-3.59,1.22c-.02,0-.03.02-.04.05,0,.02,0,.04.02.06,1.07.82,2.02,1.76,2.85,2.83.83,1.07,1.49,2.2,1.96,3.38.09.23.09.45,0,.68-.09.22-.25.39-.47.49l-.87.43c-.21.09-.41.1-.62.02s-.35-.22-.44-.43c-.82-1.92-1.85-3.48-3.08-4.68-1.24-1.19-2.56-1.93-3.96-2.2-.08-.01-.12.02-.14.11l-.49,2.83c-.04.22-.16.4-.35.54s-.4.19-.63.15l-.67-.12c-.22-.04-.4-.16-.54-.35-.14-.19-.19-.4-.15-.63l.85-4.9c.04-.22.15-.4.35-.54s.4-.19.63-.15l.34.06c2.12.37,3.98.32,5.59-.13,1.61-.45,3.07-1.33,4.4-2.62Z" style="fill:#9dc938;"/><path d="M10.08,52.87c.17-.16.38-.24.61-.23.24,0,.44.09.61.25l.54.5c.17.16.26.35.26.58,0,.23-.09.43-.26.58-.4.39-.8.73-1.18,1.02-.02.02-.02.04,0,.07s.02.05.04.06c.21.08.37.22.47.43.1.21.11.42.03.63l-2.27,6.23c-.08.21-.22.37-.43.47-.21.1-.42.11-.63.03-.03-.01-.05,0-.08.01-.02.02-.03.04-.02.07.1.52.17,1.03.23,1.53.03.23-.03.44-.18.61s-.34.27-.57.28l-.74.03c-.24.02-.45-.05-.63-.2-.18-.15-.29-.34-.32-.57-.27-1.84-.74-3.51-1.39-5-.23-.52-.25-1.04-.06-1.55l.64-1.75c.19-.51.54-.89,1.05-1.15,1.46-.72,2.89-1.69,4.28-2.93ZM8.82,57.01s0-.04,0-.05c-.01-.01-.03-.02-.05,0-.83.53-1.71.99-2.62,1.39-.08.04-.1.09-.06.17.44.9.81,1.81,1.11,2.75.01.03.03.04.04.03.02,0,.03-.02.04-.03l1.55-4.26ZM12.7,54.8c.08-.21.22-.37.44-.47.22-.1.43-.11.64-.03l.5.18c.21.08.37.22.47.44s.11.43.03.64l-.23.63c-.03.08,0,.12.09.11,1.11-.09,2.29-.16,3.53-.21.23-.01.42.06.57.22.16.16.23.35.22.58l-.04.88c-.01.24-.11.44-.28.61-.18.17-.38.25-.62.26-.03,0-.09,0-.17,0-.08,0-.15,0-.19,0-.09,0-.15.04-.15.12-.71,2.82-1.52,5.61-2.41,8.37-.07.22-.21.38-.42.48-.21.11-.43.13-.65.07l-.51-.16c-.22-.06-.39-.19-.49-.39s-.13-.41-.06-.63l.35-1.1c.03-.07.01-.15-.05-.22-.34-.4-.78-.89-1.33-1.49-.06-.06-.11-.05-.14.03l-.91,2.49c-.08.21-.22.37-.44.47s-.43.11-.64.03l-.5-.18c-.21-.08-.37-.22-.47-.44s-.11-.43-.03-.64l3.89-10.65ZM14.33,56.94s-.03,0-.05,0l-1.38,3.78c-.03.08-.02.15.04.2.42.43.83.86,1.23,1.3.01.03.03.04.06.03.03,0,.05-.02.06-.05.45-1.53.77-2.64.96-3.35.01-.03,0-.05-.02-.08-.02-.02-.05-.03-.09-.02h-.07c-.23.02-.42-.05-.57-.21-.16-.16-.23-.35-.22-.58l.06-1.02Z" style="fill:#9dc938;"/><path d="M10.04,46.84c.13-.18.3-.27.53-.29.23-.02.42.05.58.21,1.17,1.08,2.55,2.09,4.13,3.02,1.58.93,3.13,1.65,4.64,2.15.22.07.38.21.47.41.09.2.09.4,0,.6l-.39.89c-.09.22-.25.38-.47.48-.22.1-.44.11-.67.03-1.65-.55-3.29-1.3-4.93-2.27-1.64-.97-3.1-2.04-4.38-3.22-.18-.16-.28-.36-.3-.6-.02-.24.04-.45.19-.64l.59-.77ZM16.34,39.52c.12-.2.29-.32.52-.38s.44-.03.64.08l.59.35c.2.12.32.29.38.52s.03.44-.08.64l-.63,1.07c-.05.08-.03.14.05.18l2.82,1.66c.06.04.14.04.23.02.49-.15,1.26-.35,2.31-.6.23-.06.45-.03.65.1.2.13.33.3.39.53l.18.71c.05.22.02.43-.1.63s-.29.32-.52.37c-.11.03-.27.06-.47.1-.08.02-.1.07-.05.14.56.97.47,2.09-.27,3.35-.59,1-1.29,1.65-2.09,1.93-.8.28-1.62.18-2.47-.32-.82-.49-1.32-1.15-1.47-1.98-.15-.84.07-1.76.67-2.78.11-.19.23-.35.35-.5.06-.07.06-.12-.02-.17l-1.49-.88c-.08-.05-.13-.03-.17.03l-1.47,2.49c-.12.2-.29.32-.52.38-.23.06-.44.03-.64-.08l-.59-.35c-.2-.12-.32-.29-.38-.52s-.03-.44.08-.64l1.47-2.49c.04-.07.02-.12-.06-.17l-.94-.56c-.2-.12-.32-.29-.38-.52-.06-.23-.03-.44.08-.64l.5-.84c.12-.2.29-.32.52-.38.23-.06.44-.03.64.08l.94.56c.08.05.14.03.18-.05l.63-1.07ZM20.54,46.69l-.2-.12c-.09-.05-.16-.05-.23,0-.21.14-.39.33-.53.58-.35.59-.31,1.02.11,1.27.43.25.81.08,1.16-.52.16-.27.22-.5.17-.69s-.21-.36-.48-.52Z" style="fill:#9dc938;"/><path d="M18.9,33.96l4.76-5.59c.15-.17.34-.27.58-.29.24-.02.44.05.61.19l.57.49c.17.15.27.34.29.58.02.24-.05.44-.19.61l-4.76,5.59c-.15.17-.34.27-.58.29-.24.02-.44-.05-.61-.19l-.57-.49c-.17-.15-.27-.34-.29-.58-.02-.24.05-.44.19-.61ZM32.5,33.83c.2.11.34.28.41.51.07.23.05.45-.06.65-.84,1.54-1.7,2.85-2.61,3.91-1.18,1.38-2.33,2.26-3.46,2.63-1.13.37-2.09.22-2.87-.44-.4-.34-.71-.78-.93-1.34-.22-.55-.38-1.32-.47-2.29-.02-.24.04-.45.19-.65.15-.19.33-.32.57-.38l.84-.21c.21-.05.41-.01.58.12.17.13.27.3.3.52.11,1,.3,1.61.57,1.84.27.23.64.23,1.12,0,.48-.22,1.03-.7,1.65-1.44.76-.89,1.52-2.06,2.28-3.5.11-.21.27-.34.49-.41.22-.07.42-.04.61.07l.78.41Z" style="fill:#9dc938;"/><path d="M35.97,17.97c.17-.15.38-.21.61-.19s.43.12.57.29l.44.52c.15.17.21.38.19.61-.02.24-.12.43-.29.57l-4.53,3.83c-.07.06-.08.13-.04.21.24.51.42.93.56,1.25l.02.02.02-.02c.5-.68,1.01-1.24,1.54-1.69,1.06-.89,2.08-1.33,3.06-1.31.99.02,1.85.47,2.61,1.36.77.91,1.01,1.98.7,3.2s-1.11,2.38-2.42,3.49c-.75.64-1.59,1.22-2.5,1.74-.2.12-.41.14-.64.08-.23-.07-.4-.2-.51-.41l-.35-.64c-.11-.21-.13-.42-.07-.64s.19-.38.38-.49c.88-.5,1.6-.99,2.16-1.46.67-.57,1.09-1.14,1.26-1.71.17-.57.08-1.06-.26-1.47-.51-.6-1.18-.55-2.01.15-.77.65-1.33,1.42-1.68,2.31-.21.54-.56.89-1.07,1.06l-.89.3c-.22.08-.43.07-.63-.04-.2-.11-.33-.27-.4-.49-.34-1.16-.67-2.11-.99-2.85-.04-.08-.09-.1-.15-.04l-1.16.98c-.17.15-.38.21-.61.19-.24-.02-.43-.12-.57-.29l-.44-.52c-.15-.17-.21-.38-.19-.61.02-.24.12-.43.29-.57l1.58-1.34c.06-.05.07-.11.04-.19-.16-.25-.29-.44-.37-.58-.12-.19-.17-.41-.12-.65.04-.24.15-.43.34-.56l.78-.59c.19-.14.4-.19.62-.16.22.03.39.15.52.34.03.05.08.13.14.23.07.1.11.18.14.23.04.07.09.08.16.02l4.15-3.51Z" style="fill:#9dc938;"/><path d="M41.2,13.36c1.85-.86,3.57-1.75,5.16-2.65.2-.12.41-.15.64-.09.23.06.4.19.52.38l.35.59c.12.2.14.41.09.64-.06.23-.19.4-.38.52-1.86,1.07-3.67,2.01-5.42,2.81-.21.1-.42.11-.63.02-.22-.08-.37-.23-.46-.44l-.29-.66c-.09-.21-.09-.42,0-.64.09-.22.23-.38.44-.48ZM46.76,14.94c1.34-.8,2.46-1.12,3.37-.96s1.69.78,2.34,1.87c.68,1.14.73,2.32.15,3.56s-1.76,2.39-3.55,3.46c-.84.5-1.71.96-2.6,1.39-.21.1-.42.11-.64.03-.22-.08-.38-.22-.48-.43l-.3-.65c-.1-.2-.11-.41-.03-.63.08-.21.22-.37.43-.47.95-.46,1.76-.89,2.41-1.28.89-.53,1.5-1.1,1.82-1.71s.34-1.16.06-1.64c-.45-.76-1.17-.86-2.14-.27-.69.41-1.47,1.32-2.34,2.73-.29.48-.7.82-1.23,1.01l-.84.27c-.22.08-.43.07-.64-.02-.21-.1-.36-.25-.44-.47-.33-.87-.7-1.79-1.1-2.77-.09-.22-.09-.44,0-.66.08-.22.23-.38.45-.48l.94-.47c.21-.1.42-.11.64-.03.22.08.38.23.47.44.07.15.16.37.28.65.12.28.2.49.25.62h0s.03,0,.03,0c.78-1.44,1.68-2.46,2.7-3.07Z" style="fill:#9dc938;"/><path d="M56.86,7.48c.52-.2.89-.34,1.13-.43.24-.09.53-.17.87-.23.34-.06.57-.09.69-.1.12,0,.3.07.53.21.23.14.39.28.48.42.08.14.23.4.43.8s.37.75.49,1.07c.12.32.31.83.57,1.51.7,1.84.98,3.23.83,4.19s-.65,1.6-1.51,1.93c-.62.24-1.42.41-2.41.54-.23.03-.44-.04-.63-.19-.18-.15-.29-.34-.32-.58l-.1-.76c-.02-.22.04-.43.18-.61s.33-.29.56-.32c.65-.08,1.07-.15,1.26-.23.37-.14.15-1.27-.66-3.39-.37-.96-.61-1.51-.75-1.65s-.41-.13-.82.03l-.95.36c-.08.03-.12.09-.11.17.35,2.42.56,4.92.62,7.49,0,.24-.07.45-.23.62-.16.17-.36.26-.58.28l-.73.03c-.23.01-.43-.06-.59-.21-.17-.15-.26-.35-.26-.59-.09-2.23-.29-4.46-.6-6.69-.01-.09-.06-.12-.13-.09l-.89.34c-.21.08-.43.07-.64-.02-.22-.1-.37-.25-.45-.46l-.24-.64c-.08-.21-.07-.43.02-.64.1-.22.25-.36.46-.45l1.34-.51c.07-.03.11-.08.1-.16-.06-.35-.18-.97-.36-1.86-.05-.24-.01-.46.11-.67s.3-.35.52-.41l.73-.21c.22-.06.43-.04.63.07.2.11.32.27.37.48.14.58.26,1.15.36,1.7,0,.08.06.11.14.07l.53-.2ZM62.77,5.14c1.23,1.49,2.46,3.1,3.68,4.81.13.18.18.39.14.61-.04.23-.16.4-.35.53l-.8.56c-.19.13-.41.17-.63.13-.23-.04-.41-.16-.54-.35-1.09-1.52-2.32-3.11-3.69-4.77-.14-.18-.2-.38-.17-.6.03-.22.14-.4.32-.52l.8-.56c.19-.14.41-.19.64-.16.24.03.44.14.59.32Z" style="fill:#9dc938;"/><path d="M74.48,5.01c1.53-.29,2.7-.2,3.5.25s1.32,1.31,1.55,2.56c.24,1.3-.12,2.43-1.08,3.4s-2.48,1.64-4.52,2.03c-.96.18-1.93.32-2.92.41-.23.02-.43-.04-.61-.19-.18-.15-.28-.34-.3-.57l-.06-.71c-.02-.23.04-.43.19-.6.15-.17.34-.27.56-.29,1.05-.11,1.95-.23,2.7-.37,1.02-.19,1.79-.52,2.3-.98.51-.46.72-.97.62-1.52-.16-.87-.8-1.2-1.92-.99-.79.15-1.83.74-3.13,1.77-.44.35-.94.53-1.5.52l-.88-.03c-.23,0-.43-.08-.6-.24-.17-.16-.25-.36-.25-.59-.02-.93-.04-1.93-.08-2.98,0-.24.07-.45.22-.62.15-.17.35-.27.58-.3l1.05-.12c.23-.02.43.04.61.19.18.15.28.34.29.57.01.17.02.4.04.71s.02.53.03.67h0s.03,0,.03,0c1.22-1.08,2.42-1.74,3.59-1.96ZM69.8,1.61c2.04-.17,3.95-.41,5.75-.72.22-.04.43,0,.63.14.2.13.31.31.36.54l.13.67c.04.22,0,.43-.14.63-.13.2-.31.31-.54.36-2.12.37-4.14.63-6.06.78-.23.02-.43-.04-.6-.2s-.27-.34-.28-.57l-.04-.72c-.01-.23.06-.43.22-.61.16-.18.35-.27.58-.3Z" style="fill:#9dc938;"/><path d="M109.57,12.24c.16.17.24.37.24.59,0,.23-.08.42-.24.58l-.71.67c-.17.17-.38.25-.62.26-.24,0-.45-.08-.62-.26-.76-.77-1.41-1.71-1.94-2.82s-.93-2.31-1.18-3.6c0-.02-.02-.03-.05-.04s-.04,0-.06.02c-.83,1.06-1.78,2-2.86,2.82-1.08.82-2.21,1.46-3.4,1.93-.23.09-.45.08-.68-.01-.22-.1-.38-.25-.49-.47l-.43-.88c-.09-.21-.1-.41-.01-.62.08-.21.23-.35.43-.43,1.93-.8,3.5-1.81,4.71-3.03s1.96-2.54,2.24-3.94c.01-.08-.02-.12-.11-.14l-2.82-.52c-.22-.04-.4-.16-.54-.35-.13-.2-.18-.4-.14-.63l.12-.67c.04-.22.16-.4.35-.54.2-.13.4-.18.63-.14l4.89.9c.22.04.4.16.54.35.13.2.18.4.14.63l-.06.33c-.39,2.12-.36,3.98.07,5.59s1.3,3.08,2.58,4.42Z" style="fill:#9dc938;"/><path d="M123.55,12.92c.21.08.37.23.47.44s.11.43.03.64l-.19.5c-.08.21-.23.37-.44.47-.22.1-.43.11-.64.03l-.62-.23c-.08-.03-.12,0-.11.09.08,1.11.13,2.29.18,3.53.01.23-.06.42-.22.57s-.35.23-.58.22l-.88-.05c-.24-.02-.44-.11-.6-.29-.16-.18-.25-.38-.26-.62,0-.03,0-.09,0-.17s0-.15,0-.19c0-.09-.04-.15-.12-.15-2.81-.74-5.59-1.57-8.35-2.49-.22-.07-.38-.21-.48-.43-.1-.21-.13-.43-.06-.65l.16-.51c.06-.22.19-.38.4-.49.2-.11.41-.13.63-.06l1.1.36c.07.03.15.01.22-.04.4-.33.9-.77,1.51-1.32.06-.06.06-.11-.03-.14l-2.48-.93c-.21-.08-.37-.23-.47-.44-.1-.22-.11-.43-.03-.64l.19-.5c.08-.21.23-.37.44-.47.22-.1.43-.11.64-.03l10.61,3.99ZM125.51,10.32c.16.17.23.38.23.61s-.09.44-.26.61l-.5.54c-.16.17-.36.26-.59.25-.23,0-.42-.09-.58-.27-.38-.41-.72-.8-1.01-1.19-.02-.02-.04-.02-.07,0-.03.01-.05.02-.06.04-.08.21-.22.37-.43.46-.21.1-.42.1-.63.02l-6.21-2.34c-.21-.08-.37-.22-.46-.43-.1-.21-.1-.42-.02-.63.01-.03,0-.05-.01-.08-.02-.02-.04-.03-.07-.02-.52.09-1.03.16-1.54.21-.23.03-.44-.03-.61-.18-.18-.15-.27-.34-.27-.58l-.02-.74c-.02-.24.05-.45.2-.63s.34-.28.58-.31c1.85-.25,3.52-.7,5.01-1.34.53-.22,1.04-.24,1.55-.05l1.75.66c.51.19.89.54,1.14,1.06.7,1.47,1.66,2.9,2.89,4.31ZM121.39,14.53s0-.02,0-.05l-3.77-1.42c-.08-.03-.15-.02-.2.03-.43.42-.87.82-1.31,1.21-.03.01-.04.03-.03.06,0,.03.02.05.05.06,1.52.47,2.64.8,3.34.99.03.01.05,0,.08-.02.02-.02.03-.05.02-.09v-.07c-.02-.23.06-.42.22-.57s.35-.23.58-.22l1.02.07ZM121.38,9.02s.04,0,.05,0c.01-.01.02-.03,0-.05-.52-.84-.97-1.72-1.37-2.63-.03-.08-.09-.1-.17-.06-.9.43-1.82.79-2.76,1.08-.03.01-.04.03-.03.04,0,.02.02.03.03.04l4.24,1.6Z" style="fill:#9dc938;"/><path d="M131.55,10.35c.18.13.27.31.28.53.01.23-.06.42-.21.58-1.09,1.16-2.11,2.53-3.06,4.1s-1.68,3.11-2.2,4.62c-.08.22-.21.37-.42.46-.2.09-.4.09-.6,0l-.89-.4c-.22-.1-.38-.26-.47-.48-.1-.22-.11-.44-.03-.67.56-1.64,1.34-3.28,2.32-4.91.98-1.63,2.07-3.08,3.26-4.34.16-.18.37-.27.61-.29.24-.02.45.05.64.2l.76.6ZM138.8,16.73c.19.12.32.29.38.52.06.23.03.44-.09.64l-.35.58c-.12.19-.29.32-.52.38-.23.06-.44.03-.64-.09l-1.06-.64c-.08-.05-.14-.03-.18.05l-1.69,2.8c-.04.06-.04.14-.02.23.14.49.33,1.26.57,2.32.06.23.02.45-.1.65-.13.2-.31.33-.54.39l-.71.18c-.23.05-.43.01-.63-.11-.19-.12-.31-.29-.36-.52-.03-.11-.06-.27-.1-.47-.02-.08-.07-.1-.14-.05-.98.55-2.09.45-3.34-.3-1-.6-1.63-1.31-1.91-2.11-.28-.81-.16-1.63.34-2.46.49-.82,1.16-1.3,2-1.45s1.76.09,2.78.7c.19.11.35.23.5.35.07.06.12.06.17-.02l.89-1.48c.05-.08.03-.13-.03-.18l-2.47-1.49c-.19-.12-.32-.29-.38-.52-.06-.23-.03-.44.09-.64l.35-.58c.12-.19.29-.32.52-.38.23-.06.44-.03.64.09l2.47,1.49c.07.04.12.02.17-.05l.57-.94c.12-.19.29-.32.52-.38.23-.06.44-.03.64.09l.84.5c.19.12.32.29.38.52.06.23.03.44-.09.64l-.57.94c-.05.08-.03.14.05.18l1.06.64ZM131.6,20.85l.12-.2c.05-.08.05-.16,0-.23-.14-.21-.33-.39-.57-.54-.59-.36-1.02-.32-1.27.1s-.09.81.51,1.17c.27.16.5.22.69.17.19-.05.37-.21.53-.48Z" style="fill:#9dc938;"/><path d="M144.33,32.94c-.11.2-.28.34-.51.41-.23.07-.45.05-.65-.06-1.54-.85-2.83-1.73-3.88-2.65-1.37-1.19-2.24-2.35-2.6-3.49s-.2-2.09.47-2.87c.34-.39.79-.7,1.35-.92.55-.22,1.32-.37,2.29-.45.24-.02.45.05.64.2s.32.34.38.57l.21.85c.05.21,0,.41-.12.58s-.3.27-.52.29c-1,.1-1.62.28-1.85.55-.23.27-.24.64-.02,1.12.22.48.69,1.03,1.42,1.67.89.77,2.05,1.54,3.48,2.32.2.11.34.28.4.5.06.22.04.42-.07.61l-.42.77ZM144.34,19.34l5.54,4.82c.17.15.27.34.28.58.02.24-.05.44-.2.61l-.5.57c-.15.17-.34.27-.58.28-.24.02-.44-.05-.61-.2l-5.54-4.82c-.17-.15-.27-.34-.28-.58-.02-.24.05-.44.2-.61l.5-.57c.15-.17.34-.27.58-.28.24-.02.44.05.61.2Z" style="fill:#9dc938;"/><path d="M160.15,36.56c.14.17.21.38.18.62s-.12.43-.3.57l-.52.43c-.18.14-.38.21-.62.18s-.43-.12-.57-.3l-3.79-4.57c-.06-.07-.13-.08-.21-.04-.51.23-.93.41-1.26.54l-.02.02.02.02c.67.51,1.23,1.02,1.67,1.56.88,1.06,1.31,2.09,1.28,3.07-.03.99-.49,1.85-1.39,2.59-.92.76-1.99.99-3.2.67s-2.37-1.13-3.46-2.46c-.63-.76-1.2-1.6-1.72-2.52-.11-.2-.14-.41-.07-.64.07-.23.2-.4.41-.5l.64-.34c.21-.11.42-.13.64-.07.22.06.38.19.49.38.49.89.97,1.61,1.44,2.18.56.68,1.12,1.1,1.69,1.28s1.06.09,1.47-.25c.61-.5.57-1.17-.13-2.01-.64-.78-1.41-1.34-2.29-1.7-.53-.21-.88-.57-1.04-1.08l-.29-.89c-.08-.22-.06-.43.05-.63.11-.2.27-.33.49-.4,1.17-.32,2.12-.65,2.86-.96.08-.04.1-.09.05-.15l-.97-1.17c-.14-.18-.21-.38-.18-.62s.12-.43.3-.57l.52-.43c.18-.15.38-.21.62-.18s.43.12.57.3l1.32,1.6c.05.06.11.07.19.04.25-.16.45-.28.58-.37.19-.12.41-.16.65-.12.24.04.43.16.56.35l.58.79c.14.2.19.4.15.62-.04.22-.15.39-.34.51-.05.03-.13.08-.23.14-.1.06-.18.11-.23.14-.07.04-.08.09-.03.16l3.46,4.19Z" style="fill:#9dc938;"/><path d="M163.07,47.4c.78,1.35,1.09,2.47.93,3.38-.16.91-.8,1.68-1.9,2.32-1.14.66-2.33.7-3.57.11-1.23-.59-2.37-1.79-3.42-3.59-.49-.85-.95-1.72-1.36-2.61-.1-.21-.1-.42-.02-.64.08-.22.23-.38.43-.47l.65-.29c.21-.1.42-.1.63-.02s.37.23.47.43c.45.96.87,1.76,1.25,2.42.52.9,1.08,1.51,1.69,1.84.61.33,1.16.36,1.64.07.77-.45.87-1.16.3-2.14-.4-.69-1.3-1.48-2.71-2.36-.48-.29-.81-.71-.99-1.24l-.26-.84c-.08-.22-.07-.43.03-.64s.26-.36.47-.44c.87-.32,1.8-.68,2.79-1.07.22-.09.44-.08.66,0,.22.09.37.24.48.45l.46.95c.1.21.1.42.02.64s-.23.37-.44.46c-.16.07-.37.16-.66.27-.28.11-.49.2-.62.25h-.01s.02.03.02.03c1.43.79,2.44,1.7,3.04,2.73ZM164.72,41.85c.84,1.86,1.71,3.59,2.6,5.18.11.2.14.41.08.64-.06.23-.19.4-.39.52l-.59.34c-.2.11-.41.14-.64.08-.23-.06-.4-.19-.51-.39-1.06-1.87-1.97-3.69-2.76-5.45-.1-.21-.1-.42-.02-.63.09-.22.23-.37.45-.46l.66-.28c.21-.09.43-.09.64,0,.22.09.38.24.47.44Z" style="fill:#9dc938;"/><path d="M170.43,57.58c.19.52.33.9.42,1.14s.16.53.22.87.09.57.09.69c0,.12-.07.3-.21.53-.15.23-.29.39-.43.47s-.4.22-.8.42-.75.36-1.08.48-.83.31-1.51.56c-1.84.68-3.24.94-4.2.79s-1.59-.67-1.91-1.53c-.23-.62-.4-1.43-.51-2.41-.02-.23.04-.44.2-.62s.35-.29.58-.31l.76-.09c.22-.02.43.04.61.19.18.14.29.33.32.56.07.65.14,1.07.21,1.26.14.37,1.27.16,3.4-.62.96-.36,1.52-.6,1.66-.73.14-.13.13-.4-.02-.82l-.35-.96c-.03-.08-.09-.12-.17-.11-2.43.33-4.93.51-7.5.54-.24,0-.45-.07-.62-.24-.17-.16-.26-.36-.27-.59l-.02-.73c-.01-.23.06-.43.22-.59.15-.17.35-.25.59-.26,2.23-.07,4.46-.24,6.7-.53.09-.01.12-.06.09-.13l-.33-.89c-.08-.21-.07-.43.03-.64.1-.22.26-.36.47-.44l.64-.24c.21-.08.43-.07.64.03.22.1.36.26.44.47l.5,1.35c.03.07.08.11.16.1.35-.06.97-.17,1.86-.34.24-.05.46,0,.67.12s.34.3.41.53l.21.73c.06.22.04.43-.08.63-.11.2-.27.32-.49.37-.58.13-1.15.25-1.7.34-.08,0-.11.06-.08.14l.2.53ZM172.72,63.51c-1.51,1.22-3.12,2.43-4.84,3.63-.18.13-.39.18-.61.13-.23-.04-.4-.16-.53-.36l-.55-.81c-.13-.2-.17-.41-.12-.63.04-.23.16-.41.35-.54,1.53-1.07,3.13-2.28,4.81-3.64.18-.14.38-.19.6-.16.22.03.39.14.52.33l.55.81c.13.19.18.41.15.65s-.14.43-.33.59Z" style="fill:#9dc938;"/><path d="M172.72,75.21c.27,1.54.18,2.7-.29,3.49-.47.79-1.33,1.3-2.58,1.53-1.3.23-2.43-.14-3.39-1.12-.96-.98-1.62-2.49-1.98-4.54-.17-.96-.3-1.94-.38-2.92-.02-.23.05-.43.2-.61.15-.18.34-.28.57-.3l.71-.05c.23-.02.43.04.6.19.17.15.27.34.29.56.1,1.06.21,1.96.35,2.71.18,1.02.5,1.79.96,2.31.46.52.96.73,1.52.63.87-.16,1.21-.79,1.01-1.91-.14-.79-.72-1.84-1.73-3.15-.35-.44-.52-.94-.51-1.5l.04-.88c0-.23.08-.43.25-.59.17-.17.36-.25.59-.25.93,0,1.93-.02,2.98-.05.24,0,.45.07.62.23.17.16.27.35.29.59l.11,1.05c.02.23-.05.43-.2.61-.15.18-.35.27-.57.28-.17.01-.4.02-.71.03-.3,0-.53.02-.67.02h-.01s0,.03,0,.03c1.07,1.23,1.71,2.44,1.92,3.61ZM176.17,70.57c.15,2.04.37,3.96.66,5.76.04.22,0,.43-.14.63-.14.19-.32.31-.54.35l-.67.12c-.22.04-.43,0-.63-.14-.2-.14-.31-.32-.35-.54-.35-2.12-.59-4.15-.72-6.07-.02-.23.05-.43.2-.6.15-.17.35-.26.57-.28l.72-.04c.23-.01.43.06.6.22.17.16.27.35.29.58Z" style="fill:#9dc938;"/><path d="M165.14,110.22c-.17.16-.37.24-.59.23-.23,0-.42-.09-.58-.25l-.66-.72c-.17-.17-.25-.38-.25-.62,0-.24.09-.45.26-.61.78-.75,1.73-1.39,2.84-1.91,1.12-.52,2.32-.9,3.62-1.15.02,0,.03-.02.04-.05,0-.02,0-.04-.02-.06-1.05-.84-1.99-1.8-2.8-2.89-.81-1.09-1.44-2.23-1.89-3.42-.09-.23-.08-.45.02-.68.1-.22.26-.38.48-.48l.88-.42c.21-.09.41-.09.62,0,.2.09.35.23.43.44.78,1.94,1.77,3.52,2.99,4.74,1.21,1.22,2.52,1.98,3.92,2.28.08.02.12-.02.14-.11l.55-2.82c.04-.22.16-.4.36-.53.2-.13.41-.18.63-.13l.67.13c.22.04.4.16.53.36.13.2.18.41.13.63l-.95,4.88c-.04.22-.16.4-.36.53s-.41.18-.63.13l-.33-.07c-2.11-.41-3.98-.4-5.59.02-1.61.42-3.1,1.26-4.45,2.53Z" style="fill:#9dc938;"/><path d="M164.31,124.21c-.08.21-.23.36-.45.46-.22.1-.43.1-.64.02l-.5-.19c-.21-.08-.37-.23-.46-.45s-.1-.43-.02-.64l.24-.62c.03-.08,0-.12-.08-.11-1.12.06-2.29.11-3.53.14-.23,0-.42-.07-.57-.23-.15-.16-.22-.35-.21-.58l.06-.88c.02-.24.12-.44.3-.6.18-.16.39-.25.62-.25.03,0,.09,0,.17,0,.08,0,.15,0,.19,0,.09,0,.15-.03.16-.11.77-2.8,1.63-5.58,2.58-8.32.07-.22.22-.37.43-.48.21-.1.43-.12.65-.06l.51.17c.22.06.38.2.49.4s.12.42.05.63l-.38,1.09c-.03.07-.02.15.04.22.33.4.76.91,1.3,1.52.06.07.11.06.14-.03l.96-2.47c.08-.21.23-.37.45-.46.22-.1.43-.1.64-.02l.5.19c.21.08.37.23.46.45.1.22.1.43.02.64l-4.1,10.57ZM162.72,122.03s.02,0,.05,0l1.46-3.75c.03-.08.02-.15-.03-.2-.41-.44-.81-.88-1.2-1.32-.01-.03-.03-.04-.06-.03-.03,0-.05.02-.06.05-.48,1.52-.82,2.63-1.02,3.33-.01.03,0,.05.02.08.02.03.05.03.09.03h.07c.23-.01.42.06.57.22s.23.35.21.58l-.08,1.02ZM166.89,126.19c-.18.15-.38.23-.62.22-.24,0-.44-.1-.6-.27l-.53-.51c-.17-.16-.25-.36-.25-.59,0-.23.1-.42.27-.58.41-.38.81-.71,1.2-1,.02-.02.02-.04.01-.07-.01-.03-.02-.05-.04-.06-.21-.08-.36-.23-.46-.44s-.1-.42-.02-.63l2.4-6.18c.08-.21.23-.36.44-.46s.42-.1.63-.02c.03.01.05,0,.08-.01s.03-.04.02-.06c-.08-.52-.15-1.03-.2-1.54-.03-.23.04-.44.19-.61.15-.17.35-.26.58-.27l.74-.02c.24-.01.45.06.62.21.18.15.28.35.31.58.24,1.85.67,3.52,1.29,5.03.22.53.23,1.05.03,1.55l-.68,1.74c-.2.51-.55.88-1.07,1.12-1.47.69-2.92,1.63-4.34,2.84ZM168.23,122.08s0,.04,0,.05c.01.01.03.02.05,0,.84-.51,1.73-.96,2.65-1.34.08-.03.1-.09.06-.17-.42-.9-.77-1.83-1.05-2.77-.01-.03-.03-.04-.04-.03-.02,0-.03.02-.04.03l-1.64,4.22Z" style="fill:#9dc938;"/><path d="M160.35,139.41c-.12.19-.29.32-.53.37-.23.05-.44.02-.64-.1l-.58-.36c-.19-.12-.32-.29-.37-.53-.05-.23-.02-.44.1-.64l.65-1.06c.05-.08.03-.14-.04-.18l-2.78-1.72c-.06-.04-.14-.04-.23-.02-.49.14-1.27.32-2.32.55-.23.05-.45.02-.65-.11s-.33-.31-.38-.54l-.17-.71c-.05-.23,0-.43.12-.62s.3-.31.52-.36c.11-.03.27-.06.47-.09.08-.02.1-.07.05-.14-.54-.98-.43-2.1.34-3.34.61-.99,1.32-1.62,2.13-1.89.81-.27,1.63-.14,2.46.37.81.5,1.29,1.17,1.43,2.01.14.84-.1,1.76-.73,2.77-.11.19-.23.35-.36.49-.06.07-.06.12.02.17l1.47.91c.08.05.13.04.18-.03l1.52-2.46c.12-.19.29-.32.53-.37.23-.05.44-.02.64.1l.58.36c.19.12.32.29.37.53.05.23.02.44-.1.64l-1.52,2.46c-.04.07-.02.12.05.17l.93.58c.19.12.32.29.37.52.06.23.02.44-.1.64l-.51.83c-.12.19-.29.32-.53.37-.23.05-.44.02-.64-.1l-.93-.57c-.08-.05-.14-.03-.18.04l-.65,1.06ZM156.3,132.16l.2.12c.08.05.16.05.23,0,.21-.14.39-.33.54-.57.36-.59.33-1.01-.09-1.27-.42-.26-.81-.09-1.17.49-.17.27-.23.5-.18.69s.2.37.47.53ZM166.8,132.23c-.13.17-.31.27-.54.28-.23.01-.42-.06-.58-.22-1.15-1.1-2.51-2.14-4.07-3.1-1.56-.96-3.09-1.71-4.6-2.25-.22-.08-.37-.22-.46-.42-.09-.2-.08-.4.01-.6l.4-.88c.1-.22.26-.37.48-.47.22-.1.45-.1.67-.02,1.64.58,3.27,1.37,4.89,2.37,1.62,1,3.06,2.1,4.31,3.3.18.17.27.37.28.61.01.24-.05.45-.2.64l-.61.76Z" style="fill:#9dc938;"/><path d="M144.09,144.77c-.2-.11-.34-.29-.4-.52-.07-.23-.04-.45.07-.65.87-1.53,1.76-2.81,2.68-3.85,1.2-1.36,2.38-2.21,3.52-2.56,1.14-.35,2.09-.18,2.86.5.39.35.69.8.9,1.36.21.56.35,1.32.43,2.3.01.24-.05.45-.2.64-.15.19-.34.31-.58.37l-.85.2c-.21.05-.41,0-.58-.13s-.27-.31-.29-.52c-.09-1-.27-1.62-.53-1.86s-.64-.25-1.12-.03c-.48.21-1.04.68-1.68,1.41-.78.88-1.56,2.03-2.35,3.46-.11.2-.28.34-.5.4-.22.06-.42.04-.61-.08l-.77-.43ZM157.69,144.92l-4.87,5.49c-.15.17-.34.26-.58.28-.24.01-.44-.05-.61-.2l-.56-.5c-.17-.15-.26-.34-.28-.58-.01-.24.05-.44.2-.61l4.87-5.49c.15-.17.34-.26.58-.28.24-.01.44.05.61.2l.56.5c.17.15.26.34.28.58s-.05.44-.2.61Z" style="fill:#9dc938;"/><path d="M140.3,160.55c-.18.14-.38.2-.62.18-.24-.03-.43-.13-.57-.3l-.43-.53c-.14-.18-.2-.38-.18-.62.03-.24.13-.43.3-.57l4.61-3.74c.07-.06.08-.12.04-.21-.23-.51-.4-.94-.53-1.27l-.02-.02-.02.02c-.51.67-1.04,1.22-1.57,1.66-1.07.87-2.1,1.29-3.09,1.25-.99-.04-1.84-.51-2.58-1.42-.75-.93-.97-2-.64-3.21s1.16-2.36,2.49-3.44c.77-.62,1.61-1.19,2.53-1.69.2-.11.42-.13.64-.06s.39.21.5.42l.33.65c.1.21.12.42.06.64-.06.22-.19.38-.39.49-.89.48-1.62.95-2.19,1.41-.68.55-1.11,1.11-1.3,1.68-.18.57-.11,1.06.23,1.47.5.61,1.17.58,2.01-.11.78-.63,1.36-1.39,1.72-2.27.22-.53.58-.88,1.09-1.03l.89-.29c.22-.08.43-.06.63.05.2.11.33.28.39.49.31,1.17.62,2.12.93,2.87.04.08.09.1.15.05l1.18-.96c.18-.14.38-.2.62-.18.24.02.43.12.57.3l.43.53c.14.18.2.38.18.62-.02.24-.13.43-.3.57l-1.61,1.31c-.06.05-.08.11-.04.19.16.25.28.45.36.58.12.2.16.41.11.65-.05.24-.16.42-.35.55l-.8.57c-.2.13-.4.18-.63.15-.22-.04-.39-.15-.51-.35-.03-.05-.08-.13-.14-.23-.06-.1-.11-.18-.14-.23-.03-.07-.09-.08-.16-.03l-4.22,3.42Z" style="fill:#9dc938;"/><path d="M129.47,163.36c-1.36.77-2.49,1.07-3.39.9-.9-.17-1.67-.81-2.3-1.92-.65-1.15-.68-2.34-.08-3.57.6-1.23,1.81-2.36,3.62-3.38.85-.48,1.73-.93,2.63-1.34.21-.09.42-.1.64-.01.22.09.38.23.47.44l.29.65c.09.21.1.42.02.63-.08.21-.23.37-.44.46-.96.44-1.77.85-2.43,1.23-.9.51-1.52,1.07-1.86,1.68s-.37,1.15-.09,1.64c.44.77,1.15.88,2.14.32.7-.39,1.49-1.29,2.39-2.69.3-.48.71-.8,1.25-.98l.84-.26c.22-.08.43-.07.64.04.21.1.36.26.43.48.32.88.66,1.81,1.04,2.8.08.23.08.45,0,.66-.09.21-.24.37-.46.47l-.95.45c-.21.09-.42.1-.64.01s-.37-.23-.46-.45c-.07-.16-.15-.38-.26-.66-.11-.28-.19-.49-.24-.62h0s-.03,0-.03,0c-.8,1.42-1.73,2.43-2.76,3.02ZM134.99,165.05c-1.87.82-3.61,1.67-5.21,2.55-.2.11-.41.14-.64.07-.23-.06-.4-.19-.51-.39l-.34-.59c-.11-.2-.14-.41-.07-.64.06-.23.19-.4.39-.51,1.89-1.04,3.71-1.94,5.48-2.7.21-.1.42-.1.63-.01.21.09.37.24.45.45l.27.66c.09.21.08.43,0,.64-.09.22-.24.37-.45.47Z" style="fill:#9dc938;"/><path d="M113.24,172.84c-1.2-1.52-2.4-3.15-3.59-4.88-.13-.18-.17-.39-.13-.61s.17-.4.36-.52l.81-.54c.2-.12.41-.16.63-.12.23.04.4.16.54.36,1.05,1.54,2.25,3.16,3.59,4.85.14.18.19.38.15.61s-.15.39-.34.51l-.81.54c-.19.13-.41.18-.65.15-.24-.04-.43-.15-.58-.33ZM119.19,170.62c-.52.19-.9.32-1.14.41-.24.09-.53.16-.88.21-.34.05-.57.08-.69.08-.12,0-.3-.07-.53-.22s-.39-.29-.47-.43c-.08-.14-.22-.41-.41-.8-.19-.4-.35-.76-.47-1.08-.12-.33-.3-.83-.54-1.52-.66-1.85-.91-3.25-.74-4.21s.68-1.59,1.55-1.9c.62-.22,1.43-.39,2.42-.49.23-.02.44.05.62.2.18.16.28.35.3.58l.08.76c.02.22-.05.43-.19.6-.15.18-.33.28-.56.31-.65.06-1.07.13-1.26.2-.37.13-.18,1.27.59,3.41.35.97.58,1.52.71,1.66s.4.14.82-.01l.96-.34c.08-.03.12-.09.11-.17-.3-2.43-.46-4.93-.47-7.5,0-.24.08-.45.24-.61.17-.17.36-.26.59-.27h.74c.23-.02.42.05.59.21.17.16.25.35.25.59.04,2.23.2,4.46.47,6.7.01.09.05.12.13.1l.89-.32c.21-.08.43-.06.64.04.21.1.36.26.44.47l.23.64c.08.21.06.43-.04.64-.1.21-.26.36-.47.44l-1.35.48c-.07.03-.11.08-.1.16.05.35.16.97.32,1.87.04.24,0,.46-.12.67s-.3.34-.53.4l-.73.2c-.22.06-.43.03-.63-.08-.2-.11-.32-.28-.36-.49-.13-.58-.23-1.15-.33-1.71,0-.08-.05-.11-.14-.08l-.53.19Z" style="fill:#9dc938;"/><path d="M101.56,172.73c-1.54.26-2.7.15-3.49-.32-.79-.47-1.29-1.34-1.5-2.59-.22-1.3.17-2.43,1.15-3.38.99-.95,2.51-1.59,4.56-1.94.96-.16,1.94-.28,2.93-.36.23-.02.43.05.6.21s.27.35.29.57l.04.71c.02.23-.05.43-.2.6-.15.17-.34.26-.57.28-1.06.09-1.96.19-2.71.32-1.02.17-1.79.48-2.32.94-.52.45-.74.96-.65,1.51.15.88.78,1.22,1.9,1.03.79-.13,1.84-.7,3.17-1.7.44-.34.95-.51,1.51-.49l.88.05c.23,0,.43.09.59.25.16.17.24.37.24.6,0,.93,0,1.93.02,2.98,0,.24-.08.45-.23.62-.16.17-.35.27-.59.29l-1.05.1c-.23.02-.43-.05-.6-.21-.18-.16-.27-.35-.28-.58,0-.17-.02-.41-.02-.71,0-.3-.01-.53-.01-.67v-.02s-.03,0-.03,0c-1.24,1.06-2.45,1.69-3.63,1.88ZM106.17,176.22c-2.04.13-3.96.33-5.77.61-.22.04-.43-.01-.63-.15-.19-.14-.31-.32-.35-.54l-.11-.67c-.04-.22.01-.43.15-.63s.32-.31.54-.35c2.13-.33,4.15-.55,6.07-.66.23-.02.43.05.6.21.17.16.26.35.27.58l.03.72c0,.23-.07.43-.23.6-.16.17-.36.27-.58.29Z" style="fill:#9dc938;"/></g></svg>