<?xml version="1.0" encoding="UTF-8"?><svg id="_レイヤー_2" xmlns="http://www.w3.org/2000/svg" viewBox="0 0 71.42 62.67"><defs><style>.cls-1{fill:#9dc938;}.cls-1,.cls-2{stroke-width:0px;}.cls-2{fill:#50504b;}</style></defs><g id="_レイヤー_1-2"><path class="cls-2" d="M71.17,0h-30.22c-.14,0-.25.11-.25.25v62.17c0,.14.11.25.25.25h30.22c.14,0,.25-.11.25-.25v-10.48c0-.14-.11-.25-.25-.25h-16.84c-.36,0-.66-.3-.66-.66v-13.56c0-.36.3-.66.66-.66h14.34c.14,0,.25-.11.25-.25v-10.48c0-.14-.11-.25-.25-.25h-14.34c-.36,0-.66-.3-.66-.66v-13.51c0-.36.3-.66.66-.66h16.84c.14,0,.25-.11.25-.25V.25c0-.14-.11-.25-.25-.25Z"/><path class="cls-2" d="M30.45,0H.25c-.14,0-.25.11-.25.25v62.17c0,.14.11.25.25.25h12.44c.14,0,.25-.11.25-.25v-24.95c0-.36.3-.66.66-.66h15.23c.14,0,.25-.11.25-.25v-10.48c0-.14-.11-.25-.25-.25h-15.23c-.36,0-.66-.3-.66-.66v-13.51c0-.36.3-.66.66-.66h16.83c.14,0,.25-.11.25-.25V.25c0-.14-.11-.25-.25-.25Z"/><path class="cls-1" d="M19.97,51.69h10.47c.14,0,.25.11.25.25v10.48c0,.14-.11.25-.25.25h-10.47c-.14,0-.25-.11-.25-.25v-10.48c0-.14.11-.25.25-.25Z"/></g></svg>