<?xml version="1.0" encoding="UTF-8"?><svg id="_レイヤー_2" xmlns="http://www.w3.org/2000/svg" width="150" height="150" viewBox="0 0 150 150"><g id="_レイヤー_1-2"><rect width="150" height="150" rx="22" ry="22" style="fill:none;"/><path d="M47.23242,113.18555v11.89941h-2.75391v-4.87793h-5.40625v4.87793h-2.75391v-11.89941h2.75391v4.69238h5.40625v-4.69238h2.75391Z" style="fill:#fff;"/><path d="M55.11133,123.31641v1.31836h-5.28711v-1.04883l2.69824-2.54883c.62012-.58984.72949-.94922.72949-1.28906,0-.5498-.37988-.86914-1.11914-.86914-.59961,0-1.10938.22949-1.44922.69922l-1.17969-.75977c.54004-.78906,1.51953-1.29883,2.7793-1.29883,1.55859,0,2.59766.79883,2.59766,2.06836,0,.67969-.18945,1.29883-1.16895,2.20898l-1.60938,1.51953h3.00879Z" style="fill:#fff;"/><path d="M67.84766,125.08496l-2.29492-3.31445h-2.5332v3.31445h-2.75391v-11.89941h5.15039c3.17969,0,5.16797,1.64941,5.16797,4.31836,0,1.78516-.90039,3.09375-2.44727,3.75586l2.66797,3.8252h-2.95703ZM65.26367,115.42969h-2.24414v4.14844h2.24414c1.68262,0,2.53223-.7832,2.53223-2.07422,0-1.30859-.84961-2.07422-2.53223-2.07422Z" style="fill:#fff;"/><path d="M71.16211,119.13574c0-3.53613,2.75391-6.15332,6.51074-6.15332,3.73926,0,6.51074,2.60059,6.51074,6.15332,0,3.55176-2.77148,6.15332-6.51074,6.15332-3.75684,0-6.51074-2.61719-6.51074-6.15332ZM81.39551,119.13574c0-2.26074-1.59863-3.80762-3.72266-3.80762-2.125,0-3.72266,1.54688-3.72266,3.80762s1.59766,3.80762,3.72266,3.80762c2.12402,0,3.72266-1.54688,3.72266-3.80762Z" style="fill:#fff;"/><path d="M84.66113,119.13574c0-3.53613,2.75293-6.15332,6.51074-6.15332,3.73926,0,6.50977,2.60059,6.50977,6.15332,0,3.55176-2.77051,6.15332-6.50977,6.15332-3.75781,0-6.51074-2.61719-6.51074-6.15332ZM94.89453,119.13574c0-2.26074-1.59863-3.80762-3.72266-3.80762-2.125,0-3.72266,1.54688-3.72266,3.80762s1.59766,3.80762,3.72266,3.80762c2.12402,0,3.72266-1.54688,3.72266-3.80762Z" style="fill:#fff;"/><path d="M109.73438,125.08496l-.01758-7.13965-3.50098,5.88184h-1.24121l-3.48438-5.72852v6.98633h-2.58398v-11.89941h2.27734l4.4541,7.39453,4.38574-7.39453h2.26074l.03418,11.89941h-2.58398Z" style="fill:#fff;"/><path d="M70.46028,70.5887h-.1303c-1.42602,0-2.6566.50671-3.65553,1.49841-.99894.9917-1.49841,2.22228-1.49841,3.6483v6.55101c0,1.42602.50671,2.6566,1.50565,3.65554,1.02789.9917,2.25123,1.49117,3.6483,1.49117h.1303c1.38259,0,2.60592-.50671,3.63382-1.49841.99894-.9917,1.49841-2.22228,1.49841-3.6483v-6.55101c0-1.42602-.50671-2.6566-1.49841-3.6483-.99894-.9917-2.22228-1.49841-3.63382-1.49841ZM68.17285,75.35175c0-.60805.20268-1.10028.61529-1.51288.42708-.42708.93379-.637,1.5346-.637h.1303c.59357,0,1.0858.20992,1.52012.637.41984.41984.637.93379.637,1.51288v7.30383c0,.60805-.20992,1.10752-.637,1.54184-.42708.42708-.92655.637-1.52012.637h-.1303c-.60805,0-1.10752-.20992-1.54184-.637-.4126-.4126-.61529-.91931-.61529-1.54184v-7.30383h.00724Z" style="fill:#fff;"/><path d="M82.65022,82.51081c.15925-.18097.30402-.38365.4126-.58633.10134-.20268.18821-.39813.24611-.58633.05791-.18097.0941-.36917.12306-.55738.02172-.18097.0362-.34022.0362-.49223,0-.43432-.07963-.83969-.23164-1.2161-.15925-.37641-.37641-.70215-.65148-.96998-.27507-.26783-.60081-.48499-.97722-.637s-.78178-.23164-1.2161-.23164h-.06515c-.43432,0-.84692.08687-1.22334.24611-.37641.16649-.70215.39813-.97722.68767-.27507.28955-.49223.62977-.64424,1.00618-.15201.38365-.23164.78901-.23164,1.22334v.49947h2.08474l.0362-.68767c0-.15925.0362-.31126.08687-.4488.05067-.1303.11582-.24611.19544-.34022.07963-.08687.17373-.15925.28231-.20992.11582-.05067.23888-.07963.37641-.07963h.07239c.14477,0,.26783.02896.38365.07963.11582.05067.21716.12306.29679.21716.08687.0941.15201.20992.19544.33298.05067.13754.07239.28231.07239.44156,0,.20992-.0362.4126-.10134.60805-.06515.18821-.17373.36917-.33298.55014l-3.6483,4.0609v1.62146h6.18184v-1.89654h-3.14159l2.35257-2.62041.00725-.01448Z" style="fill:#fff;"/><path d="M75.74452,21.34393h-2.8448c-16.67793,0-30.25046,13.56529-30.25046,30.25046v14.49908c0,16.67793,13.57253,30.25046,30.25046,30.25046h2.8448c16.67793,0,30.25046-13.57253,30.25046-30.25046v-14.49908c0-16.67793-13.56529-30.25046-30.25046-30.25046ZM78.43731,47.83028c0-.637.11582-1.25229.34746-1.80967.2244-.55738.55014-1.05685.95551-1.49117.41984-.43432.90484-.78178,1.46221-1.02065.55738-.24612,1.16543-.36917,1.81691-.36917h.08687c.637,0,1.24505.11582,1.80967.34746s1.04961.55014,1.45498.94827c.40536.39813.73111.88312.96275,1.4405s.34746,1.15819.34746,1.80243c0,.23888-.01447.47775-.05067.73111-.0362.27507-.0941.55014-.18097.82521-.08687.28955-.20992.57909-.36193.87588-.16649.3185-.37641.61529-.61529.88312l-3.17054,3.53972h4.34321v3.01853h-9.18589v-2.53354l5.29872-5.88505c.20992-.23888.36193-.48499.4488-.73835.0941-.27507.13754-.55014.13754-.83245,0-.20992-.0362-.40537-.10134-.58633-.05791-.17373-.14477-.31126-.25335-.43432-.10858-.11582-.23888-.20992-.38365-.27507s-.3185-.10134-.49947-.10134h-.10858c-.18097,0-.34022.02896-.47776.0941-.14477.06515-.26783.15925-.36917.27507-.10858.12306-.19544.27507-.25335.4488-.06515.18097-.10134.39089-.11582.60805l-.05791,1.122h-3.28636v-.88312ZM60.96313,34.1564h4.59656v9.31619h6.0443v-9.31618h4.59656v23.37371h-4.59656v-10.01834h-6.0443v10.01834h-4.59656v-23.37371ZM75.74452,93.29645h-2.8448c-14.99855,0-27.21021-12.20442-27.21021-27.21021h57.25798c0,15.00579-12.20442,27.21021-27.21021,27.21021h.00724Z" style="fill:#fff;"/></g></svg>