<?xml version="1.0" encoding="UTF-8"?><svg id="_レイヤー_2" xmlns="http://www.w3.org/2000/svg" viewBox="0 0 150 150"><defs><style>.cls-1{fill:none;}.cls-1,.cls-2{stroke-width:0px;}.cls-2{fill:#fff;}</style></defs><g id="_レイヤー_1-2"><rect class="cls-1" width="150" height="150" rx="23.44" ry="23.44"/><path class="cls-2" d="M21.79,113.57v2.96h5.19v2.08h-5.19v4.08h-2.59v-11.2h8.47v2.08h-5.87Z"/><path class="cls-2" d="M29.42,111.49h2.59v11.2h-2.59v-11.2Z"/><path class="cls-2" d="M36.86,113.6h-3.58v-2.11h9.76v2.11h-3.59v9.09h-2.59v-9.09Z"/><path class="cls-2" d="M42.94,117.19h4.53v2h-4.53v-2Z"/><path class="cls-2" d="M49.83,111.49h2.59v9.09h5.62v2.11h-8.21v-11.2Z"/><path class="cls-2" d="M67.49,120.29h-5.2l-.99,2.4h-2.66l4.99-11.2h2.56l5.01,11.2h-2.72l-.99-2.4ZM66.67,118.33l-1.78-4.29-1.78,4.29h3.55Z"/><path class="cls-2" d="M71.71,117.77v-6.27h2.59v6.18c0,2.13.93,3.01,2.5,3.01s2.5-.88,2.5-3.01v-6.18h2.56v6.27c0,3.3-1.89,5.12-5.07,5.12s-5.07-1.83-5.07-5.12Z"/><path class="cls-2" d="M94.68,111.49v11.2h-2.13l-5.59-6.8v6.8h-2.56v-11.2h2.15l5.57,6.8v-6.8h2.56Z"/><path class="cls-2" d="M97.33,111.49h5.09c3.67,0,6.18,2.21,6.18,5.6s-2.51,5.6-6.18,5.6h-5.09v-11.2ZM102.29,120.57c2.22,0,3.68-1.33,3.68-3.47s-1.46-3.47-3.68-3.47h-2.37v6.95h2.37Z"/><path class="cls-2" d="M117.68,122.7l-2.16-3.12h-2.38v3.12h-2.59v-11.2h4.85c2.99,0,4.87,1.55,4.87,4.07,0,1.68-.85,2.91-2.31,3.54l2.51,3.6h-2.79ZM115.25,113.6h-2.11v3.91h2.11c1.58,0,2.38-.74,2.38-1.95s-.8-1.95-2.38-1.95Z"/><path class="cls-2" d="M127.25,118.73v3.97h-2.59v-4l-4.34-7.2h2.75l2.99,4.98,2.99-4.98h2.54l-4.35,7.23Z"/><path class="cls-2" d="M46,34.87v44.92c0,3.88,3.17,7.05,7.05,7.05h43.89c3.88,0,7.05-3.17,7.05-7.05v-44.92h-58ZM100.82,67c0,.82-.66,1.48-1.48,1.48h-5.65c-3.08,7.26-10.27,12.36-18.66,12.36-11.19,0-20.26-9.07-20.26-20.26s9.07-20.26,20.26-20.26c8.39,0,15.58,5.1,18.66,12.36h5.65c.82,0,1.48.66,1.48,1.48v12.83Z"/><path class="cls-2" d="M96.95,24.97h-43.89c-3.88,0-7.05,3.17-7.05,7.05v1.37h58v-1.37c0-3.88-3.17-7.05-7.05-7.05M83.96,31c-.92,0-1.66-.74-1.66-1.66s.74-1.66,1.66-1.66,1.66.74,1.66,1.66-.74,1.66-1.66,1.66M90.23,31c-.92,0-1.66-.74-1.66-1.66s.74-1.66,1.66-1.66,1.66.74,1.66,1.66-.74,1.66-1.66,1.66M96.5,31c-.92,0-1.66-.74-1.66-1.66s.74-1.66,1.66-1.66,1.66.74,1.66,1.66-.74,1.66-1.66,1.66"/><path class="cls-2" d="M85.06,59.19h0c-2.98,0-4.3,1.32-6.29,3.32-2.07,2.08-4.9,4.92-10.06,4.92h-.12c-4.79-.04-7.55-2.48-9.55-4.52,1.13,7.82,7.85,13.84,15.98,13.84s15.15-6.29,16.05-14.36c-1.9-1.97-3.21-3.18-6.02-3.2ZM81.3,67.25c-.8,0-1.44-.65-1.44-1.44s.65-1.44,1.44-1.44,1.44.65,1.44,1.44-.65,1.44-1.44,1.44Z"/><path class="cls-2" d="M59.76,60.89l.12.12c2.01,2.09,4.3,4.46,8.73,4.5h.11c4.36,0,6.66-2.31,8.69-4.35,2.08-2.09,3.87-3.89,7.66-3.89h0c2.87.02,4.62,1.14,6.08,2.49-.43-8.54-7.48-15.34-16.13-15.34-8.19,0-14.96,6.1-16.03,14-.07.52-.11,1.05-.13,1.58.29.29.58.59.88.9ZM75.06,57.87c.8,0,1.44.65,1.44,1.44s-.65,1.44-1.44,1.44-1.44-.65-1.44-1.44.65-1.44,1.44-1.44ZM66.93,57.36c1.1,0,1.98.89,1.98,1.98s-.89,1.98-1.98,1.98-1.98-.89-1.98-1.98.89-1.98,1.98-1.98Z"/></g></svg>