<?xml version="1.0" encoding="UTF-8"?><svg id="_レイヤー_2" xmlns="http://www.w3.org/2000/svg" viewBox="0 0 150 150"><defs><style>.cls-1{fill:none;}.cls-1,.cls-2{stroke-width:0px;}.cls-2{fill:#fff;}</style></defs><g id="_レイヤー_1-2"><rect class="cls-1" width="150" height="150" rx="23.44" ry="23.44"/><path class="cls-2" d="M53.81,28.41c0,1.91-6.92,1.91-6.92,0s1.55-3.46,3.46-3.46,3.46,1.55,3.46,3.46Z"/><path class="cls-2" d="M101.68,38.88c-1.91,0-3.46-1.55-3.46-3.46s1.55-3.46,3.46-3.46,1.91,6.92,0,6.92Z"/><path class="cls-2" d="M64.18,69.51c0,1.91-1.55,3.46-3.46,3.46s-3.46-1.55-3.46-3.46,6.92-1.91,6.92,0Z"/><path class="cls-2" d="M101,56.99l-8-10.18c-.62-.7-1.63-1.14-2.66-1.14-.56,0-1.56.13-2.25,1l-4.13,4.18-4.4-8.2,1.16-18.8c.03-.52-.35-.98-.87-1.03l-2.45-.27c-.51-.05-1,.31-1.07.84l-2.25,15.64-4.55,2.34c-.37.19-.67.42-.93.71l-6.71,7.73-9.16-3.83c-.46-.2-1,0-1.24.45l-1.22,2.3c-.12.22-.14.5-.06.75.08.25.25.46.49.57l10.66,5.41c1.23.71,2.85.43,3.72-.59l4.49-5.05,5.15,8.36,1.32,24.57c.03.51.45.92.97.92l2.92.04h.01c.51,0,.94-.4.98-.91l1.35-20.26c.59-.13,1.2-.37,1.81-.68.62-.31,1.18-.74,1.69-1.29l5.36-6.9,6.34,6.43c.36.36.94.39,1.34.05l2.09-1.81c.39-.34.45-.93.13-1.34Z"/><path class="cls-2" d="M70.57,40.06c2.27-1.15,3.17-3.92,2.02-6.18-1.15-2.26-3.93-3.16-6.19-2.02-2.26,1.16-3.16,3.94-2.01,6.19,1.15,2.26,3.92,3.15,6.18,2Z"/><path class="cls-2" d="M30.94,113.32c-.22-.1-.38-.26-.46-.5-.09-.23-.08-.46.03-.69.62-1.29,1.21-2.6,1.76-3.94.1-.23.26-.41.5-.51.23-.11.47-.12.7-.05l.24.08c.23.08.41.22.51.44.11.22.11.44.02.66-.5,1.25-1.11,2.62-1.82,4.11-.12.24-.29.4-.52.49s-.47.09-.71,0l-.24-.1ZM42.96,104.3c.25,0,.46.09.63.27.18.18.26.39.26.64v.1c0,.25-.09.46-.26.64-.18.18-.39.27-.63.27h-4.29c-.1,0-.14.05-.14.14v6.53c0,1.07-.13,1.73-.39,2-.26.27-.92.4-1.96.4-.46,0-1.02-.03-1.68-.1-.25-.02-.45-.13-.6-.34-.16-.2-.22-.43-.2-.67v-.08c.02-.25.13-.45.33-.61s.42-.23.66-.21c.53.04.87.06,1.01.06.31,0,.49-.03.54-.1s.08-.29.08-.65v-6.24c0-.1-.05-.14-.14-.14h-4.64c-.25,0-.46-.09-.63-.27-.18-.18-.26-.39-.26-.64v-.1c0-.25.09-.46.26-.64.18-.18.39-.27.63-.27h4.64c.1,0,.14-.05.14-.14v-1.57c0-.25.09-.46.26-.63.18-.18.39-.26.63-.26h.4c.25,0,.46.09.64.26.18.18.27.39.27.63v1.57c0,.1.05.14.14.14h4.29ZM43.28,113.5c-.23.08-.47.08-.7-.02-.23-.1-.39-.26-.49-.5-.38-.94-.99-2.33-1.81-4.16-.1-.22-.1-.45,0-.68.1-.23.26-.39.48-.47l.21-.08c.23-.1.47-.1.71,0s.41.25.52.49c.6,1.28,1.21,2.67,1.84,4.16.1.23.09.47,0,.7s-.27.39-.5.47l-.26.1ZM42.03,103.72c-.2.1-.41.11-.63.04-.22-.07-.38-.21-.49-.41-.05-.1-.13-.24-.22-.42-.1-.19-.17-.33-.22-.42-.11-.2-.12-.41-.06-.63s.21-.38.41-.49c.21-.11.43-.12.65-.05.22.08.39.22.5.43.05.1.13.24.22.42s.17.33.22.42c.11.21.12.43.05.64-.07.21-.22.37-.43.46ZM44.41,101.53c.05.11.13.26.23.46.1.2.17.35.22.43.11.21.12.43.05.64-.07.21-.22.37-.43.48-.21.11-.43.12-.65.05-.22-.07-.39-.22-.5-.43-.1-.19-.25-.48-.46-.86-.11-.21-.12-.43-.06-.65s.21-.38.42-.49c.21-.11.44-.12.67-.05.23.07.41.21.51.42Z"/><path class="cls-2" d="M46.07,114.36l-.19-.29c-.13-.21-.16-.43-.1-.66s.19-.41.41-.54c.86-.53,1.42-1.26,1.68-2.19.26-.93.38-2.63.38-5.1v-2.35c0-.25.09-.46.26-.63.18-.18.39-.26.63-.26h.38c.25,0,.46.09.63.26s.26.39.26.63v2.35c0,1.96-.1,3.52-.29,4.66-.19,1.15-.5,2.06-.93,2.73s-1.04,1.24-1.84,1.71c-.22.13-.46.16-.7.1s-.44-.2-.59-.42ZM53.4,114.96c-.25.01-.46-.08-.63-.26-.18-.18-.26-.39-.26-.64v-10.83c0-.25.09-.46.27-.63.18-.18.39-.26.64-.26h.4c.25,0,.46.09.64.26s.27.39.27.63v9.38c0,.09.04.12.13.1.88-.25,1.58-.72,2.08-1.42.5-.7.85-1.68,1.06-2.95.04-.25.17-.44.37-.59.2-.15.42-.21.66-.18l.22.03c.25.03.45.15.61.34.16.2.22.42.18.66-.6,4.05-2.81,6.17-6.62,6.35Z"/><path class="cls-2" d="M61.75,109.34l-.1-.1c-.18-.16-.28-.37-.29-.62s.06-.47.22-.65c1.3-1.5,2.16-3.25,2.58-5.23.05-.26.18-.46.38-.62s.42-.23.68-.22h.21c.25.02.45.13.62.31s.23.4.18.63c-.01.08-.04.21-.08.42-.02.09.02.13.11.13h5.47s.06-.01.07-.04c.02-.03.01-.05,0-.07-.03-.06-.1-.19-.19-.38-.1-.19-.17-.33-.22-.42-.11-.2-.12-.41-.06-.63s.21-.38.41-.49c.21-.11.43-.12.65-.05.22.08.39.22.5.43.05.1.13.24.22.42.1.19.17.33.22.42.1.19.11.39.06.6s-.18.37-.36.47c-.06.03-.08.09-.03.18.07.12.11.27.11.45-.03,3.49-.83,6.1-2.38,7.83-1.56,1.73-4.03,2.8-7.42,3.19-.26.03-.49-.03-.69-.19-.2-.16-.33-.37-.37-.62l-.02-.13c-.04-.25,0-.46.16-.66.15-.19.35-.3.59-.34,2.87-.38,4.89-1.25,6.06-2.61.06-.06.05-.12-.05-.16-1.01-.5-2.09-1.02-3.23-1.55-.22-.11-.38-.28-.46-.51-.08-.23-.06-.46.06-.67l.14-.26c.12-.22.3-.38.54-.46.24-.08.48-.07.71.03.75.34,1.85.87,3.3,1.58.09.04.14.02.18-.06.33-.93.53-2.02.61-3.26,0-.08-.04-.13-.13-.13h-5.02c-.08,0-.13.05-.18.14-.57,1.4-1.38,2.67-2.43,3.82-.17.19-.39.29-.65.3-.26.01-.49-.07-.68-.24ZM74.25,103.13c-.1-.19-.25-.48-.46-.86-.11-.21-.13-.43-.06-.65.07-.22.21-.38.42-.49.21-.11.44-.12.67-.05.23.07.41.21.51.42.05.11.13.26.23.46.1.2.17.35.22.43.11.21.12.43.05.64-.08.21-.22.37-.43.48-.21.11-.43.12-.65.05-.22-.07-.39-.22-.5-.43Z"/><path class="cls-2" d="M78.89,109.47c-.25,0-.46-.09-.63-.26-.18-.18-.26-.39-.26-.63v-5.39c0-.25.09-.46.26-.64.18-.18.39-.27.63-.27h.43c.25,0,.46.09.64.27s.27.39.27.64v5.39c0,.25-.09.46-.27.63s-.39.26-.64.26h-.43ZM87.43,102.27c.25,0,.46.09.63.27.18.18.26.39.26.64v3.47c0,2.6-.6,4.59-1.8,5.96-1.2,1.37-3.08,2.24-5.64,2.62-.26.04-.49-.01-.71-.16-.22-.15-.35-.35-.41-.61l-.03-.21c-.05-.23-.01-.45.12-.65.13-.2.32-.32.57-.36,2.1-.35,3.56-1.01,4.38-1.98.82-.97,1.23-2.49,1.23-4.56v-3.52c0-.25.09-.46.27-.64.18-.18.39-.27.64-.27h.48Z"/><path class="cls-2" d="M91.98,104.68c-.22-.11-.37-.28-.45-.51-.08-.23-.05-.46.06-.67l.16-.32c.12-.22.3-.37.54-.45.24-.07.48-.06.71.05,1.06.51,2.17,1.09,3.34,1.73.21.12.35.3.42.54.07.25.05.47-.07.69l-.18.32c-.12.21-.3.36-.54.42-.25.07-.47.05-.69-.07-1.25-.68-2.35-1.26-3.31-1.73ZM103.12,104.17c.25.05.44.19.58.4.14.21.18.44.13.69-.63,2.74-1.86,4.89-3.69,6.43-1.83,1.55-4.3,2.52-7.4,2.91-.26.03-.48-.03-.68-.18s-.32-.36-.36-.62l-.03-.29c-.04-.25,0-.47.16-.66.15-.2.35-.31.59-.34,2.62-.36,4.69-1.16,6.19-2.4,1.5-1.24,2.55-3,3.15-5.3.06-.25.2-.44.42-.58.21-.14.44-.18.69-.13l.26.06Z"/><path class="cls-2" d="M105.49,109.45l-.14-.11c-.18-.16-.28-.37-.29-.62-.01-.25.06-.47.22-.65,1.33-1.53,2.21-3.27,2.62-5.23.05-.26.18-.46.38-.62s.42-.23.68-.22l.27.02c.25.02.45.13.61.31.16.19.22.4.18.65-.01.08-.03.17-.06.3-.03.12-.04.21-.06.26-.02.08.02.13.11.13h5.38s.04-.01.05-.04.01-.05,0-.07l-.03-.06c-.05-.1-.13-.24-.22-.42-.1-.19-.17-.33-.22-.42-.11-.2-.12-.41-.06-.63s.21-.38.41-.49c.21-.11.43-.12.65-.05.22.08.39.22.5.43.05.1.13.24.22.42.1.19.17.33.22.42.1.19.11.39.06.6s-.18.37-.36.47c-.09.04-.1.1-.03.16.14.17.21.37.21.59-.1,3.33-.93,5.83-2.49,7.5-1.56,1.67-4,2.7-7.32,3.08-.26.03-.48-.03-.68-.19s-.32-.37-.36-.62l-.03-.13c-.04-.23.01-.45.16-.65s.35-.31.59-.34c2.61-.35,4.52-1.09,5.72-2.22,1.2-1.13,1.9-2.89,2.1-5.28,0-.08-.04-.13-.11-.13h-4.96c-.1,0-.16.04-.19.13-.55,1.32-1.36,2.55-2.42,3.7-.17.18-.38.28-.64.29-.26.01-.48-.07-.67-.24ZM118.91,101.66c.05.11.13.26.23.46.1.2.17.35.22.43.11.21.12.43.05.64-.08.21-.22.37-.43.48-.21.11-.43.12-.65.05-.22-.07-.39-.22-.5-.43-.1-.19-.25-.48-.46-.86-.11-.21-.13-.43-.06-.65.07-.22.21-.38.42-.49.21-.11.44-.12.67-.05.23.07.41.21.51.42Z"/><path class="cls-2" d="M54.57,123.73c-.25,0-.46-.09-.63-.27-.18-.18-.26-.39-.26-.64v-.16c0-.25.09-.46.26-.64.18-.18.39-.27.63-.27h11.1c.25,0,.46.09.63.27.18.18.26.4.26.64v1.07c-.91,2.79-2.92,5.05-6.05,6.77-.08.04-.09.1-.03.18.15.21.36.52.62.92.27.4.46.69.58.86.14.21.18.44.13.67-.05.23-.19.42-.4.54l-.35.22c-.21.14-.44.18-.69.13-.25-.05-.44-.19-.59-.4-1.21-1.78-2.46-3.56-3.76-5.34-.15-.2-.2-.42-.15-.66.05-.24.17-.43.38-.57l.34-.22c.21-.15.45-.2.7-.15.25.05.45.17.6.38.12.16.51.7,1.18,1.62.05.07.12.09.19.05,1.14-.61,2.15-1.34,3.02-2.2.87-.86,1.51-1.74,1.91-2.65.04-.09.02-.13-.08-.13h-9.54Z"/><path class="cls-2" d="M69.23,127c-.25-.04-.44-.17-.58-.37-.14-.2-.19-.43-.14-.67l.02-.11c.04-.25.18-.44.4-.59.22-.15.46-.2.7-.14.6.11,1.76.33,3.49.67.25.04.43.17.57.38.13.21.17.44.12.7l-.02.11c-.05.25-.18.44-.39.58s-.43.19-.66.14c-2.04-.41-3.21-.63-3.5-.69ZM80.55,123.43c.25.04.44.17.58.38.14.21.19.43.14.66-.65,3-1.83,5.23-3.55,6.69-1.72,1.46-4.22,2.38-7.52,2.77-.26.03-.49-.03-.69-.18-.2-.16-.33-.36-.37-.62l-.03-.24c-.04-.23.01-.45.16-.64.15-.19.35-.3.59-.34,2.87-.33,5.01-1.08,6.42-2.25s2.4-3.02,2.95-5.54c.05-.25.18-.44.39-.58.21-.14.43-.2.68-.15l.24.05ZM74.01,121.89c.25.04.44.17.58.38.14.21.18.44.13.69l-.03.14c-.04.25-.17.44-.38.58s-.44.18-.68.13c-1.32-.27-2.54-.5-3.65-.69-.25-.04-.44-.17-.58-.37-.14-.2-.2-.43-.15-.67l.03-.13c.04-.25.17-.44.38-.59.21-.15.44-.2.69-.16,1.07.18,2.29.41,3.66.69Z"/><path class="cls-2" d="M83.96,123.68c-.22-.11-.37-.28-.45-.51-.08-.23-.05-.46.06-.67l.16-.32c.12-.22.3-.37.54-.45.24-.07.48-.06.71.05,1.06.51,2.17,1.09,3.34,1.73.21.12.35.3.42.54.07.25.05.47-.07.69l-.18.32c-.12.21-.3.36-.54.42-.25.07-.47.05-.69-.07-1.25-.68-2.35-1.26-3.31-1.73ZM95.09,123.17c.25.05.44.19.58.4.14.21.18.44.13.69-.63,2.74-1.86,4.89-3.69,6.43-1.83,1.55-4.3,2.52-7.4,2.91-.26.03-.48-.03-.68-.18s-.32-.36-.36-.62l-.03-.29c-.04-.25,0-.47.16-.66.15-.2.35-.31.59-.34,2.62-.36,4.69-1.16,6.19-2.4,1.5-1.24,2.55-3,3.15-5.3.06-.25.2-.44.42-.58.21-.14.44-.18.69-.13l.26.06Z"/></g></svg>