<?xml version="1.0" encoding="UTF-8"?><svg id="_レイヤー_2" xmlns="http://www.w3.org/2000/svg" viewBox="0 0 150 150"><defs><style>.cls-1{fill:none;}.cls-1,.cls-2{stroke-width:0px;}.cls-2{fill:#fff;}</style></defs><g id="_レイヤー_1-2"><rect class="cls-1" width="150" height="150" rx="23.44" ry="23.44"/><path class="cls-2" d="M18.78,122.31c-.25,0-.46-.09-.64-.26-.18-.18-.27-.39-.27-.63v-.11c0-.25.09-.46.27-.64.18-.18.39-.27.64-.27h8.34c.1,0,.14-.04.14-.13v-7.2c0-.08-.05-.13-.14-.13h-8.34c-.25,0-.46-.09-.64-.27-.18-.18-.27-.39-.27-.64v-.11c0-.25.09-.46.27-.63.18-.18.39-.26.64-.26h9.71c.25,0,.46.09.63.26.18.18.26.39.26.63v9.5c0,.25-.09.46-.26.63s-.39.26-.63.26h-9.71Z"/><path class="cls-2" d="M32.87,117.74c-.25,0-.46-.09-.63-.27s-.26-.39-.26-.64v-.32c0-.25.09-.46.26-.64.18-.18.39-.27.63-.27h11.42c.25,0,.46.09.63.27.18.18.26.39.26.64v.32c0,.25-.09.46-.26.64s-.39.27-.63.27h-11.42Z"/><path class="cls-2" d="M51.72,122.86c-1.47,0-2.49-.28-3.05-.83-.56-.55-.84-1.58-.84-3.07v-7.68c0-.25.09-.46.26-.63s.39-.26.63-.26h.38c.25,0,.46.09.63.26.18.18.26.39.26.63v3.06c0,.1.04.13.13.11,2.74-.46,5.38-1.1,7.9-1.92.25-.07.47-.05.69.06.21.12.36.29.43.53l.05.18c.07.23.05.46-.06.69-.12.22-.3.38-.54.46-2.79.9-5.61,1.57-8.43,2.03-.11.02-.16.08-.16.16v2.38c0,.76.12,1.26.37,1.5.25.24.75.36,1.5.36,2.24,0,4.35-.06,6.34-.18.25-.02.46.05.65.22s.29.38.3.62v.16c.01.25-.07.46-.24.66-.17.19-.38.29-.62.3-2.24.13-4.43.19-6.58.19Z"/><path class="cls-2" d="M61.54,117.74c-.25,0-.46-.09-.63-.27s-.26-.39-.26-.64v-.32c0-.25.09-.46.26-.64.18-.18.39-.27.63-.27h11.42c.25,0,.46.09.63.27.18.18.26.39.26.64v.32c0,.25-.09.46-.26.64s-.39.27-.63.27h-11.42Z"/><path class="cls-2" d="M75.64,114.54c-.25,0-.46-.09-.64-.27-.18-.18-.27-.39-.27-.64v-.11c0-.25.09-.46.27-.63.18-.18.39-.26.64-.26h1.57c.1,0,.14-.05.14-.14v-1.68c0-.25.09-.46.26-.63.18-.18.39-.26.63-.26h.27c.25,0,.46.09.64.26.18.18.27.39.27.63v1.68c0,.1.04.14.13.14h4.21c.1,0,.14-.05.14-.14v-1.68c0-.25.09-.46.26-.63.18-.18.39-.26.63-.26h.38c.25,0,.46.09.63.26.18.18.26.39.26.63v1.68c0,.1.05.14.14.14h1.57c.25,0,.46.09.64.26s.27.39.27.63v.11c0,.25-.09.46-.27.64-.18.18-.39.27-.64.27h-1.57c-.1,0-.14.04-.14.13v.77c0,2.43-.53,4.24-1.58,5.41-1.06,1.17-2.84,1.92-5.34,2.24-.26.03-.49-.03-.7-.18-.21-.15-.34-.36-.39-.62l-.03-.14c-.04-.23,0-.45.14-.65s.33-.31.58-.34c1.99-.27,3.35-.81,4.07-1.62.72-.82,1.08-2.18,1.08-4.09v-.77c0-.09-.05-.13-.14-.13h-4.21c-.08,0-.13.04-.13.13v2.21c0,.25-.09.46-.27.64s-.4.27-.64.27h-.27c-.25,0-.46-.09-.63-.27-.18-.18-.26-.39-.26-.64v-2.21c0-.09-.05-.13-.14-.13h-1.57Z"/><path class="cls-2" d="M90.47,117.74c-.25,0-.46-.09-.63-.27s-.26-.39-.26-.64v-.32c0-.25.09-.46.26-.64.18-.18.39-.27.63-.27h11.42c.25,0,.46.09.63.27.18.18.26.39.26.64v.32c0,.25-.09.46-.26.64s-.39.27-.63.27h-11.42Z"/><path class="cls-2" d="M104.24,122.41c-.22-.11-.38-.28-.46-.51-.08-.23-.06-.46.06-.67,1.48-2.89,2.41-5.98,2.78-9.26.02-.25.13-.45.32-.62.19-.17.42-.24.67-.23l.43.02c.25.02.45.13.62.32.17.19.24.41.22.66-.34,3.58-1.33,6.94-2.96,10.08-.12.22-.3.38-.54.46s-.49.07-.72-.04l-.42-.19ZM112.56,112.43c-.05-.1-.22-.41-.51-.94-.12-.21-.14-.44-.06-.67.07-.23.22-.41.45-.53h.02c.22-.12.46-.14.7-.06.25.08.43.22.54.45.12.21.29.54.53.99.11.22.12.45.03.69-.08.23-.24.41-.46.51-.23.11-.47.12-.7.03-.23-.08-.41-.24-.53-.46ZM114.32,114.23c.25-.07.48-.05.7.06.22.12.38.3.46.54.75,2.2,1.41,4.48,2,6.85.05.24.01.46-.12.66-.13.21-.32.34-.57.39l-.51.1c-.25.05-.47.01-.69-.12-.21-.13-.35-.32-.4-.57-.59-2.47-1.21-4.7-1.86-6.69-.07-.23-.06-.46.06-.68.11-.22.29-.37.54-.44l.38-.11ZM116.35,112.36c-.22.11-.46.12-.7.04-.24-.08-.42-.23-.54-.46-.05-.11-.14-.27-.26-.5-.12-.22-.21-.39-.27-.5-.12-.21-.14-.44-.07-.69.07-.25.22-.42.44-.53l.05-.02c.22-.12.46-.14.7-.07.25.07.43.22.54.44.35.67.53,1.02.54,1.04.12.22.14.45.06.69-.08.24-.23.41-.46.51l-.05.03Z"/><path class="cls-2" d="M119.65,117.74c-.25,0-.46-.09-.63-.27s-.26-.39-.26-.64v-.32c0-.25.09-.46.26-.64.18-.18.39-.27.63-.27h11.42c.25,0,.46.09.63.27.18.18.26.39.26.64v.32c0,.25-.09.46-.26.64s-.39.27-.63.27h-11.42Z"/><path class="cls-2" d="M65.28,29.26c1.33.78,5.91,1.8,4.87,4.06-.64,1.41-2.58,2.65-3.75,3.81-3.1,3.06.5,5.57,3.86,7.14,2.11.99,4.25,1,3.87.07-.3-.73-1.98-1.33-4.77-3.23-1.63-1.11-.46-2.47.8-3.54.98-.84,2.41-1.63,2.99-2.92,1.04-2.29-.58-4.35-2.22-5.54-1.58-1.15-3.94-1.39-5.32-2.71-1.86-1.77.07-3.7,1.67-4.4,3.24-1.41,7.75-1.21,10.87.29.48.23,2.43,1.11,2.41,1.86-.03.98-1.88,1.68-2.57,2.18-1.55,1.13-2.63,2.66-1.89,4.76.3.84.9,1.4,1.41,2.07,1.16,1.53.53,2.61-.83,3.51-2.15,1.43-2.79,1.89-2.56,2.55.25.72,2.17.68,4.37-.91,1.68-1.21,3.29-3.04,2.08-5.15-.54-.95-1.97-1.92-1.77-2.97.25-1.29,2.47-1.9,3.32-2.78,3.58-3.69-1.65-7.14-4.75-8.23-4.14-1.46-13.65-2.38-15.2,3.87-.68,2.74,1.05,5,3.09,6.19h0Z"/><path class="cls-1" d="M88.8,54.88c-.83-.46-1.73-.74-2.67-.93-5.33-1.12-10.73-1.34-16.14-1.22-4.3.09-8.59.45-12.76,1.59-.69.19-1.77.35-1.78,1.11-.01.77,1.03.83,1.73,1.01,4.83,1.29,9.76,1.47,15.08,1.43,3.55.12,7.45-.05,11.32-.64,1.76-.27,3.53-.55,5.2-1.24.25-.1.63-.18.64-.54,0-.36-.37-.43-.61-.57h0Z"/><path class="cls-1" d="M95.91,64.51c.5.02,1,.03,1.49-.04,2.08-.28,3.6-2.14,3.47-4.19-.13-1.91-1.89-3.51-4.13-3.46-1.18-.2-1.77.37-1.63,1.92.12,1.29-.08,2.62-.51,3.83-.49,1.39,0,1.88,1.3,1.93h0Z"/><path class="cls-2" d="M93.81,68.16c1.53.38,3.07.31,4.62-.03,4.24-.92,6.96-5.03,6.08-9.24-.82-3.88-4.32-6.4-8.27-5.99-.56.06-1.22.4-1.7-.11-1.74-1.84-4.05-2.52-6.38-3.08-9.49-2.27-19.05-2.05-28.63-.69-2.57.36-5.08,1.03-7.33,2.44-1.32.82-2.15,1.96-2.24,3.52-.19,3.48.25,6.88,1.31,10.2.84,2.66,2.29,4.93,4.06,7.2,0,0,.03.02.02.02,4.57,4.22,10.56,6.31,17.12,6.31s12.6-2.1,17.18-6.36c.88-1.25,1.72-2.35,2.43-3.53.45-.75.94-.86,1.73-.66h0ZM94.61,62.58c.43-1.21.63-2.54.51-3.83-.15-1.55.44-2.13,1.63-1.92,2.24-.05,4,1.55,4.13,3.46.14,2.05-1.38,3.9-3.47,4.19-.49.07-1,.06-1.49.04-1.3-.05-1.79-.54-1.3-1.93h0ZM88.77,55.99c-1.66.69-3.43.97-5.2,1.24-3.87.59-7.77.76-11.32.64-5.32.04-10.25-.14-15.08-1.43-.7-.19-1.74-.24-1.73-1.01.01-.76,1.09-.92,1.78-1.11,4.17-1.15,8.46-1.5,12.76-1.59,5.41-.12,10.81.1,16.14,1.22.93.2,1.83.47,2.67.93.24.14.62.21.61.57,0,.36-.39.44-.64.54h0Z"/><path class="cls-2" d="M96.06,76.34c-.05-.02-.11-.04-.16-.06h-.01c-1.97-.89-4.07-1.38-6.26-1.94,0-.01.02-.03.03-.04-4.58,4.26-10.59,6.36-17.18,6.36s-12.55-2.08-17.12-6.31c-2.31.64-4.5,1.12-6.47,2.08-.74.35-1.07.55-1.57.9-2.59,1.8-2.67,4.05-.15,5.97.75.57,1.62,1.01,2.49,1.38,3.04,1.31,6.26,2.04,9.52,2.51,7.93,1.15,15.89,1.21,23.84.3,4.57-.52,9.13-1.21,13.3-3.33,1.68-.85,3.39-1.86,3.32-4.03-.07-2.17-1.87-3.02-3.58-3.8h0Z"/></g></svg>