<?xml version="1.0" encoding="UTF-8"?><svg id="_レイヤー_2" xmlns="http://www.w3.org/2000/svg" viewBox="0 0 150 150"><defs><style>.cls-1{fill:none;}.cls-1,.cls-2{stroke-width:0px;}.cls-2{fill:#fff;}</style></defs><g id="_レイヤー_1-2"><rect class="cls-1" width="150" height="150" rx="23.44" ry="23.44"/><path class="cls-2" d="M66.83,69.6l-2.32-10.95,6.65-13.08c1.7-2.37,1.15-5.65-1.95-7.6l-9.18-6.53,6.06-8.09.91.66c.37-.3.76-.56,1.18-.78l-1.3-.94.04-.05c.99-1.32.25-2.53-1.06-3.54-1.32-1.01-2.25-1.38-3.71-.12l-10.55,11.58s-.91,1.4-.87,2.33c.07,1.64.74,2.33.74,2.33l6.89,7.71-6.41,12.25c-.24.53-.38,1.32-.38,1.79l.43,29.62c0,.97.56,2.26,3.08,2.26s3.45-1.22,3.45-2.26l.43-17.03,1.1,3.39c.16.5.43.93.75,1.3,0,0,0,0,0,0l11.48,13.27c.39.44,2.22,1.21,4.21-.55,1.99-1.76,1.7-2.91,1.07-3.6l-10.72-13.37Z"/><path class="cls-2" d="M98.63,45.27l-19.68-14.24c-.08.47-.21.93-.37,1.37l18.71,13.54c-1.73.74-3.9,4.29-4.16,5.96-.22,1.37,2.19,2.64,3.92,2.23,1.02-.24,1.6-1.78,1.99-4.24.41-2.63.3-4.11-.4-4.61Z"/><path class="cls-2" d="M65.32,29.77c0-3.52,2.84-6.33,6.34-6.33s6.33,2.82,6.33,6.33-2.83,6.34-6.33,6.34-6.34-2.82-6.34-6.34Z"/><path class="cls-2" d="M40.19,114.02v2.96h5.18v2.08h-5.18v4.08h-2.59v-11.2h8.46v2.08h-5.87Z"/><path class="cls-2" d="M47.79,111.94h2.59v11.2h-2.59v-11.2Z"/><path class="cls-2" d="M55.26,114.05h-3.58v-2.11h9.76v2.11h-3.58v9.09h-2.59v-9.09Z"/><path class="cls-2" d="M61.42,117.64h4.53v2h-4.53v-2Z"/><path class="cls-2" d="M76.19,117.36h2.37v4.54c-.61.46-1.31.81-2.11,1.06-.8.25-1.61.37-2.42.37-1.16,0-2.21-.25-3.14-.74-.93-.5-1.66-1.18-2.18-2.06s-.79-1.87-.79-2.98.26-2.1.79-2.98,1.26-1.57,2.2-2.06c.94-.5,1.99-.74,3.17-.74.98,0,1.87.17,2.67.5.8.33,1.47.81,2.02,1.44l-1.66,1.54c-.8-.84-1.76-1.26-2.9-1.26-.71,0-1.35.15-1.9.45-.55.3-.99.72-1.3,1.26s-.46,1.17-.46,1.87.15,1.31.46,1.86.74.97,1.29,1.27c.55.3,1.18.46,1.88.46.75,0,1.42-.16,2.02-.48v-3.28Z"/><path class="cls-2" d="M83.18,122.58c-.93-.5-1.66-1.19-2.19-2.07s-.79-1.87-.79-2.97.26-2.09.79-2.97,1.26-1.57,2.19-2.07c.93-.5,1.98-.75,3.14-.75s2.21.25,3.14.75c.93.5,1.66,1.19,2.19,2.07s.8,1.87.8,2.97-.27,2.09-.8,2.97-1.26,1.57-2.19,2.07c-.93.5-1.97.75-3.14.75s-2.21-.25-3.14-.75ZM88.12,120.67c.53-.3.95-.73,1.26-1.27s.46-1.16.46-1.86-.15-1.31-.46-1.86-.72-.97-1.26-1.27c-.53-.3-1.13-.46-1.79-.46s-1.26.15-1.79.46c-.53.3-.95.73-1.26,1.27s-.46,1.16-.46,1.86.15,1.31.46,1.86.72.97,1.26,1.27c.53.3,1.13.46,1.79.46s1.26-.15,1.79-.46Z"/><path class="cls-2" d="M94.41,111.94h2.59v9.09h5.62v2.11h-8.21v-11.2Z"/><path class="cls-2" d="M106.53,114.02v2.96h5.18v2.08h-5.18v4.08h-2.59v-11.2h8.46v2.08h-5.87Z"/></g></svg>