<?xml version="1.0" encoding="UTF-8"?><svg id="_レイヤー_2" xmlns="http://www.w3.org/2000/svg" viewBox="0 0 150 150"><defs><style>.cls-1{fill:none;}.cls-1,.cls-2{stroke-width:0px;}.cls-2{fill:#fff;}</style></defs><g id="_レイヤー_1-2"><rect class="cls-1" width="150" height="150" rx="23.44" ry="23.44"/><path class="cls-2" d="M93.63,39.76c-.26-.3-.65-.51-1.09-.56-.71-.1-18.9-3.19-23.23-3.03-.75.02-1.21.12-1.59.34-1.17.67-1.8,2.37-2.15,3.67-.84,3.21.03,9.28,4.36,16.63l-2.49,23.84c-.02.46.15.9.47,1.23.33.33.78.51,1.22.49l2.51-.09c.73-.03,1.36-.52,1.54-1.23.17-.68,4.41-17.91,4.98-24.28.39-4.32-1.2-9.82-2.46-12.45l16.2-.39c.8,0,1.5-.48,1.63-1.16l.39-1.99c.07-.36-.03-.73-.29-1.02Z"/><path class="cls-2" d="M73.82,29.04c.1,2.95-2.2,5.43-5.17,5.54-2.95.12-5.43-2.21-5.54-5.16-.11-2.96,2.21-5.44,5.16-5.54,2.96-.1,5.43,2.21,5.54,5.16Z"/><path class="cls-2" d="M64.27,39.86c.46-1.81,1.16-3.12,2.05-3.96l-14.06-5.99c-.63-.23-1.34,0-1.69.58l-.89,1.44c-.4.65-.21,1.51.44,1.92l13.66,9.77c.06-1.77.33-3.08.5-3.76Z"/><path class="cls-2" d="M99.6,63.23l-20.22-10.41c.19,1.32.24,2.7.12,4.07-.11,1.17-.33,2.66-.63,4.3l1.43.49s.07.03.09.04c.05,0,.07.02.12.03l16.95,6.66c.2.06.4.09.6.09.63-.03,1.23-.42,1.48-1.04l.85-2.15c.34-.8-.02-1.73-.8-2.1Z"/><path class="cls-2" d="M39.08,105.08v2.96h5.18v2.08h-5.18v4.08h-2.59v-11.2h8.46v2.08h-5.87Z"/><path class="cls-2" d="M46.69,103h2.59v11.2h-2.59v-11.2Z"/><path class="cls-2" d="M54.16,105.11h-3.58v-2.11h9.76v2.11h-3.58v9.09h-2.59v-9.09Z"/><path class="cls-2" d="M60.32,108.7h4.53v2h-4.53v-2Z"/><path class="cls-2" d="M74.37,111.8h-5.2l-.99,2.4h-2.66l4.99-11.2h2.56l5.01,11.2h-2.72l-.99-2.4ZM73.55,109.83l-1.78-4.29-1.78,4.29h3.55Z"/><path class="cls-2" d="M87.93,112.12v2.08h-8.67v-11.2h8.46v2.08h-5.89v2.43h5.2v2.02h-5.2v2.59h6.1Z"/><path class="cls-2" d="M97.21,114.2l-2.16-3.12h-2.38v3.12h-2.59v-11.2h4.85c.99,0,1.85.17,2.58.5.73.33,1.29.8,1.69,1.41.39.61.59,1.33.59,2.16s-.2,1.55-.6,2.15c-.4.6-.97,1.06-1.7,1.38l2.51,3.6h-2.78ZM96.56,105.62c-.41-.34-1-.5-1.78-.5h-2.11v3.9h2.11c.78,0,1.37-.17,1.78-.51.41-.34.61-.82.61-1.44s-.2-1.11-.61-1.45Z"/><path class="cls-2" d="M104.05,113.64c-.93-.5-1.66-1.19-2.19-2.07-.53-.88-.79-1.87-.79-2.97s.26-2.09.79-2.97,1.26-1.57,2.19-2.07c.93-.5,1.98-.75,3.14-.75s2.21.25,3.14.75c.93.5,1.66,1.19,2.19,2.07s.8,1.87.8,2.97-.27,2.09-.8,2.97c-.53.88-1.26,1.57-2.19,2.07-.93.5-1.97.75-3.14.75s-2.21-.25-3.14-.75ZM108.98,111.73c.53-.3.95-.73,1.26-1.27s.46-1.16.46-1.86-.15-1.31-.46-1.86-.72-.97-1.26-1.27c-.53-.3-1.13-.46-1.79-.46s-1.26.15-1.79.46c-.53.3-.95.73-1.26,1.27s-.46,1.16-.46,1.86.15,1.31.46,1.86.72.97,1.26,1.27c.53.3,1.13.46,1.79.46s1.26-.15,1.79-.46Z"/><path class="cls-2" d="M52.08,132.27c-.44,0-.8-.14-1.08-.42-.64-.64-1.13-1.37-1.48-2.18-.35-.82-.52-1.67-.52-2.57s.18-1.73.53-2.55c.35-.82.84-1.55,1.47-2.19.29-.29.65-.43,1.08-.43h.08c.12,0,.2.05.24.17.04.11.03.21-.06.29-1.28,1.39-1.91,2.97-1.91,4.72s.63,3.38,1.9,4.73c.08.08.1.17.06.28-.04.11-.12.16-.24.16h-.08Z"/><path class="cls-2" d="M55.36,130.87l-.06-.11c-.08-.15-.09-.3-.04-.47.05-.17.15-.29.3-.37,2.66-1.42,4.58-3.25,5.78-5.49.01-.01.01-.03,0-.05-.01-.02-.03-.03-.05-.03h-4.68c-.17,0-.32-.06-.44-.19-.12-.12-.19-.27-.19-.44v-.11c0-.17.06-.31.19-.43.12-.12.27-.18.44-.18h5.79c.17,0,.32.06.44.18.12.12.19.27.19.43v.11c0,.44-.09.84-.27,1.2-.46.9-1.06,1.76-1.79,2.58-.04.04-.04.09,0,.13.96.88,1.81,1.68,2.56,2.41.12.12.19.27.19.44s-.06.32-.18.44l-.13.12c-.12.12-.27.18-.45.18s-.32-.06-.45-.19c-.92-.91-1.77-1.71-2.53-2.4-.04-.03-.09-.03-.14.01-1.08.99-2.28,1.82-3.6,2.5-.15.08-.32.09-.49.04-.17-.06-.3-.16-.38-.31Z"/><path class="cls-2" d="M65.21,127.49l-.07-.07c-.12-.11-.19-.25-.2-.42,0-.17.04-.32.15-.45.89-1.03,1.48-2.23,1.77-3.6.04-.18.12-.32.26-.43s.29-.16.47-.15h.14c.17.02.31.09.42.21.11.13.15.28.12.45l-.03.23c-.01.07,0,.1.07.1h4.31c.17,0,.31.06.43.19.12.12.18.27.18.44-.02,2.41-.57,4.21-1.64,5.4-1.07,1.2-2.78,1.93-5.11,2.2-.18.02-.33-.02-.47-.13-.14-.11-.22-.25-.25-.43v-.09c-.04-.17,0-.32.09-.45.1-.13.23-.21.39-.23,1.94-.26,3.31-.83,4.12-1.72.04-.04.04-.08-.01-.11-.62-.32-1.42-.7-2.4-1.14-.15-.07-.26-.19-.31-.35-.06-.16-.04-.32.04-.46l.1-.18c.08-.15.2-.26.37-.32s.33-.05.49.02c.74.34,1.56.74,2.46,1.19.04.02.08,0,.11-.05.24-.64.39-1.43.45-2.37,0-.06-.03-.09-.09-.09h-3.65c-.07-.01-.11.01-.13.08-.38.98-.95,1.88-1.69,2.69-.12.12-.26.19-.44.2-.18,0-.33-.05-.46-.17Z"/><path class="cls-2" d="M75.48,126.78c-.17-.03-.3-.11-.4-.25-.1-.14-.13-.29-.09-.46v-.08c.04-.17.13-.3.29-.41.15-.1.32-.14.48-.1.41.07,1.21.23,2.4.46.17.03.3.12.39.26.09.14.12.3.08.48v.08c-.05.17-.14.3-.28.4-.14.1-.3.13-.46.1-1.4-.28-2.2-.44-2.41-.47ZM83.25,124.45c.17.03.3.11.4.25.1.14.12.29.09.46-.45,2.01-1.26,3.51-2.45,4.5-1.18.99-2.9,1.62-5.14,1.88-.18.02-.33-.02-.47-.13-.14-.11-.22-.25-.25-.42l-.02-.17c-.03-.16,0-.31.11-.44s.24-.21.41-.23c1.95-.23,3.41-.73,4.38-1.52s1.65-2.02,2.04-3.71c.04-.17.13-.3.28-.4.15-.1.3-.13.47-.1l.17.02ZM78.77,123.27c.17.03.3.12.4.26.09.15.12.3.09.47l-.02.1c-.03.17-.12.3-.26.4-.14.09-.3.12-.47.09-.91-.18-1.75-.34-2.51-.47-.17-.03-.3-.11-.4-.25-.1-.14-.13-.29-.1-.46l.02-.09c.03-.17.12-.3.26-.41.15-.1.3-.14.47-.11.73.12,1.57.28,2.52.47ZM82.45,123.85c-.14.07-.28.08-.43.03s-.26-.14-.34-.28c-.04-.07-.09-.16-.15-.29-.07-.13-.12-.23-.15-.29-.07-.14-.09-.28-.04-.43s.14-.26.28-.34c.15-.07.29-.08.45-.03.15.05.27.15.35.3.04.07.09.16.15.29.07.13.12.23.15.29.07.15.08.29.03.44-.05.15-.15.25-.3.32ZM84.09,122.34c.04.07.09.18.16.32.07.14.12.24.15.3.07.15.08.29.03.44-.05.15-.15.26-.3.33s-.29.08-.45.03c-.15-.05-.27-.15-.35-.3-.07-.13-.17-.33-.32-.59-.07-.15-.09-.29-.04-.45s.14-.26.29-.33c.15-.07.3-.08.46-.03.16.05.28.15.35.29Z"/><path class="cls-2" d="M85.87,125.2c-.17,0-.31-.06-.43-.19-.12-.12-.18-.27-.18-.44v-.03c0-.17.06-.31.18-.44.12-.12.27-.19.43-.19h4.72c.06,0,.09-.03.09-.1v-.92c0-.17.06-.32.19-.44.12-.12.27-.19.44-.19h.18c.17,0,.32.06.44.19.12.12.19.27.19.44v.92c0,.07.03.1.1.1h1.52c.17,0,.31.06.43.19s.18.27.18.44v.03c0,.17-.06.32-.18.44s-.27.19-.43.19h-1.52c-.07,0-.1.03-.1.09v4.31c0,.43-.01.75-.04.97s-.12.39-.26.53c-.14.14-.32.22-.53.25s-.53.04-.96.04c-.29,0-.69-.02-1.22-.05-.18,0-.32-.08-.43-.21-.11-.14-.16-.29-.15-.47v-.05c.03-.17.09-.31.22-.42s.27-.16.44-.14c.48.04.81.06.99.06.23,0,.37-.03.43-.09.06-.06.09-.2.09-.43v-2.88s0-.03-.03-.04c-.02-.01-.03-.01-.04,0-1.35,1.26-2.74,2.33-4.18,3.2-.15.09-.3.11-.47.07-.17-.04-.29-.14-.38-.29l-.04-.08c-.08-.15-.1-.3-.05-.47s.14-.29.29-.38c1.55-.93,3.03-2.08,4.43-3.45.04-.04.03-.06-.03-.06h-4.3Z"/><path class="cls-2" d="M97.01,132.27c-.12,0-.2-.05-.24-.16-.04-.11-.02-.2.06-.28,1.27-1.35,1.9-2.93,1.9-4.73s-.64-3.33-1.91-4.72c-.08-.08-.1-.18-.05-.29.04-.11.12-.17.24-.17h.08c.43,0,.79.14,1.08.43.63.65,1.12,1.38,1.47,2.19.35.82.53,1.67.53,2.55s-.17,1.75-.52,2.57c-.35.82-.84,1.55-1.48,2.18-.28.28-.64.42-1.08.42h-.08Z"/></g></svg>