<?xml version="1.0" encoding="UTF-8"?><svg id="_レイヤー_2" xmlns="http://www.w3.org/2000/svg" viewBox="0 0 150 150"><defs><style>.cls-1{fill-rule:evenodd;}.cls-1,.cls-2,.cls-3{stroke-width:0px;}.cls-1,.cls-3{fill:#fff;}.cls-2{fill:none;}</style></defs><g id="_レイヤー_1-2"><rect class="cls-2" width="150" height="150" rx="23.44" ry="23.44"/><path class="cls-3" d="M33.79,113.58v2.96h5.18v2.08h-5.18v4.08h-2.59v-11.2h8.46v2.08h-5.87Z"/><path class="cls-3" d="M41.4,111.5h2.59v11.2h-2.59v-11.2Z"/><path class="cls-3" d="M48.87,113.61h-3.58v-2.11h9.76v2.11h-3.58v9.09h-2.59v-9.09Z"/><path class="cls-3" d="M55.03,117.19h4.53v2h-4.53v-2Z"/><path class="cls-3" d="M62.81,122.53c-.83-.24-1.49-.55-1.99-.94l.88-1.95c.48.35,1.05.63,1.71.85.66.21,1.32.32,1.98.32.74,0,1.28-.11,1.63-.33.35-.22.53-.51.53-.87,0-.27-.1-.49-.31-.66s-.47-.32-.8-.42c-.33-.11-.77-.22-1.32-.35-.85-.2-1.55-.41-2.1-.61-.54-.2-1.01-.53-1.4-.98-.39-.45-.58-1.04-.58-1.79,0-.65.18-1.24.53-1.77.35-.53.88-.95,1.59-1.26.71-.31,1.58-.46,2.6-.46.71,0,1.41.08,2.1.26s1.28.42,1.79.74l-.8,1.97c-1.04-.59-2.07-.88-3.1-.88-.73,0-1.26.12-1.61.35s-.52.54-.52.93.2.67.6.86c.4.19,1.01.37,1.83.55.85.2,1.55.41,2.1.61.54.2,1.01.52,1.4.96s.58,1.03.58,1.78c0,.64-.18,1.22-.54,1.75-.36.53-.89.95-1.61,1.26-.71.31-1.58.46-2.61.46-.89,0-1.74-.12-2.57-.36Z"/><path class="cls-3" d="M79.22,120.3h-5.2l-.99,2.4h-2.66l4.99-11.2h2.56l5.01,11.2h-2.72l-.99-2.4ZM78.41,118.33l-1.78-4.29-1.78,4.29h3.55Z"/><path class="cls-3" d="M84.84,121.56c-.89-.89-1.34-2.15-1.34-3.79v-6.27h2.59v6.18c0,2.01.83,3.01,2.5,3.01.81,0,1.43-.24,1.86-.73s.64-1.25.64-2.28v-6.18h2.56v6.27c0,1.64-.45,2.91-1.34,3.79-.89.88-2.14,1.33-3.74,1.33s-2.84-.44-3.74-1.33Z"/><path class="cls-3" d="M106.48,111.5v11.2h-2.13l-5.58-6.8v6.8h-2.56v-11.2h2.14l5.57,6.8v-6.8h2.56Z"/><path class="cls-3" d="M116.51,120.3h-5.2l-.99,2.4h-2.66l4.99-11.2h2.56l5.01,11.2h-2.72l-.99-2.4ZM115.69,118.33l-1.78-4.29-1.78,4.29h3.55Z"/><path class="cls-3" d="M82.72,35.56c-7.53,0-7.53,6.42-7.53,8.53,0,1.72,0,4.12,0,6.57,0,1.73,0,3.47,0,5.02h-1.83c-2.64,0-6.05,0-9.38,0-2.37,0-4.17.68-5.36,2.02-1.1,1.24-1.57,3-1.34,4.96.97,8.15,2.58,20.04,2.6,20.16.13.99.98,1.73,1.98,1.74h3.06s0,0,0,0c.54,0,1.06-.22,1.44-.61.38-.39.58-.91.57-1.46,0-.31,0-.64,0-.98,0-.2,0-.4,0-.61,0-1.46,0-3.33,0-5.33,0-3.45.02-7.76,0-10.48,3.24,0,7.28,0,10.46,0h3.81c5.63,0,8.61-2.81,8.61-8.11v-12.88c0-5.26-2.72-8.53-7.09-8.53Z"/><path class="cls-1" d="M93.65,84.49c-.05-1.92-.09-12.78,0-14.69.07-1.45-.48-1.94-1.91-1.91-3.57.07-16.56.05-20.24,0-1.25-.02-1.83.4-1.79,1.71.05,2.03.04,12.86,0,14.89h23.94Z"/><path class="cls-1" d="M85.08,28.16c.03,3.6-2.95,6.6-6.55,6.58-3.57-.02-6.48-2.88-6.53-6.42-.05-3.68,2.77-6.58,6.44-6.64,3.64-.06,6.6,2.83,6.63,6.47Z"/><path class="cls-3" d="M65.24,46.36c-.24,0-.49-.07-.71-.22-.57-.39-.71-1.18-.32-1.74.03-.03,2.55-3.79,1.16-6.64-.96-1.97-1.36-3.94-1.19-5.87.06-.69.67-1.2,1.36-1.14.69.06,1.2.67,1.14,1.36-.13,1.47.19,3,.95,4.55,2.04,4.18-1.21,8.96-1.35,9.17-.24.35-.64.54-1.03.54Z"/><path class="cls-3" d="M57.61,42.67c-.25,0-.49-.07-.71-.22-.57-.39-.71-1.17-.32-1.74.02-.03,2.55-3.79,1.16-6.64-.96-1.97-1.36-3.94-1.19-5.87.06-.69.67-1.2,1.36-1.14.69.06,1.2.67,1.14,1.36-.13,1.47.19,3,.95,4.55,2.04,4.18-1.21,8.96-1.35,9.17-.24.35-.64.54-1.03.54Z"/></g></svg>