<?xml version="1.0" encoding="UTF-8"?><svg id="_レイヤー_2" xmlns="http://www.w3.org/2000/svg" viewBox="0 0 150 150"><defs><style>.cls-1{fill:none;}.cls-1,.cls-2{stroke-width:0px;}.cls-2{fill:#fff;}</style></defs><g id="_レイヤー_1-2"><rect class="cls-1" width="150" height="150" rx="23.44" ry="23.44"/><path class="cls-2" d="M40,113.58v2.96h5.18v2.08h-5.18v4.08h-2.59v-11.2h8.46v2.08h-5.87Z"/><path class="cls-2" d="M47.61,111.5h2.59v11.2h-2.59v-11.2Z"/><path class="cls-2" d="M55.08,113.61h-3.58v-2.11h9.76v2.11h-3.58v9.09h-2.59v-9.09Z"/><path class="cls-2" d="M61.24,117.19h4.53v2h-4.53v-2Z"/><path class="cls-2" d="M75.28,122.7l-2.16-3.12h-2.38v3.12h-2.59v-11.2h4.85c.99,0,1.85.17,2.58.5.73.33,1.29.8,1.69,1.41.39.61.59,1.33.59,2.16s-.2,1.55-.6,2.15c-.4.6-.97,1.06-1.7,1.38l2.51,3.6h-2.78ZM74.62,114.11c-.41-.34-1-.5-1.78-.5h-2.11v3.9h2.11c.78,0,1.37-.17,1.78-.51.41-.34.61-.82.61-1.44s-.2-1.11-.61-1.45Z"/><path class="cls-2" d="M87.7,120.29h-5.2l-.99,2.4h-2.66l4.99-11.2h2.56l5.01,11.2h-2.72l-.99-2.4ZM86.88,118.33l-1.78-4.29-1.78,4.29h3.55Z"/><path class="cls-2" d="M94.37,122.14c-.92-.5-1.65-1.18-2.18-2.06s-.79-1.87-.79-2.98.26-2.1.79-2.98,1.25-1.57,2.18-2.06c.92-.5,1.96-.74,3.11-.74.97,0,1.85.17,2.63.51s1.44.83,1.98,1.47l-1.66,1.54c-.76-.87-1.7-1.31-2.82-1.31-.69,0-1.31.15-1.86.46-.54.3-.97.73-1.27,1.27s-.46,1.16-.46,1.86.15,1.31.46,1.86.73.97,1.27,1.27c.54.3,1.16.46,1.86.46,1.12,0,2.06-.44,2.82-1.33l1.66,1.54c-.53.65-1.19,1.15-1.98,1.49-.79.34-1.67.51-2.64.51-1.14,0-2.17-.25-3.1-.74Z"/><path class="cls-2" d="M112.41,120.62v2.08h-8.67v-11.2h8.46v2.08h-5.89v2.43h5.2v2.02h-5.2v2.59h6.1Z"/><path class="cls-2" d="M93.21,41.61c-1.78-.66-3.66-.44-5.18.44l-10.76,4.02-13.74-3.32s-.08-.02-.12-.03l-.92-5.37c-.14-.84-.94-1.4-1.78-1.26-.84.14-1.4.94-1.26,1.78l.9,5.26c-.25.29-.46.67-.63,1.18-.62,1.93-.63,3.45,1.3,4.07l.23.08.7,4.07c.13.75.78,1.28,1.52,1.28.09,0,.17,0,.26-.02.84-.14,1.4-.94,1.26-1.78l-.42-2.44,11.55,3.85c.4.13.83.19,1.25.17.31-.01.63-.06.94-.16l4.66-1.71-3.72,10.04-13.22-4.83c-2.04-.75-4.33-.05-5.62,1.7l-11.96,17.88c-1.59,2.18-.94,3.44,1.16,5.14,2.06,1.67,4.31.54,5.27-.77l11.24-13.51,14.26,5.21c.41.15.83.24,1.24.27,0,0,.02,0,.02,0,.7.26,1.42.38,2.12.38,2.48,0,4.81-1.52,5.73-3.99l7.33-19.78c1.63-4.07-.44-6.67-3.6-7.85Z"/><path class="cls-2" d="M92.94,23.78c-3.76,0-6.23,1.75-7.78,4.14h5.68c2.18,0,3.95,1.77,3.95,3.95s-1.75,3.93-3.91,3.95l-8,.95c0,2.01.19,3.46.52,4.51l16.88-1.96c1.35-1.64,2.17-3.75,2.17-6.04,0-5.25-4.25-9.5-9.5-9.5Z"/></g></svg>