<?xml version="1.0" encoding="UTF-8"?><svg id="_レイヤー_2" xmlns="http://www.w3.org/2000/svg" viewBox="0 0 44.65 50.65"><defs><style>.cls-1{fill:#50504b;}.cls-1,.cls-2,.cls-3{stroke-width:0px;}.cls-2{fill:#fff;}.cls-3{fill:#9dc938;}</style></defs><g id="_レイヤー_1-2"><path class="cls-3" d="M22.32,49.49c-3.2-1.86-21.32-13.06-21.32-27.17C1,10.57,10.57,1,22.32,1s21.32,9.57,21.32,21.32c0,14.11-18.12,25.31-21.32,27.17Z"/><path class="cls-1" d="M22.32,2c11.21,0,20.32,9.12,20.32,20.32,0,12.97-16.18,23.52-20.32,26.01-4.14-2.49-20.32-13.04-20.32-26.01C2,11.12,11.12,2,22.32,2M22.32,0C9.99,0,0,9.99,0,22.32c0,16.19,22.32,28.32,22.32,28.32,0,0,22.32-12.13,22.32-28.32C44.65,9.99,34.65,0,22.32,0h0Z"/><g id="_レイヤー_1-2"><path class="cls-2" d="M32.86,13.01h-8.98s-.07.03-.07.07v18.47s.03.07.07.07h8.98s.07-.03.07-.07v-3.11s-.03-.07-.07-.07h-5c-.11,0-.2-.09-.2-.2v-4.03c0-.11.09-.2.2-.2h4.26s.07-.03.07-.07v-3.11s-.03-.07-.07-.07h-4.26c-.11,0-.2-.09-.2-.2v-4.01c0-.11.09-.2.2-.2h5s.07-.03.07-.07v-3.12s-.03-.07-.07-.07Z"/><path class="cls-2" d="M20.76,13.01h-8.97s-.07.03-.07.07v18.47s.03.07.07.07h3.7s.07-.03.07-.07v-7.41c0-.11.09-.2.2-.2h4.53s.07-.03.07-.07v-3.11s-.03-.07-.07-.07h-4.53c-.11,0-.2-.09-.2-.2v-4.01c0-.11.09-.2.2-.2h5s.07-.03.07-.07v-3.12s-.03-.07-.07-.07h0Z"/><path class="cls-1" d="M17.65,28.37h3.11s.07.03.07.07v3.11s-.03.07-.07.07h-3.11s-.07-.03-.07-.07v-3.11s.03-.07.07-.07Z"/></g></g></svg>