<?xml version="1.0" encoding="UTF-8"?><svg id="_レイヤー_2" xmlns="http://www.w3.org/2000/svg" width="150" height="150" viewBox="0 0 150 150"><g id="_レイヤー_1-2"><rect width="150" height="150" rx="22" ry="22" style="fill:none;"/><path d="M35.80664,115.396v3.14453h5.50684v2.20996h-5.50684v4.33447h-2.75391v-11.89893h8.99219v2.20996h-6.23828Z" style="fill:#fff;"/><path d="M43.06445,113.18604h2.75391v11.89893h-2.75391v-11.89893Z" style="fill:#fff;"/><path d="M50.5957,115.42969h-3.80762v-2.24365h10.36914v2.24365h-3.80762v9.65527h-2.75391v-9.65527Z" style="fill:#fff;"/><path d="M57.25977,119.2373h4.81055v2.125h-4.81055v-2.125Z" style="fill:#fff;"/><path d="M63.77051,119.13574c0-3.58691,2.75293-6.15332,6.45898-6.15332,2.05762,0,3.77441.74756,4.89551,2.10742l-1.76758,1.63184c-.79883-.91797-1.80176-1.39355-2.99219-1.39355-2.22656,0-3.80664,1.56348-3.80664,3.80762,0,2.24365,1.58008,3.80762,3.80664,3.80762,1.19043,0,2.19336-.47607,2.99219-1.41113l1.76758,1.63184c-1.12109,1.37695-2.83789,2.125-4.91211,2.125-3.68945,0-6.44238-2.56689-6.44238-6.15332Z" style="fill:#fff;"/><path d="M87.04199,113.18604v11.89893h-2.75391v-4.87842h-5.40527v4.87842h-2.75391v-11.89893h2.75391v4.69189h5.40527v-4.69189h2.75391Z" style="fill:#fff;"/><path d="M96.85156,122.53516h-5.52539l-1.05273,2.5498h-2.82227l5.30273-11.89893h2.7207l5.32031,11.89893h-2.89062l-1.05273-2.5498ZM95.98438,120.44434l-1.88672-4.55566-1.88672,4.55566h3.77344Z" style="fill:#fff;"/><path d="M101.1875,113.18604h2.75391v11.89893h-2.75391v-11.89893Z" style="fill:#fff;"/><path d="M113.49414,125.08496l-2.29492-3.31445h-2.5332v3.31445h-2.75391v-11.89893h5.15137c3.17871,0,5.16699,1.64893,5.16699,4.31787,0,1.78467-.90039,3.09375-2.44727,3.75635l2.66797,3.82471h-2.95703ZM110.91016,115.42969h-2.24414v4.14795h2.24414c1.68359,0,2.5332-.78223,2.5332-2.07373,0-1.30908-.84961-2.07422-2.5332-2.07422Z" style="fill:#fff;"/><path d="M101.35519,60.27062v-.50806c0-.05443,0-.10887-.01815-.16331-.07258-3.91936-.59879-7.65726-1.61492-11.43145v-.05443c-1.37903-5.0625-3.46573-9.85282-5.53427-14.2621-1.8871-4.66331-2.12299-6.64113-2.15927-9.74395v-.29032h-3.52016v.29032c.03629,3.50202.43548,6.29637,2.4496,11.15927,1.61492,3.44758,3.41129,7.5121,4.6996,11.55847-6.42339.59879-13.77218.9254-21.30242.9254s-14.87903-.32661-21.30242-.9254c1.28831-4.02823,3.08468-8.0746,4.68145-11.50403,2.03226-4.88105,2.4496-7.71169,2.48589-11.19556v-.29032h-3.52016v.29032c-.03629,3.10282-.27218,5.09879-2.17742,9.79839-2.03226,4.35484-4.11895,9.09072-5.47984,14.17137,0,0-.01815.05443-.03629.10887-1.01613,3.79234-1.54234,7.54839-1.61492,11.46774v.99799c0,6.16935,1.05242,13.15524,3.32057,22.01008l.05444.21774h3.52016v-.30847c-.01815-.12702-.03629-.23588-.07258-.3629l-.05444-.21774c-1.19758-4.62702-2.03226-8.72782-2.57661-12.48387,2.92137,2.84879,6.98589,4.48186,11.30444,4.48186,3.9375,0,7.76613-1.05242,9.97984-2.70363l-.32661,11.15927h3.70161l-.32661-11.15927c2.21371,1.66936,6.0242,2.70363,9.97984,2.70363,4.30041,0,8.36492-1.63306,11.28629-4.48186-.54435,3.81048-1.39718,7.98387-2.63105,12.70161-.03629.10887-.05443.23588-.05443.3629v.30847h3.52016l.05443-.21774c2.26815-8.85484,3.32056-15.84072,3.32056-22.01008s0-.23588,0-.34476" style="fill:#fff;"/></g></svg>