<?xml version="1.0" encoding="UTF-8"?><svg id="_レイヤー_2" xmlns="http://www.w3.org/2000/svg" viewBox="0 0 39.6 39.6"><defs><style>.cls-1{fill:#50504b;}.cls-1,.cls-2{stroke-width:0px;}.cls-2{fill:#fff;}</style></defs><g id="_レイヤー_1-2"><circle class="cls-1" cx="19.8" cy="19.8" r="19.8"/><path class="cls-2" d="M27.95,27.08c0,.69-.58,1.27-1.27,1.27h-13.76c-.69,0-1.27-.58-1.27-1.27,0-3.46,2.84-6.3,6.3-6.3h3.71c3.46,0,6.3,2.84,6.3,6.3ZM26.79,27.08c0-2.84-2.29-5.13-5.13-5.13h-3.71c-2.84,0-5.13,2.29-5.13,5.13,0,.07.04.11.11.11h13.76c.07,0,.11-.04.11-.11ZM15.14,14.38c0-2.58,2.07-4.66,4.66-4.66s4.66,2.07,4.66,4.66-2.07,4.66-4.66,4.66-4.66-2.07-4.66-4.66ZM16.31,14.38c0,1.93,1.57,3.49,3.49,3.49s3.49-1.57,3.49-3.49-1.57-3.49-3.49-3.49-3.49,1.57-3.49,3.49Z"/></g></svg>