<?xml version="1.0" encoding="UTF-8"?><svg id="_レイヤー_2" xmlns="http://www.w3.org/2000/svg" viewBox="0 0 150 150"><defs><style>.cls-1{stroke:#fff;stroke-miterlimit:10;stroke-width:4px;}.cls-1,.cls-2{fill:none;}.cls-2,.cls-3{stroke-width:0px;}.cls-3{fill:#fff;}</style></defs><g id="_レイヤー_1-2"><path class="cls-2" d="M23.44,0h103.12c12.94,0,23.44,10.5,23.44,23.44v103.13c0,12.94-10.5,23.44-23.44,23.44H23.44c-12.94,0-23.44-10.5-23.44-23.44V23.44C0,10.5,10.5,0,23.44,0Z"/><path class="cls-3" d="M41.46,116.49h2.59v9.09h5.62v2.11h-8.21v-11.2Z"/><path class="cls-3" d="M50.16,122.09c0-3.33,2.59-5.79,6.13-5.79s6.13,2.45,6.13,5.79-2.61,5.79-6.13,5.79-6.13-2.46-6.13-5.79ZM59.79,122.09c0-2.13-1.5-3.58-3.5-3.58s-3.51,1.46-3.51,3.58,1.5,3.59,3.51,3.59,3.5-1.46,3.5-3.59Z"/><path class="cls-3" d="M63.69,122.09c0-3.38,2.59-5.79,6.08-5.79,1.94,0,3.55.7,4.61,1.98l-1.66,1.54c-.75-.86-1.7-1.31-2.82-1.31-2.1,0-3.59,1.47-3.59,3.58s1.49,3.59,3.59,3.59c1.12,0,2.06-.45,2.82-1.33l1.66,1.54c-1.06,1.3-2.67,2-4.63,2-3.47,0-6.07-2.42-6.07-5.79Z"/><path class="cls-3" d="M80.07,123.29l-1.5,1.57v2.83h-2.58v-11.2h2.58v5.23l4.96-5.23h2.88l-4.64,4.99,4.91,6.21h-3.02l-3.59-4.4Z"/><path class="cls-3" d="M96.53,125.61v2.08h-8.68v-11.2h8.47v2.08h-5.89v2.43h5.2v2.02h-5.2v2.59h6.1Z"/><path class="cls-3" d="M105.81,127.7l-2.16-3.12h-2.38v3.12h-2.59v-11.2h4.85c2.99,0,4.87,1.55,4.87,4.07,0,1.68-.85,2.91-2.31,3.54l2.51,3.6h-2.79ZM103.37,118.6h-2.11v3.91h2.11c1.58,0,2.38-.74,2.38-1.95s-.8-1.95-2.38-1.95Z"/><rect class="cls-1" x="40.5" y="20" width="34.5" height="40.5" rx="4.02" ry="4.02"/><rect class="cls-3" x="49.5" y="27.5" width="16.5" height="3" rx="1.5" ry="1.5"/><rect class="cls-3" x="49.5" y="36.5" width="16.5" height="3" rx="1.5" ry="1.5"/><rect class="cls-3" x="64.5" y="42.5" width="3" height="3" rx="1.5" ry="1.5"/><rect class="cls-1" x="75" y="20" width="34.5" height="40.5" rx="4.02" ry="4.02"/><rect class="cls-3" x="84" y="27.5" width="16.5" height="3" rx="1.5" ry="1.5"/><rect class="cls-3" x="84" y="36.5" width="16.5" height="3" rx="1.5" ry="1.5"/><rect class="cls-3" x="99" y="42.5" width="3" height="3" rx="1.5" ry="1.5"/><rect class="cls-1" x="40.5" y="60.5" width="34.5" height="40.5" rx="4.02" ry="4.02"/><rect class="cls-3" x="49.5" y="68" width="16.5" height="3" rx="1.5" ry="1.5"/><rect class="cls-3" x="49.5" y="77" width="16.5" height="3" rx="1.5" ry="1.5"/><rect class="cls-3" x="64.5" y="83" width="3" height="3" rx="1.5" ry="1.5"/><rect class="cls-1" x="75" y="60.5" width="34.5" height="40.5" rx="4.02" ry="4.02"/><rect class="cls-3" x="84" y="68" width="16.5" height="3" rx="1.5" ry="1.5"/><rect class="cls-3" x="84" y="77" width="16.5" height="3" rx="1.5" ry="1.5"/><rect class="cls-3" x="99" y="83" width="3" height="3" rx="1.5" ry="1.5"/></g></svg>