<?xml version="1.0" encoding="UTF-8"?><svg id="_レイヤー_2" xmlns="http://www.w3.org/2000/svg" viewBox="0 0 150 150"><defs><style>.cls-1{fill-rule:evenodd;}.cls-1,.cls-2,.cls-3{stroke-width:0px;}.cls-1,.cls-3{fill:#fff;}.cls-2{fill:none;}</style></defs><g id="_レイヤー_1-2"><path class="cls-2" d="M23.44,0h103.13c12.94,0,23.44,10.5,23.44,23.44v103.13c0,12.94-10.5,23.44-23.44,23.44H23.44c-12.94,0-23.44-10.5-23.44-23.44V23.44C0,10.5,10.5,0,23.44,0Z"/><path class="cls-3" d="M44.99,105.43c-.25,0-.46-.09-.63-.27-.18-.18-.26-.39-.26-.64s.09-.46.26-.63c.18-.18.39-.26.63-.26h3.47c.08,0,.14-.04.18-.13.13-.37.28-.91.46-1.62.06-.26.2-.46.41-.62s.45-.23.71-.22l.32.02c.25.02.44.13.58.32.14.19.19.41.14.64-.12.52-.25,1.01-.38,1.47-.02.09.01.13.1.13h6.72c.25,0,.46.09.63.26.18.18.26.39.26.63s-.09.46-.26.64c-.18.18-.39.27-.63.27h-1.42c-.08,0-.13.04-.13.13,0,.07,0,.13-.02.18-.47,2.23-1.2,4.02-2.19,5.38-.06.06-.05.12.05.18,1.07.65,2.25,1.47,3.55,2.45.19.14.3.33.31.58s-.06.45-.23.62l-.06.08c-.18.18-.4.28-.66.3s-.49-.05-.7-.2c-1.25-.94-2.42-1.75-3.5-2.43-.07-.03-.14-.03-.21.02-1.6,1.35-3.86,2.26-6.78,2.7-.23.04-.45,0-.65-.15-.2-.14-.32-.34-.38-.58-.04-.23,0-.45.14-.64s.33-.31.56-.35c2.27-.38,4.03-1.06,5.28-2.03.05-.04.05-.09-.02-.13-1-.52-2.04-.99-3.1-1.41h-.02s-.02-.02-.03-.02c-.1-.04-.17-.04-.21.02-.02.02-.04.05-.06.08s-.04.06-.06.08c-.17.19-.39.3-.66.33-.27.03-.5-.04-.7-.18l-.1-.08c-.19-.14-.3-.33-.33-.58-.03-.25.04-.46.2-.64.92-1.09,1.67-2.27,2.26-3.55.04-.08.02-.13-.08-.13h-2.75ZM53.95,105.43h-3.63c-.1,0-.16.04-.19.13-.43.98-.96,1.94-1.58,2.88-.05.08-.03.13.06.18,1.15.44,2.27.94,3.36,1.52.07.04.14.03.19-.05.82-1.13,1.45-2.62,1.87-4.46v-.02s.02-.02.02-.03c.02-.1-.01-.14-.1-.14Z"/><path class="cls-3" d="M59.93,110.04c-.2-.04-.36-.15-.47-.31s-.15-.35-.12-.55c.25-1.44.45-2.86.61-4.26.02-.2.11-.37.26-.49.15-.12.33-.17.53-.15.16.01.3.08.43.21.02.02.04.03.06.02.02-.01.02-.03.02-.05v-2.34c0-.25.09-.46.27-.63.18-.18.39-.26.64-.26h.24c.25,0,.46.09.63.26s.26.39.26.63v1.76s.01.04.04.05.05.01.07,0c.06-.05.13-.09.21-.1.19-.04.37-.01.54.09.17.1.27.25.33.44.14.53.25.99.32,1.36.01.02.02.03.04.03.02,0,.03,0,.04-.03.33-1.1.6-2.21.8-3.33.05-.25.18-.44.38-.59s.42-.2.66-.16l.06.02c.25.04.45.17.61.37.16.2.22.43.18.67-.03.22-.09.56-.18,1.01-.02.09.02.13.11.13h1.07c.08,0,.13-.05.13-.14v-1.57c0-.25.09-.46.27-.63.18-.18.39-.26.64-.26h.32c.25,0,.46.09.64.26.18.18.27.39.27.63v1.57c0,.1.04.14.13.14h2.45c.25,0,.46.09.64.27.18.18.27.39.27.64s-.09.46-.27.63c-.18.18-.4.26-.64.26h-2.45c-.08,0-.13.05-.13.14v2.5c0,.1.04.14.13.14h2.11c.25,0,.45.09.62.26s.26.38.26.62-.08.44-.26.62c-.17.18-.38.26-.62.26h-2.11c-.08,0-.13.04-.13.13v3.04c0,.08.04.13.13.13h2.64c.25,0,.46.09.64.27.18.18.27.4.27.64s-.09.46-.27.64-.39.27-.64.27h-8.53c-.25,0-.46-.09-.64-.27-.18-.18-.27-.39-.27-.64s.09-.46.27-.64.39-.27.64-.27h3.49c.08,0,.13-.04.13-.13v-3.04c0-.08-.04-.13-.13-.13h-2.51c-.25,0-.46-.09-.63-.27-.18-.18-.26-.39-.26-.64v-.62c0-.1-.04-.16-.13-.19l-.11-.05c-.33-.14-.52-.37-.58-.7-.02-.08-.07-.13-.14-.14-.15-.02-.28-.08-.39-.18-.11-.1-.18-.23-.22-.38-.04-.21-.13-.65-.27-1.31,0-.01,0-.02-.02-.02-.01,0-.02,0-.02.02v9.14c0,.25-.09.46-.26.63-.18.18-.39.26-.63.26h-.24c-.25,0-.46-.09-.64-.26-.18-.18-.27-.39-.27-.63v-8.45l-.02-.02c-.12.99-.27,2.03-.46,3.12-.03.2-.13.36-.3.46-.17.11-.34.14-.54.1ZM66.11,108.3c-.02.08,0,.13.1.13h2.37c.08,0,.13-.05.13-.14v-2.5c0-.1-.04-.14-.13-.14h-1.49c-.1,0-.15.04-.18.13-.23.89-.5,1.73-.8,2.53Z"/><path class="cls-3" d="M84.74,110.34c.1,0,.14-.05.14-.14v-.27c0-.09-.05-.13-.14-.13h-7.46c-.25,0-.46-.09-.64-.27-.18-.18-.27-.39-.27-.64v-3.65c0-.25.09-.46.27-.64.18-.18.39-.27.64-.27h3.94c.1,0,.14-.04.14-.13v-.3c0-.08-.05-.13-.14-.13h-5.18c-.23,0-.43-.08-.59-.24s-.24-.36-.24-.59.08-.43.24-.59.36-.24.59-.24h5.18c.1,0,.14-.05.14-.14v-.08c0-.25.09-.46.26-.63.18-.18.39-.26.63-.26h.38c.25,0,.46.09.63.26.18.18.26.39.26.63v.08c0,.1.05.14.14.14h5.18c.23,0,.43.08.59.24s.24.36.24.59-.08.43-.24.59-.36.24-.59.24h-5.18c-.1,0-.14.04-.14.13v.3c0,.09.05.13.14.13h3.94c.25,0,.46.09.64.27.18.18.27.39.27.64v3.65c0,.25-.09.46-.27.64-.18.18-.39.27-.64.27h-.42c-.1,0-.14.04-.14.13v.27c0,.1.05.14.14.14h1.68c.22,0,.42.08.58.24.16.16.24.35.24.58s-.08.42-.24.58-.35.24-.58.24h-1.68c-.1,0-.14.05-.14.14v1.12c0,.43,0,.75-.02.98s-.05.45-.13.67-.16.37-.25.45-.26.15-.5.22c-.24.07-.49.11-.74.12-.26.01-.62.02-1.1.02-.44,0-1.09-.02-1.97-.05-.25-.01-.45-.1-.62-.28-.17-.18-.27-.39-.29-.63-.01-.23.06-.43.22-.59s.35-.23.58-.22c.53.02,1.1.03,1.7.03.47,0,.74-.03.82-.09.08-.06.12-.26.12-.6v-1.15c0-.1-.05-.14-.14-.14h-5.87s-.04,0-.04.02c0,.02,0,.03,0,.04.71.36,1.29.67,1.71.91.21.13.35.32.4.56.05.25.02.47-.11.69l-.05.1c-.13.21-.31.35-.56.4-.25.05-.48.02-.69-.11-.61-.35-1.2-.68-1.78-.98-.21-.12-.35-.29-.42-.52s-.04-.45.09-.66l.21-.34s.02-.05,0-.07c-.02-.03-.04-.04-.07-.04h-1.55c-.22,0-.42-.08-.58-.24s-.24-.35-.24-.58.08-.42.24-.58c.16-.16.35-.24.58-.24h8.72ZM81.37,106.33v-.46c0-.08-.05-.13-.14-.13h-2.7c-.1,0-.14.04-.14.13v.46c0,.1.05.14.14.14h2.7c.1,0,.14-.05.14-.14ZM81.37,108.26v-.51c0-.1-.05-.14-.14-.14h-2.7c-.1,0-.14.05-.14.14v.51c0,.08.05.13.14.13h2.7c.1,0,.14-.04.14-.13ZM83.54,105.86v.46c0,.1.05.14.14.14h2.7c.1,0,.14-.05.14-.14v-.46c0-.08-.05-.13-.14-.13h-2.7c-.1,0-.14.04-.14.13ZM83.69,108.39h2.7c.1,0,.14-.04.14-.13v-.51c0-.1-.05-.14-.14-.14h-2.7c-.1,0-.14.05-.14.14v.51c0,.08.05.13.14.13Z"/><path class="cls-3" d="M90.89,115.02c-.2-.16-.33-.37-.37-.62-.04-.26,0-.5.13-.72.42-.75.71-1.58.87-2.5.17-.92.25-2.18.25-3.77v-5.01c0-.25.09-.46.26-.64.18-.18.39-.27.63-.27h10.94c.25,0,.46.09.63.27.18.18.26.4.26.64v10.72c0,.65-.02,1.13-.06,1.43-.04.3-.15.56-.34.76-.19.2-.43.32-.71.36-.28.04-.73.06-1.34.06-.45,0-.85-.01-1.2-.03-.25-.01-.46-.11-.63-.29-.18-.18-.27-.39-.3-.64-.01-.24.07-.44.23-.6.17-.17.37-.24.6-.23.6.02.91.03.93.03.35,0,.56-.03.63-.1.07-.07.1-.28.1-.63v-2.08c0-.1-.04-.14-.13-.14h-3.22c-.1,0-.14.05-.14.14v3.3c0,.25-.09.46-.27.64-.18.18-.39.27-.64.27h-.21c-.25,0-.46-.09-.64-.27s-.27-.39-.27-.64v-3.3c0-.1-.04-.14-.13-.14h-2.93c-.08,0-.14.05-.16.14-.2,1.55-.63,2.86-1.28,3.94-.13.2-.31.32-.55.36-.24.04-.46-.02-.65-.17l-.32-.26ZM93.85,108.31c0,.43,0,.74-.02.94,0,.08.04.13.13.13h2.82c.08,0,.13-.05.13-.14v-2.06c0-.1-.04-.14-.13-.14h-2.8c-.08,0-.13.05-.13.14v1.14ZM93.85,103.35v1.92c0,.09.04.13.13.13h2.8c.08,0,.13-.04.13-.13v-1.92c0-.08-.04-.13-.13-.13h-2.8c-.08,0-.13.04-.13.13ZM98.94,103.35v1.92c0,.09.05.13.14.13h3.22c.08,0,.13-.04.13-.13v-1.92c0-.08-.04-.13-.13-.13h-3.22c-.1,0-.14.04-.14.13ZM98.94,107.18v2.06c0,.1.05.14.14.14h3.22c.08,0,.13-.05.13-.14v-2.06c0-.1-.04-.14-.13-.14h-3.22c-.1,0-.14.05-.14.14Z"/><path class="cls-3" d="M55.07,133.12c-.25,0-.46-.09-.63-.26-.18-.18-.26-.39-.26-.63v-.11c0-.25.09-.46.26-.64.18-.18.39-.27.63-.27h4.13c.1,0,.14-.04.14-.13v-7.2c0-.08-.05-.13-.14-.13h-3.65c-.25,0-.46-.09-.63-.27s-.26-.39-.26-.64v-.11c0-.25.09-.46.26-.63.18-.18.39-.26.63-.26h9.82c.25,0,.46.09.63.26.18.18.26.39.26.63v.11c0,.25-.09.46-.26.64s-.39.27-.63.27h-3.65c-.1,0-.14.04-.14.13v7.2c0,.09.05.13.14.13h4.13c.25,0,.46.09.63.27.18.18.26.39.26.64v.11c0,.25-.09.46-.26.63-.18.18-.39.26-.63.26h-10.78Z"/><path class="cls-3" d="M70.19,128.32c-.25,0-.46-.09-.63-.26-.18-.18-.26-.39-.26-.63v-5.39c0-.25.09-.46.26-.64.18-.18.39-.27.63-.27h.43c.25,0,.46.09.64.27s.27.39.27.64v5.39c0,.25-.09.46-.27.63s-.39.26-.64.26h-.43ZM78.73,121.12c.25,0,.46.09.63.27.18.18.26.39.26.64v3.47c0,2.6-.6,4.59-1.8,5.96-1.2,1.37-3.08,2.24-5.64,2.62-.26.04-.49-.01-.71-.16-.22-.15-.35-.35-.41-.61l-.03-.21c-.05-.23-.01-.45.12-.65.13-.2.32-.32.57-.36,2.1-.35,3.56-1.01,4.38-1.98.82-.97,1.23-2.49,1.23-4.56v-3.52c0-.25.09-.46.27-.64.18-.18.39-.27.64-.27h.48Z"/><path class="cls-3" d="M83.36,123.47c-.25,0-.46-.09-.64-.27-.18-.18-.27-.39-.27-.64v-.05c0-.25.09-.46.27-.64.18-.18.39-.27.64-.27h11.15c.25,0,.46.09.63.27.18.18.26.4.26.64v.05c0,.7-.1,1.29-.3,1.76-.68,1.59-1.75,2.9-3.22,3.94-.21.15-.45.2-.7.16-.26-.04-.46-.17-.62-.38l-.14-.21c-.14-.19-.19-.41-.15-.64s.16-.43.36-.58c1.19-.85,2.01-1.86,2.45-3.01.04-.08.02-.13-.08-.13h-9.63ZM87.52,124.75h.32c.25,0,.46.09.64.27s.27.39.26.64c-.05,2.21-.35,3.9-.88,5.06s-1.44,2.11-2.72,2.84c-.22.13-.46.16-.71.09-.25-.07-.45-.22-.58-.44l-.11-.21c-.13-.2-.16-.42-.1-.65.06-.23.19-.41.39-.54.92-.55,1.57-1.28,1.95-2.18s.6-2.23.64-3.99c.01-.25.1-.46.28-.63s.39-.26.63-.26Z"/><g id="lACaLB"><path class="cls-1" d="M65.11,73.04c-1.51-1.65-2.51-3.58-2.98-5.75l-.31-1.34c-.02-.12,0-.23-.03-.35-2.05-.31-5.98-.88-6.99-1.05-1.78-.29-3.25.84-3.51,2.62-.14,1.02.37,14.86.47,15.86.22,1.41,3.49,1.41,3.73.39.14-.59,1.18-13.1,1.18-13.1.09.03,5.55,1.92,8.57,2.86-.06-.05-.1-.09-.14-.15Z"/></g><path class="cls-1" d="M65.69,47.28c3.12.46,6.19-2.08,6.53-5.33.03-.27.3-.71.5-.73,1.23-.15,2.07-.74,2.25-1.99.22-1.43-.28-2.64-1.42-3.53-1.29-1-2.21-.96-3.32.23-.54.58-.91.16-1.28-.02-2.33-1.1-4.51-.91-6.53.67-1.87,1.44-2.8,4.14-2.19,6.21.8,2.65,2.79,4.29,5.47,4.49Z"/><path class="cls-1" d="M85.25,74.72c-3.81-2.52-7.64-5.02-11.46-7.54.09-.56-.09-1.08-.35-1.56-.47-.89-1.24-1.48-2.04-2.05-1.11-.79-1.8-1.84-2.04-3.2-.14-.83-.05-1.66-.04-2.48.03-1.2.05-2.42.07-3.62,7.28-.03,19.88-.09,21.81-.05,1.57.04,1.53-3.87-.22-3.98-2.82-.17-22.52-2.12-24.88-2.12s-4.24,2.52-5.06,4.04c-.66,1.25-.99,2.56-.81,3.96.2,1.46.84,2.73,1.71,3.89.49.64.7,1.32.7,2.11,0,1.21-.07,2.41.06,3.63.1.45.2.89.31,1.34.44,2.04,1.36,3.81,2.76,5.34.31.36.66.67,1.08.93.14.09.24.2.32.34.33.14.63.34,1,.38h0s.04.04.07.06c.51-.06,27.96,9.55,28.54,9.67.57.11.74-.33,1.17-.69.62-.52.81-1.22.75-2-.2-.6-12.74-5.92-13.47-6.39Z"/><path class="cls-1" d="M66.09,34.29c.71,0,1.45.13,2.17.37-.12-5.35-.24-10.31-.24-11.47,0-1.57-3.91-1.45-3.98.31-.04,1.19-.34,6.14-.66,11.44.88-.41,1.78-.64,2.71-.64Z"/></g></svg>