<?xml version="1.0" encoding="UTF-8"?><svg id="_レイヤー_2" xmlns="http://www.w3.org/2000/svg" viewBox="0 0 150 150"><defs><style>.cls-1{fill-rule:evenodd;}.cls-1,.cls-2,.cls-3{stroke-width:0px;}.cls-1,.cls-3{fill:#fff;}.cls-2{fill:none;}</style></defs><g id="_レイヤー_1-2"><rect class="cls-2" width="150" height="150" rx="23.44" ry="23.44"/><path class="cls-3" d="M32.68,113.58v2.96h5.18v2.08h-5.18v4.08h-2.59v-11.2h8.46v2.08h-5.87Z"/><path class="cls-3" d="M40.28,111.5h2.59v11.2h-2.59v-11.2Z"/><path class="cls-3" d="M47.75,113.61h-3.58v-2.11h9.76v2.11h-3.58v9.09h-2.59v-9.09Z"/><path class="cls-3" d="M53.91,117.19h4.53v2h-4.53v-2Z"/><path class="cls-3" d="M62,113.61h-3.58v-2.11h9.76v2.11h-3.58v9.09h-2.59v-9.09Z"/><path class="cls-3" d="M78.14,120.62v2.08h-8.67v-11.2h8.46v2.08h-5.89v2.43h5.2v2.02h-5.2v2.59h6.1Z"/><path class="cls-3" d="M90.56,111.5v11.2h-2.13l-5.58-6.8v6.8h-2.56v-11.2h2.14l5.57,6.8v-6.8h2.56Z"/><path class="cls-3" d="M103.47,111.5v11.2h-2.13l-5.58-6.8v6.8h-2.56v-11.2h2.14l5.57,6.8v-6.8h2.56Z"/><path class="cls-3" d="M106.12,111.5h2.59v11.2h-2.59v-11.2Z"/><path class="cls-3" d="M112.58,122.53c-.83-.24-1.49-.55-1.99-.94l.88-1.95c.48.35,1.05.63,1.71.85.66.21,1.32.32,1.98.32.74,0,1.28-.11,1.63-.33.35-.22.53-.51.53-.87,0-.27-.1-.49-.31-.66s-.47-.32-.8-.42c-.33-.11-.77-.22-1.32-.35-.85-.2-1.55-.41-2.1-.61-.54-.2-1.01-.53-1.4-.98-.39-.45-.58-1.04-.58-1.79,0-.65.18-1.24.53-1.77.35-.53.88-.95,1.59-1.26.71-.31,1.58-.46,2.6-.46.71,0,1.41.08,2.1.26s1.28.42,1.79.74l-.8,1.97c-1.04-.59-2.07-.88-3.1-.88-.73,0-1.26.12-1.61.35s-.52.54-.52.93.2.67.6.86c.4.19,1.01.37,1.83.55.85.2,1.55.41,2.1.61.54.2,1.01.52,1.4.96s.58,1.03.58,1.78c0,.64-.18,1.22-.54,1.75-.36.53-.89.95-1.61,1.26-.71.31-1.58.46-2.61.46-.89,0-1.74-.12-2.57-.36Z"/><path class="cls-3" d="M86.35,24.65c.48,3.77-2.19,7.2-5.96,7.68-3.77.48-7.2-2.19-7.68-5.96s2.19-7.2,5.96-7.68c3.77-.48,7.2,2.19,7.68,5.96Z"/><path class="cls-3" d="M102.68,41.89c-.44-1.75-.83-2.59-2.59-2.17l-11.54,2.53-11.91-8c-6.7-3.36-9.04,2.64-9.04,2.64-.2.39-1.99,3.9-3.08,8.57-1.36,5.82-1.04,11.06.89,15.34.07.17.58,1.17.76,1.49l5.66,10.67-8.72,11.65c-1.09,1.45-.26,3.04,1.33,4.23.78.58,2.81,1.07,3.75-.07l10.77-13.33c.84-1.12.95-2.62.29-3.86l-1.78-7.9c-1.81-7.89-.58-14.7.59-18.03l7.63,2.88c.94.39,1.86.61,2.64.51.13-.02.26-.04.39-.08l12.86-3.64c1.75-.42,1.52-1.68,1.08-3.43Z"/><path class="cls-1" d="M98.56,18.91c-1.52-1.64-3.37-2.56-5.65-1.91-2.33.67-3.41,2.46-3.82,4.7-.63,3.47,1,6.87,4.08,8.68,2,1.18,3.53,2.71,4.01,5.11.24,1.2.66,2.37,1.01,3.56.66-.19,1.22-.35,1.93-.56-.34-1.18-.58-2.33-1-3.41-.91-2.36-.44-4.53.67-6.66,1.63-3.13,1.16-6.94-1.23-9.51ZM93.3,28.88c-2.94-1.67-4.03-6.15-2.19-9,1.12-1.73,3.02-2.25,4.88-1.35,1.5.73,2.73,2.28,3.37,4.53.31,1.16.27,2.71-.51,4.2-1.12,2.13-3.47,2.8-5.56,1.62Z"/><path class="cls-1" d="M53,53.5c.21,1.65-.96,3.16-2.61,3.36-1.65.21-3.16-.96-3.36-2.61-.21-1.65.96-3.16,2.61-3.36,1.65-.21,3.16.96,3.37,2.61Z"/><path class="cls-3" d="M78.75,63.39c-.6-2.62-.86-5.16-.88-7.53l14.44,7.06c.86.38,1.53,1.08,1.88,1.96l5.38,14.56c.68,1.85-.51,2.85-2.39,3.52-1.7.61-2.91.6-3.48-.96l-5.66-13.1-8.79-3.27-.51-2.25Z"/></g></svg>