<?xml version="1.0" encoding="UTF-8"?><svg id="_レイヤー_2" xmlns="http://www.w3.org/2000/svg" viewBox="0 0 150 150"><defs><style>.cls-1{fill:none;}.cls-1,.cls-2{stroke-width:0px;}.cls-2{fill:#fff;}</style></defs><g id="_レイヤー_1-2"><path class="cls-1" d="M23.44,0h103.13c12.94,0,23.44,10.5,23.44,23.44v103.12c0,12.94-10.5,23.44-23.44,23.44H23.44c-12.94,0-23.44-10.5-23.44-23.44V23.44C0,10.5,10.5,0,23.44,0Z"/><path class="cls-2" d="M39.69,113.55c-.93-.5-1.66-1.19-2.19-2.07s-.79-1.87-.79-2.97.26-2.09.79-2.97,1.26-1.57,2.19-2.07c.93-.5,1.98-.75,3.14-.75s2.21.25,3.14.75c.93.5,1.66,1.19,2.19,2.07s.8,1.87.8,2.97-.27,2.09-.8,2.97-1.26,1.57-2.19,2.07c-.93.5-1.97.75-3.14.75s-2.21-.25-3.14-.75ZM44.63,111.63c.53-.3.95-.73,1.26-1.27s.46-1.16.46-1.86-.15-1.31-.46-1.86-.72-.97-1.26-1.27c-.53-.3-1.13-.46-1.79-.46s-1.26.15-1.79.46c-.53.3-.95.73-1.26,1.27s-.46,1.16-.46,1.86.15,1.31.46,1.86.72.97,1.26,1.27c.53.3,1.13.46,1.79.46s1.26-.15,1.79-.46Z"/><path class="cls-2" d="M55.11,107.55v1.23h-4.93v-.98l2.52-2.38c.27-.25.45-.47.54-.66.09-.18.14-.37.14-.55,0-.26-.09-.46-.27-.6-.18-.14-.44-.21-.78-.21-.29,0-.54.05-.77.16-.23.11-.42.27-.58.49l-1.1-.71c.25-.38.61-.68,1.05-.89.45-.21.96-.32,1.54-.32.49,0,.91.08,1.27.24.36.16.65.38.85.67s.3.63.3,1.02c0,.35-.07.69-.22,1-.15.31-.44.67-.87,1.06l-1.5,1.42h2.81Z"/><path class="cls-2" d="M68.36,114.1l-2.16-3.12h-2.38v3.12h-2.59v-11.2h4.85c.99,0,1.85.17,2.58.5.73.33,1.29.8,1.69,1.41.39.61.59,1.33.59,2.16s-.2,1.55-.6,2.15c-.4.6-.97,1.06-1.7,1.38l2.51,3.6h-2.78ZM67.7,105.52c-.41-.34-1-.5-1.78-.5h-2.11v3.9h2.11c.78,0,1.37-.17,1.78-.51.41-.34.61-.82.61-1.44s-.2-1.11-.61-1.45Z"/><path class="cls-2" d="M75.19,113.55c-.93-.5-1.66-1.19-2.19-2.07s-.79-1.87-.79-2.97.26-2.09.79-2.97,1.26-1.57,2.19-2.07c.93-.5,1.98-.75,3.14-.75s2.21.25,3.14.75c.93.5,1.66,1.19,2.19,2.07s.8,1.87.8,2.97-.27,2.09-.8,2.97-1.26,1.57-2.19,2.07c-.93.5-1.97.75-3.14.75s-2.21-.25-3.14-.75ZM80.13,111.63c.53-.3.95-.73,1.26-1.27s.46-1.16.46-1.86-.15-1.31-.46-1.86-.72-.97-1.26-1.27c-.53-.3-1.13-.46-1.79-.46s-1.26.15-1.79.46c-.53.3-.95.73-1.26,1.27s-.46,1.16-.46,1.86.15,1.31.46,1.86.72.97,1.26,1.27c.53.3,1.13.46,1.79.46s1.26-.15,1.79-.46Z"/><path class="cls-2" d="M88.68,113.55c-.93-.5-1.66-1.19-2.19-2.07s-.79-1.87-.79-2.97.26-2.09.79-2.97,1.26-1.57,2.19-2.07c.93-.5,1.98-.75,3.14-.75s2.21.25,3.14.75c.93.5,1.66,1.19,2.19,2.07s.8,1.87.8,2.97-.27,2.09-.8,2.97-1.26,1.57-2.19,2.07c-.93.5-1.97.75-3.14.75s-2.21-.25-3.14-.75ZM93.61,111.63c.53-.3.95-.73,1.26-1.27s.46-1.16.46-1.86-.15-1.31-.46-1.86-.72-.97-1.26-1.27c-.53-.3-1.13-.46-1.79-.46s-1.26.15-1.79.46c-.53.3-.95.73-1.26,1.27s-.46,1.16-.46,1.86.15,1.31.46,1.86.72.97,1.26,1.27c.53.3,1.13.46,1.79.46s1.26-.15,1.79-.46Z"/><path class="cls-2" d="M110.09,114.1l-.02-6.72-3.3,5.54h-1.17l-3.28-5.39v6.58h-2.43v-11.2h2.14l4.19,6.96,4.13-6.96h2.13l.03,11.2h-2.43Z"/><path class="cls-2" d="M46.59,132.18c-.44,0-.8-.14-1.08-.42-.64-.64-1.13-1.37-1.48-2.18-.35-.82-.52-1.67-.52-2.57s.18-1.73.53-2.55c.35-.82.84-1.55,1.47-2.19.29-.29.65-.43,1.08-.43h.08c.12,0,.2.05.24.17.04.11.03.21-.06.29-1.28,1.39-1.91,2.97-1.91,4.72s.63,3.38,1.9,4.73c.08.08.1.17.06.28-.04.11-.12.16-.24.16h-.08Z"/><path class="cls-2" d="M49.44,123.48c-.16,0-.3-.06-.41-.17-.11-.11-.17-.25-.17-.41s.06-.3.17-.42c.11-.12.25-.18.41-.18h3.6c.16,0,.3.06.41.18.11.12.17.26.17.42s-.06.3-.17.41-.25.17-.41.17h-.39c-.06,0-.09.03-.09.1v.58c0,.06.03.09.09.09h.33c.17,0,.32.06.44.19.12.12.19.27.19.44v1.32s0,.02.02.02.03,0,.03-.02c.05-.07.1-.13.15-.17.35-.26.59-.64.7-1.13.01-.06,0-.09-.07-.09-.04,0-.11.01-.19.01s-.14,0-.19.01c-.16,0-.3-.04-.42-.15-.12-.11-.18-.25-.2-.41,0-.16.04-.3.15-.42.11-.12.25-.19.41-.19.05,0,.09-.03.12-.08.2-.4.39-.79.56-1.19.08-.17.2-.3.36-.39.16-.09.33-.12.51-.09h.12c.15.03.27.11.34.25s.08.28.01.42c-.05.1-.12.25-.22.45-.1.2-.17.35-.21.45,0,.02,0,.03,0,.05.01.02.03.03.05.03.14,0,.29-.02.45-.03s.34-.03.53-.06c.19-.02.35-.04.46-.04.02,0,.04-.01.05-.03.01-.02.01-.04,0-.07-.13-.23-.21-.35-.22-.37-.08-.14-.09-.28-.04-.43.05-.15.16-.25.3-.3.17-.06.33-.06.5,0,.17.06.3.17.39.32.4.66.67,1.13.81,1.42.07.15.08.3.02.46s-.17.27-.32.33l-.15.07c-.12.05-.25.05-.36,0-.12-.05-.21-.13-.26-.25-.02-.04-.05-.05-.1-.05-.03,0-.08.01-.14.02-.06,0-.11.01-.14.01-.07.01-.1.05-.1.1v1c0,.14.01.22.04.24.03.02.13.03.3.03.13,0,.22-.01.26-.04s.07-.1.09-.24c.01-.14.08-.25.19-.35.11-.09.23-.13.36-.12.15.01.27.08.36.2s.14.25.12.4c-.01.21-.03.38-.05.51-.02.12-.05.24-.11.34-.06.1-.11.17-.16.21-.05.04-.14.08-.27.11s-.26.05-.38.05-.3,0-.54,0c-.54,0-.91-.03-1.09-.09-.06-.01-.1,0-.12.04-.04.07-.1.18-.19.33-.01.01-.02.03,0,.05.01.02.03.03.05.03h2.01c.15,0,.27.05.37.16.1.11.15.23.15.37,0,.37-.09.69-.26.96-.26.4-.6.79-1,1.16-.04.04-.04.08.01.11.37.18.75.34,1.13.46.16.06.28.16.36.31s.09.3.04.46c-.06.16-.16.28-.31.36-.15.08-.3.1-.46.04-.64-.21-1.25-.5-1.83-.87-.06-.04-.11-.04-.17-.01-.69.4-1.45.71-2.27.92-.15.04-.3.02-.45-.05-.14-.07-.25-.18-.31-.32-.02-.04-.06-.06-.12-.04-.07.01-.13.02-.17.02h-2.71s-.07.02-.07.05c0,.11-.04.2-.12.28s-.17.12-.28.12h-.2c-.16,0-.3-.06-.42-.17-.12-.11-.18-.25-.18-.42v-6.4c0-.17.06-.32.19-.44s.27-.19.44-.19h.31c.06,0,.09-.03.09-.09v-.58c0-.07-.03-.1-.09-.1h-.52ZM50.21,128.2v.3c0,.07.03.1.1.1h2.07c.07,0,.1-.03.1-.1v-.62c0-.06-.03-.09-.1-.09h-.34c-.25,0-.41-.04-.47-.12-.07-.08-.1-.28-.1-.58v-1.64c0-.07-.03-.1-.1-.1h-.03c-.06,0-.09.03-.09.1,0,.71-.03,1.25-.09,1.61s-.19.71-.37,1.07c-.05.1-.13.15-.24.17-.11.01-.2-.02-.28-.1,0,0-.02-.01-.03-.01s-.02,0-.02.02ZM50.21,125.45v1.62s0,.02.02.03c.01,0,.02,0,.03,0,.13-.31.2-.86.2-1.65,0-.06-.03-.09-.09-.09h-.05c-.07,0-.1.03-.1.1ZM50.21,129.74v.47c0,.06.03.09.1.09h2.07c.07,0,.1-.03.1-.09v-.47c0-.07-.03-.1-.1-.1h-2.07c-.07,0-.1.03-.1.1ZM51.17,123.58v.58c0,.06.03.09.1.09h.12c.07,0,.1-.03.1-.09v-.58c0-.07-.03-.1-.1-.1h-.12c-.07,0-.1.03-.1.1ZM52.22,125.45v1.13c0,.09,0,.14.02.15s.06.02.14.02c.07,0,.1-.03.1-.09v-1.22c0-.07-.03-.1-.1-.1h-.07c-.07,0-.1.03-.1.1ZM54.51,127.09c-.13.11-.28.15-.46.12-.17-.03-.31-.12-.4-.27,0,0-.02-.01-.03-.01-.01,0-.02,0-.02.02v1.53s0,.03.02.03c.01,0,.02,0,.04-.01l.04-.04c.48-.41.9-.89,1.24-1.43.1-.15.23-.27.4-.33s.33-.08.51-.04l.3.08s.03,0,.04-.01.02-.03.01-.04c-.04-.1-.06-.27-.06-.51v-1.38c0-.06-.04-.09-.11-.09-.01,0-.04,0-.08,0-.04,0-.07,0-.09,0-.06,0-.1.04-.11.11-.15.95-.56,1.7-1.25,2.27ZM55.33,130.14s.03-.03.04-.05,0-.05-.02-.07c-.24-.24-.46-.48-.64-.71-.04-.05-.08-.05-.12-.01-.01.01-.04.04-.08.07-.04.03-.06.06-.08.07-.11.1-.24.14-.38.14s-.28-.06-.38-.16c-.01-.01-.03-.02-.04-.01-.01,0-.02.02-.02.03v1.18c0,.07.03.09.09.08.59-.14,1.14-.32,1.63-.55ZM57.25,128.43h-1.64c-.07,0-.08.02-.05.07.24.37.51.67.8.91.04.04.09.04.13,0,.31-.26.58-.57.8-.91.03-.04.01-.07-.04-.07Z"/><path class="cls-2" d="M60.42,126.48c-.14,0-.26-.05-.36-.15s-.15-.23-.15-.37.05-.27.15-.37c.1-.1.22-.15.36-.15h3.66c.06,0,.09-.03.09-.09v-.23c0-.06-.03-.09-.09-.09h-2.92c-.13,0-.24-.05-.34-.14-.09-.09-.14-.21-.14-.34s.04-.24.14-.34.2-.14.34-.14h2.92c.06,0,.09-.03.09-.1v-.22c0-.07-.03-.1-.09-.1h-3.22c-.15,0-.27-.05-.38-.16s-.16-.23-.16-.38.05-.27.16-.38.23-.16.38-.16h3.22c.06,0,.09-.03.09-.08,0-.16.06-.3.17-.41s.25-.17.41-.17h.42c.16,0,.3.06.41.17s.17.25.17.41c0,.05.03.08.09.08h3.22c.15,0,.27.05.38.16s.16.23.16.38-.05.27-.16.38-.23.16-.38.16h-3.22c-.06,0-.09.03-.09.1v.22c0,.07.03.1.09.1h2.92c.13,0,.24.05.34.14.09.09.14.2.14.34s-.05.25-.14.34c-.09.1-.2.14-.34.14h-2.92c-.06,0-.09.03-.09.09v.23c0,.06.03.09.09.09h3.66c.14,0,.26.05.36.15.1.1.15.22.15.37s-.05.27-.15.37c-.1.1-.22.15-.36.15h-1.62s-.02,0-.03.02,0,.03.02.04c.11.1.16.23.15.38-.01.15-.08.27-.2.36-.7.48-1.37.91-2.02,1.29-.01,0-.02.02-.02.03,0,.01,0,.02.02.02l1.89-.03s.03,0,.03-.03c0-.02,0-.03,0-.04-.09-.1-.12-.22-.09-.35.03-.13.1-.22.21-.28l.14-.08c.16-.08.33-.1.52-.07.19.04.34.12.46.26.5.59.79.94.86,1.03.1.12.14.27.1.43s-.12.28-.26.36l-.07.03c-.15.08-.32.1-.48.07-.17-.03-.31-.12-.42-.26-.04-.04-.08-.07-.14-.07l-1.23.03s-.02,0-.02.02,0,.02.01.03c.86.37,1.54.69,2.06.96.15.07.24.19.28.34.04.15.02.3-.07.44-.1.14-.23.23-.4.28s-.33.03-.48-.06c-.48-.25-1.1-.55-1.88-.91-.15-.07-.24-.18-.29-.33-.04-.16-.02-.3.08-.43l.18-.23c.04-.05.02-.08-.04-.08l-.96.02c-.06,0-.09.03-.09.1v1.6c0,.17-.06.31-.19.43s-.27.18-.44.18h-.25c-.17,0-.32-.06-.44-.18-.12-.12-.19-.27-.19-.43v-1.56c0-.06-.03-.09-.1-.09l-1.07.02s-.03,0-.03.03c0,.02,0,.04,0,.05l.15.18c.1.12.14.27.11.43s-.11.28-.25.36c-.54.3-1.14.59-1.83.88-.16.07-.32.07-.49.02-.17-.05-.3-.15-.39-.3-.08-.13-.1-.27-.04-.42.05-.15.15-.25.3-.31.61-.25,1.2-.53,1.78-.85,0,0,.01-.02.01-.03s0-.02-.02-.02l-1.75.04c-.15,0-.28-.04-.39-.15-.11-.11-.16-.24-.17-.39,0-.15.04-.27.15-.38s.23-.16.38-.17l2.09-.04s.03,0,.03-.02c0-.01,0-.03-.01-.04-.67-.51-1.08-.81-1.21-.9-.12-.1-.19-.22-.19-.37s.06-.27.18-.37l.11-.09c.15-.11.31-.17.51-.17.19,0,.36.05.51.16.01.01.03.03.06.05.03.02.05.04.06.04.05.04.1.04.15,0,.09-.06.33-.21.69-.45,0,0,0-.02,0-.03,0-.01-.01-.02-.03-.02h-3.07ZM66.7,126.48h-1.25c-.06,0-.1.03-.11.1-.02.12-.08.21-.18.26-.51.37-.95.66-1.33.89-.05.04-.06.07-.01.1.03.02.08.06.14.12s.12.1.15.12c.06.04.12.05.18.01.84-.5,1.65-1.02,2.43-1.56.03-.03.02-.04-.02-.04Z"/><path class="cls-2" d="M71.07,130.95l-.13-.2c-.09-.15-.11-.3-.07-.46.04-.16.13-.28.28-.37.59-.37.98-.87,1.16-1.51s.26-1.81.26-3.51v-1.62c0-.17.06-.31.18-.43s.27-.18.43-.18h.26c.17,0,.31.06.43.18s.18.27.18.43v1.62c0,1.35-.07,2.42-.2,3.21-.13.79-.34,1.41-.64,1.88s-.71.85-1.26,1.18c-.15.09-.32.11-.48.07s-.3-.14-.41-.29ZM76.11,131.36c-.17,0-.31-.05-.43-.18-.12-.12-.18-.27-.18-.44v-7.45c0-.17.06-.31.19-.43s.27-.18.44-.18h.27c.17,0,.32.06.44.18.12.12.19.27.19.43v6.45c0,.06.03.08.09.07.61-.17,1.09-.49,1.43-.97.34-.48.59-1.16.73-2.03.03-.17.11-.3.25-.41.14-.1.29-.14.45-.12l.15.02c.17.02.31.1.42.24.11.14.15.29.12.46-.41,2.79-1.93,4.24-4.55,4.37Z"/><path class="cls-2" d="M82.41,127.74c-.17,0-.31-.06-.43-.19-.12-.12-.18-.27-.18-.44v-.22c0-.17.06-.31.18-.44s.27-.19.43-.19h7.85c.17,0,.31.06.43.19s.18.27.18.44v.22c0,.17-.06.32-.18.44-.12.12-.27.19-.43.19h-7.85Z"/><path class="cls-2" d="M91.92,131.05c-.17,0-.32-.05-.45-.17-.13-.12-.2-.27-.21-.43v-.07c0-.17.05-.32.17-.45s.27-.2.43-.21c.04,0,.11-.01.2-.01s.15,0,.2-.01c.06,0,.1-.03.12-.09h0c.75-2.01,1.41-4.17,1.98-6.49.04-.17.14-.3.29-.4.15-.09.3-.12.47-.09l.27.04c.17.04.3.13.39.27.09.14.12.3.08.46-.51,2.1-1.12,4.13-1.83,6.08-.01.06,0,.09.07.09,1.4-.12,2.84-.28,4.33-.5.07-.01.08-.05.05-.11-.4-.85-.69-1.47-.88-1.87-.08-.15-.09-.31-.04-.47.06-.16.16-.28.33-.35l.21-.09c.16-.07.32-.08.48-.02s.28.17.36.32c.54,1.13,1.13,2.39,1.75,3.77.07.15.08.31.01.46-.07.15-.18.26-.34.33l-.23.1c-.16.07-.32.07-.48,0-.16-.07-.27-.18-.35-.34,0,0-.03-.06-.08-.16s-.08-.17-.1-.23c-.02-.07-.06-.09-.12-.08-2.48.37-4.85.6-7.11.7Z"/><path class="cls-2" d="M103.33,132.18c-.12,0-.2-.05-.24-.16-.04-.11-.02-.2.06-.28,1.27-1.35,1.9-2.93,1.9-4.73s-.64-3.33-1.91-4.72c-.08-.08-.1-.18-.05-.29.04-.11.12-.17.24-.17h.08c.43,0,.79.14,1.08.43.63.65,1.12,1.38,1.47,2.19.35.82.53,1.67.53,2.55s-.17,1.75-.52,2.57c-.35.82-.84,1.55-1.48,2.18-.28.28-.64.42-1.08.42h-.08Z"/><path class="cls-2" d="M88.41,23.19h-26.81c-7.93,0-14.35,6.43-14.35,14.35v45.52h55.51v-45.52c0-7.92-6.43-14.35-14.35-14.35ZM87.29,73.55c0,2.69-2.17,4.86-4.86,4.86h-14.88c-2.68,0-4.85-2.17-4.85-4.86v-33.73c0-2.69,2.17-4.86,4.85-4.86h14.88c2.68,0,4.86,2.17,4.86,4.86v33.73h0Z"/><path class="cls-2" d="M76.73,63.01c-1.19,1.32-2.81,1.97-4.86,1.97s-3.67-.65-4.86-1.97c-1.18-1.32-1.78-3.15-1.78-5.5s.6-4.18,1.78-5.5c1.18-1.32,2.81-1.97,4.86-1.97s3.67.66,4.86,1.97c1.19,1.32,1.78,3.15,1.78,5.5s-.59,4.18-1.78,5.5ZM75.65,57.51c0-3.46-1.27-5.18-3.78-5.18s-3.79,1.73-3.79,5.18,1.26,5.18,3.79,5.18c2.52,0,3.78-1.72,3.78-5.18Z"/><path class="cls-2" d="M84.76,59.53c0,.62-.21,1.23-.6,1.8-.39.58-1.16,1.34-2.3,2.29-.02,0-.02.02-.02.03,0,0,0,.01,0,.01h2.58c.1,0,.17.03.24.1.07.07.1.15.1.25v.43c0,.09-.03.18-.1.25-.07.07-.15.11-.24.11h-4.09c-.1,0-.17-.04-.25-.1-.07-.06-.1-.15-.1-.25v-.43c0-.24.1-.43.28-.58,1.21-.95,2.03-1.7,2.44-2.23.41-.53.61-1.04.61-1.53,0-.74-.4-1.11-1.19-1.11-.47,0-1.03.14-1.68.43-.08.03-.14.02-.22-.02-.07-.05-.1-.11-.1-.19v-.59c0-.24.11-.4.34-.48.62-.21,1.24-.3,1.86-.3.78,0,1.37.19,1.79.56.41.37.63.89.63,1.56Z"/></g></svg>