<?xml version="1.0" encoding="UTF-8"?><svg id="_レイヤー_2" xmlns="http://www.w3.org/2000/svg" xmlns:xlink="http://www.w3.org/1999/xlink" viewBox="0 0 150 150"><defs><style>.cls-1{fill-rule:evenodd;}.cls-1,.cls-2,.cls-3{stroke-width:0px;}.cls-1,.cls-3{fill:#fff;}.cls-2{fill:none;}.cls-4{clip-path:url(#clippath);}</style><clipPath id="clippath"><path class="cls-2" d="M45.54,19.12h58.92c2.51,0,4.54,2.03,4.54,4.54v58.92c0,2.51-2.03,4.54-4.54,4.54h-58.92c-2.51,0-4.54-2.03-4.54-4.54V23.66c0-2.51,2.03-4.54,4.54-4.54Z"/></clipPath></defs><g id="_レイヤー_1-2"><path class="cls-2" d="M23.44,0h103.13c12.94,0,23.44,10.5,23.44,23.44v103.13c0,12.94-10.5,23.44-23.44,23.44H23.44c-12.94,0-23.44-10.5-23.44-23.44V23.44C0,10.5,10.5,0,23.44,0Z"/><path class="cls-3" d="M39.75,113.87c-.25,0-.46-.09-.64-.26-.18-.18-.27-.39-.27-.63v-.11c0-.25.09-.46.27-.64.18-.18.39-.27.64-.27h8.34c.1,0,.14-.04.14-.13v-7.2c0-.08-.05-.13-.14-.13h-8.34c-.25,0-.46-.09-.64-.27-.18-.18-.27-.39-.27-.64v-.11c0-.25.09-.46.27-.63.18-.18.39-.26.64-.26h9.71c.25,0,.46.09.63.26.18.18.26.39.26.63v9.5c0,.25-.09.46-.26.63s-.39.26-.63.26h-9.71Z"/><path class="cls-3" d="M53.76,108.17c-.25,0-.46-.09-.64-.27s-.27-.39-.27-.64v-.11c0-.25.09-.46.27-.63s.39-.26.64-.26h10.8c.25,0,.46.09.64.26.18.18.27.39.26.63-.11,2.27-.91,4.04-2.41,5.29-1.5,1.25-3.74,2.01-6.73,2.28-.26.02-.49-.05-.69-.21-.2-.16-.33-.37-.37-.62l-.03-.13c-.04-.24.01-.45.17-.64.15-.19.35-.3.6-.32,2.02-.18,3.62-.63,4.81-1.35s1.95-1.77,2.28-3.14c.02-.09-.01-.13-.1-.13h-9.23ZM54.92,102.09h8.64c.25,0,.46.09.64.26s.27.39.27.63v.11c0,.25-.09.46-.27.64-.18.18-.39.27-.64.27h-8.64c-.25,0-.46-.09-.64-.27-.18-.18-.27-.39-.27-.64v-.11c0-.25.09-.46.27-.63s.39-.26.64-.26Z"/><path class="cls-3" d="M68.55,109.29c-.25,0-.46-.09-.63-.27s-.26-.39-.26-.64v-.32c0-.25.09-.46.26-.64.18-.18.39-.27.63-.27h11.42c.25,0,.46.09.63.27.18.18.26.39.26.64v.32c0,.25-.09.46-.26.64s-.39.27-.63.27h-11.42Z"/><path class="cls-3" d="M83.02,108.73c-.2-.14-.33-.33-.37-.56-.04-.24.01-.45.16-.66,1.07-1.51,1.78-3.24,2.13-5.18.05-.26.18-.46.37-.62.19-.16.42-.23.67-.22h.27c.25.02.45.13.61.32.16.19.22.41.18.66-.06.44-.14.85-.24,1.25-.02.08.02.13.11.13h8.42c.25,0,.46.09.63.26s.26.39.26.63v.11c0,.25-.09.46-.26.64-.18.18-.39.27-.63.27h-2.59c-.08,0-.13.04-.13.11-.01,2.56-.48,4.53-1.41,5.9-.93,1.37-2.38,2.31-4.37,2.81-.25.06-.48.03-.7-.11s-.36-.33-.42-.58l-.03-.11c-.06-.23-.03-.46.1-.66s.31-.34.56-.41c1.44-.39,2.48-1.11,3.11-2.15.63-1.04.96-2.59.97-4.66,0-.08-.05-.13-.14-.13h-3.97c-.1,0-.16.04-.19.11-.41.95-.93,1.86-1.58,2.72-.16.21-.37.34-.62.38-.26.04-.5-.01-.72-.16l-.16-.1ZM93.02,100.99c.21-.11.43-.12.65-.05.22.08.39.22.5.43.05.1.13.24.22.42.1.19.17.33.22.42.11.21.12.43.05.65-.08.22-.22.38-.43.47-.2.1-.41.11-.63.03-.22-.07-.38-.21-.49-.42-.05-.1-.13-.24-.22-.42-.1-.19-.17-.33-.22-.42-.11-.2-.13-.41-.06-.63.07-.22.21-.38.41-.49ZM96.62,101.13c.05.11.13.26.23.46.1.2.17.35.22.43.11.21.12.43.05.64-.08.21-.22.37-.43.48-.21.11-.43.12-.65.05-.22-.07-.39-.22-.5-.43-.1-.19-.25-.48-.46-.86-.11-.21-.12-.43-.06-.65s.21-.38.42-.49c.21-.11.44-.12.67-.05.24.07.41.21.51.42Z"/><path class="cls-3" d="M99.5,104.28c-.22-.11-.37-.28-.45-.51-.08-.23-.05-.46.06-.67l.16-.32c.12-.22.3-.37.54-.45.24-.07.48-.06.71.05,1.06.51,2.17,1.09,3.34,1.73.21.12.35.3.42.54.07.25.05.47-.07.69l-.18.32c-.12.21-.3.36-.54.42-.25.07-.47.05-.69-.07-1.25-.68-2.35-1.26-3.31-1.73ZM110.64,103.77c.25.05.44.19.58.4.14.21.18.44.13.69-.63,2.74-1.86,4.89-3.69,6.43-1.83,1.55-4.3,2.52-7.4,2.91-.26.03-.48-.03-.68-.18s-.32-.36-.36-.62l-.03-.29c-.04-.25,0-.47.16-.66.15-.2.35-.31.59-.34,2.62-.36,4.69-1.16,6.19-2.4,1.5-1.24,2.55-3,3.15-5.3.06-.25.2-.44.42-.58.21-.14.44-.18.69-.13l.26.06Z"/><path class="cls-3" d="M54.63,123.33c-.25,0-.46-.09-.63-.27-.18-.18-.26-.39-.26-.64v-.16c0-.25.09-.46.26-.64.18-.18.39-.27.63-.27h11.1c.25,0,.46.09.63.27.18.18.26.4.26.64v1.07c-.91,2.79-2.92,5.05-6.05,6.77-.08.04-.09.1-.03.18.15.21.36.52.62.92.27.4.46.69.58.86.14.21.18.44.13.67-.05.23-.19.42-.4.54l-.35.22c-.21.14-.44.18-.69.13-.25-.05-.44-.19-.59-.4-1.21-1.78-2.46-3.56-3.76-5.34-.15-.2-.2-.42-.15-.66.05-.24.17-.43.38-.57l.34-.22c.21-.15.45-.2.7-.15.25.05.45.17.6.38.12.16.51.7,1.18,1.62.05.07.12.09.19.05,1.14-.61,2.15-1.34,3.02-2.2.87-.86,1.51-1.74,1.91-2.65.04-.09.02-.13-.08-.13h-9.54Z"/><path class="cls-3" d="M69.29,126.59c-.25-.04-.44-.17-.58-.37-.14-.2-.19-.43-.14-.67l.02-.11c.04-.25.18-.44.4-.59.22-.15.46-.2.7-.14.6.11,1.76.33,3.49.67.25.04.43.17.57.38.13.21.17.44.12.7l-.02.11c-.05.25-.18.44-.39.58s-.43.19-.66.14c-2.04-.41-3.21-.63-3.5-.69ZM80.62,123.03c.25.04.44.17.58.38.14.21.19.43.14.66-.65,3-1.83,5.23-3.55,6.69-1.72,1.46-4.22,2.38-7.52,2.77-.26.03-.49-.03-.69-.18-.2-.16-.33-.36-.37-.62l-.03-.24c-.04-.23.01-.45.16-.64.15-.19.35-.3.59-.34,2.87-.33,5.01-1.08,6.42-2.25s2.4-3.02,2.95-5.54c.05-.25.18-.44.39-.58.21-.14.43-.2.68-.15l.24.05ZM74.07,121.49c.25.04.44.17.58.38.14.21.18.44.13.69l-.03.14c-.04.25-.17.44-.38.58s-.44.18-.68.13c-1.32-.27-2.54-.5-3.65-.69-.25-.04-.44-.17-.58-.37-.14-.2-.2-.43-.15-.67l.03-.13c.04-.25.17-.44.38-.59.21-.15.44-.2.69-.16,1.07.18,2.29.41,3.66.69Z"/><path class="cls-3" d="M84.02,123.28c-.22-.11-.37-.28-.45-.51-.08-.23-.05-.46.06-.67l.16-.32c.12-.22.3-.37.54-.45.24-.07.48-.06.71.05,1.06.51,2.17,1.09,3.34,1.73.21.12.35.3.42.54.07.25.05.47-.07.69l-.18.32c-.12.21-.3.36-.54.42-.25.07-.47.05-.69-.07-1.25-.68-2.35-1.26-3.31-1.73ZM95.16,122.77c.25.05.44.19.58.4.14.21.18.44.13.69-.63,2.74-1.86,4.89-3.69,6.43-1.83,1.55-4.3,2.52-7.4,2.91-.26.03-.48-.03-.68-.18s-.32-.36-.36-.62l-.03-.29c-.04-.25,0-.47.16-.66.15-.2.35-.31.59-.34,2.62-.36,4.69-1.16,6.19-2.4,1.5-1.24,2.55-3,3.15-5.3.06-.25.2-.44.42-.58.21-.14.44-.18.69-.13l.26.06Z"/><g class="cls-4"><path class="cls-3" d="M100.33,75.77l-.95-5.08-3.95-21.2-2.5-13.34c-.45-2.45-2.22-4.18-3.95-3.86l-14.71,2.72c-1.73.32-2.72,2.54-2.27,4.99l6.45,34.54c.45,2.45,2.22,4.18,3.95,3.86l9.89-1.86c.32-.05.59.41.5.77-.68,2.68.18,3.09,2.81,2.59.91-.18,2.59-.5,3.27-.68,1.13-.32,1.77-1.82,1.45-3.45ZM91.48,72.41c-1.51-.63-3.13-.96-4.77-.95-2.03-.06-4.04.42-5.81,1.41-.68.41-1.59-.18-1.77-1.22l-5.36-28.78c-.11-.31.05-.66.36-.77l12.48-2.31c.33,0,.61.26.63.59l5.67,30.32c.18,1.13-.55,2.09-1.45,1.72Z"/><path class="cls-3" d="M95.06,59.48c-.36,0-.7-.21-.84-.56-.19-.46.03-.99.5-1.18l1.77-.73c.62-.26,1.02-.85,1.03-1.53v-25.41s-.01-.08-.03-.13l-.33-.93c-.08-.22-.31-.35-.54-.29l-12.81,3.32c-.15.04-.26.12-.32.25l-.81,1.75c-.21.45-.75.65-1.2.44-.46-.21-.65-.75-.44-1.2l.82-1.77c.31-.63.86-1.07,1.52-1.23l12.78-3.31c1.13-.3,2.33.33,2.72,1.44l.32.91c.08.22.13.47.14.73v25.44c0,1.41-.85,2.66-2.15,3.2l-1.77.73c-.11.05-.23.07-.34.07Z"/><rect class="cls-3" x="88.25" y="26.39" width="2.27" height="3.27"/><polygon class="cls-3" points="113.58 26.88 86.53 26.57 86.53 22.03 113.58 21.71 113.58 26.88"/><path class="cls-1" d="M63.79,51.76c-1.54-3.5-6.13-5.04-9.71-3.27-.35.15-.75.13-1.09-.05-.95-1.18-2.09-1.63-3.5-1.04-1.55.61-2.61,2.06-2.72,3.72-.18,2,.45,2.91,2.4,3.27.95.18.73.82.82,1.32.19,2.91,2.13,5.41,4.9,6.31,2.73.96,5.76.27,7.81-1.77,2.15-2.3,2.59-5.72,1.09-8.49"/><path class="cls-1" d="M51.17,69.6s4.9-2.77,6.63-.64c1.73,2.13,3.99,17.97,3.99,17.97h-4.36l-6.26-17.34Z"/><path class="cls-3" d="M74.03,79.43c-1.58-1.44-3.39-3.72-3.43-5.73-.08-2.52-2.07-5.38-4.66-6.71.05.3.08.61.07.92.11,2.59,3.31,11.28,4.58,11.82h0c.79.34,2.16.06,3.44-.3Z"/><path class="cls-3" d="M81.76,80.67c0-.11-.06-.2-.14-.27l-.73-1c-.27-.37-.73-.54-1.18-.45-.54.14-1.32.32-2.36.59-.22.05-.47.11-.74.19l.34.24-1.3.4c-1.36.42-2.85.88-4.14.88-.53,0-1.02-.08-1.46-.26h0c-1.01-.43-2.19-2.46-3.51-6.03-1.05-2.83-1.84-5.77-1.89-7.01v-.02s0-.02,0-.02c0-.52-.1-1.05-.31-1.54l-.39-.91c-.62-.48-1.48-.75-2.66-.81-2.45-.12-6.86-1.86-8.24-.55,3.4-.03,7.34,1.77,9.83,8.86,1.84,5.26,3.51,8.76,6.1,9.96,1.53.71,3.43.6,5.81-.33,2.29-.89,4.58-1.16,6.9-1.02.07-.34.1-.66.07-.88Z"/><path class="cls-1" d="M94.82,98.19c2.9-2.85,6.18-6.09,5.72-8.21-.19-.86-1.05-1.58-2.58-2.14-1.19-.44-2.36-.89-3.5-1.32-7.04-2.71-13.12-5.04-19.17-2.68-2.74,1.07-4.98,1.17-6.87.3-3.03-1.39-4.86-5.14-6.82-10.74-2.13-6.07-5.57-8.69-10.21-7.77-.54.11-.94.43-1.25.99-.6,1.11-1.55,4.8,2.61,15.21.79,1.92,1.39,3.94,1.76,5.98,1.05,5.24,3.54,14.46,8.44,17.33,3.17,1.81,9.02,2.54,15.25,1.9,6.06-.62,11.02-2.42,12.64-4.58.98-1.32,2.44-2.75,3.98-4.27Z"/><path class="cls-3" d="M68.46,40.73s-.04,0-.06,0l-5.49-.45c-.37-.03-.65-.36-.62-.73s.35-.66.73-.62l5.49.45c.37.03.65.36.62.73-.03.36-.33.62-.68.62Z"/><path class="cls-3" d="M64.24,46.04c-.25,0-.48-.13-.6-.37-.17-.33-.04-.74.29-.92l4.72-2.45c.33-.17.74-.04.92.29s.04.74-.29.92l-4.72,2.45c-.1.05-.21.08-.31.08Z"/><path class="cls-3" d="M67.83,50.94c-.13,0-.26-.04-.37-.11-.31-.21-.4-.63-.19-.94l3-4.54c.21-.31.63-.4.94-.19.31.21.4.63.19.94l-3,4.54c-.13.2-.35.31-.57.31Z"/></g></g></svg>