<?xml version="1.0" encoding="UTF-8"?><svg id="_レイヤー_2" xmlns="http://www.w3.org/2000/svg" viewBox="0 0 150 150"><defs><style>.cls-1{fill:none;}.cls-1,.cls-2{stroke-width:0px;}.cls-2{fill:#fff;}</style></defs><g id="_レイヤー_1-2"><path class="cls-1" d="M23.44,0h103.13c12.94,0,23.44,10.5,23.44,23.44v103.13c0,12.94-10.5,23.44-23.44,23.44H23.44c-12.94,0-23.44-10.5-23.44-23.44V23.44C0,10.5,10.5,0,23.44,0Z"/><path class="cls-2" d="M49.86,109.96c.66,0,1.23.23,1.7.7.47.47.7,1.04.7,1.7s-.22,1.18-.65,1.64c-.43.46-.96.72-1.59.76-.08,0-.13.04-.13.11v.13c-.33,2.76-1.27,4.89-2.83,6.38s-3.79,2.43-6.69,2.82c-.26.03-.49-.03-.69-.18-.2-.16-.33-.35-.38-.6l-.05-.19c-.04-.23,0-.45.14-.65.14-.2.33-.31.58-.34,2.5-.34,4.35-1.12,5.58-2.35s1.94-3.05,2.15-5.47c0-.08-.04-.13-.11-.13h-8.82c-.25,0-.46-.09-.64-.27s-.27-.39-.27-.64v-.21c0-.25.09-.46.27-.64s.39-.27.64-.27h8.56c.07,0,.12-.05.14-.14.06-.61.32-1.12.78-1.53.45-.41.99-.62,1.61-.62ZM49.13,113.09c.2.2.45.3.74.3s.53-.1.74-.3c.2-.2.3-.45.3-.74s-.1-.53-.3-.74c-.2-.2-.45-.3-.74-.3s-.53.1-.74.3c-.2.2-.3.45-.3.74s.1.53.3.74Z"/><path class="cls-2" d="M54.62,123.67c-.25,0-.46-.09-.63-.27-.18-.18-.26-.39-.26-.64v-9.92c0-.25.09-.46.26-.64.18-.18.39-.27.63-.27h10.78c.25,0,.46.09.63.27.18.18.26.4.26.64v9.92c0,.25-.09.46-.26.64-.18.18-.39.27-.63.27h-10.78ZM55.96,114.02v7.55c0,.1.04.14.13.14h7.84c.08,0,.13-.05.13-.14v-7.55c0-.1-.04-.14-.13-.14h-7.84c-.09,0-.13.05-.13.14Z"/><path class="cls-2" d="M69.14,117.91c-.25,0-.46-.09-.64-.27-.18-.18-.27-.39-.27-.64v-.11c0-.25.09-.46.27-.63.18-.18.39-.26.64-.26h11.94c.25,0,.46.09.64.26.18.18.27.39.27.63v.11c0,.25-.09.46-.27.64-.18.18-.4.27-.64.27h-4.18c-.1,0-.14.04-.14.13-.02,1.65-.42,2.98-1.2,3.99-.78,1.01-1.98,1.75-3.6,2.22-.25.07-.48.05-.7-.08-.22-.13-.38-.32-.46-.56l-.06-.19c-.08-.24-.05-.46.07-.67.12-.21.3-.36.54-.45,1.13-.36,1.94-.88,2.42-1.54.48-.66.74-1.57.76-2.72,0-.09-.04-.13-.13-.13h-5.25ZM71,111.67h8.22c.25,0,.46.09.63.26s.26.39.26.63v.11c0,.25-.09.46-.26.64-.18.18-.39.27-.63.27h-8.22c-.25,0-.46-.09-.63-.27-.18-.18-.26-.39-.26-.64v-.11c0-.25.09-.46.26-.63s.39-.26.63-.26Z"/><path class="cls-2" d="M83.86,118.23l-.03-.18c-.04-.23,0-.45.15-.66.14-.2.34-.33.58-.38,1.95-.36,3.84-.97,5.67-1.83s3.41-1.89,4.74-3.08c.18-.17.39-.25.64-.24.25.01.45.11.61.29l.13.14c.17.19.25.42.23.67-.02.26-.12.47-.31.64-1.12.99-2.41,1.89-3.86,2.69-.08.04-.11.11-.11.19,0,.01,0,.02,0,.04,0,.02,0,.03,0,.04v6.88c0,.25-.09.46-.27.64-.18.18-.39.27-.64.27h-.48c-.25,0-.46-.09-.64-.27s-.27-.4-.27-.64v-5.87c0-.07-.04-.1-.11-.08-1.59.66-3.26,1.16-5.01,1.49-.25.04-.47-.01-.67-.16-.2-.15-.33-.35-.37-.59Z"/><path class="cls-2" d="M99.66,113.86c-.22-.11-.37-.28-.45-.51-.08-.23-.05-.46.06-.67l.16-.32c.12-.22.3-.37.54-.45.24-.07.48-.06.71.05,1.06.51,2.17,1.09,3.34,1.73.21.12.35.3.42.54.07.25.05.47-.07.69l-.18.32c-.12.21-.3.36-.54.42-.25.07-.47.05-.69-.07-1.25-.68-2.35-1.26-3.31-1.73ZM110.79,113.35c.25.05.44.19.58.4.14.21.18.44.13.69-.63,2.74-1.86,4.89-3.69,6.43-1.83,1.55-4.3,2.52-7.4,2.91-.26.03-.48-.03-.68-.18s-.32-.36-.36-.62l-.03-.29c-.04-.25,0-.47.16-.66.15-.2.35-.31.59-.34,2.62-.36,4.69-1.16,6.19-2.4,1.5-1.24,2.55-3,3.15-5.3.06-.25.2-.44.42-.58.21-.14.44-.18.69-.13l.26.06Z"/><rect class="cls-2" x="53.98" y="34.78" width="42.05" height="9" rx=".78" ry=".78"/><path class="cls-2" d="M89.16,28.39c-.25-.35-.81-.64-1.24-.64h-5.02c-.43,0-.78-.35-.78-.78v-2.01c0-.43-.35-.78-.78-.78h-12.66c-.43,0-.78.35-.78.78v2.01c0,.43-.35.78-.78.78h-5.26c-.43,0-.98.29-1.22.65l-2.85,4.28c-.24.36-.08.65.35.65h33.74c.43,0,.58-.29.33-.64l-3.04-4.3Z"/><path class="cls-2" d="M82.99,58.05c0-1.48-.49-2.72-1.48-2.72s-1.51,1.29-1.51,2.75c-.01,1.62.54,2.79,1.51,2.79s1.48-1.16,1.48-2.82Z"/><path class="cls-2" d="M73.99,55.27h-.31c-.18.03-.32.41-.32.84v.73c0,.43.11.78.25.78s.58-.13.98-.29c0,0,.55-.22.55-.91,0-.97-.71-1.15-1.16-1.15Z"/><path class="cls-2" d="M67.2,55.31h-.26c-.18.04-.32.42-.32.85v.86c0,.43.11.79.24.81h.2c.9,0,1.38-.54,1.38-1.31s-.47-1.21-1.24-1.21Z"/><path class="cls-2" d="M58.13,45.31c-.43,0-.76.35-.72.78l3.06,40.24c.03.43.41.78.84.78h27.39c.43,0,.81-.35.84-.78l3.06-40.24c.03-.43-.29-.78-.72-.78h-33.74ZM68.87,65.74c0,.43-.35.78-.78.78h-.38c-.43,0-.78.35-.78.78v5.22c0,.43-.35.78-.78.78h-.36c-.43,0-.78-.35-.78-.78v-5.22c0-.43-.35-.78-.78-.78h-.35c-.43,0-.78-.35-.78-.78v-.12c0-.43.35-.78.78-.78h4.23c.43,0,.78.35.78.78v.12ZM67.1,59.34h-.19c-.16-.01-.3.33-.3.76v1.46c0,.43-.35.78-.78.78h-.35c-.43,0-.78-.35-.78-.78v-6.79c0-.43.35-.83.78-.89,0,0,.54-.07,1.51-.07,1.12,0,1.94.19,2.51.67.54.44.86,1.16.86,1.95,0,2.36-1.92,2.91-3.25,2.91ZM74.64,72.53c0,.43-.35.78-.78.78h-3.25c-.43,0-.78-.35-.78-.78v-6.91c0-.43.35-.78.78-.78h3.08c.43,0,.78.35.78.78v.05c0,.43-.35.78-.78.78h-1.15c-.43,0-.78.35-.78.78v.13c0,.43.35.78.78.78h1.01c.43,0,.78.35.78.78h0c0,.44-.35.8-.78.8h-1.01c-.43,0-.78.35-.78.78v.41c0,.43.35.78.78.78h1.32c.43,0,.78.35.78.78v.05ZM74.87,60.35c-.19-1.03-.38-1.09-.38-1.09-.41-.12-.84-.22-.94-.22s-.19.35-.19.78v1.74c0,.43-.35.78-.78.78h-.35c-.43,0-.78-.35-.78-.78v-6.79c0-.43.35-.83.78-.88,0,0,.64-.08,1.52-.08,1.13,0,3.35.12,3.35,2.45,0,1-.78,1.6-.78,1.6-.34.26-.62.49-.62.5s.26.26.59.54c0,0,.29.26.49,1.07.22.91.42,1.62.42,1.62.12.42-.14.75-.57.75h-.43c-.43,0-.89-.33-1.03-.74,0,0-.08-.25-.27-1.25ZM77.8,72.53c0,.43-.35.78-.78.78h-.36c-.43,0-.78-.35-.78-.78v-6.91c0-.43.35-.78.78-.78h.36c.43,0,.78.35.78.78v6.91ZM77.96,58.12c0-2.39,1.32-4.38,3.6-4.38,2.47,0,3.46,2.18,3.46,4.25,0,2.95-1.44,4.48-3.58,4.48-2.34,0-3.48-2.02-3.48-4.34ZM85.62,72.53c0,.43-.35.78-.78.78h-.35c-.43,0-.94-.32-1.12-.71l-.8-1.67c-.19-.39-.49-1.03-.67-1.42l-.57-1.36c-.16-.4-.3-.73-.31-.73s0,.35.01.78l.05,2.23c0,.43.01,1.14.01,1.57v.52c0,.43-.35.78-.78.78h-.17c-.43,0-.78-.35-.78-.78v-6.91c0-.43.35-.78.78-.78h.5c.43,0,.94.32,1.12.71l.77,1.62c.19.39.48,1.03.66,1.42l.55,1.26c.16.4.3.73.3.73s-.01-.35-.04-.78l-.09-2.16c-.01-.43-.02-1.14-.02-1.57v-.45c0-.43.35-.78.78-.78h.17c.43,0,.78.35.78.78v6.91Z"/><path class="cls-2" d="M111.52,23.11c-.23-.43-.54-.81-.92-1.11-1.04-.82-2.48-.96-3.65-.35-.95.49-1.94,1.58-3.43,3.24-.89.98-1.89,2.1-3.15,3.37-.17.17-.21.43-.1.65.04.07.09.14.15.18.12.09.27.14.43.11,1.78-.28,3.26-.46,4.58-.61,2.21-.26,3.67-.43,4.63-.92,1.66-.86,2.32-2.91,1.46-4.57Z"/><path class="cls-2" d="M100.15,19.74c-.64-.49-1.42-.7-2.21-.59-.79.11-1.49.51-1.98,1.15-.57.74-.93,1.95-1.48,3.8-.33,1.08-.7,2.32-1.2,3.77-.08.23,0,.48.18.62h0c.19.15.45.16.66.02,1.27-.87,2.36-1.55,3.32-2.15,1.62-1.02,2.7-1.69,3.27-2.43.49-.65.68-1.43.59-2.19-.1-.75-.49-1.48-1.14-1.99Z"/><path class="cls-1" d="M39.94,27.68c.95.49,2.41.66,4.63.92,1.32.15,2.81.33,4.58.61.16.03.31-.02.43-.11.06-.05.12-.11.15-.18.11-.21.07-.48-.1-.65-1.26-1.28-2.26-2.39-3.15-3.37-1.49-1.66-2.48-2.75-3.43-3.24-1.18-.61-2.61-.47-3.65.35-.38.3-.69.67-.92,1.11-.85,1.66-.2,3.71,1.46,4.57Z"/><path class="cls-1" d="M48.7,21.73c-.1.76.09,1.55.59,2.19.56.74,1.64,1.42,3.27,2.43.96.6,2.05,1.28,3.32,2.15.2.14.46.13.66-.01h0c.18-.15.26-.4.18-.63-.5-1.46-.87-2.69-1.2-3.77-.55-1.84-.92-3.06-1.48-3.8-.48-.64-1.19-1.04-1.98-1.15-.79-.11-1.57.1-2.21.59-.65.51-1.04,1.24-1.14,1.99Z"/></g></svg>