<?xml version="1.0" encoding="UTF-8"?><svg id="_レイヤー_2" xmlns="http://www.w3.org/2000/svg" viewBox="0 0 150 150"><defs><style>.cls-1{fill:none;}.cls-1,.cls-2{stroke-width:0px;}.cls-2{fill:#fff;}</style></defs><g id="_レイヤー_1-2"><path class="cls-1" d="M23.44,0h103.12c12.94,0,23.44,10.5,23.44,23.44v103.12c0,12.94-10.5,23.44-23.44,23.44H23.44C10.5,150,0,139.5,0,126.56V23.44C0,10.5,10.5,0,23.44,0Z"/><path class="cls-2" d="M30.66,113.58v2.96h5.18v2.08h-5.18v4.08h-2.59v-11.2h8.46v2.08h-5.87Z"/><path class="cls-2" d="M38.27,111.5h2.59v11.2h-2.59v-11.2Z"/><path class="cls-2" d="M45.74,113.61h-3.58v-2.11h9.76v2.11h-3.58v9.09h-2.59v-9.09Z"/><path class="cls-2" d="M51.9,117.19h4.53v2h-4.53v-2Z"/><path class="cls-2" d="M61.4,113.58v2.96h5.18v2.08h-5.18v4.08h-2.59v-11.2h8.46v2.08h-5.87Z"/><path class="cls-2" d="M70.22,121.56c-.89-.89-1.34-2.15-1.34-3.79v-6.27h2.59v6.18c0,2.01.83,3.01,2.5,3.01.81,0,1.43-.24,1.86-.73s.64-1.25.64-2.28v-6.18h2.56v6.27c0,1.64-.45,2.91-1.34,3.79-.89.88-2.14,1.33-3.74,1.33s-2.84-.44-3.74-1.33Z"/><path class="cls-2" d="M83.86,113.61h-3.58v-2.11h9.76v2.11h-3.58v9.09h-2.59v-9.09Z"/><path class="cls-2" d="M92.72,122.53c-.83-.24-1.49-.55-1.99-.94l.88-1.95c.48.35,1.05.63,1.71.85.66.21,1.32.32,1.98.32.74,0,1.28-.11,1.63-.33.35-.22.53-.51.53-.87,0-.27-.1-.49-.31-.66s-.47-.32-.8-.42c-.33-.11-.77-.22-1.32-.35-.85-.2-1.55-.41-2.1-.61-.54-.2-1.01-.53-1.4-.98-.39-.45-.58-1.04-.58-1.79,0-.65.18-1.24.53-1.77.35-.53.88-.95,1.59-1.26.71-.31,1.58-.46,2.6-.46.71,0,1.41.08,2.1.26s1.28.42,1.79.74l-.8,1.97c-1.04-.59-2.07-.88-3.1-.88-.73,0-1.26.12-1.61.35s-.52.54-.52.93.2.67.6.86c.4.19,1.01.37,1.83.55.85.2,1.55.41,2.1.61.54.2,1.01.52,1.4.96s.58,1.03.58,1.78c0,.64-.18,1.22-.54,1.75-.36.53-.89.95-1.61,1.26-.71.31-1.58.46-2.61.46-.89,0-1.74-.12-2.57-.36Z"/><path class="cls-2" d="M109.13,120.29h-5.2l-.99,2.4h-2.66l4.99-11.2h2.56l5.01,11.2h-2.72l-.99-2.4ZM108.31,118.33l-1.78-4.29-1.78,4.29h3.55Z"/><path class="cls-2" d="M114.02,111.5h2.59v9.09h5.62v2.11h-8.21v-11.2Z"/><path class="cls-2" d="M86.49,23.18c0,3.53-2.86,6.39-6.39,6.39s-6.39-2.86-6.39-6.39,2.86-6.39,6.39-6.39c3.53,0,6.39,2.86,6.39,6.39Z"/><path class="cls-2" d="M100.77,51.94l-16.57-19.01c-.42-.46-.97-.78-1.58-.92l-9.11-2.1c-.45-.1-.93-.1-1.38,0l-22.26,5.46c-1.65.38-1.48,1.46-1.1,3.11s.7,2.48,2.35,2.1l18.58-3.88-4.66,15.52-7.94,16.07c-1.92,3.56,3.34,6.22,5.11,4.12l-7.64,12.27c-1.53,2.74,3.56,6.11,5.6,4.21l15.94-25.54c.17-.27.3-.57.39-.88l6.37-22.09,14.85,15.2c1.24.95,1.93.12,2.7-.58,1.25-1.14,1.51-1.82.36-3.07Z"/><path class="cls-2" d="M95.31,79.59c0,3.99-3.23,7.22-7.22,7.22s-7.22-3.23-7.22-7.22,3.23-7.22,7.22-7.22c3.99,0,7.22,3.23,7.22,7.22Z"/></g></svg>