<?xml version="1.0" encoding="UTF-8"?><svg id="_レイヤー_2" xmlns="http://www.w3.org/2000/svg" viewBox="0 0 150 150"><defs><style>.cls-1{fill:none;}.cls-1,.cls-2{stroke-width:0px;}.cls-2{fill:#fff;}</style></defs><g id="_レイヤー_1-2"><rect class="cls-1" width="150" height="150" rx="23.44" ry="23.44"/><path class="cls-2" d="M28.75,113.57v2.96h5.19v2.08h-5.19v4.08h-2.59v-11.2h8.47v2.08h-5.87Z"/><path class="cls-2" d="M36.38,111.49h2.59v11.2h-2.59v-11.2Z"/><path class="cls-2" d="M43.83,113.6h-3.58v-2.11h9.76v2.11h-3.59v9.09h-2.59v-9.09Z"/><path class="cls-2" d="M49.91,117.19h4.53v2h-4.53v-2Z"/><path class="cls-2" d="M66.51,115.56c0,2.5-1.87,4.05-4.87,4.05h-2.26v3.09h-2.59v-11.2h4.85c2.99,0,4.87,1.55,4.87,4.07ZM63.88,115.56c0-1.23-.8-1.95-2.38-1.95h-2.11v3.89h2.11c1.58,0,2.38-.72,2.38-1.94Z"/><path class="cls-2" d="M68.31,111.49h2.59v11.2h-2.59v-11.2Z"/><path class="cls-2" d="M73.52,111.49h2.59v9.09h5.62v2.11h-8.21v-11.2Z"/><path class="cls-2" d="M91.18,120.29h-5.2l-.99,2.4h-2.66l4.99-11.2h2.56l5.01,11.2h-2.72l-.99-2.4ZM90.36,118.33l-1.78-4.29-1.78,4.29h3.55Z"/><path class="cls-2" d="M97.22,113.6h-3.58v-2.11h9.76v2.11h-3.59v9.09h-2.59v-9.09Z"/><path class="cls-2" d="M113.36,120.61v2.08h-8.68v-11.2h8.47v2.08h-5.89v2.43h5.2v2.02h-5.2v2.59h6.1Z"/><path class="cls-2" d="M114.64,121.59l.88-1.95c.94.69,2.35,1.17,3.7,1.17,1.54,0,2.16-.51,2.16-1.2,0-2.1-6.51-.66-6.51-4.82,0-1.9,1.54-3.49,4.72-3.49,1.41,0,2.85.34,3.89.99l-.8,1.97c-1.04-.59-2.11-.88-3.11-.88-1.54,0-2.13.58-2.13,1.28,0,2.06,6.51.64,6.51,4.75,0,1.87-1.55,3.47-4.75,3.47-1.78,0-3.57-.53-4.56-1.3Z"/><polygon class="cls-2" points="111 73.87 111 85.81 103.48 85.81 103.48 79.84 48.44 79.84 48.44 85.81 40.7 85.81 40.7 73.87 111 73.87"/><rect class="cls-2" x="99.25" y="67.23" width="12.99" height="4.16" transform="translate(.99 140.1) rotate(-67.29)"/><path class="cls-2" d="M52.3,38.13c-.06,3.67-3.08,6.6-6.75,6.55-3.67-.06-6.6-3.08-6.55-6.75.06-3.67,3.08-6.6,6.75-6.55,3.67.06,6.6,3.08,6.55,6.75"/><path class="cls-2" d="M58.6,45.35l-9.18,25.7c-.39,1.33-1.46,1.32-2.67.96-1.22-.36-2.12-.92-1.73-2.25l6.98-26.16c.39-1.33,2.57-3.02,4.21-2.54,1.65.48,2.78,2.95,2.39,4.28"/><path class="cls-2" d="M53.65,41.07l21.28-17.09c1.03-.93,1.93-.36,2.78.58.85.94,1.32,1.89.29,2.83l-19.64,18.63c-1.03.93-3.77,1.23-4.92-.04-1.15-1.27-.82-3.97.21-4.9"/><path class="cls-2" d="M68.16,54.28c-.36-.68-.52-1.49-.4-2.27.24-1.59,4.94-3.66,6.32-3.16l29.03,13.56c1.09.4,2.01,1.36,1.38,2.85-.47,1.09-.99,2.14-2.29,1.66l-30.25-10.68c-.7-.26-3.42-1.25-3.79-1.95"/><path class="cls-2" d="M74.36,57.85c-1.64,1.11-3.85,1.25-5.67.18l-14.21-8.2c-2.53-1.49-3.38-4.74-1.9-7.28,1.49-2.53,4.75-3.38,7.28-1.9l14.21,8.2c2.53,1.49,3.38,4.74,1.9,7.28-.41.71-.97,1.29-1.61,1.72"/><path class="cls-2" d="M72.38,73c-.6.03-1.21-.13-1.73-.46-.76-.48-1.26-1.28-1.37-2.17l-2.62-15.5c-.23-1.64,1.72-3.16,3.36-3.36,1.64-.2,4.5,1.38,4.72,3.01l.47,10.39,13.47-2.92c1.24-.41,2.19-.08,2.71,1.48.53,1.56.03,2.58-1.21,2.99l-16.98,6.37c-.27.09-.54.14-.81.15"/></g></svg>