<?xml version="1.0" encoding="UTF-8"?><svg id="_レイヤー_2" xmlns="http://www.w3.org/2000/svg" viewBox="0 0 150 150"><defs><style>.cls-1{fill:none;}.cls-1,.cls-2{stroke-width:0px;}.cls-2{fill:#fff;}</style></defs><g id="_レイヤー_1-2"><rect class="cls-1" width="150" height="150" rx="23.44" ry="23.44"/><path class="cls-2" d="M31.48,115.41l-.02-.19c-.03-.25.02-.47.17-.66.14-.2.34-.32.58-.36l2.59-.42c.08-.02.13-.07.13-.16v-2.26c0-.25.09-.46.27-.63.18-.18.39-.26.64-.26h.32c.25,0,.46.09.63.26s.26.39.26.63v1.94s.02.06.05.09c.03.03.06.04.1.02l7.14-1.12c.25-.04.47.01.68.16s.33.35.36.59l.02.18c.08.66,0,1.24-.24,1.73-.71,1.43-1.72,2.72-3.02,3.87-.19.16-.41.23-.66.22-.25-.02-.47-.12-.65-.31l-.16-.18c-.17-.18-.25-.39-.22-.64s.12-.45.3-.61c.93-.82,1.68-1.72,2.26-2.69.02-.05,0-.09-.06-.1l-5.73.91c-.1.02-.14.08-.14.16v3.54c0,.59.02,1.02.06,1.3.04.28.14.51.32.7s.4.29.66.33.68.06,1.23.06c1.55,0,3.12-.1,4.72-.29.25-.03.46.03.66.18.19.15.29.35.3.6v.11c.01.26-.06.48-.22.67-.16.19-.37.3-.62.34-1.76.2-3.55.3-5.36.3-1.53,0-2.55-.26-3.08-.78s-.79-1.55-.79-3.09v-3.65c0-.1-.04-.13-.13-.11l-2.3.37c-.25.04-.47-.01-.67-.16-.2-.15-.32-.35-.35-.59Z"/><path class="cls-2" d="M47.25,122.98l-.19-.29c-.13-.21-.16-.43-.1-.66s.19-.41.41-.54c.86-.53,1.42-1.26,1.68-2.19.26-.93.38-2.63.38-5.1v-2.35c0-.25.09-.46.26-.63.18-.18.39-.26.63-.26h.38c.25,0,.46.09.63.26s.26.39.26.63v2.35c0,1.96-.1,3.52-.29,4.66-.19,1.15-.5,2.06-.93,2.73s-1.04,1.24-1.84,1.71c-.22.13-.46.16-.7.1s-.44-.2-.59-.42ZM54.58,123.57c-.25.01-.46-.08-.63-.26-.18-.18-.26-.39-.26-.64v-10.83c0-.25.09-.46.27-.63.18-.18.39-.26.64-.26h.4c.25,0,.46.09.64.26s.27.39.27.63v9.38c0,.09.04.12.13.1.88-.25,1.58-.72,2.08-1.42.5-.7.85-1.68,1.06-2.95.04-.25.17-.44.37-.59.2-.15.42-.21.66-.18l.22.03c.25.03.45.15.61.34.16.2.22.42.18.66-.6,4.05-2.81,6.17-6.62,6.35Z"/><path class="cls-2" d="M62.28,113.56c-.25,0-.46-.09-.64-.27-.18-.18-.27-.39-.27-.64v-.21c0-.25.09-.46.27-.64s.39-.27.64-.27h10.45c.25,0,.46.09.64.27.18.18.27.39.26.64-.07,3.38-.9,5.96-2.47,7.73s-3.97,2.88-7.18,3.31c-.26.03-.49-.03-.7-.18s-.33-.35-.38-.61l-.03-.19c-.04-.23,0-.45.14-.65.14-.2.33-.31.58-.34,2.5-.34,4.35-1.12,5.58-2.35s1.94-3.04,2.15-5.46c0-.1-.04-.14-.13-.14h-8.91Z"/><path class="cls-2" d="M76.56,122.88c-.25,0-.46-.09-.63-.26-.18-.18-.26-.39-.26-.63v-.11c0-.25.09-.46.26-.64.18-.18.39-.27.63-.27h4.13c.1,0,.14-.04.14-.13v-7.2c0-.08-.05-.13-.14-.13h-3.65c-.25,0-.46-.09-.63-.27s-.26-.39-.26-.64v-.11c0-.25.09-.46.26-.63.18-.18.39-.26.63-.26h9.82c.25,0,.46.09.63.26.18.18.26.39.26.63v.11c0,.25-.09.46-.26.64s-.39.27-.63.27h-3.65c-.1,0-.14.04-.14.13v7.2c0,.09.05.13.14.13h4.13c.25,0,.46.09.63.27.18.18.26.39.26.64v.11c0,.25-.09.46-.26.63-.18.18-.39.26-.63.26h-10.78Z"/><path class="cls-2" d="M90.76,122.72l-.08-.16c-.12-.21-.14-.44-.06-.68.07-.24.22-.42.43-.54,3.86-2.07,6.66-4.73,8.4-7.98.02-.02.02-.05,0-.08s-.05-.05-.08-.05h-6.8c-.25,0-.46-.09-.64-.27-.18-.18-.27-.39-.27-.64v-.16c0-.25.09-.46.27-.63s.39-.26.64-.26h8.42c.25,0,.46.09.64.26s.27.39.27.63v.16c0,.64-.13,1.22-.4,1.74-.67,1.31-1.54,2.57-2.61,3.76-.06.06-.06.13,0,.19,1.4,1.28,2.64,2.45,3.73,3.5.18.18.27.39.27.64s-.08.46-.26.64l-.19.18c-.18.17-.4.26-.65.26s-.47-.09-.65-.27c-1.34-1.32-2.57-2.49-3.68-3.49-.06-.04-.13-.04-.21.02-1.57,1.44-3.31,2.65-5.23,3.63-.22.12-.46.14-.71.06-.25-.08-.44-.23-.55-.46Z"/><path class="cls-2" d="M104.57,117.35c-.25,0-.46-.09-.64-.27-.18-.18-.27-.39-.27-.64v-.11c0-.25.09-.46.27-.63.18-.18.39-.26.64-.26h11.94c.25,0,.46.09.64.26.18.18.27.39.27.63v.11c0,.25-.09.46-.27.64-.18.18-.4.27-.64.27h-4.18c-.1,0-.14.04-.14.13-.02,1.65-.42,2.98-1.2,3.99-.78,1.01-1.98,1.75-3.6,2.22-.25.07-.48.05-.7-.08-.22-.13-.38-.32-.46-.56l-.06-.19c-.08-.24-.05-.46.07-.67.12-.21.3-.36.54-.45,1.13-.36,1.94-.88,2.42-1.54.48-.66.74-1.57.76-2.72,0-.09-.04-.13-.13-.13h-5.25ZM106.42,111.11h8.22c.25,0,.46.09.63.26s.26.39.26.63v.11c0,.25-.09.46-.26.64-.18.18-.39.27-.63.27h-8.22c-.25,0-.46-.09-.63-.27-.18-.18-.26-.39-.26-.64v-.11c0-.25.09-.46.26-.63s.39-.26.63-.26Z"/><path class="cls-2" d="M65.44,36.37l2.38,5.21c1.15.5,2.42.78,3.75.78,5.23,0,9.46-4.24,9.46-9.46s-4.24-9.47-9.46-9.47-9.46,4.24-9.46,9.47c0,.43.04.86.1,1.28,1.39.08,2.65.92,3.23,2.2Z"/><path class="cls-2" d="M94.57,59.99s-9.27-10.8-9.91-11.32c-.64-.52-2.31-1.73-4.49-1.73s-5.23-.29-5.23-3.86c-1.05.35-2.18.54-3.35.54-.99,0-1.94-.15-2.85-.4l.32.7c.48,1.15.48,2.3.03,3.45l-6.96,17.61v17.83h18.46v-5.41s-.08.02-.11.02c-.2.03-.41.04-.61.04-1.26,0-2.48-.53-3.34-1.45-.83-.89-1.26-2.06-1.22-3.27.04-1.22.56-2.34,1.45-3.17l.09-.07,3.75-2.92v-12.7l7.48,8.54-10.41,8.13c-1.31,1.22-1.39,3.27-.16,4.58.75.8,1.8,1.14,2.81,1.01.64-.09,1.26-.37,1.77-.84l12.66-10.41c.68-.64,1.06-1.54,1.03-2.47-.03-.93-.46-1.81-1.18-2.4Z"/><path class="cls-2" d="M67.85,44.46l-3.45-7.56c-.58-1.27-2.08-1.83-3.34-1.25-1.27.58-1.83,2.08-1.25,3.34l2.27,4.97-7.59,19.1c-.66,1.67.16,3.55,1.83,4.21.39.15.8.23,1.19.23,1.29,0,2.52-.78,3.02-2.05l7.34-18.56c.17-.44.45-1.33,0-2.42Z"/></g></svg>