<?xml version="1.0" encoding="UTF-8"?><svg id="_レイヤー_2" xmlns="http://www.w3.org/2000/svg" viewBox="0 0 150 150"><defs><style>.cls-1{fill:none;}.cls-1,.cls-2{stroke-width:0px;}.cls-2{fill:#fff;}</style></defs><g id="_レイヤー_1-2"><rect class="cls-1" width="150" height="150" rx="23.44" ry="23.44"/><path class="cls-2" d="M86.68,37.71c2.76,0,5.01-2.24,5.01-5.01s-2.25-5.02-5.01-5.02-5.02,2.24-5.02,5.02,2.25,5.01,5.02,5.01Z"/><path class="cls-2" d="M100.49,48.21c-.69-1.06-2.12-1.36-3.18-.65l-4.53,3.01h-3.51c-.94,0-1.78.57-2.14,1.43l-5.57,13.92-1.51-.78,2.98-6.11c.62-.98.33-2.27-.64-2.92l-8.35-6.16c2.53-4.18,5.78-5.78,6.01-5.83.04,0,.07,0,.1-.02,0,0,4.17,4.68,4.19,4.73.39.63,1.07,1,1.8,1h6.89c1.17,0,1.31-.55,1.31-1.72s-.04-1.85-1.21-1.85l-5.81-.67c-1.13-1.82-3.49-5.63-5.05-8.05,0-.03,0-.04-.02-.05-.49-.74-.89-1.36-1.14-1.72-.54-.67-.85-1.37-.86-3.05,0-.64.12-1.26.3-1.86,0,0-3.1,1.52-6.71,4.36-.45.34-.91.7-1.34,1.09-3.41,3-9.15,8.06-8.8,13.91,0,.38.25.96.57,1.46-.61.07-1.25.22-1.52.51-.38.4-.56.98-.52,1.75.05,1.27,1.07,2.26,2.3,2.26h1.3l.64,2.37.68,2.98-.93.9-.29-.17c-.6-.44-1.26-.81-1.94-1.09,0,0-.05-.02-.07-.02-1.12-.45-2.29-.68-3.5-.68-3.83,0-7.22,2.28-8.67,5.85-.93,2.3-.91,4.85.07,7.14.97,2.3,2.78,4.08,5.1,5.02,0,0,.05.01.05.02.05.01.09.03.14.04-4.18,1.67-6.78,3.83-7.79,4.78-.21.19-.27.49-.17.76.1.26.35.42.63.42h5.41c.12,0,.24-.03.36-.1,1.81-1.08,3.85-1.93,6.02-2.52,1.68-.45,3.46-.75,5.33-.89l10.35,2.58c.17.05.37.07.56.07.84,0,1.59-.45,1.99-1.17,1.87.53,3.77,1.2,5.69,1.99.08.03.17.04.26.04h7.55c.31,0,.59-.21.67-.52.07-.29-.08-.62-.35-.76-4.1-2.18-8.16-3.86-12.09-5.02l9.26-23.09h2.65c.45,0,.88-.13,1.25-.38l5.1-3.39c.52-.34.87-.85.99-1.46.12-.59,0-1.21-.34-1.72ZM63.28,67.48l-2.02-.81c-1.76-.7-3.76.15-4.46,1.91-.34.84-.33,1.77.03,2.6.36.85,1.03,1.5,1.86,1.84.21.08.83.38,1.61.78l-.85,1.8c-.7-.24-1.07-.38-1.27-.46-2.91-1.18-4.32-4.5-3.15-7.42.9-2.22,3.03-3.56,5.29-3.56.71,0,1.44.13,2.13.42.34.14.97.43,1.78.83l-.98,2.07ZM70.55,55.93l.16-.02,5.45,3.2-1.02,3.48-3.46-1.8-1.13-4.85Z"/><path class="cls-2" d="M92.27,29.72l6.39-5.15c.28-.22.33-.62.11-.9l-1.34-1.73c-.19-.25-.54-.32-.82-.16l-8.41,4.77c1.78.44,3.23,1.61,4.07,3.18Z"/><path class="cls-2" d="M42.61,104.99v2.96h5.18v2.08h-5.18v4.08h-2.59v-11.2h8.46v2.08h-5.87Z"/><path class="cls-2" d="M50.22,102.9h2.59v11.2h-2.59v-11.2Z"/><path class="cls-2" d="M57.69,105.02h-3.58v-2.11h9.76v2.11h-3.58v9.09h-2.59v-9.09Z"/><path class="cls-2" d="M63.85,108.6h4.53v2h-4.53v-2Z"/><path class="cls-2" d="M77.89,114.11l-2.16-3.12h-2.38v3.12h-2.59v-11.2h4.85c.99,0,1.85.17,2.58.5.73.33,1.29.8,1.69,1.41.39.61.59,1.33.59,2.16s-.2,1.55-.6,2.15c-.4.6-.97,1.06-1.7,1.38l2.51,3.6h-2.78ZM77.24,105.52c-.41-.34-1-.5-1.78-.5h-2.11v3.9h2.11c.78,0,1.37-.17,1.78-.51.41-.34.61-.82.61-1.44s-.2-1.11-.61-1.45Z"/><path class="cls-2" d="M82.55,102.9h2.59v11.2h-2.59v-11.2Z"/><path class="cls-2" d="M87.79,102.9h5.09c1.22,0,2.29.23,3.22.7s1.66,1.12,2.18,1.96c.52.84.78,1.82.78,2.94s-.26,2.1-.78,2.94c-.52.84-1.24,1.5-2.18,1.96s-2.01.7-3.22.7h-5.09v-11.2ZM92.75,111.98c1.12,0,2.01-.31,2.68-.94s1-1.47,1-2.54-.33-1.91-1-2.54-1.56-.94-2.68-.94h-2.37v6.94h2.37Z"/><path class="cls-2" d="M109.67,112.03v2.08h-8.67v-11.2h8.46v2.08h-5.89v2.43h5.2v2.02h-5.2v2.59h6.1Z"/><path class="cls-2" d="M26.69,132.18c-.44,0-.8-.14-1.08-.42-.64-.64-1.13-1.37-1.48-2.18-.35-.82-.52-1.67-.52-2.57s.18-1.73.53-2.55c.35-.82.84-1.55,1.47-2.19.29-.29.65-.43,1.08-.43h.08c.12,0,.2.05.24.17.04.11.03.21-.06.29-1.28,1.39-1.91,2.97-1.91,4.72s.63,3.38,1.9,4.73c.08.08.1.17.06.28-.04.11-.12.16-.24.16h-.08Z"/><path class="cls-2" d="M29.85,131.66c-.17,0-.32-.06-.44-.18s-.19-.27-.19-.43v-8c0-.17.06-.32.19-.44.12-.12.27-.19.44-.19h2.06c.17,0,.31.06.43.19.12.12.18.27.18.44v7.37c0,.17-.06.32-.18.44-.12.12-.27.19-.43.19h-1.3c-.05,0-.08.03-.08.08,0,.15-.05.27-.17.38s-.24.16-.38.16h-.13ZM30.53,123.76v2.18c0,.07.03.1.09.1h.59c.07,0,.1-.03.1-.1v-2.18c0-.06-.03-.09-.1-.09h-.59c-.06,0-.09.03-.09.09ZM30.53,127.34v2.4c0,.07.03.1.09.1h.59c.07,0,.1-.03.1-.1v-2.4c0-.06-.03-.09-.1-.09h-.59c-.06,0-.09.03-.09.09ZM33.41,126.31c-.15,0-.29-.05-.4-.17-.11-.11-.17-.24-.17-.4s.05-.29.17-.4.24-.17.4-.17h.53c.07,0,.09-.03.08-.08-.12-.43-.26-.82-.4-1.18-.03-.06-.07-.09-.12-.09-.16,0-.3-.05-.41-.16-.11-.11-.17-.24-.17-.4s.05-.3.17-.41c.11-.11.25-.17.41-.17h1.61c.07,0,.1-.03.1-.1v-.23c0-.17.06-.32.18-.44.12-.12.27-.19.43-.19h.26c.17,0,.31.06.43.19.12.12.18.27.18.44v.23c0,.07.03.1.1.1h1.61c.16,0,.3.05.41.17.11.11.17.25.17.41s-.06.29-.17.4c-.11.11-.25.16-.41.16-.06,0-.1.03-.11.09-.12.45-.25.84-.37,1.18-.01.05,0,.08.07.08h.54c.15,0,.29.06.4.17s.17.24.17.4-.05.29-.17.4c-.11.11-.24.17-.4.17h-5.12ZM33.7,126.85h4.48c.17,0,.31.06.43.19.12.12.18.27.18.44v3.85c0,.17-.06.31-.18.44-.12.12-.27.19-.43.19h-.5c-.1,0-.19-.03-.25-.1-.07-.07-.1-.15-.1-.25,0-.04-.02-.05-.05-.05h-2.72s-.06.02-.06.05c0,.1-.03.19-.1.25-.07.07-.15.1-.25.1h-.45c-.17,0-.32-.06-.44-.19-.12-.12-.19-.27-.19-.44v-3.85c0-.17.06-.31.19-.44.12-.12.27-.19.44-.19ZM37.33,128.58v-.53c0-.06-.03-.09-.1-.09h-2.63c-.07,0-.1.03-.1.09v.53c0,.07.03.1.1.1h2.63c.07,0,.1-.03.1-.1ZM37.33,130.36v-.55c0-.06-.03-.09-.1-.09h-2.63c-.07,0-.1.03-.1.09v.55c0,.06.03.09.1.09h2.63c.07,0,.1-.03.1-.09ZM35.09,123.85c-.06,0-.08.03-.07.09.18.51.3.91.38,1.18,0,.05.04.08.11.08h.86c.07,0,.11-.03.13-.09.18-.46.31-.85.4-1.17.01-.06-.01-.09-.08-.09h-1.74Z"/><path class="cls-2" d="M40.76,131.93c-.17,0-.32-.06-.44-.18-.12-.12-.19-.27-.19-.43v-8.49c0-.17.06-.32.19-.44.12-.12.27-.19.44-.19h3.26c.17,0,.32.06.44.19.12.12.19.27.19.44v2.66c0,.17-.06.31-.19.43-.12.12-.27.18-.44.18h-2.45c-.06,0-.09.03-.09.1v5.11c0,.17-.06.31-.19.43-.12.12-.27.18-.44.18h-.09ZM41.57,123.36v.34c0,.07.03.1.1.1h1.66c.06,0,.09-.03.09-.1v-.34c0-.06-.03-.09-.09-.09h-1.66c-.07,0-.1.03-.1.09ZM41.57,124.73v.34c0,.07.03.1.1.1h1.66c.06,0,.09-.03.09-.1v-.34c0-.06-.03-.09-.09-.09h-1.66c-.07,0-.1.03-.1.09ZM43.09,127.81c.06,0,.07-.03.04-.09-.13-.23-.21-.35-.22-.37-.04-.06-.08-.09-.14-.09h-.24c-.1,0-.19-.04-.27-.11-.08-.07-.12-.16-.12-.26s.04-.19.12-.26c.08-.07.17-.11.27-.11h1.65c.05,0,.08-.03.08-.08,0-.15.05-.27.15-.36.1-.1.22-.14.36-.14h.42c.14,0,.26.05.36.14.1.09.15.22.15.36,0,.05.03.08.08.08h1.66c.1,0,.19.04.26.11.07.07.11.16.11.26s-.04.19-.11.26c-.07.07-.16.11-.26.11h-.26c-.07,0-.11.03-.13.09-.12.23-.18.36-.2.38-.02.02-.02.03,0,.05s.03.03.05.03h.75c.11,0,.2.04.28.12.08.08.12.17.12.28s-.04.2-.12.28-.17.12-.28.12h-5.3c-.11,0-.2-.04-.28-.12s-.12-.17-.12-.28.04-.2.12-.28c.08-.08.17-.12.28-.12h.77ZM43.19,131.66c-.17,0-.31-.06-.43-.18s-.18-.27-.18-.43v-1.54c0-.17.06-.32.18-.44.12-.12.27-.19.43-.19h3.56c.17,0,.31.06.43.19.12.12.18.27.18.44v1.1c0,.05.03.08.1.08h.05c.11,0,.24.01.4.01.27,0,.43-.02.48-.07.05-.04.07-.19.07-.45v-3.97c0-.07-.03-.1-.09-.1h-2.56c-.17,0-.32-.06-.44-.18-.12-.12-.19-.27-.19-.43v-2.66c0-.17.06-.32.19-.44.12-.12.27-.19.44-.19h3.37c.17,0,.32.06.44.19.12.12.19.27.19.44v7.28c0,.3,0,.54-.02.71-.01.17-.04.33-.09.48-.05.15-.1.26-.17.32-.07.07-.17.12-.31.17-.14.05-.3.08-.46.09-.17.01-.39.02-.68.02-.03,0-.19,0-.48-.02-.14,0-.27-.05-.38-.14-.11-.08-.19-.19-.24-.32-.01-.05-.05-.07-.11-.05-.03,0-.07.01-.12.01h-2.88s-.03.01-.03.03c0,.07-.03.13-.08.18-.05.05-.11.07-.19.07h-.38ZM43.84,129.63v.1c0,.07.03.1.09.1h2.09c.06,0,.09-.03.09-.1v-.1c0-.07-.03-.1-.09-.1h-2.09c-.06,0-.09.03-.09.1ZM43.84,130.51v.1c0,.07.03.1.09.1h2.09c.06,0,.09-.03.09-.1v-.1c0-.07-.03-.1-.09-.1h-2.09c-.06,0-.09.03-.09.1ZM44.27,127.26s-.04.01-.05.03c-.01.02,0,.04,0,.05.07.11.14.24.21.37.02.06.07.09.14.09h.79c.07,0,.12-.03.15-.08.08-.11.16-.24.23-.38.03-.06.01-.09-.04-.09h-1.44ZM48.39,123.71v-.34c0-.06-.03-.09-.1-.09h-1.77c-.06,0-.09.03-.09.09v.34c0,.07.03.1.09.1h1.77c.07,0,.1-.03.1-.1ZM48.39,125.07v-.34c0-.06-.03-.09-.1-.09h-1.77c-.06,0-.09.03-.09.09v.34c0,.07.03.1.09.1h1.77c.07,0,.1-.03.1-.1Z"/><path class="cls-2" d="M51.26,130.95c-.15-.07-.26-.19-.31-.35-.05-.16-.04-.31.04-.46,1.02-1.99,1.66-4.11,1.91-6.37.01-.17.09-.31.22-.42.13-.11.29-.17.46-.16h.3c.17.03.31.1.42.23.11.13.16.28.15.45-.24,2.46-.91,4.77-2.04,6.93-.08.15-.21.26-.37.31s-.33.05-.5-.03l-.29-.13ZM56.99,124.09c-.04-.07-.15-.28-.35-.65-.08-.15-.1-.3-.04-.46.05-.16.15-.28.31-.36h.01c.15-.08.32-.1.48-.04.17.05.29.15.37.31.08.15.2.37.36.68.07.15.08.31.02.47-.06.16-.17.28-.32.35-.16.07-.32.08-.48.02s-.28-.17-.36-.32ZM58.2,125.33c.17-.05.33-.04.48.04.15.08.26.21.32.37.51,1.51.97,3.08,1.38,4.71.04.16,0,.31-.08.46-.09.14-.22.23-.39.27l-.35.07c-.17.04-.33,0-.47-.08-.15-.09-.24-.22-.28-.39-.4-1.7-.83-3.23-1.28-4.6-.05-.16-.04-.32.04-.47.08-.15.2-.25.37-.3l.26-.08ZM59.59,124.05c-.15.07-.31.08-.48.03s-.29-.16-.37-.31c-.04-.07-.1-.19-.18-.34-.08-.15-.14-.27-.19-.34-.08-.15-.1-.3-.05-.47.05-.17.15-.29.3-.36h.03c.15-.09.32-.11.48-.06.17.05.29.15.37.3.24.46.37.7.37.72.08.15.09.31.04.47s-.16.28-.31.35l-.03.02Z"/><path class="cls-2" d="M61.38,127.3l-.02-.12c-.03-.16,0-.31.1-.45.1-.14.23-.23.4-.26,1.34-.25,2.64-.67,3.9-1.26,1.26-.59,2.34-1.3,3.26-2.12.12-.12.27-.17.44-.17.17,0,.31.07.42.2l.09.1c.12.13.17.29.16.46-.01.18-.08.32-.21.44-.77.68-1.65,1.3-2.65,1.85-.05.03-.08.07-.08.13,0,0,0,.02,0,.03,0,.01,0,.02,0,.03v4.73c0,.17-.06.32-.19.44-.12.12-.27.19-.44.19h-.33c-.17,0-.32-.06-.44-.19-.12-.12-.19-.27-.19-.44v-4.04c0-.05-.03-.07-.08-.05-1.09.46-2.24.8-3.44,1.02-.17.03-.32,0-.46-.11s-.22-.24-.25-.41Z"/><path class="cls-2" d="M71.25,127.47l-.1-.08c-.12-.11-.19-.25-.2-.42,0-.17.04-.32.15-.45.92-1.05,1.52-2.25,1.8-3.6.04-.18.12-.32.26-.43.13-.11.29-.16.47-.15h.19c.17.03.31.1.42.23.11.13.15.28.12.44,0,.07-.03.17-.06.28-.01.06.01.09.08.09h4.12c.18,0,.33.06.45.18s.18.27.18.43c-.05,2.33-.61,4.08-1.68,5.24-1.07,1.16-2.75,1.88-5.05,2.15-.18.02-.34-.02-.48-.13-.14-.11-.23-.25-.26-.43l-.02-.09c-.03-.16,0-.31.11-.45s.24-.21.41-.24c1.81-.24,3.13-.76,3.95-1.56.83-.79,1.3-2.03,1.44-3.71,0-.06-.03-.09-.09-.09h-3.48c-.07,0-.11.03-.13.09-.39.96-.96,1.84-1.71,2.65-.12.13-.26.2-.44.2s-.33-.05-.46-.17Z"/><path class="cls-2" d="M80.75,130.78l-.06-.11c-.08-.15-.09-.3-.04-.47.05-.17.15-.29.3-.37,2.66-1.42,4.58-3.25,5.78-5.49.01-.01.01-.03,0-.05-.01-.02-.03-.03-.05-.03h-4.68c-.17,0-.32-.06-.44-.19-.12-.12-.19-.27-.19-.44v-.11c0-.17.06-.31.19-.43.12-.12.27-.18.44-.18h5.79c.17,0,.32.06.44.18.12.12.19.27.19.43v.11c0,.44-.09.84-.27,1.2-.46.9-1.06,1.76-1.79,2.58-.04.04-.04.09,0,.13.96.88,1.81,1.68,2.56,2.41.12.12.19.27.19.44s-.06.32-.18.44l-.13.12c-.12.12-.27.18-.45.18s-.32-.06-.45-.19c-.92-.91-1.77-1.71-2.53-2.4-.04-.03-.09-.03-.14.01-1.08.99-2.28,1.82-3.6,2.5-.15.08-.32.09-.49.04-.17-.06-.3-.16-.38-.31Z"/><path class="cls-2" d="M90.6,127.39l-.07-.07c-.12-.11-.19-.25-.2-.42,0-.17.04-.32.15-.45.89-1.03,1.48-2.23,1.77-3.6.04-.18.12-.32.26-.43.14-.11.29-.16.47-.15h.14c.17.02.31.09.42.21.11.13.15.28.12.45l-.03.23c-.01.07,0,.1.07.1h4.31c.17,0,.31.06.43.19.12.12.18.27.18.44-.02,2.41-.57,4.21-1.64,5.4s-2.78,1.93-5.11,2.2c-.18.02-.33-.02-.47-.13-.14-.11-.22-.25-.25-.43v-.09c-.04-.17,0-.32.09-.45.1-.13.23-.21.39-.23,1.94-.26,3.31-.83,4.12-1.72.04-.04.04-.08-.01-.11-.62-.32-1.42-.7-2.4-1.14-.15-.07-.26-.19-.31-.35-.06-.16-.04-.32.04-.46l.1-.18c.08-.15.2-.26.37-.32s.33-.05.49.02c.74.34,1.56.74,2.46,1.19.04.02.08,0,.11-.05.24-.64.39-1.43.45-2.37,0-.06-.03-.09-.09-.09h-3.65c-.07-.01-.11.01-.13.08-.38.98-.95,1.88-1.69,2.69-.12.12-.26.19-.44.2-.18,0-.33-.05-.46-.17Z"/><path class="cls-2" d="M100.88,126.69c-.17-.03-.3-.11-.4-.25-.1-.14-.13-.29-.09-.46v-.08c.04-.17.13-.3.29-.41.15-.1.32-.14.48-.1.41.07,1.21.23,2.4.46.17.03.3.12.39.26.09.14.12.3.08.48v.08c-.05.17-.14.3-.28.4-.14.1-.3.13-.46.1-1.4-.28-2.2-.44-2.41-.47ZM108.64,124.35c.17.03.3.11.4.25.1.14.12.29.09.46-.45,2.01-1.26,3.51-2.45,4.5-1.18.99-2.9,1.62-5.14,1.88-.18.02-.33-.02-.47-.13-.14-.11-.22-.25-.25-.42l-.02-.17c-.03-.16,0-.31.11-.44s.24-.21.41-.23c1.95-.23,3.41-.73,4.38-1.52s1.65-2.02,2.04-3.71c.04-.17.13-.3.28-.4.15-.1.3-.13.47-.1l.17.02ZM104.16,123.18c.17.03.3.12.4.26.09.15.12.3.09.47l-.02.1c-.03.17-.12.3-.26.4-.14.09-.3.12-.47.09-.91-.18-1.75-.34-2.51-.47-.17-.03-.3-.11-.4-.25-.1-.14-.13-.29-.1-.46l.02-.09c.03-.17.12-.3.26-.41.15-.1.3-.14.47-.11.73.12,1.57.28,2.52.47ZM107.84,123.75c-.14.07-.28.08-.43.03s-.26-.14-.34-.28c-.04-.07-.09-.16-.15-.29-.07-.13-.12-.23-.15-.29-.07-.14-.09-.28-.04-.43s.14-.26.28-.34c.15-.07.29-.08.45-.03.15.05.27.15.35.3.04.07.09.16.15.29.07.13.12.23.15.29.07.15.08.29.03.44-.05.15-.15.25-.3.32ZM109.48,122.24c.04.07.09.18.16.32.07.14.12.24.15.3.07.15.08.29.03.44-.05.15-.15.26-.3.33s-.29.08-.45.03c-.15-.05-.27-.15-.35-.3-.07-.13-.17-.33-.32-.59-.07-.15-.09-.29-.04-.45s.14-.26.29-.33c.15-.07.3-.08.46-.03.16.05.28.15.35.29Z"/><path class="cls-2" d="M111.26,125.1c-.17,0-.31-.06-.43-.19-.12-.12-.18-.27-.18-.44v-.03c0-.17.06-.31.18-.44.12-.12.27-.19.43-.19h4.72c.06,0,.09-.03.09-.1v-.92c0-.17.06-.32.19-.44.12-.12.27-.19.44-.19h.18c.17,0,.32.06.44.19.12.12.19.27.19.44v.92c0,.07.03.1.1.1h1.52c.17,0,.31.06.43.19s.18.27.18.44v.03c0,.17-.06.32-.18.44s-.27.19-.43.19h-1.52c-.07,0-.1.03-.1.09v4.31c0,.43-.01.75-.04.97s-.12.39-.26.53c-.14.14-.32.22-.53.25s-.53.04-.96.04c-.29,0-.69-.02-1.22-.05-.18,0-.32-.08-.43-.21-.11-.14-.16-.29-.15-.47v-.05c.03-.17.09-.31.22-.42s.27-.16.44-.14c.48.04.81.06.99.06.23,0,.37-.03.43-.09.06-.06.09-.2.09-.43v-2.88s0-.03-.03-.04c-.02-.01-.03-.01-.04,0-1.35,1.26-2.74,2.33-4.18,3.2-.15.09-.3.11-.47.07-.17-.04-.29-.14-.38-.29l-.04-.08c-.08-.15-.1-.3-.05-.47s.14-.29.29-.38c1.55-.93,3.03-2.08,4.43-3.45.04-.04.03-.06-.03-.06h-4.3Z"/><path class="cls-2" d="M122.4,132.18c-.12,0-.2-.05-.24-.16-.04-.11-.02-.2.06-.28,1.27-1.35,1.9-2.93,1.9-4.73s-.64-3.33-1.91-4.72c-.08-.08-.1-.18-.05-.29.04-.11.12-.17.24-.17h.08c.43,0,.79.14,1.08.43.63.65,1.12,1.38,1.47,2.19.35.82.53,1.67.53,2.55s-.17,1.75-.52,2.57c-.35.82-.84,1.55-1.48,2.18-.28.28-.64.42-1.08.42h-.08Z"/></g></svg>