<?xml version="1.0" encoding="UTF-8"?><svg id="_レイヤー_2" xmlns="http://www.w3.org/2000/svg" viewBox="0 0 150 150"><defs><style>.cls-1{fill:none;}.cls-1,.cls-2{stroke-width:0px;}.cls-2{fill:#fff;}</style></defs><g id="_レイヤー_1-2"><path class="cls-1" d="M23.44,0h103.12c12.94,0,23.44,10.5,23.44,23.44v103.13c0,12.94-10.5,23.44-23.44,23.44H23.44C10.5,150,0,139.5,0,126.56V23.44C0,10.5,10.5,0,23.44,0Z"/><path class="cls-2" d="M71.11,37.51c0-2.26,1.83-4.09,4.09-4.09s4.09,1.83,4.09,4.09-1.83,4.09-4.09,4.09-4.09-1.83-4.09-4.09Z"/><path class="cls-2" d="M85.94,62.66s-1.12-9.95-1.71-14.22c-.6-4.27-2.95-5.63-9.03-5.63s-8.43,1.36-9.02,5.63c-.6,4.27-1.72,14.22-1.72,14.22l2.32.56,3.03-14.55.48,10.01h9.82l.47-10,3.04,14.54,2.31-.56Z"/><polygon class="cls-2" points="70.21 63.63 69.57 84.8 73.01 84.8 74.92 64.9 70.21 63.63"/><polygon class="cls-2" points="75.96 64.9 77.88 84.8 81.31 84.8 80.68 63.63 75.96 64.9"/><rect class="cls-2" x="59.59" y="78.65" width="2.39" height="1.02"/><rect class="cls-2" x="59.59" y="70.71" width="2.39" height="1.02"/><rect class="cls-2" x="59.59" y="62.77" width="2.39" height="1.02"/><rect class="cls-2" x="59.59" y="54.82" width="2.39" height="1.02"/><rect class="cls-2" x="59.59" y="46.88" width="2.39" height="1.02"/><rect class="cls-2" x="59.59" y="38.94" width="2.39" height="1.02"/><rect class="cls-2" x="61.52" y="30.51" width="1.02" height="2.39" transform="translate(4.86 71.51) rotate(-61.92)"/><rect class="cls-2" x="67.42" y="25.47" width="1.02" height="2.38" transform="translate(-4.99 23.81) rotate(-19.19)"/><rect class="cls-2" x="75.29" y="24.87" width="1.02" height="2.38"/><rect class="cls-2" x="82.49" y="26.15" width="2.38" height="1.02" transform="translate(30.99 96.93) rotate(-70.8)"/><rect class="cls-2" x="88.38" y="31.19" width="2.39" height="1.02" transform="translate(-4.38 45.88) rotate(-28.07)"/><rect class="cls-2" x="89.64" y="38.94" width="2.38" height="1.02"/><rect class="cls-2" x="89.64" y="46.88" width="2.38" height="1.02"/><rect class="cls-2" x="89.64" y="54.82" width="2.38" height="1.02"/><rect class="cls-2" x="89.64" y="62.77" width="2.38" height="1.02"/><rect class="cls-2" x="89.64" y="70.71" width="2.38" height="1.02"/><rect class="cls-2" x="89.64" y="78.65" width="2.38" height="1.02"/><path class="cls-2" d="M95.59,85.77h-41.18c-.53,0-.96-.43-.96-.96v-50.72c0-7.51,6.11-13.62,13.63-13.62h15.83c7.51,0,13.63,6.11,13.63,13.62v50.72c0,.53-.43.96-.96.96ZM55.37,83.86h39.26v-49.77c0-6.46-5.26-11.71-11.72-11.71h-15.83c-6.46,0-11.72,5.25-11.72,11.71v49.77Z"/><path class="cls-2" d="M39.71,109.1l-.1-.1c-.18-.16-.28-.37-.29-.62-.01-.25.06-.47.22-.65,1.3-1.5,2.16-3.25,2.58-5.23.05-.26.18-.46.38-.62s.42-.23.68-.22h.21c.25.02.45.12.61.31.16.19.22.4.18.65l-.05.34c-.02.1.01.14.1.14h6.27c.25,0,.46.09.63.27.18.18.26.39.26.64-.03,3.5-.83,6.12-2.39,7.86-1.56,1.74-4.04,2.8-7.43,3.2-.26.03-.48-.03-.68-.19-.2-.16-.32-.37-.36-.62l-.02-.13c-.04-.25,0-.46.15-.66.14-.19.33-.3.57-.34,2.82-.37,4.82-1.21,6-2.5.06-.06.06-.12-.02-.16-.9-.46-2.06-1.01-3.49-1.66-.22-.11-.38-.28-.46-.51s-.06-.46.06-.67l.14-.26c.12-.22.3-.38.54-.46.24-.09.48-.08.71.03,1.08.5,2.27,1.08,3.58,1.73.06.03.12,0,.16-.08.35-.93.57-2.07.66-3.44,0-.08-.04-.13-.13-.13h-5.31c-.1-.02-.16.02-.19.11-.55,1.43-1.38,2.74-2.46,3.92-.17.18-.38.28-.64.29-.26.01-.48-.07-.67-.24Z"/><path class="cls-2" d="M54.72,104.6c-.22-.11-.37-.28-.45-.51-.08-.23-.05-.46.06-.67l.16-.32c.12-.22.3-.37.54-.45.24-.07.48-.06.71.05,1.06.51,2.17,1.09,3.34,1.73.21.12.35.3.42.54.07.25.05.47-.07.69l-.18.32c-.12.21-.3.36-.54.42-.25.07-.47.05-.69-.07-1.25-.68-2.35-1.26-3.31-1.73ZM65.86,104.09c.25.05.44.19.58.4.14.21.18.44.13.69-.63,2.74-1.86,4.89-3.69,6.43-1.83,1.55-4.3,2.52-7.4,2.91-.26.03-.48-.03-.68-.18s-.32-.36-.36-.62l-.03-.29c-.04-.25,0-.47.16-.66.15-.2.35-.31.59-.34,2.62-.36,4.69-1.16,6.19-2.4,1.5-1.24,2.55-3,3.15-5.3.06-.25.2-.44.42-.58.21-.14.44-.18.69-.13l.26.06Z"/><path class="cls-2" d="M68.74,114.19c-.25,0-.46-.09-.63-.26-.18-.18-.26-.39-.26-.63v-.27c0-.25.09-.46.26-.64.18-.18.39-.27.63-.27h11.1c.25,0,.46.09.63.27.18.18.26.39.26.64v.27c0,.25-.09.46-.26.63-.18.18-.39.26-.63.26h-11.1ZM69.86,102.89h8.86c.25,0,.46.09.63.26s.26.39.26.63v.27c0,.25-.09.46-.26.64-.18.18-.39.27-.63.27h-8.86c-.25,0-.46-.09-.63-.27-.18-.18-.26-.39-.26-.64v-.27c0-.25.09-.46.26-.63s.39-.26.63-.26Z"/><path class="cls-2" d="M83.69,104.6c-.22-.11-.37-.28-.45-.51-.08-.23-.05-.46.06-.67l.16-.32c.12-.22.3-.37.54-.45.24-.07.48-.06.71.05,1.06.51,2.17,1.09,3.34,1.73.21.12.35.3.42.54.07.25.05.47-.07.69l-.18.32c-.12.21-.3.36-.54.42-.25.07-.47.05-.69-.07-1.25-.68-2.35-1.26-3.31-1.73ZM94.82,104.09c.25.05.44.19.58.4.14.21.18.44.13.69-.63,2.74-1.86,4.89-3.69,6.43-1.83,1.55-4.3,2.52-7.4,2.91-.26.03-.48-.03-.68-.18s-.32-.36-.36-.62l-.03-.29c-.04-.25,0-.47.16-.66.15-.2.35-.31.59-.34,2.62-.36,4.69-1.16,6.19-2.4,1.5-1.24,2.55-3,3.15-5.3.06-.25.2-.44.42-.58.21-.14.44-.18.69-.13l.26.06Z"/><path class="cls-2" d="M97.2,109.37l-.14-.11c-.18-.16-.28-.37-.29-.62-.01-.25.06-.47.22-.65,1.33-1.53,2.21-3.27,2.62-5.23.05-.26.18-.46.38-.62s.42-.23.68-.22l.27.02c.25.02.45.13.61.31.16.19.22.4.18.65-.01.08-.03.17-.06.3-.03.12-.04.21-.06.26-.02.08.02.13.11.13h5.38s.04-.01.05-.04.01-.05,0-.07l-.03-.06c-.05-.1-.13-.24-.22-.42-.1-.19-.17-.33-.22-.42-.11-.2-.12-.41-.06-.63s.21-.38.41-.49c.21-.11.43-.12.65-.05.22.08.39.22.5.43.05.1.13.24.22.42.1.19.17.33.22.42.1.19.11.39.06.6s-.18.37-.36.47c-.09.04-.1.1-.03.16.14.17.21.37.21.59-.1,3.33-.93,5.83-2.49,7.5-1.56,1.67-4,2.7-7.32,3.08-.26.03-.48-.03-.68-.19s-.32-.37-.36-.62l-.03-.13c-.04-.23.01-.45.16-.65s.35-.31.59-.34c2.61-.35,4.52-1.09,5.72-2.22,1.2-1.13,1.9-2.89,2.1-5.28,0-.08-.04-.13-.11-.13h-4.96c-.1,0-.16.04-.19.13-.55,1.32-1.36,2.55-2.42,3.7-.17.18-.38.28-.64.29-.26.01-.48-.07-.67-.24ZM110.62,101.58c.05.11.13.26.23.46.1.2.17.35.22.43.11.21.12.43.05.64-.08.21-.22.37-.43.48-.21.11-.43.12-.65.05-.22-.07-.39-.22-.5-.43-.1-.19-.25-.48-.46-.86-.11-.21-.13-.43-.06-.65.07-.22.21-.38.42-.49.21-.11.44-.12.67-.05.23.07.41.21.51.42Z"/><path class="cls-2" d="M54.57,123.65c-.25,0-.46-.09-.63-.27-.18-.18-.26-.39-.26-.64v-.16c0-.25.09-.46.26-.64.18-.18.39-.27.63-.27h11.1c.25,0,.46.09.63.27.18.18.26.4.26.64v1.07c-.91,2.79-2.92,5.05-6.05,6.77-.08.04-.09.1-.03.18.15.21.36.52.62.92.27.4.46.69.58.86.14.21.18.44.13.67-.05.23-.19.42-.4.54l-.35.22c-.21.14-.44.18-.69.13-.25-.05-.44-.19-.59-.4-1.21-1.78-2.46-3.56-3.76-5.34-.15-.2-.2-.42-.15-.66.05-.24.17-.43.38-.57l.34-.22c.21-.15.45-.2.7-.15.25.05.45.17.6.38.12.16.51.7,1.18,1.62.05.07.12.09.19.05,1.14-.61,2.15-1.34,3.02-2.2.87-.86,1.51-1.74,1.91-2.65.04-.09.02-.13-.08-.13h-9.54Z"/><path class="cls-2" d="M69.23,126.92c-.25-.04-.44-.17-.58-.37-.14-.2-.19-.43-.14-.67l.02-.11c.04-.25.18-.44.4-.59.22-.15.46-.2.7-.14.6.11,1.76.33,3.49.67.25.04.43.17.57.38.13.21.17.44.12.7l-.02.11c-.05.25-.18.44-.39.58s-.43.19-.66.14c-2.04-.41-3.21-.63-3.5-.69ZM80.55,123.35c.25.04.44.17.58.38.14.21.19.43.14.66-.65,3-1.83,5.23-3.55,6.69-1.72,1.46-4.22,2.38-7.52,2.77-.26.03-.49-.03-.69-.18-.2-.16-.33-.36-.37-.62l-.03-.24c-.04-.23.01-.45.16-.64.15-.19.35-.3.59-.34,2.87-.33,5.01-1.08,6.42-2.25s2.4-3.02,2.95-5.54c.05-.25.18-.44.39-.58.21-.14.43-.2.68-.15l.24.05ZM74.01,121.81c.25.04.44.17.58.38.14.21.18.44.13.69l-.03.14c-.04.25-.17.44-.38.58s-.44.18-.68.13c-1.32-.27-2.54-.5-3.65-.69-.25-.04-.44-.17-.58-.37-.14-.2-.2-.43-.15-.67l.03-.13c.04-.25.17-.44.38-.59.21-.15.44-.2.69-.16,1.07.18,2.29.41,3.66.69Z"/><path class="cls-2" d="M83.96,123.6c-.22-.11-.37-.28-.45-.51-.08-.23-.05-.46.06-.67l.16-.32c.12-.22.3-.37.54-.45.24-.07.48-.06.71.05,1.06.51,2.17,1.09,3.34,1.73.21.12.35.3.42.54.07.25.05.47-.07.69l-.18.32c-.12.21-.3.36-.54.42-.25.07-.47.05-.69-.07-1.25-.68-2.35-1.26-3.31-1.73ZM95.09,123.09c.25.05.44.19.58.4.14.21.18.44.13.69-.63,2.74-1.86,4.89-3.69,6.43-1.83,1.55-4.3,2.52-7.4,2.91-.26.03-.48-.03-.68-.18s-.32-.36-.36-.62l-.03-.29c-.04-.25,0-.47.16-.66.15-.2.35-.31.59-.34,2.62-.36,4.69-1.16,6.19-2.4,1.5-1.24,2.55-3,3.15-5.3.06-.25.2-.44.42-.58.21-.14.44-.18.69-.13l.26.06Z"/></g></svg>