<?xml version="1.0" encoding="UTF-8"?><svg id="_レイヤー_2" xmlns="http://www.w3.org/2000/svg" viewBox="0 0 150 150"><defs><style>.cls-1{fill:none;}.cls-1,.cls-2{stroke-width:0px;}.cls-2{fill:#fff;}</style></defs><g id="_レイヤー_1-2"><rect class="cls-1" width="150" height="150" rx="23.44" ry="23.44"/><path class="cls-2" d="M18.47,113.58v2.96h5.18v2.08h-5.18v4.08h-2.59v-11.2h8.46v2.08h-5.87Z"/><path class="cls-2" d="M26.07,111.5h2.59v11.2h-2.59v-11.2Z"/><path class="cls-2" d="M33.54,113.61h-3.58v-2.11h9.76v2.11h-3.58v9.09h-2.59v-9.09Z"/><path class="cls-2" d="M39.7,117.19h4.53v2h-4.53v-2Z"/><path class="cls-2" d="M56.34,117.89c.36.47.54,1.06.54,1.75,0,.98-.38,1.74-1.14,2.26s-1.88.79-3.34.79h-5.79v-11.2h5.47c1.37,0,2.41.26,3.14.78.73.52,1.1,1.23,1.1,2.13,0,.54-.13,1.03-.39,1.46-.26.43-.63.76-1.1,1.01.64.2,1.14.54,1.5,1.02ZM49.19,113.45v2.64h2.58c.64,0,1.12-.11,1.46-.34.33-.22.5-.55.5-.99s-.17-.77-.5-.98c-.33-.22-.82-.33-1.46-.33h-2.58ZM53.75,120.41c.35-.22.52-.57.52-1.04,0-.93-.69-1.39-2.06-1.39h-3.02v2.77h3.02c.68,0,1.2-.11,1.54-.34Z"/><path class="cls-2" d="M66.12,120.29h-5.2l-.99,2.4h-2.66l4.99-11.2h2.56l5.01,11.2h-2.72l-.99-2.4ZM65.3,118.33l-1.78-4.29-1.78,4.29h3.55Z"/><path class="cls-2" d="M72.39,122.53c-.83-.24-1.49-.55-1.99-.94l.88-1.95c.48.35,1.05.63,1.71.85.66.21,1.32.32,1.98.32.74,0,1.28-.11,1.63-.33.35-.22.53-.51.53-.87,0-.27-.1-.49-.31-.66s-.47-.32-.8-.42c-.33-.11-.77-.22-1.32-.35-.85-.2-1.55-.41-2.1-.61-.54-.2-1.01-.53-1.4-.98-.39-.45-.58-1.04-.58-1.79,0-.65.18-1.24.53-1.77.35-.53.88-.95,1.59-1.26.71-.31,1.58-.46,2.6-.46.71,0,1.41.08,2.1.26s1.28.42,1.79.74l-.8,1.97c-1.04-.59-2.07-.88-3.1-.88-.73,0-1.26.12-1.61.35s-.52.54-.52.93.2.67.6.86c.4.19,1.01.37,1.83.55.85.2,1.55.41,2.1.61.54.2,1.01.52,1.4.96s.58,1.03.58,1.78c0,.64-.18,1.22-.54,1.75-.36.53-.89.95-1.61,1.26-.71.31-1.58.46-2.61.46-.89,0-1.74-.12-2.57-.36Z"/><path class="cls-2" d="M90.27,120.62v2.08h-8.67v-11.2h8.46v2.08h-5.89v2.43h5.2v2.02h-5.2v2.59h6.1Z"/><path class="cls-2" d="M102.14,117.89c.36.47.54,1.06.54,1.75,0,.98-.38,1.74-1.14,2.26s-1.88.79-3.34.79h-5.79v-11.2h5.47c1.37,0,2.41.26,3.14.78.73.52,1.1,1.23,1.1,2.13,0,.54-.13,1.03-.39,1.46-.26.43-.63.76-1.1,1.01.64.2,1.14.54,1.5,1.02ZM94.99,113.45v2.64h2.58c.64,0,1.12-.11,1.46-.34.33-.22.5-.55.5-.99s-.17-.77-.5-.98c-.33-.22-.82-.33-1.46-.33h-2.58ZM99.55,120.41c.35-.22.52-.57.52-1.04,0-.93-.69-1.39-2.06-1.39h-3.02v2.77h3.02c.68,0,1.2-.11,1.54-.34Z"/><path class="cls-2" d="M111.92,120.29h-5.2l-.99,2.4h-2.66l4.99-11.2h2.56l5.01,11.2h-2.72l-.99-2.4ZM111.1,118.33l-1.78-4.29-1.78,4.29h3.55Z"/><path class="cls-2" d="M116.81,111.5h2.59v9.09h5.62v2.11h-8.21v-11.2Z"/><path class="cls-2" d="M126.35,111.5h2.59v9.09h5.62v2.11h-8.21v-11.2Z"/><path class="cls-2" d="M95.92,55.16l-1.44-7.71c1.24-1.69,1.27-3.53,1.24-4.19,0,0-.02,0-.03,0-3.6-.07-6.63-2.38-7.81-5.57l-14.24,6.61c-.39.2-.75.43-1.08.69l-13.28,9.95-10.75-10.98c-1.35-1.47-2.39-1.05-3.86.3-1.47,1.35-2.09,2.47-.74,3.94l12.22,14.02c.5.55,1.14.91,1.82,1.07,1,.24,2.1.05,2.99-.6l13.44-7.5,4.14,12.05.82,17.63c.04,1.94,1.2,2.39,3.12,2.42.06,0,.11,0,.17,0,2-.05,3.1-.64,3.06-2.64l.04-18.08c0-.31-.06-.61-.14-.91l-2.44-13.01,4.63-2.19,1.94,6.9c.11.61.39,1.18.8,1.64l11.03,11.8c1.15,1.18,2.65,1.91,4.27.46,1.62-1.45.95-3.27-.11-4.46l-9.83-11.66Z"/><path class="cls-2" d="M103.09,34.88c-.08,4-3.38,7.17-7.38,7.09-4-.08-7.17-3.38-7.09-7.38.08-4,3.38-7.17,7.38-7.09,4,.08,7.17,3.38,7.09,7.38Z"/><path class="cls-2" d="M69.82,23.98c-.82-1.72-2.2-3.19-4.04-4.11-1.84-.91-3.85-1.12-5.72-.72.68,1.84,2.03,3.43,3.92,4.36,1.89.93,3.97,1.04,5.84.47Z"/><path class="cls-2" d="M63.2,25.09c-2.33-1.16-4-3.13-4.82-5.41-1.85.8-3.44,2.23-4.41,4.18-.94,1.89-1.13,3.96-.69,5.87,2.35-.78,4.99-.68,7.38.5,2.39,1.18,4.07,3.22,4.87,5.56,1.78-.81,3.31-2.22,4.24-4.11.97-1.95,1.14-4.08.65-6.04-2.31.73-4.89.61-7.22-.54Z"/><path class="cls-2" d="M53.84,31.4c.81,1.79,2.22,3.33,4.12,4.27,1.9.94,3.98,1.13,5.89.69-.65-1.91-2.03-3.58-3.98-4.55-1.95-.97-4.11-1.05-6.03-.41Z"/></g></svg>