<?xml version="1.0" encoding="UTF-8"?><svg id="_レイヤー_2" xmlns="http://www.w3.org/2000/svg" viewBox="0 0 150 150"><defs><style>.cls-1{fill:none;}.cls-1,.cls-2{stroke-width:0px;}.cls-2{fill:#fff;}</style></defs><g id="_レイヤー_1-2"><path class="cls-1" d="M23.44,0h103.13c12.94,0,23.44,10.5,23.44,23.44v103.12c0,12.94-10.5,23.44-23.44,23.44H23.44c-12.94,0-23.44-10.5-23.44-23.44V23.44C0,10.5,10.5,0,23.44,0Z"/><path class="cls-2" d="M27.37,113.63v2.96h5.18v2.08h-5.18v4.08h-2.59v-11.2h8.46v2.08h-5.87Z"/><path class="cls-2" d="M34.97,111.55h2.59v11.2h-2.59v-11.2Z"/><path class="cls-2" d="M42.44,113.67h-3.58v-2.11h9.76v2.11h-3.58v9.09h-2.59v-9.09Z"/><path class="cls-2" d="M48.6,117.25h4.53v2h-4.53v-2Z"/><path class="cls-2" d="M55.51,111.55h2.59v9.09h5.62v2.11h-8.21v-11.2Z"/><path class="cls-2" d="M67.21,122.19c-.93-.5-1.66-1.19-2.19-2.07s-.79-1.87-.79-2.97.26-2.09.79-2.97,1.26-1.57,2.19-2.07c.93-.5,1.98-.75,3.14-.75s2.21.25,3.14.75c.93.5,1.66,1.19,2.19,2.07s.8,1.87.8,2.97-.27,2.09-.8,2.97-1.26,1.57-2.19,2.07c-.93.5-1.97.75-3.14.75s-2.21-.25-3.14-.75ZM72.14,120.28c.53-.3.95-.73,1.26-1.27s.46-1.16.46-1.86-.15-1.31-.46-1.86-.72-.97-1.26-1.27c-.53-.3-1.13-.46-1.79-.46s-1.26.15-1.79.46c-.53.3-.95.73-1.26,1.27s-.46,1.16-.46,1.86.15,1.31.46,1.86.72.97,1.26,1.27c.53.3,1.13.46,1.79.46s1.26-.15,1.79-.46Z"/><path class="cls-2" d="M79.61,121.62c-.89-.89-1.34-2.15-1.34-3.79v-6.27h2.59v6.18c0,2.01.83,3.01,2.5,3.01.81,0,1.43-.24,1.86-.73s.64-1.25.64-2.28v-6.18h2.56v6.27c0,1.64-.45,2.91-1.34,3.79-.89.88-2.14,1.33-3.74,1.33s-2.84-.44-3.74-1.33Z"/><path class="cls-2" d="M101.25,111.55v11.2h-2.13l-5.58-6.8v6.8h-2.56v-11.2h2.14l5.57,6.8v-6.8h2.56Z"/><path class="cls-2" d="M111.49,116.98h2.37v4.54c-.61.46-1.31.81-2.11,1.06-.8.25-1.61.37-2.42.37-1.16,0-2.21-.25-3.14-.74-.93-.5-1.66-1.18-2.18-2.06s-.79-1.87-.79-2.98.26-2.1.79-2.98,1.26-1.57,2.2-2.06c.94-.5,1.99-.74,3.17-.74.98,0,1.87.17,2.67.5.8.33,1.47.81,2.02,1.44l-1.66,1.54c-.8-.84-1.76-1.26-2.9-1.26-.71,0-1.35.15-1.9.45-.55.3-.99.72-1.3,1.26s-.46,1.17-.46,1.87.15,1.31.46,1.86.74.97,1.29,1.27c.55.3,1.18.46,1.88.46.75,0,1.42-.16,2.02-.48v-3.28Z"/><path class="cls-2" d="M124.92,120.67v2.08h-8.67v-11.2h8.46v2.08h-5.89v2.43h5.2v2.02h-5.2v2.59h6.1Z"/><path class="cls-2" d="M98.09,31c0-3.73-3.02-6.75-6.75-6.75s-6.75,3.02-6.75,6.75,3.02,6.75,6.75,6.75,6.75-3.02,6.75-6.75Z"/><path class="cls-2" d="M63.88,64.03c-.86,1.6-5.99,12.28-5.99,12.28,0,0-1.49,2.15,1.48,3.77,3.07,1.68,4.08-.55,4.08-.55l7.29-13.17h14.58c6.55,0,7.13-6.36,7.13-6.36,0,0,1.99-10.36,2.65-14.18,1-5.77-4.58-9.3-11.21-4.94-2.77,1.83-8.2,5.52-8.2,5.52,0,0-6.42-1.08-8.38-1.41-1.5-.25-2.86-.63-3.41,1.58-.59,2.34.81,2.79,1.97,3.16.83.27,7.07,1.73,7.07,1.73,0,0,1.76.46,3.49.2,1.73-.26,2.99-.98,2.99-.98l3.3-1.77-1.91,9.93h-9.04c-5.28,0-6.28,2.19-7.89,5.19Z"/><rect class="cls-2" x="43.81" y="54.46" width="26.85" height="3.18"/><path class="cls-2" d="M54.04,51.13l-3.04-11.89c-.2-.76-.97-1.21-1.72-1.02-.76.19-1.21.96-1.02,1.72l3.32,12.96c.16.63.73,1.06,1.37,1.06h13c.78,0,1.42-.63,1.42-1.41s-.63-1.42-1.42-1.42h-11.9Z"/><path class="cls-2" d="M103.4,36.81c-1.93-.37-3.78.87-4.16,2.78l-5.59,28.94h-17.41c-1.95,0-3.53,1.58-3.53,3.54,0,4.03,1.44,9.92,5.84,9.92h21.72c3.76,0,5.9.04,5.9-4.89,0,0,0-35.38,0-37.13,0-1.76-.87-2.78-2.79-3.16Z"/></g></svg>