<?xml version="1.0" encoding="UTF-8"?><svg id="_レイヤー_2" xmlns="http://www.w3.org/2000/svg" viewBox="0 0 150 150"><defs><style>.cls-1{stroke:#fff;stroke-miterlimit:10;stroke-width:1.38px;}.cls-1,.cls-2{fill:none;}.cls-2,.cls-3{stroke-width:0px;}.cls-3{fill:#fff;}</style></defs><g id="_レイヤー_1-2"><rect class="cls-2" width="150" height="150" rx="23.44" ry="23.44"/><path class="cls-3" d="M13.31,113.57v2.96h5.19v2.08h-5.19v4.08h-2.59v-11.2h8.47v2.08h-5.87Z"/><path class="cls-3" d="M20.94,111.49h2.59v11.2h-2.59v-11.2Z"/><path class="cls-3" d="M28.38,113.6h-3.58v-2.11h9.76v2.11h-3.59v9.09h-2.59v-9.09Z"/><path class="cls-3" d="M34.46,117.19h4.53v2h-4.53v-2Z"/><path class="cls-3" d="M57.68,111.49l-3.67,11.2h-2.79l-2.46-7.59-2.54,7.59h-2.77l-3.68-11.2h2.69l2.53,7.88,2.64-7.88h2.4l2.56,7.94,2.61-7.94h2.48Z"/><path class="cls-3" d="M69.41,111.49v11.2h-2.59v-4.59h-5.09v4.59h-2.59v-11.2h2.59v4.42h5.09v-4.42h2.59Z"/><path class="cls-3" d="M72.06,111.49h2.59v11.2h-2.59v-11.2Z"/><path class="cls-3" d="M79.5,113.6h-3.58v-2.11h9.76v2.11h-3.59v9.09h-2.59v-9.09Z"/><path class="cls-3" d="M95.64,120.61v2.08h-8.68v-11.2h8.47v2.08h-5.89v2.43h5.2v2.02h-5.2v2.59h6.1Z"/><path class="cls-3" d="M108.06,111.49v11.2h-2.13l-5.59-6.8v6.8h-2.56v-11.2h2.15l5.57,6.8v-6.8h2.56Z"/><path class="cls-3" d="M110.7,111.49h2.59v11.2h-2.59v-11.2Z"/><path class="cls-3" d="M126.18,111.49v11.2h-2.13l-5.59-6.8v6.8h-2.56v-11.2h2.15l5.57,6.8v-6.8h2.56Z"/><path class="cls-3" d="M136.4,116.92h2.37v4.55c-1.23.93-2.93,1.42-4.53,1.42-3.52,0-6.11-2.42-6.11-5.79s2.59-5.79,6.16-5.79c1.97,0,3.6.67,4.69,1.94l-1.67,1.54c-.82-.86-1.76-1.26-2.9-1.26-2.18,0-3.67,1.46-3.67,3.58s1.49,3.59,3.63,3.59c.7,0,1.36-.13,2.02-.48v-3.28Z"/><path class="cls-3" d="M97.47,46.29c-.84-4.49-3.95-8.27-8.34-10.11-1.51-.63-4.87-1.18-8.14-.07s-4.68,1.38-5.99,1.38-2.71-.26-5.99-1.38-6.63-.57-8.14.07c-4.39,1.84-7.51,5.62-8.34,10.11-.55,2.93-.63,6.53-.26,10.69.32,3.56.98,7.5,1.92,11.41,1.48,6.21,4.01,13.73,6.64,16.21,1.34,1.26,2.7,1.89,4.06,1.89,1.71,0,3.69-1.05,4.16-4.01.21-1.31,2.13-8.89,5.95-8.89s5.75,7.58,5.95,8.89c.46,2.96,2.45,4.01,4.16,4.01,1.36,0,2.73-.64,4.06-1.89,2.63-2.48,5.16-10,6.64-16.21.94-3.91,1.6-7.86,1.92-11.41.37-4.16.29-7.76-.26-10.69"/><line class="cls-1" x1="100.1" y1="67.2" x2="109.05" y2="69.04"/><line class="cls-1" x1="111" y1="51.75" x2="101.82" y2="54.38"/><line class="cls-1" x1="40.95" y1="69.04" x2="49.9" y2="67.2"/><line class="cls-1" x1="48.18" y1="54.38" x2="39" y2="51.75"/><line class="cls-1" x1="107.03" y1="35.25" x2="99.88" y2="41.23"/><line class="cls-1" x1="96.76" y1="25.4" x2="92.09" y2="33.26"/><line class="cls-1" x1="50.12" y1="41.23" x2="42.97" y2="35.25"/><line class="cls-1" x1="81.28" y1="22.69" x2="79.73" y2="32.41"/><line class="cls-1" x1="57.91" y1="33.26" x2="53.24" y2="25.4"/><line class="cls-1" x1="70.27" y1="32.41" x2="68.72" y2="22.7"/></g></svg>