<?xml version="1.0" encoding="UTF-8"?><svg id="_レイヤー_2" xmlns="http://www.w3.org/2000/svg" viewBox="0 0 14.09 18.38"><defs><style>.cls-1{fill:#9dc938;stroke-width:0px;}</style></defs><g id="_コンテンツ"><path class="cls-1" d="M1.26.78C0,1.6-.25,4.16.23,6.25c.37,1.63,1.16,3.81,2.49,5.86,1.25,1.93,3,3.66,4.33,4.66,1.71,1.29,4.15,2.1,5.41,1.28.64-.41,1.59-1.55,1.63-1.75,0,0-.56-.86-.68-1.05l-1.87-2.88c-.14-.21-1.01-.02-1.45.23-.6.34-1.14,1.24-1.14,1.24-.41.24-.75,0-1.47-.33-.88-.4-1.87-1.66-2.65-2.8-.72-1.18-1.46-2.6-1.47-3.56,0-.79-.08-1.2.3-1.47,0,0,1.05-.13,1.6-.54.41-.3.94-1.02.8-1.23l-1.87-2.88C4.08.86,3.52,0,3.52,0c-.2-.04-1.62.36-2.26.78Z"/></g></svg>