<?xml version="1.0" encoding="UTF-8"?><svg id="_レイヤー_2" xmlns="http://www.w3.org/2000/svg" viewBox="0 0 150 150"><defs><style>.cls-1{fill:none;}.cls-1,.cls-2{stroke-width:0px;}.cls-2{fill:#fff;}</style></defs><g id="_レイヤー_1-2"><rect class="cls-1" width="150" height="150" rx="23.44" ry="23.44"/><path class="cls-2" d="M43.43,116.85l-.19-.74c-.14-.54-.04-1.09.3-1.63.91-1.42,1.6-3.15,2.08-5.18.05-.25.19-.44.4-.58.21-.14.44-.19.69-.15l.19.03c.25.05.44.18.58.38s.19.42.14.66c-.21,1.04-.49,2-.82,2.88-.03.09-.05.17-.05.26v6.24s.01.02.03,0c.02-.06.08-.15.18-.27,1.61-1.88,2.85-3.83,3.73-5.86.04-.09.02-.13-.08-.13h-2.53c-.25,0-.45-.09-.62-.26-.17-.18-.26-.38-.26-.62s.08-.44.26-.62c.17-.18.38-.26.62-.26h3.52c.09,0,.13-.05.13-.14v-1.49c0-.25.09-.46.27-.63.18-.18.39-.26.64-.26h.27c.25,0,.46.09.63.26s.26.39.26.63v1.49c0,.1.05.14.14.14h3.54c.25,0,.45.09.62.26.17.18.26.38.26.62s-.09.44-.26.62c-.17.18-.38.26-.62.26h-2.5c-.1,0-.12.04-.08.13.79,1.88,1.87,3.68,3.25,5.41.17.21.27.46.3.73.03.27-.03.53-.17.76l-.26.45c-.11.18-.27.28-.48.29-.21.01-.38-.07-.51-.24-.32-.45-.53-.74-.62-.88-.02-.01-.04,0-.06.03v.08c0,.25-.09.46-.27.63-.18.18-.39.26-.64.26h-1.49c-.1,0-.14.05-.14.14v1.52c0,.25-.09.46-.26.63-.18.18-.39.26-.63.26h-.27c-.25,0-.46-.09-.64-.26-.18-.18-.27-.39-.27-.63v-1.52c0-.1-.04-.14-.13-.14h-1.6c-.25,0-.46-.09-.64-.26-.18-.18-.27-.39-.27-.63v-.06s-.01-.04-.03-.05-.04,0-.05.02l-.67.91c-.15.18-.34.28-.58.28-.23,0-.43-.08-.58-.25l-.22-.27s-.09-.12-.16-.27c-.03-.03-.05-.03-.05,0v2.26c0,.25-.09.46-.27.63-.18.18-.39.26-.64.26h-.19c-.25,0-.46-.09-.63-.26-.18-.18-.26-.39-.26-.63v-5.78s-.01-.03-.03-.03-.04,0-.05.02c-.11.18-.27.43-.48.75-.11.15-.25.2-.43.16-.18-.04-.29-.15-.34-.34ZM49.57,118.6s-.02.05,0,.08c.02.03.04.05.07.05h1.97c.09,0,.13-.04.13-.13v-3.94s-.03,0-.05,0c-.55,1.33-1.26,2.65-2.11,3.94ZM53.81,114.64v3.95c0,.08.05.13.14.13h1.89s.06-.01.07-.04c.02-.03.01-.05,0-.07-.8-1.26-1.48-2.58-2.03-3.97-.01-.01-.02-.02-.04-.02-.02,0-.02,0-.02.02Z"/><path class="cls-2" d="M60.4,121.96c-.17.12-.35.16-.55.13-.2-.03-.36-.13-.48-.29-.12-.16-.16-.34-.13-.54.15-.93.27-1.93.35-2.99.02-.2.11-.37.26-.5s.33-.19.53-.18c.2.02.37.1.5.25.13.14.19.32.18.52-.07,1-.2,2.04-.37,3.12-.03.2-.13.36-.3.48ZM60.25,116.92c-.25.01-.46-.07-.64-.23-.18-.17-.28-.37-.29-.62v-.03c-.01-.25.07-.46.25-.65.18-.19.39-.29.63-.31l.66-.03c.09,0,.16-.04.21-.11,0-.01.01-.03.03-.05s.03-.04.03-.05c.04-.08.04-.16,0-.24-.3-.45-.76-1.11-1.38-1.98-.34-.5-.39-1.02-.16-1.57l.13-.26c.08-.18.23-.29.42-.31s.35.05.47.22c.04.06.08.06.13-.02.32-.7.55-1.24.7-1.6.08-.22.24-.39.46-.49.22-.1.44-.11.66-.02.22.09.38.24.48.46s.1.43,0,.65c-.35.82-.77,1.68-1.25,2.58-.04.1-.04.18.02.24.03.05.09.13.17.24.08.11.14.19.17.24.04.06.08.06.13,0,.43-.73.84-1.46,1.25-2.21.12-.21.29-.36.51-.45.22-.08.45-.08.67.02.21.1.36.25.43.47.08.22.05.43-.06.63-.44.81-.74,1.35-.91,1.63-.01.04.01.07.06.08l.34-.08c.25-.06.48-.03.7.1s.36.32.42.56c.24.89.43,1.67.58,2.37.04.2,0,.39-.1.55-.11.17-.27.27-.47.31l-.32.06c-.11.02-.21,0-.3-.06-.1-.06-.15-.15-.18-.26,0-.04-.03-.06-.08-.06l-1.07.06c-.1,0-.14.05-.14.14v5.23c0,.25-.09.46-.27.63-.18.18-.4.26-.64.26h-.22c-.25,0-.46-.09-.64-.26-.18-.18-.27-.39-.27-.63v-5.09c0-.08-.04-.13-.13-.13l-1.17.06ZM63.12,114.8c-.05.07-.04.11.05.11l1.15-.06c.1,0,.13-.05.11-.14-.03-.14-.15-.57-.35-1.28-.02-.07-.05-.08-.1-.03-.43.7-.71,1.17-.86,1.41ZM65.05,121.03c-.2.01-.38-.04-.52-.17-.14-.12-.23-.29-.25-.49-.06-.82-.13-1.53-.19-2.13-.02-.19.03-.37.14-.52.12-.15.27-.24.46-.26.19-.02.37.03.52.14s.24.27.26.46c.14,1.2.22,1.93.24,2.19.01.2-.05.38-.18.52-.13.14-.29.23-.5.25ZM73.69,120.95c.22,0,.41.08.57.23s.23.34.23.57v.08c0,.24-.09.44-.26.62-.18.18-.38.26-.62.26h-7.73c-.25,0-.45-.09-.62-.26s-.26-.38-.26-.62.08-.44.26-.62c.17-.18.38-.26.62-.26h.29c.1,0,.14-.05.14-.14v-11.12c0-.25.09-.46.26-.63s.39-.26.63-.26h5.44c.25,0,.46.09.64.26.18.18.27.39.27.63v11.14c0,.09.04.13.13.13ZM71.48,112.72v-2.06c0-.1-.05-.14-.14-.14h-2.91c-.1,0-.14.05-.14.14v2.06c0,.1.05.14.14.14h2.91c.1,0,.14-.05.14-.14ZM71.48,116.76v-2.08c0-.08-.05-.13-.14-.13h-2.91c-.1,0-.14.04-.14.13v2.08c0,.08.05.13.14.13h2.91c.1,0,.14-.04.14-.13ZM71.48,120.8v-2.1c0-.1-.05-.14-.14-.14h-2.91c-.1,0-.14.05-.14.14v2.1c0,.1.05.14.14.14h2.91c.1,0,.14-.05.14-.14Z"/><path class="cls-2" d="M76.26,122.24l-.35-.45c-.35-.46-.41-.98-.18-1.55.34-.81.58-1.69.7-2.64s.19-2.26.19-3.92v-2.85c0-.25.09-.46.27-.64.18-.18.39-.27.64-.27h5.3c.1,0,.14-.04.14-.13,0-.05,0-.14,0-.26,0-.12,0-.22,0-.28-.01-.25.07-.46.26-.65s.39-.28.64-.28h.18c.25,0,.46.09.64.27s.28.39.29.64c0,.06,0,.16,0,.28,0,.12,0,.22,0,.28,0,.08.05.13.14.13h1.57c.08,0,.09-.03.05-.1-.02-.02-.09-.1-.2-.24-.11-.14-.2-.25-.26-.32-.15-.16-.2-.35-.15-.56.05-.21.17-.36.38-.43.23-.11.48-.13.74-.08.26.05.48.18.65.38.18.2.4.46.66.78.08.12.13.26.13.42,0,.1.04.14.11.14h.27c.23,0,.44.08.62.26s.26.38.26.62-.09.45-.26.62-.38.26-.62.26h-3.82c-.08,0-.13.04-.13.13.17,1.67.44,3.17.8,4.48.01.02.03.03.05.04.02,0,.04,0,.06-.02.48-.82.86-1.73,1.15-2.74.07-.23.22-.41.43-.54.21-.12.44-.15.67-.09l.1.03c.25.08.43.22.56.44s.15.45.08.7c-.46,1.62-1.18,3.09-2.18,4.42-.05.06-.06.14-.02.24.27.55.52.98.77,1.29.25.3.42.46.53.46.26,0,.46-.61.61-1.82.03-.22.14-.39.34-.51.19-.12.39-.13.59-.05l.08.03c.25.1.44.26.58.49.14.23.2.48.17.74-.15,1.17-.41,2.05-.79,2.62s-.81.86-1.3.86c-.46,0-.95-.21-1.48-.63-.53-.42-1.03-1.04-1.51-1.86-.01-.03-.04-.05-.09-.06-.05,0-.08,0-.1.02-.89.81-1.88,1.47-2.99,1.97-.24.11-.47.11-.71.02-.24-.1-.42-.26-.54-.5l-.05-.08c-.11-.21-.12-.43-.03-.66.08-.22.24-.39.46-.5,1.15-.52,2.15-1.22,3.01-2.1.08-.08.1-.16.06-.24-.68-1.83-1.13-3.98-1.33-6.45,0-.08-.05-.13-.14-.13h-4.13c-.1,0-.14.05-.14.14v1.33c0,.09.05.13.14.13h3.09c.25,0,.46.09.64.27.18.18.27.39.27.64,0,.98,0,1.78-.02,2.4-.02.62-.06,1.16-.12,1.62-.06.46-.13.81-.2,1.03-.07.22-.18.4-.34.54-.16.13-.32.21-.47.24-.16.03-.38.04-.66.04s-.72-.02-1.26-.05c-.25-.02-.46-.12-.65-.29-.19-.17-.3-.38-.33-.62-.03-.21.03-.4.18-.56s.34-.23.57-.22c.43.02.67.03.74.03.33,0,.53-.15.6-.46s.1-1.25.1-2.82c0-.08-.05-.13-.14-.13h-1.98c-.1,0-.14.04-.14.13v.13c0,2.87-.47,5.2-1.41,6.98-.11.19-.27.3-.48.31-.21.02-.39-.07-.53-.25Z"/><path class="cls-2" d="M92.14,112.93c-.25,0-.45-.08-.62-.26-.17-.17-.25-.37-.25-.61s.08-.44.25-.61c.17-.17.37-.26.62-.26h5.22c.25,0,.45.09.62.26.17.17.25.37.25.61s-.08.44-.25.61-.37.26-.62.26h-5.22ZM92.51,108.92h4.37c.22,0,.41.08.57.23s.23.34.23.57-.08.42-.23.58c-.15.16-.34.24-.57.24h-4.37c-.22,0-.41-.08-.57-.24-.15-.16-.23-.35-.23-.58s.08-.41.23-.57c.15-.15.34-.23.57-.23ZM97.74,119.08v2.48c0,.25-.09.46-.27.64s-.39.27-.64.27h-3.1s-.06.02-.06.06c0,.15-.05.27-.14.37s-.22.14-.37.14h-.53c-.25,0-.46-.09-.64-.26-.18-.18-.27-.39-.27-.63v-3.07c0-.25.09-.46.27-.64s.39-.27.64-.27h4.21c.25,0,.46.09.64.27s.27.39.27.64ZM92.62,115.2c-.21,0-.4-.08-.55-.23-.15-.15-.23-.34-.23-.55s.08-.4.23-.55c.16-.15.34-.23.55-.23h4.26c.21,0,.4.08.55.23.15.16.23.34.23.55s-.08.4-.23.55-.34.23-.55.23h-4.26ZM92.62,117.46c-.21,0-.4-.08-.55-.23s-.23-.34-.23-.55.08-.39.23-.54c.16-.15.34-.22.55-.22h4.26c.21,0,.4.08.55.22s.23.33.23.54-.08.4-.23.55c-.15.16-.34.23-.55.23h-4.26ZM95.95,120.79v-.94c0-.1-.05-.14-.14-.14h-2.02c-.09,0-.13.05-.13.14v.94c0,.1.04.14.13.14h2.02c.1,0,.14-.05.14-.14ZM99.23,115.11c-.25,0-.46-.09-.64-.27s-.27-.39-.27-.64v-.05c0-.25.09-.46.27-.64.18-.18.39-.27.64-.27h1.94c.1,0,.14-.05.14-.14v-3.73c0-.25.09-.46.27-.63.18-.18.39-.26.64-.26h.32c.25,0,.46.09.63.26s.26.39.26.63v3.73c0,.1.05.14.14.14h1.57c.25,0,.46.09.64.27.18.18.27.39.27.64v.05c0,.25-.09.46-.27.64-.18.18-.4.27-.64.27h-1.57c-.1,0-.14.04-.14.13v6.83c0,.25-.09.46-.26.63-.18.18-.39.26-.63.26h-.32c-.25,0-.46-.09-.64-.26-.18-.18-.27-.39-.27-.63v-6.83c0-.08-.05-.13-.14-.13h-1.94Z"/><path class="cls-2" d="M112.92,30.1c-.22-1.16-1.17-2.12-2.34-2.34-2.03-.38-3.78,1.29-3.53,3.3l-12.85,8.2c-.31-.2-.64-.34-1.01-.41-1.52-.29-2.87.58-3.36,1.87l-16.8,1.33c-.53-.79-1.44-1.31-2.46-1.31-1.64,0-2.97,1.33-2.97,2.97,0,.29.04.56.12.82l-9.63,14.21c-.15-.02-.31-.04-.47-.04-1.57,0-2.85,1.22-2.96,2.76l-12.59,4.81c-.54-.52-1.26-.84-2.07-.84-1.64,0-2.97,1.33-2.97,2.97s1.33,2.97,2.97,2.97,2.85-1.22,2.96-2.76l12.59-4.81c.54.52,1.26.84,2.07.84,1.64,0,2.97-1.33,2.97-2.97,0-.56-.16-1.07-.42-1.52l9.28-13.69c.35.14.72.22,1.12.22,1.35,0,2.49-.91,2.85-2.14l16.61-1.31c.42.74,1.15,1.29,2,1.45,2.03.39,3.78-1.29,3.53-3.3l12.85-8.2c.31.19.64.34,1.01.41,2.1.4,3.9-1.41,3.5-3.5Z"/><path class="cls-2" d="M98.72,58.11c-4.58-7.29-14.11-3.36-13.27,4.34.89,8.13,7.43,11.15,13.27,16.08,5.85-4.93,12.38-7.94,13.27-16.08.84-7.71-8.69-11.63-13.27-4.34Z"/></g></svg>