<?xml version="1.0" encoding="UTF-8"?><svg id="_レイヤー_2" xmlns="http://www.w3.org/2000/svg" viewBox="0 0 150 150"><defs><style>.cls-1{fill:none;}.cls-1,.cls-2{stroke-width:0px;}.cls-2{fill:#fff;}</style></defs><g id="_レイヤー_1-2"><path class="cls-1" d="M23.44,0h103.13c12.94,0,23.44,10.5,23.44,23.44v103.12c0,12.94-10.5,23.44-23.44,23.44H23.44c-12.94,0-23.44-10.5-23.44-23.44V23.44C0,10.5,10.5,0,23.44,0Z"/><path class="cls-2" d="M51.89,122.13l-.14-.19c-.15-.21-.21-.45-.17-.7.04-.25.15-.47.34-.65.77-.72,1.46-1.58,2.08-2.58.62-.99,1.07-1.97,1.36-2.94.02-.08-.01-.13-.1-.13h-2.58c-.25,0-.46-.09-.63-.27-.18-.18-.26-.39-.26-.64s.09-.46.26-.64c.18-.18.39-.27.63-.27h3.68c.25,0,.46.09.64.27.18.18.27.39.27.64,0,.68-.07,1.27-.21,1.78-.68,2.55-2,4.71-3.95,6.48-.18.16-.39.22-.64.19-.25-.03-.44-.15-.59-.35ZM62.62,117.36c.95,1.34,2.02,2.53,3.22,3.57.18.16.29.37.31.62.03.25-.04.47-.2.66l-.18.19c-.16.19-.37.3-.62.33-.25.03-.47-.05-.66-.22-1.66-1.47-3.09-3.29-4.27-5.46-.01-.01-.02-.02-.04-.02-.02,0-.02.01-.02.03v4.75c0,.64-.02,1.11-.06,1.42-.04.31-.15.56-.34.76-.19.2-.43.32-.71.36s-.72.06-1.32.06c-.33,0-.85-.02-1.55-.05-.26-.01-.48-.11-.67-.29-.19-.18-.29-.4-.3-.66-.01-.24.07-.44.23-.62.17-.18.37-.26.62-.25.59.03,1.01.05,1.26.05.35,0,.56-.03.62-.1.06-.07.1-.29.1-.65v-10.99c0-.25.09-.46.26-.63s.39-.26.63-.26h.32c.25,0,.46.09.64.26s.27.39.27.63v1.65c0,.06.02.15.06.26.01.01.02.02.02.03.01.02.02.04.02.05.3.85.69,1.72,1.17,2.59.01.03.04.05.08.06.04,0,.07,0,.1-.02.85-.7,1.69-1.56,2.5-2.58.16-.19.36-.31.6-.34.24-.04.46.02.66.17l.13.1c.2.15.32.35.35.6.03.25-.03.48-.18.68-.88,1.13-1.86,2.14-2.94,3.02l-.03.02s-.03.02-.03.03c-.08.04-.09.1-.03.18Z"/><path class="cls-2" d="M67.92,116.47c-.2,0-.38-.07-.53-.22s-.22-.33-.22-.54.08-.39.22-.54.33-.22.53-.22h5.33c.09,0,.13-.04.13-.13v-.34c0-.09-.04-.13-.13-.13h-4.24c-.19,0-.36-.07-.49-.21-.13-.14-.2-.3-.2-.5s.07-.35.2-.49.3-.2.49-.2h4.24c.09,0,.13-.05.13-.14v-.32c0-.1-.04-.14-.13-.14h-4.69c-.21,0-.4-.08-.55-.23-.16-.15-.23-.34-.23-.55s.08-.4.23-.55c.15-.16.34-.23.55-.23h4.69c.09,0,.13-.04.13-.11,0-.23.08-.43.25-.6.17-.17.37-.25.6-.25h.61c.23,0,.43.08.6.25.17.17.25.37.25.6,0,.08.04.11.13.11h4.69c.21,0,.4.08.55.23.16.15.23.34.23.55s-.08.4-.23.55c-.15.16-.34.23-.55.23h-4.69c-.09,0-.13.05-.13.14v.32c0,.1.04.14.13.14h4.24c.19,0,.35.07.49.2.13.13.2.3.2.49s-.07.36-.2.5-.3.21-.49.21h-4.24c-.09,0-.13.04-.13.13v.34c0,.08.04.13.13.13h5.33c.2,0,.38.07.53.22s.22.32.22.54-.08.39-.22.54-.33.22-.53.22h-2.35s-.03.01-.04.03c0,.02,0,.04.02.06.16.15.23.33.22.55s-.12.39-.3.52c-1.01.7-2,1.33-2.94,1.87-.02.01-.03.02-.03.04,0,.02.01.02.03.02l2.75-.05s.04-.01.05-.04.01-.05,0-.06c-.13-.15-.17-.32-.14-.5.04-.19.14-.32.31-.41l.21-.11c.23-.12.49-.15.76-.1.27.05.49.18.66.38.72.86,1.14,1.37,1.25,1.5.15.18.2.39.14.63s-.18.41-.38.52l-.1.05c-.22.12-.46.15-.7.1-.25-.05-.45-.17-.61-.38-.05-.06-.12-.1-.21-.1l-1.79.05s-.03,0-.03.02c0,.02,0,.03.02.04,1.25.54,2.25,1.01,2.99,1.39.21.11.35.27.41.5.06.22.02.44-.1.64-.14.2-.33.34-.58.4-.25.06-.48.04-.7-.08-.69-.36-1.61-.81-2.74-1.33-.21-.1-.35-.26-.42-.49-.06-.23-.03-.44.11-.63l.26-.34c.05-.07.03-.11-.06-.11l-1.39.03c-.08,0-.13.05-.13.14v2.32c0,.25-.09.46-.27.63-.18.18-.39.26-.64.26h-.37c-.25,0-.46-.09-.64-.26-.18-.18-.27-.39-.27-.63v-2.27c0-.09-.05-.13-.14-.13l-1.55.03s-.04.01-.05.04c-.01.03-.01.05,0,.07l.22.26c.15.18.2.39.16.62-.04.24-.17.41-.37.53-.78.44-1.66.86-2.66,1.28-.24.1-.47.11-.71.03-.24-.07-.43-.22-.57-.43-.12-.19-.14-.4-.06-.62.08-.22.22-.37.43-.46.88-.36,1.75-.77,2.59-1.23.01-.01.02-.02.02-.04,0-.02-.01-.02-.03-.02l-2.54.06c-.22.01-.41-.06-.57-.22-.16-.15-.24-.34-.25-.57-.01-.21.06-.4.22-.55.15-.16.34-.24.55-.25l3.04-.06s.04-.01.05-.03c.01-.02,0-.04-.02-.06-.98-.74-1.57-1.17-1.76-1.31-.18-.14-.28-.32-.28-.54,0-.22.08-.4.26-.54l.16-.13c.21-.16.46-.24.74-.25.28,0,.52.07.74.23.02.02.05.05.09.08.04.03.07.05.09.06.07.05.15.05.22,0,.14-.09.47-.3,1.01-.66.01-.01.01-.02,0-.04,0-.02-.02-.02-.04-.02h-4.46ZM77.06,116.47h-1.82c-.09,0-.14.05-.16.14-.03.17-.12.3-.26.38-.74.53-1.38.97-1.94,1.3-.07.05-.08.1-.02.14.04.03.11.09.21.18.1.08.17.14.22.18.09.06.17.07.26.02,1.23-.72,2.41-1.48,3.54-2.27.04-.04.03-.06-.03-.06Z"/><path class="cls-2" d="M83.33,122.13l-.14-.19c-.15-.21-.21-.45-.17-.7.04-.25.15-.47.34-.65.77-.72,1.46-1.58,2.08-2.58.62-.99,1.07-1.97,1.36-2.94.02-.08-.01-.13-.1-.13h-2.58c-.25,0-.46-.09-.63-.27-.18-.18-.26-.39-.26-.64s.09-.46.26-.64c.18-.18.39-.27.63-.27h3.68c.25,0,.46.09.64.27.18.18.27.39.27.64,0,.68-.07,1.27-.21,1.78-.68,2.55-2,4.71-3.95,6.48-.18.16-.39.22-.64.19-.25-.03-.44-.15-.59-.35ZM94.07,117.36c.95,1.34,2.02,2.53,3.22,3.57.18.16.29.37.31.62.03.25-.04.47-.2.66l-.18.19c-.16.19-.37.3-.62.33-.25.03-.47-.05-.66-.22-1.66-1.47-3.09-3.29-4.27-5.46-.01-.01-.02-.02-.04-.02-.02,0-.02.01-.02.03v4.75c0,.64-.02,1.11-.06,1.42-.04.31-.15.56-.34.76-.19.2-.43.32-.71.36s-.72.06-1.32.06c-.33,0-.85-.02-1.55-.05-.26-.01-.48-.11-.67-.29-.19-.18-.29-.4-.3-.66-.01-.24.07-.44.23-.62.17-.18.37-.26.62-.25.59.03,1.01.05,1.26.05.35,0,.56-.03.62-.1.06-.07.1-.29.1-.65v-10.99c0-.25.09-.46.26-.63s.39-.26.63-.26h.32c.25,0,.46.09.64.26s.27.39.27.63v1.65c0,.06.02.15.06.26.01.01.02.02.02.03.01.02.02.04.02.05.3.85.69,1.72,1.17,2.59.01.03.04.05.08.06.04,0,.07,0,.1-.02.85-.7,1.69-1.56,2.5-2.58.16-.19.36-.31.6-.34.24-.04.46.02.66.17l.13.1c.2.15.32.35.35.6.03.25-.03.48-.18.68-.88,1.13-1.86,2.14-2.94,3.02l-.03.02s-.03.02-.03.03c-.08.04-.09.1-.03.18Z"/><path class="cls-2" d="M96.44,65.67c0,11.85-9.6,21.44-21.45,21.44s-21.44-9.6-21.44-21.44c0-17.77,21.44-46.55,21.44-46.55,0,0,21.45,28.5,21.45,46.55M75.92,72.19v-14.91h-2.89v6h-5.91v-6h-2.87v14.91h2.87v-6.52h5.91v6.52h2.89ZM88.66,65.8v-1.69h-3.81v-3.77h-1.81v3.77h-3.79v1.69h3.79v4.07h1.81v-4.07h3.81Z"/></g></svg>