<?xml version="1.0" encoding="UTF-8"?><svg id="_レイヤー_2" xmlns="http://www.w3.org/2000/svg" viewBox="0 0 150 150"><defs><style>.cls-1{fill:none;}.cls-1,.cls-2{stroke-width:0px;}.cls-2{fill:#fff;}</style></defs><g id="_レイヤー_1-2"><path class="cls-1" d="M23.44,0h103.12c12.94,0,23.44,10.5,23.44,23.44v103.13c0,12.94-10.5,23.44-23.44,23.44H23.44C10.5,150,0,139.5,0,126.56V23.44C0,10.5,10.5,0,23.44,0Z"/><path class="cls-2" d="M45.43,110.93c-.23,0-.43-.08-.58-.24-.16-.16-.23-.36-.23-.59s.08-.43.23-.58c.15-.15.35-.23.58-.23h4.67c.08,0,.14-.05.16-.16.02-.15.04-.37.06-.67,0-.08-.04-.13-.13-.13h-3.9c-.25,0-.46-.09-.64-.27s-.27-.39-.27-.64v-5.23c0-.25.09-.46.27-.63s.39-.26.64-.26h10.18c.25,0,.46.09.64.26s.27.39.27.63v5.23c0,.25-.09.46-.27.64s-.39.27-.64.27h-3.92c-.1,0-.14.04-.14.11-.02.34-.04.58-.06.72-.01.03,0,.06.03.09.03.03.06.04.1.04h4.67c.25,0,.46.09.63.26s.26.39.25.63c-.04,1.15-.11,2.06-.21,2.71s-.26,1.16-.5,1.52-.51.59-.82.69c-.3.1-.74.15-1.3.15-.75,0-1.58-.02-2.51-.06-.25-.01-.45-.1-.62-.27s-.26-.38-.27-.62c-.01-.24.07-.43.23-.59.17-.16.37-.23.6-.22,1.13.04,1.8.06,2,.06.35,0,.6-.05.75-.15s.26-.32.34-.65c.08-.33.15-.88.2-1.66,0-.1-.04-.14-.13-.14h-3.79c-.1,0-.16.04-.19.13-.86,1.83-2.76,3.23-5.7,4.18-.25.08-.49.06-.74-.04-.25-.1-.43-.27-.56-.5l-.05-.06c-.12-.2-.13-.41-.04-.62.09-.21.25-.35.47-.42,1.15-.36,2.07-.74,2.77-1.14.69-.4,1.23-.87,1.6-1.4.02-.02.02-.05,0-.07-.02-.03-.04-.04-.07-.04h-4.06ZM47.46,102.94v1.02c0,.1.05.14.14.14h2.59c.1,0,.14-.05.14-.14v-1.02c0-.08-.05-.13-.14-.13h-2.59c-.1,0-.14.04-.14.13ZM50.19,106.83c.1,0,.14-.04.14-.13v-1.09c0-.08-.05-.13-.14-.13h-2.59c-.1,0-.14.04-.14.13v1.09c0,.08.05.13.14.13h2.59ZM52.42,102.94v1.02c0,.1.05.14.14.14h2.59c.1,0,.14-.05.14-.14v-1.02c0-.08-.05-.13-.14-.13h-2.59c-.1,0-.14.04-.14.13ZM52.42,105.61v1.09c0,.08.05.13.14.13h2.59c.1,0,.14-.04.14-.13v-1.09c0-.08-.05-.13-.14-.13h-2.59c-.1,0-.14.04-.14.13Z"/><path class="cls-2" d="M60.15,105.09c-.25,0-.46-.09-.63-.27-.18-.18-.26-.39-.26-.64s.09-.46.26-.63c.18-.18.39-.26.63-.26h3.47c.08,0,.14-.04.18-.13.13-.37.28-.91.46-1.62.06-.26.2-.46.41-.62s.45-.23.71-.22l.32.02c.25.02.44.13.58.32.14.19.19.41.14.64-.12.52-.25,1.01-.38,1.47-.02.09.01.13.1.13h6.72c.25,0,.46.09.63.26.18.18.26.39.26.63s-.09.46-.26.64c-.18.18-.39.27-.63.27h-1.42c-.08,0-.13.04-.13.13,0,.07,0,.13-.02.18-.47,2.23-1.2,4.02-2.19,5.38-.06.06-.05.12.05.18,1.07.65,2.25,1.47,3.55,2.45.19.14.3.33.31.58s-.06.45-.23.62l-.06.08c-.18.18-.4.28-.66.3s-.49-.05-.7-.2c-1.25-.94-2.42-1.75-3.5-2.43-.07-.03-.14-.03-.21.02-1.6,1.35-3.86,2.26-6.78,2.7-.23.04-.45,0-.65-.15-.2-.14-.32-.34-.38-.58-.04-.23,0-.45.14-.64s.33-.31.56-.35c2.27-.38,4.03-1.06,5.28-2.03.05-.04.05-.09-.02-.13-1-.52-2.04-.99-3.1-1.41h-.02s-.02-.02-.03-.02c-.1-.04-.17-.04-.21.02-.02.02-.04.05-.06.08s-.04.06-.06.08c-.17.19-.39.3-.66.33-.27.03-.5-.04-.7-.18l-.1-.08c-.19-.14-.3-.33-.33-.58-.03-.25.04-.46.2-.64.92-1.09,1.67-2.27,2.26-3.55.04-.08.02-.13-.08-.13h-2.75ZM69.11,105.09h-3.63c-.1,0-.16.04-.19.13-.43.98-.96,1.94-1.58,2.88-.05.08-.03.13.06.18,1.15.44,2.27.94,3.36,1.52.07.04.14.03.19-.05.82-1.13,1.45-2.62,1.87-4.46v-.02s.02-.02.02-.03c.02-.1-.01-.14-.1-.14Z"/><path class="cls-2" d="M75.24,113.04c1.25-.63,2.34-1.33,3.28-2.11.02-.01.03-.03.02-.05s-.03-.03-.05-.03h-2.06c-.21,0-.39-.07-.54-.22-.14-.15-.22-.33-.22-.53s.07-.38.22-.53c.14-.15.32-.22.54-.22h2.62c.1,0,.14-.05.14-.14v-.67c0-.1-.05-.14-.14-.14h-3.42c-.23,0-.43-.08-.6-.25s-.25-.37-.25-.6.08-.43.25-.6c.17-.17.37-.25.6-.25h3.42c.1,0,.14-.04.14-.13v-.62c0-.1-.05-.14-.14-.14h-2.62c-.21,0-.39-.08-.54-.22-.14-.15-.22-.33-.22-.53s.07-.38.22-.53c.14-.15.32-.22.54-.22h2.62c.1,0,.14-.04.14-.13v-.5c0-.1-.05-.14-.14-.14h-3.26c-.23,0-.43-.08-.6-.24-.17-.16-.25-.36-.25-.59s.08-.43.25-.6c.17-.17.37-.25.6-.25h2.64s.06-.02.07-.05c.02-.03.01-.06,0-.08-.01-.01-.02-.02-.02-.03s0-.02-.02-.03c-.11-.2-.12-.41-.03-.62.08-.21.24-.33.46-.38l.14-.03c.27-.06.52-.04.77.07.25.11.43.29.56.52.01.02.1.19.27.5.03.08.1.13.19.13h2.5c.1,0,.16-.04.19-.11l.24-.48c.12-.25.29-.43.53-.54s.49-.16.75-.11l.18.03c.22.04.39.17.5.38.11.21.11.41,0,.62-.01.01-.02.02-.03.04-.01.02-.02.03-.02.04-.04.1-.02.14.06.14h2.53c.23,0,.43.08.6.25s.25.37.25.6-.08.43-.25.59c-.17.16-.37.24-.6.24h-3.26c-.08,0-.13.05-.13.14v.5c0,.08.04.13.13.13h2.35c.25,0,.46.09.64.27.18.18.27.39.27.64v1.36c0,.09.04.13.13.13h.03c.23,0,.43.08.6.25.17.17.25.37.25.6s-.08.43-.25.6-.37.25-.6.25h-.03c-.09,0-.13.05-.13.14v1.41c0,.25-.09.46-.27.64-.18.18-.39.27-.64.27h-1.79s-.04.01-.05.03,0,.04.02.06c.88.74,1.97,1.44,3.28,2.1.22.11.38.28.46.52.08.24.07.47-.03.7l-.06.11c-.11.22-.28.38-.51.46-.23.08-.46.06-.67-.06-1.15-.66-2.16-1.37-3.02-2.13-.02-.02-.04-.02-.06,0-.02.02-.03.03-.03.06v1.79c0,.25-.09.46-.27.63-.18.18-.39.26-.64.26h-.21c-.25,0-.46-.09-.63-.26s-.26-.39-.26-.63v-3.49c0-.1-.05-.14-.14-.14h-1.38c-.1,0-.14.05-.14.14v3.49c0,.25-.09.46-.26.63-.18.18-.39.26-.63.26h-.21c-.25,0-.46-.09-.63-.26s-.26-.39-.26-.63v-1.79s-.01-.04-.04-.06c-.03-.02-.05-.01-.07,0-.84.75-1.86,1.46-3.04,2.13-.21.12-.43.14-.66.06-.23-.08-.4-.23-.5-.46l-.06-.11c-.11-.22-.12-.46-.03-.7s.24-.41.46-.52ZM81.19,103.66v.5c0,.08.05.13.14.13h1.38c.1,0,.14-.04.14-.13v-.5c0-.1-.05-.14-.14-.14h-1.38c-.1,0-.14.05-.14.14ZM81.19,105.93v.62c0,.09.05.13.14.13h1.38c.1,0,.14-.04.14-.13v-.62c0-.1-.05-.14-.14-.14h-1.38c-.1,0-.14.05-.14.14ZM81.19,108.53v.67c0,.1.05.14.14.14h1.38c.1,0,.14-.05.14-.14v-.67c0-.1-.05-.14-.14-.14h-1.38c-.1,0-.14.05-.14.14ZM84.87,105.93v.62c0,.09.04.13.13.13h1.28c.09,0,.13-.04.13-.13v-.62c0-.1-.04-.14-.13-.14h-1.28c-.08,0-.13.05-.13.14ZM84.87,108.53v.67c0,.1.04.14.13.14h1.28c.09,0,.13-.05.13-.14v-.67c0-.1-.04-.14-.13-.14h-1.28c-.08,0-.13.05-.13.14Z"/><path class="cls-2" d="M90.89,114.67c-.2-.16-.33-.37-.37-.62-.04-.26,0-.5.13-.72.42-.75.71-1.58.87-2.5.17-.92.25-2.18.25-3.77v-5.01c0-.25.09-.46.26-.64.18-.18.39-.27.63-.27h10.94c.25,0,.46.09.63.27.18.18.26.4.26.64v10.72c0,.65-.02,1.13-.06,1.43-.04.3-.15.56-.34.76-.19.2-.43.32-.71.36-.28.04-.73.06-1.34.06-.45,0-.85-.01-1.2-.03-.25-.01-.46-.11-.63-.29-.18-.18-.27-.39-.3-.64-.01-.24.07-.44.23-.6.17-.17.37-.24.6-.23.6.02.91.03.93.03.35,0,.56-.03.63-.1.07-.07.1-.28.1-.63v-2.08c0-.1-.04-.14-.13-.14h-3.22c-.1,0-.14.05-.14.14v3.3c0,.25-.09.46-.27.64-.18.18-.39.27-.64.27h-.21c-.25,0-.46-.09-.64-.27s-.27-.39-.27-.64v-3.3c0-.1-.04-.14-.13-.14h-2.93c-.08,0-.14.05-.16.14-.2,1.55-.63,2.86-1.28,3.94-.13.2-.31.32-.55.36-.24.04-.46-.02-.65-.17l-.32-.26ZM93.85,107.97c0,.43,0,.74-.02.94,0,.08.04.13.13.13h2.82c.08,0,.13-.05.13-.14v-2.06c0-.1-.04-.14-.13-.14h-2.8c-.08,0-.13.05-.13.14v1.14ZM93.85,103.01v1.92c0,.09.04.13.13.13h2.8c.08,0,.13-.04.13-.13v-1.92c0-.08-.04-.13-.13-.13h-2.8c-.08,0-.13.04-.13.13ZM98.94,103.01v1.92c0,.09.05.13.14.13h3.22c.08,0,.13-.04.13-.13v-1.92c0-.08-.04-.13-.13-.13h-3.22c-.1,0-.14.04-.14.13ZM98.94,106.83v2.06c0,.1.05.14.14.14h3.22c.08,0,.13-.05.13-.14v-2.06c0-.1-.04-.14-.13-.14h-3.22c-.1,0-.14.05-.14.14Z"/><path class="cls-2" d="M31.48,125.3l-.02-.19c-.03-.25.02-.47.17-.66.14-.2.34-.32.58-.36l2.59-.42c.08-.02.13-.07.13-.16v-2.26c0-.25.09-.46.27-.63.18-.18.39-.26.64-.26h.32c.25,0,.46.09.63.26s.26.39.26.63v1.94s.02.06.05.09c.03.03.06.04.1.02l7.14-1.12c.25-.04.47.01.68.16s.33.35.36.59l.02.18c.08.66,0,1.24-.24,1.73-.71,1.43-1.72,2.72-3.02,3.87-.19.16-.41.23-.66.22-.25-.02-.47-.12-.65-.31l-.16-.18c-.17-.18-.25-.39-.22-.64s.12-.45.3-.61c.93-.82,1.68-1.72,2.26-2.69.02-.05,0-.09-.06-.1l-5.73.91c-.1.02-.14.08-.14.16v3.54c0,.59.02,1.02.06,1.3.04.28.14.51.32.7s.4.29.66.33.68.06,1.23.06c1.55,0,3.12-.1,4.72-.29.25-.03.46.03.66.18.19.15.29.35.3.6v.11c.01.26-.06.48-.22.67-.16.19-.37.3-.62.34-1.76.2-3.55.3-5.36.3-1.53,0-2.55-.26-3.08-.78s-.79-1.55-.79-3.09v-3.65c0-.1-.04-.13-.13-.11l-2.3.37c-.25.04-.47-.01-.67-.16-.2-.15-.32-.35-.35-.59Z"/><path class="cls-2" d="M47.25,132.87l-.19-.29c-.13-.21-.16-.43-.1-.66s.19-.41.41-.54c.86-.53,1.42-1.26,1.68-2.19.26-.93.38-2.63.38-5.1v-2.35c0-.25.09-.46.26-.63.18-.18.39-.26.63-.26h.38c.25,0,.46.09.63.26s.26.39.26.63v2.35c0,1.96-.1,3.52-.29,4.66-.19,1.15-.5,2.06-.93,2.73s-1.04,1.24-1.84,1.71c-.22.13-.46.16-.7.1s-.44-.2-.59-.42ZM54.58,133.46c-.25.01-.46-.08-.63-.26-.18-.18-.26-.39-.26-.64v-10.83c0-.25.09-.46.27-.63.18-.18.39-.26.64-.26h.4c.25,0,.46.09.64.26s.27.39.27.63v9.38c0,.09.04.12.13.1.88-.25,1.58-.72,2.08-1.42.5-.7.85-1.68,1.06-2.95.04-.25.17-.44.37-.59.2-.15.42-.21.66-.18l.22.03c.25.03.45.15.61.34.16.2.22.42.18.66-.6,4.05-2.81,6.17-6.62,6.35Z"/><path class="cls-2" d="M62.28,123.45c-.25,0-.46-.09-.64-.27-.18-.18-.27-.39-.27-.64v-.21c0-.25.09-.46.27-.64s.39-.27.64-.27h10.45c.25,0,.46.09.64.27.18.18.27.39.26.64-.07,3.38-.9,5.96-2.47,7.73s-3.97,2.88-7.18,3.31c-.26.03-.49-.03-.7-.18s-.33-.35-.38-.61l-.03-.19c-.04-.23,0-.45.14-.65.14-.2.33-.31.58-.34,2.5-.34,4.35-1.12,5.58-2.35s1.94-3.04,2.15-5.46c0-.1-.04-.14-.13-.14h-8.91Z"/><path class="cls-2" d="M76.56,132.77c-.25,0-.46-.09-.63-.26-.18-.18-.26-.39-.26-.63v-.11c0-.25.09-.46.26-.64.18-.18.39-.27.63-.27h4.13c.1,0,.14-.04.14-.13v-7.2c0-.08-.05-.13-.14-.13h-3.65c-.25,0-.46-.09-.63-.27s-.26-.39-.26-.64v-.11c0-.25.09-.46.26-.63.18-.18.39-.26.63-.26h9.82c.25,0,.46.09.63.26.18.18.26.39.26.63v.11c0,.25-.09.46-.26.64s-.39.27-.63.27h-3.65c-.1,0-.14.04-.14.13v7.2c0,.09.05.13.14.13h4.13c.25,0,.46.09.63.27.18.18.26.39.26.64v.11c0,.25-.09.46-.26.63-.18.18-.39.26-.63.26h-10.78Z"/><path class="cls-2" d="M90.76,132.61l-.08-.16c-.12-.21-.14-.44-.06-.68.07-.24.22-.42.43-.54,3.86-2.07,6.66-4.73,8.4-7.98.02-.02.02-.05,0-.08s-.05-.05-.08-.05h-6.8c-.25,0-.46-.09-.64-.27-.18-.18-.27-.39-.27-.64v-.16c0-.25.09-.46.27-.63s.39-.26.64-.26h8.42c.25,0,.46.09.64.26s.27.39.27.63v.16c0,.64-.13,1.22-.4,1.74-.67,1.31-1.54,2.57-2.61,3.76-.06.06-.06.13,0,.19,1.4,1.28,2.64,2.45,3.73,3.5.18.18.27.39.27.64s-.08.46-.26.64l-.19.18c-.18.17-.4.26-.65.26s-.47-.09-.65-.27c-1.34-1.32-2.57-2.49-3.68-3.49-.06-.04-.13-.04-.21.02-1.57,1.44-3.31,2.65-5.23,3.63-.22.12-.46.14-.71.06-.25-.08-.44-.23-.55-.46Z"/><path class="cls-2" d="M104.57,127.24c-.25,0-.46-.09-.64-.27-.18-.18-.27-.39-.27-.64v-.11c0-.25.09-.46.27-.63.18-.18.39-.26.64-.26h11.94c.25,0,.46.09.64.26.18.18.27.39.27.63v.11c0,.25-.09.46-.27.64-.18.18-.4.27-.64.27h-4.18c-.1,0-.14.04-.14.13-.02,1.65-.42,2.98-1.2,3.99-.78,1.01-1.98,1.75-3.6,2.22-.25.07-.48.05-.7-.08-.22-.13-.38-.32-.46-.56l-.06-.19c-.08-.24-.05-.46.07-.67.12-.21.3-.36.54-.45,1.13-.36,1.94-.88,2.42-1.54.48-.66.74-1.57.76-2.72,0-.09-.04-.13-.13-.13h-5.25ZM106.42,121h8.22c.25,0,.46.09.63.26s.26.39.26.63v.11c0,.25-.09.46-.26.64-.18.18-.39.27-.63.27h-8.22c-.25,0-.46-.09-.63-.27-.18-.18-.26-.39-.26-.64v-.11c0-.25.09-.46.26-.63s.39-.26.63-.26Z"/><path class="cls-2" d="M65.44,36.37l2.38,5.21c1.15.5,2.42.78,3.75.78,5.23,0,9.46-4.24,9.46-9.46s-4.24-9.47-9.46-9.47-9.46,4.24-9.46,9.47c0,.43.04.86.1,1.28,1.39.08,2.65.92,3.23,2.2Z"/><path class="cls-2" d="M94.57,59.99s-9.27-10.8-9.91-11.32c-.64-.52-2.31-1.73-4.49-1.73s-5.23-.29-5.23-3.86c-1.05.35-2.18.54-3.35.54-.99,0-1.94-.15-2.85-.4l.32.7c.48,1.15.48,2.3.03,3.45l-6.96,17.61v17.83h18.46v-5.41s-.08.02-.11.02c-.2.03-.41.04-.61.04-1.26,0-2.48-.53-3.34-1.45-.83-.89-1.26-2.06-1.22-3.27.04-1.22.56-2.34,1.45-3.17l.09-.07,3.75-2.92v-12.7l7.48,8.54-10.41,8.13c-1.31,1.22-1.39,3.27-.16,4.58.75.8,1.8,1.14,2.81,1.01.64-.09,1.26-.37,1.77-.84l12.66-10.41c.68-.64,1.06-1.54,1.03-2.47-.03-.93-.46-1.81-1.18-2.4Z"/><path class="cls-2" d="M67.85,44.46l-3.45-7.56c-.58-1.27-2.08-1.83-3.34-1.25-1.27.58-1.83,2.08-1.25,3.34l2.27,4.97-7.59,19.1c-.66,1.67.16,3.55,1.83,4.21.39.15.8.23,1.19.23,1.29,0,2.52-.78,3.02-2.05l7.34-18.56c.17-.44.45-1.33,0-2.42Z"/></g></svg>