<?xml version="1.0" encoding="UTF-8"?><svg id="_レイヤー_2" xmlns="http://www.w3.org/2000/svg" viewBox="0 0 150 150"><defs><style>.cls-1{fill:none;}.cls-1,.cls-2{stroke-width:0px;}.cls-2{fill:#fff;}</style></defs><g id="_レイヤー_1-2"><rect class="cls-1" width="150" height="150" rx="23.44" ry="23.44"/><path class="cls-2" d="M52.12,121.02l-.06-.14c-.1-.23-.1-.47,0-.71.1-.24.26-.42.48-.54,1.65-.92,2.89-1.97,3.71-3.17.05-.07.03-.11-.06-.11h-3.07c-.23,0-.44-.09-.62-.26s-.26-.38-.26-.62.09-.44.26-.62c.18-.18.38-.26.62-.26h12.54c.23,0,.44.09.62.26.18.18.26.38.26.62s-.09.44-.26.62-.38.26-.62.26h-6.75c-.09,0-.15.04-.19.11-.17.31-.39.66-.66,1.06-.05.07-.04.11.05.11h6.56c.25,0,.46.09.64.27.18.18.27.39.27.64v4.59c0,.25-.09.46-.27.63-.18.18-.4.26-.64.26h-.58c-.18,0-.34-.06-.46-.19s-.19-.28-.19-.45c0-.06-.03-.1-.1-.1h-6.14c-.06,0-.1.03-.1.1,0,.17-.06.32-.19.45s-.28.19-.46.19h-.53c-.25,0-.46-.09-.63-.26-.18-.18-.26-.39-.26-.63v-2.75s-.01-.04-.04-.05c-.03-.01-.05-.01-.07,0-.55.43-1.1.79-1.65,1.1-.21.12-.43.14-.66.06s-.39-.24-.47-.47ZM54.06,110.33c.25,0,.46.09.63.26.18.18.26.39.26.63v.61c0,.1.05.14.14.14h3.09c.08,0,.13-.05.13-.14v-1.3c0-.25.09-.46.27-.64s.39-.27.64-.27h.32c.25,0,.46.09.64.27.18.18.27.39.27.64v1.3c0,.1.04.14.13.14h3.09c.1,0,.14-.05.14-.14v-.61c0-.25.09-.46.26-.63.18-.18.39-.26.63-.26h.27c.25,0,.46.09.64.26.18.18.27.39.27.63v1.5c0,.25-.09.46-.27.63s-.39.26-.64.26h-11.2c-.25,0-.46-.09-.64-.26-.18-.18-.27-.39-.27-.63v-1.5c0-.25.09-.46.27-.63.18-.18.39-.26.64-.26h.27ZM57.1,119.48v2.06c0,.1.04.14.13.14h6.08c.08,0,.13-.05.13-.14v-2.06c0-.1-.04-.14-.13-.14h-6.08c-.09,0-.13.05-.13.14Z"/><path class="cls-2" d="M68.42,115.74c-.19.02-.36-.03-.5-.17-.14-.13-.22-.3-.22-.5v-.1c0-.22.07-.42.22-.59.15-.17.34-.26.56-.27.07,0,.11-.04.11-.13v-2.85c0-.25.09-.46.27-.64s.39-.27.64-.27h.69c.08,0,.14-.04.16-.11.07-.25.21-.44.42-.59.2-.15.43-.22.69-.21l.45.02c.2.01.36.1.47.26.11.17.14.34.09.54-.01.02,0,.04.02.06s.05.03.07.03h1.06c.25,0,.46.09.63.27.18.18.26.39.26.64v2.4c0,.05.03.08.08.08.14-.01.26.03.36.12s.15.21.15.34v.59c0,.15-.05.28-.15.38-.1.11-.22.17-.36.18-.05,0-.08.03-.08.08v1.52c0,.79-.09,1.28-.27,1.46s-.67.28-1.46.28c-.21,0-.39,0-.53-.02-.27-.01-.49-.11-.66-.3-.18-.19-.28-.41-.3-.68l-.02-.42s-.02-.06-.06-.06c-.12,0-.21-.04-.29-.11-.08-.07-.11-.17-.11-.29v-1.02c0-.08-.05-.13-.14-.13l-.19.02c-.1,0-.14.05-.14.16-.06,1.13-.26,2.03-.58,2.69-.11.22-.29.37-.54.44s-.5.04-.74-.07l-.08-.03c-.21-.11-.35-.28-.41-.51s-.03-.46.07-.67c.22-.48.37-1.06.45-1.73,0-.06-.03-.1-.1-.1ZM69.3,119.85c0-.25.09-.46.26-.64.18-.18.39-.27.63-.27h9.82c.25,0,.46.09.63.27.18.18.26.4.26.64v2.37c0,.09.05.13.14.13h.48c.23,0,.43.08.58.24.16.16.23.36.23.59s-.08.43-.23.59c-.15.16-.35.24-.58.24h-12.86c-.24,0-.43-.08-.58-.24-.16-.16-.23-.36-.23-.59s.08-.43.23-.59c.15-.16.35-.24.58-.24h.48c.1,0,.14-.04.14-.13v-2.37ZM70.39,111.86v1.95c0,.08.04.13.13.13l.72-.06c.1,0,.12-.04.08-.13-.17-.38-.3-.67-.4-.85-.11-.2-.12-.42-.03-.64.08-.22.24-.37.46-.45l.16-.05s0-.03-.02-.05h-.98c-.09,0-.13.05-.13.14ZM71.29,120.62v1.6c0,.09.05.13.14.13h1.18c.08,0,.13-.04.13-.13v-1.6c0-.1-.04-.14-.13-.14h-1.18c-.1,0-.14.05-.14.14ZM71.67,113.82s.02.02.02.03l1.01-.08c.08,0,.13-.05.13-.16v-1.74c0-.1-.04-.14-.13-.14h-.7s-.06.01-.07.04c-.02.03-.02.05,0,.07.03.05.08.13.14.24s.11.2.16.29.09.17.14.24c.11.21.11.43.02.66s-.25.39-.49.47l-.21.08ZM72.82,116.44v-.94c0-.07-.04-.11-.13-.11l-.35.02c-.1,0-.14.05-.14.16v1.18c0,.1.05.14.14.14.02,0,.05,0,.09,0,.04,0,.06,0,.07,0,.16,0,.25-.02.28-.06.03-.04.04-.18.04-.4ZM74.39,120.62v1.6c0,.09.04.13.13.13h1.18c.09,0,.13-.04.13-.13v-1.6c0-.1-.04-.14-.13-.14h-1.18c-.09,0-.13.05-.13.14ZM76.42,116.94c.08-.02.09-.05.03-.1-.04-.03-.11-.08-.21-.14-.1-.06-.17-.11-.21-.14-.18-.13-.26-.3-.25-.52.02-.22.12-.39.3-.5l.21-.13s.02-.03.02-.05-.01-.03-.03-.03h-.13c-.2,0-.38-.07-.53-.22-.15-.14-.22-.32-.22-.54s.07-.39.22-.54c.15-.14.33-.22.53-.22h5.09c.2,0,.38.07.53.22.15.14.22.32.22.54,0,.55-.15,1-.45,1.34-.31.35-.63.65-.98.9-.02.02-.03.04-.03.06s.01.04.03.05c.41.12.8.21,1.18.29.22.05.39.17.51.36.12.19.15.39.1.62-.06.23-.19.41-.39.54-.2.12-.41.16-.65.1-.95-.21-1.84-.5-2.67-.85-.09-.03-.17-.03-.26,0-.69.26-1.42.47-2.19.66-.25.05-.48.03-.7-.08-.22-.11-.38-.28-.48-.51-.09-.2-.08-.39.03-.58.11-.18.27-.29.5-.34.03,0,.33-.07.88-.19ZM81.93,111.19c.21.02.38.11.51.26.13.16.18.33.16.54-.08.73-.24,1.16-.48,1.31s-.85.22-1.81.22c-.71,0-1.18-.05-1.39-.15-.21-.1-.32-.3-.32-.6v-1.34c0-.09-.04-.13-.13-.13h-.91c-.1,0-.14.04-.14.13,0,.6-.19,1.16-.56,1.68-.15.21-.37.33-.65.34-.28.02-.54-.05-.76-.2l-.02-.02c-.18-.12-.29-.29-.31-.52s.03-.43.17-.62c.25-.37.38-.84.42-1.41.01-.25.1-.46.28-.64.18-.18.39-.27.63-.27h3.01c.25,0,.46.09.63.27.18.18.26.39.26.64v1.23c0,.08.01.14.03.15.02.02.08.02.19.02.13,0,.22-.01.27-.04.05-.03.09-.1.11-.22.04-.2.14-.37.29-.5s.32-.18.51-.16ZM77.14,115.32s-.04.01-.04.04c0,.03,0,.05.02.06.42.29.85.53,1.3.74.1.03.18.03.26-.02.42-.21.79-.45,1.12-.72.02,0,.03-.03.02-.06s-.03-.04-.05-.04h-2.62ZM77.48,120.62v1.6c0,.09.04.13.13.13h1.18c.1,0,.14-.04.14-.13v-1.6c0-.1-.05-.14-.14-.14h-1.18c-.09,0-.13.05-.13.14Z"/><path class="cls-2" d="M83.81,115.27c-.19-.15-.3-.35-.34-.6-.03-.25.03-.47.19-.66l.02-.02c.16-.19.37-.31.62-.34s.49.02.69.17c.45.33.97.76,1.57,1.28.19.17.3.38.31.63.02.25-.06.48-.22.68l-.05.05c-.15.19-.35.3-.59.31-.25.02-.46-.06-.64-.22-.22-.19-.75-.62-1.57-1.28ZM97.7,116.82c.22.16.39.37.49.62s.12.52.06.78l-.06.27c-.04.21-.17.36-.38.44-.21.08-.41.06-.58-.07l-.03-.02c-.06-.04-.1-.02-.1.06v4.22c0,.25-.09.46-.27.64s-.39.27-.64.27h-.53c-.17,0-.32-.06-.45-.19s-.19-.28-.19-.46c0-.06-.03-.1-.1-.1h-4.4c-.06,0-.1.03-.1.1,0,.17-.06.32-.19.46-.13.13-.28.2-.46.2h-.46c-.25,0-.46-.09-.64-.27s-.27-.39-.27-.64v-4.16s-.01-.06-.04-.07c-.03-.02-.05-.01-.07,0-.02.02-.05.04-.1.06-.04.02-.08.04-.1.06-.18.13-.38.14-.61.05-.06-.02-.1,0-.1.05.02.13,0,.26-.05.38-.43,1.3-.99,2.57-1.68,3.79-.12.21-.3.35-.55.4-.25.05-.48,0-.68-.13l-.16-.1c-.2-.14-.33-.33-.38-.58-.05-.25-.02-.47.1-.69.57-.99,1.09-2.12,1.57-3.39.09-.23.24-.4.46-.5.22-.1.45-.11.69-.02l.06.02c.06.02.14.07.24.14.01.01.03.01.05,0s.03-.03.02-.05l-.03-.14c-.12-.58.07-1.03.56-1.36,1.32-.87,2.51-1.9,3.55-3.09.42-.47.92-.7,1.5-.7h.26c.59,0,1.08.23,1.49.69.98,1.11,2.08,2.11,3.31,3.01ZM84.5,111.74c-.19-.15-.3-.35-.34-.59-.03-.25.03-.46.19-.66l.03-.02c.17-.2.38-.32.63-.34.25-.03.48.04.68.18.61.47,1.02.8,1.25.99.19.17.3.38.32.63s-.05.48-.21.68l-.05.05c-.16.19-.36.3-.6.31-.24.02-.46-.06-.65-.22-.57-.47-.99-.81-1.26-1.02ZM87.66,114.25l-.06-.13c-.13-.23-.17-.48-.11-.73.05-.25.18-.46.38-.63.77-.65,1.42-1.34,1.97-2.08.15-.21.35-.35.6-.42.25-.07.49-.05.73.06l.02.02c.22.11.37.28.45.5.07.23.04.45-.1.66-.78,1.21-1.68,2.21-2.7,3.01-.19.15-.41.2-.64.14s-.41-.19-.53-.4ZM95.15,117.37s.04-.01.05-.04c.01-.03,0-.04-.02-.06-.82-.74-1.6-1.56-2.34-2.46-.06-.08-.12-.08-.18,0-.71.91-1.48,1.73-2.29,2.46-.02.01-.03.03-.02.06.01.03.03.04.05.04h4.74ZM95.01,121.58v-2.37c0-.1-.05-.14-.14-.14h-4.32c-.09,0-.13.05-.13.14v2.37c0,.09.04.13.13.13h4.32c.1,0,.14-.04.14-.13ZM96.3,114.1c-.82-.95-1.65-1.81-2.48-2.58-.17-.16-.25-.36-.25-.59,0-.23.1-.43.28-.58l.05-.02c.21-.16.45-.24.71-.24s.49.08.68.26c.87.78,1.69,1.6,2.45,2.46.17.19.25.41.22.66-.02.25-.13.46-.32.63l-.08.08c-.18.17-.4.25-.65.22-.25-.02-.46-.13-.62-.32Z"/><path class="cls-2" d="M97.02,65.05c-7.46,0-13.05-.85-16.62-2.51l-7.02,6.57c-.88.86-2.04,1.32-3.3,1.32h-.26c-.49-.03-1.01-.13-1.55-.34l-14.43-5.75c-1.06-.46-1.93-1.33-2.45-2.36h-5.02v16.7h56.98v-13.83c-2.14.11-4.25.2-6.32.2"/><path class="cls-2" d="M69.05,59.99l5.69-5.35c-.16-3.21-2.49-5.97-5.79-6.43-3.73-.55-7.19,2.05-7.73,5.79-.17,1.05,0,2.03.27,2.98l7.56,3Z"/><path class="cls-2" d="M85.48,51.48c-2.01-.97-4.29-.51-5.83.92-.08.07-.17.08-.23.13l-10.02,9.41-12.53-4.99c-1.61-.66-3.42.13-4.1,1.73-.67,1.59.1,3.45,1.72,4.1l14.4,5.75c.3.14.66.21,1.04.23.84.05,1.68-.24,2.32-.84l7.91-7.46c.25.2.55.38.83.52,5.96,2.84,17.37,2.5,22.64,2.19v-10.56c-6.01.41-15.03.37-18.15-1.13"/><path class="cls-2" d="M75.14,46.96c-.23,0-.49-.06-.71-.21-.58-.41-.72-1.18-.31-1.75.01-.03,2.53-3.77,1.16-6.63-.98-1.95-1.36-3.95-1.23-5.87.1-.7.71-1.2,1.37-1.14.7.07,1.21.67,1.16,1.36-.12,1.47.18,2.99.95,4.55,2.03,4.18-1.21,8.97-1.36,9.18-.25.34-.64.52-1.03.52"/><path class="cls-2" d="M91.27,43.18c-.23,0-.47-.06-.7-.21-.59-.41-.71-1.18-.3-1.75,0-.03,2.54-3.77,1.13-6.63-.95-1.95-1.32-3.95-1.17-5.87.08-.7.68-1.2,1.34-1.14.69.07,1.21.67,1.17,1.36-.13,1.47.16,2.99.93,4.55,2.03,4.18-1.21,8.97-1.34,9.18-.25.34-.64.52-1.05.52"/><path class="cls-2" d="M57.49,43.29c-.24,0-.48-.1-.67-.25-.63-.38-.74-1.16-.34-1.74.01-.04,2.55-3.78,1.16-6.63-.97-1.96-1.36-3.95-1.2-5.89.05-.68.68-1.18,1.37-1.13.68.07,1.19.68,1.13,1.38-.1,1.44.18,2.98.93,4.54,2.06,4.17-1.2,8.95-1.35,9.18-.24.34-.6.54-1.02.54"/></g></svg>