<?xml version="1.0" encoding="UTF-8"?><svg id="_レイヤー_2" xmlns="http://www.w3.org/2000/svg" viewBox="0 0 15.86 15.86"><defs><style>.cls-1{fill:#aaa;stroke-width:0px;}</style></defs><g id="_レイヤー_1-2"><path class="cls-1" d="M15.86,1.49v9.91c0,.82-.67,1.49-1.49,1.49h-1.49v1.49c0,.82-.67,1.49-1.49,1.49H1.49c-.82,0-1.49-.67-1.49-1.49V4.46c0-.82.67-1.49,1.49-1.49h1.49v-1.49c0-.82.67-1.49,1.49-1.49h9.91c.82,0,1.49.67,1.49,1.49ZM11.4,7.93H1.49v6.44h9.91v-6.44ZM14.37,1.49H4.46v1.49h6.94c.82,0,1.49.67,1.49,1.49v6.94h1.49V1.49Z"/></g></svg>