<?xml version="1.0" encoding="UTF-8"?><svg id="_レイヤー_2" xmlns="http://www.w3.org/2000/svg" viewBox="0 0 150 150"><defs><style>.cls-1{fill:none;}.cls-1,.cls-2{stroke-width:0px;}.cls-2{fill:#fff;}</style></defs><g id="_レイヤー_1-2"><path class="cls-1" d="M23.44,0h103.12c12.94,0,23.44,10.5,23.44,23.44v103.13c0,12.94-10.5,23.44-23.44,23.44H23.44c-12.94,0-23.44-10.5-23.44-23.44V23.44C0,10.5,10.5,0,23.44,0Z"/><path class="cls-2" d="M9.79,116.86v2.87h5.02v2.02h-5.02v3.95h-2.51v-10.85h8.2v2.02h-5.69Z"/><path class="cls-2" d="M17.18,114.84h2.51v10.85h-2.51v-10.85Z"/><path class="cls-2" d="M24.39,116.89h-3.47v-2.05h9.46v2.05h-3.47v8.81h-2.51v-8.81Z"/><path class="cls-2" d="M30.28,120.36h4.39v1.94h-4.39v-1.94Z"/><path class="cls-2" d="M46.9,122.73c0,1.88-1.49,2.96-4.34,2.96h-5.61v-10.85h5.3c2.71,0,4.11,1.13,4.11,2.82,0,1.08-.56,1.92-1.44,2.39,1.21.39,1.98,1.32,1.98,2.68ZM39.45,116.73v2.56h2.49c1.23,0,1.89-.43,1.89-1.29s-.67-1.27-1.89-1.27h-2.49ZM44.38,122.47c0-.92-.7-1.35-2-1.35h-2.93v2.68h2.93c1.3,0,2-.4,2-1.33Z"/><path class="cls-2" d="M55.85,123.37h-5.04l-.96,2.33h-2.57l4.84-10.85h2.48l4.85,10.85h-2.63l-.96-2.33ZM55.06,121.46l-1.72-4.15-1.72,4.15h3.44Z"/><path class="cls-2" d="M60,124.63l.85-1.89c.91.67,2.28,1.13,3.58,1.13,1.49,0,2.09-.5,2.09-1.16,0-2.03-6.31-.64-6.31-4.67,0-1.84,1.49-3.38,4.57-3.38,1.37,0,2.76.33,3.77.96l-.78,1.91c-1.01-.57-2.05-.85-3.01-.85-1.49,0-2.06.56-2.06,1.24,0,2,6.31.62,6.31,4.6,0,1.81-1.5,3.36-4.6,3.36-1.72,0-3.46-.51-4.42-1.26Z"/><path class="cls-2" d="M74.77,121.43l-1.46,1.52v2.74h-2.5v-10.85h2.5v5.07l4.8-5.07h2.79l-4.5,4.84,4.76,6.01h-2.93l-3.47-4.26Z"/><path class="cls-2" d="M90.71,123.68v2.02h-8.4v-10.85h8.2v2.02h-5.71v2.36h5.04v1.95h-5.04v2.51h5.91Z"/><path class="cls-2" d="M95.05,116.89h-3.47v-2.05h9.46v2.05h-3.47v8.81h-2.51v-8.81Z"/><path class="cls-2" d="M112.24,122.73c0,1.88-1.49,2.96-4.34,2.96h-5.61v-10.85h5.3c2.71,0,4.11,1.13,4.11,2.82,0,1.08-.56,1.92-1.44,2.39,1.21.39,1.98,1.32,1.98,2.68ZM104.78,116.73v2.56h2.49c1.23,0,1.89-.43,1.89-1.29s-.67-1.27-1.89-1.27h-2.49ZM109.71,122.47c0-.92-.7-1.35-2-1.35h-2.93v2.68h2.93c1.3,0,2-.4,2-1.33Z"/><path class="cls-2" d="M121.18,123.37h-5.04l-.96,2.33h-2.57l4.84-10.85h2.48l4.85,10.85h-2.63l-.96-2.33ZM120.39,121.46l-1.72-4.15-1.72,4.15h3.44Z"/><path class="cls-2" d="M125.93,114.84h2.51v8.81h5.44v2.05h-7.95v-10.85Z"/><path class="cls-2" d="M135.16,114.84h2.51v8.81h5.44v2.05h-7.95v-10.85Z"/><path class="cls-2" d="M64.51,13.6c3.75.83,7.21,2.72,9.99,5.52-2.44.61-6.37,1.89-11.33,4.32-2.24-5.28,1.15-9.66,1.32-9.86,0,0-.1-.02.02.01M52.01,30.14c.96-.67,2-1.38,3.09-2.08l-6.93-11.09c-3.16,2.28-5.49,5.36-6.87,8.78,2.92-.25,7.4.51,10.72,4.4M42.19,42.97c.21.39.44.79.69,1.18,1.91,3.06,4.5,5.42,7.48,7.03,2.58-3.61,4.16-11.06.98-17.06-5.12,3.98-7.97,7.33-9.14,8.85M71.99,49.81c4.87-3.53,7.75-8.91,8.28-14.56-5.14.64-13.58-1.41-18.19-8.09-1.02.54-2.05,1.14-3.13,1.78l13.04,20.87M60.69,24.73c-2.06-4.67-.74-9.06.73-11.59-3.68-.25-7.45.5-10.91,2.34l6.96,11.11c1.11-.67,2.18-1.29,3.21-1.86ZM40.93,40.09c1.59-1.92,4.43-4.89,8.83-8.28-3.77-4.3-9.02-3.18-9.24-3.15h0l-.08-.33c-.99,3.82-.84,7.91.5,11.75ZM69.63,51.29l-13.06-20.87c-1.04.69-2.06,1.36-2.97,2.03,3.98,7.08,2.15,15.55-.69,19.91,5.32,1.99,11.42,1.75,16.72-1.07ZM77.27,22.63c-.23-.38-.5-.75-.75-1.11-1.88.4-6.19,1.54-11.95,4.36,4,5.44,11.38,7.28,15.75,6.54-.15-3.37-1.14-6.74-3.05-9.79Z"/><path class="cls-2" d="M100.41,58.45h-47.5c-.99,0-1.8.81-1.8,1.8s.8,1.8,1.8,1.8h4.03c.67.81,1.75,2.17,3.36,4.26,3.52,4.54,3.84,18.79,2.96,30.62-.03.41.22.8.59.97.12.05.25.07.38.07.27,0,.54-.12.73-.33l3.85-4.32,2.58,3.21c.17.23.45.36.74.37h.03c.27,0,.54-.13.71-.33l3.5-3.88,3.36,3.86c.18.22.45.35.74.35h0c.28-.01.55-.13.73-.36l2.99-3.59,4.17,4.68c.19.21.46.33.73.33.12,0,.26-.02.38-.07.38-.16.63-.56.59-.97-.89-11.83-.57-26.09,2.97-30.63,1.6-2.09,2.69-3.44,3.35-4.25h4.03c.99,0,1.8-.8,1.8-1.8s-.8-1.8-1.8-1.8ZM65.65,84.5c-.03-1.56-.07-3.01-.16-4.34l1.96,2.26-1.8,2.09ZM72.18,69.56l3.3,3.62-3.12,3.59-3.32-3.73,3.15-3.47ZM76.79,74.62l3.08,3.37-3.21,3.6-3-3.36,3.12-3.61ZM71.07,78.24l-2.33,2.69-3.35-3.86,2.33-2.58,3.35,3.75ZM64.95,74.66c-.24-1.65-.51-3.02-.82-4.2l2.29,2.57-1.47,1.63ZM68.74,83.9l2.89,3.34-2.74,3.07-2.75-3.43,2.59-2.98ZM70.03,82.41l2.35-2.71,2.99,3.35-2.43,2.72-2.91-3.36ZM76.67,84.52l2.21,2.48-2.49,2.77-2.17-2.5,2.45-2.74ZM77.96,83.06l3.23-3.62,2.27,2.48-3.26,3.63-2.23-2.5ZM84.77,83.36l2.55,2.79-3.19,3.83-2.65-2.98,3.28-3.65ZM87.69,83.68l-1.62-1.78,1.77-1.96c-.07,1.15-.12,2.4-.16,3.73ZM88.26,75.4l-1.65-2.05,2.58-2.89c-.35,1.35-.67,2.98-.93,4.94ZM87.45,77.47l-2.7,2.99-2.26-2.49,2.81-3.16,2.15,2.66ZM81.17,76.54l-3.09-3.39,3.05-3.52,2.93,3.66-2.89,3.25ZM80.26,67.66l-3.5,4.03-3.7-4.05-1.33-5.59h9.87l-1.34,5.61ZM69.73,62.05l1.38,5.79-3.38,3.74-6.62-7.43s-.05-.04-.08-.07c-.63-.8-1.15-1.48-1.6-2.03h10.29ZM65.4,94.24c.09-1.73.16-3.38.2-4.92l1.97,2.46-2.18,2.46ZM72.19,94.43l-2.06-2.58,2.79-3.12,2.17,2.5-2.9,3.21ZM80.45,94.43l-2.78-3.19,2.51-2.78,2.7,3.03-2.43,2.94ZM85.45,91.46l2.26-2.73c.04,1.71.12,3.55.22,5.51l-2.48-2.79ZM91.89,64.59c-.09.06-.17.12-.25.2l-6.26,7.03-3.18-3.95,1.39-5.83h10.29c-.54.67-1.19,1.51-2,2.54Z"/></g></svg>