<?xml version="1.0" encoding="UTF-8"?><svg id="_レイヤー_2" xmlns="http://www.w3.org/2000/svg" viewBox="0 0 142.5 146.92"><defs><style>.cls-1{fill:#97c03c;}.cls-1,.cls-2,.cls-3,.cls-4,.cls-5{stroke-width:0px;}.cls-6{stroke-width:1.61px;}.cls-6,.cls-7,.cls-8,.cls-9,.cls-10,.cls-11{fill:none;}.cls-6,.cls-7,.cls-8,.cls-9,.cls-11{stroke-linecap:round;}.cls-6,.cls-7,.cls-8,.cls-10,.cls-11{stroke:#231815;}.cls-6,.cls-7,.cls-9,.cls-11{stroke-linejoin:round;}.cls-8,.cls-10{stroke-miterlimit:10;}.cls-8,.cls-11{stroke-width:1.5px;}.cls-2{fill:#e6003d;}.cls-9{stroke:#f39800;stroke-width:3.22px;}.cls-3{fill:#9cc2e7;}.cls-4{fill:#fff;}.cls-5{fill:#231815;}</style></defs><g id="_レイヤー_1-2"><path class="cls-1" d="M14.89,83.49s-11.22,4.47-12.3,10.74c-1.07,6.27,7.05,9.75,7.05,9.75,0,0,7.5,3.13,7.93,8.3,0,0-.56,9.21,10.74,4.65"/><path class="cls-4" d="M43.43,130.5s-16.79-8.78-27.81-13.4c0,0-9.55-4.83-13.54,0-3.99,4.83,2.2,9.65,2.2,9.65,0,0,6.82,5.77,15.74,7.45,0,0-7.76,1.88-7.03,7.71,0,0-.1,4.68,13.96,3.63,0,0,9.2-1.57,14.94-6.93,5.74-5.35,5.74-6.3,5.74-6.3l-4.2-1.82Z"/><path class="cls-4" d="M49.59,131.06c-2.8,2.66-7.84,2.1-7.84,2.1-8.81-.98-4.34,2.52-4.34,2.52.98.98,4.48,2.94,4.48,2.94,12.59,5.6,40.85,6.16,56.11-15.25,15.25-21.41,2.66-41.8,2.66-41.8l1.01-.84c9.21-11.64,9.2-24.42,9.2-24.42.56-15.15-13.99-17.31-13.99-17.31-15.25-23.09-38.62-16.79-38.62-16.79,0,0-43.37.56-44.49,49.53,0,0,1.12,28.26,14.55,45.19,0,0,6.3,8.39,17.49,13.57,0,0,1.19.72,3.78.56"/><path class="cls-1" d="M47.64,132.32l-29.47-14.12s-8.42-3.72-12.2.59c-3.78,4.3.63,9.86,5.04,12.28,0,0,6.3,2.52,9.76,2.94l-2.2.74s-7.54,8.01,3.89,11.4c0,0,14.23-1.75,19.44-7.52l-3.92-2.62s-4.83-3.88,2.41-3.25c0,0,5.15,1.26,7.25-.42"/><path class="cls-1" d="M35.4,84.09s4.53,1.5,6.35,9.75c0,0,1.13,5.74-3,8.11,0,0-8.8,5.01.46,13,0,0,7.72,5.47,7.86,8.97,0,0,.14.56,0,1.82,0,0,4.06,1.4,2.52,5.32,0,0-30.54-3.52-34.1-51.84"/><path class="cls-11" d="M14.89,83.49s-11.22,4.47-12.3,10.74c-1.07,6.27,7.05,9.75,7.05,9.75,0,0,7.5,3.13,7.93,8.3,0,0-.56,9.21,10.74,4.65"/><path class="cls-4" d="M95.7,49.16c0,2.83-2.3,5.13-5.13,5.13s-5.13-2.3-5.13-5.13,2.3-5.13,5.13-5.13,5.13,2.3,5.13,5.13"/><circle class="cls-7" cx="90.57" cy="49.16" r="5.13" transform="translate(-8.24 78.44) rotate(-45)"/><path class="cls-5" d="M94.01,49.16c0,1.9-1.54,3.44-3.44,3.44s-3.44-1.54-3.44-3.44,1.54-3.44,3.44-3.44,3.44,1.54,3.44,3.44"/><path class="cls-4" d="M72.27,67.51c0,2.83-2.3,5.13-5.13,5.13s-5.13-2.3-5.13-5.13,2.3-5.13,5.13-5.13,5.13,2.3,5.13,5.13"/><circle class="cls-7" cx="67.13" cy="67.51" r="5.13" transform="translate(-28.07 67.24) rotate(-45)"/><path class="cls-5" d="M70.57,67.51c0,1.9-1.54,3.44-3.44,3.44s-3.44-1.54-3.44-3.44,1.54-3.44,3.44-3.44,3.44,1.54,3.44,3.44"/><path class="cls-11" d="M21.6,89.55c-.18.71-.05,1.5.41,2.14.83,1.15,2.44,1.4,3.59.57.04-.03.08-.06.12-.1.08.28.21.55.39.79.83,1.15,2.44,1.4,3.59.57.27-.19.48-.43.65-.69.03.05.06.1.1.15.83,1.15,2.44,1.4,3.59.57.5-.36.83-.87.97-1.42"/><path class="cls-11" d="M23.51,100.29c.06-.03.11-.07.16-.1.06.35.18.7.37,1.03.87,1.52,2.8,2.04,4.32,1.18.35-.2.65-.46.89-.76.03.07.06.13.1.19.87,1.52,2.8,2.04,4.32,1.18.66-.38,1.13-.95,1.38-1.6"/><path class="cls-3" d="M125.32,30.89c0,1.76,1.43,3.19,3.19,3.19s3.19-1.43,3.19-3.19-1.43-3.19-3.19-3.19-3.19,1.43-3.19,3.19"/><path class="cls-10" d="M125.32,30.89c0,1.76,1.43,3.19,3.19,3.19s3.19-1.43,3.19-3.19-1.43-3.19-3.19-3.19-3.19,1.43-3.19,3.19Z"/><path class="cls-3" d="M118.35,39.07c0,1.23.99,2.22,2.22,2.22s2.22-.99,2.22-2.22-.99-2.22-2.22-2.22-2.22.99-2.22,2.22"/><path class="cls-10" d="M118.35,39.07c0,1.23.99,2.22,2.22,2.22s2.22-.99,2.22-2.22-.99-2.22-2.22-2.22-2.22.99-2.22,2.22Z"/><path class="cls-3" d="M127.27,22.6c0,1.23.99,2.22,2.22,2.22s2.22-.99,2.22-2.22-.99-2.22-2.22-2.22-2.22.99-2.22,2.22"/><path class="cls-10" d="M127.27,22.6c0,1.23.99,2.22,2.22,2.22s2.22-.99,2.22-2.22-.99-2.22-2.22-2.22-2.22.99-2.22,2.22Z"/><path class="cls-3" d="M112.63,8.84c0,1.23.99,2.22,2.22,2.22s2.22-.99,2.22-2.22-.99-2.22-2.22-2.22-2.22.99-2.22,2.22"/><path class="cls-10" d="M112.63,8.84c0,1.23.99,2.22,2.22,2.22s2.22-.99,2.22-2.22-.99-2.22-2.22-2.22-2.22.99-2.22,2.22Z"/><path class="cls-3" d="M122.81,4.96c0,2.46,2,4.46,4.46,4.46s4.46-2,4.46-4.46-2-4.46-4.46-4.46-4.46,2-4.46,4.46"/><path class="cls-10" d="M122.81,4.96c0,2.46,2,4.46,4.46,4.46s4.46-2,4.46-4.46-2-4.46-4.46-4.46-4.46,2-4.46,4.46Z"/><path class="cls-3" d="M116.01,16.2c-1.98,1.98-1.98,5.18,0,7.15,1.97,1.98,5.18,1.98,7.15,0,1.98-1.97,1.98-5.18,0-7.15-1.98-1.97-5.18-1.97-7.15,0"/><path class="cls-10" d="M116.01,16.2c-1.98,1.98-1.98,5.18,0,7.15,1.97,1.98,5.18,1.98,7.15,0,1.98-1.97,1.98-5.18,0-7.15-1.98-1.97-5.18-1.97-7.15,0Z"/><path class="cls-11" d="M92.4,89.36c18.49-12.73,18.47-33.06,18.47-33.06.56-15.15-13.99-17.31-13.99-17.31-15.25-23.09-38.62-16.79-38.62-16.79,0,0-43.37.56-44.49,49.53,0,0,1.12,28.26,14.55,45.19,0,0,6.3,8.39,17.49,13.57,0,0,1.01.46,3.78.56-2.8,2.66-7.83,2.1-7.83,2.1-8.82-.98-4.34,2.52-4.34,2.52.98.98,4.48,2.94,4.48,2.94,12.59,5.6,40.85,6.16,56.11-15.25,15.25-21.41,2.8-41.14,2.8-41.14"/><path class="cls-4" d="M61.13,86.79s22.73-9.78,29.8,12.19h1.84l1.81-.3,13.64-9.87s-3.78-3.99-3.64-7.24c0,0,.84-5.07-3.08-10.11,0,0-3.64-3.36-.7-5.74,0,0,2.94-3.36,6.58,1.12l3.51,3.78,2.08-1.73s4.2-3.54,7.84,0c0,0,2.27,1.83,1.22,4.45,0,0,5.88-.73,4.41,4.83,0,0,5.25.52,2.41,6.51,0,0-6.51,11.75-14.38,7.97l-10.22,11.5s-4.6,5.75-8.56,2.17l-3.87.8s-6.47,11.97-18.76,11.97c0,0-8.22.11-14.77-3.39"/><path class="cls-6" d="M61.13,86.79s22.73-9.78,29.8,12.19h1.84l1.81-.3,13.64-9.87s-3.78-3.99-3.64-7.24c0,0,.84-5.07-3.08-10.11,0,0-3.64-3.36-.7-5.74,0,0,2.94-3.36,6.58,1.12l3.51,3.78,2.08-1.73s4.2-3.54,7.84,0c0,0,2.27,1.83,1.22,4.45,0,0,5.88-.73,4.41,4.83,0,0,5.25.52,2.41,6.51,0,0-6.51,11.75-14.38,7.97l-10.22,11.5s-4.6,5.75-8.56,2.17l-3.87.8s-6.47,11.97-18.76,11.97c0,0-8.22.11-14.77-3.39"/><path class="cls-4" d="M88.77,77.96l6.93-7.45-2.42-6.44s-2.16-5.34-6.15-2.37c-4.66,3.46-2.35,7.24-1.2,10.39l2.83,5.88Z"/><path class="cls-11" d="M88.77,77.96l6.93-7.45-2.42-6.44s-2.16-5.34-6.15-2.37c-4.66,3.46-2.35,7.24-1.2,10.39l2.83,5.88Z"/><line class="cls-11" x1="90.02" y1="81.79" x2="97.13" y2="74.13"/><path class="cls-11" d="M47.64,132.32l-4.2-1.82s-16.79-8.78-27.81-13.4c0,0-9.55-4.83-13.54,0-3.99,4.83,2.2,9.65,2.2,9.65,0,0,6.82,5.77,15.74,7.45,0,0-7.76,1.88-7.03,7.71,0,0,.77,6.21,13.96,3.63,0,0,9.2-1.57,14.94-6.93"/><path class="cls-11" d="M30.79,80.6s3.56,3.87,16.85,4.57"/><path class="cls-1" d="M15.49,79.22l12.28-1.26s2.27,3.79,7.64,6.13"/><line class="cls-8" x1="7.76" y1="94.05" x2="16.9" y2="91.8"/><line class="cls-8" x1="10.83" y1="99.16" x2="18.57" y2="97.66"/><line class="cls-8" x1="16.15" y1="105.14" x2="20.63" y2="104.06"/><line class="cls-8" x1="20.07" y1="112.73" x2="24.49" y2="111.84"/><line class="cls-8" x1="3.28" y1="116.65" x2="15.41" y2="121.97"/><line class="cls-8" x1=".76" y1="120.85" x2="12.4" y2="125.6"/><line class="cls-8" x1="12.96" y1="140.84" x2="21.52" y2="138.48"/><line class="cls-8" x1="15.41" y1="144.93" x2="24.19" y2="141.92"/><line class="cls-9" x1="126.28" y1="54.3" x2="124.02" y2="59.14"/><line class="cls-9" x1="134.7" y1="56.89" x2="129.69" y2="62.62"/><line class="cls-9" x1="139.94" y1="64.07" x2="133.3" y2="67.85"/><line class="cls-9" x1="140.89" y1="73.3" x2="135.46" y2="73.96"/><path class="cls-2" d="M79.09,25.87c.64-6.63-4.22-12.53-10.86-13.17-3.71-.36-7.18,1.01-9.64,3.44-2.12-3.23-5.62-5.51-9.76-5.91-5.46-.52-10.46,2.36-12.88,6.92-1.29-.51-2.67-.86-4.13-1-8.34-.8-15.74,5.31-16.55,13.64-.28,2.92.3,5.72,1.52,8.17-3.19,2.12-5.43,5.6-5.82,9.71-.43,4.42,1.39,8.53,4.52,11.23-3.14,1.91-5.39,5.21-5.76,9.15-.64,6.63,4.22,12.53,10.86,13.17,3.67.35,7.12-.98,9.57-3.37,1.04.38,2.13.65,3.28.76,6.07.58,11.56-3.06,13.59-8.52,7.95.28,14.84-5.66,15.61-13.68.15-1.52.06-3.01-.23-4.44.17.02.33.06.51.07,6.63.64,12.53-4.22,13.17-10.86.24-2.54-.32-4.97-1.48-7.04,2.47-1.97,4.17-4.89,4.49-8.27"/><path class="cls-11" d="M79.09,25.87c.64-6.63-4.22-12.53-10.86-13.17-3.71-.36-7.18,1.01-9.64,3.44-2.12-3.23-5.62-5.51-9.76-5.91-5.46-.52-10.46,2.36-12.88,6.92-1.29-.51-2.67-.86-4.13-1-8.34-.8-15.74,5.31-16.55,13.64-.28,2.92.3,5.72,1.52,8.17-3.19,2.12-5.43,5.6-5.82,9.71-.43,4.42,1.39,8.53,4.52,11.23-3.14,1.91-5.39,5.21-5.76,9.15-.64,6.63,4.22,12.53,10.86,13.17,3.67.35,7.12-.98,9.57-3.37,1.04.38,2.13.65,3.28.76,6.07.58,11.56-3.06,13.59-8.52,7.95.28,14.84-5.66,15.61-13.68.15-1.52.06-3.01-.23-4.44.17.02.33.06.51.07,6.63.64,12.53-4.22,13.17-10.86.24-2.54-.32-4.97-1.48-7.04,2.47-1.97,4.17-4.89,4.49-8.27Z"/><path class="cls-2" d="M24.5,70.26c-3.2-2.16-4.04-6.5-1.88-9.7,2.16-3.2,6.51-4.04,9.7-1.88"/><path class="cls-11" d="M24.5,70.26c-3.2-2.16-4.04-6.5-1.88-9.7,2.16-3.2,6.51-4.04,9.7-1.88"/><path class="cls-11" d="M57.18,31.14c-1.56-2.77-4.41-4.74-7.82-5.04-3.33-.29-6.4,1.11-8.41,3.47-.98-.74-2.17-1.22-3.48-1.33-3.74-.32-7.03,2.45-7.35,6.19"/></g></svg>