<?xml version="1.0" encoding="UTF-8"?><svg id="_イヤー_2" xmlns="http://www.w3.org/2000/svg" viewBox="0 0 200 56.78"><defs><style>.cls-1{fill:#fff;}.cls-2{fill:#9dc938;}</style></defs><g id="_ンテンツ"><g><path class="cls-1" d="M125.55,7.21h-11.92c-.07,0-.13,.05-.14,.12l-6.34,34.99s0,.08,.03,.12c.03,.03,.07,.05,.11,.05h6.99c.07,0,.13-.05,.14-.12l1.11-6.38c.03-.18,.19-.31,.37-.31h7.41c.18,0,.33,.13,.37,.31l1.11,6.38c.01,.07,.07,.12,.14,.12h6.98s.08-.02,.11-.05c.03-.03,.04-.08,.03-.12l-6.34-34.99c-.01-.07-.07-.12-.14-.12m-3.12,21.89c.02,.11-.01,.22-.08,.3-.07,.08-.17,.13-.28,.13h-4.95c-.11,0-.21-.05-.28-.13-.07-.08-.1-.19-.09-.3l2.49-16.19c.03-.18,.18-.31,.37-.31s.34,.13,.37,.32l2.46,16.19Z"/><path class="cls-1" d="M148.27,22.34c-4.72-2.44-5.32-3.52-5.32-4.18v-3.44c0-.84,.46-1.33,1.28-1.33h3.59c.83,0,1.3,.48,1.3,1.33v3.55c0,.08,.06,.14,.14,.14h6.5c.08,0,.14-.06,.14-.14v-5.31c0-1.98-.46-3.46-1.37-4.38-.99-.97-2.39-1.35-5.01-1.37h-7.21c-2.62,.02-4.03,.4-5.02,1.38-.91,.92-1.37,2.4-1.37,4.38v5.95c0,2.15,.46,3.71,1.38,4.64,.95,.94,3.1,2.3,6.38,4.03,4.58,2.43,5.2,3.35,5.2,3.93v3.46c0,.84-.46,1.32-1.28,1.32h-3.59c-.83,0-1.3-.48-1.3-1.32v-3.55c0-.08-.07-.14-.14-.14h-6.75c-.08,0-.14,.07-.14,.14v5.31c0,1.98,.46,3.46,1.38,4.39,.99,.97,2.39,1.35,5.01,1.37h7.72c2.62-.02,4.03-.4,5.02-1.38,.91-.92,1.37-2.4,1.37-4.38v-5.72c0-2.15-.46-3.71-1.38-4.64-.95-.94-3.14-2.29-6.51-4.03"/><path class="cls-1" d="M103.7,7.21h-17.01c-.08,0-.14,.06-.14,.14V42.34c0,.08,.06,.14,.14,.14h17.01c.08,0,.14-.07,.14-.14v-5.9c0-.08-.06-.14-.14-.14h-9.48c-.2,0-.37-.17-.37-.37v-7.63c0-.2,.17-.37,.37-.37h8.07c.08,0,.14-.06,.14-.14v-5.9c0-.08-.06-.14-.14-.14h-8.07c-.2,0-.37-.17-.37-.37v-7.61c0-.2,.17-.37,.37-.37h9.48c.08,0,.14-.06,.14-.14V7.35c0-.08-.06-.14-.14-.14"/><path class="cls-2" d="M49.39,7.21h-7c-.08,0-.14,.06-.14,.14V42.34c0,.08,.06,.14,.14,.14h7c.08,0,.14-.07,.14-.14V7.35c0-.08-.07-.14-.14-.14"/><path class="cls-1" d="M37.3,7.21H20.3c-.08,0-.14,.06-.14,.14V42.34c0,.08,.06,.14,.14,.14h7c.08,0,.14-.07,.14-.14v-14.05c0-.2,.17-.37,.37-.37h8.57c.08,0,.14-.06,.14-.14v-5.9c0-.08-.06-.14-.14-.14h-8.57c-.2,0-.37-.17-.37-.37v-7.61c0-.2,.17-.37,.37-.37h9.48c.08,0,.14-.06,.14-.14V7.35c0-.08-.06-.14-.14-.14"/><path class="cls-2" d="M74.23,7.21h-20.21c-.08,0-.14,.06-.14,.14v5.9c0,.08,.07,.14,.14,.14h6.09c.2,0,.37,.17,.37,.37v28.58c0,.08,.06,.14,.14,.14h7c.08,0,.14-.07,.14-.14V13.76c0-.2,.17-.37,.37-.37h6.09c.08,0,.14-.06,.14-.14V7.35c0-.08-.06-.14-.14-.14"/><path class="cls-1" d="M183.28,7.27s-.07-.06-.12-.06h-6.92c-.06,0-.12,.04-.14,.1l-4.78,14.91c-.05,.15-.19,.26-.35,.26s-.3-.1-.35-.26l-4.75-14.9c-.02-.06-.08-.1-.14-.1h-6.92s-.09,.02-.12,.06c-.03,.04-.03,.09-.02,.13l8.63,23.63s.02,.08,.02,.13v11.18c0,.08,.06,.14,.14,.14h7c.08,0,.14-.07,.14-.14v-11.13s0-.09,.02-.13l8.66-23.68s.01-.09-.02-.13"/><path class="cls-2" d="M81.35,22.47h-7.63c-.08,0-.14,.07-.14,.14v5.92c0,.08,.06,.14,.14,.14h7.63c.08,0,.14-.06,.14-.14v-5.92c0-.08-.06-.14-.14-.14"/><path class="cls-1" d="M195.27,48.33h-7.12v-4.58h7.12c.07,0,.14-.07,.14-.14V4.73c0-.08-.07-.14-.14-.14h-7.12V0h7.12c2.61,0,4.73,2.12,4.73,4.73V43.6c0,2.61-2.12,4.73-4.73,4.73"/><path class="cls-1" d="M4.73,48.33h7.12v-4.58H4.73c-.07,0-.14-.07-.14-.14V4.73c0-.08,.07-.14,.14-.14h7.12V0H4.73C2.12,0,0,2.12,0,4.73V43.6c0,2.61,2.12,4.73,4.73,4.73"/><path class="cls-1" d="M27.62,56.6s-.07-.08-.07-.14c0-.04,.02-.09,.05-.15l3.44-6.48c.06-.1,.12-.15,.2-.15,.09,0,.16,.05,.2,.15l3.44,6.48c.03,.06,.05,.11,.05,.15,0,.06-.02,.1-.07,.14-.04,.03-.11,.05-.18,.05h-1.04c-.15,0-.26-.07-.33-.21l-.45-.86h-3.25l-.43,.86c-.06,.14-.18,.21-.33,.21h-1.05c-.08,0-.14-.02-.18-.05m4.52-2.3l-.9-1.82-.89,1.82h1.78Z"/><path class="cls-1" d="M43.02,49.75c.05,0,.09,.02,.12,.07,.03,.04,.04,.11,.04,.18v6.37c0,.09-.03,.16-.08,.21-.05,.05-.12,.08-.21,.08h-.94c-.09,0-.16-.02-.21-.08-.05-.05-.08-.12-.08-.21v-3.04l-1.94,2.24c-.06,.08-.12,.11-.2,.11-.06,0-.13-.04-.2-.11l-1.94-2.24v3.04c0,.09-.03,.16-.08,.21-.05,.05-.12,.08-.21,.08h-.94c-.09,0-.16-.02-.21-.08-.05-.05-.08-.12-.08-.21v-6.37c0-.08,.01-.14,.04-.18,.03-.04,.07-.07,.12-.07,.06,0,.13,.04,.19,.11l3.3,3.72,3.3-3.72c.07-.08,.13-.11,.19-.11"/><path class="cls-1" d="M46.27,56.41c-.47-.24-.84-.59-1.1-1.03-.26-.45-.39-.97-.39-1.55v-3.85c0-.09,.03-.16,.08-.21,.05-.05,.12-.08,.21-.08h.93c.09,0,.16,.02,.21,.08,.05,.05,.08,.12,.08,.21v3.85c0,.38,.08,.7,.25,.95,.16,.25,.38,.44,.65,.54,.23,.1,.47,.15,.72,.15s.5-.05,.74-.16c.24-.11,.44-.28,.6-.52,.17-.24,.26-.57,.26-.97v-3.85c0-.09,.02-.16,.08-.21,.05-.05,.12-.08,.21-.08h.93c.09,0,.16,.02,.21,.08,.05,.05,.08,.12,.08,.21v3.85c0,.59-.13,1.11-.38,1.55-.25,.45-.62,.79-1.09,1.03-.47,.24-1.02,.36-1.64,.36s-1.17-.12-1.64-.36"/><path class="cls-1" d="M52.38,55.65c0-.06,.02-.12,.07-.18l.48-.69c.05-.09,.12-.13,.21-.13,.06,0,.12,.02,.18,.07,.3,.2,.64,.37,1.04,.51,.39,.14,.75,.2,1.06,.2,.39,0,.7-.07,.93-.22,.24-.15,.35-.33,.35-.55,0-.31-.24-.53-.72-.67l-.83-.17c-.55-.09-1-.2-1.35-.32-.35-.13-.67-.33-.95-.6-.31-.29-.47-.7-.47-1.21,0-.71,.26-1.23,.78-1.58,.52-.35,1.18-.52,1.99-.52,.5,0,.95,.06,1.34,.19,.39,.12,.79,.32,1.17,.58,.09,.06,.13,.14,.13,.22,0,.07-.02,.13-.07,.18l-.51,.69c-.06,.09-.13,.13-.21,.13-.06,0-.13-.02-.19-.07-.28-.18-.57-.31-.86-.41-.3-.1-.59-.14-.87-.14-.33,0-.61,.06-.85,.17-.24,.11-.35,.29-.35,.51,0,.14,.06,.26,.18,.35,.12,.1,.27,.17,.45,.21,.13,.04,.38,.1,.75,.18l.34,.07c.59,.11,1.05,.24,1.37,.36,.32,.13,.6,.33,.84,.6,.25,.29,.38,.7,.38,1.22,0,.69-.25,1.23-.74,1.6-.49,.38-1.17,.56-2.04,.56-1.15,0-2.13-.31-2.93-.92-.08-.06-.12-.14-.12-.22"/><path class="cls-1" d="M60.84,52.54h3.05c.09,0,.16,.03,.21,.08,.05,.05,.08,.12,.08,.21v.74c0,.09-.03,.16-.08,.21-.05,.05-.12,.08-.21,.08h-3.05v1.49h3.49c.09,0,.16,.02,.21,.08,.05,.05,.08,.12,.08,.21v.73c0,.09-.03,.16-.08,.21-.05,.05-.12,.08-.21,.08h-4.71c-.09,0-.16-.02-.21-.08-.05-.05-.08-.12-.08-.21v-6.4c0-.09,.03-.16,.08-.21,.05-.05,.12-.08,.21-.08h4.71c.09,0,.16,.03,.21,.08,.05,.05,.08,.12,.08,.21v.73c0,.09-.03,.16-.08,.21-.05,.05-.12,.08-.21,.08h-3.49v1.55Z"/><path class="cls-1" d="M73.16,49.75c.05,0,.09,.02,.12,.07,.03,.04,.04,.11,.04,.18v6.37c0,.09-.03,.16-.08,.21-.05,.05-.12,.08-.21,.08h-.94c-.09,0-.16-.02-.21-.08-.05-.05-.08-.12-.08-.21v-3.04l-1.94,2.24c-.06,.08-.12,.11-.2,.11-.06,0-.13-.04-.2-.11l-1.94-2.24v3.04c0,.09-.03,.16-.08,.21-.05,.05-.12,.08-.21,.08h-.94c-.09,0-.16-.02-.21-.08-.05-.05-.08-.12-.08-.21v-6.37c0-.08,.01-.14,.04-.18,.03-.04,.07-.07,.12-.07,.06,0,.13,.04,.19,.11l3.3,3.72,3.3-3.72c.07-.08,.13-.11,.19-.11"/><path class="cls-1" d="M76.43,52.54h3.05c.09,0,.16,.03,.21,.08,.05,.05,.08,.12,.08,.21v.74c0,.09-.03,.16-.08,.21-.05,.05-.12,.08-.21,.08h-3.05v1.49h3.49c.09,0,.16,.02,.21,.08,.05,.05,.08,.12,.08,.21v.73c0,.09-.03,.16-.08,.21-.05,.05-.12,.08-.21,.08h-4.71c-.09,0-.16-.02-.21-.08-.05-.05-.08-.12-.08-.21v-6.4c0-.09,.03-.16,.08-.21,.05-.05,.12-.08,.21-.08h4.71c.09,0,.16,.03,.21,.08,.05,.05,.08,.12,.08,.21v.73c0,.09-.03,.16-.08,.21-.05,.05-.12,.08-.21,.08h-3.49v1.55Z"/><path class="cls-1" d="M83.1,56.36c0,.09-.03,.16-.08,.21-.05,.05-.12,.08-.21,.08h-.93c-.09,0-.16-.02-.21-.08-.05-.05-.08-.12-.08-.21v-6.52c0-.05,.01-.09,.04-.12,.03-.03,.06-.04,.11-.04,.07,0,.14,.03,.21,.1l4.45,3.94v-3.74c0-.09,.03-.16,.08-.21,.05-.05,.12-.08,.21-.08h.93c.09,0,.16,.03,.21,.08,.05,.05,.08,.12,.08,.21v6.43c0,.08-.02,.14-.05,.19-.03,.05-.07,.07-.12,.07-.06,0-.11-.02-.15-.07l-4.49-3.91v3.68Z"/><path class="cls-1" d="M94.67,50.91c-.05,.05-.12,.08-.21,.08h-1.74v5.38c0,.09-.03,.16-.08,.21-.05,.05-.12,.08-.21,.08h-.94c-.09,0-.16-.02-.21-.08-.05-.05-.08-.12-.08-.21v-5.38h-1.75c-.09,0-.16-.03-.21-.08s-.08-.12-.08-.21v-.73c0-.09,.03-.16,.08-.21,.05-.05,.12-.08,.21-.08h5c.09,0,.16,.03,.21,.08,.05,.05,.08,.12,.08,.21v.73c0,.09-.03,.16-.08,.21"/><path class="cls-1" d="M100.04,52.52h3.04c.09,0,.16,.02,.21,.08,.05,.05,.08,.12,.08,.21v.73c0,.09-.03,.16-.08,.21-.05,.05-.12,.08-.21,.08h-3.04v2.54c0,.09-.03,.16-.08,.21-.05,.05-.12,.08-.21,.08h-.94c-.09,0-.16-.02-.21-.08-.05-.05-.08-.12-.08-.21v-6.4c0-.09,.03-.16,.08-.21,.05-.05,.12-.08,.21-.08h4.71c.09,0,.16,.03,.21,.08,.05,.05,.08,.12,.08,.21v.73c0,.09-.03,.16-.08,.21-.05,.05-.12,.08-.21,.08h-3.48v1.54Z"/><path class="cls-1" d="M106.51,56.57c-.05,.05-.12,.08-.21,.08h-.93c-.09,0-.16-.02-.21-.08-.05-.05-.08-.12-.08-.21v-6.4c0-.09,.02-.16,.08-.21,.05-.05,.12-.08,.21-.08h.93c.09,0,.16,.03,.21,.08,.05,.05,.08,.12,.08,.21v6.4c0,.09-.03,.16-.08,.21"/><path class="cls-1" d="M113.45,50.91c-.05,.05-.12,.08-.21,.08h-1.74v5.38c0,.09-.02,.16-.08,.21-.05,.05-.12,.08-.21,.08h-.94c-.09,0-.16-.02-.21-.08-.05-.05-.08-.12-.08-.21v-5.38h-1.75c-.09,0-.16-.03-.21-.08s-.08-.12-.08-.21v-.73c0-.09,.02-.16,.08-.21,.05-.05,.12-.08,.21-.08h5c.09,0,.16,.03,.21,.08,.05,.05,.08,.12,.08,.21v.73c0,.09-.03,.16-.08,.21"/><path class="cls-1" d="M115.95,56.36c0,.09-.03,.16-.08,.21-.05,.05-.12,.08-.21,.08h-.93c-.09,0-.16-.02-.21-.08-.05-.05-.08-.12-.08-.21v-6.52c0-.05,.01-.09,.04-.12,.02-.03,.06-.04,.1-.04,.07,0,.14,.03,.21,.1l4.45,3.94v-3.74c0-.09,.02-.16,.08-.21,.05-.05,.12-.08,.21-.08h.93c.09,0,.16,.03,.21,.08,.05,.05,.08,.12,.08,.21v6.43c0,.08-.02,.14-.05,.19-.03,.05-.07,.07-.12,.07-.06,0-.11-.02-.15-.07l-4.49-3.91v3.68Z"/><path class="cls-1" d="M123.85,52.54h3.05c.09,0,.16,.03,.21,.08,.05,.05,.08,.12,.08,.21v.74c0,.09-.03,.16-.08,.21-.05,.05-.12,.08-.21,.08h-3.05v1.49h3.49c.09,0,.16,.02,.21,.08,.05,.05,.08,.12,.08,.21v.73c0,.09-.02,.16-.08,.21-.05,.05-.12,.08-.21,.08h-4.71c-.09,0-.16-.02-.21-.08-.05-.05-.08-.12-.08-.21v-6.4c0-.09,.03-.16,.08-.21,.05-.05,.12-.08,.21-.08h4.71c.09,0,.16,.03,.21,.08,.05,.05,.08,.12,.08,.21v.73c0,.09-.02,.16-.08,.21-.05,.05-.12,.08-.21,.08h-3.49v1.55Z"/><path class="cls-1" d="M128.81,55.65c0-.06,.02-.12,.07-.18l.48-.69c.05-.09,.12-.13,.21-.13,.06,0,.12,.02,.18,.07,.3,.2,.64,.37,1.04,.51,.39,.14,.75,.2,1.06,.2,.39,0,.7-.07,.93-.22,.24-.15,.35-.33,.35-.55,0-.31-.24-.53-.72-.67l-.83-.17c-.55-.09-1-.2-1.35-.32-.35-.13-.67-.33-.95-.6-.31-.29-.47-.7-.47-1.21,0-.71,.26-1.23,.78-1.58,.52-.35,1.18-.52,1.99-.52,.5,0,.95,.06,1.34,.19,.39,.12,.79,.32,1.17,.58,.09,.06,.13,.14,.13,.22,0,.07-.02,.13-.07,.18l-.51,.69c-.06,.09-.13,.13-.21,.13-.06,0-.13-.02-.19-.07-.28-.18-.57-.31-.86-.41-.3-.1-.59-.14-.87-.14-.33,0-.61,.06-.85,.17-.24,.11-.35,.29-.35,.51,0,.14,.06,.26,.18,.35,.12,.1,.27,.17,.45,.21,.13,.04,.38,.1,.75,.18l.34,.07c.59,.11,1.05,.24,1.37,.36,.32,.13,.6,.33,.84,.6,.25,.29,.38,.7,.38,1.22,0,.69-.25,1.23-.74,1.6-.49,.38-1.17,.56-2.04,.56-1.15,0-2.13-.31-2.93-.92-.08-.06-.12-.14-.12-.22"/><path class="cls-1" d="M135.55,55.65c0-.06,.02-.12,.07-.18l.48-.69c.05-.09,.12-.13,.21-.13,.06,0,.12,.02,.18,.07,.3,.2,.64,.37,1.04,.51,.39,.14,.75,.2,1.06,.2,.39,0,.7-.07,.93-.22,.24-.15,.35-.33,.35-.55,0-.31-.24-.53-.73-.67l-.83-.17c-.55-.09-1-.2-1.35-.32-.35-.13-.67-.33-.95-.6-.31-.29-.47-.7-.47-1.21,0-.71,.26-1.23,.78-1.58,.52-.35,1.18-.52,1.99-.52,.5,0,.95,.06,1.34,.19,.39,.12,.79,.32,1.17,.58,.09,.06,.13,.14,.13,.22,0,.07-.02,.13-.07,.18l-.5,.69c-.06,.09-.13,.13-.21,.13-.06,0-.13-.02-.19-.07-.28-.18-.57-.31-.86-.41-.3-.1-.59-.14-.87-.14-.33,0-.61,.06-.85,.17-.24,.11-.35,.29-.35,.51,0,.14,.06,.26,.18,.35,.12,.1,.27,.17,.45,.21,.13,.04,.38,.1,.75,.18l.34,.07c.59,.11,1.05,.24,1.37,.36,.32,.13,.6,.33,.84,.6,.25,.29,.38,.7,.38,1.22,0,.69-.25,1.23-.74,1.6-.49,.38-1.17,.56-2.04,.56-1.15,0-2.13-.31-2.93-.92-.08-.06-.12-.14-.12-.22"/><path class="cls-1" d="M150.76,54.38s.09,0,.13,.03l.87,.33c.13,.05,.19,.12,.19,.22,0,.05-.02,.11-.06,.16-.35,.53-.8,.94-1.35,1.23-.55,.29-1.15,.43-1.79,.43-.67,0-1.3-.16-1.87-.48-.58-.32-1.03-.76-1.38-1.32-.34-.56-.51-1.16-.51-1.81s.17-1.24,.51-1.8c.34-.56,.8-1,1.37-1.32,.57-.32,1.2-.49,1.88-.49,.62,0,1.21,.15,1.77,.44,.56,.29,1.01,.69,1.37,1.2,.04,.06,.06,.11,.06,.16,0,.1-.06,.17-.18,.22l-.87,.33s-.09,.03-.14,.03c-.1,0-.18-.04-.25-.13-.23-.27-.5-.49-.81-.65-.31-.16-.63-.24-.95-.24-.4,0-.77,.1-1.12,.31-.34,.2-.62,.48-.82,.83-.2,.35-.31,.72-.31,1.11s.1,.76,.3,1.11c.2,.35,.47,.62,.82,.83,.34,.21,.72,.31,1.13,.31,.34,0,.66-.08,.98-.23,.31-.16,.58-.37,.79-.65,.08-.1,.16-.15,.25-.15"/><path class="cls-1" d="M158.18,55.42c.05,.05,.08,.12,.08,.21v.73c0,.09-.03,.16-.08,.21-.05,.05-.12,.08-.21,.08h-4.6c-.09,0-.16-.02-.21-.08-.05-.05-.08-.12-.08-.21v-6.4c0-.09,.02-.16,.08-.21,.05-.05,.12-.08,.21-.08h.94c.09,0,.16,.03,.21,.08,.05,.05,.08,.12,.08,.21v5.38h3.37c.09,0,.16,.02,.21,.08"/><path class="cls-1" d="M160.67,56.41c-.47-.24-.84-.59-1.1-1.03-.26-.45-.39-.97-.39-1.55v-3.85c0-.09,.02-.16,.08-.21,.05-.05,.12-.08,.21-.08h.93c.09,0,.16,.02,.21,.08,.05,.05,.08,.12,.08,.21v3.85c0,.38,.08,.7,.25,.95,.17,.25,.38,.44,.65,.54,.23,.1,.47,.15,.72,.15s.5-.05,.74-.16c.24-.11,.44-.28,.6-.52,.17-.24,.26-.57,.26-.97v-3.85c0-.09,.02-.16,.08-.21,.05-.05,.12-.08,.21-.08h.93c.09,0,.16,.02,.21,.08,.05,.05,.08,.12,.08,.21v3.85c0,.59-.13,1.11-.38,1.55-.25,.45-.62,.79-1.09,1.03-.47,.24-1.02,.36-1.64,.36s-1.17-.12-1.64-.36"/><path class="cls-1" d="M171.92,52.46c-.16,.25-.37,.44-.63,.54,.32,.11,.6,.32,.82,.63s.34,.64,.34,.99c0,.69-.22,1.2-.66,1.53-.44,.33-1.03,.5-1.78,.5h-2.73c-.09,0-.16-.02-.21-.08-.05-.05-.08-.12-.08-.21v-6.4c0-.09,.02-.16,.08-.21,.05-.05,.12-.08,.21-.08h2.61c1.51,0,2.27,.65,2.27,1.94,0,.31-.08,.59-.24,.85m-2-.02c.24,0,.42-.07,.54-.22,.12-.15,.19-.33,.19-.55,0-.18-.07-.34-.21-.48-.14-.14-.31-.21-.51-.21h-1.42v1.46h1.41Zm.09,2.9c.29,0,.51-.07,.68-.22,.17-.15,.25-.34,.25-.57s-.09-.42-.26-.57c-.17-.15-.41-.22-.71-.22h-1.47v1.58h1.5Z"/></g></g></svg>