<?xml version="1.0" encoding="UTF-8"?><svg id="_イヤー_2" xmlns="http://www.w3.org/2000/svg" xmlns:xlink="http://www.w3.org/1999/xlink" viewBox="0 0 48 48"><defs><style>.cls-1{fill:#fff;}.cls-2{clip-path:url(#clippath);}.cls-3{fill:none;}</style><clipPath id="clippath"><rect class="cls-3" width="48" height="48"/></clipPath></defs><g id="_ンテンツ"><g class="cls-2"><path class="cls-1" d="M37.52,11.02c-2.47-1.54-4.26-4.09-4.78-7.07-.05-.28-.09-.57-.11-.86v-.96h-7.53v29.91c-.01,3.49-2.84,6.31-6.33,6.31-1.03,0-1.99-.24-2.85-.68-2.07-1.04-3.48-3.18-3.48-5.65,0-3.5,2.84-6.33,6.33-6.33,.67,0,1.32,.1,1.92,.3v-7.65c-.63-.09-1.26-.13-1.9-.13-7.65,0-13.85,6.2-13.85,13.84,0,4.79,2.44,9.01,6.14,11.5h0c2.2,1.48,4.86,2.34,7.71,2.34,7.65,0,13.85-6.2,13.85-13.84v-15.28c2.94,2.1,6.55,3.34,10.44,3.34v-7.49c-1.96,0-3.88-.55-5.54-1.58Z"/></g></g></svg>