<?xml version="1.0" encoding="UTF-8"?><svg id="_イヤー_2" xmlns="http://www.w3.org/2000/svg" xmlns:xlink="http://www.w3.org/1999/xlink" viewBox="0 0 48 48"><defs><style>.cls-1{fill:#fff;}.cls-2{clip-path:url(#clippath);}.cls-3{fill:none;}</style><clipPath id="clippath"><rect class="cls-3" width="48" height="48"/></clipPath></defs><g id="_ンテンツ"><g class="cls-2"><path class="cls-1" d="M46.35,12.7c-.54-2.02-2.12-3.61-4.12-4.15-3.64-.98-18.23-.98-18.23-.98,0,0-14.59,0-18.23,.98-2.01,.54-3.59,2.13-4.12,4.15-.97,3.66-.97,11.3-.97,11.3,0,0,0,7.64,.97,11.3,.54,2.02,2.12,3.61,4.12,4.15,3.64,.98,18.23,.98,18.23,.98,0,0,14.59,0,18.23-.98,2.01-.54,3.59-2.13,4.12-4.15,.97-3.66,.97-11.3,.97-11.3,0,0,0-7.64-.97-11.3ZM19.23,30.94v-13.87l12.19,6.94-12.19,6.94Z"/></g></g></svg>