<?xml version="1.0" encoding="UTF-8"?><svg id="_イヤー_2" xmlns="http://www.w3.org/2000/svg" viewBox="0 0 180.66 51.29"><defs><style>.cls-1{fill:#9dc938;}.cls-2{fill:#50504b;}</style></defs><g id="_ンテンツ"><g><path class="cls-2" d="M113.41,6.51h-10.77c-.06,0-.11,.05-.13,.11l-5.73,31.61s0,.08,.03,.1c.02,.03,.06,.05,.1,.05h6.31c.06,0,.12-.05,.13-.11l1-5.76c.03-.16,.17-.28,.33-.28h6.69c.16,0,.3,.12,.33,.28l1,5.76c.01,.06,.06,.11,.13,.11h6.31s.07-.02,.1-.05c.03-.03,.03-.07,.03-.1l-5.73-31.61c-.01-.06-.06-.11-.13-.11m-2.82,19.77c.01,.1-.01,.2-.08,.27-.06,.07-.16,.12-.25,.12h-4.47c-.1,0-.19-.04-.25-.12-.06-.07-.09-.17-.08-.27l2.25-14.63c.02-.16,.16-.28,.33-.28s.31,.12,.33,.29l2.22,14.63Z"/><path class="cls-2" d="M133.93,20.18c-4.26-2.2-4.81-3.18-4.81-3.78v-3.11c0-.76,.42-1.2,1.15-1.2h3.24c.75,0,1.17,.44,1.17,1.2v3.21c0,.07,.06,.13,.13,.13h5.87c.07,0,.13-.06,.13-.13v-4.8c0-1.79-.42-3.12-1.24-3.96-.89-.88-2.16-1.22-4.53-1.24h-6.52c-2.37,.02-3.64,.36-4.53,1.24-.82,.83-1.23,2.16-1.23,3.95v5.37c0,1.94,.42,3.35,1.24,4.19,.86,.85,2.8,2.07,5.77,3.64,4.14,2.19,4.69,3.02,4.69,3.55v3.13c0,.76-.42,1.2-1.15,1.2h-3.24c-.75,0-1.17-.44-1.17-1.2v-3.21c0-.07-.06-.13-.13-.13h-6.1c-.07,0-.13,.06-.13,.13v4.8c0,1.79,.42,3.12,1.24,3.96,.89,.88,2.16,1.22,4.53,1.24h6.97c2.37-.01,3.64-.36,4.54-1.24,.82-.83,1.24-2.16,1.24-3.95v-5.17c0-1.94-.42-3.35-1.24-4.19-.86-.85-2.84-2.07-5.88-3.64"/><path class="cls-2" d="M93.67,6.51h-15.36c-.07,0-.13,.06-.13,.13v31.61c0,.07,.06,.13,.13,.13h15.36c.07,0,.13-.06,.13-.13v-5.33c0-.07-.06-.13-.13-.13h-8.56c-.18,0-.34-.15-.34-.34v-6.89c0-.18,.15-.34,.34-.34h7.29c.07,0,.13-.06,.13-.13v-5.33c0-.07-.06-.13-.13-.13h-7.29c-.18,0-.34-.15-.34-.34v-6.87c0-.18,.15-.33,.34-.33h8.56c.07,0,.13-.06,.13-.13V6.64c0-.07-.06-.13-.13-.13"/><path class="cls-1" d="M44.61,6.51h-6.33c-.07,0-.13,.06-.13,.13v31.61c0,.07,.06,.13,.13,.13h6.33c.07,0,.13-.06,.13-.13V6.64c0-.07-.06-.13-.13-.13"/><path class="cls-2" d="M33.69,6.51h-15.35c-.07,0-.13,.06-.13,.13v31.61c0,.07,.06,.13,.13,.13h6.33c.07,0,.13-.06,.13-.13v-12.69c0-.18,.15-.34,.33-.34h7.74c.07,0,.13-.06,.13-.13v-5.33c0-.07-.06-.13-.13-.13h-7.74c-.19,0-.33-.15-.33-.34v-6.87c0-.18,.15-.33,.33-.33h8.56c.07,0,.13-.06,.13-.13V6.64c0-.07-.06-.13-.13-.13"/><path class="cls-1" d="M67.05,6.51h-18.25c-.07,0-.13,.06-.13,.13v5.33c0,.07,.06,.13,.13,.13h5.5c.18,0,.34,.15,.34,.33v25.82c0,.07,.06,.13,.13,.13h6.33c.07,0,.13-.06,.13-.13V12.43c0-.18,.15-.33,.34-.33h5.5c.07,0,.13-.06,.13-.13V6.64c0-.07-.06-.13-.13-.13"/><path class="cls-2" d="M165.55,6.57s-.06-.06-.1-.06h-6.25c-.06,0-.11,.04-.12,.09l-4.32,13.46c-.04,.14-.17,.23-.32,.23s-.27-.09-.32-.23l-4.29-13.46c-.02-.05-.07-.09-.13-.09h-6.25s-.08,.02-.11,.06c-.02,.03-.03,.08-.01,.12l7.8,21.35s.02,.08,.02,.11v10.1c0,.07,.06,.13,.13,.13h6.33c.07,0,.13-.06,.13-.13v-10.06s0-.08,.02-.11l7.82-21.39s.01-.08-.01-.12"/><path class="cls-1" d="M73.48,20.3h-6.89c-.07,0-.13,.06-.13,.13v5.34c0,.07,.06,.13,.13,.13h6.89c.07,0,.13-.06,.13-.13v-5.34c0-.07-.06-.13-.13-.13"/><path class="cls-2" d="M176.39,43.65h-6.43v-4.14h6.43c.07,0,.13-.06,.13-.13V4.27c0-.07-.06-.13-.13-.13h-6.43V0h6.43c2.35,0,4.27,1.92,4.27,4.27V39.38c0,2.35-1.92,4.27-4.27,4.27"/><path class="cls-2" d="M4.27,43.65h6.43v-4.14H4.27c-.07,0-.13-.06-.13-.13V4.27c0-.07,.06-.13,.13-.13h6.43V0H4.27C1.92,0,0,1.92,0,4.27V39.38c0,2.35,1.92,4.27,4.27,4.27"/><path class="cls-2" d="M24.95,51.12s-.06-.07-.06-.12c0-.03,.01-.08,.04-.14l3.11-5.85c.05-.09,.11-.14,.18-.14,.08,0,.14,.05,.18,.14l3.11,5.85c.03,.06,.04,.1,.04,.14,0,.05-.02,.09-.06,.12-.04,.03-.1,.05-.16,.05h-.94c-.13,0-.23-.06-.3-.19l-.41-.78h-2.94l-.39,.78c-.06,.13-.16,.19-.3,.19h-.95c-.07,0-.12-.02-.16-.05m4.08-2.08l-.81-1.65-.8,1.65h1.61Z"/><path class="cls-2" d="M38.86,44.93s.08,.02,.11,.06c.03,.04,.04,.09,.04,.16v5.76c0,.08-.02,.14-.07,.19-.05,.05-.11,.07-.19,.07h-.85c-.08,0-.14-.02-.19-.07-.05-.05-.07-.11-.07-.19v-2.75l-1.75,2.02c-.05,.07-.11,.1-.18,.1-.06,0-.12-.03-.18-.1l-1.75-2.02v2.75c0,.08-.02,.14-.07,.19-.05,.05-.11,.07-.19,.07h-.85c-.08,0-.14-.02-.19-.07-.05-.05-.07-.11-.07-.19v-5.76c0-.07,.01-.12,.04-.16,.03-.04,.06-.06,.11-.06,.06,0,.11,.03,.17,.1l2.98,3.36,2.98-3.36c.06-.07,.12-.1,.17-.1"/><path class="cls-2" d="M41.79,50.96c-.43-.22-.76-.53-.99-.93-.24-.41-.35-.88-.35-1.4v-3.48c0-.08,.02-.14,.07-.19,.05-.05,.11-.07,.19-.07h.84c.08,0,.14,.02,.19,.07,.05,.05,.07,.11,.07,.19v3.48c0,.34,.07,.63,.22,.86,.15,.23,.34,.39,.59,.49,.21,.09,.43,.14,.65,.14s.45-.05,.67-.15c.22-.1,.4-.25,.54-.47,.16-.22,.23-.51,.23-.88v-3.48c0-.08,.02-.14,.07-.19,.05-.05,.11-.07,.19-.07h.84c.08,0,.14,.02,.19,.07,.05,.05,.07,.11,.07,.19v3.48c0,.53-.11,1-.34,1.4-.23,.4-.56,.71-.98,.93-.43,.22-.92,.33-1.48,.33s-1.06-.11-1.48-.33"/><path class="cls-2" d="M47.32,50.27c0-.05,.02-.11,.06-.16l.43-.62c.05-.08,.11-.12,.19-.12,.05,0,.11,.02,.16,.06,.27,.18,.58,.34,.94,.46,.35,.12,.67,.19,.96,.19,.35,0,.63-.07,.84-.2,.21-.13,.32-.3,.32-.5,0-.28-.22-.48-.65-.6l-.75-.16c-.49-.08-.9-.18-1.22-.29-.32-.12-.6-.3-.86-.54-.28-.26-.42-.63-.42-1.09,0-.64,.23-1.11,.7-1.43,.47-.32,1.07-.47,1.8-.47,.45,0,.86,.06,1.21,.17,.36,.11,.71,.29,1.06,.52,.08,.06,.12,.12,.12,.2,0,.06-.02,.12-.06,.16l-.46,.62c-.05,.08-.11,.12-.19,.12-.06,0-.11-.02-.17-.06-.25-.16-.51-.28-.78-.37-.27-.09-.53-.13-.79-.13-.3,0-.55,.05-.77,.15-.21,.1-.32,.26-.32,.47,0,.13,.05,.23,.16,.32,.11,.09,.24,.15,.41,.19,.11,.03,.34,.09,.68,.16l.31,.06c.53,.1,.95,.21,1.24,.33,.29,.12,.55,.3,.76,.54,.23,.26,.35,.63,.35,1.1,0,.63-.22,1.11-.67,1.45-.45,.34-1.06,.51-1.84,.51-1.04,0-1.92-.28-2.65-.83-.07-.06-.11-.12-.11-.2"/><path class="cls-2" d="M54.96,47.46h2.76c.08,0,.14,.02,.19,.07,.05,.05,.07,.11,.07,.19v.67c0,.08-.02,.14-.07,.19-.05,.05-.11,.07-.19,.07h-2.76v1.34h3.15c.08,0,.14,.02,.19,.07,.05,.05,.07,.11,.07,.19v.66c0,.08-.02,.14-.07,.19-.05,.05-.11,.07-.19,.07h-4.26c-.08,0-.14-.02-.19-.07-.05-.05-.07-.11-.07-.19v-5.78c0-.08,.02-.14,.07-.19,.05-.05,.11-.07,.19-.07h4.26c.08,0,.14,.02,.19,.07,.05,.05,.07,.11,.07,.19v.66c0,.08-.02,.14-.07,.19-.05,.05-.11,.07-.19,.07h-3.15v1.4Z"/><path class="cls-2" d="M66.09,44.93s.08,.02,.11,.06c.03,.04,.04,.09,.04,.16v5.76c0,.08-.02,.14-.07,.19-.05,.05-.11,.07-.19,.07h-.85c-.08,0-.14-.02-.19-.07-.05-.05-.07-.11-.07-.19v-2.75l-1.75,2.02c-.05,.07-.11,.1-.18,.1-.06,0-.12-.03-.18-.1l-1.75-2.02v2.75c0,.08-.02,.14-.07,.19-.05,.05-.11,.07-.19,.07h-.85c-.08,0-.14-.02-.19-.07-.05-.05-.07-.11-.07-.19v-5.76c0-.07,.01-.12,.04-.16,.03-.04,.06-.06,.11-.06,.06,0,.11,.03,.17,.1l2.98,3.36,2.98-3.36c.06-.07,.12-.1,.17-.1"/><path class="cls-2" d="M69.04,47.46h2.76c.08,0,.14,.02,.19,.07,.05,.05,.07,.11,.07,.19v.67c0,.08-.02,.14-.07,.19-.05,.05-.11,.07-.19,.07h-2.76v1.34h3.15c.08,0,.14,.02,.19,.07,.05,.05,.07,.11,.07,.19v.66c0,.08-.02,.14-.07,.19-.05,.05-.11,.07-.19,.07h-4.26c-.08,0-.14-.02-.19-.07-.05-.05-.07-.11-.07-.19v-5.78c0-.08,.02-.14,.07-.19,.05-.05,.11-.07,.19-.07h4.26c.08,0,.14,.02,.19,.07,.05,.05,.07,.11,.07,.19v.66c0,.08-.02,.14-.07,.19-.05,.05-.11,.07-.19,.07h-3.15v1.4Z"/><path class="cls-2" d="M75.07,50.91c0,.08-.02,.14-.07,.19-.05,.05-.11,.07-.19,.07h-.84c-.08,0-.14-.02-.19-.07-.05-.05-.07-.11-.07-.19v-5.89s.01-.08,.03-.11c.02-.03,.05-.04,.09-.04,.06,0,.13,.03,.19,.09l4.02,3.56v-3.38c0-.08,.02-.14,.07-.19,.05-.05,.11-.07,.19-.07h.84c.08,0,.14,.02,.19,.07,.05,.05,.07,.11,.07,.19v5.81c0,.07-.01,.13-.04,.17-.03,.04-.07,.06-.11,.06-.05,0-.1-.02-.14-.06l-4.06-3.53v3.33Z"/><path class="cls-2" d="M85.52,45.99s-.11,.07-.19,.07h-1.57v4.86c0,.08-.02,.14-.07,.19-.05,.05-.11,.07-.19,.07h-.85c-.08,0-.14-.02-.19-.07-.05-.05-.07-.11-.07-.19v-4.86h-1.58c-.08,0-.14-.02-.19-.07s-.07-.11-.07-.19v-.66c0-.08,.02-.14,.07-.19,.05-.05,.11-.07,.19-.07h4.51c.08,0,.14,.02,.19,.07,.05,.05,.07,.11,.07,.19v.66c0,.08-.02,.14-.07,.19"/><path class="cls-2" d="M90.37,47.44h2.75c.08,0,.14,.02,.19,.07,.05,.05,.07,.11,.07,.19v.66c0,.08-.02,.14-.07,.19-.05,.05-.11,.07-.19,.07h-2.75v2.29c0,.08-.02,.14-.07,.19-.05,.05-.11,.07-.19,.07h-.85c-.08,0-.14-.02-.19-.07-.05-.05-.07-.11-.07-.19v-5.78c0-.08,.02-.14,.07-.19,.05-.05,.11-.07,.19-.07h4.26c.08,0,.14,.02,.19,.07,.05,.05,.07,.11,.07,.19v.66c0,.08-.02,.14-.07,.19-.05,.05-.11,.07-.19,.07h-3.14v1.39Z"/><path class="cls-2" d="M96.21,51.1s-.11,.07-.19,.07h-.84c-.08,0-.14-.02-.19-.07-.05-.05-.07-.11-.07-.19v-5.78c0-.08,.02-.14,.07-.19,.05-.05,.11-.07,.19-.07h.84c.08,0,.14,.02,.19,.07,.05,.05,.07,.11,.07,.19v5.78c0,.08-.02,.14-.07,.19"/><path class="cls-2" d="M102.48,45.99s-.11,.07-.19,.07h-1.57v4.86c0,.08-.02,.14-.07,.19-.05,.05-.11,.07-.19,.07h-.85c-.08,0-.14-.02-.19-.07-.05-.05-.07-.11-.07-.19v-4.86h-1.58c-.08,0-.14-.02-.19-.07s-.07-.11-.07-.19v-.66c0-.08,.02-.14,.07-.19,.05-.05,.11-.07,.19-.07h4.51c.08,0,.14,.02,.19,.07,.05,.05,.07,.11,.07,.19v.66c0,.08-.02,.14-.07,.19"/><path class="cls-2" d="M104.74,50.91c0,.08-.02,.14-.07,.19-.05,.05-.11,.07-.19,.07h-.84c-.08,0-.14-.02-.19-.07-.05-.05-.07-.11-.07-.19v-5.89s.01-.08,.03-.11c.02-.03,.05-.04,.09-.04,.06,0,.13,.03,.19,.09l4.02,3.56v-3.38c0-.08,.02-.14,.07-.19,.05-.05,.11-.07,.19-.07h.84c.08,0,.14,.02,.19,.07,.05,.05,.07,.11,.07,.19v5.81c0,.07-.02,.13-.04,.17-.03,.04-.07,.06-.11,.06-.05,0-.1-.02-.14-.06l-4.06-3.53v3.33Z"/><path class="cls-2" d="M111.87,47.46h2.76c.08,0,.14,.02,.19,.07,.05,.05,.07,.11,.07,.19v.67c0,.08-.02,.14-.07,.19-.05,.05-.11,.07-.19,.07h-2.76v1.34h3.15c.08,0,.14,.02,.19,.07,.05,.05,.07,.11,.07,.19v.66c0,.08-.02,.14-.07,.19-.05,.05-.11,.07-.19,.07h-4.26c-.08,0-.14-.02-.19-.07-.05-.05-.07-.11-.07-.19v-5.78c0-.08,.02-.14,.07-.19,.05-.05,.11-.07,.19-.07h4.26c.08,0,.14,.02,.19,.07,.05,.05,.07,.11,.07,.19v.66c0,.08-.02,.14-.07,.19-.05,.05-.11,.07-.19,.07h-3.15v1.4Z"/><path class="cls-2" d="M116.35,50.27c0-.05,.02-.11,.06-.16l.43-.62c.05-.08,.11-.12,.19-.12,.05,0,.11,.02,.16,.06,.27,.18,.58,.34,.94,.46,.35,.12,.67,.19,.96,.19,.35,0,.63-.07,.84-.2,.21-.13,.32-.3,.32-.5,0-.28-.22-.48-.65-.6l-.75-.16c-.49-.08-.9-.18-1.22-.29-.32-.12-.61-.3-.86-.54-.28-.26-.42-.63-.42-1.09,0-.64,.23-1.11,.7-1.43,.47-.32,1.07-.47,1.8-.47,.45,0,.86,.06,1.21,.17,.36,.11,.71,.29,1.06,.52,.08,.06,.12,.12,.12,.2,0,.06-.02,.12-.06,.16l-.46,.62c-.05,.08-.12,.12-.19,.12-.06,0-.12-.02-.17-.06-.25-.16-.51-.28-.78-.37-.27-.09-.53-.13-.79-.13-.3,0-.56,.05-.77,.15-.21,.1-.32,.26-.32,.47,0,.13,.05,.23,.16,.32,.11,.09,.24,.15,.4,.19,.12,.03,.34,.09,.68,.16l.31,.06c.53,.1,.95,.21,1.24,.33,.29,.12,.55,.3,.76,.54,.23,.26,.34,.63,.34,1.1,0,.63-.22,1.11-.67,1.45-.45,.34-1.06,.51-1.84,.51-1.04,0-1.92-.28-2.64-.83-.07-.06-.11-.12-.11-.2"/><path class="cls-2" d="M122.44,50.27c0-.05,.02-.11,.06-.16l.43-.62c.05-.08,.11-.12,.19-.12,.05,0,.11,.02,.16,.06,.27,.18,.58,.34,.94,.46,.35,.12,.67,.19,.96,.19,.35,0,.63-.07,.84-.2,.21-.13,.32-.3,.32-.5,0-.28-.22-.48-.66-.6l-.75-.16c-.49-.08-.9-.18-1.22-.29-.32-.12-.6-.3-.86-.54-.28-.26-.42-.63-.42-1.09,0-.64,.23-1.11,.7-1.43,.47-.32,1.07-.47,1.8-.47,.45,0,.86,.06,1.21,.17,.36,.11,.71,.29,1.06,.52,.08,.06,.12,.12,.12,.2,0,.06-.02,.12-.06,.16l-.46,.62c-.05,.08-.11,.12-.19,.12-.06,0-.12-.02-.17-.06-.25-.16-.51-.28-.78-.37-.27-.09-.53-.13-.79-.13-.3,0-.55,.05-.77,.15-.21,.1-.32,.26-.32,.47,0,.13,.05,.23,.16,.32,.11,.09,.24,.15,.41,.19,.11,.03,.34,.09,.68,.16l.31,.06c.53,.1,.95,.21,1.24,.33,.29,.12,.55,.3,.76,.54,.23,.26,.34,.63,.34,1.1,0,.63-.22,1.11-.67,1.45-.45,.34-1.06,.51-1.84,.51-1.04,0-1.92-.28-2.64-.83-.07-.06-.11-.12-.11-.2"/><path class="cls-2" d="M136.18,49.12s.08,0,.12,.03l.78,.3c.11,.05,.17,.11,.17,.2,0,.05-.02,.09-.05,.15-.32,.48-.72,.85-1.22,1.11-.5,.26-1.04,.39-1.62,.39-.61,0-1.17-.14-1.69-.43-.52-.29-.93-.69-1.25-1.19-.3-.51-.46-1.05-.46-1.64s.15-1.12,.46-1.62c.3-.5,.72-.9,1.24-1.19,.52-.29,1.08-.44,1.7-.44,.56,0,1.1,.13,1.6,.4,.5,.26,.91,.63,1.24,1.09,.04,.05,.05,.1,.05,.15,0,.09-.06,.15-.16,.2l-.78,.3s-.08,.03-.13,.03c-.09,0-.16-.04-.22-.12-.21-.25-.45-.44-.73-.59-.28-.14-.57-.22-.86-.22-.36,0-.7,.09-1.01,.28-.31,.18-.56,.43-.74,.75-.18,.32-.28,.65-.28,1s.09,.69,.27,1c.18,.31,.43,.56,.74,.75,.31,.19,.65,.28,1.02,.28,.3,0,.6-.07,.88-.21s.52-.34,.71-.59c.07-.09,.14-.14,.22-.14"/><path class="cls-2" d="M142.88,50.06s.07,.11,.07,.19v.66c0,.08-.02,.14-.07,.19-.05,.05-.11,.07-.19,.07h-4.15c-.08,0-.14-.02-.19-.07-.05-.05-.07-.11-.07-.19v-5.78c0-.08,.02-.14,.07-.19,.05-.05,.11-.07,.19-.07h.85c.08,0,.14,.02,.19,.07,.05,.05,.07,.11,.07,.19v4.86h3.04c.08,0,.14,.02,.19,.07"/><path class="cls-2" d="M145.13,50.96c-.43-.22-.76-.53-.99-.93-.24-.41-.35-.88-.35-1.4v-3.48c0-.08,.02-.14,.07-.19,.05-.05,.11-.07,.19-.07h.84c.08,0,.14,.02,.19,.07,.05,.05,.07,.11,.07,.19v3.48c0,.34,.07,.63,.22,.86,.15,.23,.35,.39,.59,.49,.21,.09,.42,.14,.65,.14s.45-.05,.67-.15c.22-.1,.4-.25,.54-.47,.15-.22,.23-.51,.23-.88v-3.48c0-.08,.02-.14,.07-.19,.05-.05,.11-.07,.19-.07h.84c.08,0,.14,.02,.19,.07,.05,.05,.07,.11,.07,.19v3.48c0,.53-.12,1-.35,1.4-.23,.4-.56,.71-.98,.93-.43,.22-.92,.33-1.48,.33s-1.06-.11-1.48-.33"/><path class="cls-2" d="M155.29,47.39c-.15,.23-.34,.39-.57,.49,.29,.1,.54,.29,.74,.57s.31,.57,.31,.9c0,.62-.2,1.08-.59,1.38-.4,.3-.93,.45-1.61,.45h-2.46c-.08,0-.14-.02-.19-.07-.05-.05-.07-.11-.07-.19v-5.78c0-.08,.02-.14,.07-.19,.05-.05,.11-.07,.19-.07h2.36c1.37,0,2.05,.58,2.05,1.75,0,.28-.07,.54-.22,.77m-1.81-.02c.21,0,.38-.07,.49-.2,.11-.13,.17-.3,.17-.5,0-.17-.06-.31-.19-.43-.13-.12-.28-.19-.46-.19h-1.28v1.32h1.27Zm.08,2.62c.26,0,.46-.07,.62-.2,.15-.13,.23-.31,.23-.51s-.08-.38-.23-.51c-.15-.13-.37-.2-.64-.2h-1.33v1.43h1.35Z"/></g></g></svg>