<?xml version="1.0" encoding="UTF-8"?><svg id="_レイヤー_2" xmlns="http://www.w3.org/2000/svg" viewBox="0 0 48.46 48.46"><defs><style>.cls-1{fill:none;}.cls-1,.cls-2{stroke-width:0px;}.cls-2{fill:#fff;}</style></defs><g id="_背景"><g id="Logo"><path id="Initiator" class="cls-2" d="M48.46,24.23C48.46,10.85,37.61,0,24.23,0S0,10.85,0,24.23c0,11.36,7.82,20.9,18.37,23.51v-16.11h-5v-7.4h5v-3.19c0-8.25,3.73-12.07,11.83-12.07,1.53,0,4.18.3,5.27.6v6.71c-.57-.06-1.56-.09-2.8-.09-3.97,0-5.51,1.5-5.51,5.42v2.62h7.91l-1.36,7.4h-6.55v16.65c12-1.45,21.29-11.66,21.29-24.05Z"/><path id="F" class="cls-1" d="M33.72,31.63l1.36-7.4h-7.91v-2.62c0-3.91,1.53-5.42,5.51-5.42,1.23,0,2.23.03,2.8.09v-6.71c-1.08-.3-3.73-.6-5.27-.6-8.1,0-11.83,3.82-11.83,12.07v3.19h-5v7.4h5v16.11c1.87.47,3.83.71,5.85.71.99,0,1.97-.06,2.94-.18v-16.65h6.55Z"/></g></g></svg>