<?xml version="1.0" encoding="UTF-8"?><svg id="_イヤー_2" xmlns="http://www.w3.org/2000/svg" xmlns:xlink="http://www.w3.org/1999/xlink" viewBox="0 0 48 48"><defs><style>.cls-1{fill:#fff;}.cls-2{clip-path:url(#clippath);}.cls-3{fill:none;}</style><clipPath id="clippath"><rect class="cls-3" width="48" height="48"/></clipPath></defs><g id="_ンテンツ"><g class="cls-2"><path class="cls-1" d="M46.04,20.89c0-9.86-9.88-17.88-22.04-17.88S1.96,11.03,1.96,20.89c0,8.84,7.84,16.24,18.43,17.64,.72,.16,1.69,.47,1.94,1.09,.22,.56,.14,1.43,.07,1.99,0,0-.26,1.55-.31,1.89-.1,.56-.44,2.18,1.91,1.19,2.35-.99,12.69-7.47,17.31-12.79h0c3.19-3.5,4.72-7.06,4.72-11Zm-29.81,5.26c0,.24-.19,.43-.43,.43h-6.18c-.11,0-.22-.05-.3-.12h-.01c-.07-.09-.12-.19-.12-.31v-9.6c0-.24,.19-.43,.43-.43h1.55c.24,0,.43,.19,.43,.43v7.62h4.2c.24,0,.43,.19,.43,.43v1.55Zm3.73,0c0,.24-.19,.43-.43,.43h-1.55c-.24,0-.43-.19-.43-.43v-9.6c0-.24,.19-.43,.43-.43h1.55c.24,0,.43,.19,.43,.43v9.6Zm10.64,0c0,.24-.19,.43-.43,.43h-1.55s-.08,0-.11-.01h-.04v-.02h-.03s-.01-.02-.02-.02h-.01s-.02-.02-.03-.02h0s-.08-.07-.11-.11l-4.41-5.95v5.7c0,.24-.19,.43-.43,.43h-1.55c-.24,0-.43-.19-.43-.43v-9.6c0-.24,.19-.43,.43-.43h1.65v.02h.05s.02,.02,.02,.02h.01l.02,.02h.01s.02,.02,.02,.02h.01s.02,.02,.02,.03h0l.03,.03h0s.02,.03,.03,.05l4.4,5.94v-5.7c0-.24,.19-.43,.43-.43h1.55c.24,0,.43,.19,.43,.43v9.6Zm8.54-8.05c0,.24-.19,.43-.43,.43h-4.2v1.62h4.2c.24,0,.43,.19,.43,.43v1.55c0,.24-.19,.43-.43,.43h-4.2v1.62h4.2c.24,0,.43,.19,.43,.43v1.55c0,.24-.19,.43-.43,.43h-6.18c-.11,0-.22-.05-.3-.12h-.01c-.07-.09-.12-.19-.12-.31v-9.6c0-.12,.05-.22,.12-.3h.01c.08-.09,.18-.13,.3-.13h6.18c.24,0,.43,.19,.43,.43v1.55Z"/></g></g></svg>