<?xml version="1.0" encoding="UTF-8"?><svg id="_イヤー_2" xmlns="http://www.w3.org/2000/svg" viewBox="0 0 157.42 287.66"><g id="_ンテンツ"><g><g><path d="M70.94,0l1.41,.63c-.63,.78-1.08,2.03-1.08,3.24,0,1.53,.55,2.17,1.27,2.17,2.12,0,.73-5.83,4.37-5.83,1.58,0,2.93,1.26,2.93,3.95,0,1.18-.31,2.41-.87,3.26l-1.42-.57c.52-.88,.77-1.85,.77-2.7,0-1.51-.59-2.13-1.33-2.13-2.09,0-.73,5.81-4.33,5.81-1.57,0-2.91-1.27-2.91-3.96,0-1.53,.48-3.05,1.18-3.87Z"/><path d="M74.8,9.57c2.93,0,5.04,2.24,5.04,5.25,0,1.6-.57,2.97-1.64,3.88l-1.11-1.18c.77-.71,1.15-1.6,1.15-2.62,0-2.03-1.43-3.5-3.45-3.5s-3.45,1.47-3.45,3.5c0,1.02,.38,1.91,1.16,2.62l-1.12,1.18c-1.06-.91-1.64-2.28-1.64-3.89,0-3,2.12-5.24,5.04-5.24Z"/><path d="M69.9,27.41l2.87-2c-.01-.13-.01-.25-.01-.38v-2.21h-2.86v-1.82h9.81v4.03c0,2.58-1.32,4.17-3.49,4.17-1.48,0-2.58-.76-3.1-2.09l-3.22,2.26v-1.96Zm8.26-2.47v-2.13h-3.91v2.13c0,1.6,.73,2.42,1.96,2.42s1.95-.83,1.95-2.42Z"/><path d="M74.8,31.16c2.9,0,5.04,2.24,5.04,5.28s-2.13,5.28-5.04,5.28-5.04-2.24-5.04-5.28,2.14-5.28,5.04-5.28Zm0,8.73c2,0,3.45-1.47,3.45-3.45s-1.44-3.45-3.45-3.45-3.45,1.47-3.45,3.45,1.44,3.45,3.45,3.45Z"/><path d="M79.7,44.3v1.82h-8.26v5.13h-1.54v-6.95h9.81Z"/><path d="M79.7,53.27v1.82h-8.26v5.13h-1.54v-6.95h9.81Z"/><path d="M79.7,66.92v4.29c0,3.18-1.96,5.35-4.9,5.35s-4.9-2.17-4.9-5.35v-4.29h9.81Zm-8.26,4.2c0,2.19,1.33,3.6,3.36,3.6s3.36-1.42,3.36-3.6v-2.38h-6.72v2.38Z"/><path d="M74.8,78.47c2.9,0,5.04,2.24,5.04,5.28s-2.13,5.28-5.04,5.28-5.04-2.24-5.04-5.28,2.14-5.28,5.04-5.28Zm0,8.73c2,0,3.45-1.47,3.45-3.45s-1.44-3.45-3.45-3.45-3.45,1.47-3.45,3.45,1.44,3.45,3.45,3.45Z"/><path d="M79.7,105.54l-9.81-3.25v-1.93l7.26-2.42-7.26-2.47v-1.95l9.81-3.25v1.89l-7.45,2.44,7.45,2.54v1.68l-7.49,2.48,7.49,2.51v1.74Z"/><path d="M79.7,116.42h-9.81v-1.5l6.64-5.41h-6.64v-1.81h9.81v1.5l-6.64,5.41h6.64v1.81Z"/></g><g><path d="M78.71,287.66C35.31,287.66,0,252.35,0,208.95s35.31-78.71,78.71-78.71,78.71,35.31,78.71,78.71-35.31,78.71-78.71,78.71Zm0-156.42C35.86,131.24,1,166.1,1,208.95s34.86,77.71,77.71,77.71,77.71-34.86,77.71-77.71-34.86-77.71-77.71-77.71Z"/><polygon points="78.71 249.16 45.53 215.98 46.24 215.27 78.71 247.74 111.17 215.27 111.88 215.98 78.71 249.16"/><rect x="78.21" y="169.45" width="1" height="79"/></g></g></g></svg>