<?xml version="1.0" encoding="UTF-8"?><svg id="_イヤー_2" xmlns="http://www.w3.org/2000/svg" viewBox="0 0 508.95 91.05"><g id="_ンテンツ"><g><path d="M9.71,16.34c0-10.24-.2-11.71-6-12.4l-1.58-.2c-.59-.39-.39-2.17,.2-2.46,4.23,.2,7.58,.29,11.62,.29h18.51c6.3,0,12.11,0,13.29-.29,.59,1.67,1.18,8.76,1.58,13.09-.39,.59-1.97,.79-2.46,.2-1.48-4.63-2.36-8.07-7.48-9.35-2.07-.49-5.22-.59-9.55-.59h-7.09c-2.95,0-2.95,.2-2.95,3.94V28.25c0,2.76,.29,2.76,3.25,2.76h5.71c4.13,0,7.19-.2,8.37-.59,1.18-.39,1.87-.98,2.36-3.45l.79-4.04c.49-.59,2.17-.59,2.56,.1,0,2.36-.39,6.2-.39,9.94,0,3.54,.39,7.28,.39,9.45-.39,.69-2.07,.69-2.56,.1l-.89-3.84c-.39-1.77-1.08-3.25-3.05-3.74-1.38-.39-3.74-.49-7.58-.49h-5.71c-2.95,0-3.25,.1-3.25,2.66v13.88c0,5.22,.29,8.56,1.87,10.24,1.18,1.18,3.25,2.26,11.91,2.26,7.58,0,10.43-.39,12.6-1.48,1.77-.98,4.43-4.43,6.99-9.55,.69-.49,2.07-.2,2.46,.69-.69,3.45-3.15,11.02-4.43,13.68-8.86-.2-17.62-.29-26.38-.29H13.94c-4.23,0-7.58,.1-13.39,.29-.59-.29-.79-1.87-.2-2.46l3.25-.29c5.61-.49,6.1-1.97,6.1-12.3V16.34Z"/><path d="M77.86,46.17c1.48-.49,1.67-1.38,1.67-2.85l.1-4.53c.1-3.64-1.08-8.56-7.19-8.56-2.76,0-6.1,1.38-6.3,4.43-.1,1.58-.2,2.76-.98,3.35-1.48,1.18-4.13,1.87-5.61,1.87-.89,0-1.38-.49-1.38-1.38,0-5.12,11.12-12.11,18.31-12.11s10.53,4.13,10.24,11.52l-.59,17.13c-.2,4.53,.69,8.56,4.53,8.56,.98,0,1.87-.29,2.46-.59,.49-.29,.98-.69,1.28-.69,.39,0,.69,.59,.69,1.28,0,.49-3.45,4.33-8.27,4.33-2.36,0-4.73-.89-6.4-3.05-.39-.59-.98-1.38-1.57-1.38-.69,0-1.87,.89-3.84,1.97-2.17,1.18-4.33,2.46-7.09,2.46s-5.22-.79-6.89-2.26c-1.87-1.67-3.05-4.13-3.05-6.89,0-3.84,1.87-6.1,8.17-8.37l11.71-4.23Zm-6.1,17.32c1.97,0,5.02-1.48,6-2.46,1.18-1.18,1.18-2.56,1.28-4.63l.2-5.81c0-1.08-.39-1.28-.98-1.28s-2.26,.39-4.04,.98c-5.81,1.97-8.66,3.44-8.66,7.28,0,1.67,1.18,5.91,6.2,5.91Z"/><path d="M122.02,28.15c.89,2.17,1.57,5.32,1.57,7.97-.39,.69-1.87,.89-2.36,.29-1.67-4.33-4.63-7.19-8.66-7.19s-6.3,2.46-6.3,6c0,4.04,4.13,6.2,7.58,8.17,5.22,2.95,10.04,6.3,10.04,13.29,0,7.48-6.89,11.22-14.17,11.22-4.63,0-8.07-.98-10.53-2.95-.79-1.87-1.38-6.69-1.18-9.94,.49-.59,1.77-.69,2.26-.1,1.67,5.41,4.82,10.14,10.43,10.14,3.54,0,6.6-2.07,6.6-6.3,0-4.53-3.94-6.99-7.58-9.06-5.71-3.25-9.74-6.69-9.74-12.11,0-7.19,5.91-11.22,13.39-11.22,4.13,0,7.78,.98,8.66,1.77Z"/><path d="M129.19,86.82c0-2.66,1.77-3.94,3.94-3.94h1.87c1.58,0,2.56-.69,3.25-1.77,2.85-4.43,4.82-8.56,5.71-10.93,.3-.79,.98-2.85,.98-4.23,0-1.97-.39-3.15-1.67-6.79l-7.68-21.06c-1.67-4.63-2.36-6.99-5.81-7.68l-2.46-.49c-.59-.49-.49-2.17,.3-2.46,3.15,.2,6.1,.29,9.35,.29,2.66,0,5.41-.1,8.56-.29,.79,.29,.89,1.97,.2,2.46l-2.46,.49c-1.38,.29-2.17,.59-2.17,1.28,0,1.18,2.26,7.58,2.85,9.25l3.15,9.06c.59,1.58,2.46,6.79,2.85,6.99,.29-.2,1.87-3.25,3.64-7.28l3.35-7.78c2.17-5.12,3.44-8.76,3.44-9.84,0-.69-.59-1.38-2.36-1.67l-3.05-.49c-.69-.49-.59-2.17,.2-2.46,3.15,.2,6.1,.29,8.66,.29s4.73-.1,7.48-.29c.79,.39,.89,1.87,.2,2.46l-1.67,.29c-3.25,.59-5.02,3.45-8.37,10.43l-5.51,11.32c-3.25,6.59-11.32,23.72-16.14,34.45-1.67,3.74-4.04,4.63-6.3,4.63-2.85,0-4.33-1.77-4.33-4.23Z"/><path d="M212.27,31.89c-1.67,0-1.77,.29-1.77,2.36v18.41c0,5.71,.69,10.93,7.19,10.93,.98,0,1.87-.2,2.66-.49,.89-.29,2.17-1.38,2.46-1.38,.79,0,1.18,1.08,.98,1.67-1.77,2.07-5.32,4.53-10.34,4.53-8.47,0-10.24-4.72-10.24-10.63v-22.54c0-2.66-.1-2.85-2.07-2.85h-2.76c-.59-.39-.69-1.48-.3-2.07,2.85-.89,5.32-2.17,6.3-3.05,1.28-1.18,3.15-3.84,4.13-5.81,.49-.2,1.67-.2,2.07,.49v4.43c0,1.77,.1,1.87,1.77,1.87h10.93c1.18,.89,.98,3.54,.1,4.13h-11.12Z"/><path d="M266.44,46.76c0,12.3-8.47,21.16-20.77,21.16-11.32,0-20.18-7.97-20.18-20.28s9.35-21.26,20.97-21.26,19.98,8.27,19.98,20.38Zm-21.16-17.42c-6.5,0-11.32,6.2-11.32,17.03,0,8.96,4.04,18.6,12.7,18.6s11.32-9.06,11.32-16.63c0-8.37-3.35-19-12.7-19Z"/><path d="M316.54,68.12c-8.27,0-13.49-2.56-15.36-3.64-1.18-2.17-2.46-9.15-2.66-13.78,.49-.69,1.97-.89,2.36-.3,1.48,5.02,5.51,14.67,16.93,14.67,8.27,0,12.3-5.41,12.3-11.32,0-4.33-.89-9.15-8.07-13.78l-9.35-6.1c-4.92-3.25-10.63-8.86-10.63-16.93,0-9.35,7.28-16.93,20.08-16.93,3.05,0,6.6,.59,9.15,1.28,1.28,.39,2.66,.59,3.45,.59,.89,2.36,1.77,7.88,1.77,12.01-.39,.59-1.97,.89-2.46,.29-1.28-4.72-3.94-11.12-13.39-11.12s-11.71,6.4-11.71,10.93c0,5.71,4.73,9.84,8.37,12.11l7.87,4.92c6.2,3.84,12.3,9.55,12.3,18.9,0,10.83-8.17,18.21-20.97,18.21Z"/><path d="M357.21,31.89c-1.67,0-1.77,.29-1.77,2.36v18.41c0,5.71,.69,10.93,7.19,10.93,.98,0,1.87-.2,2.66-.49,.89-.29,2.17-1.38,2.46-1.38,.79,0,1.18,1.08,.98,1.67-1.77,2.07-5.32,4.53-10.34,4.53-8.47,0-10.24-4.72-10.24-10.63v-22.54c0-2.66-.1-2.85-2.07-2.85h-2.76c-.59-.39-.69-1.48-.3-2.07,2.85-.89,5.32-2.17,6.3-3.05,1.28-1.18,3.15-3.84,4.13-5.81,.49-.2,1.67-.2,2.07,.49v4.43c0,1.77,.1,1.87,1.77,1.87h10.93c1.18,.89,.98,3.54,.1,4.13h-11.12Z"/><path d="M392.59,46.17c1.48-.49,1.67-1.38,1.67-2.85l.1-4.53c.1-3.64-1.08-8.56-7.19-8.56-2.76,0-6.1,1.38-6.3,4.43-.1,1.58-.2,2.76-.98,3.35-1.48,1.18-4.13,1.87-5.61,1.87-.89,0-1.38-.49-1.38-1.38,0-5.12,11.12-12.11,18.31-12.11s10.53,4.13,10.24,11.52l-.59,17.13c-.2,4.53,.69,8.56,4.53,8.56,.98,0,1.87-.29,2.46-.59,.49-.29,.98-.69,1.28-.69,.39,0,.69,.59,.69,1.28,0,.49-3.45,4.33-8.27,4.33-2.36,0-4.73-.89-6.4-3.05-.39-.59-.98-1.38-1.57-1.38-.69,0-1.87,.89-3.84,1.97-2.17,1.18-4.33,2.46-7.09,2.46s-5.22-.79-6.89-2.26c-1.87-1.67-3.05-4.13-3.05-6.89,0-3.84,1.87-6.1,8.17-8.37l11.71-4.23Zm-6.1,17.32c1.97,0,5.02-1.48,6-2.46,1.18-1.18,1.18-2.56,1.28-4.63l.2-5.81c0-1.08-.39-1.28-.98-1.28s-2.26,.39-4.04,.98c-5.81,1.97-8.66,3.44-8.66,7.28,0,1.67,1.18,5.91,6.2,5.91Z"/><path d="M419.31,38.29c0-3.84,0-4.33-2.66-6.1l-.89-.59c-.39-.39-.39-1.48,.1-1.77,2.26-.79,7.48-3.35,9.94-4.82,.49,.1,.79,.29,.79,.69v5.71c0,.49,.1,.79,.3,.89,3.45-2.85,7.19-5.91,10.83-5.91,2.46,0,4.43,1.58,4.43,3.94,0,3.25-2.66,4.53-4.23,4.53-.98,0-1.48-.29-2.17-.69-1.48-.98-2.95-1.58-4.33-1.58-1.57,0-2.76,.89-3.54,1.97-.98,1.38-1.28,4.23-1.28,7.58v13.39c0,7.09,.2,8.27,3.94,8.56l3.54,.29c.69,.49,.49,2.17-.2,2.46-4.63-.2-7.48-.29-10.93-.29s-6.5,.1-9.06,.29c-.69-.29-.89-1.97-.2-2.46l1.87-.29c3.64-.59,3.74-1.48,3.74-8.56v-17.23Z"/><path d="M460.33,31.89c-1.67,0-1.77,.29-1.77,2.36v18.41c0,5.71,.69,10.93,7.19,10.93,.98,0,1.87-.2,2.66-.49,.89-.29,2.17-1.38,2.46-1.38,.79,0,1.18,1.08,.98,1.67-1.77,2.07-5.32,4.53-10.34,4.53-8.47,0-10.24-4.72-10.24-10.63v-22.54c0-2.66-.1-2.85-2.07-2.85h-2.76c-.59-.39-.69-1.48-.3-2.07,2.85-.89,5.32-2.17,6.3-3.05,1.28-1.18,3.15-3.84,4.13-5.81,.49-.2,1.67-.2,2.07,.49v4.43c0,1.77,.1,1.87,1.77,1.87h10.93c1.18,.89,.98,3.54,.1,4.13h-11.12Z"/><path d="M477.28,62.51c0-3.35,2.36-5.81,5.51-5.81,3.35,0,5.51,2.66,5.51,5.81s-2.17,5.41-5.51,5.41c-2.85,0-5.51-2.07-5.51-5.41Zm10.34-56.7c0,1.48-.2,3.54-.69,8.76l-2.85,31.79c-.59,.59-2.07,.59-2.56,0l-2.85-31.79c-.49-5.22-.69-7.28-.69-8.76,0-2.46,1.67-2.85,4.82-2.85s4.82,.39,4.82,2.85Z"/><path d="M497.93,62.51c0-3.35,2.36-5.81,5.51-5.81,3.35,0,5.51,2.66,5.51,5.81s-2.17,5.41-5.51,5.41c-2.85,0-5.51-2.07-5.51-5.41Zm10.34-56.7c0,1.48-.2,3.54-.69,8.76l-2.85,31.79c-.59,.59-2.07,.59-2.56,0l-2.85-31.79c-.49-5.22-.69-7.28-.69-8.76,0-2.46,1.67-2.85,4.82-2.85s4.82,.39,4.82,2.85Z"/></g></g></svg>