<?xml version="1.0" encoding="UTF-8"?><svg id="_イヤー_2" xmlns="http://www.w3.org/2000/svg" xmlns:xlink="http://www.w3.org/1999/xlink" viewBox="0 0 132.06 132.06"><defs><style>.cls-1{clip-path:url(#clippath-2);}.cls-2{clip-path:url(#clippath-6);}.cls-3{clip-path:url(#clippath-1);}.cls-4{clip-path:url(#clippath-4);}.cls-5{clip-path:url(#clippath);}.cls-6{fill:none;}.cls-7{clip-path:url(#clippath-3);}.cls-8{clip-path:url(#clippath-5);}</style><clipPath id="clippath"><path class="cls-6" d="M91.07,0V9.11h4.55V0h-4.55Zm-4.55,0V18.21h4.55V0h-4.55Zm-4.55,0V9.11h4.55V0h-4.55Zm-4.55,0V9.11h4.55V0h-4.55Zm-9.11,0V4.55h4.55V0h-4.55Zm-4.55,0V4.55h4.55V0h-4.55Zm9.11,4.55V13.66h4.55V4.55h-4.55Zm-18.21,0v13.66h4.55V4.55h-4.55Zm-4.55,0v13.66h4.55V4.55h-4.55Zm-13.66,0v4.55h4.55V4.55h-4.55Zm31.88,4.55v13.66h4.55V9.11h-4.55Zm-9.11,0v4.55h4.55v-4.55h-4.55Zm-13.66,0v13.66h4.55V9.11h-4.55Zm-4.55,0v9.11h4.55V9.11h-4.55Zm50.09,4.55v4.55h4.55v-4.55h-4.55Zm-27.32,0V31.88h4.55V13.66h-4.55Zm-27.32,0V31.88h4.55V13.66h-4.55Zm45.54,4.55v18.21h4.55V18.21h-4.55Zm-4.55,0v4.55h4.55v-4.55h-4.55Zm-4.55,0v13.66h4.55v-13.66h-4.55Zm-13.66,0v9.11h4.55v-9.11h-4.55Zm27.32,4.55v4.55h4.55v-4.55h-4.55Zm-31.88,0v31.88h4.55V22.77h-4.55Zm36.43,4.55v4.55h4.55v-4.55h-4.55Zm-45.54,0v9.11h4.55v-9.11h-4.55Zm40.98,4.55v4.55h4.55v-4.55h-4.55Zm-18.21,0v18.21h4.55V31.88h-4.55Zm-9.11,0v9.11h4.55v-9.11h-4.55Zm-18.21,0v4.55h4.55v-4.55h-4.55Zm81.97,4.55v4.55h4.55v-4.55h-4.55Zm-9.11,0v4.55h4.55v-4.55h-4.55Zm-4.55,0v4.55h4.55v-4.55h-4.55Zm-4.55,0v4.55h4.55v-4.55h-4.55Zm-9.11,0v18.21h4.55v-18.21h-4.55Zm-22.77,0v13.66h4.55v-13.66h-4.55Zm-22.77,0v4.55h4.55v-4.55h-4.55Zm-13.66,0v4.55h4.55v-4.55h-4.55Zm-4.55,0v13.66h4.55v-13.66h-4.55Zm-4.55,0v4.55h4.55v-4.55h-4.55Zm-9.11,0v4.55h4.55v-4.55h-4.55Zm-4.55,0v9.11h4.55v-9.11h-4.55Zm-9.11,0v4.55h4.55v-4.55H4.55Zm95.63,4.55v4.55h4.55v-4.55h-4.55Zm-9.11,0v9.11h4.55v-9.11h-4.55Zm-4.55,0v4.55h4.55v-4.55h-4.55Zm-4.55,0v4.55h4.55v-4.55h-4.55Zm-40.98,0v9.11h4.55v-9.11h-4.55Zm72.86,4.55v13.66h4.55v-13.66h-4.55Zm-4.55,0v4.55h4.55v-4.55h-4.55Zm-31.88,0v22.77h4.55v-22.77h-4.55Zm-27.32,0v4.55h4.55v-4.55h-4.55Zm-4.55,0v18.21h4.55v-18.21h-4.55Zm-18.21,0v4.55h4.55v-4.55h-4.55Zm-9.11,0v4.55h4.55v-4.55h-4.55Zm100.18,4.55v9.11h4.55v-9.11h-4.55Zm-18.21,0v4.55h4.55v-4.55h-4.55Zm-13.66,0v4.55h4.55v-4.55h-4.55Zm-4.55,0v4.55h4.55v-4.55h-4.55Zm-22.77,0v4.55h4.55v-4.55h-4.55Zm-22.77,0v9.11h4.55v-9.11h-4.55Zm-22.77,0v4.55h4.55v-4.55h-4.55Zm-4.55,0v9.11h4.55v-9.11h-4.55Zm-4.55,0v13.66h4.55v-13.66H4.55Zm-4.55,0v13.66H4.55v-13.66H0Zm109.29,4.55v13.66h4.55v-13.66h-4.55Zm-4.55,0v4.55h4.55v-4.55h-4.55Zm-13.66,0v27.32h4.55v-27.32h-4.55Zm-18.21,0v4.55h4.55v-4.55h-4.55Zm-9.11,0v4.55h4.55v-4.55h-4.55Zm-13.66,0v9.11h4.55v-9.11h-4.55Zm-9.11,0v18.21h4.55v-18.21h-4.55Zm-9.11,0v22.77h4.55v-22.77h-4.55Zm-4.55,0v4.55h4.55v-4.55h-4.55Zm-4.55,0v4.55h4.55v-4.55h-4.55Zm104.74,4.55v9.11h4.55v-9.11h-4.55Zm-27.32,0v4.55h4.55v-4.55h-4.55Zm-4.55,0v4.55h4.55v-4.55h-4.55Zm-27.32,0v4.55h4.55v-4.55h-4.55Zm-9.11,0v4.55h4.55v-4.55h-4.55Zm-4.55,0v4.55h4.55v-4.55h-4.55Zm63.75,4.55v4.55h4.55v-4.55h-4.55Zm-13.66,0v9.11h4.55v-9.11h-4.55Zm-40.98,0v4.55h4.55v-4.55h-4.55Zm-27.32,0v4.55h4.55v-4.55h-4.55Zm-9.11,0v4.55h4.55v-4.55h-4.55Zm-4.55,0v4.55h4.55v-4.55h-4.55Zm-4.55,0v9.11h4.55v-9.11h-4.55Zm-9.11,0v4.55h4.55v-4.55h-4.55Zm113.84,4.55v4.55h4.55v-4.55h-4.55Zm-22.77,0v27.32h4.55v-27.32h-4.55Zm-4.55,0v9.11h4.55v-9.11h-4.55Zm-13.66,0v4.55h4.55v-4.55h-4.55Zm-9.11,0v13.66h4.55v-13.66h-4.55Zm-4.55,0v4.55h4.55v-4.55h-4.55Zm-9.11,0v4.55h4.55v-4.55h-4.55Zm-9.11,0v13.66h4.55v-13.66h-4.55Zm-4.55,0v18.21h4.55v-18.21h-4.55Zm-31.88,0v13.66h4.55v-13.66h-4.55Zm-13.66,0v22.77H4.55v-22.77H0Zm118.4,4.55v4.55h4.55v-4.55h-4.55Zm-4.55,0v9.11h4.55v-9.11h-4.55Zm-4.55,0v40.98h4.55v-40.98h-4.55Zm-31.88,0v4.55h4.55v-4.55h-4.55Zm-13.66,0v9.11h4.55v-9.11h-4.55Zm-27.32,0v4.55h4.55v-4.55h-4.55Zm-9.11,0v4.55h4.55v-4.55h-4.55Zm-4.55,0v13.66h4.55v-13.66h-4.55Zm-13.66,0v4.55h4.55v-4.55h-4.55Zm95.63,4.55v4.55h4.55v-4.55h-4.55Zm-36.43,0v9.11h4.55v-9.11h-4.55Zm-9.11,0v9.11h4.55v-9.11h-4.55Zm-18.21,0v4.55h4.55v-4.55h-4.55Zm-22.77,0v4.55h4.55v-4.55h-4.55Zm-13.66,0v4.55h4.55v-4.55H4.55Zm113.84,4.55v4.55h4.55v-4.55h-4.55Zm-22.77,0v13.66h4.55v-13.66h-4.55Zm-9.11,0v22.77h4.55v-22.77h-4.55Zm-9.11,0v13.66h4.55v-13.66h-4.55Zm-22.77,0v9.11h4.55v-9.11h-4.55Zm-18.21,0v9.11h4.55v-9.11h-4.55Zm-9.11,0v4.55h4.55v-4.55h-4.55Zm-18.21,0v4.55h4.55v-4.55h-4.55Zm118.4,4.55v13.66h4.55v-13.66h-4.55Zm-22.77,0v9.11h4.55v-9.11h-4.55Zm-22.77,0v4.55h4.55v-4.55h-4.55Zm-18.21,0v22.77h4.55v-22.77h-4.55Zm-13.66,0v9.11h4.55v-9.11h-4.55Zm-31.88,0v4.55h4.55v-4.55h-4.55Zm-4.55,0v9.11h4.55v-9.11h-4.55Zm104.74,4.55v9.11h4.55v-9.11h-4.55Zm-27.32,0v22.77h4.55v-22.77h-4.55Zm-18.21,0v4.55h4.55v-4.55h-4.55Zm-4.55,0v9.11h4.55v-9.11h-4.55Zm-27.32,0v4.55h4.55v-4.55h-4.55Zm-9.11,0v4.55h4.55v-4.55h-4.55Zm-4.55,0v4.55h4.55v-4.55h-4.55Zm-18.21,0v4.55h4.55v-4.55h-4.55Zm-4.55,0v4.55h4.55v-4.55H4.55Zm118.4,4.55v9.11h4.55v-9.11h-4.55Zm-68.31,0v9.11h4.55v-9.11h-4.55Zm-9.11,0v9.11h4.55v-9.11h-4.55Zm-9.11,0v9.11h4.55v-9.11h-4.55Zm63.75,4.55v4.55h4.55v-4.55h-4.55Zm-40.98,0v4.55h4.55v-4.55h-4.55Zm68.31,4.55v13.66h4.55v-13.66h-4.55Zm-9.11,0v9.11h4.55v-9.11h-4.55Zm-4.55,0v4.55h4.55v-4.55h-4.55Zm-31.88,0v9.11h4.55v-9.11h-4.55Zm-4.55,0v9.11h4.55v-9.11h-4.55Zm-36.43,0v22.77h4.55v-22.77h-4.55Zm81.97,4.55v13.66h4.55v-13.66h-4.55Zm-18.21,0v9.11h4.55v-9.11h-4.55Zm-4.55,0v4.55h4.55v-4.55h-4.55Zm-4.55,0v13.66h4.55v-13.66h-4.55Zm-27.32,0v13.66h4.55v-13.66h-4.55Zm-9.11,0v4.55h4.55v-4.55h-4.55Zm-9.11,0v9.11h4.55v-9.11h-4.55Zm-13.66,0v9.11h4.55v-9.11h-4.55Zm77.41,4.55v4.55h4.55v-4.55h-4.55Zm-40.98,0v4.55h4.55v-4.55h-4.55Zm-9.11,0v4.55h4.55v-4.55h-4.55Zm-9.11,0v13.66h4.55v-13.66h-4.55Zm-9.11,0v9.11h4.55v-9.11h-4.55Zm54.64,4.55v4.55h4.55v-4.55h-4.55Zm-9.11,0v9.11h4.55v-9.11h-4.55Zm-4.55,0v4.55h4.55v-4.55h-4.55Zm-4.55,0v4.55h4.55v-4.55h-4.55Zm-22.77,0v4.55h4.55v-4.55h-4.55Zm59.2,4.55v9.11h4.55v-9.11h-4.55Zm-4.55,0v4.55h4.55v-4.55h-4.55Zm-9.11,0v4.55h4.55v-4.55h-4.55Zm-68.31,0v4.55h4.55v-4.55h-4.55Zm86.52,4.55v4.55h4.55v-4.55h-4.55Zm-36.43,0v4.55h4.55v-4.55h-4.55Zm-4.55,0v4.55h4.55v-4.55h-4.55Zm-9.11,0v4.55h4.55v-4.55h-4.55Zm-4.55,0v4.55h4.55v-4.55h-4.55Zm-4.55,0v4.55h4.55v-4.55h-4.55Zm-13.66,0v4.55h4.55v-4.55h-4.55Z"/></clipPath><clipPath id="clippath-1"><path class="cls-6" d="M27.32,0V31.88h4.55V0h-4.55Zm-4.55,0V4.55h4.55V0h-4.55Zm-4.55,0V4.55h4.55V0h-4.55Zm-4.55,0V4.55h4.55V0h-4.55Zm-4.55,0V4.55h4.55V0h-4.55ZM4.55,0V4.55h4.55V0H4.55ZM0,0V31.88H4.55V0H0ZM22.77,27.32v4.55h4.55v-4.55h-4.55Zm-4.55,0v4.55h4.55v-4.55h-4.55Zm-4.55,0v4.55h4.55v-4.55h-4.55Zm-4.55,0v4.55h4.55v-4.55h-4.55Zm-4.55,0v4.55h4.55v-4.55H4.55Z"/></clipPath><clipPath id="clippath-2"><path class="cls-6" d="M18.21,9.11v13.66h4.55V9.11h-4.55Zm-4.55,0v13.66h4.55V9.11h-4.55Zm-4.55,0v13.66h4.55V9.11h-4.55Z"/></clipPath><clipPath id="clippath-3"><path class="cls-6" d="M127.5,0V31.88h4.55V0h-4.55Zm-4.55,0V4.55h4.55V0h-4.55Zm-4.55,0V4.55h4.55V0h-4.55Zm-4.55,0V4.55h4.55V0h-4.55Zm-4.55,0V4.55h4.55V0h-4.55Zm-4.55,0V4.55h4.55V0h-4.55Zm-4.55,0V31.88h4.55V0h-4.55Zm22.77,27.32v4.55h4.55v-4.55h-4.55Zm-4.55,0v4.55h4.55v-4.55h-4.55Zm-4.55,0v4.55h4.55v-4.55h-4.55Zm-4.55,0v4.55h4.55v-4.55h-4.55Zm-4.55,0v4.55h4.55v-4.55h-4.55Z"/></clipPath><clipPath id="clippath-4"><path class="cls-6" d="M118.4,9.11v13.66h4.55V9.11h-4.55Zm-4.55,0v13.66h4.55V9.11h-4.55Zm-4.55,0v13.66h4.55V9.11h-4.55Z"/></clipPath><clipPath id="clippath-5"><path class="cls-6" d="M27.32,100.18v31.88h4.55v-31.88h-4.55Zm-4.55,0v4.55h4.55v-4.55h-4.55Zm-4.55,0v4.55h4.55v-4.55h-4.55Zm-4.55,0v4.55h4.55v-4.55h-4.55Zm-4.55,0v4.55h4.55v-4.55h-4.55Zm-4.55,0v4.55h4.55v-4.55H4.55Zm-4.55,0v31.88H4.55v-31.88H0Zm22.77,27.32v4.55h4.55v-4.55h-4.55Zm-4.55,0v4.55h4.55v-4.55h-4.55Zm-4.55,0v4.55h4.55v-4.55h-4.55Zm-4.55,0v4.55h4.55v-4.55h-4.55Zm-4.55,0v4.55h4.55v-4.55H4.55Z"/></clipPath><clipPath id="clippath-6"><path class="cls-6" d="M18.21,109.29v13.66h4.55v-13.66h-4.55Zm-4.55,0v13.66h4.55v-13.66h-4.55Zm-4.55,0v13.66h4.55v-13.66h-4.55Z"/></clipPath></defs><g id="_ンテンツ"><g><g class="cls-5"><rect x="0" y="0" width="132.06" height="132.06"/></g><g class="cls-3"><rect x="0" y="0" width="31.88" height="31.88"/></g><g class="cls-1"><rect x="9.11" y="9.11" width="13.66" height="13.66"/></g><g class="cls-7"><rect x="100.18" y="0" width="31.88" height="31.88"/></g><g class="cls-4"><rect x="109.29" y="9.11" width="13.66" height="13.66"/></g><g class="cls-8"><rect x="0" y="100.18" width="31.88" height="31.88"/></g><g class="cls-2"><rect x="9.11" y="109.29" width="13.66" height="13.66"/></g></g></g></svg>